%TF.GenerationSoftware,KiCad,Pcbnew,7.0.6-1.fc38*%
%TF.CreationDate,2023-08-24T19:35:41-07:00*%
%TF.ProjectId,s3gta_back,73336774-615f-4626-9163-6b2e6b696361,rev?*%
%TF.SameCoordinates,Original*%
%TF.FileFunction,Legend,Bot*%
%TF.FilePolarity,Positive*%
%FSLAX46Y46*%
G04 Gerber Fmt 4.6, Leading zero omitted, Abs format (unit mm)*
G04 Created by KiCad (PCBNEW 7.0.6-1.fc38) date 2023-08-24 19:35:41*
%MOMM*%
%LPD*%
G01*
G04 APERTURE LIST*
%ADD10C,0.300000*%
%ADD11C,0.150000*%
%ADD12C,0.080000*%
%ADD13C,0.120000*%
%ADD14C,0.010000*%
%ADD15C,0.152400*%
G04 APERTURE END LIST*
D10*
X137946917Y-81765400D02*
X137732632Y-81836828D01*
X137732632Y-81836828D02*
X137375489Y-81836828D01*
X137375489Y-81836828D02*
X137232632Y-81765400D01*
X137232632Y-81765400D02*
X137161203Y-81693971D01*
X137161203Y-81693971D02*
X137089774Y-81551114D01*
X137089774Y-81551114D02*
X137089774Y-81408257D01*
X137089774Y-81408257D02*
X137161203Y-81265400D01*
X137161203Y-81265400D02*
X137232632Y-81193971D01*
X137232632Y-81193971D02*
X137375489Y-81122542D01*
X137375489Y-81122542D02*
X137661203Y-81051114D01*
X137661203Y-81051114D02*
X137804060Y-80979685D01*
X137804060Y-80979685D02*
X137875489Y-80908257D01*
X137875489Y-80908257D02*
X137946917Y-80765400D01*
X137946917Y-80765400D02*
X137946917Y-80622542D01*
X137946917Y-80622542D02*
X137875489Y-80479685D01*
X137875489Y-80479685D02*
X137804060Y-80408257D01*
X137804060Y-80408257D02*
X137661203Y-80336828D01*
X137661203Y-80336828D02*
X137304060Y-80336828D01*
X137304060Y-80336828D02*
X137089774Y-80408257D01*
X136589775Y-80336828D02*
X135661203Y-80336828D01*
X135661203Y-80336828D02*
X136161203Y-80908257D01*
X136161203Y-80908257D02*
X135946918Y-80908257D01*
X135946918Y-80908257D02*
X135804061Y-80979685D01*
X135804061Y-80979685D02*
X135732632Y-81051114D01*
X135732632Y-81051114D02*
X135661203Y-81193971D01*
X135661203Y-81193971D02*
X135661203Y-81551114D01*
X135661203Y-81551114D02*
X135732632Y-81693971D01*
X135732632Y-81693971D02*
X135804061Y-81765400D01*
X135804061Y-81765400D02*
X135946918Y-81836828D01*
X135946918Y-81836828D02*
X136375489Y-81836828D01*
X136375489Y-81836828D02*
X136518346Y-81765400D01*
X136518346Y-81765400D02*
X136589775Y-81693971D01*
X134232632Y-80408257D02*
X134375490Y-80336828D01*
X134375490Y-80336828D02*
X134589775Y-80336828D01*
X134589775Y-80336828D02*
X134804061Y-80408257D01*
X134804061Y-80408257D02*
X134946918Y-80551114D01*
X134946918Y-80551114D02*
X135018347Y-80693971D01*
X135018347Y-80693971D02*
X135089775Y-80979685D01*
X135089775Y-80979685D02*
X135089775Y-81193971D01*
X135089775Y-81193971D02*
X135018347Y-81479685D01*
X135018347Y-81479685D02*
X134946918Y-81622542D01*
X134946918Y-81622542D02*
X134804061Y-81765400D01*
X134804061Y-81765400D02*
X134589775Y-81836828D01*
X134589775Y-81836828D02*
X134446918Y-81836828D01*
X134446918Y-81836828D02*
X134232632Y-81765400D01*
X134232632Y-81765400D02*
X134161204Y-81693971D01*
X134161204Y-81693971D02*
X134161204Y-81193971D01*
X134161204Y-81193971D02*
X134446918Y-81193971D01*
X133732632Y-80336828D02*
X132875490Y-80336828D01*
X133304061Y-81836828D02*
X133304061Y-80336828D01*
X132446918Y-81408257D02*
X131732633Y-81408257D01*
X132589775Y-81836828D02*
X132089775Y-80336828D01*
X132089775Y-80336828D02*
X131589775Y-81836828D01*
X129446919Y-81051114D02*
X129232633Y-81122542D01*
X129232633Y-81122542D02*
X129161204Y-81193971D01*
X129161204Y-81193971D02*
X129089776Y-81336828D01*
X129089776Y-81336828D02*
X129089776Y-81551114D01*
X129089776Y-81551114D02*
X129161204Y-81693971D01*
X129161204Y-81693971D02*
X129232633Y-81765400D01*
X129232633Y-81765400D02*
X129375490Y-81836828D01*
X129375490Y-81836828D02*
X129946919Y-81836828D01*
X129946919Y-81836828D02*
X129946919Y-80336828D01*
X129946919Y-80336828D02*
X129446919Y-80336828D01*
X129446919Y-80336828D02*
X129304062Y-80408257D01*
X129304062Y-80408257D02*
X129232633Y-80479685D01*
X129232633Y-80479685D02*
X129161204Y-80622542D01*
X129161204Y-80622542D02*
X129161204Y-80765400D01*
X129161204Y-80765400D02*
X129232633Y-80908257D01*
X129232633Y-80908257D02*
X129304062Y-80979685D01*
X129304062Y-80979685D02*
X129446919Y-81051114D01*
X129446919Y-81051114D02*
X129946919Y-81051114D01*
X127804062Y-81836828D02*
X127804062Y-81051114D01*
X127804062Y-81051114D02*
X127875490Y-80908257D01*
X127875490Y-80908257D02*
X128018347Y-80836828D01*
X128018347Y-80836828D02*
X128304062Y-80836828D01*
X128304062Y-80836828D02*
X128446919Y-80908257D01*
X127804062Y-81765400D02*
X127946919Y-81836828D01*
X127946919Y-81836828D02*
X128304062Y-81836828D01*
X128304062Y-81836828D02*
X128446919Y-81765400D01*
X128446919Y-81765400D02*
X128518347Y-81622542D01*
X128518347Y-81622542D02*
X128518347Y-81479685D01*
X128518347Y-81479685D02*
X128446919Y-81336828D01*
X128446919Y-81336828D02*
X128304062Y-81265400D01*
X128304062Y-81265400D02*
X127946919Y-81265400D01*
X127946919Y-81265400D02*
X127804062Y-81193971D01*
X126446919Y-81765400D02*
X126589776Y-81836828D01*
X126589776Y-81836828D02*
X126875490Y-81836828D01*
X126875490Y-81836828D02*
X127018347Y-81765400D01*
X127018347Y-81765400D02*
X127089776Y-81693971D01*
X127089776Y-81693971D02*
X127161204Y-81551114D01*
X127161204Y-81551114D02*
X127161204Y-81122542D01*
X127161204Y-81122542D02*
X127089776Y-80979685D01*
X127089776Y-80979685D02*
X127018347Y-80908257D01*
X127018347Y-80908257D02*
X126875490Y-80836828D01*
X126875490Y-80836828D02*
X126589776Y-80836828D01*
X126589776Y-80836828D02*
X126446919Y-80908257D01*
X125804062Y-81836828D02*
X125804062Y-80336828D01*
X125661205Y-81265400D02*
X125232633Y-81836828D01*
X125232633Y-80836828D02*
X125804062Y-81408257D01*
X137446917Y-84823257D02*
X137518346Y-84751828D01*
X137518346Y-84751828D02*
X137661203Y-84537542D01*
X137661203Y-84537542D02*
X137732632Y-84394685D01*
X137732632Y-84394685D02*
X137804060Y-84180400D01*
X137804060Y-84180400D02*
X137875489Y-83823257D01*
X137875489Y-83823257D02*
X137875489Y-83537542D01*
X137875489Y-83537542D02*
X137804060Y-83180400D01*
X137804060Y-83180400D02*
X137732632Y-82966114D01*
X137732632Y-82966114D02*
X137661203Y-82823257D01*
X137661203Y-82823257D02*
X137518346Y-82608971D01*
X137518346Y-82608971D02*
X137446917Y-82537542D01*
X136232632Y-84180400D02*
X136375489Y-84251828D01*
X136375489Y-84251828D02*
X136661203Y-84251828D01*
X136661203Y-84251828D02*
X136804060Y-84180400D01*
X136804060Y-84180400D02*
X136875489Y-84108971D01*
X136875489Y-84108971D02*
X136946917Y-83966114D01*
X136946917Y-83966114D02*
X136946917Y-83537542D01*
X136946917Y-83537542D02*
X136875489Y-83394685D01*
X136875489Y-83394685D02*
X136804060Y-83323257D01*
X136804060Y-83323257D02*
X136661203Y-83251828D01*
X136661203Y-83251828D02*
X136375489Y-83251828D01*
X136375489Y-83251828D02*
X136232632Y-83323257D01*
X135732632Y-84823257D02*
X135661203Y-84751828D01*
X135661203Y-84751828D02*
X135518346Y-84537542D01*
X135518346Y-84537542D02*
X135446918Y-84394685D01*
X135446918Y-84394685D02*
X135375489Y-84180400D01*
X135375489Y-84180400D02*
X135304060Y-83823257D01*
X135304060Y-83823257D02*
X135304060Y-83537542D01*
X135304060Y-83537542D02*
X135375489Y-83180400D01*
X135375489Y-83180400D02*
X135446918Y-82966114D01*
X135446918Y-82966114D02*
X135518346Y-82823257D01*
X135518346Y-82823257D02*
X135661203Y-82608971D01*
X135661203Y-82608971D02*
X135732632Y-82537542D01*
X133518346Y-82894685D02*
X133446918Y-82823257D01*
X133446918Y-82823257D02*
X133304061Y-82751828D01*
X133304061Y-82751828D02*
X132946918Y-82751828D01*
X132946918Y-82751828D02*
X132804061Y-82823257D01*
X132804061Y-82823257D02*
X132732632Y-82894685D01*
X132732632Y-82894685D02*
X132661203Y-83037542D01*
X132661203Y-83037542D02*
X132661203Y-83180400D01*
X132661203Y-83180400D02*
X132732632Y-83394685D01*
X132732632Y-83394685D02*
X133589775Y-84251828D01*
X133589775Y-84251828D02*
X132661203Y-84251828D01*
X131732632Y-82751828D02*
X131589775Y-82751828D01*
X131589775Y-82751828D02*
X131446918Y-82823257D01*
X131446918Y-82823257D02*
X131375490Y-82894685D01*
X131375490Y-82894685D02*
X131304061Y-83037542D01*
X131304061Y-83037542D02*
X131232632Y-83323257D01*
X131232632Y-83323257D02*
X131232632Y-83680400D01*
X131232632Y-83680400D02*
X131304061Y-83966114D01*
X131304061Y-83966114D02*
X131375490Y-84108971D01*
X131375490Y-84108971D02*
X131446918Y-84180400D01*
X131446918Y-84180400D02*
X131589775Y-84251828D01*
X131589775Y-84251828D02*
X131732632Y-84251828D01*
X131732632Y-84251828D02*
X131875490Y-84180400D01*
X131875490Y-84180400D02*
X131946918Y-84108971D01*
X131946918Y-84108971D02*
X132018347Y-83966114D01*
X132018347Y-83966114D02*
X132089775Y-83680400D01*
X132089775Y-83680400D02*
X132089775Y-83323257D01*
X132089775Y-83323257D02*
X132018347Y-83037542D01*
X132018347Y-83037542D02*
X131946918Y-82894685D01*
X131946918Y-82894685D02*
X131875490Y-82823257D01*
X131875490Y-82823257D02*
X131732632Y-82751828D01*
X130661204Y-82894685D02*
X130589776Y-82823257D01*
X130589776Y-82823257D02*
X130446919Y-82751828D01*
X130446919Y-82751828D02*
X130089776Y-82751828D01*
X130089776Y-82751828D02*
X129946919Y-82823257D01*
X129946919Y-82823257D02*
X129875490Y-82894685D01*
X129875490Y-82894685D02*
X129804061Y-83037542D01*
X129804061Y-83037542D02*
X129804061Y-83180400D01*
X129804061Y-83180400D02*
X129875490Y-83394685D01*
X129875490Y-83394685D02*
X130732633Y-84251828D01*
X130732633Y-84251828D02*
X129804061Y-84251828D01*
X129304062Y-82751828D02*
X128375490Y-82751828D01*
X128375490Y-82751828D02*
X128875490Y-83323257D01*
X128875490Y-83323257D02*
X128661205Y-83323257D01*
X128661205Y-83323257D02*
X128518348Y-83394685D01*
X128518348Y-83394685D02*
X128446919Y-83466114D01*
X128446919Y-83466114D02*
X128375490Y-83608971D01*
X128375490Y-83608971D02*
X128375490Y-83966114D01*
X128375490Y-83966114D02*
X128446919Y-84108971D01*
X128446919Y-84108971D02*
X128518348Y-84180400D01*
X128518348Y-84180400D02*
X128661205Y-84251828D01*
X128661205Y-84251828D02*
X129089776Y-84251828D01*
X129089776Y-84251828D02*
X129232633Y-84180400D01*
X129232633Y-84180400D02*
X129304062Y-84108971D01*
X137875489Y-85881114D02*
X137375489Y-85881114D01*
X137161203Y-86666828D02*
X137875489Y-86666828D01*
X137875489Y-86666828D02*
X137875489Y-85166828D01*
X137875489Y-85166828D02*
X137161203Y-85166828D01*
X136518346Y-86523971D02*
X136446917Y-86595400D01*
X136446917Y-86595400D02*
X136518346Y-86666828D01*
X136518346Y-86666828D02*
X136589774Y-86595400D01*
X136589774Y-86595400D02*
X136518346Y-86523971D01*
X136518346Y-86523971D02*
X136518346Y-86666828D01*
X135304060Y-85881114D02*
X135089774Y-85952542D01*
X135089774Y-85952542D02*
X135018345Y-86023971D01*
X135018345Y-86023971D02*
X134946917Y-86166828D01*
X134946917Y-86166828D02*
X134946917Y-86381114D01*
X134946917Y-86381114D02*
X135018345Y-86523971D01*
X135018345Y-86523971D02*
X135089774Y-86595400D01*
X135089774Y-86595400D02*
X135232631Y-86666828D01*
X135232631Y-86666828D02*
X135804060Y-86666828D01*
X135804060Y-86666828D02*
X135804060Y-85166828D01*
X135804060Y-85166828D02*
X135304060Y-85166828D01*
X135304060Y-85166828D02*
X135161203Y-85238257D01*
X135161203Y-85238257D02*
X135089774Y-85309685D01*
X135089774Y-85309685D02*
X135018345Y-85452542D01*
X135018345Y-85452542D02*
X135018345Y-85595400D01*
X135018345Y-85595400D02*
X135089774Y-85738257D01*
X135089774Y-85738257D02*
X135161203Y-85809685D01*
X135161203Y-85809685D02*
X135304060Y-85881114D01*
X135304060Y-85881114D02*
X135804060Y-85881114D01*
X134304060Y-86666828D02*
X134304060Y-85666828D01*
X134304060Y-85952542D02*
X134232631Y-85809685D01*
X134232631Y-85809685D02*
X134161203Y-85738257D01*
X134161203Y-85738257D02*
X134018345Y-85666828D01*
X134018345Y-85666828D02*
X133875488Y-85666828D01*
X133161203Y-86666828D02*
X133304060Y-86595400D01*
X133304060Y-86595400D02*
X133375489Y-86523971D01*
X133375489Y-86523971D02*
X133446917Y-86381114D01*
X133446917Y-86381114D02*
X133446917Y-85952542D01*
X133446917Y-85952542D02*
X133375489Y-85809685D01*
X133375489Y-85809685D02*
X133304060Y-85738257D01*
X133304060Y-85738257D02*
X133161203Y-85666828D01*
X133161203Y-85666828D02*
X132946917Y-85666828D01*
X132946917Y-85666828D02*
X132804060Y-85738257D01*
X132804060Y-85738257D02*
X132732632Y-85809685D01*
X132732632Y-85809685D02*
X132661203Y-85952542D01*
X132661203Y-85952542D02*
X132661203Y-86381114D01*
X132661203Y-86381114D02*
X132732632Y-86523971D01*
X132732632Y-86523971D02*
X132804060Y-86595400D01*
X132804060Y-86595400D02*
X132946917Y-86666828D01*
X132946917Y-86666828D02*
X133161203Y-86666828D01*
X132018346Y-86666828D02*
X132018346Y-85666828D01*
X132018346Y-85809685D02*
X131946917Y-85738257D01*
X131946917Y-85738257D02*
X131804060Y-85666828D01*
X131804060Y-85666828D02*
X131589774Y-85666828D01*
X131589774Y-85666828D02*
X131446917Y-85738257D01*
X131446917Y-85738257D02*
X131375489Y-85881114D01*
X131375489Y-85881114D02*
X131375489Y-86666828D01*
X131375489Y-85881114D02*
X131304060Y-85738257D01*
X131304060Y-85738257D02*
X131161203Y-85666828D01*
X131161203Y-85666828D02*
X130946917Y-85666828D01*
X130946917Y-85666828D02*
X130804060Y-85738257D01*
X130804060Y-85738257D02*
X130732631Y-85881114D01*
X130732631Y-85881114D02*
X130732631Y-86666828D01*
X130018346Y-86666828D02*
X130018346Y-85166828D01*
X130018346Y-85738257D02*
X129875489Y-85666828D01*
X129875489Y-85666828D02*
X129589774Y-85666828D01*
X129589774Y-85666828D02*
X129446917Y-85738257D01*
X129446917Y-85738257D02*
X129375489Y-85809685D01*
X129375489Y-85809685D02*
X129304060Y-85952542D01*
X129304060Y-85952542D02*
X129304060Y-86381114D01*
X129304060Y-86381114D02*
X129375489Y-86523971D01*
X129375489Y-86523971D02*
X129446917Y-86595400D01*
X129446917Y-86595400D02*
X129589774Y-86666828D01*
X129589774Y-86666828D02*
X129875489Y-86666828D01*
X129875489Y-86666828D02*
X130018346Y-86595400D01*
X128018346Y-86666828D02*
X128018346Y-85881114D01*
X128018346Y-85881114D02*
X128089774Y-85738257D01*
X128089774Y-85738257D02*
X128232631Y-85666828D01*
X128232631Y-85666828D02*
X128518346Y-85666828D01*
X128518346Y-85666828D02*
X128661203Y-85738257D01*
X128018346Y-86595400D02*
X128161203Y-86666828D01*
X128161203Y-86666828D02*
X128518346Y-86666828D01*
X128518346Y-86666828D02*
X128661203Y-86595400D01*
X128661203Y-86595400D02*
X128732631Y-86452542D01*
X128732631Y-86452542D02*
X128732631Y-86309685D01*
X128732631Y-86309685D02*
X128661203Y-86166828D01*
X128661203Y-86166828D02*
X128518346Y-86095400D01*
X128518346Y-86095400D02*
X128161203Y-86095400D01*
X128161203Y-86095400D02*
X128018346Y-86023971D01*
X126661203Y-85666828D02*
X126661203Y-86666828D01*
X127304060Y-85666828D02*
X127304060Y-86452542D01*
X127304060Y-86452542D02*
X127232631Y-86595400D01*
X127232631Y-86595400D02*
X127089774Y-86666828D01*
X127089774Y-86666828D02*
X126875488Y-86666828D01*
X126875488Y-86666828D02*
X126732631Y-86595400D01*
X126732631Y-86595400D02*
X126661203Y-86523971D01*
X125304060Y-85666828D02*
X125304060Y-86881114D01*
X125304060Y-86881114D02*
X125375488Y-87023971D01*
X125375488Y-87023971D02*
X125446917Y-87095400D01*
X125446917Y-87095400D02*
X125589774Y-87166828D01*
X125589774Y-87166828D02*
X125804060Y-87166828D01*
X125804060Y-87166828D02*
X125946917Y-87095400D01*
X125304060Y-86595400D02*
X125446917Y-86666828D01*
X125446917Y-86666828D02*
X125732631Y-86666828D01*
X125732631Y-86666828D02*
X125875488Y-86595400D01*
X125875488Y-86595400D02*
X125946917Y-86523971D01*
X125946917Y-86523971D02*
X126018345Y-86381114D01*
X126018345Y-86381114D02*
X126018345Y-85952542D01*
X126018345Y-85952542D02*
X125946917Y-85809685D01*
X125946917Y-85809685D02*
X125875488Y-85738257D01*
X125875488Y-85738257D02*
X125732631Y-85666828D01*
X125732631Y-85666828D02*
X125446917Y-85666828D01*
X125446917Y-85666828D02*
X125304060Y-85738257D01*
X124589774Y-86666828D02*
X124589774Y-85166828D01*
X123946917Y-86666828D02*
X123946917Y-85881114D01*
X123946917Y-85881114D02*
X124018345Y-85738257D01*
X124018345Y-85738257D02*
X124161202Y-85666828D01*
X124161202Y-85666828D02*
X124375488Y-85666828D01*
X124375488Y-85666828D02*
X124518345Y-85738257D01*
X124518345Y-85738257D02*
X124589774Y-85809685D01*
X138089774Y-87581828D02*
X137589774Y-89081828D01*
X137589774Y-89081828D02*
X137089774Y-87581828D01*
X136304060Y-87581828D02*
X136161203Y-87581828D01*
X136161203Y-87581828D02*
X136018346Y-87653257D01*
X136018346Y-87653257D02*
X135946918Y-87724685D01*
X135946918Y-87724685D02*
X135875489Y-87867542D01*
X135875489Y-87867542D02*
X135804060Y-88153257D01*
X135804060Y-88153257D02*
X135804060Y-88510400D01*
X135804060Y-88510400D02*
X135875489Y-88796114D01*
X135875489Y-88796114D02*
X135946918Y-88938971D01*
X135946918Y-88938971D02*
X136018346Y-89010400D01*
X136018346Y-89010400D02*
X136161203Y-89081828D01*
X136161203Y-89081828D02*
X136304060Y-89081828D01*
X136304060Y-89081828D02*
X136446918Y-89010400D01*
X136446918Y-89010400D02*
X136518346Y-88938971D01*
X136518346Y-88938971D02*
X136589775Y-88796114D01*
X136589775Y-88796114D02*
X136661203Y-88510400D01*
X136661203Y-88510400D02*
X136661203Y-88153257D01*
X136661203Y-88153257D02*
X136589775Y-87867542D01*
X136589775Y-87867542D02*
X136518346Y-87724685D01*
X136518346Y-87724685D02*
X136446918Y-87653257D01*
X136446918Y-87653257D02*
X136304060Y-87581828D01*
X135161204Y-88938971D02*
X135089775Y-89010400D01*
X135089775Y-89010400D02*
X135161204Y-89081828D01*
X135161204Y-89081828D02*
X135232632Y-89010400D01*
X135232632Y-89010400D02*
X135161204Y-88938971D01*
X135161204Y-88938971D02*
X135161204Y-89081828D01*
X133661203Y-89081828D02*
X134518346Y-89081828D01*
X134089775Y-89081828D02*
X134089775Y-87581828D01*
X134089775Y-87581828D02*
X134232632Y-87796114D01*
X134232632Y-87796114D02*
X134375489Y-87938971D01*
X134375489Y-87938971D02*
X134518346Y-88010400D01*
D11*
X109946839Y-98247200D02*
X109803982Y-98294819D01*
X109803982Y-98294819D02*
X109565887Y-98294819D01*
X109565887Y-98294819D02*
X109470649Y-98247200D01*
X109470649Y-98247200D02*
X109423030Y-98199580D01*
X109423030Y-98199580D02*
X109375411Y-98104342D01*
X109375411Y-98104342D02*
X109375411Y-98009104D01*
X109375411Y-98009104D02*
X109423030Y-97913866D01*
X109423030Y-97913866D02*
X109470649Y-97866247D01*
X109470649Y-97866247D02*
X109565887Y-97818628D01*
X109565887Y-97818628D02*
X109756363Y-97771009D01*
X109756363Y-97771009D02*
X109851601Y-97723390D01*
X109851601Y-97723390D02*
X109899220Y-97675771D01*
X109899220Y-97675771D02*
X109946839Y-97580533D01*
X109946839Y-97580533D02*
X109946839Y-97485295D01*
X109946839Y-97485295D02*
X109899220Y-97390057D01*
X109899220Y-97390057D02*
X109851601Y-97342438D01*
X109851601Y-97342438D02*
X109756363Y-97294819D01*
X109756363Y-97294819D02*
X109518268Y-97294819D01*
X109518268Y-97294819D02*
X109375411Y-97342438D01*
X109089696Y-97294819D02*
X108518268Y-97294819D01*
X108803982Y-98294819D02*
X108803982Y-97294819D01*
X107613506Y-98294819D02*
X107946839Y-97818628D01*
X108184934Y-98294819D02*
X108184934Y-97294819D01*
X108184934Y-97294819D02*
X107803982Y-97294819D01*
X107803982Y-97294819D02*
X107708744Y-97342438D01*
X107708744Y-97342438D02*
X107661125Y-97390057D01*
X107661125Y-97390057D02*
X107613506Y-97485295D01*
X107613506Y-97485295D02*
X107613506Y-97628152D01*
X107613506Y-97628152D02*
X107661125Y-97723390D01*
X107661125Y-97723390D02*
X107708744Y-97771009D01*
X107708744Y-97771009D02*
X107803982Y-97818628D01*
X107803982Y-97818628D02*
X108184934Y-97818628D01*
X107184934Y-98294819D02*
X107184934Y-97294819D01*
X106708744Y-98294819D02*
X106708744Y-97294819D01*
X106708744Y-97294819D02*
X106327792Y-97294819D01*
X106327792Y-97294819D02*
X106232554Y-97342438D01*
X106232554Y-97342438D02*
X106184935Y-97390057D01*
X106184935Y-97390057D02*
X106137316Y-97485295D01*
X106137316Y-97485295D02*
X106137316Y-97628152D01*
X106137316Y-97628152D02*
X106184935Y-97723390D01*
X106184935Y-97723390D02*
X106232554Y-97771009D01*
X106232554Y-97771009D02*
X106327792Y-97818628D01*
X106327792Y-97818628D02*
X106708744Y-97818628D01*
X105708744Y-97771009D02*
X105375411Y-97771009D01*
X105232554Y-98294819D02*
X105708744Y-98294819D01*
X105708744Y-98294819D02*
X105708744Y-97294819D01*
X105708744Y-97294819D02*
X105232554Y-97294819D01*
D12*
X116828047Y-79221149D02*
X116828047Y-78721149D01*
X116828047Y-78721149D02*
X116708999Y-78721149D01*
X116708999Y-78721149D02*
X116637571Y-78744959D01*
X116637571Y-78744959D02*
X116589952Y-78792578D01*
X116589952Y-78792578D02*
X116566142Y-78840197D01*
X116566142Y-78840197D02*
X116542333Y-78935435D01*
X116542333Y-78935435D02*
X116542333Y-79006863D01*
X116542333Y-79006863D02*
X116566142Y-79102101D01*
X116566142Y-79102101D02*
X116589952Y-79149720D01*
X116589952Y-79149720D02*
X116637571Y-79197340D01*
X116637571Y-79197340D02*
X116708999Y-79221149D01*
X116708999Y-79221149D02*
X116828047Y-79221149D01*
X116351856Y-78768768D02*
X116328047Y-78744959D01*
X116328047Y-78744959D02*
X116280428Y-78721149D01*
X116280428Y-78721149D02*
X116161380Y-78721149D01*
X116161380Y-78721149D02*
X116113761Y-78744959D01*
X116113761Y-78744959D02*
X116089952Y-78768768D01*
X116089952Y-78768768D02*
X116066142Y-78816387D01*
X116066142Y-78816387D02*
X116066142Y-78864006D01*
X116066142Y-78864006D02*
X116089952Y-78935435D01*
X116089952Y-78935435D02*
X116375666Y-79221149D01*
X116375666Y-79221149D02*
X116066142Y-79221149D01*
X131672149Y-127428371D02*
X131434054Y-127261705D01*
X131672149Y-127142657D02*
X131172149Y-127142657D01*
X131172149Y-127142657D02*
X131172149Y-127333133D01*
X131172149Y-127333133D02*
X131195959Y-127380752D01*
X131195959Y-127380752D02*
X131219768Y-127404562D01*
X131219768Y-127404562D02*
X131267387Y-127428371D01*
X131267387Y-127428371D02*
X131338816Y-127428371D01*
X131338816Y-127428371D02*
X131386435Y-127404562D01*
X131386435Y-127404562D02*
X131410244Y-127380752D01*
X131410244Y-127380752D02*
X131434054Y-127333133D01*
X131434054Y-127333133D02*
X131434054Y-127142657D01*
X131219768Y-127618848D02*
X131195959Y-127642657D01*
X131195959Y-127642657D02*
X131172149Y-127690276D01*
X131172149Y-127690276D02*
X131172149Y-127809324D01*
X131172149Y-127809324D02*
X131195959Y-127856943D01*
X131195959Y-127856943D02*
X131219768Y-127880752D01*
X131219768Y-127880752D02*
X131267387Y-127904562D01*
X131267387Y-127904562D02*
X131315006Y-127904562D01*
X131315006Y-127904562D02*
X131386435Y-127880752D01*
X131386435Y-127880752D02*
X131672149Y-127595038D01*
X131672149Y-127595038D02*
X131672149Y-127904562D01*
X131172149Y-128071228D02*
X131172149Y-128380752D01*
X131172149Y-128380752D02*
X131362625Y-128214085D01*
X131362625Y-128214085D02*
X131362625Y-128285514D01*
X131362625Y-128285514D02*
X131386435Y-128333133D01*
X131386435Y-128333133D02*
X131410244Y-128356942D01*
X131410244Y-128356942D02*
X131457863Y-128380752D01*
X131457863Y-128380752D02*
X131576911Y-128380752D01*
X131576911Y-128380752D02*
X131624530Y-128356942D01*
X131624530Y-128356942D02*
X131648340Y-128333133D01*
X131648340Y-128333133D02*
X131672149Y-128285514D01*
X131672149Y-128285514D02*
X131672149Y-128142657D01*
X131672149Y-128142657D02*
X131648340Y-128095038D01*
X131648340Y-128095038D02*
X131624530Y-128071228D01*
X128718428Y-123975949D02*
X128885094Y-123737854D01*
X129004142Y-123975949D02*
X129004142Y-123475949D01*
X129004142Y-123475949D02*
X128813666Y-123475949D01*
X128813666Y-123475949D02*
X128766047Y-123499759D01*
X128766047Y-123499759D02*
X128742237Y-123523568D01*
X128742237Y-123523568D02*
X128718428Y-123571187D01*
X128718428Y-123571187D02*
X128718428Y-123642616D01*
X128718428Y-123642616D02*
X128742237Y-123690235D01*
X128742237Y-123690235D02*
X128766047Y-123714044D01*
X128766047Y-123714044D02*
X128813666Y-123737854D01*
X128813666Y-123737854D02*
X129004142Y-123737854D01*
X128242237Y-123975949D02*
X128527951Y-123975949D01*
X128385094Y-123975949D02*
X128385094Y-123475949D01*
X128385094Y-123475949D02*
X128432713Y-123547378D01*
X128432713Y-123547378D02*
X128480332Y-123594997D01*
X128480332Y-123594997D02*
X128527951Y-123618806D01*
X128004142Y-123975949D02*
X127908904Y-123975949D01*
X127908904Y-123975949D02*
X127861285Y-123952140D01*
X127861285Y-123952140D02*
X127837476Y-123928330D01*
X127837476Y-123928330D02*
X127789857Y-123856901D01*
X127789857Y-123856901D02*
X127766047Y-123761663D01*
X127766047Y-123761663D02*
X127766047Y-123571187D01*
X127766047Y-123571187D02*
X127789857Y-123523568D01*
X127789857Y-123523568D02*
X127813666Y-123499759D01*
X127813666Y-123499759D02*
X127861285Y-123475949D01*
X127861285Y-123475949D02*
X127956523Y-123475949D01*
X127956523Y-123475949D02*
X128004142Y-123499759D01*
X128004142Y-123499759D02*
X128027952Y-123523568D01*
X128027952Y-123523568D02*
X128051761Y-123571187D01*
X128051761Y-123571187D02*
X128051761Y-123690235D01*
X128051761Y-123690235D02*
X128027952Y-123737854D01*
X128027952Y-123737854D02*
X128004142Y-123761663D01*
X128004142Y-123761663D02*
X127956523Y-123785473D01*
X127956523Y-123785473D02*
X127861285Y-123785473D01*
X127861285Y-123785473D02*
X127813666Y-123761663D01*
X127813666Y-123761663D02*
X127789857Y-123737854D01*
X127789857Y-123737854D02*
X127766047Y-123690235D01*
X145930133Y-101649349D02*
X146096799Y-101411254D01*
X146215847Y-101649349D02*
X146215847Y-101149349D01*
X146215847Y-101149349D02*
X146025371Y-101149349D01*
X146025371Y-101149349D02*
X145977752Y-101173159D01*
X145977752Y-101173159D02*
X145953942Y-101196968D01*
X145953942Y-101196968D02*
X145930133Y-101244587D01*
X145930133Y-101244587D02*
X145930133Y-101316016D01*
X145930133Y-101316016D02*
X145953942Y-101363635D01*
X145953942Y-101363635D02*
X145977752Y-101387444D01*
X145977752Y-101387444D02*
X146025371Y-101411254D01*
X146025371Y-101411254D02*
X146215847Y-101411254D01*
X145763466Y-101149349D02*
X145430133Y-101149349D01*
X145430133Y-101149349D02*
X145644418Y-101649349D01*
X147895428Y-96572530D02*
X147919237Y-96596340D01*
X147919237Y-96596340D02*
X147990666Y-96620149D01*
X147990666Y-96620149D02*
X148038285Y-96620149D01*
X148038285Y-96620149D02*
X148109713Y-96596340D01*
X148109713Y-96596340D02*
X148157332Y-96548720D01*
X148157332Y-96548720D02*
X148181142Y-96501101D01*
X148181142Y-96501101D02*
X148204951Y-96405863D01*
X148204951Y-96405863D02*
X148204951Y-96334435D01*
X148204951Y-96334435D02*
X148181142Y-96239197D01*
X148181142Y-96239197D02*
X148157332Y-96191578D01*
X148157332Y-96191578D02*
X148109713Y-96143959D01*
X148109713Y-96143959D02*
X148038285Y-96120149D01*
X148038285Y-96120149D02*
X147990666Y-96120149D01*
X147990666Y-96120149D02*
X147919237Y-96143959D01*
X147919237Y-96143959D02*
X147895428Y-96167768D01*
X147419237Y-96620149D02*
X147704951Y-96620149D01*
X147562094Y-96620149D02*
X147562094Y-96120149D01*
X147562094Y-96120149D02*
X147609713Y-96191578D01*
X147609713Y-96191578D02*
X147657332Y-96239197D01*
X147657332Y-96239197D02*
X147704951Y-96263006D01*
X146966857Y-96120149D02*
X147204952Y-96120149D01*
X147204952Y-96120149D02*
X147228761Y-96358244D01*
X147228761Y-96358244D02*
X147204952Y-96334435D01*
X147204952Y-96334435D02*
X147157333Y-96310625D01*
X147157333Y-96310625D02*
X147038285Y-96310625D01*
X147038285Y-96310625D02*
X146990666Y-96334435D01*
X146990666Y-96334435D02*
X146966857Y-96358244D01*
X146966857Y-96358244D02*
X146943047Y-96405863D01*
X146943047Y-96405863D02*
X146943047Y-96524911D01*
X146943047Y-96524911D02*
X146966857Y-96572530D01*
X146966857Y-96572530D02*
X146990666Y-96596340D01*
X146990666Y-96596340D02*
X147038285Y-96620149D01*
X147038285Y-96620149D02*
X147157333Y-96620149D01*
X147157333Y-96620149D02*
X147204952Y-96596340D01*
X147204952Y-96596340D02*
X147228761Y-96572530D01*
X131773749Y-116696371D02*
X131535654Y-116529705D01*
X131773749Y-116410657D02*
X131273749Y-116410657D01*
X131273749Y-116410657D02*
X131273749Y-116601133D01*
X131273749Y-116601133D02*
X131297559Y-116648752D01*
X131297559Y-116648752D02*
X131321368Y-116672562D01*
X131321368Y-116672562D02*
X131368987Y-116696371D01*
X131368987Y-116696371D02*
X131440416Y-116696371D01*
X131440416Y-116696371D02*
X131488035Y-116672562D01*
X131488035Y-116672562D02*
X131511844Y-116648752D01*
X131511844Y-116648752D02*
X131535654Y-116601133D01*
X131535654Y-116601133D02*
X131535654Y-116410657D01*
X131321368Y-116886848D02*
X131297559Y-116910657D01*
X131297559Y-116910657D02*
X131273749Y-116958276D01*
X131273749Y-116958276D02*
X131273749Y-117077324D01*
X131273749Y-117077324D02*
X131297559Y-117124943D01*
X131297559Y-117124943D02*
X131321368Y-117148752D01*
X131321368Y-117148752D02*
X131368987Y-117172562D01*
X131368987Y-117172562D02*
X131416606Y-117172562D01*
X131416606Y-117172562D02*
X131488035Y-117148752D01*
X131488035Y-117148752D02*
X131773749Y-116863038D01*
X131773749Y-116863038D02*
X131773749Y-117172562D01*
X131321368Y-117363038D02*
X131297559Y-117386847D01*
X131297559Y-117386847D02*
X131273749Y-117434466D01*
X131273749Y-117434466D02*
X131273749Y-117553514D01*
X131273749Y-117553514D02*
X131297559Y-117601133D01*
X131297559Y-117601133D02*
X131321368Y-117624942D01*
X131321368Y-117624942D02*
X131368987Y-117648752D01*
X131368987Y-117648752D02*
X131416606Y-117648752D01*
X131416606Y-117648752D02*
X131488035Y-117624942D01*
X131488035Y-117624942D02*
X131773749Y-117339228D01*
X131773749Y-117339228D02*
X131773749Y-117648752D01*
X122114428Y-127100149D02*
X122281094Y-126862054D01*
X122400142Y-127100149D02*
X122400142Y-126600149D01*
X122400142Y-126600149D02*
X122209666Y-126600149D01*
X122209666Y-126600149D02*
X122162047Y-126623959D01*
X122162047Y-126623959D02*
X122138237Y-126647768D01*
X122138237Y-126647768D02*
X122114428Y-126695387D01*
X122114428Y-126695387D02*
X122114428Y-126766816D01*
X122114428Y-126766816D02*
X122138237Y-126814435D01*
X122138237Y-126814435D02*
X122162047Y-126838244D01*
X122162047Y-126838244D02*
X122209666Y-126862054D01*
X122209666Y-126862054D02*
X122400142Y-126862054D01*
X121947761Y-126600149D02*
X121638237Y-126600149D01*
X121638237Y-126600149D02*
X121804904Y-126790625D01*
X121804904Y-126790625D02*
X121733475Y-126790625D01*
X121733475Y-126790625D02*
X121685856Y-126814435D01*
X121685856Y-126814435D02*
X121662047Y-126838244D01*
X121662047Y-126838244D02*
X121638237Y-126885863D01*
X121638237Y-126885863D02*
X121638237Y-127004911D01*
X121638237Y-127004911D02*
X121662047Y-127052530D01*
X121662047Y-127052530D02*
X121685856Y-127076340D01*
X121685856Y-127076340D02*
X121733475Y-127100149D01*
X121733475Y-127100149D02*
X121876332Y-127100149D01*
X121876332Y-127100149D02*
X121923951Y-127076340D01*
X121923951Y-127076340D02*
X121947761Y-127052530D01*
X121447761Y-126647768D02*
X121423952Y-126623959D01*
X121423952Y-126623959D02*
X121376333Y-126600149D01*
X121376333Y-126600149D02*
X121257285Y-126600149D01*
X121257285Y-126600149D02*
X121209666Y-126623959D01*
X121209666Y-126623959D02*
X121185857Y-126647768D01*
X121185857Y-126647768D02*
X121162047Y-126695387D01*
X121162047Y-126695387D02*
X121162047Y-126743006D01*
X121162047Y-126743006D02*
X121185857Y-126814435D01*
X121185857Y-126814435D02*
X121471571Y-127100149D01*
X121471571Y-127100149D02*
X121162047Y-127100149D01*
X145930133Y-111606149D02*
X146096799Y-111368054D01*
X146215847Y-111606149D02*
X146215847Y-111106149D01*
X146215847Y-111106149D02*
X146025371Y-111106149D01*
X146025371Y-111106149D02*
X145977752Y-111129959D01*
X145977752Y-111129959D02*
X145953942Y-111153768D01*
X145953942Y-111153768D02*
X145930133Y-111201387D01*
X145930133Y-111201387D02*
X145930133Y-111272816D01*
X145930133Y-111272816D02*
X145953942Y-111320435D01*
X145953942Y-111320435D02*
X145977752Y-111344244D01*
X145977752Y-111344244D02*
X146025371Y-111368054D01*
X146025371Y-111368054D02*
X146215847Y-111368054D01*
X145692037Y-111606149D02*
X145596799Y-111606149D01*
X145596799Y-111606149D02*
X145549180Y-111582340D01*
X145549180Y-111582340D02*
X145525371Y-111558530D01*
X145525371Y-111558530D02*
X145477752Y-111487101D01*
X145477752Y-111487101D02*
X145453942Y-111391863D01*
X145453942Y-111391863D02*
X145453942Y-111201387D01*
X145453942Y-111201387D02*
X145477752Y-111153768D01*
X145477752Y-111153768D02*
X145501561Y-111129959D01*
X145501561Y-111129959D02*
X145549180Y-111106149D01*
X145549180Y-111106149D02*
X145644418Y-111106149D01*
X145644418Y-111106149D02*
X145692037Y-111129959D01*
X145692037Y-111129959D02*
X145715847Y-111153768D01*
X145715847Y-111153768D02*
X145739656Y-111201387D01*
X145739656Y-111201387D02*
X145739656Y-111320435D01*
X145739656Y-111320435D02*
X145715847Y-111368054D01*
X145715847Y-111368054D02*
X145692037Y-111391863D01*
X145692037Y-111391863D02*
X145644418Y-111415673D01*
X145644418Y-111415673D02*
X145549180Y-111415673D01*
X145549180Y-111415673D02*
X145501561Y-111391863D01*
X145501561Y-111391863D02*
X145477752Y-111368054D01*
X145477752Y-111368054D02*
X145453942Y-111320435D01*
X147387428Y-121461349D02*
X147554094Y-121223254D01*
X147673142Y-121461349D02*
X147673142Y-120961349D01*
X147673142Y-120961349D02*
X147482666Y-120961349D01*
X147482666Y-120961349D02*
X147435047Y-120985159D01*
X147435047Y-120985159D02*
X147411237Y-121008968D01*
X147411237Y-121008968D02*
X147387428Y-121056587D01*
X147387428Y-121056587D02*
X147387428Y-121128016D01*
X147387428Y-121128016D02*
X147411237Y-121175635D01*
X147411237Y-121175635D02*
X147435047Y-121199444D01*
X147435047Y-121199444D02*
X147482666Y-121223254D01*
X147482666Y-121223254D02*
X147673142Y-121223254D01*
X147196951Y-121008968D02*
X147173142Y-120985159D01*
X147173142Y-120985159D02*
X147125523Y-120961349D01*
X147125523Y-120961349D02*
X147006475Y-120961349D01*
X147006475Y-120961349D02*
X146958856Y-120985159D01*
X146958856Y-120985159D02*
X146935047Y-121008968D01*
X146935047Y-121008968D02*
X146911237Y-121056587D01*
X146911237Y-121056587D02*
X146911237Y-121104206D01*
X146911237Y-121104206D02*
X146935047Y-121175635D01*
X146935047Y-121175635D02*
X147220761Y-121461349D01*
X147220761Y-121461349D02*
X146911237Y-121461349D01*
X146482666Y-120961349D02*
X146577904Y-120961349D01*
X146577904Y-120961349D02*
X146625523Y-120985159D01*
X146625523Y-120985159D02*
X146649333Y-121008968D01*
X146649333Y-121008968D02*
X146696952Y-121080397D01*
X146696952Y-121080397D02*
X146720761Y-121175635D01*
X146720761Y-121175635D02*
X146720761Y-121366111D01*
X146720761Y-121366111D02*
X146696952Y-121413730D01*
X146696952Y-121413730D02*
X146673142Y-121437540D01*
X146673142Y-121437540D02*
X146625523Y-121461349D01*
X146625523Y-121461349D02*
X146530285Y-121461349D01*
X146530285Y-121461349D02*
X146482666Y-121437540D01*
X146482666Y-121437540D02*
X146458857Y-121413730D01*
X146458857Y-121413730D02*
X146435047Y-121366111D01*
X146435047Y-121366111D02*
X146435047Y-121247063D01*
X146435047Y-121247063D02*
X146458857Y-121199444D01*
X146458857Y-121199444D02*
X146482666Y-121175635D01*
X146482666Y-121175635D02*
X146530285Y-121151825D01*
X146530285Y-121151825D02*
X146625523Y-121151825D01*
X146625523Y-121151825D02*
X146673142Y-121175635D01*
X146673142Y-121175635D02*
X146696952Y-121199444D01*
X146696952Y-121199444D02*
X146720761Y-121247063D01*
X142317930Y-116670971D02*
X142341740Y-116647162D01*
X142341740Y-116647162D02*
X142365549Y-116575733D01*
X142365549Y-116575733D02*
X142365549Y-116528114D01*
X142365549Y-116528114D02*
X142341740Y-116456686D01*
X142341740Y-116456686D02*
X142294120Y-116409067D01*
X142294120Y-116409067D02*
X142246501Y-116385257D01*
X142246501Y-116385257D02*
X142151263Y-116361448D01*
X142151263Y-116361448D02*
X142079835Y-116361448D01*
X142079835Y-116361448D02*
X141984597Y-116385257D01*
X141984597Y-116385257D02*
X141936978Y-116409067D01*
X141936978Y-116409067D02*
X141889359Y-116456686D01*
X141889359Y-116456686D02*
X141865549Y-116528114D01*
X141865549Y-116528114D02*
X141865549Y-116575733D01*
X141865549Y-116575733D02*
X141889359Y-116647162D01*
X141889359Y-116647162D02*
X141913168Y-116670971D01*
X141913168Y-116861448D02*
X141889359Y-116885257D01*
X141889359Y-116885257D02*
X141865549Y-116932876D01*
X141865549Y-116932876D02*
X141865549Y-117051924D01*
X141865549Y-117051924D02*
X141889359Y-117099543D01*
X141889359Y-117099543D02*
X141913168Y-117123352D01*
X141913168Y-117123352D02*
X141960787Y-117147162D01*
X141960787Y-117147162D02*
X142008406Y-117147162D01*
X142008406Y-117147162D02*
X142079835Y-117123352D01*
X142079835Y-117123352D02*
X142365549Y-116837638D01*
X142365549Y-116837638D02*
X142365549Y-117147162D01*
X141865549Y-117313828D02*
X141865549Y-117623352D01*
X141865549Y-117623352D02*
X142056025Y-117456685D01*
X142056025Y-117456685D02*
X142056025Y-117528114D01*
X142056025Y-117528114D02*
X142079835Y-117575733D01*
X142079835Y-117575733D02*
X142103644Y-117599542D01*
X142103644Y-117599542D02*
X142151263Y-117623352D01*
X142151263Y-117623352D02*
X142270311Y-117623352D01*
X142270311Y-117623352D02*
X142317930Y-117599542D01*
X142317930Y-117599542D02*
X142341740Y-117575733D01*
X142341740Y-117575733D02*
X142365549Y-117528114D01*
X142365549Y-117528114D02*
X142365549Y-117385257D01*
X142365549Y-117385257D02*
X142341740Y-117337638D01*
X142341740Y-117337638D02*
X142317930Y-117313828D01*
X141911530Y-94928571D02*
X141935340Y-94904762D01*
X141935340Y-94904762D02*
X141959149Y-94833333D01*
X141959149Y-94833333D02*
X141959149Y-94785714D01*
X141959149Y-94785714D02*
X141935340Y-94714286D01*
X141935340Y-94714286D02*
X141887720Y-94666667D01*
X141887720Y-94666667D02*
X141840101Y-94642857D01*
X141840101Y-94642857D02*
X141744863Y-94619048D01*
X141744863Y-94619048D02*
X141673435Y-94619048D01*
X141673435Y-94619048D02*
X141578197Y-94642857D01*
X141578197Y-94642857D02*
X141530578Y-94666667D01*
X141530578Y-94666667D02*
X141482959Y-94714286D01*
X141482959Y-94714286D02*
X141459149Y-94785714D01*
X141459149Y-94785714D02*
X141459149Y-94833333D01*
X141459149Y-94833333D02*
X141482959Y-94904762D01*
X141482959Y-94904762D02*
X141506768Y-94928571D01*
X141959149Y-95404762D02*
X141959149Y-95119048D01*
X141959149Y-95261905D02*
X141459149Y-95261905D01*
X141459149Y-95261905D02*
X141530578Y-95214286D01*
X141530578Y-95214286D02*
X141578197Y-95166667D01*
X141578197Y-95166667D02*
X141602006Y-95119048D01*
X141459149Y-95571428D02*
X141459149Y-95880952D01*
X141459149Y-95880952D02*
X141649625Y-95714285D01*
X141649625Y-95714285D02*
X141649625Y-95785714D01*
X141649625Y-95785714D02*
X141673435Y-95833333D01*
X141673435Y-95833333D02*
X141697244Y-95857142D01*
X141697244Y-95857142D02*
X141744863Y-95880952D01*
X141744863Y-95880952D02*
X141863911Y-95880952D01*
X141863911Y-95880952D02*
X141911530Y-95857142D01*
X141911530Y-95857142D02*
X141935340Y-95833333D01*
X141935340Y-95833333D02*
X141959149Y-95785714D01*
X141959149Y-95785714D02*
X141959149Y-95642857D01*
X141959149Y-95642857D02*
X141935340Y-95595238D01*
X141935340Y-95595238D02*
X141911530Y-95571428D01*
X143460930Y-101211866D02*
X143484740Y-101188057D01*
X143484740Y-101188057D02*
X143508549Y-101116628D01*
X143508549Y-101116628D02*
X143508549Y-101069009D01*
X143508549Y-101069009D02*
X143484740Y-100997581D01*
X143484740Y-100997581D02*
X143437120Y-100949962D01*
X143437120Y-100949962D02*
X143389501Y-100926152D01*
X143389501Y-100926152D02*
X143294263Y-100902343D01*
X143294263Y-100902343D02*
X143222835Y-100902343D01*
X143222835Y-100902343D02*
X143127597Y-100926152D01*
X143127597Y-100926152D02*
X143079978Y-100949962D01*
X143079978Y-100949962D02*
X143032359Y-100997581D01*
X143032359Y-100997581D02*
X143008549Y-101069009D01*
X143008549Y-101069009D02*
X143008549Y-101116628D01*
X143008549Y-101116628D02*
X143032359Y-101188057D01*
X143032359Y-101188057D02*
X143056168Y-101211866D01*
X143175216Y-101640438D02*
X143508549Y-101640438D01*
X142984740Y-101521390D02*
X143341882Y-101402343D01*
X143341882Y-101402343D02*
X143341882Y-101711866D01*
X158198333Y-82221530D02*
X158222142Y-82245340D01*
X158222142Y-82245340D02*
X158293571Y-82269149D01*
X158293571Y-82269149D02*
X158341190Y-82269149D01*
X158341190Y-82269149D02*
X158412618Y-82245340D01*
X158412618Y-82245340D02*
X158460237Y-82197720D01*
X158460237Y-82197720D02*
X158484047Y-82150101D01*
X158484047Y-82150101D02*
X158507856Y-82054863D01*
X158507856Y-82054863D02*
X158507856Y-81983435D01*
X158507856Y-81983435D02*
X158484047Y-81888197D01*
X158484047Y-81888197D02*
X158460237Y-81840578D01*
X158460237Y-81840578D02*
X158412618Y-81792959D01*
X158412618Y-81792959D02*
X158341190Y-81769149D01*
X158341190Y-81769149D02*
X158293571Y-81769149D01*
X158293571Y-81769149D02*
X158222142Y-81792959D01*
X158222142Y-81792959D02*
X158198333Y-81816768D01*
X157960237Y-82269149D02*
X157864999Y-82269149D01*
X157864999Y-82269149D02*
X157817380Y-82245340D01*
X157817380Y-82245340D02*
X157793571Y-82221530D01*
X157793571Y-82221530D02*
X157745952Y-82150101D01*
X157745952Y-82150101D02*
X157722142Y-82054863D01*
X157722142Y-82054863D02*
X157722142Y-81864387D01*
X157722142Y-81864387D02*
X157745952Y-81816768D01*
X157745952Y-81816768D02*
X157769761Y-81792959D01*
X157769761Y-81792959D02*
X157817380Y-81769149D01*
X157817380Y-81769149D02*
X157912618Y-81769149D01*
X157912618Y-81769149D02*
X157960237Y-81792959D01*
X157960237Y-81792959D02*
X157984047Y-81816768D01*
X157984047Y-81816768D02*
X158007856Y-81864387D01*
X158007856Y-81864387D02*
X158007856Y-81983435D01*
X158007856Y-81983435D02*
X157984047Y-82031054D01*
X157984047Y-82031054D02*
X157960237Y-82054863D01*
X157960237Y-82054863D02*
X157912618Y-82078673D01*
X157912618Y-82078673D02*
X157817380Y-82078673D01*
X157817380Y-82078673D02*
X157769761Y-82054863D01*
X157769761Y-82054863D02*
X157745952Y-82031054D01*
X157745952Y-82031054D02*
X157722142Y-81983435D01*
X134077828Y-113180949D02*
X134244494Y-112942854D01*
X134363542Y-113180949D02*
X134363542Y-112680949D01*
X134363542Y-112680949D02*
X134173066Y-112680949D01*
X134173066Y-112680949D02*
X134125447Y-112704759D01*
X134125447Y-112704759D02*
X134101637Y-112728568D01*
X134101637Y-112728568D02*
X134077828Y-112776187D01*
X134077828Y-112776187D02*
X134077828Y-112847616D01*
X134077828Y-112847616D02*
X134101637Y-112895235D01*
X134101637Y-112895235D02*
X134125447Y-112919044D01*
X134125447Y-112919044D02*
X134173066Y-112942854D01*
X134173066Y-112942854D02*
X134363542Y-112942854D01*
X133601637Y-113180949D02*
X133887351Y-113180949D01*
X133744494Y-113180949D02*
X133744494Y-112680949D01*
X133744494Y-112680949D02*
X133792113Y-112752378D01*
X133792113Y-112752378D02*
X133839732Y-112799997D01*
X133839732Y-112799997D02*
X133887351Y-112823806D01*
X133149257Y-112680949D02*
X133387352Y-112680949D01*
X133387352Y-112680949D02*
X133411161Y-112919044D01*
X133411161Y-112919044D02*
X133387352Y-112895235D01*
X133387352Y-112895235D02*
X133339733Y-112871425D01*
X133339733Y-112871425D02*
X133220685Y-112871425D01*
X133220685Y-112871425D02*
X133173066Y-112895235D01*
X133173066Y-112895235D02*
X133149257Y-112919044D01*
X133149257Y-112919044D02*
X133125447Y-112966663D01*
X133125447Y-112966663D02*
X133125447Y-113085711D01*
X133125447Y-113085711D02*
X133149257Y-113133330D01*
X133149257Y-113133330D02*
X133173066Y-113157140D01*
X133173066Y-113157140D02*
X133220685Y-113180949D01*
X133220685Y-113180949D02*
X133339733Y-113180949D01*
X133339733Y-113180949D02*
X133387352Y-113157140D01*
X133387352Y-113157140D02*
X133411161Y-113133330D01*
X129420133Y-105306949D02*
X129586799Y-105068854D01*
X129705847Y-105306949D02*
X129705847Y-104806949D01*
X129705847Y-104806949D02*
X129515371Y-104806949D01*
X129515371Y-104806949D02*
X129467752Y-104830759D01*
X129467752Y-104830759D02*
X129443942Y-104854568D01*
X129443942Y-104854568D02*
X129420133Y-104902187D01*
X129420133Y-104902187D02*
X129420133Y-104973616D01*
X129420133Y-104973616D02*
X129443942Y-105021235D01*
X129443942Y-105021235D02*
X129467752Y-105045044D01*
X129467752Y-105045044D02*
X129515371Y-105068854D01*
X129515371Y-105068854D02*
X129705847Y-105068854D01*
X129229656Y-104854568D02*
X129205847Y-104830759D01*
X129205847Y-104830759D02*
X129158228Y-104806949D01*
X129158228Y-104806949D02*
X129039180Y-104806949D01*
X129039180Y-104806949D02*
X128991561Y-104830759D01*
X128991561Y-104830759D02*
X128967752Y-104854568D01*
X128967752Y-104854568D02*
X128943942Y-104902187D01*
X128943942Y-104902187D02*
X128943942Y-104949806D01*
X128943942Y-104949806D02*
X128967752Y-105021235D01*
X128967752Y-105021235D02*
X129253466Y-105306949D01*
X129253466Y-105306949D02*
X128943942Y-105306949D01*
X155261428Y-98295530D02*
X155285237Y-98319340D01*
X155285237Y-98319340D02*
X155356666Y-98343149D01*
X155356666Y-98343149D02*
X155404285Y-98343149D01*
X155404285Y-98343149D02*
X155475713Y-98319340D01*
X155475713Y-98319340D02*
X155523332Y-98271720D01*
X155523332Y-98271720D02*
X155547142Y-98224101D01*
X155547142Y-98224101D02*
X155570951Y-98128863D01*
X155570951Y-98128863D02*
X155570951Y-98057435D01*
X155570951Y-98057435D02*
X155547142Y-97962197D01*
X155547142Y-97962197D02*
X155523332Y-97914578D01*
X155523332Y-97914578D02*
X155475713Y-97866959D01*
X155475713Y-97866959D02*
X155404285Y-97843149D01*
X155404285Y-97843149D02*
X155356666Y-97843149D01*
X155356666Y-97843149D02*
X155285237Y-97866959D01*
X155285237Y-97866959D02*
X155261428Y-97890768D01*
X155070951Y-97890768D02*
X155047142Y-97866959D01*
X155047142Y-97866959D02*
X154999523Y-97843149D01*
X154999523Y-97843149D02*
X154880475Y-97843149D01*
X154880475Y-97843149D02*
X154832856Y-97866959D01*
X154832856Y-97866959D02*
X154809047Y-97890768D01*
X154809047Y-97890768D02*
X154785237Y-97938387D01*
X154785237Y-97938387D02*
X154785237Y-97986006D01*
X154785237Y-97986006D02*
X154809047Y-98057435D01*
X154809047Y-98057435D02*
X155094761Y-98343149D01*
X155094761Y-98343149D02*
X154785237Y-98343149D01*
X154475714Y-97843149D02*
X154428095Y-97843149D01*
X154428095Y-97843149D02*
X154380476Y-97866959D01*
X154380476Y-97866959D02*
X154356666Y-97890768D01*
X154356666Y-97890768D02*
X154332857Y-97938387D01*
X154332857Y-97938387D02*
X154309047Y-98033625D01*
X154309047Y-98033625D02*
X154309047Y-98152673D01*
X154309047Y-98152673D02*
X154332857Y-98247911D01*
X154332857Y-98247911D02*
X154356666Y-98295530D01*
X154356666Y-98295530D02*
X154380476Y-98319340D01*
X154380476Y-98319340D02*
X154428095Y-98343149D01*
X154428095Y-98343149D02*
X154475714Y-98343149D01*
X154475714Y-98343149D02*
X154523333Y-98319340D01*
X154523333Y-98319340D02*
X154547142Y-98295530D01*
X154547142Y-98295530D02*
X154570952Y-98247911D01*
X154570952Y-98247911D02*
X154594761Y-98152673D01*
X154594761Y-98152673D02*
X154594761Y-98033625D01*
X154594761Y-98033625D02*
X154570952Y-97938387D01*
X154570952Y-97938387D02*
X154547142Y-97890768D01*
X154547142Y-97890768D02*
X154523333Y-97866959D01*
X154523333Y-97866959D02*
X154475714Y-97843149D01*
X158325333Y-87174530D02*
X158349142Y-87198340D01*
X158349142Y-87198340D02*
X158420571Y-87222149D01*
X158420571Y-87222149D02*
X158468190Y-87222149D01*
X158468190Y-87222149D02*
X158539618Y-87198340D01*
X158539618Y-87198340D02*
X158587237Y-87150720D01*
X158587237Y-87150720D02*
X158611047Y-87103101D01*
X158611047Y-87103101D02*
X158634856Y-87007863D01*
X158634856Y-87007863D02*
X158634856Y-86936435D01*
X158634856Y-86936435D02*
X158611047Y-86841197D01*
X158611047Y-86841197D02*
X158587237Y-86793578D01*
X158587237Y-86793578D02*
X158539618Y-86745959D01*
X158539618Y-86745959D02*
X158468190Y-86722149D01*
X158468190Y-86722149D02*
X158420571Y-86722149D01*
X158420571Y-86722149D02*
X158349142Y-86745959D01*
X158349142Y-86745959D02*
X158325333Y-86769768D01*
X158039618Y-86936435D02*
X158087237Y-86912625D01*
X158087237Y-86912625D02*
X158111047Y-86888816D01*
X158111047Y-86888816D02*
X158134856Y-86841197D01*
X158134856Y-86841197D02*
X158134856Y-86817387D01*
X158134856Y-86817387D02*
X158111047Y-86769768D01*
X158111047Y-86769768D02*
X158087237Y-86745959D01*
X158087237Y-86745959D02*
X158039618Y-86722149D01*
X158039618Y-86722149D02*
X157944380Y-86722149D01*
X157944380Y-86722149D02*
X157896761Y-86745959D01*
X157896761Y-86745959D02*
X157872952Y-86769768D01*
X157872952Y-86769768D02*
X157849142Y-86817387D01*
X157849142Y-86817387D02*
X157849142Y-86841197D01*
X157849142Y-86841197D02*
X157872952Y-86888816D01*
X157872952Y-86888816D02*
X157896761Y-86912625D01*
X157896761Y-86912625D02*
X157944380Y-86936435D01*
X157944380Y-86936435D02*
X158039618Y-86936435D01*
X158039618Y-86936435D02*
X158087237Y-86960244D01*
X158087237Y-86960244D02*
X158111047Y-86984054D01*
X158111047Y-86984054D02*
X158134856Y-87031673D01*
X158134856Y-87031673D02*
X158134856Y-87126911D01*
X158134856Y-87126911D02*
X158111047Y-87174530D01*
X158111047Y-87174530D02*
X158087237Y-87198340D01*
X158087237Y-87198340D02*
X158039618Y-87222149D01*
X158039618Y-87222149D02*
X157944380Y-87222149D01*
X157944380Y-87222149D02*
X157896761Y-87198340D01*
X157896761Y-87198340D02*
X157872952Y-87174530D01*
X157872952Y-87174530D02*
X157849142Y-87126911D01*
X157849142Y-87126911D02*
X157849142Y-87031673D01*
X157849142Y-87031673D02*
X157872952Y-86984054D01*
X157872952Y-86984054D02*
X157896761Y-86960244D01*
X157896761Y-86960244D02*
X157944380Y-86936435D01*
X146811952Y-77578149D02*
X146811952Y-77982911D01*
X146811952Y-77982911D02*
X146788142Y-78030530D01*
X146788142Y-78030530D02*
X146764333Y-78054340D01*
X146764333Y-78054340D02*
X146716714Y-78078149D01*
X146716714Y-78078149D02*
X146621476Y-78078149D01*
X146621476Y-78078149D02*
X146573857Y-78054340D01*
X146573857Y-78054340D02*
X146550047Y-78030530D01*
X146550047Y-78030530D02*
X146526238Y-77982911D01*
X146526238Y-77982911D02*
X146526238Y-77578149D01*
X146073856Y-77578149D02*
X146169094Y-77578149D01*
X146169094Y-77578149D02*
X146216713Y-77601959D01*
X146216713Y-77601959D02*
X146240523Y-77625768D01*
X146240523Y-77625768D02*
X146288142Y-77697197D01*
X146288142Y-77697197D02*
X146311951Y-77792435D01*
X146311951Y-77792435D02*
X146311951Y-77982911D01*
X146311951Y-77982911D02*
X146288142Y-78030530D01*
X146288142Y-78030530D02*
X146264332Y-78054340D01*
X146264332Y-78054340D02*
X146216713Y-78078149D01*
X146216713Y-78078149D02*
X146121475Y-78078149D01*
X146121475Y-78078149D02*
X146073856Y-78054340D01*
X146073856Y-78054340D02*
X146050047Y-78030530D01*
X146050047Y-78030530D02*
X146026237Y-77982911D01*
X146026237Y-77982911D02*
X146026237Y-77863863D01*
X146026237Y-77863863D02*
X146050047Y-77816244D01*
X146050047Y-77816244D02*
X146073856Y-77792435D01*
X146073856Y-77792435D02*
X146121475Y-77768625D01*
X146121475Y-77768625D02*
X146216713Y-77768625D01*
X146216713Y-77768625D02*
X146264332Y-77792435D01*
X146264332Y-77792435D02*
X146288142Y-77816244D01*
X146288142Y-77816244D02*
X146311951Y-77863863D01*
X131392749Y-100821371D02*
X131154654Y-100654705D01*
X131392749Y-100535657D02*
X130892749Y-100535657D01*
X130892749Y-100535657D02*
X130892749Y-100726133D01*
X130892749Y-100726133D02*
X130916559Y-100773752D01*
X130916559Y-100773752D02*
X130940368Y-100797562D01*
X130940368Y-100797562D02*
X130987987Y-100821371D01*
X130987987Y-100821371D02*
X131059416Y-100821371D01*
X131059416Y-100821371D02*
X131107035Y-100797562D01*
X131107035Y-100797562D02*
X131130844Y-100773752D01*
X131130844Y-100773752D02*
X131154654Y-100726133D01*
X131154654Y-100726133D02*
X131154654Y-100535657D01*
X131392749Y-101297562D02*
X131392749Y-101011848D01*
X131392749Y-101154705D02*
X130892749Y-101154705D01*
X130892749Y-101154705D02*
X130964178Y-101107086D01*
X130964178Y-101107086D02*
X131011797Y-101059467D01*
X131011797Y-101059467D02*
X131035606Y-101011848D01*
X130892749Y-101607085D02*
X130892749Y-101654704D01*
X130892749Y-101654704D02*
X130916559Y-101702323D01*
X130916559Y-101702323D02*
X130940368Y-101726133D01*
X130940368Y-101726133D02*
X130987987Y-101749942D01*
X130987987Y-101749942D02*
X131083225Y-101773752D01*
X131083225Y-101773752D02*
X131202273Y-101773752D01*
X131202273Y-101773752D02*
X131297511Y-101749942D01*
X131297511Y-101749942D02*
X131345130Y-101726133D01*
X131345130Y-101726133D02*
X131368940Y-101702323D01*
X131368940Y-101702323D02*
X131392749Y-101654704D01*
X131392749Y-101654704D02*
X131392749Y-101607085D01*
X131392749Y-101607085D02*
X131368940Y-101559466D01*
X131368940Y-101559466D02*
X131345130Y-101535657D01*
X131345130Y-101535657D02*
X131297511Y-101511847D01*
X131297511Y-101511847D02*
X131202273Y-101488038D01*
X131202273Y-101488038D02*
X131083225Y-101488038D01*
X131083225Y-101488038D02*
X130987987Y-101511847D01*
X130987987Y-101511847D02*
X130940368Y-101535657D01*
X130940368Y-101535657D02*
X130916559Y-101559466D01*
X130916559Y-101559466D02*
X130892749Y-101607085D01*
X123098665Y-92548244D02*
X123265332Y-92548244D01*
X123265332Y-92810149D02*
X123265332Y-92310149D01*
X123265332Y-92310149D02*
X123027237Y-92310149D01*
X122670094Y-92548244D02*
X122598666Y-92572054D01*
X122598666Y-92572054D02*
X122574856Y-92595863D01*
X122574856Y-92595863D02*
X122551047Y-92643482D01*
X122551047Y-92643482D02*
X122551047Y-92714911D01*
X122551047Y-92714911D02*
X122574856Y-92762530D01*
X122574856Y-92762530D02*
X122598666Y-92786340D01*
X122598666Y-92786340D02*
X122646285Y-92810149D01*
X122646285Y-92810149D02*
X122836761Y-92810149D01*
X122836761Y-92810149D02*
X122836761Y-92310149D01*
X122836761Y-92310149D02*
X122670094Y-92310149D01*
X122670094Y-92310149D02*
X122622475Y-92333959D01*
X122622475Y-92333959D02*
X122598666Y-92357768D01*
X122598666Y-92357768D02*
X122574856Y-92405387D01*
X122574856Y-92405387D02*
X122574856Y-92453006D01*
X122574856Y-92453006D02*
X122598666Y-92500625D01*
X122598666Y-92500625D02*
X122622475Y-92524435D01*
X122622475Y-92524435D02*
X122670094Y-92548244D01*
X122670094Y-92548244D02*
X122836761Y-92548244D01*
X122074856Y-92810149D02*
X122360570Y-92810149D01*
X122217713Y-92810149D02*
X122217713Y-92310149D01*
X122217713Y-92310149D02*
X122265332Y-92381578D01*
X122265332Y-92381578D02*
X122312951Y-92429197D01*
X122312951Y-92429197D02*
X122360570Y-92453006D01*
X146832333Y-105535549D02*
X146998999Y-105297454D01*
X147118047Y-105535549D02*
X147118047Y-105035549D01*
X147118047Y-105035549D02*
X146927571Y-105035549D01*
X146927571Y-105035549D02*
X146879952Y-105059359D01*
X146879952Y-105059359D02*
X146856142Y-105083168D01*
X146856142Y-105083168D02*
X146832333Y-105130787D01*
X146832333Y-105130787D02*
X146832333Y-105202216D01*
X146832333Y-105202216D02*
X146856142Y-105249835D01*
X146856142Y-105249835D02*
X146879952Y-105273644D01*
X146879952Y-105273644D02*
X146927571Y-105297454D01*
X146927571Y-105297454D02*
X147118047Y-105297454D01*
X146403761Y-105035549D02*
X146498999Y-105035549D01*
X146498999Y-105035549D02*
X146546618Y-105059359D01*
X146546618Y-105059359D02*
X146570428Y-105083168D01*
X146570428Y-105083168D02*
X146618047Y-105154597D01*
X146618047Y-105154597D02*
X146641856Y-105249835D01*
X146641856Y-105249835D02*
X146641856Y-105440311D01*
X146641856Y-105440311D02*
X146618047Y-105487930D01*
X146618047Y-105487930D02*
X146594237Y-105511740D01*
X146594237Y-105511740D02*
X146546618Y-105535549D01*
X146546618Y-105535549D02*
X146451380Y-105535549D01*
X146451380Y-105535549D02*
X146403761Y-105511740D01*
X146403761Y-105511740D02*
X146379952Y-105487930D01*
X146379952Y-105487930D02*
X146356142Y-105440311D01*
X146356142Y-105440311D02*
X146356142Y-105321263D01*
X146356142Y-105321263D02*
X146379952Y-105273644D01*
X146379952Y-105273644D02*
X146403761Y-105249835D01*
X146403761Y-105249835D02*
X146451380Y-105226025D01*
X146451380Y-105226025D02*
X146546618Y-105226025D01*
X146546618Y-105226025D02*
X146594237Y-105249835D01*
X146594237Y-105249835D02*
X146618047Y-105273644D01*
X146618047Y-105273644D02*
X146641856Y-105321263D01*
X126745952Y-78788149D02*
X126745952Y-79192911D01*
X126745952Y-79192911D02*
X126722142Y-79240530D01*
X126722142Y-79240530D02*
X126698333Y-79264340D01*
X126698333Y-79264340D02*
X126650714Y-79288149D01*
X126650714Y-79288149D02*
X126555476Y-79288149D01*
X126555476Y-79288149D02*
X126507857Y-79264340D01*
X126507857Y-79264340D02*
X126484047Y-79240530D01*
X126484047Y-79240530D02*
X126460238Y-79192911D01*
X126460238Y-79192911D02*
X126460238Y-78788149D01*
X126007856Y-78954816D02*
X126007856Y-79288149D01*
X126126904Y-78764340D02*
X126245951Y-79121482D01*
X126245951Y-79121482D02*
X125936428Y-79121482D01*
X142267130Y-127415171D02*
X142290940Y-127391362D01*
X142290940Y-127391362D02*
X142314749Y-127319933D01*
X142314749Y-127319933D02*
X142314749Y-127272314D01*
X142314749Y-127272314D02*
X142290940Y-127200886D01*
X142290940Y-127200886D02*
X142243320Y-127153267D01*
X142243320Y-127153267D02*
X142195701Y-127129457D01*
X142195701Y-127129457D02*
X142100463Y-127105648D01*
X142100463Y-127105648D02*
X142029035Y-127105648D01*
X142029035Y-127105648D02*
X141933797Y-127129457D01*
X141933797Y-127129457D02*
X141886178Y-127153267D01*
X141886178Y-127153267D02*
X141838559Y-127200886D01*
X141838559Y-127200886D02*
X141814749Y-127272314D01*
X141814749Y-127272314D02*
X141814749Y-127319933D01*
X141814749Y-127319933D02*
X141838559Y-127391362D01*
X141838559Y-127391362D02*
X141862368Y-127415171D01*
X141862368Y-127605648D02*
X141838559Y-127629457D01*
X141838559Y-127629457D02*
X141814749Y-127677076D01*
X141814749Y-127677076D02*
X141814749Y-127796124D01*
X141814749Y-127796124D02*
X141838559Y-127843743D01*
X141838559Y-127843743D02*
X141862368Y-127867552D01*
X141862368Y-127867552D02*
X141909987Y-127891362D01*
X141909987Y-127891362D02*
X141957606Y-127891362D01*
X141957606Y-127891362D02*
X142029035Y-127867552D01*
X142029035Y-127867552D02*
X142314749Y-127581838D01*
X142314749Y-127581838D02*
X142314749Y-127891362D01*
X141981416Y-128319933D02*
X142314749Y-128319933D01*
X141790940Y-128200885D02*
X142148082Y-128081838D01*
X142148082Y-128081838D02*
X142148082Y-128391361D01*
X143156130Y-111473466D02*
X143179940Y-111449657D01*
X143179940Y-111449657D02*
X143203749Y-111378228D01*
X143203749Y-111378228D02*
X143203749Y-111330609D01*
X143203749Y-111330609D02*
X143179940Y-111259181D01*
X143179940Y-111259181D02*
X143132320Y-111211562D01*
X143132320Y-111211562D02*
X143084701Y-111187752D01*
X143084701Y-111187752D02*
X142989463Y-111163943D01*
X142989463Y-111163943D02*
X142918035Y-111163943D01*
X142918035Y-111163943D02*
X142822797Y-111187752D01*
X142822797Y-111187752D02*
X142775178Y-111211562D01*
X142775178Y-111211562D02*
X142727559Y-111259181D01*
X142727559Y-111259181D02*
X142703749Y-111330609D01*
X142703749Y-111330609D02*
X142703749Y-111378228D01*
X142703749Y-111378228D02*
X142727559Y-111449657D01*
X142727559Y-111449657D02*
X142751368Y-111473466D01*
X142703749Y-111925847D02*
X142703749Y-111687752D01*
X142703749Y-111687752D02*
X142941844Y-111663943D01*
X142941844Y-111663943D02*
X142918035Y-111687752D01*
X142918035Y-111687752D02*
X142894225Y-111735371D01*
X142894225Y-111735371D02*
X142894225Y-111854419D01*
X142894225Y-111854419D02*
X142918035Y-111902038D01*
X142918035Y-111902038D02*
X142941844Y-111925847D01*
X142941844Y-111925847D02*
X142989463Y-111949657D01*
X142989463Y-111949657D02*
X143108511Y-111949657D01*
X143108511Y-111949657D02*
X143156130Y-111925847D01*
X143156130Y-111925847D02*
X143179940Y-111902038D01*
X143179940Y-111902038D02*
X143203749Y-111854419D01*
X143203749Y-111854419D02*
X143203749Y-111735371D01*
X143203749Y-111735371D02*
X143179940Y-111687752D01*
X143179940Y-111687752D02*
X143156130Y-111663943D01*
X129470933Y-107872349D02*
X129637599Y-107634254D01*
X129756647Y-107872349D02*
X129756647Y-107372349D01*
X129756647Y-107372349D02*
X129566171Y-107372349D01*
X129566171Y-107372349D02*
X129518552Y-107396159D01*
X129518552Y-107396159D02*
X129494742Y-107419968D01*
X129494742Y-107419968D02*
X129470933Y-107467587D01*
X129470933Y-107467587D02*
X129470933Y-107539016D01*
X129470933Y-107539016D02*
X129494742Y-107586635D01*
X129494742Y-107586635D02*
X129518552Y-107610444D01*
X129518552Y-107610444D02*
X129566171Y-107634254D01*
X129566171Y-107634254D02*
X129756647Y-107634254D01*
X129042361Y-107539016D02*
X129042361Y-107872349D01*
X129161409Y-107348540D02*
X129280456Y-107705682D01*
X129280456Y-107705682D02*
X128970933Y-107705682D01*
X134077828Y-99838349D02*
X134244494Y-99600254D01*
X134363542Y-99838349D02*
X134363542Y-99338349D01*
X134363542Y-99338349D02*
X134173066Y-99338349D01*
X134173066Y-99338349D02*
X134125447Y-99362159D01*
X134125447Y-99362159D02*
X134101637Y-99385968D01*
X134101637Y-99385968D02*
X134077828Y-99433587D01*
X134077828Y-99433587D02*
X134077828Y-99505016D01*
X134077828Y-99505016D02*
X134101637Y-99552635D01*
X134101637Y-99552635D02*
X134125447Y-99576444D01*
X134125447Y-99576444D02*
X134173066Y-99600254D01*
X134173066Y-99600254D02*
X134363542Y-99600254D01*
X133601637Y-99838349D02*
X133887351Y-99838349D01*
X133744494Y-99838349D02*
X133744494Y-99338349D01*
X133744494Y-99338349D02*
X133792113Y-99409778D01*
X133792113Y-99409778D02*
X133839732Y-99457397D01*
X133839732Y-99457397D02*
X133887351Y-99481206D01*
X133173066Y-99505016D02*
X133173066Y-99838349D01*
X133292114Y-99314540D02*
X133411161Y-99671682D01*
X133411161Y-99671682D02*
X133101638Y-99671682D01*
X116288333Y-94207149D02*
X116454999Y-93969054D01*
X116574047Y-94207149D02*
X116574047Y-93707149D01*
X116574047Y-93707149D02*
X116383571Y-93707149D01*
X116383571Y-93707149D02*
X116335952Y-93730959D01*
X116335952Y-93730959D02*
X116312142Y-93754768D01*
X116312142Y-93754768D02*
X116288333Y-93802387D01*
X116288333Y-93802387D02*
X116288333Y-93873816D01*
X116288333Y-93873816D02*
X116312142Y-93921435D01*
X116312142Y-93921435D02*
X116335952Y-93945244D01*
X116335952Y-93945244D02*
X116383571Y-93969054D01*
X116383571Y-93969054D02*
X116574047Y-93969054D01*
X115812142Y-94207149D02*
X116097856Y-94207149D01*
X115954999Y-94207149D02*
X115954999Y-93707149D01*
X115954999Y-93707149D02*
X116002618Y-93778578D01*
X116002618Y-93778578D02*
X116050237Y-93826197D01*
X116050237Y-93826197D02*
X116097856Y-93850006D01*
X123257428Y-88571530D02*
X123281237Y-88595340D01*
X123281237Y-88595340D02*
X123352666Y-88619149D01*
X123352666Y-88619149D02*
X123400285Y-88619149D01*
X123400285Y-88619149D02*
X123471713Y-88595340D01*
X123471713Y-88595340D02*
X123519332Y-88547720D01*
X123519332Y-88547720D02*
X123543142Y-88500101D01*
X123543142Y-88500101D02*
X123566951Y-88404863D01*
X123566951Y-88404863D02*
X123566951Y-88333435D01*
X123566951Y-88333435D02*
X123543142Y-88238197D01*
X123543142Y-88238197D02*
X123519332Y-88190578D01*
X123519332Y-88190578D02*
X123471713Y-88142959D01*
X123471713Y-88142959D02*
X123400285Y-88119149D01*
X123400285Y-88119149D02*
X123352666Y-88119149D01*
X123352666Y-88119149D02*
X123281237Y-88142959D01*
X123281237Y-88142959D02*
X123257428Y-88166768D01*
X122781237Y-88619149D02*
X123066951Y-88619149D01*
X122924094Y-88619149D02*
X122924094Y-88119149D01*
X122924094Y-88119149D02*
X122971713Y-88190578D01*
X122971713Y-88190578D02*
X123019332Y-88238197D01*
X123019332Y-88238197D02*
X123066951Y-88262006D01*
X122614571Y-88119149D02*
X122281238Y-88119149D01*
X122281238Y-88119149D02*
X122495523Y-88619149D01*
X146156028Y-117364349D02*
X146322694Y-117126254D01*
X146441742Y-117364349D02*
X146441742Y-116864349D01*
X146441742Y-116864349D02*
X146251266Y-116864349D01*
X146251266Y-116864349D02*
X146203647Y-116888159D01*
X146203647Y-116888159D02*
X146179837Y-116911968D01*
X146179837Y-116911968D02*
X146156028Y-116959587D01*
X146156028Y-116959587D02*
X146156028Y-117031016D01*
X146156028Y-117031016D02*
X146179837Y-117078635D01*
X146179837Y-117078635D02*
X146203647Y-117102444D01*
X146203647Y-117102444D02*
X146251266Y-117126254D01*
X146251266Y-117126254D02*
X146441742Y-117126254D01*
X145989361Y-116864349D02*
X145679837Y-116864349D01*
X145679837Y-116864349D02*
X145846504Y-117054825D01*
X145846504Y-117054825D02*
X145775075Y-117054825D01*
X145775075Y-117054825D02*
X145727456Y-117078635D01*
X145727456Y-117078635D02*
X145703647Y-117102444D01*
X145703647Y-117102444D02*
X145679837Y-117150063D01*
X145679837Y-117150063D02*
X145679837Y-117269111D01*
X145679837Y-117269111D02*
X145703647Y-117316730D01*
X145703647Y-117316730D02*
X145727456Y-117340540D01*
X145727456Y-117340540D02*
X145775075Y-117364349D01*
X145775075Y-117364349D02*
X145917932Y-117364349D01*
X145917932Y-117364349D02*
X145965551Y-117340540D01*
X145965551Y-117340540D02*
X145989361Y-117316730D01*
X145370314Y-116864349D02*
X145322695Y-116864349D01*
X145322695Y-116864349D02*
X145275076Y-116888159D01*
X145275076Y-116888159D02*
X145251266Y-116911968D01*
X145251266Y-116911968D02*
X145227457Y-116959587D01*
X145227457Y-116959587D02*
X145203647Y-117054825D01*
X145203647Y-117054825D02*
X145203647Y-117173873D01*
X145203647Y-117173873D02*
X145227457Y-117269111D01*
X145227457Y-117269111D02*
X145251266Y-117316730D01*
X145251266Y-117316730D02*
X145275076Y-117340540D01*
X145275076Y-117340540D02*
X145322695Y-117364349D01*
X145322695Y-117364349D02*
X145370314Y-117364349D01*
X145370314Y-117364349D02*
X145417933Y-117340540D01*
X145417933Y-117340540D02*
X145441742Y-117316730D01*
X145441742Y-117316730D02*
X145465552Y-117269111D01*
X145465552Y-117269111D02*
X145489361Y-117173873D01*
X145489361Y-117173873D02*
X145489361Y-117054825D01*
X145489361Y-117054825D02*
X145465552Y-116959587D01*
X145465552Y-116959587D02*
X145441742Y-116911968D01*
X145441742Y-116911968D02*
X145417933Y-116888159D01*
X145417933Y-116888159D02*
X145370314Y-116864349D01*
X130242428Y-122607530D02*
X130266237Y-122631340D01*
X130266237Y-122631340D02*
X130337666Y-122655149D01*
X130337666Y-122655149D02*
X130385285Y-122655149D01*
X130385285Y-122655149D02*
X130456713Y-122631340D01*
X130456713Y-122631340D02*
X130504332Y-122583720D01*
X130504332Y-122583720D02*
X130528142Y-122536101D01*
X130528142Y-122536101D02*
X130551951Y-122440863D01*
X130551951Y-122440863D02*
X130551951Y-122369435D01*
X130551951Y-122369435D02*
X130528142Y-122274197D01*
X130528142Y-122274197D02*
X130504332Y-122226578D01*
X130504332Y-122226578D02*
X130456713Y-122178959D01*
X130456713Y-122178959D02*
X130385285Y-122155149D01*
X130385285Y-122155149D02*
X130337666Y-122155149D01*
X130337666Y-122155149D02*
X130266237Y-122178959D01*
X130266237Y-122178959D02*
X130242428Y-122202768D01*
X130051951Y-122202768D02*
X130028142Y-122178959D01*
X130028142Y-122178959D02*
X129980523Y-122155149D01*
X129980523Y-122155149D02*
X129861475Y-122155149D01*
X129861475Y-122155149D02*
X129813856Y-122178959D01*
X129813856Y-122178959D02*
X129790047Y-122202768D01*
X129790047Y-122202768D02*
X129766237Y-122250387D01*
X129766237Y-122250387D02*
X129766237Y-122298006D01*
X129766237Y-122298006D02*
X129790047Y-122369435D01*
X129790047Y-122369435D02*
X130075761Y-122655149D01*
X130075761Y-122655149D02*
X129766237Y-122655149D01*
X129575761Y-122202768D02*
X129551952Y-122178959D01*
X129551952Y-122178959D02*
X129504333Y-122155149D01*
X129504333Y-122155149D02*
X129385285Y-122155149D01*
X129385285Y-122155149D02*
X129337666Y-122178959D01*
X129337666Y-122178959D02*
X129313857Y-122202768D01*
X129313857Y-122202768D02*
X129290047Y-122250387D01*
X129290047Y-122250387D02*
X129290047Y-122298006D01*
X129290047Y-122298006D02*
X129313857Y-122369435D01*
X129313857Y-122369435D02*
X129599571Y-122655149D01*
X129599571Y-122655149D02*
X129290047Y-122655149D01*
X144405149Y-76853166D02*
X144405149Y-76615071D01*
X144405149Y-76615071D02*
X143905149Y-76615071D01*
X144405149Y-77281738D02*
X144405149Y-76996024D01*
X144405149Y-77138881D02*
X143905149Y-77138881D01*
X143905149Y-77138881D02*
X143976578Y-77091262D01*
X143976578Y-77091262D02*
X144024197Y-77043643D01*
X144024197Y-77043643D02*
X144048006Y-76996024D01*
X140720428Y-92269149D02*
X140887094Y-92031054D01*
X141006142Y-92269149D02*
X141006142Y-91769149D01*
X141006142Y-91769149D02*
X140815666Y-91769149D01*
X140815666Y-91769149D02*
X140768047Y-91792959D01*
X140768047Y-91792959D02*
X140744237Y-91816768D01*
X140744237Y-91816768D02*
X140720428Y-91864387D01*
X140720428Y-91864387D02*
X140720428Y-91935816D01*
X140720428Y-91935816D02*
X140744237Y-91983435D01*
X140744237Y-91983435D02*
X140768047Y-92007244D01*
X140768047Y-92007244D02*
X140815666Y-92031054D01*
X140815666Y-92031054D02*
X141006142Y-92031054D01*
X140529951Y-91816768D02*
X140506142Y-91792959D01*
X140506142Y-91792959D02*
X140458523Y-91769149D01*
X140458523Y-91769149D02*
X140339475Y-91769149D01*
X140339475Y-91769149D02*
X140291856Y-91792959D01*
X140291856Y-91792959D02*
X140268047Y-91816768D01*
X140268047Y-91816768D02*
X140244237Y-91864387D01*
X140244237Y-91864387D02*
X140244237Y-91912006D01*
X140244237Y-91912006D02*
X140268047Y-91983435D01*
X140268047Y-91983435D02*
X140553761Y-92269149D01*
X140553761Y-92269149D02*
X140244237Y-92269149D01*
X139815666Y-91935816D02*
X139815666Y-92269149D01*
X139934714Y-91745340D02*
X140053761Y-92102482D01*
X140053761Y-92102482D02*
X139744238Y-92102482D01*
X131443549Y-111399971D02*
X131205454Y-111233305D01*
X131443549Y-111114257D02*
X130943549Y-111114257D01*
X130943549Y-111114257D02*
X130943549Y-111304733D01*
X130943549Y-111304733D02*
X130967359Y-111352352D01*
X130967359Y-111352352D02*
X130991168Y-111376162D01*
X130991168Y-111376162D02*
X131038787Y-111399971D01*
X131038787Y-111399971D02*
X131110216Y-111399971D01*
X131110216Y-111399971D02*
X131157835Y-111376162D01*
X131157835Y-111376162D02*
X131181644Y-111352352D01*
X131181644Y-111352352D02*
X131205454Y-111304733D01*
X131205454Y-111304733D02*
X131205454Y-111114257D01*
X131443549Y-111876162D02*
X131443549Y-111590448D01*
X131443549Y-111733305D02*
X130943549Y-111733305D01*
X130943549Y-111733305D02*
X131014978Y-111685686D01*
X131014978Y-111685686D02*
X131062597Y-111638067D01*
X131062597Y-111638067D02*
X131086406Y-111590448D01*
X131443549Y-112352352D02*
X131443549Y-112066638D01*
X131443549Y-112209495D02*
X130943549Y-112209495D01*
X130943549Y-112209495D02*
X131014978Y-112161876D01*
X131014978Y-112161876D02*
X131062597Y-112114257D01*
X131062597Y-112114257D02*
X131086406Y-112066638D01*
X140783428Y-71426530D02*
X140807237Y-71450340D01*
X140807237Y-71450340D02*
X140878666Y-71474149D01*
X140878666Y-71474149D02*
X140926285Y-71474149D01*
X140926285Y-71474149D02*
X140997713Y-71450340D01*
X140997713Y-71450340D02*
X141045332Y-71402720D01*
X141045332Y-71402720D02*
X141069142Y-71355101D01*
X141069142Y-71355101D02*
X141092951Y-71259863D01*
X141092951Y-71259863D02*
X141092951Y-71188435D01*
X141092951Y-71188435D02*
X141069142Y-71093197D01*
X141069142Y-71093197D02*
X141045332Y-71045578D01*
X141045332Y-71045578D02*
X140997713Y-70997959D01*
X140997713Y-70997959D02*
X140926285Y-70974149D01*
X140926285Y-70974149D02*
X140878666Y-70974149D01*
X140878666Y-70974149D02*
X140807237Y-70997959D01*
X140807237Y-70997959D02*
X140783428Y-71021768D01*
X140592951Y-71021768D02*
X140569142Y-70997959D01*
X140569142Y-70997959D02*
X140521523Y-70974149D01*
X140521523Y-70974149D02*
X140402475Y-70974149D01*
X140402475Y-70974149D02*
X140354856Y-70997959D01*
X140354856Y-70997959D02*
X140331047Y-71021768D01*
X140331047Y-71021768D02*
X140307237Y-71069387D01*
X140307237Y-71069387D02*
X140307237Y-71117006D01*
X140307237Y-71117006D02*
X140331047Y-71188435D01*
X140331047Y-71188435D02*
X140616761Y-71474149D01*
X140616761Y-71474149D02*
X140307237Y-71474149D01*
X139854857Y-70974149D02*
X140092952Y-70974149D01*
X140092952Y-70974149D02*
X140116761Y-71212244D01*
X140116761Y-71212244D02*
X140092952Y-71188435D01*
X140092952Y-71188435D02*
X140045333Y-71164625D01*
X140045333Y-71164625D02*
X139926285Y-71164625D01*
X139926285Y-71164625D02*
X139878666Y-71188435D01*
X139878666Y-71188435D02*
X139854857Y-71212244D01*
X139854857Y-71212244D02*
X139831047Y-71259863D01*
X139831047Y-71259863D02*
X139831047Y-71378911D01*
X139831047Y-71378911D02*
X139854857Y-71426530D01*
X139854857Y-71426530D02*
X139878666Y-71450340D01*
X139878666Y-71450340D02*
X139926285Y-71474149D01*
X139926285Y-71474149D02*
X140045333Y-71474149D01*
X140045333Y-71474149D02*
X140092952Y-71450340D01*
X140092952Y-71450340D02*
X140116761Y-71426530D01*
X144321349Y-100719771D02*
X144083254Y-100553105D01*
X144321349Y-100434057D02*
X143821349Y-100434057D01*
X143821349Y-100434057D02*
X143821349Y-100624533D01*
X143821349Y-100624533D02*
X143845159Y-100672152D01*
X143845159Y-100672152D02*
X143868968Y-100695962D01*
X143868968Y-100695962D02*
X143916587Y-100719771D01*
X143916587Y-100719771D02*
X143988016Y-100719771D01*
X143988016Y-100719771D02*
X144035635Y-100695962D01*
X144035635Y-100695962D02*
X144059444Y-100672152D01*
X144059444Y-100672152D02*
X144083254Y-100624533D01*
X144083254Y-100624533D02*
X144083254Y-100434057D01*
X144321349Y-101195962D02*
X144321349Y-100910248D01*
X144321349Y-101053105D02*
X143821349Y-101053105D01*
X143821349Y-101053105D02*
X143892778Y-101005486D01*
X143892778Y-101005486D02*
X143940397Y-100957867D01*
X143940397Y-100957867D02*
X143964206Y-100910248D01*
X143868968Y-101386438D02*
X143845159Y-101410247D01*
X143845159Y-101410247D02*
X143821349Y-101457866D01*
X143821349Y-101457866D02*
X143821349Y-101576914D01*
X143821349Y-101576914D02*
X143845159Y-101624533D01*
X143845159Y-101624533D02*
X143868968Y-101648342D01*
X143868968Y-101648342D02*
X143916587Y-101672152D01*
X143916587Y-101672152D02*
X143964206Y-101672152D01*
X143964206Y-101672152D02*
X144035635Y-101648342D01*
X144035635Y-101648342D02*
X144321349Y-101362628D01*
X144321349Y-101362628D02*
X144321349Y-101672152D01*
X132996130Y-116823371D02*
X133019940Y-116799562D01*
X133019940Y-116799562D02*
X133043749Y-116728133D01*
X133043749Y-116728133D02*
X133043749Y-116680514D01*
X133043749Y-116680514D02*
X133019940Y-116609086D01*
X133019940Y-116609086D02*
X132972320Y-116561467D01*
X132972320Y-116561467D02*
X132924701Y-116537657D01*
X132924701Y-116537657D02*
X132829463Y-116513848D01*
X132829463Y-116513848D02*
X132758035Y-116513848D01*
X132758035Y-116513848D02*
X132662797Y-116537657D01*
X132662797Y-116537657D02*
X132615178Y-116561467D01*
X132615178Y-116561467D02*
X132567559Y-116609086D01*
X132567559Y-116609086D02*
X132543749Y-116680514D01*
X132543749Y-116680514D02*
X132543749Y-116728133D01*
X132543749Y-116728133D02*
X132567559Y-116799562D01*
X132567559Y-116799562D02*
X132591368Y-116823371D01*
X133043749Y-117299562D02*
X133043749Y-117013848D01*
X133043749Y-117156705D02*
X132543749Y-117156705D01*
X132543749Y-117156705D02*
X132615178Y-117109086D01*
X132615178Y-117109086D02*
X132662797Y-117061467D01*
X132662797Y-117061467D02*
X132686606Y-117013848D01*
X133043749Y-117775752D02*
X133043749Y-117490038D01*
X133043749Y-117632895D02*
X132543749Y-117632895D01*
X132543749Y-117632895D02*
X132615178Y-117585276D01*
X132615178Y-117585276D02*
X132662797Y-117537657D01*
X132662797Y-117537657D02*
X132686606Y-117490038D01*
X155221428Y-86895530D02*
X155245237Y-86919340D01*
X155245237Y-86919340D02*
X155316666Y-86943149D01*
X155316666Y-86943149D02*
X155364285Y-86943149D01*
X155364285Y-86943149D02*
X155435713Y-86919340D01*
X155435713Y-86919340D02*
X155483332Y-86871720D01*
X155483332Y-86871720D02*
X155507142Y-86824101D01*
X155507142Y-86824101D02*
X155530951Y-86728863D01*
X155530951Y-86728863D02*
X155530951Y-86657435D01*
X155530951Y-86657435D02*
X155507142Y-86562197D01*
X155507142Y-86562197D02*
X155483332Y-86514578D01*
X155483332Y-86514578D02*
X155435713Y-86466959D01*
X155435713Y-86466959D02*
X155364285Y-86443149D01*
X155364285Y-86443149D02*
X155316666Y-86443149D01*
X155316666Y-86443149D02*
X155245237Y-86466959D01*
X155245237Y-86466959D02*
X155221428Y-86490768D01*
X154745237Y-86943149D02*
X155030951Y-86943149D01*
X154888094Y-86943149D02*
X154888094Y-86443149D01*
X154888094Y-86443149D02*
X154935713Y-86514578D01*
X154935713Y-86514578D02*
X154983332Y-86562197D01*
X154983332Y-86562197D02*
X155030951Y-86586006D01*
X154507142Y-86943149D02*
X154411904Y-86943149D01*
X154411904Y-86943149D02*
X154364285Y-86919340D01*
X154364285Y-86919340D02*
X154340476Y-86895530D01*
X154340476Y-86895530D02*
X154292857Y-86824101D01*
X154292857Y-86824101D02*
X154269047Y-86728863D01*
X154269047Y-86728863D02*
X154269047Y-86538387D01*
X154269047Y-86538387D02*
X154292857Y-86490768D01*
X154292857Y-86490768D02*
X154316666Y-86466959D01*
X154316666Y-86466959D02*
X154364285Y-86443149D01*
X154364285Y-86443149D02*
X154459523Y-86443149D01*
X154459523Y-86443149D02*
X154507142Y-86466959D01*
X154507142Y-86466959D02*
X154530952Y-86490768D01*
X154530952Y-86490768D02*
X154554761Y-86538387D01*
X154554761Y-86538387D02*
X154554761Y-86657435D01*
X154554761Y-86657435D02*
X154530952Y-86705054D01*
X154530952Y-86705054D02*
X154507142Y-86728863D01*
X154507142Y-86728863D02*
X154459523Y-86752673D01*
X154459523Y-86752673D02*
X154364285Y-86752673D01*
X154364285Y-86752673D02*
X154316666Y-86728863D01*
X154316666Y-86728863D02*
X154292857Y-86705054D01*
X154292857Y-86705054D02*
X154269047Y-86657435D01*
X122729619Y-124226768D02*
X122777238Y-124202959D01*
X122777238Y-124202959D02*
X122824857Y-124155340D01*
X122824857Y-124155340D02*
X122896285Y-124083911D01*
X122896285Y-124083911D02*
X122943904Y-124060101D01*
X122943904Y-124060101D02*
X122991523Y-124060101D01*
X122967714Y-124179149D02*
X123015333Y-124155340D01*
X123015333Y-124155340D02*
X123062952Y-124107720D01*
X123062952Y-124107720D02*
X123086761Y-124012482D01*
X123086761Y-124012482D02*
X123086761Y-123845816D01*
X123086761Y-123845816D02*
X123062952Y-123750578D01*
X123062952Y-123750578D02*
X123015333Y-123702959D01*
X123015333Y-123702959D02*
X122967714Y-123679149D01*
X122967714Y-123679149D02*
X122872476Y-123679149D01*
X122872476Y-123679149D02*
X122824857Y-123702959D01*
X122824857Y-123702959D02*
X122777238Y-123750578D01*
X122777238Y-123750578D02*
X122753428Y-123845816D01*
X122753428Y-123845816D02*
X122753428Y-124012482D01*
X122753428Y-124012482D02*
X122777238Y-124107720D01*
X122777238Y-124107720D02*
X122824857Y-124155340D01*
X122824857Y-124155340D02*
X122872476Y-124179149D01*
X122872476Y-124179149D02*
X122967714Y-124179149D01*
X122277237Y-124179149D02*
X122562951Y-124179149D01*
X122420094Y-124179149D02*
X122420094Y-123679149D01*
X122420094Y-123679149D02*
X122467713Y-123750578D01*
X122467713Y-123750578D02*
X122515332Y-123798197D01*
X122515332Y-123798197D02*
X122562951Y-123822006D01*
X116955047Y-89381149D02*
X116955047Y-88881149D01*
X116955047Y-88881149D02*
X116835999Y-88881149D01*
X116835999Y-88881149D02*
X116764571Y-88904959D01*
X116764571Y-88904959D02*
X116716952Y-88952578D01*
X116716952Y-88952578D02*
X116693142Y-89000197D01*
X116693142Y-89000197D02*
X116669333Y-89095435D01*
X116669333Y-89095435D02*
X116669333Y-89166863D01*
X116669333Y-89166863D02*
X116693142Y-89262101D01*
X116693142Y-89262101D02*
X116716952Y-89309720D01*
X116716952Y-89309720D02*
X116764571Y-89357340D01*
X116764571Y-89357340D02*
X116835999Y-89381149D01*
X116835999Y-89381149D02*
X116955047Y-89381149D01*
X116193142Y-89381149D02*
X116478856Y-89381149D01*
X116335999Y-89381149D02*
X116335999Y-88881149D01*
X116335999Y-88881149D02*
X116383618Y-88952578D01*
X116383618Y-88952578D02*
X116431237Y-89000197D01*
X116431237Y-89000197D02*
X116478856Y-89024006D01*
X161357428Y-89889149D02*
X161524094Y-89651054D01*
X161643142Y-89889149D02*
X161643142Y-89389149D01*
X161643142Y-89389149D02*
X161452666Y-89389149D01*
X161452666Y-89389149D02*
X161405047Y-89412959D01*
X161405047Y-89412959D02*
X161381237Y-89436768D01*
X161381237Y-89436768D02*
X161357428Y-89484387D01*
X161357428Y-89484387D02*
X161357428Y-89555816D01*
X161357428Y-89555816D02*
X161381237Y-89603435D01*
X161381237Y-89603435D02*
X161405047Y-89627244D01*
X161405047Y-89627244D02*
X161452666Y-89651054D01*
X161452666Y-89651054D02*
X161643142Y-89651054D01*
X161190761Y-89389149D02*
X160881237Y-89389149D01*
X160881237Y-89389149D02*
X161047904Y-89579625D01*
X161047904Y-89579625D02*
X160976475Y-89579625D01*
X160976475Y-89579625D02*
X160928856Y-89603435D01*
X160928856Y-89603435D02*
X160905047Y-89627244D01*
X160905047Y-89627244D02*
X160881237Y-89674863D01*
X160881237Y-89674863D02*
X160881237Y-89793911D01*
X160881237Y-89793911D02*
X160905047Y-89841530D01*
X160905047Y-89841530D02*
X160928856Y-89865340D01*
X160928856Y-89865340D02*
X160976475Y-89889149D01*
X160976475Y-89889149D02*
X161119332Y-89889149D01*
X161119332Y-89889149D02*
X161166951Y-89865340D01*
X161166951Y-89865340D02*
X161190761Y-89841530D01*
X160714571Y-89389149D02*
X160405047Y-89389149D01*
X160405047Y-89389149D02*
X160571714Y-89579625D01*
X160571714Y-89579625D02*
X160500285Y-89579625D01*
X160500285Y-89579625D02*
X160452666Y-89603435D01*
X160452666Y-89603435D02*
X160428857Y-89627244D01*
X160428857Y-89627244D02*
X160405047Y-89674863D01*
X160405047Y-89674863D02*
X160405047Y-89793911D01*
X160405047Y-89793911D02*
X160428857Y-89841530D01*
X160428857Y-89841530D02*
X160452666Y-89865340D01*
X160452666Y-89865340D02*
X160500285Y-89889149D01*
X160500285Y-89889149D02*
X160643142Y-89889149D01*
X160643142Y-89889149D02*
X160690761Y-89865340D01*
X160690761Y-89865340D02*
X160714571Y-89841530D01*
X114497330Y-96589066D02*
X114521140Y-96565257D01*
X114521140Y-96565257D02*
X114544949Y-96493828D01*
X114544949Y-96493828D02*
X114544949Y-96446209D01*
X114544949Y-96446209D02*
X114521140Y-96374781D01*
X114521140Y-96374781D02*
X114473520Y-96327162D01*
X114473520Y-96327162D02*
X114425901Y-96303352D01*
X114425901Y-96303352D02*
X114330663Y-96279543D01*
X114330663Y-96279543D02*
X114259235Y-96279543D01*
X114259235Y-96279543D02*
X114163997Y-96303352D01*
X114163997Y-96303352D02*
X114116378Y-96327162D01*
X114116378Y-96327162D02*
X114068759Y-96374781D01*
X114068759Y-96374781D02*
X114044949Y-96446209D01*
X114044949Y-96446209D02*
X114044949Y-96493828D01*
X114044949Y-96493828D02*
X114068759Y-96565257D01*
X114068759Y-96565257D02*
X114092568Y-96589066D01*
X114544949Y-97065257D02*
X114544949Y-96779543D01*
X114544949Y-96922400D02*
X114044949Y-96922400D01*
X114044949Y-96922400D02*
X114116378Y-96874781D01*
X114116378Y-96874781D02*
X114163997Y-96827162D01*
X114163997Y-96827162D02*
X114187806Y-96779543D01*
X137947352Y-100873149D02*
X137947352Y-101277911D01*
X137947352Y-101277911D02*
X137923542Y-101325530D01*
X137923542Y-101325530D02*
X137899733Y-101349340D01*
X137899733Y-101349340D02*
X137852114Y-101373149D01*
X137852114Y-101373149D02*
X137756876Y-101373149D01*
X137756876Y-101373149D02*
X137709257Y-101349340D01*
X137709257Y-101349340D02*
X137685447Y-101325530D01*
X137685447Y-101325530D02*
X137661638Y-101277911D01*
X137661638Y-101277911D02*
X137661638Y-100873149D01*
X137447351Y-100920768D02*
X137423542Y-100896959D01*
X137423542Y-100896959D02*
X137375923Y-100873149D01*
X137375923Y-100873149D02*
X137256875Y-100873149D01*
X137256875Y-100873149D02*
X137209256Y-100896959D01*
X137209256Y-100896959D02*
X137185447Y-100920768D01*
X137185447Y-100920768D02*
X137161637Y-100968387D01*
X137161637Y-100968387D02*
X137161637Y-101016006D01*
X137161637Y-101016006D02*
X137185447Y-101087435D01*
X137185447Y-101087435D02*
X137471161Y-101373149D01*
X137471161Y-101373149D02*
X137161637Y-101373149D01*
X143838749Y-127415171D02*
X143600654Y-127248505D01*
X143838749Y-127129457D02*
X143338749Y-127129457D01*
X143338749Y-127129457D02*
X143338749Y-127319933D01*
X143338749Y-127319933D02*
X143362559Y-127367552D01*
X143362559Y-127367552D02*
X143386368Y-127391362D01*
X143386368Y-127391362D02*
X143433987Y-127415171D01*
X143433987Y-127415171D02*
X143505416Y-127415171D01*
X143505416Y-127415171D02*
X143553035Y-127391362D01*
X143553035Y-127391362D02*
X143576844Y-127367552D01*
X143576844Y-127367552D02*
X143600654Y-127319933D01*
X143600654Y-127319933D02*
X143600654Y-127129457D01*
X143386368Y-127605648D02*
X143362559Y-127629457D01*
X143362559Y-127629457D02*
X143338749Y-127677076D01*
X143338749Y-127677076D02*
X143338749Y-127796124D01*
X143338749Y-127796124D02*
X143362559Y-127843743D01*
X143362559Y-127843743D02*
X143386368Y-127867552D01*
X143386368Y-127867552D02*
X143433987Y-127891362D01*
X143433987Y-127891362D02*
X143481606Y-127891362D01*
X143481606Y-127891362D02*
X143553035Y-127867552D01*
X143553035Y-127867552D02*
X143838749Y-127581838D01*
X143838749Y-127581838D02*
X143838749Y-127891362D01*
X143838749Y-128129457D02*
X143838749Y-128224695D01*
X143838749Y-128224695D02*
X143814940Y-128272314D01*
X143814940Y-128272314D02*
X143791130Y-128296123D01*
X143791130Y-128296123D02*
X143719701Y-128343742D01*
X143719701Y-128343742D02*
X143624463Y-128367552D01*
X143624463Y-128367552D02*
X143433987Y-128367552D01*
X143433987Y-128367552D02*
X143386368Y-128343742D01*
X143386368Y-128343742D02*
X143362559Y-128319933D01*
X143362559Y-128319933D02*
X143338749Y-128272314D01*
X143338749Y-128272314D02*
X143338749Y-128177076D01*
X143338749Y-128177076D02*
X143362559Y-128129457D01*
X143362559Y-128129457D02*
X143386368Y-128105647D01*
X143386368Y-128105647D02*
X143433987Y-128081838D01*
X143433987Y-128081838D02*
X143553035Y-128081838D01*
X143553035Y-128081838D02*
X143600654Y-128105647D01*
X143600654Y-128105647D02*
X143624463Y-128129457D01*
X143624463Y-128129457D02*
X143648273Y-128177076D01*
X143648273Y-128177076D02*
X143648273Y-128272314D01*
X143648273Y-128272314D02*
X143624463Y-128319933D01*
X143624463Y-128319933D02*
X143600654Y-128343742D01*
X143600654Y-128343742D02*
X143553035Y-128367552D01*
X123295828Y-84380530D02*
X123319637Y-84404340D01*
X123319637Y-84404340D02*
X123391066Y-84428149D01*
X123391066Y-84428149D02*
X123438685Y-84428149D01*
X123438685Y-84428149D02*
X123510113Y-84404340D01*
X123510113Y-84404340D02*
X123557732Y-84356720D01*
X123557732Y-84356720D02*
X123581542Y-84309101D01*
X123581542Y-84309101D02*
X123605351Y-84213863D01*
X123605351Y-84213863D02*
X123605351Y-84142435D01*
X123605351Y-84142435D02*
X123581542Y-84047197D01*
X123581542Y-84047197D02*
X123557732Y-83999578D01*
X123557732Y-83999578D02*
X123510113Y-83951959D01*
X123510113Y-83951959D02*
X123438685Y-83928149D01*
X123438685Y-83928149D02*
X123391066Y-83928149D01*
X123391066Y-83928149D02*
X123319637Y-83951959D01*
X123319637Y-83951959D02*
X123295828Y-83975768D01*
X122819637Y-84428149D02*
X123105351Y-84428149D01*
X122962494Y-84428149D02*
X122962494Y-83928149D01*
X122962494Y-83928149D02*
X123010113Y-83999578D01*
X123010113Y-83999578D02*
X123057732Y-84047197D01*
X123057732Y-84047197D02*
X123105351Y-84071006D01*
X122533923Y-84142435D02*
X122581542Y-84118625D01*
X122581542Y-84118625D02*
X122605352Y-84094816D01*
X122605352Y-84094816D02*
X122629161Y-84047197D01*
X122629161Y-84047197D02*
X122629161Y-84023387D01*
X122629161Y-84023387D02*
X122605352Y-83975768D01*
X122605352Y-83975768D02*
X122581542Y-83951959D01*
X122581542Y-83951959D02*
X122533923Y-83928149D01*
X122533923Y-83928149D02*
X122438685Y-83928149D01*
X122438685Y-83928149D02*
X122391066Y-83951959D01*
X122391066Y-83951959D02*
X122367257Y-83975768D01*
X122367257Y-83975768D02*
X122343447Y-84023387D01*
X122343447Y-84023387D02*
X122343447Y-84047197D01*
X122343447Y-84047197D02*
X122367257Y-84094816D01*
X122367257Y-84094816D02*
X122391066Y-84118625D01*
X122391066Y-84118625D02*
X122438685Y-84142435D01*
X122438685Y-84142435D02*
X122533923Y-84142435D01*
X122533923Y-84142435D02*
X122581542Y-84166244D01*
X122581542Y-84166244D02*
X122605352Y-84190054D01*
X122605352Y-84190054D02*
X122629161Y-84237673D01*
X122629161Y-84237673D02*
X122629161Y-84332911D01*
X122629161Y-84332911D02*
X122605352Y-84380530D01*
X122605352Y-84380530D02*
X122581542Y-84404340D01*
X122581542Y-84404340D02*
X122533923Y-84428149D01*
X122533923Y-84428149D02*
X122438685Y-84428149D01*
X122438685Y-84428149D02*
X122391066Y-84404340D01*
X122391066Y-84404340D02*
X122367257Y-84380530D01*
X122367257Y-84380530D02*
X122343447Y-84332911D01*
X122343447Y-84332911D02*
X122343447Y-84237673D01*
X122343447Y-84237673D02*
X122367257Y-84190054D01*
X122367257Y-84190054D02*
X122391066Y-84166244D01*
X122391066Y-84166244D02*
X122438685Y-84142435D01*
X143813349Y-116670971D02*
X143575254Y-116504305D01*
X143813349Y-116385257D02*
X143313349Y-116385257D01*
X143313349Y-116385257D02*
X143313349Y-116575733D01*
X143313349Y-116575733D02*
X143337159Y-116623352D01*
X143337159Y-116623352D02*
X143360968Y-116647162D01*
X143360968Y-116647162D02*
X143408587Y-116670971D01*
X143408587Y-116670971D02*
X143480016Y-116670971D01*
X143480016Y-116670971D02*
X143527635Y-116647162D01*
X143527635Y-116647162D02*
X143551444Y-116623352D01*
X143551444Y-116623352D02*
X143575254Y-116575733D01*
X143575254Y-116575733D02*
X143575254Y-116385257D01*
X143360968Y-116861448D02*
X143337159Y-116885257D01*
X143337159Y-116885257D02*
X143313349Y-116932876D01*
X143313349Y-116932876D02*
X143313349Y-117051924D01*
X143313349Y-117051924D02*
X143337159Y-117099543D01*
X143337159Y-117099543D02*
X143360968Y-117123352D01*
X143360968Y-117123352D02*
X143408587Y-117147162D01*
X143408587Y-117147162D02*
X143456206Y-117147162D01*
X143456206Y-117147162D02*
X143527635Y-117123352D01*
X143527635Y-117123352D02*
X143813349Y-116837638D01*
X143813349Y-116837638D02*
X143813349Y-117147162D01*
X143527635Y-117432876D02*
X143503825Y-117385257D01*
X143503825Y-117385257D02*
X143480016Y-117361447D01*
X143480016Y-117361447D02*
X143432397Y-117337638D01*
X143432397Y-117337638D02*
X143408587Y-117337638D01*
X143408587Y-117337638D02*
X143360968Y-117361447D01*
X143360968Y-117361447D02*
X143337159Y-117385257D01*
X143337159Y-117385257D02*
X143313349Y-117432876D01*
X143313349Y-117432876D02*
X143313349Y-117528114D01*
X143313349Y-117528114D02*
X143337159Y-117575733D01*
X143337159Y-117575733D02*
X143360968Y-117599542D01*
X143360968Y-117599542D02*
X143408587Y-117623352D01*
X143408587Y-117623352D02*
X143432397Y-117623352D01*
X143432397Y-117623352D02*
X143480016Y-117599542D01*
X143480016Y-117599542D02*
X143503825Y-117575733D01*
X143503825Y-117575733D02*
X143527635Y-117528114D01*
X143527635Y-117528114D02*
X143527635Y-117432876D01*
X143527635Y-117432876D02*
X143551444Y-117385257D01*
X143551444Y-117385257D02*
X143575254Y-117361447D01*
X143575254Y-117361447D02*
X143622873Y-117337638D01*
X143622873Y-117337638D02*
X143718111Y-117337638D01*
X143718111Y-117337638D02*
X143765730Y-117361447D01*
X143765730Y-117361447D02*
X143789540Y-117385257D01*
X143789540Y-117385257D02*
X143813349Y-117432876D01*
X143813349Y-117432876D02*
X143813349Y-117528114D01*
X143813349Y-117528114D02*
X143789540Y-117575733D01*
X143789540Y-117575733D02*
X143765730Y-117599542D01*
X143765730Y-117599542D02*
X143718111Y-117623352D01*
X143718111Y-117623352D02*
X143622873Y-117623352D01*
X143622873Y-117623352D02*
X143575254Y-117599542D01*
X143575254Y-117599542D02*
X143551444Y-117575733D01*
X143551444Y-117575733D02*
X143527635Y-117528114D01*
X129670428Y-117625949D02*
X129837094Y-117387854D01*
X129956142Y-117625949D02*
X129956142Y-117125949D01*
X129956142Y-117125949D02*
X129765666Y-117125949D01*
X129765666Y-117125949D02*
X129718047Y-117149759D01*
X129718047Y-117149759D02*
X129694237Y-117173568D01*
X129694237Y-117173568D02*
X129670428Y-117221187D01*
X129670428Y-117221187D02*
X129670428Y-117292616D01*
X129670428Y-117292616D02*
X129694237Y-117340235D01*
X129694237Y-117340235D02*
X129718047Y-117364044D01*
X129718047Y-117364044D02*
X129765666Y-117387854D01*
X129765666Y-117387854D02*
X129956142Y-117387854D01*
X129194237Y-117625949D02*
X129479951Y-117625949D01*
X129337094Y-117625949D02*
X129337094Y-117125949D01*
X129337094Y-117125949D02*
X129384713Y-117197378D01*
X129384713Y-117197378D02*
X129432332Y-117244997D01*
X129432332Y-117244997D02*
X129479951Y-117268806D01*
X128908523Y-117340235D02*
X128956142Y-117316425D01*
X128956142Y-117316425D02*
X128979952Y-117292616D01*
X128979952Y-117292616D02*
X129003761Y-117244997D01*
X129003761Y-117244997D02*
X129003761Y-117221187D01*
X129003761Y-117221187D02*
X128979952Y-117173568D01*
X128979952Y-117173568D02*
X128956142Y-117149759D01*
X128956142Y-117149759D02*
X128908523Y-117125949D01*
X128908523Y-117125949D02*
X128813285Y-117125949D01*
X128813285Y-117125949D02*
X128765666Y-117149759D01*
X128765666Y-117149759D02*
X128741857Y-117173568D01*
X128741857Y-117173568D02*
X128718047Y-117221187D01*
X128718047Y-117221187D02*
X128718047Y-117244997D01*
X128718047Y-117244997D02*
X128741857Y-117292616D01*
X128741857Y-117292616D02*
X128765666Y-117316425D01*
X128765666Y-117316425D02*
X128813285Y-117340235D01*
X128813285Y-117340235D02*
X128908523Y-117340235D01*
X128908523Y-117340235D02*
X128956142Y-117364044D01*
X128956142Y-117364044D02*
X128979952Y-117387854D01*
X128979952Y-117387854D02*
X129003761Y-117435473D01*
X129003761Y-117435473D02*
X129003761Y-117530711D01*
X129003761Y-117530711D02*
X128979952Y-117578330D01*
X128979952Y-117578330D02*
X128956142Y-117602140D01*
X128956142Y-117602140D02*
X128908523Y-117625949D01*
X128908523Y-117625949D02*
X128813285Y-117625949D01*
X128813285Y-117625949D02*
X128765666Y-117602140D01*
X128765666Y-117602140D02*
X128741857Y-117578330D01*
X128741857Y-117578330D02*
X128718047Y-117530711D01*
X128718047Y-117530711D02*
X128718047Y-117435473D01*
X128718047Y-117435473D02*
X128741857Y-117387854D01*
X128741857Y-117387854D02*
X128765666Y-117364044D01*
X128765666Y-117364044D02*
X128813285Y-117340235D01*
X147971428Y-85229530D02*
X147995237Y-85253340D01*
X147995237Y-85253340D02*
X148066666Y-85277149D01*
X148066666Y-85277149D02*
X148114285Y-85277149D01*
X148114285Y-85277149D02*
X148185713Y-85253340D01*
X148185713Y-85253340D02*
X148233332Y-85205720D01*
X148233332Y-85205720D02*
X148257142Y-85158101D01*
X148257142Y-85158101D02*
X148280951Y-85062863D01*
X148280951Y-85062863D02*
X148280951Y-84991435D01*
X148280951Y-84991435D02*
X148257142Y-84896197D01*
X148257142Y-84896197D02*
X148233332Y-84848578D01*
X148233332Y-84848578D02*
X148185713Y-84800959D01*
X148185713Y-84800959D02*
X148114285Y-84777149D01*
X148114285Y-84777149D02*
X148066666Y-84777149D01*
X148066666Y-84777149D02*
X147995237Y-84800959D01*
X147995237Y-84800959D02*
X147971428Y-84824768D01*
X147495237Y-85277149D02*
X147780951Y-85277149D01*
X147638094Y-85277149D02*
X147638094Y-84777149D01*
X147638094Y-84777149D02*
X147685713Y-84848578D01*
X147685713Y-84848578D02*
X147733332Y-84896197D01*
X147733332Y-84896197D02*
X147780951Y-84920006D01*
X147066666Y-84777149D02*
X147161904Y-84777149D01*
X147161904Y-84777149D02*
X147209523Y-84800959D01*
X147209523Y-84800959D02*
X147233333Y-84824768D01*
X147233333Y-84824768D02*
X147280952Y-84896197D01*
X147280952Y-84896197D02*
X147304761Y-84991435D01*
X147304761Y-84991435D02*
X147304761Y-85181911D01*
X147304761Y-85181911D02*
X147280952Y-85229530D01*
X147280952Y-85229530D02*
X147257142Y-85253340D01*
X147257142Y-85253340D02*
X147209523Y-85277149D01*
X147209523Y-85277149D02*
X147114285Y-85277149D01*
X147114285Y-85277149D02*
X147066666Y-85253340D01*
X147066666Y-85253340D02*
X147042857Y-85229530D01*
X147042857Y-85229530D02*
X147019047Y-85181911D01*
X147019047Y-85181911D02*
X147019047Y-85062863D01*
X147019047Y-85062863D02*
X147042857Y-85015244D01*
X147042857Y-85015244D02*
X147066666Y-84991435D01*
X147066666Y-84991435D02*
X147114285Y-84967625D01*
X147114285Y-84967625D02*
X147209523Y-84967625D01*
X147209523Y-84967625D02*
X147257142Y-84991435D01*
X147257142Y-84991435D02*
X147280952Y-85015244D01*
X147280952Y-85015244D02*
X147304761Y-85062863D01*
X158309428Y-83872530D02*
X158333237Y-83896340D01*
X158333237Y-83896340D02*
X158404666Y-83920149D01*
X158404666Y-83920149D02*
X158452285Y-83920149D01*
X158452285Y-83920149D02*
X158523713Y-83896340D01*
X158523713Y-83896340D02*
X158571332Y-83848720D01*
X158571332Y-83848720D02*
X158595142Y-83801101D01*
X158595142Y-83801101D02*
X158618951Y-83705863D01*
X158618951Y-83705863D02*
X158618951Y-83634435D01*
X158618951Y-83634435D02*
X158595142Y-83539197D01*
X158595142Y-83539197D02*
X158571332Y-83491578D01*
X158571332Y-83491578D02*
X158523713Y-83443959D01*
X158523713Y-83443959D02*
X158452285Y-83420149D01*
X158452285Y-83420149D02*
X158404666Y-83420149D01*
X158404666Y-83420149D02*
X158333237Y-83443959D01*
X158333237Y-83443959D02*
X158309428Y-83467768D01*
X157833237Y-83920149D02*
X158118951Y-83920149D01*
X157976094Y-83920149D02*
X157976094Y-83420149D01*
X157976094Y-83420149D02*
X158023713Y-83491578D01*
X158023713Y-83491578D02*
X158071332Y-83539197D01*
X158071332Y-83539197D02*
X158118951Y-83563006D01*
X157523714Y-83420149D02*
X157476095Y-83420149D01*
X157476095Y-83420149D02*
X157428476Y-83443959D01*
X157428476Y-83443959D02*
X157404666Y-83467768D01*
X157404666Y-83467768D02*
X157380857Y-83515387D01*
X157380857Y-83515387D02*
X157357047Y-83610625D01*
X157357047Y-83610625D02*
X157357047Y-83729673D01*
X157357047Y-83729673D02*
X157380857Y-83824911D01*
X157380857Y-83824911D02*
X157404666Y-83872530D01*
X157404666Y-83872530D02*
X157428476Y-83896340D01*
X157428476Y-83896340D02*
X157476095Y-83920149D01*
X157476095Y-83920149D02*
X157523714Y-83920149D01*
X157523714Y-83920149D02*
X157571333Y-83896340D01*
X157571333Y-83896340D02*
X157595142Y-83872530D01*
X157595142Y-83872530D02*
X157618952Y-83824911D01*
X157618952Y-83824911D02*
X157642761Y-83729673D01*
X157642761Y-83729673D02*
X157642761Y-83610625D01*
X157642761Y-83610625D02*
X157618952Y-83515387D01*
X157618952Y-83515387D02*
X157595142Y-83467768D01*
X157595142Y-83467768D02*
X157571333Y-83443959D01*
X157571333Y-83443959D02*
X157523714Y-83420149D01*
X146053428Y-127709749D02*
X146220094Y-127471654D01*
X146339142Y-127709749D02*
X146339142Y-127209749D01*
X146339142Y-127209749D02*
X146148666Y-127209749D01*
X146148666Y-127209749D02*
X146101047Y-127233559D01*
X146101047Y-127233559D02*
X146077237Y-127257368D01*
X146077237Y-127257368D02*
X146053428Y-127304987D01*
X146053428Y-127304987D02*
X146053428Y-127376416D01*
X146053428Y-127376416D02*
X146077237Y-127424035D01*
X146077237Y-127424035D02*
X146101047Y-127447844D01*
X146101047Y-127447844D02*
X146148666Y-127471654D01*
X146148666Y-127471654D02*
X146339142Y-127471654D01*
X145886761Y-127209749D02*
X145577237Y-127209749D01*
X145577237Y-127209749D02*
X145743904Y-127400225D01*
X145743904Y-127400225D02*
X145672475Y-127400225D01*
X145672475Y-127400225D02*
X145624856Y-127424035D01*
X145624856Y-127424035D02*
X145601047Y-127447844D01*
X145601047Y-127447844D02*
X145577237Y-127495463D01*
X145577237Y-127495463D02*
X145577237Y-127614511D01*
X145577237Y-127614511D02*
X145601047Y-127662130D01*
X145601047Y-127662130D02*
X145624856Y-127685940D01*
X145624856Y-127685940D02*
X145672475Y-127709749D01*
X145672475Y-127709749D02*
X145815332Y-127709749D01*
X145815332Y-127709749D02*
X145862951Y-127685940D01*
X145862951Y-127685940D02*
X145886761Y-127662130D01*
X145101047Y-127709749D02*
X145386761Y-127709749D01*
X145243904Y-127709749D02*
X145243904Y-127209749D01*
X145243904Y-127209749D02*
X145291523Y-127281178D01*
X145291523Y-127281178D02*
X145339142Y-127328797D01*
X145339142Y-127328797D02*
X145386761Y-127352606D01*
X107841850Y-82589666D02*
X107484707Y-82589666D01*
X107484707Y-82589666D02*
X107413279Y-82613475D01*
X107413279Y-82613475D02*
X107365660Y-82661094D01*
X107365660Y-82661094D02*
X107341850Y-82732523D01*
X107341850Y-82732523D02*
X107341850Y-82780142D01*
X107627564Y-82280142D02*
X107651374Y-82327761D01*
X107651374Y-82327761D02*
X107675183Y-82351571D01*
X107675183Y-82351571D02*
X107722802Y-82375380D01*
X107722802Y-82375380D02*
X107746612Y-82375380D01*
X107746612Y-82375380D02*
X107794231Y-82351571D01*
X107794231Y-82351571D02*
X107818040Y-82327761D01*
X107818040Y-82327761D02*
X107841850Y-82280142D01*
X107841850Y-82280142D02*
X107841850Y-82184904D01*
X107841850Y-82184904D02*
X107818040Y-82137285D01*
X107818040Y-82137285D02*
X107794231Y-82113476D01*
X107794231Y-82113476D02*
X107746612Y-82089666D01*
X107746612Y-82089666D02*
X107722802Y-82089666D01*
X107722802Y-82089666D02*
X107675183Y-82113476D01*
X107675183Y-82113476D02*
X107651374Y-82137285D01*
X107651374Y-82137285D02*
X107627564Y-82184904D01*
X107627564Y-82184904D02*
X107627564Y-82280142D01*
X107627564Y-82280142D02*
X107603755Y-82327761D01*
X107603755Y-82327761D02*
X107579945Y-82351571D01*
X107579945Y-82351571D02*
X107532326Y-82375380D01*
X107532326Y-82375380D02*
X107437088Y-82375380D01*
X107437088Y-82375380D02*
X107389469Y-82351571D01*
X107389469Y-82351571D02*
X107365660Y-82327761D01*
X107365660Y-82327761D02*
X107341850Y-82280142D01*
X107341850Y-82280142D02*
X107341850Y-82184904D01*
X107341850Y-82184904D02*
X107365660Y-82137285D01*
X107365660Y-82137285D02*
X107389469Y-82113476D01*
X107389469Y-82113476D02*
X107437088Y-82089666D01*
X107437088Y-82089666D02*
X107532326Y-82089666D01*
X107532326Y-82089666D02*
X107579945Y-82113476D01*
X107579945Y-82113476D02*
X107603755Y-82137285D01*
X107603755Y-82137285D02*
X107627564Y-82184904D01*
X140783428Y-74093530D02*
X140807237Y-74117340D01*
X140807237Y-74117340D02*
X140878666Y-74141149D01*
X140878666Y-74141149D02*
X140926285Y-74141149D01*
X140926285Y-74141149D02*
X140997713Y-74117340D01*
X140997713Y-74117340D02*
X141045332Y-74069720D01*
X141045332Y-74069720D02*
X141069142Y-74022101D01*
X141069142Y-74022101D02*
X141092951Y-73926863D01*
X141092951Y-73926863D02*
X141092951Y-73855435D01*
X141092951Y-73855435D02*
X141069142Y-73760197D01*
X141069142Y-73760197D02*
X141045332Y-73712578D01*
X141045332Y-73712578D02*
X140997713Y-73664959D01*
X140997713Y-73664959D02*
X140926285Y-73641149D01*
X140926285Y-73641149D02*
X140878666Y-73641149D01*
X140878666Y-73641149D02*
X140807237Y-73664959D01*
X140807237Y-73664959D02*
X140783428Y-73688768D01*
X140592951Y-73688768D02*
X140569142Y-73664959D01*
X140569142Y-73664959D02*
X140521523Y-73641149D01*
X140521523Y-73641149D02*
X140402475Y-73641149D01*
X140402475Y-73641149D02*
X140354856Y-73664959D01*
X140354856Y-73664959D02*
X140331047Y-73688768D01*
X140331047Y-73688768D02*
X140307237Y-73736387D01*
X140307237Y-73736387D02*
X140307237Y-73784006D01*
X140307237Y-73784006D02*
X140331047Y-73855435D01*
X140331047Y-73855435D02*
X140616761Y-74141149D01*
X140616761Y-74141149D02*
X140307237Y-74141149D01*
X140140571Y-73641149D02*
X139807238Y-73641149D01*
X139807238Y-73641149D02*
X140021523Y-74141149D01*
X145625333Y-106605530D02*
X145649142Y-106629340D01*
X145649142Y-106629340D02*
X145720571Y-106653149D01*
X145720571Y-106653149D02*
X145768190Y-106653149D01*
X145768190Y-106653149D02*
X145839618Y-106629340D01*
X145839618Y-106629340D02*
X145887237Y-106581720D01*
X145887237Y-106581720D02*
X145911047Y-106534101D01*
X145911047Y-106534101D02*
X145934856Y-106438863D01*
X145934856Y-106438863D02*
X145934856Y-106367435D01*
X145934856Y-106367435D02*
X145911047Y-106272197D01*
X145911047Y-106272197D02*
X145887237Y-106224578D01*
X145887237Y-106224578D02*
X145839618Y-106176959D01*
X145839618Y-106176959D02*
X145768190Y-106153149D01*
X145768190Y-106153149D02*
X145720571Y-106153149D01*
X145720571Y-106153149D02*
X145649142Y-106176959D01*
X145649142Y-106176959D02*
X145625333Y-106200768D01*
X145196761Y-106153149D02*
X145291999Y-106153149D01*
X145291999Y-106153149D02*
X145339618Y-106176959D01*
X145339618Y-106176959D02*
X145363428Y-106200768D01*
X145363428Y-106200768D02*
X145411047Y-106272197D01*
X145411047Y-106272197D02*
X145434856Y-106367435D01*
X145434856Y-106367435D02*
X145434856Y-106557911D01*
X145434856Y-106557911D02*
X145411047Y-106605530D01*
X145411047Y-106605530D02*
X145387237Y-106629340D01*
X145387237Y-106629340D02*
X145339618Y-106653149D01*
X145339618Y-106653149D02*
X145244380Y-106653149D01*
X145244380Y-106653149D02*
X145196761Y-106629340D01*
X145196761Y-106629340D02*
X145172952Y-106605530D01*
X145172952Y-106605530D02*
X145149142Y-106557911D01*
X145149142Y-106557911D02*
X145149142Y-106438863D01*
X145149142Y-106438863D02*
X145172952Y-106391244D01*
X145172952Y-106391244D02*
X145196761Y-106367435D01*
X145196761Y-106367435D02*
X145244380Y-106343625D01*
X145244380Y-106343625D02*
X145339618Y-106343625D01*
X145339618Y-106343625D02*
X145387237Y-106367435D01*
X145387237Y-106367435D02*
X145411047Y-106391244D01*
X145411047Y-106391244D02*
X145434856Y-106438863D01*
X141647028Y-100125349D02*
X141813694Y-99887254D01*
X141932742Y-100125349D02*
X141932742Y-99625349D01*
X141932742Y-99625349D02*
X141742266Y-99625349D01*
X141742266Y-99625349D02*
X141694647Y-99649159D01*
X141694647Y-99649159D02*
X141670837Y-99672968D01*
X141670837Y-99672968D02*
X141647028Y-99720587D01*
X141647028Y-99720587D02*
X141647028Y-99792016D01*
X141647028Y-99792016D02*
X141670837Y-99839635D01*
X141670837Y-99839635D02*
X141694647Y-99863444D01*
X141694647Y-99863444D02*
X141742266Y-99887254D01*
X141742266Y-99887254D02*
X141932742Y-99887254D01*
X141170837Y-100125349D02*
X141456551Y-100125349D01*
X141313694Y-100125349D02*
X141313694Y-99625349D01*
X141313694Y-99625349D02*
X141361313Y-99696778D01*
X141361313Y-99696778D02*
X141408932Y-99744397D01*
X141408932Y-99744397D02*
X141456551Y-99768206D01*
X140742266Y-99625349D02*
X140837504Y-99625349D01*
X140837504Y-99625349D02*
X140885123Y-99649159D01*
X140885123Y-99649159D02*
X140908933Y-99672968D01*
X140908933Y-99672968D02*
X140956552Y-99744397D01*
X140956552Y-99744397D02*
X140980361Y-99839635D01*
X140980361Y-99839635D02*
X140980361Y-100030111D01*
X140980361Y-100030111D02*
X140956552Y-100077730D01*
X140956552Y-100077730D02*
X140932742Y-100101540D01*
X140932742Y-100101540D02*
X140885123Y-100125349D01*
X140885123Y-100125349D02*
X140789885Y-100125349D01*
X140789885Y-100125349D02*
X140742266Y-100101540D01*
X140742266Y-100101540D02*
X140718457Y-100077730D01*
X140718457Y-100077730D02*
X140694647Y-100030111D01*
X140694647Y-100030111D02*
X140694647Y-99911063D01*
X140694647Y-99911063D02*
X140718457Y-99863444D01*
X140718457Y-99863444D02*
X140742266Y-99839635D01*
X140742266Y-99839635D02*
X140789885Y-99815825D01*
X140789885Y-99815825D02*
X140885123Y-99815825D01*
X140885123Y-99815825D02*
X140932742Y-99839635D01*
X140932742Y-99839635D02*
X140956552Y-99863444D01*
X140956552Y-99863444D02*
X140980361Y-99911063D01*
X137921952Y-116875149D02*
X137921952Y-117279911D01*
X137921952Y-117279911D02*
X137898142Y-117327530D01*
X137898142Y-117327530D02*
X137874333Y-117351340D01*
X137874333Y-117351340D02*
X137826714Y-117375149D01*
X137826714Y-117375149D02*
X137731476Y-117375149D01*
X137731476Y-117375149D02*
X137683857Y-117351340D01*
X137683857Y-117351340D02*
X137660047Y-117327530D01*
X137660047Y-117327530D02*
X137636238Y-117279911D01*
X137636238Y-117279911D02*
X137636238Y-116875149D01*
X137445761Y-116875149D02*
X137136237Y-116875149D01*
X137136237Y-116875149D02*
X137302904Y-117065625D01*
X137302904Y-117065625D02*
X137231475Y-117065625D01*
X137231475Y-117065625D02*
X137183856Y-117089435D01*
X137183856Y-117089435D02*
X137160047Y-117113244D01*
X137160047Y-117113244D02*
X137136237Y-117160863D01*
X137136237Y-117160863D02*
X137136237Y-117279911D01*
X137136237Y-117279911D02*
X137160047Y-117327530D01*
X137160047Y-117327530D02*
X137183856Y-117351340D01*
X137183856Y-117351340D02*
X137231475Y-117375149D01*
X137231475Y-117375149D02*
X137374332Y-117375149D01*
X137374332Y-117375149D02*
X137421951Y-117351340D01*
X137421951Y-117351340D02*
X137445761Y-117327530D01*
X129420133Y-101362349D02*
X129586799Y-101124254D01*
X129705847Y-101362349D02*
X129705847Y-100862349D01*
X129705847Y-100862349D02*
X129515371Y-100862349D01*
X129515371Y-100862349D02*
X129467752Y-100886159D01*
X129467752Y-100886159D02*
X129443942Y-100909968D01*
X129443942Y-100909968D02*
X129420133Y-100957587D01*
X129420133Y-100957587D02*
X129420133Y-101029016D01*
X129420133Y-101029016D02*
X129443942Y-101076635D01*
X129443942Y-101076635D02*
X129467752Y-101100444D01*
X129467752Y-101100444D02*
X129515371Y-101124254D01*
X129515371Y-101124254D02*
X129705847Y-101124254D01*
X129253466Y-100862349D02*
X128943942Y-100862349D01*
X128943942Y-100862349D02*
X129110609Y-101052825D01*
X129110609Y-101052825D02*
X129039180Y-101052825D01*
X129039180Y-101052825D02*
X128991561Y-101076635D01*
X128991561Y-101076635D02*
X128967752Y-101100444D01*
X128967752Y-101100444D02*
X128943942Y-101148063D01*
X128943942Y-101148063D02*
X128943942Y-101267111D01*
X128943942Y-101267111D02*
X128967752Y-101314730D01*
X128967752Y-101314730D02*
X128991561Y-101338540D01*
X128991561Y-101338540D02*
X129039180Y-101362349D01*
X129039180Y-101362349D02*
X129182037Y-101362349D01*
X129182037Y-101362349D02*
X129229656Y-101338540D01*
X129229656Y-101338540D02*
X129253466Y-101314730D01*
X144451530Y-86038571D02*
X144475340Y-86014762D01*
X144475340Y-86014762D02*
X144499149Y-85943333D01*
X144499149Y-85943333D02*
X144499149Y-85895714D01*
X144499149Y-85895714D02*
X144475340Y-85824286D01*
X144475340Y-85824286D02*
X144427720Y-85776667D01*
X144427720Y-85776667D02*
X144380101Y-85752857D01*
X144380101Y-85752857D02*
X144284863Y-85729048D01*
X144284863Y-85729048D02*
X144213435Y-85729048D01*
X144213435Y-85729048D02*
X144118197Y-85752857D01*
X144118197Y-85752857D02*
X144070578Y-85776667D01*
X144070578Y-85776667D02*
X144022959Y-85824286D01*
X144022959Y-85824286D02*
X143999149Y-85895714D01*
X143999149Y-85895714D02*
X143999149Y-85943333D01*
X143999149Y-85943333D02*
X144022959Y-86014762D01*
X144022959Y-86014762D02*
X144046768Y-86038571D01*
X144499149Y-86514762D02*
X144499149Y-86229048D01*
X144499149Y-86371905D02*
X143999149Y-86371905D01*
X143999149Y-86371905D02*
X144070578Y-86324286D01*
X144070578Y-86324286D02*
X144118197Y-86276667D01*
X144118197Y-86276667D02*
X144142006Y-86229048D01*
X144165816Y-86943333D02*
X144499149Y-86943333D01*
X143975340Y-86824285D02*
X144332482Y-86705238D01*
X144332482Y-86705238D02*
X144332482Y-87014761D01*
X140720428Y-86935149D02*
X140887094Y-86697054D01*
X141006142Y-86935149D02*
X141006142Y-86435149D01*
X141006142Y-86435149D02*
X140815666Y-86435149D01*
X140815666Y-86435149D02*
X140768047Y-86458959D01*
X140768047Y-86458959D02*
X140744237Y-86482768D01*
X140744237Y-86482768D02*
X140720428Y-86530387D01*
X140720428Y-86530387D02*
X140720428Y-86601816D01*
X140720428Y-86601816D02*
X140744237Y-86649435D01*
X140744237Y-86649435D02*
X140768047Y-86673244D01*
X140768047Y-86673244D02*
X140815666Y-86697054D01*
X140815666Y-86697054D02*
X141006142Y-86697054D01*
X140529951Y-86482768D02*
X140506142Y-86458959D01*
X140506142Y-86458959D02*
X140458523Y-86435149D01*
X140458523Y-86435149D02*
X140339475Y-86435149D01*
X140339475Y-86435149D02*
X140291856Y-86458959D01*
X140291856Y-86458959D02*
X140268047Y-86482768D01*
X140268047Y-86482768D02*
X140244237Y-86530387D01*
X140244237Y-86530387D02*
X140244237Y-86578006D01*
X140244237Y-86578006D02*
X140268047Y-86649435D01*
X140268047Y-86649435D02*
X140553761Y-86935149D01*
X140553761Y-86935149D02*
X140244237Y-86935149D01*
X139791857Y-86435149D02*
X140029952Y-86435149D01*
X140029952Y-86435149D02*
X140053761Y-86673244D01*
X140053761Y-86673244D02*
X140029952Y-86649435D01*
X140029952Y-86649435D02*
X139982333Y-86625625D01*
X139982333Y-86625625D02*
X139863285Y-86625625D01*
X139863285Y-86625625D02*
X139815666Y-86649435D01*
X139815666Y-86649435D02*
X139791857Y-86673244D01*
X139791857Y-86673244D02*
X139768047Y-86720863D01*
X139768047Y-86720863D02*
X139768047Y-86839911D01*
X139768047Y-86839911D02*
X139791857Y-86887530D01*
X139791857Y-86887530D02*
X139815666Y-86911340D01*
X139815666Y-86911340D02*
X139863285Y-86935149D01*
X139863285Y-86935149D02*
X139982333Y-86935149D01*
X139982333Y-86935149D02*
X140029952Y-86911340D01*
X140029952Y-86911340D02*
X140053761Y-86887530D01*
X132157930Y-111384866D02*
X132181740Y-111361057D01*
X132181740Y-111361057D02*
X132205549Y-111289628D01*
X132205549Y-111289628D02*
X132205549Y-111242009D01*
X132205549Y-111242009D02*
X132181740Y-111170581D01*
X132181740Y-111170581D02*
X132134120Y-111122962D01*
X132134120Y-111122962D02*
X132086501Y-111099152D01*
X132086501Y-111099152D02*
X131991263Y-111075343D01*
X131991263Y-111075343D02*
X131919835Y-111075343D01*
X131919835Y-111075343D02*
X131824597Y-111099152D01*
X131824597Y-111099152D02*
X131776978Y-111122962D01*
X131776978Y-111122962D02*
X131729359Y-111170581D01*
X131729359Y-111170581D02*
X131705549Y-111242009D01*
X131705549Y-111242009D02*
X131705549Y-111289628D01*
X131705549Y-111289628D02*
X131729359Y-111361057D01*
X131729359Y-111361057D02*
X131753168Y-111384866D01*
X131705549Y-111551533D02*
X131705549Y-111861057D01*
X131705549Y-111861057D02*
X131896025Y-111694390D01*
X131896025Y-111694390D02*
X131896025Y-111765819D01*
X131896025Y-111765819D02*
X131919835Y-111813438D01*
X131919835Y-111813438D02*
X131943644Y-111837247D01*
X131943644Y-111837247D02*
X131991263Y-111861057D01*
X131991263Y-111861057D02*
X132110311Y-111861057D01*
X132110311Y-111861057D02*
X132157930Y-111837247D01*
X132157930Y-111837247D02*
X132181740Y-111813438D01*
X132181740Y-111813438D02*
X132205549Y-111765819D01*
X132205549Y-111765819D02*
X132205549Y-111622962D01*
X132205549Y-111622962D02*
X132181740Y-111575343D01*
X132181740Y-111575343D02*
X132157930Y-111551533D01*
X129470933Y-111682349D02*
X129637599Y-111444254D01*
X129756647Y-111682349D02*
X129756647Y-111182349D01*
X129756647Y-111182349D02*
X129566171Y-111182349D01*
X129566171Y-111182349D02*
X129518552Y-111206159D01*
X129518552Y-111206159D02*
X129494742Y-111229968D01*
X129494742Y-111229968D02*
X129470933Y-111277587D01*
X129470933Y-111277587D02*
X129470933Y-111349016D01*
X129470933Y-111349016D02*
X129494742Y-111396635D01*
X129494742Y-111396635D02*
X129518552Y-111420444D01*
X129518552Y-111420444D02*
X129566171Y-111444254D01*
X129566171Y-111444254D02*
X129756647Y-111444254D01*
X129018552Y-111182349D02*
X129256647Y-111182349D01*
X129256647Y-111182349D02*
X129280456Y-111420444D01*
X129280456Y-111420444D02*
X129256647Y-111396635D01*
X129256647Y-111396635D02*
X129209028Y-111372825D01*
X129209028Y-111372825D02*
X129089980Y-111372825D01*
X129089980Y-111372825D02*
X129042361Y-111396635D01*
X129042361Y-111396635D02*
X129018552Y-111420444D01*
X129018552Y-111420444D02*
X128994742Y-111468063D01*
X128994742Y-111468063D02*
X128994742Y-111587111D01*
X128994742Y-111587111D02*
X129018552Y-111634730D01*
X129018552Y-111634730D02*
X129042361Y-111658540D01*
X129042361Y-111658540D02*
X129089980Y-111682349D01*
X129089980Y-111682349D02*
X129209028Y-111682349D01*
X129209028Y-111682349D02*
X129256647Y-111658540D01*
X129256647Y-111658540D02*
X129280456Y-111634730D01*
X123145165Y-79848244D02*
X123311832Y-79848244D01*
X123311832Y-80110149D02*
X123311832Y-79610149D01*
X123311832Y-79610149D02*
X123073737Y-79610149D01*
X122716594Y-79848244D02*
X122645166Y-79872054D01*
X122645166Y-79872054D02*
X122621356Y-79895863D01*
X122621356Y-79895863D02*
X122597547Y-79943482D01*
X122597547Y-79943482D02*
X122597547Y-80014911D01*
X122597547Y-80014911D02*
X122621356Y-80062530D01*
X122621356Y-80062530D02*
X122645166Y-80086340D01*
X122645166Y-80086340D02*
X122692785Y-80110149D01*
X122692785Y-80110149D02*
X122883261Y-80110149D01*
X122883261Y-80110149D02*
X122883261Y-79610149D01*
X122883261Y-79610149D02*
X122716594Y-79610149D01*
X122716594Y-79610149D02*
X122668975Y-79633959D01*
X122668975Y-79633959D02*
X122645166Y-79657768D01*
X122645166Y-79657768D02*
X122621356Y-79705387D01*
X122621356Y-79705387D02*
X122621356Y-79753006D01*
X122621356Y-79753006D02*
X122645166Y-79800625D01*
X122645166Y-79800625D02*
X122668975Y-79824435D01*
X122668975Y-79824435D02*
X122716594Y-79848244D01*
X122716594Y-79848244D02*
X122883261Y-79848244D01*
X122407070Y-79657768D02*
X122383261Y-79633959D01*
X122383261Y-79633959D02*
X122335642Y-79610149D01*
X122335642Y-79610149D02*
X122216594Y-79610149D01*
X122216594Y-79610149D02*
X122168975Y-79633959D01*
X122168975Y-79633959D02*
X122145166Y-79657768D01*
X122145166Y-79657768D02*
X122121356Y-79705387D01*
X122121356Y-79705387D02*
X122121356Y-79753006D01*
X122121356Y-79753006D02*
X122145166Y-79824435D01*
X122145166Y-79824435D02*
X122430880Y-80110149D01*
X122430880Y-80110149D02*
X122121356Y-80110149D01*
X147222828Y-123848949D02*
X147389494Y-123610854D01*
X147508542Y-123848949D02*
X147508542Y-123348949D01*
X147508542Y-123348949D02*
X147318066Y-123348949D01*
X147318066Y-123348949D02*
X147270447Y-123372759D01*
X147270447Y-123372759D02*
X147246637Y-123396568D01*
X147246637Y-123396568D02*
X147222828Y-123444187D01*
X147222828Y-123444187D02*
X147222828Y-123515616D01*
X147222828Y-123515616D02*
X147246637Y-123563235D01*
X147246637Y-123563235D02*
X147270447Y-123587044D01*
X147270447Y-123587044D02*
X147318066Y-123610854D01*
X147318066Y-123610854D02*
X147508542Y-123610854D01*
X147032351Y-123396568D02*
X147008542Y-123372759D01*
X147008542Y-123372759D02*
X146960923Y-123348949D01*
X146960923Y-123348949D02*
X146841875Y-123348949D01*
X146841875Y-123348949D02*
X146794256Y-123372759D01*
X146794256Y-123372759D02*
X146770447Y-123396568D01*
X146770447Y-123396568D02*
X146746637Y-123444187D01*
X146746637Y-123444187D02*
X146746637Y-123491806D01*
X146746637Y-123491806D02*
X146770447Y-123563235D01*
X146770447Y-123563235D02*
X147056161Y-123848949D01*
X147056161Y-123848949D02*
X146746637Y-123848949D01*
X146579971Y-123348949D02*
X146246638Y-123348949D01*
X146246638Y-123348949D02*
X146460923Y-123848949D01*
X145990428Y-122607530D02*
X146014237Y-122631340D01*
X146014237Y-122631340D02*
X146085666Y-122655149D01*
X146085666Y-122655149D02*
X146133285Y-122655149D01*
X146133285Y-122655149D02*
X146204713Y-122631340D01*
X146204713Y-122631340D02*
X146252332Y-122583720D01*
X146252332Y-122583720D02*
X146276142Y-122536101D01*
X146276142Y-122536101D02*
X146299951Y-122440863D01*
X146299951Y-122440863D02*
X146299951Y-122369435D01*
X146299951Y-122369435D02*
X146276142Y-122274197D01*
X146276142Y-122274197D02*
X146252332Y-122226578D01*
X146252332Y-122226578D02*
X146204713Y-122178959D01*
X146204713Y-122178959D02*
X146133285Y-122155149D01*
X146133285Y-122155149D02*
X146085666Y-122155149D01*
X146085666Y-122155149D02*
X146014237Y-122178959D01*
X146014237Y-122178959D02*
X145990428Y-122202768D01*
X145799951Y-122202768D02*
X145776142Y-122178959D01*
X145776142Y-122178959D02*
X145728523Y-122155149D01*
X145728523Y-122155149D02*
X145609475Y-122155149D01*
X145609475Y-122155149D02*
X145561856Y-122178959D01*
X145561856Y-122178959D02*
X145538047Y-122202768D01*
X145538047Y-122202768D02*
X145514237Y-122250387D01*
X145514237Y-122250387D02*
X145514237Y-122298006D01*
X145514237Y-122298006D02*
X145538047Y-122369435D01*
X145538047Y-122369435D02*
X145823761Y-122655149D01*
X145823761Y-122655149D02*
X145514237Y-122655149D01*
X145038047Y-122655149D02*
X145323761Y-122655149D01*
X145180904Y-122655149D02*
X145180904Y-122155149D01*
X145180904Y-122155149D02*
X145228523Y-122226578D01*
X145228523Y-122226578D02*
X145276142Y-122274197D01*
X145276142Y-122274197D02*
X145323761Y-122298006D01*
X144219749Y-111489371D02*
X143981654Y-111322705D01*
X144219749Y-111203657D02*
X143719749Y-111203657D01*
X143719749Y-111203657D02*
X143719749Y-111394133D01*
X143719749Y-111394133D02*
X143743559Y-111441752D01*
X143743559Y-111441752D02*
X143767368Y-111465562D01*
X143767368Y-111465562D02*
X143814987Y-111489371D01*
X143814987Y-111489371D02*
X143886416Y-111489371D01*
X143886416Y-111489371D02*
X143934035Y-111465562D01*
X143934035Y-111465562D02*
X143957844Y-111441752D01*
X143957844Y-111441752D02*
X143981654Y-111394133D01*
X143981654Y-111394133D02*
X143981654Y-111203657D01*
X144219749Y-111965562D02*
X144219749Y-111679848D01*
X144219749Y-111822705D02*
X143719749Y-111822705D01*
X143719749Y-111822705D02*
X143791178Y-111775086D01*
X143791178Y-111775086D02*
X143838797Y-111727467D01*
X143838797Y-111727467D02*
X143862606Y-111679848D01*
X143719749Y-112132228D02*
X143719749Y-112441752D01*
X143719749Y-112441752D02*
X143910225Y-112275085D01*
X143910225Y-112275085D02*
X143910225Y-112346514D01*
X143910225Y-112346514D02*
X143934035Y-112394133D01*
X143934035Y-112394133D02*
X143957844Y-112417942D01*
X143957844Y-112417942D02*
X144005463Y-112441752D01*
X144005463Y-112441752D02*
X144124511Y-112441752D01*
X144124511Y-112441752D02*
X144172130Y-112417942D01*
X144172130Y-112417942D02*
X144195940Y-112394133D01*
X144195940Y-112394133D02*
X144219749Y-112346514D01*
X144219749Y-112346514D02*
X144219749Y-112203657D01*
X144219749Y-112203657D02*
X144195940Y-112156038D01*
X144195940Y-112156038D02*
X144172130Y-112132228D01*
X132234130Y-101173466D02*
X132257940Y-101149657D01*
X132257940Y-101149657D02*
X132281749Y-101078228D01*
X132281749Y-101078228D02*
X132281749Y-101030609D01*
X132281749Y-101030609D02*
X132257940Y-100959181D01*
X132257940Y-100959181D02*
X132210320Y-100911562D01*
X132210320Y-100911562D02*
X132162701Y-100887752D01*
X132162701Y-100887752D02*
X132067463Y-100863943D01*
X132067463Y-100863943D02*
X131996035Y-100863943D01*
X131996035Y-100863943D02*
X131900797Y-100887752D01*
X131900797Y-100887752D02*
X131853178Y-100911562D01*
X131853178Y-100911562D02*
X131805559Y-100959181D01*
X131805559Y-100959181D02*
X131781749Y-101030609D01*
X131781749Y-101030609D02*
X131781749Y-101078228D01*
X131781749Y-101078228D02*
X131805559Y-101149657D01*
X131805559Y-101149657D02*
X131829368Y-101173466D01*
X131829368Y-101363943D02*
X131805559Y-101387752D01*
X131805559Y-101387752D02*
X131781749Y-101435371D01*
X131781749Y-101435371D02*
X131781749Y-101554419D01*
X131781749Y-101554419D02*
X131805559Y-101602038D01*
X131805559Y-101602038D02*
X131829368Y-101625847D01*
X131829368Y-101625847D02*
X131876987Y-101649657D01*
X131876987Y-101649657D02*
X131924606Y-101649657D01*
X131924606Y-101649657D02*
X131996035Y-101625847D01*
X131996035Y-101625847D02*
X132281749Y-101340133D01*
X132281749Y-101340133D02*
X132281749Y-101649657D01*
X141697828Y-113180949D02*
X141864494Y-112942854D01*
X141983542Y-113180949D02*
X141983542Y-112680949D01*
X141983542Y-112680949D02*
X141793066Y-112680949D01*
X141793066Y-112680949D02*
X141745447Y-112704759D01*
X141745447Y-112704759D02*
X141721637Y-112728568D01*
X141721637Y-112728568D02*
X141697828Y-112776187D01*
X141697828Y-112776187D02*
X141697828Y-112847616D01*
X141697828Y-112847616D02*
X141721637Y-112895235D01*
X141721637Y-112895235D02*
X141745447Y-112919044D01*
X141745447Y-112919044D02*
X141793066Y-112942854D01*
X141793066Y-112942854D02*
X141983542Y-112942854D01*
X141221637Y-113180949D02*
X141507351Y-113180949D01*
X141364494Y-113180949D02*
X141364494Y-112680949D01*
X141364494Y-112680949D02*
X141412113Y-112752378D01*
X141412113Y-112752378D02*
X141459732Y-112799997D01*
X141459732Y-112799997D02*
X141507351Y-112823806D01*
X141054971Y-112680949D02*
X140721638Y-112680949D01*
X140721638Y-112680949D02*
X140935923Y-113180949D01*
X129505828Y-127608149D02*
X129672494Y-127370054D01*
X129791542Y-127608149D02*
X129791542Y-127108149D01*
X129791542Y-127108149D02*
X129601066Y-127108149D01*
X129601066Y-127108149D02*
X129553447Y-127131959D01*
X129553447Y-127131959D02*
X129529637Y-127155768D01*
X129529637Y-127155768D02*
X129505828Y-127203387D01*
X129505828Y-127203387D02*
X129505828Y-127274816D01*
X129505828Y-127274816D02*
X129529637Y-127322435D01*
X129529637Y-127322435D02*
X129553447Y-127346244D01*
X129553447Y-127346244D02*
X129601066Y-127370054D01*
X129601066Y-127370054D02*
X129791542Y-127370054D01*
X129315351Y-127155768D02*
X129291542Y-127131959D01*
X129291542Y-127131959D02*
X129243923Y-127108149D01*
X129243923Y-127108149D02*
X129124875Y-127108149D01*
X129124875Y-127108149D02*
X129077256Y-127131959D01*
X129077256Y-127131959D02*
X129053447Y-127155768D01*
X129053447Y-127155768D02*
X129029637Y-127203387D01*
X129029637Y-127203387D02*
X129029637Y-127251006D01*
X129029637Y-127251006D02*
X129053447Y-127322435D01*
X129053447Y-127322435D02*
X129339161Y-127608149D01*
X129339161Y-127608149D02*
X129029637Y-127608149D01*
X128553447Y-127608149D02*
X128839161Y-127608149D01*
X128696304Y-127608149D02*
X128696304Y-127108149D01*
X128696304Y-127108149D02*
X128743923Y-127179578D01*
X128743923Y-127179578D02*
X128791542Y-127227197D01*
X128791542Y-127227197D02*
X128839161Y-127251006D01*
X128757028Y-121435949D02*
X128923694Y-121197854D01*
X129042742Y-121435949D02*
X129042742Y-120935949D01*
X129042742Y-120935949D02*
X128852266Y-120935949D01*
X128852266Y-120935949D02*
X128804647Y-120959759D01*
X128804647Y-120959759D02*
X128780837Y-120983568D01*
X128780837Y-120983568D02*
X128757028Y-121031187D01*
X128757028Y-121031187D02*
X128757028Y-121102616D01*
X128757028Y-121102616D02*
X128780837Y-121150235D01*
X128780837Y-121150235D02*
X128804647Y-121174044D01*
X128804647Y-121174044D02*
X128852266Y-121197854D01*
X128852266Y-121197854D02*
X129042742Y-121197854D01*
X128566551Y-120983568D02*
X128542742Y-120959759D01*
X128542742Y-120959759D02*
X128495123Y-120935949D01*
X128495123Y-120935949D02*
X128376075Y-120935949D01*
X128376075Y-120935949D02*
X128328456Y-120959759D01*
X128328456Y-120959759D02*
X128304647Y-120983568D01*
X128304647Y-120983568D02*
X128280837Y-121031187D01*
X128280837Y-121031187D02*
X128280837Y-121078806D01*
X128280837Y-121078806D02*
X128304647Y-121150235D01*
X128304647Y-121150235D02*
X128590361Y-121435949D01*
X128590361Y-121435949D02*
X128280837Y-121435949D01*
X127971314Y-120935949D02*
X127923695Y-120935949D01*
X127923695Y-120935949D02*
X127876076Y-120959759D01*
X127876076Y-120959759D02*
X127852266Y-120983568D01*
X127852266Y-120983568D02*
X127828457Y-121031187D01*
X127828457Y-121031187D02*
X127804647Y-121126425D01*
X127804647Y-121126425D02*
X127804647Y-121245473D01*
X127804647Y-121245473D02*
X127828457Y-121340711D01*
X127828457Y-121340711D02*
X127852266Y-121388330D01*
X127852266Y-121388330D02*
X127876076Y-121412140D01*
X127876076Y-121412140D02*
X127923695Y-121435949D01*
X127923695Y-121435949D02*
X127971314Y-121435949D01*
X127971314Y-121435949D02*
X128018933Y-121412140D01*
X128018933Y-121412140D02*
X128042742Y-121388330D01*
X128042742Y-121388330D02*
X128066552Y-121340711D01*
X128066552Y-121340711D02*
X128090361Y-121245473D01*
X128090361Y-121245473D02*
X128090361Y-121126425D01*
X128090361Y-121126425D02*
X128066552Y-121031187D01*
X128066552Y-121031187D02*
X128042742Y-120983568D01*
X128042742Y-120983568D02*
X128018933Y-120959759D01*
X128018933Y-120959759D02*
X127971314Y-120935949D01*
X118996652Y-98738549D02*
X118996652Y-99143311D01*
X118996652Y-99143311D02*
X118972842Y-99190930D01*
X118972842Y-99190930D02*
X118949033Y-99214740D01*
X118949033Y-99214740D02*
X118901414Y-99238549D01*
X118901414Y-99238549D02*
X118806176Y-99238549D01*
X118806176Y-99238549D02*
X118758557Y-99214740D01*
X118758557Y-99214740D02*
X118734747Y-99190930D01*
X118734747Y-99190930D02*
X118710938Y-99143311D01*
X118710938Y-99143311D02*
X118710938Y-98738549D01*
X118210937Y-99238549D02*
X118496651Y-99238549D01*
X118353794Y-99238549D02*
X118353794Y-98738549D01*
X118353794Y-98738549D02*
X118401413Y-98809978D01*
X118401413Y-98809978D02*
X118449032Y-98857597D01*
X118449032Y-98857597D02*
X118496651Y-98881406D01*
X146692133Y-107846949D02*
X146858799Y-107608854D01*
X146977847Y-107846949D02*
X146977847Y-107346949D01*
X146977847Y-107346949D02*
X146787371Y-107346949D01*
X146787371Y-107346949D02*
X146739752Y-107370759D01*
X146739752Y-107370759D02*
X146715942Y-107394568D01*
X146715942Y-107394568D02*
X146692133Y-107442187D01*
X146692133Y-107442187D02*
X146692133Y-107513616D01*
X146692133Y-107513616D02*
X146715942Y-107561235D01*
X146715942Y-107561235D02*
X146739752Y-107585044D01*
X146739752Y-107585044D02*
X146787371Y-107608854D01*
X146787371Y-107608854D02*
X146977847Y-107608854D01*
X146406418Y-107561235D02*
X146454037Y-107537425D01*
X146454037Y-107537425D02*
X146477847Y-107513616D01*
X146477847Y-107513616D02*
X146501656Y-107465997D01*
X146501656Y-107465997D02*
X146501656Y-107442187D01*
X146501656Y-107442187D02*
X146477847Y-107394568D01*
X146477847Y-107394568D02*
X146454037Y-107370759D01*
X146454037Y-107370759D02*
X146406418Y-107346949D01*
X146406418Y-107346949D02*
X146311180Y-107346949D01*
X146311180Y-107346949D02*
X146263561Y-107370759D01*
X146263561Y-107370759D02*
X146239752Y-107394568D01*
X146239752Y-107394568D02*
X146215942Y-107442187D01*
X146215942Y-107442187D02*
X146215942Y-107465997D01*
X146215942Y-107465997D02*
X146239752Y-107513616D01*
X146239752Y-107513616D02*
X146263561Y-107537425D01*
X146263561Y-107537425D02*
X146311180Y-107561235D01*
X146311180Y-107561235D02*
X146406418Y-107561235D01*
X146406418Y-107561235D02*
X146454037Y-107585044D01*
X146454037Y-107585044D02*
X146477847Y-107608854D01*
X146477847Y-107608854D02*
X146501656Y-107656473D01*
X146501656Y-107656473D02*
X146501656Y-107751711D01*
X146501656Y-107751711D02*
X146477847Y-107799330D01*
X146477847Y-107799330D02*
X146454037Y-107823140D01*
X146454037Y-107823140D02*
X146406418Y-107846949D01*
X146406418Y-107846949D02*
X146311180Y-107846949D01*
X146311180Y-107846949D02*
X146263561Y-107823140D01*
X146263561Y-107823140D02*
X146239752Y-107799330D01*
X146239752Y-107799330D02*
X146215942Y-107751711D01*
X146215942Y-107751711D02*
X146215942Y-107656473D01*
X146215942Y-107656473D02*
X146239752Y-107608854D01*
X146239752Y-107608854D02*
X146263561Y-107585044D01*
X146263561Y-107585044D02*
X146311180Y-107561235D01*
X158325333Y-85523530D02*
X158349142Y-85547340D01*
X158349142Y-85547340D02*
X158420571Y-85571149D01*
X158420571Y-85571149D02*
X158468190Y-85571149D01*
X158468190Y-85571149D02*
X158539618Y-85547340D01*
X158539618Y-85547340D02*
X158587237Y-85499720D01*
X158587237Y-85499720D02*
X158611047Y-85452101D01*
X158611047Y-85452101D02*
X158634856Y-85356863D01*
X158634856Y-85356863D02*
X158634856Y-85285435D01*
X158634856Y-85285435D02*
X158611047Y-85190197D01*
X158611047Y-85190197D02*
X158587237Y-85142578D01*
X158587237Y-85142578D02*
X158539618Y-85094959D01*
X158539618Y-85094959D02*
X158468190Y-85071149D01*
X158468190Y-85071149D02*
X158420571Y-85071149D01*
X158420571Y-85071149D02*
X158349142Y-85094959D01*
X158349142Y-85094959D02*
X158325333Y-85118768D01*
X158158666Y-85071149D02*
X157825333Y-85071149D01*
X157825333Y-85071149D02*
X158039618Y-85571149D01*
X133072330Y-127313571D02*
X133096140Y-127289762D01*
X133096140Y-127289762D02*
X133119949Y-127218333D01*
X133119949Y-127218333D02*
X133119949Y-127170714D01*
X133119949Y-127170714D02*
X133096140Y-127099286D01*
X133096140Y-127099286D02*
X133048520Y-127051667D01*
X133048520Y-127051667D02*
X133000901Y-127027857D01*
X133000901Y-127027857D02*
X132905663Y-127004048D01*
X132905663Y-127004048D02*
X132834235Y-127004048D01*
X132834235Y-127004048D02*
X132738997Y-127027857D01*
X132738997Y-127027857D02*
X132691378Y-127051667D01*
X132691378Y-127051667D02*
X132643759Y-127099286D01*
X132643759Y-127099286D02*
X132619949Y-127170714D01*
X132619949Y-127170714D02*
X132619949Y-127218333D01*
X132619949Y-127218333D02*
X132643759Y-127289762D01*
X132643759Y-127289762D02*
X132667568Y-127313571D01*
X133119949Y-127789762D02*
X133119949Y-127504048D01*
X133119949Y-127646905D02*
X132619949Y-127646905D01*
X132619949Y-127646905D02*
X132691378Y-127599286D01*
X132691378Y-127599286D02*
X132738997Y-127551667D01*
X132738997Y-127551667D02*
X132762806Y-127504048D01*
X132667568Y-127980238D02*
X132643759Y-128004047D01*
X132643759Y-128004047D02*
X132619949Y-128051666D01*
X132619949Y-128051666D02*
X132619949Y-128170714D01*
X132619949Y-128170714D02*
X132643759Y-128218333D01*
X132643759Y-128218333D02*
X132667568Y-128242142D01*
X132667568Y-128242142D02*
X132715187Y-128265952D01*
X132715187Y-128265952D02*
X132762806Y-128265952D01*
X132762806Y-128265952D02*
X132834235Y-128242142D01*
X132834235Y-128242142D02*
X133119949Y-127956428D01*
X133119949Y-127956428D02*
X133119949Y-128265952D01*
D13*
%TO.C,D2*%
X119969000Y-82803000D02*
X114459000Y-82803000D01*
X119969000Y-79503000D02*
X119969000Y-82803000D01*
X119969000Y-79503000D02*
X114459000Y-79503000D01*
%TO.C,R23*%
X130897100Y-125751858D02*
X130897100Y-125277342D01*
X131942100Y-125751858D02*
X131942100Y-125277342D01*
%TO.C,R19*%
X129421658Y-126811300D02*
X128947142Y-126811300D01*
X129421658Y-125766300D02*
X128947142Y-125766300D01*
%TO.C,R7*%
X145609542Y-102042700D02*
X146084058Y-102042700D01*
X145609542Y-103087700D02*
X146084058Y-103087700D01*
%TO.C,C15*%
X150650000Y-91840000D02*
X150150000Y-91840000D01*
X150400000Y-91590000D02*
X150400000Y-92090000D01*
X149910000Y-94595563D02*
X149910000Y-94460000D01*
X149910000Y-94595563D02*
X148845563Y-95660000D01*
X149910000Y-92204437D02*
X149910000Y-92340000D01*
X149910000Y-92204437D02*
X148845563Y-91140000D01*
X148845563Y-95660000D02*
X145390000Y-95660000D01*
X148845563Y-91140000D02*
X145390000Y-91140000D01*
X145390000Y-95660000D02*
X145390000Y-94460000D01*
X145390000Y-91140000D02*
X145390000Y-92340000D01*
%TO.C,R22*%
X132043700Y-119091942D02*
X132043700Y-119566458D01*
X130998700Y-119091942D02*
X130998700Y-119566458D01*
%TO.C,R32*%
X122118658Y-128410500D02*
X121644142Y-128410500D01*
X122118658Y-127365500D02*
X121644142Y-127365500D01*
%TO.C,R9*%
X145609542Y-109713500D02*
X146084058Y-109713500D01*
X145609542Y-110758500D02*
X146084058Y-110758500D01*
%TO.C,R26*%
X145597342Y-119568700D02*
X146071858Y-119568700D01*
X145597342Y-120613700D02*
X146071858Y-120613700D01*
%TO.C,Ref\u002A\u002A*%
D14*
X135940291Y-73502204D02*
X136193142Y-73527854D01*
X136435161Y-73577739D01*
X136531051Y-73605187D01*
X136795800Y-73706726D01*
X137053147Y-73841693D01*
X137297335Y-74005467D01*
X137522605Y-74193422D01*
X137723200Y-74400938D01*
X137893361Y-74623389D01*
X138027331Y-74856152D01*
X138041328Y-74885508D01*
X138149951Y-75144582D01*
X138224731Y-75392189D01*
X138267936Y-75637543D01*
X138281833Y-75889853D01*
X138281796Y-75903031D01*
X138259254Y-76218020D01*
X138196526Y-76528686D01*
X138095665Y-76829921D01*
X137958720Y-77116616D01*
X137787743Y-77383663D01*
X137584785Y-77625955D01*
X137576464Y-77634603D01*
X137363095Y-77824906D01*
X137123774Y-77981796D01*
X136858474Y-78105286D01*
X136567169Y-78195388D01*
X136249833Y-78252114D01*
X136140736Y-78261318D01*
X136004468Y-78265871D01*
X135857238Y-78265453D01*
X135709681Y-78260437D01*
X135572435Y-78251191D01*
X135456135Y-78238088D01*
X135371416Y-78221498D01*
X135286973Y-78195395D01*
X135054378Y-78098506D01*
X134821723Y-77966921D01*
X134596562Y-77805265D01*
X134386450Y-77618167D01*
X134256152Y-77477710D01*
X134127203Y-77301444D01*
X134031307Y-77115387D01*
X133963856Y-76910229D01*
X133920241Y-76676665D01*
X133915516Y-76637814D01*
X133906510Y-76372631D01*
X133939006Y-76115462D01*
X134012890Y-75866617D01*
X134128047Y-75626400D01*
X134284363Y-75395121D01*
X134481722Y-75173086D01*
X134594155Y-75072935D01*
X134793083Y-74940997D01*
X135015998Y-74841520D01*
X135259349Y-74775967D01*
X135519583Y-74745801D01*
X135530906Y-74745324D01*
X135782240Y-74752063D01*
X136011112Y-74793761D01*
X136220305Y-74871439D01*
X136412602Y-74986118D01*
X136590783Y-75138819D01*
X136698785Y-75259252D01*
X136819690Y-75441974D01*
X136900121Y-75636558D01*
X136940416Y-75843901D01*
X136940915Y-76064906D01*
X136904614Y-76272324D01*
X136827965Y-76474085D01*
X136711726Y-76660861D01*
X136555904Y-76832640D01*
X136399620Y-76957646D01*
X136219782Y-77054154D01*
X136025942Y-77111471D01*
X135815072Y-77130816D01*
X135738402Y-77128358D01*
X135551648Y-77099771D01*
X135375390Y-77041980D01*
X135215681Y-76958551D01*
X135078580Y-76853048D01*
X134970141Y-76729036D01*
X134896422Y-76590080D01*
X134879354Y-76539907D01*
X134848231Y-76419408D01*
X134826425Y-76293503D01*
X134816190Y-76177048D01*
X134819780Y-76084898D01*
X134821910Y-76071795D01*
X134866795Y-75924620D01*
X134946206Y-75779254D01*
X135053570Y-75644096D01*
X135182316Y-75527545D01*
X135325872Y-75438001D01*
X135403855Y-75402475D01*
X135470254Y-75381639D01*
X135542899Y-75371579D01*
X135639787Y-75368299D01*
X135714050Y-75368718D01*
X135794453Y-75375215D01*
X135861591Y-75391314D01*
X135932333Y-75419997D01*
X135970816Y-75438474D01*
X136083001Y-75506376D01*
X136167328Y-75586248D01*
X136235067Y-75688069D01*
X136242218Y-75701541D01*
X136299606Y-75851230D01*
X136322076Y-76004341D01*
X136311457Y-76154486D01*
X136269577Y-76295275D01*
X136198266Y-76420320D01*
X136099353Y-76523231D01*
X135974666Y-76597620D01*
X135888188Y-76623058D01*
X135753527Y-76631020D01*
X135611090Y-76609181D01*
X135471636Y-76559489D01*
X135345928Y-76483889D01*
X135333992Y-76474392D01*
X135254498Y-76383124D01*
X135206466Y-76272991D01*
X135190070Y-76152608D01*
X135205484Y-76030593D01*
X135252881Y-75915560D01*
X135332436Y-75816125D01*
X135349588Y-75800969D01*
X135462889Y-75729848D01*
X135588595Y-75692467D01*
X135717023Y-75690554D01*
X135838489Y-75725836D01*
X135883853Y-75753305D01*
X135951281Y-75827873D01*
X135989387Y-75923332D01*
X135995513Y-76031069D01*
X135967005Y-76142472D01*
X135941190Y-76194383D01*
X135889154Y-76254376D01*
X135817567Y-76286021D01*
X135716708Y-76295250D01*
X135656383Y-76294066D01*
X135604784Y-76286031D01*
X135567386Y-76265312D01*
X135528430Y-76226125D01*
X135492195Y-76177785D01*
X135469511Y-76125012D01*
X135472368Y-76087363D01*
X135502167Y-76073000D01*
X135510560Y-76074400D01*
X135549976Y-76097451D01*
X135593462Y-76139834D01*
X135611146Y-76159718D01*
X135660429Y-76195942D01*
X135718179Y-76204708D01*
X135781629Y-76194448D01*
X135836052Y-76158159D01*
X135882685Y-76087845D01*
X135901929Y-76034670D01*
X135901094Y-75951464D01*
X135865211Y-75877106D01*
X135798678Y-75819130D01*
X135705894Y-75785068D01*
X135669580Y-75780618D01*
X135563512Y-75793122D01*
X135465274Y-75838712D01*
X135381630Y-75910482D01*
X135319343Y-76001529D01*
X135285175Y-76104947D01*
X135285891Y-76213833D01*
X135298575Y-76256313D01*
X135351956Y-76341915D01*
X135434454Y-76418968D01*
X135537150Y-76481456D01*
X135651122Y-76523361D01*
X135767450Y-76538667D01*
X135778884Y-76538516D01*
X135904353Y-76515886D01*
X136014196Y-76458825D01*
X136104736Y-76373107D01*
X136172292Y-76264509D01*
X136213187Y-76138804D01*
X136223742Y-76001769D01*
X136200277Y-75859178D01*
X136191224Y-75830755D01*
X136124299Y-75699819D01*
X136023207Y-75593811D01*
X135888154Y-75512959D01*
X135839586Y-75492067D01*
X135769125Y-75468982D01*
X135701204Y-75460975D01*
X135613922Y-75464145D01*
X135598844Y-75465380D01*
X135474717Y-75486696D01*
X135368398Y-75523803D01*
X135325244Y-75547691D01*
X135225314Y-75621461D01*
X135126094Y-75715436D01*
X135040052Y-75817101D01*
X134979656Y-75913944D01*
X134939934Y-76024032D01*
X134918368Y-76180870D01*
X134929495Y-76344095D01*
X134971588Y-76504481D01*
X135042921Y-76652804D01*
X135141766Y-76779837D01*
X135168450Y-76804533D01*
X135271013Y-76876581D01*
X135398145Y-76941887D01*
X135536576Y-76994264D01*
X135673036Y-77027527D01*
X135694912Y-77030835D01*
X135878535Y-77035700D01*
X136059951Y-77002398D01*
X136234149Y-76934529D01*
X136396119Y-76835692D01*
X136540850Y-76709486D01*
X136663330Y-76559510D01*
X136758548Y-76389364D01*
X136821493Y-76202647D01*
X136835791Y-76106667D01*
X136840000Y-75972252D01*
X136831703Y-75829717D01*
X136811961Y-75695531D01*
X136781832Y-75586167D01*
X136712875Y-75448350D01*
X136611227Y-75306085D01*
X136487757Y-75174494D01*
X136351968Y-75065098D01*
X136258515Y-75006799D01*
X136046643Y-74909814D01*
X135822973Y-74852511D01*
X135589688Y-74834954D01*
X135348974Y-74857206D01*
X135103016Y-74919331D01*
X134853999Y-75021392D01*
X134763315Y-75073633D01*
X134625954Y-75178608D01*
X134488982Y-75310590D01*
X134359755Y-75461524D01*
X134245630Y-75623355D01*
X134153964Y-75788025D01*
X134105642Y-75898616D01*
X134044572Y-76093523D01*
X134014320Y-76295132D01*
X134012259Y-76516966D01*
X134015196Y-76570987D01*
X134031652Y-76741412D01*
X134059976Y-76888130D01*
X134103472Y-77025142D01*
X134165440Y-77166450D01*
X134188662Y-77210412D01*
X134283786Y-77351657D01*
X134409516Y-77497722D01*
X134558680Y-77642045D01*
X134724109Y-77778064D01*
X134898634Y-77899218D01*
X135075083Y-77998944D01*
X135136116Y-78028176D01*
X135304595Y-78095718D01*
X135471017Y-78139877D01*
X135649368Y-78163735D01*
X135853633Y-78170369D01*
X136004135Y-78166701D01*
X136333294Y-78135019D01*
X136635470Y-78070847D01*
X136910918Y-77974063D01*
X137159893Y-77844545D01*
X137382649Y-77682170D01*
X137579443Y-77486816D01*
X137750529Y-77258359D01*
X137762447Y-77239819D01*
X137900106Y-77007758D01*
X138006680Y-76787584D01*
X138086084Y-76568634D01*
X138142236Y-76340245D01*
X138179053Y-76091755D01*
X138189121Y-75933051D01*
X138174682Y-75657591D01*
X138121969Y-75381382D01*
X138032898Y-75109789D01*
X137909382Y-74848175D01*
X137753337Y-74601906D01*
X137566679Y-74376346D01*
X137557763Y-74366956D01*
X137360583Y-74184282D01*
X137135768Y-74016971D01*
X136893566Y-73871226D01*
X136644227Y-73753247D01*
X136398000Y-73669237D01*
X136229094Y-73632757D01*
X135966467Y-73604243D01*
X135672495Y-73601507D01*
X135348477Y-73624545D01*
X134995708Y-73673353D01*
X134944615Y-73679339D01*
X134921461Y-73671052D01*
X134916333Y-73643868D01*
X134918502Y-73621201D01*
X134929641Y-73603272D01*
X134956352Y-73589085D01*
X135005237Y-73576324D01*
X135082894Y-73562676D01*
X135195923Y-73545825D01*
X135374794Y-73522910D01*
X135669783Y-73500615D01*
X135940291Y-73502204D01*
G36*
X135940291Y-73502204D02*
G01*
X136193142Y-73527854D01*
X136435161Y-73577739D01*
X136531051Y-73605187D01*
X136795800Y-73706726D01*
X137053147Y-73841693D01*
X137297335Y-74005467D01*
X137522605Y-74193422D01*
X137723200Y-74400938D01*
X137893361Y-74623389D01*
X138027331Y-74856152D01*
X138041328Y-74885508D01*
X138149951Y-75144582D01*
X138224731Y-75392189D01*
X138267936Y-75637543D01*
X138281833Y-75889853D01*
X138281796Y-75903031D01*
X138259254Y-76218020D01*
X138196526Y-76528686D01*
X138095665Y-76829921D01*
X137958720Y-77116616D01*
X137787743Y-77383663D01*
X137584785Y-77625955D01*
X137576464Y-77634603D01*
X137363095Y-77824906D01*
X137123774Y-77981796D01*
X136858474Y-78105286D01*
X136567169Y-78195388D01*
X136249833Y-78252114D01*
X136140736Y-78261318D01*
X136004468Y-78265871D01*
X135857238Y-78265453D01*
X135709681Y-78260437D01*
X135572435Y-78251191D01*
X135456135Y-78238088D01*
X135371416Y-78221498D01*
X135286973Y-78195395D01*
X135054378Y-78098506D01*
X134821723Y-77966921D01*
X134596562Y-77805265D01*
X134386450Y-77618167D01*
X134256152Y-77477710D01*
X134127203Y-77301444D01*
X134031307Y-77115387D01*
X133963856Y-76910229D01*
X133920241Y-76676665D01*
X133915516Y-76637814D01*
X133906510Y-76372631D01*
X133939006Y-76115462D01*
X134012890Y-75866617D01*
X134128047Y-75626400D01*
X134284363Y-75395121D01*
X134481722Y-75173086D01*
X134594155Y-75072935D01*
X134793083Y-74940997D01*
X135015998Y-74841520D01*
X135259349Y-74775967D01*
X135519583Y-74745801D01*
X135530906Y-74745324D01*
X135782240Y-74752063D01*
X136011112Y-74793761D01*
X136220305Y-74871439D01*
X136412602Y-74986118D01*
X136590783Y-75138819D01*
X136698785Y-75259252D01*
X136819690Y-75441974D01*
X136900121Y-75636558D01*
X136940416Y-75843901D01*
X136940915Y-76064906D01*
X136904614Y-76272324D01*
X136827965Y-76474085D01*
X136711726Y-76660861D01*
X136555904Y-76832640D01*
X136399620Y-76957646D01*
X136219782Y-77054154D01*
X136025942Y-77111471D01*
X135815072Y-77130816D01*
X135738402Y-77128358D01*
X135551648Y-77099771D01*
X135375390Y-77041980D01*
X135215681Y-76958551D01*
X135078580Y-76853048D01*
X134970141Y-76729036D01*
X134896422Y-76590080D01*
X134879354Y-76539907D01*
X134848231Y-76419408D01*
X134826425Y-76293503D01*
X134816190Y-76177048D01*
X134819780Y-76084898D01*
X134821910Y-76071795D01*
X134866795Y-75924620D01*
X134946206Y-75779254D01*
X135053570Y-75644096D01*
X135182316Y-75527545D01*
X135325872Y-75438001D01*
X135403855Y-75402475D01*
X135470254Y-75381639D01*
X135542899Y-75371579D01*
X135639787Y-75368299D01*
X135714050Y-75368718D01*
X135794453Y-75375215D01*
X135861591Y-75391314D01*
X135932333Y-75419997D01*
X135970816Y-75438474D01*
X136083001Y-75506376D01*
X136167328Y-75586248D01*
X136235067Y-75688069D01*
X136242218Y-75701541D01*
X136299606Y-75851230D01*
X136322076Y-76004341D01*
X136311457Y-76154486D01*
X136269577Y-76295275D01*
X136198266Y-76420320D01*
X136099353Y-76523231D01*
X135974666Y-76597620D01*
X135888188Y-76623058D01*
X135753527Y-76631020D01*
X135611090Y-76609181D01*
X135471636Y-76559489D01*
X135345928Y-76483889D01*
X135333992Y-76474392D01*
X135254498Y-76383124D01*
X135206466Y-76272991D01*
X135190070Y-76152608D01*
X135205484Y-76030593D01*
X135252881Y-75915560D01*
X135332436Y-75816125D01*
X135349588Y-75800969D01*
X135462889Y-75729848D01*
X135588595Y-75692467D01*
X135717023Y-75690554D01*
X135838489Y-75725836D01*
X135883853Y-75753305D01*
X135951281Y-75827873D01*
X135989387Y-75923332D01*
X135995513Y-76031069D01*
X135967005Y-76142472D01*
X135941190Y-76194383D01*
X135889154Y-76254376D01*
X135817567Y-76286021D01*
X135716708Y-76295250D01*
X135656383Y-76294066D01*
X135604784Y-76286031D01*
X135567386Y-76265312D01*
X135528430Y-76226125D01*
X135492195Y-76177785D01*
X135469511Y-76125012D01*
X135472368Y-76087363D01*
X135502167Y-76073000D01*
X135510560Y-76074400D01*
X135549976Y-76097451D01*
X135593462Y-76139834D01*
X135611146Y-76159718D01*
X135660429Y-76195942D01*
X135718179Y-76204708D01*
X135781629Y-76194448D01*
X135836052Y-76158159D01*
X135882685Y-76087845D01*
X135901929Y-76034670D01*
X135901094Y-75951464D01*
X135865211Y-75877106D01*
X135798678Y-75819130D01*
X135705894Y-75785068D01*
X135669580Y-75780618D01*
X135563512Y-75793122D01*
X135465274Y-75838712D01*
X135381630Y-75910482D01*
X135319343Y-76001529D01*
X135285175Y-76104947D01*
X135285891Y-76213833D01*
X135298575Y-76256313D01*
X135351956Y-76341915D01*
X135434454Y-76418968D01*
X135537150Y-76481456D01*
X135651122Y-76523361D01*
X135767450Y-76538667D01*
X135778884Y-76538516D01*
X135904353Y-76515886D01*
X136014196Y-76458825D01*
X136104736Y-76373107D01*
X136172292Y-76264509D01*
X136213187Y-76138804D01*
X136223742Y-76001769D01*
X136200277Y-75859178D01*
X136191224Y-75830755D01*
X136124299Y-75699819D01*
X136023207Y-75593811D01*
X135888154Y-75512959D01*
X135839586Y-75492067D01*
X135769125Y-75468982D01*
X135701204Y-75460975D01*
X135613922Y-75464145D01*
X135598844Y-75465380D01*
X135474717Y-75486696D01*
X135368398Y-75523803D01*
X135325244Y-75547691D01*
X135225314Y-75621461D01*
X135126094Y-75715436D01*
X135040052Y-75817101D01*
X134979656Y-75913944D01*
X134939934Y-76024032D01*
X134918368Y-76180870D01*
X134929495Y-76344095D01*
X134971588Y-76504481D01*
X135042921Y-76652804D01*
X135141766Y-76779837D01*
X135168450Y-76804533D01*
X135271013Y-76876581D01*
X135398145Y-76941887D01*
X135536576Y-76994264D01*
X135673036Y-77027527D01*
X135694912Y-77030835D01*
X135878535Y-77035700D01*
X136059951Y-77002398D01*
X136234149Y-76934529D01*
X136396119Y-76835692D01*
X136540850Y-76709486D01*
X136663330Y-76559510D01*
X136758548Y-76389364D01*
X136821493Y-76202647D01*
X136835791Y-76106667D01*
X136840000Y-75972252D01*
X136831703Y-75829717D01*
X136811961Y-75695531D01*
X136781832Y-75586167D01*
X136712875Y-75448350D01*
X136611227Y-75306085D01*
X136487757Y-75174494D01*
X136351968Y-75065098D01*
X136258515Y-75006799D01*
X136046643Y-74909814D01*
X135822973Y-74852511D01*
X135589688Y-74834954D01*
X135348974Y-74857206D01*
X135103016Y-74919331D01*
X134853999Y-75021392D01*
X134763315Y-75073633D01*
X134625954Y-75178608D01*
X134488982Y-75310590D01*
X134359755Y-75461524D01*
X134245630Y-75623355D01*
X134153964Y-75788025D01*
X134105642Y-75898616D01*
X134044572Y-76093523D01*
X134014320Y-76295132D01*
X134012259Y-76516966D01*
X134015196Y-76570987D01*
X134031652Y-76741412D01*
X134059976Y-76888130D01*
X134103472Y-77025142D01*
X134165440Y-77166450D01*
X134188662Y-77210412D01*
X134283786Y-77351657D01*
X134409516Y-77497722D01*
X134558680Y-77642045D01*
X134724109Y-77778064D01*
X134898634Y-77899218D01*
X135075083Y-77998944D01*
X135136116Y-78028176D01*
X135304595Y-78095718D01*
X135471017Y-78139877D01*
X135649368Y-78163735D01*
X135853633Y-78170369D01*
X136004135Y-78166701D01*
X136333294Y-78135019D01*
X136635470Y-78070847D01*
X136910918Y-77974063D01*
X137159893Y-77844545D01*
X137382649Y-77682170D01*
X137579443Y-77486816D01*
X137750529Y-77258359D01*
X137762447Y-77239819D01*
X137900106Y-77007758D01*
X138006680Y-76787584D01*
X138086084Y-76568634D01*
X138142236Y-76340245D01*
X138179053Y-76091755D01*
X138189121Y-75933051D01*
X138174682Y-75657591D01*
X138121969Y-75381382D01*
X138032898Y-75109789D01*
X137909382Y-74848175D01*
X137753337Y-74601906D01*
X137566679Y-74376346D01*
X137557763Y-74366956D01*
X137360583Y-74184282D01*
X137135768Y-74016971D01*
X136893566Y-73871226D01*
X136644227Y-73753247D01*
X136398000Y-73669237D01*
X136229094Y-73632757D01*
X135966467Y-73604243D01*
X135672495Y-73601507D01*
X135348477Y-73624545D01*
X134995708Y-73673353D01*
X134944615Y-73679339D01*
X134921461Y-73671052D01*
X134916333Y-73643868D01*
X134918502Y-73621201D01*
X134929641Y-73603272D01*
X134956352Y-73589085D01*
X135005237Y-73576324D01*
X135082894Y-73562676D01*
X135195923Y-73545825D01*
X135374794Y-73522910D01*
X135669783Y-73500615D01*
X135940291Y-73502204D01*
G37*
D13*
%TO.C,C23*%
X141526800Y-119469780D02*
X141526800Y-119188620D01*
X142546800Y-119469780D02*
X142546800Y-119188620D01*
%TO.C,C13*%
X143512000Y-94106420D02*
X143512000Y-94387580D01*
X142492000Y-94106420D02*
X142492000Y-94387580D01*
%TO.C,C4*%
X142597600Y-103186620D02*
X142597600Y-103467780D01*
X141577600Y-103186620D02*
X141577600Y-103467780D01*
%TO.C,C9*%
X161163580Y-82552000D02*
X160882420Y-82552000D01*
X161163580Y-81532000D02*
X160882420Y-81532000D01*
%TO.C,R15*%
X133993658Y-112333300D02*
X133519142Y-112333300D01*
X133993658Y-111288300D02*
X133519142Y-111288300D01*
%TO.C,R2*%
X129574058Y-104611700D02*
X129099542Y-104611700D01*
X129574058Y-103566700D02*
X129099542Y-103566700D01*
%TO.C,C20*%
X157900000Y-93563000D02*
X157400000Y-93563000D01*
X157650000Y-93313000D02*
X157650000Y-93813000D01*
X157160000Y-96318563D02*
X157160000Y-96183000D01*
X157160000Y-96318563D02*
X156095563Y-97383000D01*
X157160000Y-93927437D02*
X157160000Y-94063000D01*
X157160000Y-93927437D02*
X156095563Y-92863000D01*
X156095563Y-97383000D02*
X152640000Y-97383000D01*
X156095563Y-92863000D02*
X152640000Y-92863000D01*
X152640000Y-97383000D02*
X152640000Y-96183000D01*
X152640000Y-92863000D02*
X152640000Y-94063000D01*
%TO.C,C8*%
X161163580Y-87505000D02*
X160882420Y-87505000D01*
X161163580Y-86485000D02*
X160882420Y-86485000D01*
%TO.C,U6*%
X145379000Y-77197000D02*
X151389000Y-77197000D01*
X147629000Y-70377000D02*
X151389000Y-70377000D01*
X151389000Y-70377000D02*
X151389000Y-71637000D01*
X151389000Y-77197000D02*
X151389000Y-75937000D01*
%TO.C,R10*%
X132094500Y-103089942D02*
X132094500Y-103564458D01*
X131049500Y-103089942D02*
X131049500Y-103564458D01*
%TO.C,FB1*%
X123128122Y-91873000D02*
X122328878Y-91873000D01*
X123128122Y-90753000D02*
X122328878Y-90753000D01*
%TO.C,R6*%
X145609542Y-103515900D02*
X146084058Y-103515900D01*
X145609542Y-104560900D02*
X146084058Y-104560900D01*
%TO.C,U4*%
X120214000Y-69201000D02*
X121454000Y-69201000D01*
X120214000Y-70441000D02*
X120214000Y-69201000D01*
X120454000Y-69441000D02*
X132175000Y-69441000D01*
X120454000Y-78061000D02*
X120454000Y-69441000D01*
X120454000Y-78061000D02*
X132175000Y-78061000D01*
X132175000Y-78061000D02*
X132175000Y-69441000D01*
%TO.C,C24*%
X142546800Y-125386220D02*
X142546800Y-125667380D01*
X141526800Y-125386220D02*
X141526800Y-125667380D01*
%TO.C,C5*%
X141577600Y-109665380D02*
X141577600Y-109384220D01*
X142597600Y-109665380D02*
X142597600Y-109384220D01*
%TO.C,R4*%
X129624858Y-109285300D02*
X129150342Y-109285300D01*
X129624858Y-108240300D02*
X129150342Y-108240300D01*
%TO.C,R14*%
X133993658Y-101563700D02*
X133519142Y-101563700D01*
X133993658Y-100518700D02*
X133519142Y-100518700D01*
%TO.C,R1*%
X117961142Y-93457500D02*
X118435658Y-93457500D01*
X117961142Y-94502500D02*
X118435658Y-94502500D01*
%TO.C,C17*%
X123190580Y-90045000D02*
X122909420Y-90045000D01*
X123190580Y-89025000D02*
X122909420Y-89025000D01*
%TO.C,R30*%
X146071858Y-119089700D02*
X145597342Y-119089700D01*
X146071858Y-118044700D02*
X145597342Y-118044700D01*
%TO.C,C22*%
X132003220Y-122019600D02*
X132284380Y-122019600D01*
X132003220Y-123039600D02*
X132284380Y-123039600D01*
%TO.C,L1*%
X142238000Y-77099279D02*
X142238000Y-76773721D01*
X143258000Y-77099279D02*
X143258000Y-76773721D01*
%TO.C,R24*%
X140636258Y-93994500D02*
X140161742Y-93994500D01*
X140636258Y-92949500D02*
X140161742Y-92949500D01*
%TO.C,R11*%
X131100300Y-109762058D02*
X131100300Y-109287542D01*
X132145300Y-109762058D02*
X132145300Y-109287542D01*
%TO.C,C25*%
X143197252Y-71982000D02*
X142674748Y-71982000D01*
X143197252Y-70512000D02*
X142674748Y-70512000D01*
%TO.C,R12*%
X144134100Y-103089942D02*
X144134100Y-103564458D01*
X143089100Y-103089942D02*
X143089100Y-103564458D01*
%TO.C,C11*%
X133504400Y-119188620D02*
X133504400Y-119469780D01*
X132484400Y-119188620D02*
X132484400Y-119469780D01*
%TO.C,C19*%
X157900000Y-88356000D02*
X157400000Y-88356000D01*
X157650000Y-88106000D02*
X157650000Y-88606000D01*
X157160000Y-91111563D02*
X157160000Y-90976000D01*
X157160000Y-91111563D02*
X156095563Y-92176000D01*
X157160000Y-88720437D02*
X157160000Y-88856000D01*
X157160000Y-88720437D02*
X156095563Y-87656000D01*
X156095563Y-92176000D02*
X152640000Y-92176000D01*
X156095563Y-87656000D02*
X152640000Y-87656000D01*
X152640000Y-92176000D02*
X152640000Y-90976000D01*
X152640000Y-87656000D02*
X152640000Y-88856000D01*
%TO.C,Q1*%
X122047000Y-123281000D02*
X121397000Y-123281000D01*
X122047000Y-123281000D02*
X122697000Y-123281000D01*
X122047000Y-126401000D02*
X120372000Y-126401000D01*
X122047000Y-126401000D02*
X122697000Y-126401000D01*
%TO.C,D1*%
X112949000Y-89663000D02*
X118459000Y-89663000D01*
X112949000Y-92963000D02*
X112949000Y-89663000D01*
X112949000Y-92963000D02*
X118459000Y-92963000D01*
%TO.C,R33*%
X161273258Y-89168500D02*
X160798742Y-89168500D01*
X161273258Y-88123500D02*
X160798742Y-88123500D01*
%TO.C,C1*%
X116257800Y-96531820D02*
X116257800Y-96812980D01*
X115237800Y-96531820D02*
X115237800Y-96812980D01*
%TO.C,U2*%
X137566400Y-110861000D02*
X139516400Y-110861000D01*
X137566400Y-110861000D02*
X135616400Y-110861000D01*
X137566400Y-101991000D02*
X141016400Y-101991000D01*
X137566400Y-101991000D02*
X135616400Y-101991000D01*
%TO.C,R29*%
X142987500Y-125764058D02*
X142987500Y-125289542D01*
X144032500Y-125764058D02*
X144032500Y-125289542D01*
%TO.C,C18*%
X123114980Y-83466400D02*
X122833820Y-83466400D01*
X123114980Y-82446400D02*
X122833820Y-82446400D01*
%TO.C,R28*%
X144083300Y-119091942D02*
X144083300Y-119566458D01*
X143038300Y-119091942D02*
X143038300Y-119566458D01*
%TO.C,R18*%
X129472458Y-119089700D02*
X128997942Y-119089700D01*
X129472458Y-118044700D02*
X128997942Y-118044700D01*
%TO.C,C16*%
X150650000Y-86690000D02*
X150150000Y-86690000D01*
X150400000Y-86440000D02*
X150400000Y-86940000D01*
X149910000Y-89445563D02*
X149910000Y-89310000D01*
X149910000Y-89445563D02*
X148845563Y-90510000D01*
X149910000Y-87054437D02*
X149910000Y-87190000D01*
X149910000Y-87054437D02*
X148845563Y-85990000D01*
X148845563Y-90510000D02*
X145390000Y-90510000D01*
X148845563Y-85990000D02*
X145390000Y-85990000D01*
X145390000Y-90510000D02*
X145390000Y-89310000D01*
X145390000Y-85990000D02*
X145390000Y-87190000D01*
%TO.C,C10*%
X161163580Y-84203000D02*
X160882420Y-84203000D01*
X161163580Y-83183000D02*
X160882420Y-83183000D01*
%TO.C,R31*%
X145982458Y-126811300D02*
X145507942Y-126811300D01*
X145982458Y-125766300D02*
X145507942Y-125766300D01*
D15*
%TO.C,J8*%
X102870000Y-96520000D02*
X102870000Y-68326000D01*
X112268000Y-96520000D02*
X102870000Y-96520000D01*
X102997000Y-96393000D02*
X102997000Y-96139000D01*
X112141000Y-96393000D02*
X112141000Y-96139000D01*
X112141000Y-96139000D02*
X102997000Y-96139000D01*
X102870000Y-68326000D02*
X112268000Y-68326000D01*
X112268000Y-68326000D02*
X112268000Y-96520000D01*
D13*
%TO.C,C27*%
X143202252Y-74649000D02*
X142679748Y-74649000D01*
X143202252Y-73179000D02*
X142679748Y-73179000D01*
%TO.C,C6*%
X142874420Y-105916000D02*
X143155580Y-105916000D01*
X142874420Y-106936000D02*
X143155580Y-106936000D01*
%TO.C,R16*%
X141088342Y-100518700D02*
X141562858Y-100518700D01*
X141088342Y-101563700D02*
X141562858Y-101563700D01*
%TO.C,U3*%
X137541000Y-126863000D02*
X139491000Y-126863000D01*
X137541000Y-126863000D02*
X135591000Y-126863000D01*
X137541000Y-117993000D02*
X140991000Y-117993000D01*
X137541000Y-117993000D02*
X135591000Y-117993000D01*
%TO.C,R3*%
X129574058Y-103087700D02*
X129099542Y-103087700D01*
X129574058Y-102042700D02*
X129099542Y-102042700D01*
%TO.C,C14*%
X142492000Y-87503580D02*
X142492000Y-87222420D01*
X143512000Y-87503580D02*
X143512000Y-87222420D01*
%TO.C,R25*%
X140636258Y-88660500D02*
X140161742Y-88660500D01*
X140636258Y-87615500D02*
X140161742Y-87615500D01*
%TO.C,C3*%
X132586000Y-109665380D02*
X132586000Y-109384220D01*
X133606000Y-109665380D02*
X133606000Y-109384220D01*
%TO.C,R5*%
X129624858Y-110809300D02*
X129150342Y-110809300D01*
X129624858Y-109764300D02*
X129150342Y-109764300D01*
%TO.C,FB2*%
X123128122Y-81713000D02*
X122328878Y-81713000D01*
X123128122Y-80593000D02*
X122328878Y-80593000D01*
%TO.C,R27*%
X145507942Y-124242300D02*
X145982458Y-124242300D01*
X145507942Y-125287300D02*
X145982458Y-125287300D01*
%TO.C,C21*%
X142861420Y-121918000D02*
X143142580Y-121918000D01*
X142861420Y-122938000D02*
X143142580Y-122938000D01*
%TO.C,R13*%
X143089100Y-109762058D02*
X143089100Y-109287542D01*
X144134100Y-109762058D02*
X144134100Y-109287542D01*
%TO.C,C2*%
X133555200Y-103186620D02*
X133555200Y-103467780D01*
X132535200Y-103186620D02*
X132535200Y-103467780D01*
%TO.C,R17*%
X141139142Y-111288300D02*
X141613658Y-111288300D01*
X141139142Y-112333300D02*
X141613658Y-112333300D01*
%TO.C,R21*%
X128947142Y-124242300D02*
X129421658Y-124242300D01*
X128947142Y-125287300D02*
X129421658Y-125287300D01*
%TO.C,R20*%
X128997942Y-119568700D02*
X129472458Y-119568700D01*
X128997942Y-120613700D02*
X129472458Y-120613700D01*
%TO.C,U1*%
X118615700Y-95051400D02*
X117965700Y-95051400D01*
X118615700Y-95051400D02*
X119265700Y-95051400D01*
X118615700Y-98171400D02*
X116940700Y-98171400D01*
X118615700Y-98171400D02*
X119265700Y-98171400D01*
%TO.C,R8*%
X145609542Y-108240300D02*
X146084058Y-108240300D01*
X145609542Y-109285300D02*
X146084058Y-109285300D01*
%TO.C,C7*%
X161163580Y-85854000D02*
X160882420Y-85854000D01*
X161163580Y-84834000D02*
X160882420Y-84834000D01*
%TO.C,C12*%
X132433600Y-125667380D02*
X132433600Y-125386220D01*
X133453600Y-125667380D02*
X133453600Y-125386220D01*
%TD*%
M02*
