%TF.GenerationSoftware,KiCad,Pcbnew,7.0.6-1.fc38*%
%TF.CreationDate,2023-08-24T19:35:41-07:00*%
%TF.ProjectId,s3gta_back,73336774-615f-4626-9163-6b2e6b696361,rev?*%
%TF.SameCoordinates,Original*%
%TF.FileFunction,Copper,L1,Top*%
%TF.FilePolarity,Positive*%
%FSLAX46Y46*%
G04 Gerber Fmt 4.6, Leading zero omitted, Abs format (unit mm)*
G04 Created by KiCad (PCBNEW 7.0.6-1.fc38) date 2023-08-24 19:35:41*
%MOMM*%
%LPD*%
G01*
G04 APERTURE LIST*
%TA.AperFunction,ComponentPad*%
%ADD10R,1.830000X1.930000*%
%TD*%
%TA.AperFunction,ComponentPad*%
%ADD11C,2.130000*%
%TD*%
%TA.AperFunction,ComponentPad*%
%ADD12C,1.676400*%
%TD*%
%TA.AperFunction,ComponentPad*%
%ADD13R,3.216000X3.216000*%
%TD*%
%TA.AperFunction,ComponentPad*%
%ADD14R,1.930000X1.830000*%
%TD*%
%TA.AperFunction,ComponentPad*%
%ADD15C,2.000000*%
%TD*%
%TA.AperFunction,ComponentPad*%
%ADD16R,1.700000X1.700000*%
%TD*%
%TA.AperFunction,ComponentPad*%
%ADD17O,1.700000X1.700000*%
%TD*%
%TA.AperFunction,ComponentPad*%
%ADD18R,1.500000X2.300000*%
%TD*%
%TA.AperFunction,ComponentPad*%
%ADD19O,1.500000X2.300000*%
%TD*%
%TA.AperFunction,ComponentPad*%
%ADD20R,1.524000X1.524000*%
%TD*%
%TA.AperFunction,ComponentPad*%
%ADD21C,1.524000*%
%TD*%
%TA.AperFunction,ViaPad*%
%ADD22C,0.635000*%
%TD*%
%TA.AperFunction,ViaPad*%
%ADD23C,0.457200*%
%TD*%
%TA.AperFunction,Conductor*%
%ADD24C,0.381000*%
%TD*%
%TA.AperFunction,Conductor*%
%ADD25C,0.152400*%
%TD*%
G04 APERTURE END LIST*
D10*
%TO.P,J4,S*%
%TO.N,GND*%
X149101000Y-147193000D03*
D11*
%TO.P,J4,T*%
%TO.N,Net-(J4-PadT)*%
X137701000Y-147193000D03*
%TO.P,J4,TN*%
%TO.N,GND*%
X146001000Y-147193000D03*
%TD*%
D12*
%TO.P,RV4,1,1*%
%TO.N,-5VA*%
X160060000Y-128920000D03*
%TO.P,RV4,2,2*%
%TO.N,Net-(R9-Pad2)*%
X162560000Y-128920000D03*
%TO.P,RV4,3,3*%
%TO.N,GND*%
X165060000Y-128920000D03*
D13*
%TO.P,RV4,M1*%
%TO.N,N/C*%
X158060000Y-121920000D03*
%TO.P,RV4,M2*%
X167060000Y-121920000D03*
%TD*%
D10*
%TO.P,J9,S*%
%TO.N,GND*%
X168532000Y-136906000D03*
D11*
%TO.P,J9,T*%
%TO.N,Net-(J9-PadT)*%
X157132000Y-136906000D03*
%TO.P,J9,TN*%
%TO.N,unconnected-(J9-PadTN)*%
X165432000Y-136906000D03*
%TD*%
D14*
%TO.P,J11,S*%
%TO.N,GND*%
X121920000Y-118615000D03*
D11*
%TO.P,J11,T*%
%TO.N,Net-(J11-PadT)*%
X121920000Y-130015000D03*
%TO.P,J11,TN*%
%TO.N,GND*%
X121920000Y-121715000D03*
%TD*%
D12*
%TO.P,RV2,1,1*%
%TO.N,-5VA*%
X106720000Y-128920000D03*
%TO.P,RV2,2,2*%
%TO.N,Net-(R5-Pad2)*%
X109220000Y-128920000D03*
%TO.P,RV2,3,3*%
%TO.N,GND*%
X111720000Y-128920000D03*
D13*
%TO.P,RV2,M1*%
%TO.N,N/C*%
X104720000Y-121920000D03*
%TO.P,RV2,M2*%
X113720000Y-121920000D03*
%TD*%
D10*
%TO.P,J2,S*%
%TO.N,GND*%
X122679000Y-147193000D03*
D11*
%TO.P,J2,T*%
%TO.N,Net-(J2-PadT)*%
X134079000Y-147193000D03*
%TO.P,J2,TN*%
%TO.N,GND*%
X125779000Y-147193000D03*
%TD*%
D10*
%TO.P,J1,S*%
%TO.N,GND*%
X122679000Y-136906000D03*
D11*
%TO.P,J1,T*%
%TO.N,Net-(J1-PadT)*%
X134079000Y-136906000D03*
%TO.P,J1,TN*%
%TO.N,GND*%
X125779000Y-136906000D03*
%TD*%
D10*
%TO.P,J7,S*%
%TO.N,GND*%
X103248000Y-147193000D03*
D11*
%TO.P,J7,T*%
%TO.N,Net-(J7-PadT)*%
X114648000Y-147193000D03*
%TO.P,J7,TN*%
%TO.N,Net-(J6-PadT)*%
X106348000Y-147193000D03*
%TD*%
D10*
%TO.P,J10,S*%
%TO.N,GND*%
X168532000Y-147193000D03*
D11*
%TO.P,J10,T*%
%TO.N,Net-(J10-PadT)*%
X157132000Y-147193000D03*
%TO.P,J10,TN*%
%TO.N,unconnected-(J10-PadTN)*%
X165432000Y-147193000D03*
%TD*%
D12*
%TO.P,RV3,1,1*%
%TO.N,-5VA*%
X160060000Y-111140000D03*
%TO.P,RV3,2,2*%
%TO.N,Net-(R7-Pad2)*%
X162560000Y-111140000D03*
%TO.P,RV3,3,3*%
%TO.N,GND*%
X165060000Y-111140000D03*
D13*
%TO.P,RV3,M1*%
%TO.N,N/C*%
X158060000Y-104140000D03*
%TO.P,RV3,M2*%
X167060000Y-104140000D03*
%TD*%
D15*
%TO.P,SW1,1,1*%
%TO.N,/GPIO0*%
X149261000Y-128345000D03*
X149261000Y-121845000D03*
%TO.P,SW1,2,2*%
%TO.N,GND*%
X153761000Y-128345000D03*
X153761000Y-121845000D03*
%TD*%
D16*
%TO.P,J5,1,Pin_1*%
%TO.N,/CV1*%
X167894000Y-83693000D03*
D17*
%TO.P,J5,2,Pin_2*%
%TO.N,/CV2*%
X165354000Y-83693000D03*
%TO.P,J5,3,Pin_3*%
%TO.N,/CV3*%
X167894000Y-86233000D03*
%TO.P,J5,4,Pin_4*%
%TO.N,/CV4*%
X165354000Y-86233000D03*
%TO.P,J5,5,Pin_5*%
%TO.N,/GPIO0*%
X167894000Y-88773000D03*
%TO.P,J5,6,Pin_6*%
%TO.N,/SYNC*%
X165354000Y-88773000D03*
%TO.P,J5,7,Pin_7*%
%TO.N,/out_l*%
X167894000Y-91313000D03*
%TO.P,J5,8,Pin_8*%
%TO.N,/in_l*%
X165354000Y-91313000D03*
%TO.P,J5,9,Pin_9*%
%TO.N,/out_r*%
X167894000Y-93853000D03*
%TO.P,J5,10,Pin_10*%
%TO.N,/in_r*%
X165354000Y-93853000D03*
%TO.P,J5,11,Pin_11*%
%TO.N,GND*%
X167894000Y-96393000D03*
%TO.P,J5,12,Pin_12*%
%TO.N,+3.3V*%
X165354000Y-96393000D03*
%TD*%
D12*
%TO.P,RV1,1,1*%
%TO.N,-5VA*%
X106720000Y-111140000D03*
%TO.P,RV1,2,2*%
%TO.N,Net-(R3-Pad2)*%
X109220000Y-111140000D03*
%TO.P,RV1,3,3*%
%TO.N,GND*%
X111720000Y-111140000D03*
D13*
%TO.P,RV1,M1*%
%TO.N,N/C*%
X104720000Y-104140000D03*
%TO.P,RV1,M2*%
X113720000Y-104140000D03*
%TD*%
D10*
%TO.P,J3,S*%
%TO.N,GND*%
X149101000Y-136906000D03*
D11*
%TO.P,J3,T*%
%TO.N,Net-(J3-PadT)*%
X137701000Y-136906000D03*
%TO.P,J3,TN*%
%TO.N,GND*%
X146001000Y-136906000D03*
%TD*%
D10*
%TO.P,J6,S*%
%TO.N,GND*%
X103248000Y-136906000D03*
D11*
%TO.P,J6,T*%
%TO.N,Net-(J6-PadT)*%
X114648000Y-136906000D03*
%TO.P,J6,TN*%
%TO.N,GND*%
X106348000Y-136906000D03*
%TD*%
D18*
%TO.P,U4,1,IN*%
%TO.N,+12V*%
X123825000Y-71501000D03*
D19*
%TO.P,U4,2,GND*%
%TO.N,GND*%
X126365000Y-71501000D03*
%TO.P,U4,3,OUT*%
%TO.N,+5V*%
X128905000Y-71501000D03*
%TD*%
D20*
%TO.P,J8,1,Pin_1*%
%TO.N,Net-(D1-K)*%
X106299000Y-91313000D03*
D21*
%TO.P,J8,2,Pin_2*%
X108839000Y-91313000D03*
%TO.P,J8,3,Pin_3*%
%TO.N,GND*%
X106299000Y-88773000D03*
%TO.P,J8,4,Pin_4*%
X108839000Y-88773000D03*
%TO.P,J8,5,Pin_5*%
X106299000Y-86233000D03*
%TO.P,J8,6,Pin_6*%
X108839000Y-86233000D03*
%TO.P,J8,7,Pin_7*%
X106299000Y-83693000D03*
%TO.P,J8,8,Pin_8*%
X108839000Y-83693000D03*
%TO.P,J8,9,Pin_9*%
%TO.N,Net-(D2-A)*%
X106299000Y-81153000D03*
%TO.P,J8,10,Pin_10*%
X108839000Y-81153000D03*
%TO.P,J8,11,Pin_11*%
%TO.N,unconnected-(J8-Pin_11-Pad11)*%
X106299000Y-78613000D03*
%TO.P,J8,12,Pin_12*%
%TO.N,unconnected-(J8-Pin_12-Pad12)*%
X108839000Y-78613000D03*
%TO.P,J8,13,Pin_13*%
%TO.N,unconnected-(J8-Pin_13-Pad13)*%
X106299000Y-76073000D03*
%TO.P,J8,14,Pin_14*%
%TO.N,unconnected-(J8-Pin_14-Pad14)*%
X108839000Y-76073000D03*
%TO.P,J8,15,Pin_15*%
%TO.N,unconnected-(J8-Pin_15-Pad15)*%
X106299000Y-73533000D03*
%TO.P,J8,16,Pin_16*%
%TO.N,unconnected-(J8-Pin_16-Pad16)*%
X108839000Y-73533000D03*
%TD*%
D22*
%TO.N,-5VA*%
X118364000Y-120142000D03*
X147701000Y-130683000D03*
X120396000Y-120142000D03*
%TO.N,GND*%
X143002000Y-85598000D03*
X144653000Y-106426000D03*
X159131000Y-82042000D03*
X121158000Y-82931000D03*
X144399000Y-76073000D03*
X143002000Y-96012000D03*
X159131000Y-86995000D03*
X119024400Y-97586800D03*
X141986000Y-72517000D03*
X130302000Y-122428000D03*
X133477000Y-106426000D03*
X159131000Y-83693000D03*
X144780000Y-122428000D03*
X159131000Y-85344000D03*
X121158000Y-89535000D03*
%TO.N,+3.3VA*%
X138633200Y-96901000D03*
X134620000Y-96901000D03*
D23*
%TO.N,/CV1*%
X139178800Y-97942400D03*
X135280400Y-97942400D03*
%TO.N,/CV2*%
X138023600Y-97446600D03*
X135661900Y-97446600D03*
D22*
%TO.N,-12V*%
X137033000Y-121793000D03*
X131826000Y-99263200D03*
%TO.N,+12V*%
X131826000Y-98145600D03*
X138086100Y-121793000D03*
D23*
%TO.N,Net-(C19-Pad2)*%
X148100000Y-110550000D03*
X153035000Y-91186000D03*
%TO.N,Net-(C20-Pad2)*%
X147668700Y-111207024D03*
X153162000Y-96393000D03*
%TO.N,/GPIO0*%
X151193500Y-107251500D03*
X150317200Y-109321600D03*
D22*
%TO.N,+3.3V*%
X158877000Y-88773000D03*
D23*
X152527000Y-70993000D03*
X155067000Y-76581000D03*
X149225000Y-76581000D03*
X152527000Y-76581000D03*
X149225000Y-70993000D03*
X157353000Y-70993000D03*
X157480000Y-76581000D03*
X155067000Y-70993000D03*
D22*
X166599500Y-81255500D03*
D23*
%TO.N,Net-(R5-Pad2)*%
X119811300Y-110286800D03*
X118567700Y-110286800D03*
%TO.N,Net-(R9-Pad2)*%
X152146000Y-109982000D03*
X150317200Y-109982000D03*
%TD*%
D24*
%TO.N,+3.3V*%
X166599500Y-81255500D02*
X166599500Y-89457900D01*
X166599500Y-89457900D02*
X166014400Y-90043000D01*
X166014400Y-90043000D02*
X166624000Y-90652600D01*
X166624000Y-90652600D02*
X166624000Y-90804905D01*
X166624000Y-90804905D02*
X166599500Y-90829405D01*
X166599500Y-90829405D02*
X166599500Y-95274500D01*
X166599500Y-95274500D02*
X165481000Y-96393000D01*
X166014400Y-90043000D02*
X160147000Y-90043000D01*
X160147000Y-90043000D02*
X158877000Y-88773000D01*
%TO.N,-5VA*%
X158797000Y-130683000D02*
X160060000Y-129420000D01*
X147701000Y-130683000D02*
X158797000Y-130683000D01*
X118364000Y-120142000D02*
X120396000Y-120142000D01*
%TO.N,+3.3VA*%
X138633200Y-96901000D02*
X134620000Y-96901000D01*
D25*
%TO.N,/CV1*%
X139178800Y-97942400D02*
X135280400Y-97942400D01*
%TO.N,/CV2*%
X138011400Y-97434400D02*
X138023600Y-97446600D01*
X135674100Y-97434400D02*
X138011400Y-97434400D01*
X135661900Y-97446600D02*
X135674100Y-97434400D01*
D24*
%TO.N,-12V*%
X136448800Y-100838000D02*
X137261600Y-101650800D01*
X131826000Y-99263200D02*
X133400800Y-100838000D01*
X137261600Y-101650800D02*
X137261600Y-121564400D01*
X133400800Y-100838000D02*
X136448800Y-100838000D01*
X137261600Y-121564400D02*
X137033000Y-121793000D01*
%TO.N,+12V*%
X136906000Y-100076000D02*
X138049000Y-101219000D01*
X138049000Y-101219000D02*
X138049000Y-121793000D01*
X131826000Y-98145600D02*
X133756400Y-100076000D01*
X133756400Y-100076000D02*
X136906000Y-100076000D01*
D25*
%TO.N,Net-(C19-Pad2)*%
X148082000Y-96139000D02*
X148082000Y-110532000D01*
X153035000Y-91186000D02*
X148082000Y-96139000D01*
X148082000Y-110532000D02*
X148100000Y-110550000D01*
%TO.N,Net-(C20-Pad2)*%
X148053634Y-111207024D02*
X147668700Y-111207024D01*
X148590000Y-100965000D02*
X148590000Y-110670658D01*
X148590000Y-110670658D02*
X148053634Y-111207024D01*
X153162000Y-96393000D02*
X148590000Y-100965000D01*
%TO.N,/GPIO0*%
X150317200Y-108127800D02*
X151193500Y-107251500D01*
X150317200Y-109321600D02*
X150317200Y-108127800D01*
%TO.N,Net-(J6-PadT)*%
X110617000Y-142924000D02*
X110617000Y-140937000D01*
X110617000Y-140937000D02*
X114648000Y-136906000D01*
X106348000Y-147193000D02*
X110617000Y-142924000D01*
%TO.N,Net-(R5-Pad2)*%
X118567700Y-110286800D02*
X119811300Y-110286800D01*
%TO.N,Net-(R9-Pad2)*%
X152146000Y-109982000D02*
X150317200Y-109982000D01*
%TD*%
%TA.AperFunction,Conductor*%
%TO.N,+3.3V*%
G36*
X158947039Y-69107685D02*
G01*
X158992794Y-69160489D01*
X159004000Y-69212000D01*
X159004000Y-78743000D01*
X158984315Y-78810039D01*
X158931511Y-78855794D01*
X158880000Y-78867000D01*
X147952000Y-78867000D01*
X147884961Y-78847315D01*
X147839206Y-78794511D01*
X147828000Y-78743000D01*
X147828000Y-69212000D01*
X147847685Y-69144961D01*
X147900489Y-69099206D01*
X147952000Y-69088000D01*
X158880000Y-69088000D01*
X158947039Y-69107685D01*
G37*
%TD.AperFunction*%
%TD*%
%TA.AperFunction,Conductor*%
%TO.N,GND*%
G36*
X169741121Y-68092002D02*
G01*
X169787614Y-68145658D01*
X169799000Y-68198000D01*
X169799000Y-135634985D01*
X169778998Y-135703106D01*
X169725342Y-135749599D01*
X169655068Y-135759703D01*
X169602999Y-135739751D01*
X169546105Y-135701736D01*
X169472022Y-135687000D01*
X168786000Y-135687000D01*
X168786000Y-136349534D01*
X168758341Y-136334329D01*
X168609061Y-136296000D01*
X168493625Y-136296000D01*
X168379094Y-136310469D01*
X168278000Y-136350494D01*
X168278000Y-135687000D01*
X167591986Y-135687000D01*
X167591976Y-135687001D01*
X167517894Y-135701737D01*
X167517892Y-135701737D01*
X167433875Y-135757875D01*
X167377737Y-135841893D01*
X167377736Y-135841894D01*
X167363000Y-135915977D01*
X167362999Y-135915984D01*
X167363000Y-136652000D01*
X167977362Y-136652000D01*
X167947245Y-136716002D01*
X167918365Y-136867393D01*
X167928043Y-137021211D01*
X167973138Y-137160000D01*
X167363001Y-137160000D01*
X167363001Y-137896022D01*
X167377737Y-137970105D01*
X167377737Y-137970107D01*
X167433875Y-138054124D01*
X167517893Y-138110262D01*
X167517894Y-138110263D01*
X167591980Y-138124999D01*
X168278000Y-138124999D01*
X168278000Y-137462465D01*
X168305659Y-137477671D01*
X168454939Y-137516000D01*
X168570375Y-137516000D01*
X168684906Y-137501531D01*
X168786000Y-137461505D01*
X168786000Y-138124999D01*
X169472014Y-138124999D01*
X169472022Y-138124998D01*
X169546105Y-138110262D01*
X169546106Y-138110262D01*
X169602998Y-138072249D01*
X169670751Y-138051034D01*
X169739218Y-138069817D01*
X169786661Y-138122634D01*
X169799000Y-138177014D01*
X169799000Y-145921985D01*
X169778998Y-145990106D01*
X169725342Y-146036599D01*
X169655068Y-146046703D01*
X169602999Y-146026751D01*
X169546105Y-145988736D01*
X169472022Y-145974000D01*
X168786000Y-145974000D01*
X168786000Y-146636534D01*
X168758341Y-146621329D01*
X168609061Y-146583000D01*
X168493625Y-146583000D01*
X168379094Y-146597469D01*
X168278000Y-146637494D01*
X168278000Y-145974000D01*
X167591986Y-145974000D01*
X167591976Y-145974001D01*
X167517894Y-145988737D01*
X167517892Y-145988737D01*
X167433875Y-146044875D01*
X167377737Y-146128893D01*
X167377736Y-146128894D01*
X167363000Y-146202977D01*
X167362999Y-146202984D01*
X167363000Y-146939000D01*
X167977362Y-146939000D01*
X167947245Y-147003002D01*
X167918365Y-147154393D01*
X167928043Y-147308211D01*
X167973138Y-147447000D01*
X167363001Y-147447000D01*
X167363001Y-148183022D01*
X167377737Y-148257105D01*
X167377737Y-148257107D01*
X167433875Y-148341124D01*
X167517893Y-148397262D01*
X167517894Y-148397263D01*
X167591980Y-148411999D01*
X168278000Y-148411999D01*
X168278000Y-147749465D01*
X168305659Y-147764671D01*
X168454939Y-147803000D01*
X168570375Y-147803000D01*
X168684906Y-147788531D01*
X168786000Y-147748505D01*
X168786000Y-148411999D01*
X169472014Y-148411999D01*
X169472022Y-148411998D01*
X169546105Y-148397262D01*
X169546106Y-148397262D01*
X169602998Y-148359249D01*
X169670751Y-148338034D01*
X169739218Y-148356817D01*
X169786661Y-148409634D01*
X169799000Y-148464014D01*
X169799000Y-151893000D01*
X169778998Y-151961121D01*
X169725342Y-152007614D01*
X169673000Y-152019000D01*
X102107000Y-152019000D01*
X102038879Y-151998998D01*
X101992386Y-151945342D01*
X101981000Y-151893000D01*
X101981000Y-148464014D01*
X102001002Y-148395893D01*
X102054658Y-148349400D01*
X102124932Y-148339296D01*
X102177002Y-148359249D01*
X102233893Y-148397262D01*
X102233894Y-148397263D01*
X102307980Y-148411999D01*
X102994000Y-148411999D01*
X102994000Y-147749465D01*
X103021659Y-147764671D01*
X103170939Y-147803000D01*
X103286375Y-147803000D01*
X103400906Y-147788531D01*
X103502000Y-147748505D01*
X103502000Y-148411999D01*
X104188014Y-148411999D01*
X104188022Y-148411998D01*
X104262105Y-148397262D01*
X104262107Y-148397262D01*
X104346124Y-148341124D01*
X104402262Y-148257106D01*
X104402263Y-148257105D01*
X104416999Y-148183022D01*
X104417000Y-148183015D01*
X104417000Y-147447000D01*
X103802638Y-147447000D01*
X103832755Y-147382998D01*
X103861635Y-147231607D01*
X103859206Y-147193000D01*
X105023460Y-147193000D01*
X105031003Y-147279210D01*
X105043583Y-147423003D01*
X105103339Y-147646016D01*
X105103341Y-147646022D01*
X105200916Y-147855273D01*
X105333338Y-148044393D01*
X105333347Y-148044403D01*
X105496596Y-148207652D01*
X105496606Y-148207661D01*
X105685726Y-148340083D01*
X105685729Y-148340084D01*
X105685730Y-148340085D01*
X105894981Y-148437660D01*
X106117996Y-148497417D01*
X106348000Y-148517540D01*
X106578004Y-148497417D01*
X106801019Y-148437660D01*
X107010270Y-148340085D01*
X107010273Y-148340083D01*
X107199393Y-148207661D01*
X107199395Y-148207658D01*
X107199398Y-148207657D01*
X107362657Y-148044398D01*
X107461665Y-147903000D01*
X107495083Y-147855273D01*
X107495083Y-147855272D01*
X107495085Y-147855270D01*
X107592660Y-147646019D01*
X107652417Y-147423004D01*
X107672540Y-147193000D01*
X113323460Y-147193000D01*
X113331002Y-147279210D01*
X113343583Y-147423003D01*
X113403339Y-147646016D01*
X113403341Y-147646022D01*
X113500916Y-147855273D01*
X113633338Y-148044393D01*
X113633347Y-148044403D01*
X113796596Y-148207652D01*
X113796606Y-148207661D01*
X113985726Y-148340083D01*
X113985729Y-148340084D01*
X113985730Y-148340085D01*
X114194981Y-148437660D01*
X114417996Y-148497417D01*
X114648000Y-148517540D01*
X114878004Y-148497417D01*
X115101019Y-148437660D01*
X115310270Y-148340085D01*
X115310273Y-148340083D01*
X115499393Y-148207661D01*
X115499395Y-148207658D01*
X115499398Y-148207657D01*
X115662657Y-148044398D01*
X115761665Y-147903000D01*
X115795083Y-147855273D01*
X115795083Y-147855272D01*
X115795085Y-147855270D01*
X115892660Y-147646019D01*
X115952417Y-147423004D01*
X115972540Y-147193000D01*
X115952417Y-146962996D01*
X115945987Y-146939000D01*
X121510000Y-146939000D01*
X122124362Y-146939000D01*
X122094245Y-147003002D01*
X122065365Y-147154393D01*
X122075043Y-147308211D01*
X122120138Y-147447000D01*
X121510001Y-147447000D01*
X121510001Y-148183022D01*
X121524737Y-148257105D01*
X121524737Y-148257107D01*
X121580875Y-148341124D01*
X121664893Y-148397262D01*
X121664894Y-148397263D01*
X121738980Y-148411999D01*
X122424999Y-148411999D01*
X122424999Y-147749465D01*
X122452659Y-147764671D01*
X122601939Y-147803000D01*
X122717375Y-147803000D01*
X122831906Y-147788531D01*
X122933000Y-147748505D01*
X122933000Y-148411999D01*
X123619014Y-148411999D01*
X123619022Y-148411998D01*
X123693105Y-148397262D01*
X123693107Y-148397262D01*
X123777124Y-148341124D01*
X123833262Y-148257106D01*
X123833263Y-148257105D01*
X123847999Y-148183022D01*
X123848000Y-148183015D01*
X123848000Y-147447000D01*
X123233638Y-147447000D01*
X123263755Y-147382998D01*
X123292635Y-147231607D01*
X123290206Y-147192999D01*
X124454962Y-147192999D01*
X124475077Y-147422920D01*
X124534810Y-147645845D01*
X124534812Y-147645851D01*
X124632349Y-147855019D01*
X124684001Y-147928786D01*
X124684002Y-147928786D01*
X125129505Y-147483282D01*
X125190390Y-147599288D01*
X125304725Y-147728346D01*
X125446623Y-147826291D01*
X125488888Y-147842320D01*
X125043212Y-148287996D01*
X125043212Y-148287997D01*
X125116982Y-148339651D01*
X125116981Y-148339651D01*
X125326148Y-148437187D01*
X125326154Y-148437189D01*
X125549079Y-148496922D01*
X125779000Y-148517037D01*
X126008920Y-148496922D01*
X126231845Y-148437189D01*
X126231851Y-148437187D01*
X126441015Y-148339652D01*
X126514786Y-148287996D01*
X126514786Y-148287995D01*
X126069111Y-147842320D01*
X126111377Y-147826291D01*
X126253275Y-147728346D01*
X126367610Y-147599288D01*
X126428493Y-147483285D01*
X126873995Y-147928786D01*
X126873996Y-147928786D01*
X126925652Y-147855015D01*
X127023187Y-147645851D01*
X127023189Y-147645845D01*
X127082922Y-147422920D01*
X127103037Y-147193000D01*
X132754460Y-147193000D01*
X132762002Y-147279210D01*
X132774583Y-147423003D01*
X132834339Y-147646016D01*
X132834341Y-147646022D01*
X132931916Y-147855273D01*
X133064338Y-148044393D01*
X133064347Y-148044403D01*
X133227596Y-148207652D01*
X133227606Y-148207661D01*
X133416726Y-148340083D01*
X133416729Y-148340084D01*
X133416730Y-148340085D01*
X133625981Y-148437660D01*
X133848996Y-148497417D01*
X134079000Y-148517540D01*
X134309004Y-148497417D01*
X134532019Y-148437660D01*
X134741270Y-148340085D01*
X134741273Y-148340083D01*
X134930393Y-148207661D01*
X134930395Y-148207658D01*
X134930398Y-148207657D01*
X135093657Y-148044398D01*
X135192665Y-147903000D01*
X135226083Y-147855273D01*
X135226083Y-147855272D01*
X135226085Y-147855270D01*
X135323660Y-147646019D01*
X135383417Y-147423004D01*
X135403540Y-147193000D01*
X136376460Y-147193000D01*
X136384003Y-147279210D01*
X136396583Y-147423003D01*
X136456339Y-147646016D01*
X136456341Y-147646022D01*
X136553916Y-147855273D01*
X136686338Y-148044393D01*
X136686347Y-148044403D01*
X136849596Y-148207652D01*
X136849606Y-148207661D01*
X137038726Y-148340083D01*
X137038729Y-148340084D01*
X137038730Y-148340085D01*
X137247981Y-148437660D01*
X137470996Y-148497417D01*
X137701000Y-148517540D01*
X137931004Y-148497417D01*
X138154019Y-148437660D01*
X138363270Y-148340085D01*
X138363273Y-148340083D01*
X138552393Y-148207661D01*
X138552395Y-148207658D01*
X138552398Y-148207657D01*
X138715657Y-148044398D01*
X138814665Y-147903000D01*
X138848083Y-147855273D01*
X138848083Y-147855272D01*
X138848085Y-147855270D01*
X138945660Y-147646019D01*
X139005417Y-147423004D01*
X139025540Y-147193000D01*
X139025540Y-147192999D01*
X144676962Y-147192999D01*
X144697077Y-147422920D01*
X144756810Y-147645845D01*
X144756812Y-147645851D01*
X144854349Y-147855019D01*
X144906001Y-147928786D01*
X144906002Y-147928786D01*
X145351505Y-147483282D01*
X145412390Y-147599288D01*
X145526725Y-147728346D01*
X145668623Y-147826291D01*
X145710888Y-147842320D01*
X145265212Y-148287996D01*
X145265212Y-148287997D01*
X145338982Y-148339651D01*
X145338981Y-148339651D01*
X145548148Y-148437187D01*
X145548154Y-148437189D01*
X145771079Y-148496922D01*
X146000999Y-148517037D01*
X146230920Y-148496922D01*
X146453845Y-148437189D01*
X146453851Y-148437187D01*
X146663015Y-148339652D01*
X146736786Y-148287996D01*
X146736786Y-148287995D01*
X146291111Y-147842320D01*
X146333377Y-147826291D01*
X146475275Y-147728346D01*
X146589610Y-147599288D01*
X146650493Y-147483284D01*
X147095995Y-147928786D01*
X147095996Y-147928786D01*
X147147652Y-147855015D01*
X147245187Y-147645851D01*
X147245189Y-147645845D01*
X147304922Y-147422920D01*
X147325037Y-147193000D01*
X147304922Y-146963079D01*
X147298470Y-146939000D01*
X147932000Y-146939000D01*
X148546362Y-146939000D01*
X148516245Y-147003002D01*
X148487365Y-147154393D01*
X148497043Y-147308211D01*
X148542138Y-147447000D01*
X147932001Y-147447000D01*
X147932001Y-148183022D01*
X147946737Y-148257105D01*
X147946737Y-148257107D01*
X148002875Y-148341124D01*
X148086893Y-148397262D01*
X148086894Y-148397263D01*
X148160980Y-148411999D01*
X148847000Y-148411999D01*
X148847000Y-147749465D01*
X148874659Y-147764671D01*
X149023939Y-147803000D01*
X149139375Y-147803000D01*
X149253906Y-147788531D01*
X149355000Y-147748505D01*
X149355000Y-148411999D01*
X150041014Y-148411999D01*
X150041022Y-148411998D01*
X150115105Y-148397262D01*
X150115107Y-148397262D01*
X150199124Y-148341124D01*
X150255262Y-148257106D01*
X150255263Y-148257105D01*
X150269999Y-148183022D01*
X150270000Y-148183015D01*
X150270000Y-147447000D01*
X149655638Y-147447000D01*
X149685755Y-147382998D01*
X149714635Y-147231607D01*
X149712206Y-147193000D01*
X155807460Y-147193000D01*
X155815002Y-147279210D01*
X155827583Y-147423003D01*
X155887339Y-147646016D01*
X155887341Y-147646022D01*
X155984916Y-147855273D01*
X156117338Y-148044393D01*
X156117347Y-148044403D01*
X156280596Y-148207652D01*
X156280606Y-148207661D01*
X156469726Y-148340083D01*
X156469729Y-148340084D01*
X156469730Y-148340085D01*
X156678981Y-148437660D01*
X156901996Y-148497417D01*
X157132000Y-148517540D01*
X157362004Y-148497417D01*
X157585019Y-148437660D01*
X157794270Y-148340085D01*
X157794273Y-148340083D01*
X157983393Y-148207661D01*
X157983395Y-148207658D01*
X157983398Y-148207657D01*
X158146657Y-148044398D01*
X158245665Y-147903000D01*
X158279083Y-147855273D01*
X158279083Y-147855272D01*
X158279085Y-147855270D01*
X158376660Y-147646019D01*
X158436417Y-147423004D01*
X158456540Y-147193000D01*
X164107460Y-147193000D01*
X164115003Y-147279210D01*
X164127583Y-147423003D01*
X164187339Y-147646016D01*
X164187341Y-147646022D01*
X164284916Y-147855273D01*
X164417338Y-148044393D01*
X164417347Y-148044403D01*
X164580596Y-148207652D01*
X164580606Y-148207661D01*
X164769726Y-148340083D01*
X164769729Y-148340084D01*
X164769730Y-148340085D01*
X164978981Y-148437660D01*
X165201996Y-148497417D01*
X165432000Y-148517540D01*
X165662004Y-148497417D01*
X165885019Y-148437660D01*
X166094270Y-148340085D01*
X166094273Y-148340083D01*
X166283393Y-148207661D01*
X166283395Y-148207658D01*
X166283398Y-148207657D01*
X166446657Y-148044398D01*
X166545665Y-147903000D01*
X166579083Y-147855273D01*
X166579083Y-147855272D01*
X166579085Y-147855270D01*
X166676660Y-147646019D01*
X166736417Y-147423004D01*
X166756540Y-147193000D01*
X166736417Y-146962996D01*
X166676660Y-146739981D01*
X166579085Y-146530730D01*
X166579084Y-146530729D01*
X166579083Y-146530726D01*
X166446661Y-146341606D01*
X166446652Y-146341596D01*
X166283403Y-146178347D01*
X166283393Y-146178338D01*
X166094273Y-146045916D01*
X165885022Y-145948341D01*
X165885016Y-145948339D01*
X165786661Y-145921985D01*
X165662004Y-145888583D01*
X165432000Y-145868460D01*
X165431999Y-145868460D01*
X165201996Y-145888583D01*
X164978983Y-145948339D01*
X164978977Y-145948341D01*
X164769726Y-146045916D01*
X164580606Y-146178338D01*
X164580596Y-146178347D01*
X164417347Y-146341596D01*
X164417338Y-146341606D01*
X164284916Y-146530726D01*
X164187341Y-146739977D01*
X164187339Y-146739983D01*
X164186050Y-146744795D01*
X164127583Y-146962996D01*
X164107460Y-147193000D01*
X158456540Y-147193000D01*
X158436417Y-146962996D01*
X158376660Y-146739981D01*
X158279085Y-146530730D01*
X158279084Y-146530729D01*
X158279083Y-146530726D01*
X158146661Y-146341606D01*
X158146652Y-146341596D01*
X157983403Y-146178347D01*
X157983393Y-146178338D01*
X157794273Y-146045916D01*
X157585022Y-145948341D01*
X157585016Y-145948339D01*
X157486661Y-145921985D01*
X157362004Y-145888583D01*
X157132000Y-145868460D01*
X156901996Y-145888583D01*
X156678983Y-145948339D01*
X156678977Y-145948341D01*
X156469726Y-146045916D01*
X156280606Y-146178338D01*
X156280596Y-146178347D01*
X156117347Y-146341596D01*
X156117338Y-146341606D01*
X155984916Y-146530726D01*
X155887341Y-146739977D01*
X155887339Y-146739983D01*
X155886050Y-146744795D01*
X155827583Y-146962996D01*
X155807460Y-147193000D01*
X149712206Y-147193000D01*
X149704957Y-147077789D01*
X149659862Y-146939000D01*
X150269999Y-146939000D01*
X150269999Y-146202986D01*
X150269998Y-146202977D01*
X150255262Y-146128894D01*
X150255262Y-146128892D01*
X150199124Y-146044875D01*
X150115106Y-145988737D01*
X150115105Y-145988736D01*
X150041022Y-145974000D01*
X149355000Y-145974000D01*
X149355000Y-146636534D01*
X149327341Y-146621329D01*
X149178061Y-146583000D01*
X149062625Y-146583000D01*
X148948094Y-146597469D01*
X148847000Y-146637494D01*
X148847000Y-145974000D01*
X148160986Y-145974000D01*
X148160976Y-145974001D01*
X148086894Y-145988737D01*
X148086892Y-145988737D01*
X148002875Y-146044875D01*
X147946737Y-146128893D01*
X147946736Y-146128894D01*
X147932000Y-146202977D01*
X147932000Y-146939000D01*
X147298470Y-146939000D01*
X147245189Y-146740154D01*
X147245187Y-146740148D01*
X147147651Y-146530981D01*
X147095996Y-146457212D01*
X146650493Y-146902714D01*
X146589610Y-146786712D01*
X146475275Y-146657654D01*
X146333377Y-146559709D01*
X146291109Y-146543678D01*
X146736786Y-146098002D01*
X146736786Y-146098001D01*
X146663019Y-146046349D01*
X146453851Y-145948812D01*
X146453845Y-145948810D01*
X146230920Y-145889077D01*
X146000999Y-145868962D01*
X145771079Y-145889077D01*
X145548154Y-145948810D01*
X145548148Y-145948812D01*
X145338977Y-146046350D01*
X145265212Y-146098000D01*
X145265212Y-146098001D01*
X145710889Y-146543679D01*
X145668623Y-146559709D01*
X145526725Y-146657654D01*
X145412390Y-146786712D01*
X145351505Y-146902715D01*
X144906001Y-146457212D01*
X144906000Y-146457212D01*
X144854350Y-146530977D01*
X144756812Y-146740148D01*
X144756810Y-146740154D01*
X144697077Y-146963079D01*
X144676962Y-147192999D01*
X139025540Y-147192999D01*
X139005417Y-146962996D01*
X138945660Y-146739981D01*
X138848085Y-146530730D01*
X138848084Y-146530729D01*
X138848083Y-146530726D01*
X138715661Y-146341606D01*
X138715652Y-146341596D01*
X138552403Y-146178347D01*
X138552393Y-146178338D01*
X138363273Y-146045916D01*
X138154022Y-145948341D01*
X138154016Y-145948339D01*
X138055661Y-145921985D01*
X137931004Y-145888583D01*
X137701000Y-145868460D01*
X137470996Y-145888583D01*
X137247983Y-145948339D01*
X137247977Y-145948341D01*
X137038726Y-146045916D01*
X136849606Y-146178338D01*
X136849596Y-146178347D01*
X136686347Y-146341596D01*
X136686338Y-146341606D01*
X136553916Y-146530726D01*
X136456341Y-146739977D01*
X136456339Y-146739983D01*
X136455050Y-146744795D01*
X136396583Y-146962996D01*
X136376460Y-147193000D01*
X135403540Y-147193000D01*
X135383417Y-146962996D01*
X135323660Y-146739981D01*
X135226085Y-146530730D01*
X135226084Y-146530729D01*
X135226083Y-146530726D01*
X135093661Y-146341606D01*
X135093652Y-146341596D01*
X134930403Y-146178347D01*
X134930393Y-146178338D01*
X134741273Y-146045916D01*
X134532022Y-145948341D01*
X134532016Y-145948339D01*
X134433661Y-145921985D01*
X134309004Y-145888583D01*
X134079000Y-145868460D01*
X134078999Y-145868460D01*
X133848996Y-145888583D01*
X133625983Y-145948339D01*
X133625977Y-145948341D01*
X133416726Y-146045916D01*
X133227606Y-146178338D01*
X133227596Y-146178347D01*
X133064347Y-146341596D01*
X133064338Y-146341606D01*
X132931916Y-146530726D01*
X132834341Y-146739977D01*
X132834339Y-146739983D01*
X132833050Y-146744795D01*
X132774583Y-146962996D01*
X132754460Y-147193000D01*
X127103037Y-147193000D01*
X127082922Y-146963079D01*
X127023189Y-146740154D01*
X127023187Y-146740148D01*
X126925651Y-146530981D01*
X126873996Y-146457212D01*
X126428493Y-146902714D01*
X126367610Y-146786712D01*
X126253275Y-146657654D01*
X126111377Y-146559709D01*
X126069109Y-146543678D01*
X126514786Y-146098002D01*
X126514786Y-146098001D01*
X126441019Y-146046349D01*
X126231851Y-145948812D01*
X126231845Y-145948810D01*
X126008920Y-145889077D01*
X125778999Y-145868962D01*
X125549079Y-145889077D01*
X125326154Y-145948810D01*
X125326148Y-145948812D01*
X125116977Y-146046350D01*
X125043212Y-146098000D01*
X125043212Y-146098001D01*
X125488889Y-146543679D01*
X125446623Y-146559709D01*
X125304725Y-146657654D01*
X125190390Y-146786712D01*
X125129505Y-146902715D01*
X124684001Y-146457212D01*
X124684000Y-146457212D01*
X124632350Y-146530977D01*
X124534812Y-146740148D01*
X124534810Y-146740154D01*
X124475077Y-146963079D01*
X124454962Y-147192999D01*
X123290206Y-147192999D01*
X123282957Y-147077789D01*
X123237862Y-146939000D01*
X123847999Y-146939000D01*
X123847999Y-146202986D01*
X123847998Y-146202977D01*
X123833262Y-146128894D01*
X123833262Y-146128892D01*
X123777124Y-146044875D01*
X123693106Y-145988737D01*
X123693105Y-145988736D01*
X123619022Y-145974000D01*
X122933000Y-145974000D01*
X122933000Y-146636534D01*
X122905341Y-146621329D01*
X122756061Y-146583000D01*
X122640625Y-146583000D01*
X122526094Y-146597469D01*
X122424999Y-146637495D01*
X122424999Y-145974000D01*
X121738986Y-145974000D01*
X121738976Y-145974001D01*
X121664894Y-145988737D01*
X121664892Y-145988737D01*
X121580875Y-146044875D01*
X121524737Y-146128893D01*
X121524736Y-146128894D01*
X121510000Y-146202977D01*
X121510000Y-146939000D01*
X115945987Y-146939000D01*
X115892660Y-146739981D01*
X115795085Y-146530730D01*
X115795084Y-146530729D01*
X115795083Y-146530726D01*
X115662661Y-146341606D01*
X115662652Y-146341596D01*
X115499403Y-146178347D01*
X115499393Y-146178338D01*
X115310273Y-146045916D01*
X115101022Y-145948341D01*
X115101016Y-145948339D01*
X115002661Y-145921985D01*
X114878004Y-145888583D01*
X114648000Y-145868460D01*
X114417996Y-145888583D01*
X114194983Y-145948339D01*
X114194977Y-145948341D01*
X113985726Y-146045916D01*
X113796606Y-146178338D01*
X113796596Y-146178347D01*
X113633347Y-146341596D01*
X113633338Y-146341606D01*
X113500916Y-146530726D01*
X113403341Y-146739977D01*
X113403339Y-146739983D01*
X113402050Y-146744795D01*
X113343583Y-146962996D01*
X113323460Y-147193000D01*
X107672540Y-147193000D01*
X107652417Y-146962996D01*
X107592660Y-146739981D01*
X107526919Y-146598999D01*
X107516259Y-146528812D01*
X107545239Y-146463999D01*
X107552007Y-146456671D01*
X110838701Y-143169978D01*
X110842734Y-143166284D01*
X110874239Y-143139849D01*
X110894803Y-143104230D01*
X110897744Y-143099614D01*
X110921340Y-143065916D01*
X110921340Y-143065913D01*
X110923652Y-143060958D01*
X110930678Y-143043995D01*
X110932547Y-143038857D01*
X110932551Y-143038851D01*
X110939694Y-142998331D01*
X110940873Y-142993010D01*
X110951524Y-142953267D01*
X110949511Y-142930263D01*
X110947940Y-142912292D01*
X110947700Y-142906800D01*
X110947700Y-141126169D01*
X110967702Y-141058048D01*
X110984600Y-141037079D01*
X113911660Y-138110018D01*
X113973970Y-138075994D01*
X114044785Y-138081059D01*
X114053979Y-138084910D01*
X114194981Y-138150660D01*
X114417996Y-138210417D01*
X114648000Y-138230540D01*
X114878004Y-138210417D01*
X115101019Y-138150660D01*
X115310270Y-138053085D01*
X115310273Y-138053083D01*
X115499393Y-137920661D01*
X115499395Y-137920658D01*
X115499398Y-137920657D01*
X115662657Y-137757398D01*
X115748361Y-137635000D01*
X115795083Y-137568273D01*
X115795083Y-137568272D01*
X115795085Y-137568270D01*
X115892660Y-137359019D01*
X115952417Y-137136004D01*
X115972540Y-136906000D01*
X115952417Y-136675996D01*
X115945987Y-136652000D01*
X121510000Y-136652000D01*
X122124362Y-136652000D01*
X122094245Y-136716002D01*
X122065365Y-136867393D01*
X122075043Y-137021211D01*
X122120138Y-137160000D01*
X121510001Y-137160000D01*
X121510001Y-137896022D01*
X121524737Y-137970105D01*
X121524737Y-137970107D01*
X121580875Y-138054124D01*
X121664893Y-138110262D01*
X121664894Y-138110263D01*
X121738980Y-138124999D01*
X122424999Y-138124999D01*
X122424999Y-137462465D01*
X122452659Y-137477671D01*
X122601939Y-137516000D01*
X122717375Y-137516000D01*
X122831906Y-137501531D01*
X122933000Y-137461505D01*
X122933000Y-138124999D01*
X123619014Y-138124999D01*
X123619022Y-138124998D01*
X123693105Y-138110262D01*
X123693107Y-138110262D01*
X123777124Y-138054124D01*
X123833262Y-137970106D01*
X123833263Y-137970105D01*
X123847999Y-137896022D01*
X123848000Y-137896015D01*
X123848000Y-137160000D01*
X123233638Y-137160000D01*
X123263755Y-137095998D01*
X123292635Y-136944607D01*
X123290206Y-136906000D01*
X124454962Y-136906000D01*
X124475077Y-137135920D01*
X124534810Y-137358845D01*
X124534812Y-137358851D01*
X124632349Y-137568019D01*
X124684001Y-137641786D01*
X124684003Y-137641786D01*
X125129505Y-137196283D01*
X125190390Y-137312288D01*
X125304725Y-137441346D01*
X125446623Y-137539291D01*
X125488888Y-137555320D01*
X125043212Y-138000996D01*
X125043212Y-138000997D01*
X125116982Y-138052651D01*
X125116981Y-138052651D01*
X125326148Y-138150187D01*
X125326154Y-138150189D01*
X125549079Y-138209922D01*
X125779000Y-138230037D01*
X126008920Y-138209922D01*
X126231845Y-138150189D01*
X126231851Y-138150187D01*
X126441015Y-138052652D01*
X126514786Y-138000996D01*
X126514786Y-138000995D01*
X126069111Y-137555320D01*
X126111377Y-137539291D01*
X126253275Y-137441346D01*
X126367610Y-137312288D01*
X126428494Y-137196284D01*
X126873996Y-137641786D01*
X126925652Y-137568015D01*
X127023187Y-137358851D01*
X127023189Y-137358845D01*
X127082922Y-137135920D01*
X127103037Y-136906000D01*
X132754460Y-136906000D01*
X132762002Y-136992210D01*
X132774583Y-137136003D01*
X132834339Y-137359016D01*
X132834341Y-137359022D01*
X132931916Y-137568273D01*
X133064338Y-137757393D01*
X133064347Y-137757403D01*
X133227596Y-137920652D01*
X133227606Y-137920661D01*
X133416726Y-138053083D01*
X133416729Y-138053084D01*
X133416730Y-138053085D01*
X133625981Y-138150660D01*
X133848996Y-138210417D01*
X134079000Y-138230540D01*
X134309004Y-138210417D01*
X134532019Y-138150660D01*
X134741270Y-138053085D01*
X134741273Y-138053083D01*
X134930393Y-137920661D01*
X134930395Y-137920658D01*
X134930398Y-137920657D01*
X135093657Y-137757398D01*
X135179361Y-137635000D01*
X135226083Y-137568273D01*
X135226083Y-137568272D01*
X135226085Y-137568270D01*
X135323660Y-137359019D01*
X135383417Y-137136004D01*
X135403540Y-136906000D01*
X136376460Y-136906000D01*
X136384002Y-136992210D01*
X136396583Y-137136003D01*
X136456339Y-137359016D01*
X136456341Y-137359022D01*
X136553916Y-137568273D01*
X136686338Y-137757393D01*
X136686347Y-137757403D01*
X136849596Y-137920652D01*
X136849606Y-137920661D01*
X137038726Y-138053083D01*
X137038729Y-138053084D01*
X137038730Y-138053085D01*
X137247981Y-138150660D01*
X137470996Y-138210417D01*
X137701000Y-138230540D01*
X137931004Y-138210417D01*
X138154019Y-138150660D01*
X138363270Y-138053085D01*
X138363273Y-138053083D01*
X138552393Y-137920661D01*
X138552395Y-137920658D01*
X138552398Y-137920657D01*
X138715657Y-137757398D01*
X138801361Y-137635000D01*
X138848083Y-137568273D01*
X138848083Y-137568272D01*
X138848085Y-137568270D01*
X138945660Y-137359019D01*
X139005417Y-137136004D01*
X139025540Y-136906000D01*
X144676962Y-136906000D01*
X144697077Y-137135920D01*
X144756810Y-137358845D01*
X144756812Y-137358851D01*
X144854349Y-137568019D01*
X144906001Y-137641786D01*
X144906002Y-137641786D01*
X145351505Y-137196282D01*
X145412390Y-137312288D01*
X145526725Y-137441346D01*
X145668623Y-137539291D01*
X145710888Y-137555320D01*
X145265212Y-138000996D01*
X145265212Y-138000997D01*
X145338982Y-138052651D01*
X145338981Y-138052651D01*
X145548148Y-138150187D01*
X145548154Y-138150189D01*
X145771079Y-138209922D01*
X146000999Y-138230037D01*
X146230920Y-138209922D01*
X146453845Y-138150189D01*
X146453851Y-138150187D01*
X146663015Y-138052652D01*
X146736786Y-138000996D01*
X146736786Y-138000995D01*
X146291111Y-137555320D01*
X146333377Y-137539291D01*
X146475275Y-137441346D01*
X146589610Y-137312288D01*
X146650493Y-137196284D01*
X147095995Y-137641786D01*
X147095996Y-137641786D01*
X147147652Y-137568015D01*
X147245187Y-137358851D01*
X147245189Y-137358845D01*
X147304922Y-137135920D01*
X147325037Y-136906000D01*
X147304922Y-136676079D01*
X147298470Y-136652000D01*
X147932000Y-136652000D01*
X148546362Y-136652000D01*
X148516245Y-136716002D01*
X148487365Y-136867393D01*
X148497043Y-137021211D01*
X148542138Y-137160000D01*
X147932001Y-137160000D01*
X147932001Y-137896022D01*
X147946737Y-137970105D01*
X147946737Y-137970107D01*
X148002875Y-138054124D01*
X148086893Y-138110262D01*
X148086894Y-138110263D01*
X148160980Y-138124999D01*
X148847000Y-138124999D01*
X148847000Y-137462465D01*
X148874659Y-137477671D01*
X149023939Y-137516000D01*
X149139375Y-137516000D01*
X149253906Y-137501531D01*
X149355000Y-137461505D01*
X149355000Y-138124999D01*
X150041014Y-138124999D01*
X150041022Y-138124998D01*
X150115105Y-138110262D01*
X150115107Y-138110262D01*
X150199124Y-138054124D01*
X150255262Y-137970106D01*
X150255263Y-137970105D01*
X150269999Y-137896022D01*
X150270000Y-137896015D01*
X150270000Y-137160000D01*
X149655638Y-137160000D01*
X149685755Y-137095998D01*
X149714635Y-136944607D01*
X149712206Y-136906000D01*
X155807460Y-136906000D01*
X155815003Y-136992210D01*
X155827583Y-137136003D01*
X155887339Y-137359016D01*
X155887341Y-137359022D01*
X155984916Y-137568273D01*
X156117338Y-137757393D01*
X156117347Y-137757403D01*
X156280596Y-137920652D01*
X156280606Y-137920661D01*
X156469726Y-138053083D01*
X156469729Y-138053084D01*
X156469730Y-138053085D01*
X156678981Y-138150660D01*
X156901996Y-138210417D01*
X157132000Y-138230540D01*
X157362004Y-138210417D01*
X157585019Y-138150660D01*
X157794270Y-138053085D01*
X157794273Y-138053083D01*
X157983393Y-137920661D01*
X157983395Y-137920658D01*
X157983398Y-137920657D01*
X158146657Y-137757398D01*
X158232361Y-137635000D01*
X158279083Y-137568273D01*
X158279083Y-137568272D01*
X158279085Y-137568270D01*
X158376660Y-137359019D01*
X158436417Y-137136004D01*
X158456540Y-136906000D01*
X164107460Y-136906000D01*
X164115002Y-136992210D01*
X164127583Y-137136003D01*
X164187339Y-137359016D01*
X164187341Y-137359022D01*
X164284916Y-137568273D01*
X164417338Y-137757393D01*
X164417347Y-137757403D01*
X164580596Y-137920652D01*
X164580606Y-137920661D01*
X164769726Y-138053083D01*
X164769729Y-138053084D01*
X164769730Y-138053085D01*
X164978981Y-138150660D01*
X165201996Y-138210417D01*
X165432000Y-138230540D01*
X165662004Y-138210417D01*
X165885019Y-138150660D01*
X166094270Y-138053085D01*
X166094273Y-138053083D01*
X166283393Y-137920661D01*
X166283395Y-137920658D01*
X166283398Y-137920657D01*
X166446657Y-137757398D01*
X166532361Y-137635000D01*
X166579083Y-137568273D01*
X166579083Y-137568272D01*
X166579085Y-137568270D01*
X166676660Y-137359019D01*
X166736417Y-137136004D01*
X166756540Y-136906000D01*
X166736417Y-136675996D01*
X166676660Y-136452981D01*
X166579085Y-136243730D01*
X166579084Y-136243729D01*
X166579083Y-136243726D01*
X166446661Y-136054606D01*
X166446652Y-136054596D01*
X166283403Y-135891347D01*
X166283393Y-135891338D01*
X166094273Y-135758916D01*
X165885022Y-135661341D01*
X165885016Y-135661339D01*
X165786661Y-135634985D01*
X165662004Y-135601583D01*
X165432000Y-135581460D01*
X165201996Y-135601583D01*
X164978983Y-135661339D01*
X164978977Y-135661341D01*
X164769726Y-135758916D01*
X164580606Y-135891338D01*
X164580596Y-135891347D01*
X164417347Y-136054596D01*
X164417338Y-136054606D01*
X164284916Y-136243726D01*
X164187341Y-136452977D01*
X164187339Y-136452983D01*
X164186050Y-136457795D01*
X164127583Y-136675996D01*
X164107460Y-136906000D01*
X158456540Y-136906000D01*
X158436417Y-136675996D01*
X158376660Y-136452981D01*
X158279085Y-136243730D01*
X158279084Y-136243729D01*
X158279083Y-136243726D01*
X158146661Y-136054606D01*
X158146652Y-136054596D01*
X157983403Y-135891347D01*
X157983393Y-135891338D01*
X157794273Y-135758916D01*
X157585022Y-135661341D01*
X157585016Y-135661339D01*
X157486661Y-135634985D01*
X157362004Y-135601583D01*
X157132000Y-135581460D01*
X156901996Y-135601583D01*
X156678983Y-135661339D01*
X156678977Y-135661341D01*
X156469726Y-135758916D01*
X156280606Y-135891338D01*
X156280596Y-135891347D01*
X156117347Y-136054596D01*
X156117338Y-136054606D01*
X155984916Y-136243726D01*
X155887341Y-136452977D01*
X155887339Y-136452983D01*
X155886050Y-136457795D01*
X155827583Y-136675996D01*
X155807460Y-136906000D01*
X149712206Y-136906000D01*
X149704957Y-136790789D01*
X149659862Y-136652000D01*
X150269999Y-136652000D01*
X150269999Y-135915986D01*
X150269998Y-135915977D01*
X150255262Y-135841894D01*
X150255262Y-135841892D01*
X150199124Y-135757875D01*
X150115106Y-135701737D01*
X150115105Y-135701736D01*
X150041022Y-135687000D01*
X149355000Y-135687000D01*
X149355000Y-136349534D01*
X149327341Y-136334329D01*
X149178061Y-136296000D01*
X149062625Y-136296000D01*
X148948094Y-136310469D01*
X148847000Y-136350494D01*
X148847000Y-135687000D01*
X148160986Y-135687000D01*
X148160976Y-135687001D01*
X148086894Y-135701737D01*
X148086892Y-135701737D01*
X148002875Y-135757875D01*
X147946737Y-135841893D01*
X147946736Y-135841894D01*
X147932000Y-135915977D01*
X147932000Y-136652000D01*
X147298470Y-136652000D01*
X147245189Y-136453154D01*
X147245187Y-136453148D01*
X147147651Y-136243981D01*
X147095996Y-136170212D01*
X146650493Y-136615714D01*
X146589610Y-136499712D01*
X146475275Y-136370654D01*
X146333377Y-136272709D01*
X146291109Y-136256678D01*
X146736786Y-135811002D01*
X146736786Y-135811001D01*
X146663019Y-135759349D01*
X146453851Y-135661812D01*
X146453845Y-135661810D01*
X146230920Y-135602077D01*
X146000999Y-135581962D01*
X145771079Y-135602077D01*
X145548154Y-135661810D01*
X145548148Y-135661812D01*
X145338977Y-135759350D01*
X145265212Y-135811000D01*
X145265212Y-135811001D01*
X145710889Y-136256679D01*
X145668623Y-136272709D01*
X145526725Y-136370654D01*
X145412390Y-136499712D01*
X145351505Y-136615715D01*
X144906001Y-136170212D01*
X144906000Y-136170212D01*
X144854350Y-136243977D01*
X144756812Y-136453148D01*
X144756810Y-136453154D01*
X144697077Y-136676079D01*
X144676962Y-136906000D01*
X139025540Y-136906000D01*
X139005417Y-136675996D01*
X138945660Y-136452981D01*
X138848085Y-136243730D01*
X138848084Y-136243729D01*
X138848083Y-136243726D01*
X138715661Y-136054606D01*
X138715652Y-136054596D01*
X138552403Y-135891347D01*
X138552393Y-135891338D01*
X138363273Y-135758916D01*
X138154022Y-135661341D01*
X138154016Y-135661339D01*
X138055661Y-135634985D01*
X137931004Y-135601583D01*
X137701000Y-135581460D01*
X137700999Y-135581460D01*
X137470996Y-135601583D01*
X137247983Y-135661339D01*
X137247977Y-135661341D01*
X137038726Y-135758916D01*
X136849606Y-135891338D01*
X136849596Y-135891347D01*
X136686347Y-136054596D01*
X136686338Y-136054606D01*
X136553916Y-136243726D01*
X136456341Y-136452977D01*
X136456339Y-136452983D01*
X136455050Y-136457795D01*
X136396583Y-136675996D01*
X136376460Y-136906000D01*
X135403540Y-136906000D01*
X135383417Y-136675996D01*
X135323660Y-136452981D01*
X135226085Y-136243730D01*
X135226084Y-136243729D01*
X135226083Y-136243726D01*
X135093661Y-136054606D01*
X135093652Y-136054596D01*
X134930403Y-135891347D01*
X134930393Y-135891338D01*
X134741273Y-135758916D01*
X134532022Y-135661341D01*
X134532016Y-135661339D01*
X134433661Y-135634985D01*
X134309004Y-135601583D01*
X134079000Y-135581460D01*
X134078999Y-135581460D01*
X133848996Y-135601583D01*
X133625983Y-135661339D01*
X133625977Y-135661341D01*
X133416726Y-135758916D01*
X133227606Y-135891338D01*
X133227596Y-135891347D01*
X133064347Y-136054596D01*
X133064338Y-136054606D01*
X132931916Y-136243726D01*
X132834341Y-136452977D01*
X132834339Y-136452983D01*
X132833050Y-136457795D01*
X132774583Y-136675996D01*
X132754460Y-136906000D01*
X127103037Y-136906000D01*
X127082922Y-136676079D01*
X127023189Y-136453154D01*
X127023187Y-136453148D01*
X126925651Y-136243981D01*
X126873997Y-136170212D01*
X126873995Y-136170212D01*
X126428493Y-136615713D01*
X126367610Y-136499712D01*
X126253275Y-136370654D01*
X126111377Y-136272709D01*
X126069110Y-136256679D01*
X126514786Y-135811003D01*
X126514786Y-135811001D01*
X126441019Y-135759349D01*
X126231851Y-135661812D01*
X126231845Y-135661810D01*
X126008920Y-135602077D01*
X125779000Y-135581962D01*
X125549079Y-135602077D01*
X125326154Y-135661810D01*
X125326148Y-135661812D01*
X125116980Y-135759349D01*
X125043212Y-135811002D01*
X125488888Y-136256679D01*
X125446623Y-136272709D01*
X125304725Y-136370654D01*
X125190390Y-136499712D01*
X125129505Y-136615715D01*
X124684002Y-136170212D01*
X124684000Y-136170212D01*
X124632350Y-136243977D01*
X124534812Y-136453148D01*
X124534810Y-136453154D01*
X124475077Y-136676079D01*
X124454962Y-136906000D01*
X123290206Y-136906000D01*
X123282957Y-136790789D01*
X123237862Y-136652000D01*
X123847999Y-136652000D01*
X123847999Y-135915986D01*
X123847998Y-135915977D01*
X123833262Y-135841894D01*
X123833262Y-135841892D01*
X123777124Y-135757875D01*
X123693106Y-135701737D01*
X123693105Y-135701736D01*
X123619022Y-135687000D01*
X122933000Y-135687000D01*
X122933000Y-136349534D01*
X122905341Y-136334329D01*
X122756061Y-136296000D01*
X122640625Y-136296000D01*
X122526094Y-136310469D01*
X122424999Y-136350495D01*
X122424999Y-135687000D01*
X121738986Y-135687000D01*
X121738976Y-135687001D01*
X121664894Y-135701737D01*
X121664892Y-135701737D01*
X121580875Y-135757875D01*
X121524737Y-135841893D01*
X121524736Y-135841894D01*
X121510000Y-135915977D01*
X121510000Y-136652000D01*
X115945987Y-136652000D01*
X115892660Y-136452981D01*
X115795085Y-136243730D01*
X115795084Y-136243729D01*
X115795083Y-136243726D01*
X115662661Y-136054606D01*
X115662652Y-136054596D01*
X115499403Y-135891347D01*
X115499393Y-135891338D01*
X115310273Y-135758916D01*
X115101022Y-135661341D01*
X115101016Y-135661339D01*
X115002661Y-135634985D01*
X114878004Y-135601583D01*
X114648000Y-135581460D01*
X114647999Y-135581460D01*
X114417996Y-135601583D01*
X114194983Y-135661339D01*
X114194977Y-135661341D01*
X113985726Y-135758916D01*
X113796606Y-135891338D01*
X113796596Y-135891347D01*
X113633347Y-136054596D01*
X113633338Y-136054606D01*
X113500916Y-136243726D01*
X113403341Y-136452977D01*
X113403339Y-136452983D01*
X113402050Y-136457795D01*
X113343583Y-136675996D01*
X113323460Y-136906000D01*
X113331002Y-136992210D01*
X113343583Y-137136003D01*
X113403339Y-137359016D01*
X113403341Y-137359022D01*
X113469078Y-137499995D01*
X113479739Y-137570187D01*
X113450759Y-137635000D01*
X113443978Y-137642340D01*
X110395323Y-140690996D01*
X110391270Y-140694710D01*
X110359761Y-140721150D01*
X110339198Y-140756765D01*
X110336245Y-140761399D01*
X110312662Y-140795079D01*
X110310376Y-140799982D01*
X110303287Y-140817096D01*
X110301447Y-140822152D01*
X110294306Y-140862651D01*
X110293117Y-140868017D01*
X110282476Y-140907728D01*
X110282476Y-140907732D01*
X110286060Y-140948707D01*
X110286300Y-140954199D01*
X110286300Y-142734829D01*
X110266298Y-142802950D01*
X110249395Y-142823924D01*
X107084340Y-145988978D01*
X107022028Y-146023004D01*
X106951212Y-146017939D01*
X106941995Y-146014078D01*
X106801022Y-145948341D01*
X106801016Y-145948339D01*
X106702661Y-145921985D01*
X106578004Y-145888583D01*
X106348000Y-145868460D01*
X106117996Y-145888583D01*
X105894983Y-145948339D01*
X105894977Y-145948341D01*
X105685726Y-146045916D01*
X105496606Y-146178338D01*
X105496596Y-146178347D01*
X105333347Y-146341596D01*
X105333338Y-146341606D01*
X105200916Y-146530726D01*
X105103341Y-146739977D01*
X105103339Y-146739983D01*
X105102050Y-146744795D01*
X105043583Y-146962996D01*
X105023460Y-147193000D01*
X103859206Y-147193000D01*
X103851957Y-147077789D01*
X103806862Y-146939000D01*
X104416999Y-146939000D01*
X104416999Y-146202986D01*
X104416998Y-146202977D01*
X104402262Y-146128894D01*
X104402262Y-146128892D01*
X104346124Y-146044875D01*
X104262106Y-145988737D01*
X104262105Y-145988736D01*
X104188022Y-145974000D01*
X103502000Y-145974000D01*
X103502000Y-146636534D01*
X103474341Y-146621329D01*
X103325061Y-146583000D01*
X103209625Y-146583000D01*
X103095094Y-146597469D01*
X102994000Y-146637494D01*
X102994000Y-145974000D01*
X102307986Y-145974000D01*
X102307976Y-145974001D01*
X102233894Y-145988737D01*
X102233893Y-145988737D01*
X102177001Y-146026751D01*
X102109248Y-146047965D01*
X102040781Y-146029181D01*
X101993338Y-145976364D01*
X101981000Y-145921985D01*
X101981000Y-138177014D01*
X102001002Y-138108893D01*
X102054658Y-138062400D01*
X102124932Y-138052296D01*
X102177002Y-138072249D01*
X102233893Y-138110262D01*
X102233894Y-138110263D01*
X102307980Y-138124999D01*
X102994000Y-138124999D01*
X102994000Y-137462465D01*
X103021659Y-137477671D01*
X103170939Y-137516000D01*
X103286375Y-137516000D01*
X103400906Y-137501531D01*
X103502000Y-137461505D01*
X103502000Y-138124999D01*
X104188014Y-138124999D01*
X104188022Y-138124998D01*
X104262105Y-138110262D01*
X104262107Y-138110262D01*
X104346124Y-138054124D01*
X104402262Y-137970106D01*
X104402263Y-137970105D01*
X104416999Y-137896022D01*
X104417000Y-137896015D01*
X104417000Y-137160000D01*
X103802638Y-137160000D01*
X103832755Y-137095998D01*
X103861635Y-136944607D01*
X103859206Y-136906000D01*
X105023962Y-136906000D01*
X105044077Y-137135920D01*
X105103810Y-137358845D01*
X105103812Y-137358851D01*
X105201349Y-137568019D01*
X105253001Y-137641786D01*
X105253002Y-137641786D01*
X105698505Y-137196282D01*
X105759390Y-137312288D01*
X105873725Y-137441346D01*
X106015623Y-137539291D01*
X106057888Y-137555320D01*
X105612212Y-138000996D01*
X105612212Y-138000997D01*
X105685982Y-138052651D01*
X105685981Y-138052651D01*
X105895148Y-138150187D01*
X105895154Y-138150189D01*
X106118079Y-138209922D01*
X106347999Y-138230037D01*
X106577920Y-138209922D01*
X106800845Y-138150189D01*
X106800851Y-138150187D01*
X107010015Y-138052652D01*
X107083786Y-138000996D01*
X107083786Y-138000995D01*
X106638111Y-137555320D01*
X106680377Y-137539291D01*
X106822275Y-137441346D01*
X106936610Y-137312288D01*
X106997493Y-137196284D01*
X107442995Y-137641786D01*
X107442996Y-137641786D01*
X107494652Y-137568015D01*
X107592187Y-137358851D01*
X107592189Y-137358845D01*
X107651922Y-137135920D01*
X107672037Y-136906000D01*
X107651922Y-136676079D01*
X107592189Y-136453154D01*
X107592187Y-136453148D01*
X107494651Y-136243981D01*
X107442996Y-136170212D01*
X106997493Y-136615714D01*
X106936610Y-136499712D01*
X106822275Y-136370654D01*
X106680377Y-136272709D01*
X106638109Y-136256678D01*
X107083786Y-135811002D01*
X107083786Y-135811001D01*
X107010019Y-135759349D01*
X106800851Y-135661812D01*
X106800845Y-135661810D01*
X106577920Y-135602077D01*
X106347999Y-135581962D01*
X106118079Y-135602077D01*
X105895154Y-135661810D01*
X105895148Y-135661812D01*
X105685977Y-135759350D01*
X105612212Y-135811000D01*
X105612212Y-135811001D01*
X106057889Y-136256679D01*
X106015623Y-136272709D01*
X105873725Y-136370654D01*
X105759390Y-136499712D01*
X105698505Y-136615715D01*
X105253001Y-136170212D01*
X105253000Y-136170212D01*
X105201350Y-136243977D01*
X105103812Y-136453148D01*
X105103810Y-136453154D01*
X105044077Y-136676079D01*
X105023962Y-136906000D01*
X103859206Y-136906000D01*
X103851957Y-136790789D01*
X103806862Y-136652000D01*
X104416999Y-136652000D01*
X104416999Y-135915986D01*
X104416998Y-135915977D01*
X104402262Y-135841894D01*
X104402262Y-135841892D01*
X104346124Y-135757875D01*
X104262106Y-135701737D01*
X104262105Y-135701736D01*
X104188022Y-135687000D01*
X103502000Y-135687000D01*
X103502000Y-136349534D01*
X103474341Y-136334329D01*
X103325061Y-136296000D01*
X103209625Y-136296000D01*
X103095094Y-136310469D01*
X102994000Y-136350494D01*
X102994000Y-135687000D01*
X102307986Y-135687000D01*
X102307976Y-135687001D01*
X102233894Y-135701737D01*
X102233893Y-135701737D01*
X102177001Y-135739751D01*
X102109248Y-135760965D01*
X102040781Y-135742181D01*
X101993338Y-135689364D01*
X101981000Y-135634985D01*
X101981000Y-130015000D01*
X120595460Y-130015000D01*
X120598488Y-130049604D01*
X120615583Y-130245003D01*
X120675339Y-130468016D01*
X120675341Y-130468022D01*
X120772916Y-130677273D01*
X120905338Y-130866393D01*
X120905347Y-130866403D01*
X121068596Y-131029652D01*
X121068606Y-131029661D01*
X121257726Y-131162083D01*
X121257729Y-131162084D01*
X121257730Y-131162085D01*
X121466981Y-131259660D01*
X121689996Y-131319417D01*
X121920000Y-131339540D01*
X122150004Y-131319417D01*
X122373019Y-131259660D01*
X122582270Y-131162085D01*
X122582273Y-131162083D01*
X122771393Y-131029661D01*
X122771395Y-131029658D01*
X122771398Y-131029657D01*
X122934657Y-130866398D01*
X122958518Y-130832322D01*
X123063073Y-130683000D01*
X147124064Y-130683000D01*
X147143722Y-130832320D01*
X147201358Y-130971466D01*
X147201363Y-130971474D01*
X147293044Y-131090955D01*
X147412525Y-131182636D01*
X147412532Y-131182641D01*
X147551678Y-131240277D01*
X147701000Y-131259936D01*
X147850322Y-131240277D01*
X147989468Y-131182641D01*
X148026744Y-131154037D01*
X148092963Y-131128437D01*
X148103448Y-131128000D01*
X158768472Y-131128000D01*
X158775526Y-131128395D01*
X158813827Y-131132711D01*
X158813827Y-131132710D01*
X158813828Y-131132711D01*
X158813828Y-131132710D01*
X158838873Y-131127971D01*
X158871542Y-131121791D01*
X158898226Y-131117768D01*
X158929647Y-131113033D01*
X158929652Y-131113030D01*
X158937669Y-131110557D01*
X158945625Y-131107773D01*
X158945634Y-131107772D01*
X158997573Y-131080321D01*
X159050509Y-131054829D01*
X159050510Y-131054827D01*
X159057465Y-131050085D01*
X159064227Y-131045093D01*
X159064235Y-131045090D01*
X159105783Y-131003541D01*
X159148844Y-130963587D01*
X159148848Y-130963578D01*
X159154731Y-130956203D01*
X159155424Y-130956755D01*
X159164815Y-130944508D01*
X160059720Y-130049604D01*
X160122033Y-130015579D01*
X160148816Y-130012700D01*
X160161251Y-130012700D01*
X160161254Y-130012700D01*
X160360313Y-129975489D01*
X160360317Y-129975487D01*
X160360319Y-129975487D01*
X160408880Y-129956673D01*
X160549145Y-129902335D01*
X160721320Y-129795729D01*
X160870974Y-129659301D01*
X160993012Y-129497697D01*
X161083277Y-129316420D01*
X161085197Y-129309674D01*
X161120223Y-129186568D01*
X161138696Y-129121643D01*
X161157381Y-128920000D01*
X161462619Y-128920000D01*
X161481304Y-129121646D01*
X161536720Y-129316414D01*
X161536723Y-129316420D01*
X161626988Y-129497697D01*
X161626989Y-129497698D01*
X161749024Y-129659300D01*
X161898680Y-129795729D01*
X161898681Y-129795730D01*
X162070843Y-129902328D01*
X162070846Y-129902329D01*
X162070855Y-129902335D01*
X162153129Y-129934208D01*
X162259680Y-129975487D01*
X162259683Y-129975487D01*
X162259687Y-129975489D01*
X162458746Y-130012700D01*
X162458749Y-130012700D01*
X162661251Y-130012700D01*
X162661254Y-130012700D01*
X162860313Y-129975489D01*
X162860317Y-129975487D01*
X162860319Y-129975487D01*
X162908880Y-129956673D01*
X163049145Y-129902335D01*
X163221320Y-129795729D01*
X163370974Y-129659301D01*
X163493012Y-129497697D01*
X163583277Y-129316420D01*
X163585197Y-129309674D01*
X163620223Y-129186568D01*
X163638696Y-129121643D01*
X163657381Y-128920000D01*
X163963121Y-128920000D01*
X163981797Y-129121552D01*
X164037189Y-129316233D01*
X164037194Y-129316246D01*
X164126065Y-129494722D01*
X164533096Y-129087690D01*
X164536884Y-129105915D01*
X164606442Y-129240156D01*
X164709638Y-129350652D01*
X164838819Y-129429209D01*
X164894421Y-129444788D01*
X164488471Y-129850737D01*
X164571073Y-129901882D01*
X164571077Y-129901884D01*
X164759823Y-129975005D01*
X164958796Y-130012200D01*
X165161204Y-130012200D01*
X165360176Y-129975005D01*
X165548918Y-129901886D01*
X165631526Y-129850736D01*
X165227624Y-129446834D01*
X165348458Y-129394349D01*
X165465739Y-129298934D01*
X165552928Y-129175415D01*
X165584837Y-129085628D01*
X165993932Y-129494723D01*
X166082807Y-129316242D01*
X166082810Y-129316233D01*
X166138202Y-129121552D01*
X166156878Y-128920000D01*
X166138202Y-128718447D01*
X166082810Y-128523766D01*
X166082807Y-128523757D01*
X165993932Y-128345276D01*
X165586902Y-128752306D01*
X165583116Y-128734085D01*
X165513558Y-128599844D01*
X165410362Y-128489348D01*
X165281181Y-128410791D01*
X165225577Y-128395211D01*
X165631527Y-127989262D01*
X165548926Y-127938117D01*
X165548922Y-127938115D01*
X165360176Y-127864994D01*
X165161204Y-127827800D01*
X164958796Y-127827800D01*
X164759823Y-127864994D01*
X164571077Y-127938115D01*
X164571073Y-127938117D01*
X164488471Y-127989262D01*
X164892374Y-128393165D01*
X164771542Y-128445651D01*
X164654261Y-128541066D01*
X164567072Y-128664585D01*
X164535161Y-128754371D01*
X164126065Y-128345276D01*
X164037189Y-128523766D01*
X163981797Y-128718447D01*
X163963121Y-128920000D01*
X163657381Y-128920000D01*
X163638696Y-128718357D01*
X163594685Y-128563674D01*
X163583279Y-128523585D01*
X163583277Y-128523580D01*
X163493012Y-128342303D01*
X163452896Y-128289181D01*
X163370975Y-128180699D01*
X163221319Y-128044270D01*
X163221318Y-128044269D01*
X163049156Y-127937671D01*
X163049149Y-127937667D01*
X163049145Y-127937665D01*
X163049140Y-127937663D01*
X162860319Y-127864512D01*
X162824844Y-127857880D01*
X162661254Y-127827300D01*
X162458746Y-127827300D01*
X162330332Y-127851304D01*
X162259680Y-127864512D01*
X162070859Y-127937663D01*
X162070843Y-127937671D01*
X161898681Y-128044269D01*
X161898680Y-128044270D01*
X161749024Y-128180699D01*
X161626989Y-128342301D01*
X161536720Y-128523585D01*
X161481304Y-128718353D01*
X161462619Y-128920000D01*
X161157381Y-128920000D01*
X161138696Y-128718357D01*
X161094685Y-128563674D01*
X161083279Y-128523585D01*
X161083277Y-128523580D01*
X160993012Y-128342303D01*
X160952896Y-128289181D01*
X160870975Y-128180699D01*
X160721319Y-128044270D01*
X160721318Y-128044269D01*
X160549156Y-127937671D01*
X160549149Y-127937667D01*
X160549145Y-127937665D01*
X160549140Y-127937663D01*
X160360319Y-127864512D01*
X160324844Y-127857880D01*
X160161254Y-127827300D01*
X159958746Y-127827300D01*
X159830332Y-127851304D01*
X159759680Y-127864512D01*
X159570859Y-127937663D01*
X159570843Y-127937671D01*
X159398681Y-128044269D01*
X159398680Y-128044270D01*
X159249024Y-128180699D01*
X159126989Y-128342301D01*
X159036720Y-128523585D01*
X158981304Y-128718353D01*
X158962619Y-128920000D01*
X158981304Y-129121646D01*
X159036720Y-129316414D01*
X159036723Y-129316420D01*
X159126988Y-129497697D01*
X159158145Y-129538956D01*
X159183235Y-129605370D01*
X159168436Y-129674807D01*
X159146691Y-129703982D01*
X158649580Y-130201095D01*
X158587267Y-130235120D01*
X158560484Y-130238000D01*
X148103448Y-130238000D01*
X148035327Y-130217998D01*
X148026753Y-130211969D01*
X147989468Y-130183359D01*
X147850322Y-130125723D01*
X147850320Y-130125722D01*
X147701000Y-130106064D01*
X147551679Y-130125722D01*
X147412533Y-130183358D01*
X147412525Y-130183363D01*
X147293044Y-130275044D01*
X147201363Y-130394525D01*
X147201358Y-130394533D01*
X147143722Y-130533679D01*
X147124064Y-130682999D01*
X147124064Y-130683000D01*
X123063073Y-130683000D01*
X123067083Y-130677273D01*
X123067083Y-130677272D01*
X123067085Y-130677270D01*
X123164660Y-130468019D01*
X123224417Y-130245004D01*
X123244540Y-130015000D01*
X123224417Y-129784996D01*
X123164660Y-129561981D01*
X123067085Y-129352730D01*
X123067084Y-129352729D01*
X123067083Y-129352726D01*
X122934661Y-129163606D01*
X122934652Y-129163596D01*
X122771403Y-129000347D01*
X122771393Y-129000338D01*
X122582273Y-128867916D01*
X122373022Y-128770341D01*
X122373016Y-128770339D01*
X122199830Y-128723934D01*
X122150004Y-128710583D01*
X121920000Y-128690460D01*
X121689996Y-128710583D01*
X121466983Y-128770339D01*
X121466977Y-128770341D01*
X121257726Y-128867916D01*
X121068606Y-129000338D01*
X121068596Y-129000347D01*
X120905347Y-129163596D01*
X120905338Y-129163606D01*
X120772916Y-129352726D01*
X120675341Y-129561977D01*
X120675339Y-129561983D01*
X120649263Y-129659300D01*
X120615583Y-129784996D01*
X120595460Y-130015000D01*
X101981000Y-130015000D01*
X101981000Y-128919999D01*
X105622619Y-128919999D01*
X105641304Y-129121646D01*
X105696720Y-129316414D01*
X105696723Y-129316420D01*
X105786988Y-129497697D01*
X105786989Y-129497698D01*
X105909024Y-129659300D01*
X106058680Y-129795729D01*
X106058681Y-129795730D01*
X106230843Y-129902328D01*
X106230846Y-129902329D01*
X106230855Y-129902335D01*
X106313129Y-129934208D01*
X106419680Y-129975487D01*
X106419683Y-129975487D01*
X106419687Y-129975489D01*
X106618746Y-130012700D01*
X106618749Y-130012700D01*
X106821251Y-130012700D01*
X106821254Y-130012700D01*
X107020313Y-129975489D01*
X107020317Y-129975487D01*
X107020319Y-129975487D01*
X107068880Y-129956673D01*
X107209145Y-129902335D01*
X107381320Y-129795729D01*
X107530974Y-129659301D01*
X107653012Y-129497697D01*
X107743277Y-129316420D01*
X107745197Y-129309674D01*
X107780223Y-129186568D01*
X107798696Y-129121643D01*
X107817381Y-128920000D01*
X108122619Y-128920000D01*
X108141304Y-129121646D01*
X108196720Y-129316414D01*
X108196723Y-129316420D01*
X108286988Y-129497697D01*
X108286989Y-129497698D01*
X108409024Y-129659300D01*
X108558680Y-129795729D01*
X108558681Y-129795730D01*
X108730843Y-129902328D01*
X108730846Y-129902329D01*
X108730855Y-129902335D01*
X108813129Y-129934208D01*
X108919680Y-129975487D01*
X108919683Y-129975487D01*
X108919687Y-129975489D01*
X109118746Y-130012700D01*
X109118749Y-130012700D01*
X109321251Y-130012700D01*
X109321254Y-130012700D01*
X109520313Y-129975489D01*
X109520317Y-129975487D01*
X109520319Y-129975487D01*
X109568880Y-129956673D01*
X109709145Y-129902335D01*
X109881320Y-129795729D01*
X110030974Y-129659301D01*
X110153012Y-129497697D01*
X110243277Y-129316420D01*
X110245197Y-129309674D01*
X110280223Y-129186568D01*
X110298696Y-129121643D01*
X110317381Y-128920000D01*
X110623121Y-128920000D01*
X110641797Y-129121552D01*
X110697189Y-129316233D01*
X110697194Y-129316246D01*
X110786065Y-129494722D01*
X111193096Y-129087690D01*
X111196884Y-129105915D01*
X111266442Y-129240156D01*
X111369638Y-129350652D01*
X111498819Y-129429209D01*
X111554421Y-129444788D01*
X111148471Y-129850737D01*
X111231073Y-129901882D01*
X111231077Y-129901884D01*
X111419823Y-129975005D01*
X111618796Y-130012200D01*
X111821204Y-130012200D01*
X112020176Y-129975005D01*
X112208918Y-129901886D01*
X112291526Y-129850736D01*
X111887624Y-129446834D01*
X112008458Y-129394349D01*
X112125739Y-129298934D01*
X112212928Y-129175415D01*
X112244837Y-129085628D01*
X112653932Y-129494723D01*
X112742807Y-129316242D01*
X112742810Y-129316233D01*
X112798202Y-129121552D01*
X112816878Y-128920000D01*
X112798202Y-128718447D01*
X112742810Y-128523766D01*
X112742807Y-128523757D01*
X112653932Y-128345276D01*
X112246902Y-128752306D01*
X112243116Y-128734085D01*
X112173558Y-128599844D01*
X112070362Y-128489348D01*
X111941181Y-128410791D01*
X111885577Y-128395211D01*
X111935788Y-128345000D01*
X148001708Y-128345000D01*
X148020839Y-128563674D01*
X148053641Y-128686091D01*
X148077652Y-128775700D01*
X148077654Y-128775706D01*
X148170421Y-128974646D01*
X148262336Y-129105915D01*
X148296326Y-129154457D01*
X148451543Y-129309674D01*
X148631354Y-129435579D01*
X148830297Y-129528347D01*
X149042326Y-129585161D01*
X149261000Y-129604292D01*
X149479674Y-129585161D01*
X149691703Y-129528347D01*
X149890646Y-129435579D01*
X150070457Y-129309674D01*
X150225674Y-129154457D01*
X150351579Y-128974646D01*
X150444347Y-128775703D01*
X150501161Y-128563674D01*
X150520292Y-128345000D01*
X152502210Y-128345000D01*
X152521334Y-128563590D01*
X152578123Y-128775529D01*
X152578125Y-128775534D01*
X152670857Y-128974398D01*
X152712671Y-129034115D01*
X152712674Y-129034115D01*
X153234097Y-128512691D01*
X153237884Y-128530915D01*
X153307442Y-128665156D01*
X153410638Y-128775652D01*
X153539819Y-128854209D01*
X153595421Y-128869788D01*
X153071883Y-129393325D01*
X153071883Y-129393327D01*
X153131600Y-129435141D01*
X153131605Y-129435144D01*
X153330465Y-129527874D01*
X153330470Y-129527876D01*
X153542409Y-129584665D01*
X153761000Y-129603789D01*
X153979590Y-129584665D01*
X154191529Y-129527876D01*
X154191534Y-129527874D01*
X154390391Y-129435145D01*
X154450115Y-129393325D01*
X154450115Y-129393324D01*
X153928625Y-128871834D01*
X154049458Y-128819349D01*
X154166739Y-128723934D01*
X154253928Y-128600415D01*
X154285838Y-128510628D01*
X154809325Y-129034115D01*
X154851145Y-128974391D01*
X154943874Y-128775534D01*
X154943876Y-128775529D01*
X155000665Y-128563590D01*
X155019789Y-128344999D01*
X155000665Y-128126409D01*
X154943876Y-127914470D01*
X154943874Y-127914465D01*
X154851144Y-127715605D01*
X154851141Y-127715600D01*
X154809327Y-127655883D01*
X154809324Y-127655883D01*
X154287902Y-128177305D01*
X154284116Y-128159085D01*
X154214558Y-128024844D01*
X154111362Y-127914348D01*
X153982181Y-127835791D01*
X153926577Y-127820211D01*
X154450115Y-127296674D01*
X154450115Y-127296671D01*
X154390398Y-127254857D01*
X154390399Y-127254857D01*
X154191534Y-127162125D01*
X154191529Y-127162123D01*
X153979590Y-127105334D01*
X153761000Y-127086210D01*
X153542409Y-127105334D01*
X153330470Y-127162123D01*
X153330465Y-127162125D01*
X153131605Y-127254855D01*
X153071883Y-127296673D01*
X153593375Y-127818165D01*
X153472542Y-127870651D01*
X153355261Y-127966066D01*
X153268072Y-128089585D01*
X153236161Y-128179371D01*
X152712673Y-127655883D01*
X152670855Y-127715605D01*
X152578125Y-127914465D01*
X152578123Y-127914470D01*
X152521334Y-128126409D01*
X152502210Y-128345000D01*
X150520292Y-128345000D01*
X150501161Y-128126326D01*
X150444347Y-127914297D01*
X150351579Y-127715354D01*
X150225674Y-127535543D01*
X150070457Y-127380326D01*
X149890646Y-127254421D01*
X149890645Y-127254420D01*
X149691706Y-127161654D01*
X149691700Y-127161652D01*
X149602091Y-127137641D01*
X149479674Y-127104839D01*
X149261000Y-127085708D01*
X149042326Y-127104839D01*
X148830299Y-127161652D01*
X148830293Y-127161654D01*
X148631353Y-127254421D01*
X148451546Y-127380323D01*
X148451540Y-127380328D01*
X148296328Y-127535540D01*
X148296323Y-127535546D01*
X148170421Y-127715353D01*
X148077654Y-127914293D01*
X148077652Y-127914299D01*
X148020839Y-128126326D01*
X148005023Y-128307114D01*
X148001708Y-128345000D01*
X111935788Y-128345000D01*
X112291527Y-127989262D01*
X112208926Y-127938117D01*
X112208922Y-127938115D01*
X112020176Y-127864994D01*
X111821204Y-127827800D01*
X111618796Y-127827800D01*
X111419823Y-127864994D01*
X111231077Y-127938115D01*
X111231073Y-127938117D01*
X111148471Y-127989262D01*
X111552374Y-128393165D01*
X111431542Y-128445651D01*
X111314261Y-128541066D01*
X111227072Y-128664585D01*
X111195161Y-128754371D01*
X110786065Y-128345276D01*
X110697189Y-128523766D01*
X110641797Y-128718447D01*
X110623121Y-128920000D01*
X110317381Y-128920000D01*
X110298696Y-128718357D01*
X110254685Y-128563674D01*
X110243279Y-128523585D01*
X110243277Y-128523580D01*
X110153012Y-128342303D01*
X110112896Y-128289181D01*
X110030975Y-128180699D01*
X109881319Y-128044270D01*
X109881318Y-128044269D01*
X109709156Y-127937671D01*
X109709149Y-127937667D01*
X109709145Y-127937665D01*
X109709140Y-127937663D01*
X109520319Y-127864512D01*
X109484844Y-127857880D01*
X109321254Y-127827300D01*
X109118746Y-127827300D01*
X108990332Y-127851304D01*
X108919680Y-127864512D01*
X108730859Y-127937663D01*
X108730843Y-127937671D01*
X108558681Y-128044269D01*
X108558680Y-128044270D01*
X108409024Y-128180699D01*
X108286989Y-128342301D01*
X108196720Y-128523585D01*
X108141304Y-128718353D01*
X108122619Y-128920000D01*
X107817381Y-128920000D01*
X107798696Y-128718357D01*
X107754685Y-128563674D01*
X107743279Y-128523585D01*
X107743277Y-128523580D01*
X107653012Y-128342303D01*
X107612896Y-128289181D01*
X107530975Y-128180699D01*
X107381319Y-128044270D01*
X107381318Y-128044269D01*
X107209156Y-127937671D01*
X107209149Y-127937667D01*
X107209145Y-127937665D01*
X107209140Y-127937663D01*
X107020319Y-127864512D01*
X106984844Y-127857880D01*
X106821254Y-127827300D01*
X106618746Y-127827300D01*
X106490332Y-127851304D01*
X106419680Y-127864512D01*
X106230859Y-127937663D01*
X106230843Y-127937671D01*
X106058681Y-128044269D01*
X106058680Y-128044270D01*
X105909024Y-128180699D01*
X105786989Y-128342301D01*
X105696720Y-128523585D01*
X105641304Y-128718353D01*
X105622619Y-128919999D01*
X101981000Y-128919999D01*
X101981000Y-123553063D01*
X102857500Y-123553063D01*
X102857501Y-123553072D01*
X102872265Y-123627300D01*
X102928516Y-123711484D01*
X103012697Y-123767733D01*
X103012699Y-123767734D01*
X103086933Y-123782500D01*
X106353066Y-123782499D01*
X106353069Y-123782498D01*
X106353072Y-123782498D01*
X106389663Y-123775219D01*
X106427301Y-123767734D01*
X106511484Y-123711484D01*
X106567734Y-123627301D01*
X106582500Y-123553067D01*
X106582500Y-123553063D01*
X111857500Y-123553063D01*
X111857501Y-123553072D01*
X111872265Y-123627300D01*
X111928516Y-123711484D01*
X112012697Y-123767733D01*
X112012699Y-123767734D01*
X112086933Y-123782500D01*
X115353066Y-123782499D01*
X115353069Y-123782498D01*
X115353072Y-123782498D01*
X115389663Y-123775219D01*
X115427301Y-123767734D01*
X115511484Y-123711484D01*
X115567734Y-123627301D01*
X115582500Y-123553067D01*
X115582500Y-123553063D01*
X156197500Y-123553063D01*
X156197501Y-123553072D01*
X156212265Y-123627300D01*
X156268516Y-123711484D01*
X156352697Y-123767733D01*
X156352699Y-123767734D01*
X156426933Y-123782500D01*
X159693066Y-123782499D01*
X159693069Y-123782498D01*
X159693072Y-123782498D01*
X159729663Y-123775219D01*
X159767301Y-123767734D01*
X159851484Y-123711484D01*
X159907734Y-123627301D01*
X159922500Y-123553067D01*
X159922500Y-123553063D01*
X165197500Y-123553063D01*
X165197501Y-123553072D01*
X165212265Y-123627300D01*
X165268516Y-123711484D01*
X165352697Y-123767733D01*
X165352699Y-123767734D01*
X165426933Y-123782500D01*
X168693066Y-123782499D01*
X168693069Y-123782498D01*
X168693072Y-123782498D01*
X168729663Y-123775219D01*
X168767301Y-123767734D01*
X168851484Y-123711484D01*
X168907734Y-123627301D01*
X168922500Y-123553067D01*
X168922499Y-120286934D01*
X168907734Y-120212699D01*
X168851484Y-120128516D01*
X168851483Y-120128515D01*
X168767302Y-120072266D01*
X168693067Y-120057500D01*
X165426936Y-120057500D01*
X165426927Y-120057501D01*
X165352699Y-120072265D01*
X165268515Y-120128516D01*
X165212266Y-120212697D01*
X165197500Y-120286930D01*
X165197500Y-123553063D01*
X159922500Y-123553063D01*
X159922499Y-120286934D01*
X159907734Y-120212699D01*
X159851484Y-120128516D01*
X159851483Y-120128515D01*
X159767302Y-120072266D01*
X159693067Y-120057500D01*
X156426936Y-120057500D01*
X156426927Y-120057501D01*
X156352699Y-120072265D01*
X156268515Y-120128516D01*
X156212266Y-120212697D01*
X156197500Y-120286930D01*
X156197500Y-123553063D01*
X115582500Y-123553063D01*
X115582499Y-121715000D01*
X120595962Y-121715000D01*
X120616077Y-121944920D01*
X120675810Y-122167845D01*
X120675812Y-122167851D01*
X120773349Y-122377019D01*
X120825001Y-122450786D01*
X120825003Y-122450786D01*
X121270505Y-122005284D01*
X121331390Y-122121288D01*
X121445725Y-122250346D01*
X121587623Y-122348291D01*
X121629888Y-122364320D01*
X121184212Y-122809996D01*
X121184212Y-122809997D01*
X121257982Y-122861651D01*
X121257981Y-122861651D01*
X121467148Y-122959187D01*
X121467154Y-122959189D01*
X121690079Y-123018922D01*
X121920000Y-123039037D01*
X122149920Y-123018922D01*
X122372845Y-122959189D01*
X122372851Y-122959187D01*
X122582015Y-122861652D01*
X122655786Y-122809996D01*
X122655786Y-122809995D01*
X122210111Y-122364320D01*
X122252377Y-122348291D01*
X122394275Y-122250346D01*
X122508610Y-122121288D01*
X122569494Y-122005284D01*
X123014996Y-122450786D01*
X123066652Y-122377015D01*
X123164187Y-122167851D01*
X123164189Y-122167845D01*
X123223922Y-121944920D01*
X123244037Y-121715000D01*
X123223922Y-121485079D01*
X123164189Y-121262154D01*
X123164187Y-121262148D01*
X123066651Y-121052981D01*
X123014997Y-120979212D01*
X123014995Y-120979212D01*
X122569493Y-121424713D01*
X122508610Y-121308712D01*
X122394275Y-121179654D01*
X122252377Y-121081709D01*
X122210110Y-121065679D01*
X122655786Y-120620003D01*
X122655786Y-120620001D01*
X122582019Y-120568349D01*
X122372851Y-120470812D01*
X122372845Y-120470810D01*
X122149920Y-120411077D01*
X121920000Y-120390962D01*
X121690079Y-120411077D01*
X121467154Y-120470810D01*
X121467148Y-120470812D01*
X121257980Y-120568349D01*
X121184212Y-120620002D01*
X121629888Y-121065679D01*
X121587623Y-121081709D01*
X121445725Y-121179654D01*
X121331390Y-121308712D01*
X121270505Y-121424715D01*
X120825002Y-120979212D01*
X120825000Y-120979212D01*
X120773350Y-121052977D01*
X120675812Y-121262148D01*
X120675810Y-121262154D01*
X120616077Y-121485079D01*
X120595962Y-121715000D01*
X115582499Y-121715000D01*
X115582499Y-120286934D01*
X115567734Y-120212699D01*
X115520494Y-120142000D01*
X117787064Y-120142000D01*
X117806722Y-120291320D01*
X117864358Y-120430466D01*
X117864363Y-120430474D01*
X117956044Y-120549955D01*
X118075525Y-120641636D01*
X118075532Y-120641641D01*
X118214678Y-120699277D01*
X118364000Y-120718936D01*
X118513322Y-120699277D01*
X118652468Y-120641641D01*
X118689744Y-120613037D01*
X118755963Y-120587437D01*
X118766448Y-120587000D01*
X119993552Y-120587000D01*
X120061673Y-120607002D01*
X120070246Y-120613030D01*
X120107532Y-120641641D01*
X120246678Y-120699277D01*
X120321339Y-120709106D01*
X120395999Y-120718936D01*
X120395999Y-120718935D01*
X120396000Y-120718936D01*
X120545322Y-120699277D01*
X120684468Y-120641641D01*
X120803955Y-120549955D01*
X120895641Y-120430468D01*
X120953277Y-120291322D01*
X120972936Y-120142000D01*
X120953277Y-119992678D01*
X120939002Y-119958217D01*
X120931413Y-119887628D01*
X120963192Y-119824141D01*
X121024250Y-119787913D01*
X121055411Y-119783999D01*
X121666000Y-119783999D01*
X121666000Y-119171465D01*
X121693659Y-119186671D01*
X121842939Y-119225000D01*
X121958375Y-119225000D01*
X122072906Y-119210531D01*
X122174000Y-119170505D01*
X122174000Y-119783999D01*
X122910014Y-119783999D01*
X122910022Y-119783998D01*
X122984105Y-119769262D01*
X122984107Y-119769262D01*
X123068124Y-119713124D01*
X123124262Y-119629106D01*
X123124263Y-119629105D01*
X123138999Y-119555022D01*
X123139000Y-119555015D01*
X123139000Y-118869000D01*
X122474638Y-118869000D01*
X122504755Y-118804998D01*
X122533635Y-118653607D01*
X122523957Y-118499789D01*
X122478862Y-118361000D01*
X123138999Y-118361000D01*
X123138999Y-117674986D01*
X123138998Y-117674977D01*
X123124262Y-117600894D01*
X123124262Y-117600892D01*
X123068124Y-117516875D01*
X122984106Y-117460737D01*
X122984105Y-117460736D01*
X122910022Y-117446000D01*
X122174000Y-117446000D01*
X122174000Y-118058534D01*
X122146341Y-118043329D01*
X121997061Y-118005000D01*
X121881625Y-118005000D01*
X121767094Y-118019469D01*
X121666000Y-118059494D01*
X121666000Y-117446000D01*
X120929986Y-117446000D01*
X120929976Y-117446001D01*
X120855894Y-117460737D01*
X120855892Y-117460737D01*
X120771875Y-117516875D01*
X120715737Y-117600893D01*
X120715736Y-117600894D01*
X120701000Y-117674977D01*
X120701000Y-118361000D01*
X121365362Y-118361000D01*
X121335245Y-118425002D01*
X121306365Y-118576393D01*
X121316043Y-118730211D01*
X121361138Y-118869000D01*
X120701001Y-118869000D01*
X120701001Y-119462230D01*
X120680999Y-119530351D01*
X120627343Y-119576844D01*
X120557069Y-119586948D01*
X120547833Y-119585053D01*
X120396000Y-119565064D01*
X120246679Y-119584722D01*
X120107533Y-119642358D01*
X120107529Y-119642361D01*
X120095955Y-119651241D01*
X120070255Y-119670962D01*
X120004037Y-119696563D01*
X119993552Y-119697000D01*
X118766448Y-119697000D01*
X118698327Y-119676998D01*
X118689753Y-119670969D01*
X118652468Y-119642359D01*
X118620473Y-119629106D01*
X118513320Y-119584722D01*
X118364000Y-119565064D01*
X118214679Y-119584722D01*
X118075533Y-119642358D01*
X118075525Y-119642363D01*
X117956044Y-119734044D01*
X117864363Y-119853525D01*
X117864358Y-119853533D01*
X117806722Y-119992679D01*
X117787064Y-120141999D01*
X117787064Y-120142000D01*
X115520494Y-120142000D01*
X115511484Y-120128516D01*
X115511483Y-120128515D01*
X115427302Y-120072266D01*
X115353067Y-120057500D01*
X112086936Y-120057500D01*
X112086927Y-120057501D01*
X112012699Y-120072265D01*
X111928515Y-120128516D01*
X111872266Y-120212697D01*
X111857500Y-120286930D01*
X111857500Y-123553063D01*
X106582500Y-123553063D01*
X106582499Y-120286934D01*
X106567734Y-120212699D01*
X106511484Y-120128516D01*
X106511483Y-120128515D01*
X106427302Y-120072266D01*
X106353067Y-120057500D01*
X103086936Y-120057500D01*
X103086927Y-120057501D01*
X103012699Y-120072265D01*
X102928515Y-120128516D01*
X102872266Y-120212697D01*
X102857500Y-120286930D01*
X102857500Y-123553063D01*
X101981000Y-123553063D01*
X101981000Y-111139999D01*
X105622619Y-111139999D01*
X105641304Y-111341646D01*
X105696720Y-111536414D01*
X105696723Y-111536420D01*
X105786988Y-111717697D01*
X105786989Y-111717698D01*
X105909024Y-111879300D01*
X106058680Y-112015729D01*
X106058681Y-112015730D01*
X106230843Y-112122328D01*
X106230846Y-112122329D01*
X106230855Y-112122335D01*
X106313129Y-112154208D01*
X106419680Y-112195487D01*
X106419683Y-112195487D01*
X106419687Y-112195489D01*
X106618746Y-112232700D01*
X106618749Y-112232700D01*
X106821251Y-112232700D01*
X106821254Y-112232700D01*
X107020313Y-112195489D01*
X107020317Y-112195487D01*
X107020319Y-112195487D01*
X107068880Y-112176673D01*
X107209145Y-112122335D01*
X107381320Y-112015729D01*
X107530974Y-111879301D01*
X107653012Y-111717697D01*
X107743277Y-111536420D01*
X107744847Y-111530904D01*
X107780223Y-111406568D01*
X107798696Y-111341643D01*
X107817381Y-111140000D01*
X108122619Y-111140000D01*
X108141304Y-111341646D01*
X108196720Y-111536414D01*
X108196723Y-111536420D01*
X108286988Y-111717697D01*
X108286989Y-111717698D01*
X108409024Y-111879300D01*
X108558680Y-112015729D01*
X108558681Y-112015730D01*
X108730843Y-112122328D01*
X108730846Y-112122329D01*
X108730855Y-112122335D01*
X108813129Y-112154208D01*
X108919680Y-112195487D01*
X108919683Y-112195487D01*
X108919687Y-112195489D01*
X109118746Y-112232700D01*
X109118749Y-112232700D01*
X109321251Y-112232700D01*
X109321254Y-112232700D01*
X109520313Y-112195489D01*
X109520317Y-112195487D01*
X109520319Y-112195487D01*
X109568880Y-112176673D01*
X109709145Y-112122335D01*
X109881320Y-112015729D01*
X110030974Y-111879301D01*
X110153012Y-111717697D01*
X110243277Y-111536420D01*
X110244847Y-111530904D01*
X110280223Y-111406568D01*
X110298696Y-111341643D01*
X110317381Y-111140000D01*
X110623121Y-111140000D01*
X110641797Y-111341552D01*
X110697189Y-111536233D01*
X110697194Y-111536246D01*
X110786065Y-111714722D01*
X111193096Y-111307690D01*
X111196884Y-111325915D01*
X111266442Y-111460156D01*
X111369638Y-111570652D01*
X111498819Y-111649209D01*
X111554421Y-111664788D01*
X111148471Y-112070737D01*
X111231073Y-112121882D01*
X111231077Y-112121884D01*
X111419823Y-112195005D01*
X111618796Y-112232200D01*
X111821204Y-112232200D01*
X112020176Y-112195005D01*
X112208918Y-112121886D01*
X112291526Y-112070736D01*
X111887624Y-111666834D01*
X112008458Y-111614349D01*
X112125739Y-111518934D01*
X112212928Y-111395415D01*
X112244837Y-111305628D01*
X112653932Y-111714723D01*
X112742807Y-111536242D01*
X112742810Y-111536233D01*
X112798202Y-111341552D01*
X112816878Y-111140000D01*
X112798202Y-110938447D01*
X112742810Y-110743766D01*
X112742807Y-110743757D01*
X112653932Y-110565276D01*
X112246902Y-110972306D01*
X112243116Y-110954085D01*
X112173558Y-110819844D01*
X112070362Y-110709348D01*
X111941181Y-110630791D01*
X111885577Y-110615211D01*
X112213989Y-110286800D01*
X118079632Y-110286800D01*
X118099402Y-110424305D01*
X118100159Y-110425962D01*
X118157111Y-110550669D01*
X118248084Y-110655658D01*
X118253207Y-110658950D01*
X118364949Y-110730762D01*
X118498241Y-110769900D01*
X118498244Y-110769900D01*
X118637156Y-110769900D01*
X118637159Y-110769900D01*
X118770451Y-110730762D01*
X118887317Y-110655657D01*
X118887319Y-110655654D01*
X118894126Y-110649757D01*
X118896290Y-110652255D01*
X118942404Y-110622610D01*
X118977922Y-110617500D01*
X119401078Y-110617500D01*
X119469199Y-110637502D01*
X119484215Y-110650516D01*
X119484874Y-110649757D01*
X119491684Y-110655658D01*
X119496807Y-110658950D01*
X119608549Y-110730762D01*
X119741841Y-110769900D01*
X119741844Y-110769900D01*
X119880756Y-110769900D01*
X119880759Y-110769900D01*
X120014051Y-110730762D01*
X120130917Y-110655657D01*
X120221889Y-110550669D01*
X120279598Y-110424305D01*
X120299368Y-110286800D01*
X120279598Y-110149295D01*
X120221889Y-110022931D01*
X120130917Y-109917943D01*
X120130916Y-109917942D01*
X120130915Y-109917941D01*
X120014051Y-109842838D01*
X119880764Y-109803701D01*
X119880761Y-109803700D01*
X119880759Y-109803700D01*
X119741841Y-109803700D01*
X119741839Y-109803700D01*
X119741835Y-109803701D01*
X119608548Y-109842838D01*
X119491684Y-109917941D01*
X119484874Y-109923843D01*
X119482709Y-109921344D01*
X119436596Y-109950990D01*
X119401078Y-109956100D01*
X118977922Y-109956100D01*
X118909801Y-109936098D01*
X118894784Y-109923083D01*
X118894126Y-109923843D01*
X118887315Y-109917941D01*
X118770451Y-109842838D01*
X118637164Y-109803701D01*
X118637161Y-109803700D01*
X118637159Y-109803700D01*
X118498241Y-109803700D01*
X118498239Y-109803700D01*
X118498235Y-109803701D01*
X118364948Y-109842838D01*
X118248084Y-109917941D01*
X118157111Y-110022930D01*
X118113007Y-110119504D01*
X118099402Y-110149295D01*
X118079632Y-110286800D01*
X112213989Y-110286800D01*
X112291527Y-110209262D01*
X112208926Y-110158117D01*
X112208922Y-110158115D01*
X112020176Y-110084994D01*
X111821204Y-110047800D01*
X111618796Y-110047800D01*
X111419823Y-110084994D01*
X111231077Y-110158115D01*
X111231073Y-110158117D01*
X111148471Y-110209262D01*
X111552374Y-110613165D01*
X111431542Y-110665651D01*
X111314261Y-110761066D01*
X111227072Y-110884585D01*
X111195161Y-110974371D01*
X110786065Y-110565276D01*
X110697189Y-110743766D01*
X110641797Y-110938447D01*
X110623121Y-111140000D01*
X110317381Y-111140000D01*
X110298696Y-110938357D01*
X110291968Y-110914711D01*
X110243279Y-110743585D01*
X110242639Y-110742299D01*
X110153012Y-110562303D01*
X110079606Y-110465098D01*
X110030975Y-110400699D01*
X109881319Y-110264270D01*
X109881318Y-110264269D01*
X109709156Y-110157671D01*
X109709149Y-110157667D01*
X109709145Y-110157665D01*
X109687540Y-110149295D01*
X109520319Y-110084512D01*
X109484844Y-110077880D01*
X109321254Y-110047300D01*
X109118746Y-110047300D01*
X108990332Y-110071304D01*
X108919680Y-110084512D01*
X108730859Y-110157663D01*
X108730843Y-110157671D01*
X108558681Y-110264269D01*
X108558680Y-110264270D01*
X108409024Y-110400699D01*
X108286989Y-110562301D01*
X108196720Y-110743585D01*
X108141304Y-110938353D01*
X108122619Y-111140000D01*
X107817381Y-111140000D01*
X107798696Y-110938357D01*
X107791968Y-110914711D01*
X107743279Y-110743585D01*
X107742639Y-110742299D01*
X107653012Y-110562303D01*
X107579606Y-110465098D01*
X107530975Y-110400699D01*
X107381319Y-110264270D01*
X107381318Y-110264269D01*
X107209156Y-110157671D01*
X107209149Y-110157667D01*
X107209145Y-110157665D01*
X107187540Y-110149295D01*
X107020319Y-110084512D01*
X106984844Y-110077880D01*
X106821254Y-110047300D01*
X106618746Y-110047300D01*
X106490332Y-110071304D01*
X106419680Y-110084512D01*
X106230859Y-110157663D01*
X106230843Y-110157671D01*
X106058681Y-110264269D01*
X106058680Y-110264270D01*
X105909024Y-110400699D01*
X105786989Y-110562301D01*
X105696720Y-110743585D01*
X105641304Y-110938353D01*
X105622619Y-111139999D01*
X101981000Y-111139999D01*
X101981000Y-105773063D01*
X102857500Y-105773063D01*
X102857501Y-105773072D01*
X102872265Y-105847300D01*
X102928516Y-105931484D01*
X103012697Y-105987733D01*
X103012699Y-105987734D01*
X103086933Y-106002500D01*
X106353066Y-106002499D01*
X106353069Y-106002498D01*
X106353072Y-106002498D01*
X106389663Y-105995219D01*
X106427301Y-105987734D01*
X106511484Y-105931484D01*
X106567734Y-105847301D01*
X106582500Y-105773067D01*
X106582500Y-105773063D01*
X111857500Y-105773063D01*
X111857501Y-105773072D01*
X111872265Y-105847300D01*
X111928516Y-105931484D01*
X112012697Y-105987733D01*
X112012699Y-105987734D01*
X112086933Y-106002500D01*
X115353066Y-106002499D01*
X115353069Y-106002498D01*
X115353072Y-106002498D01*
X115389663Y-105995219D01*
X115427301Y-105987734D01*
X115511484Y-105931484D01*
X115567734Y-105847301D01*
X115582500Y-105773067D01*
X115582499Y-102506934D01*
X115567734Y-102432699D01*
X115511484Y-102348516D01*
X115511483Y-102348515D01*
X115427302Y-102292266D01*
X115353067Y-102277500D01*
X112086936Y-102277500D01*
X112086927Y-102277501D01*
X112012699Y-102292265D01*
X111928515Y-102348516D01*
X111872266Y-102432697D01*
X111857500Y-102506930D01*
X111857500Y-105773063D01*
X106582500Y-105773063D01*
X106582499Y-102506934D01*
X106567734Y-102432699D01*
X106511484Y-102348516D01*
X106511483Y-102348515D01*
X106427302Y-102292266D01*
X106353067Y-102277500D01*
X103086936Y-102277500D01*
X103086927Y-102277501D01*
X103012699Y-102292265D01*
X102928515Y-102348516D01*
X102872266Y-102432697D01*
X102857500Y-102506930D01*
X102857500Y-105773063D01*
X101981000Y-105773063D01*
X101981000Y-99263200D01*
X131249064Y-99263200D01*
X131268722Y-99412520D01*
X131326358Y-99551666D01*
X131326363Y-99551674D01*
X131418044Y-99671155D01*
X131515725Y-99746108D01*
X131537532Y-99762841D01*
X131676678Y-99820477D01*
X131723262Y-99826609D01*
X131788188Y-99855330D01*
X131795910Y-99862436D01*
X133065973Y-101132498D01*
X133070675Y-101137760D01*
X133094705Y-101167892D01*
X133143234Y-101200978D01*
X133190517Y-101235875D01*
X133190519Y-101235876D01*
X133197946Y-101239801D01*
X133205538Y-101243457D01*
X133205541Y-101243459D01*
X133261672Y-101260773D01*
X133317135Y-101280181D01*
X133317137Y-101280181D01*
X133325408Y-101281745D01*
X133333726Y-101282999D01*
X133333727Y-101283000D01*
X133333728Y-101283000D01*
X133392472Y-101283000D01*
X133451187Y-101285197D01*
X133451192Y-101285195D01*
X133460567Y-101284140D01*
X133460665Y-101285015D01*
X133475973Y-101283000D01*
X136212285Y-101283000D01*
X136280406Y-101303002D01*
X136301374Y-101319899D01*
X136779697Y-101798222D01*
X136813720Y-101860531D01*
X136816600Y-101887314D01*
X136816600Y-121179317D01*
X136796598Y-121247438D01*
X136750575Y-121287316D01*
X136751682Y-121289232D01*
X136744525Y-121293363D01*
X136625044Y-121385044D01*
X136533363Y-121504525D01*
X136533358Y-121504533D01*
X136475722Y-121643679D01*
X136456064Y-121792999D01*
X136456064Y-121793000D01*
X136475722Y-121942320D01*
X136533358Y-122081466D01*
X136533363Y-122081474D01*
X136625044Y-122200955D01*
X136744525Y-122292636D01*
X136744532Y-122292641D01*
X136883678Y-122350277D01*
X136958339Y-122360106D01*
X137032999Y-122369936D01*
X137032999Y-122369935D01*
X137033000Y-122369936D01*
X137182322Y-122350277D01*
X137321468Y-122292641D01*
X137440955Y-122200955D01*
X137459587Y-122176672D01*
X137516924Y-122134805D01*
X137587795Y-122130583D01*
X137649698Y-122165346D01*
X137659513Y-122176673D01*
X137678145Y-122200955D01*
X137775491Y-122275652D01*
X137797632Y-122292641D01*
X137936778Y-122350277D01*
X138086100Y-122369936D01*
X138235422Y-122350277D01*
X138374568Y-122292641D01*
X138494055Y-122200955D01*
X138585741Y-122081468D01*
X138643377Y-121942322D01*
X138656190Y-121845000D01*
X148001708Y-121845000D01*
X148020839Y-122063674D01*
X148048082Y-122165346D01*
X148077652Y-122275700D01*
X148077654Y-122275706D01*
X148121594Y-122369936D01*
X148170421Y-122474646D01*
X148296326Y-122654457D01*
X148451543Y-122809674D01*
X148631354Y-122935579D01*
X148830297Y-123028347D01*
X149042326Y-123085161D01*
X149261000Y-123104292D01*
X149479674Y-123085161D01*
X149691703Y-123028347D01*
X149890646Y-122935579D01*
X150070457Y-122809674D01*
X150225674Y-122654457D01*
X150351579Y-122474646D01*
X150444347Y-122275703D01*
X150501161Y-122063674D01*
X150520292Y-121845000D01*
X152502210Y-121845000D01*
X152521334Y-122063590D01*
X152578123Y-122275529D01*
X152578125Y-122275534D01*
X152670857Y-122474398D01*
X152712671Y-122534115D01*
X152712674Y-122534115D01*
X153234097Y-122012691D01*
X153237884Y-122030915D01*
X153307442Y-122165156D01*
X153410638Y-122275652D01*
X153539819Y-122354209D01*
X153595421Y-122369788D01*
X153071883Y-122893325D01*
X153071883Y-122893327D01*
X153131600Y-122935141D01*
X153131605Y-122935144D01*
X153330465Y-123027874D01*
X153330470Y-123027876D01*
X153542409Y-123084665D01*
X153761000Y-123103789D01*
X153979590Y-123084665D01*
X154191529Y-123027876D01*
X154191534Y-123027874D01*
X154390391Y-122935145D01*
X154450115Y-122893325D01*
X154450115Y-122893324D01*
X153928625Y-122371834D01*
X154049458Y-122319349D01*
X154166739Y-122223934D01*
X154253928Y-122100415D01*
X154285837Y-122010628D01*
X154809324Y-122534115D01*
X154809325Y-122534115D01*
X154851145Y-122474391D01*
X154943874Y-122275534D01*
X154943876Y-122275529D01*
X155000665Y-122063590D01*
X155019789Y-121845000D01*
X155000665Y-121626409D01*
X154943876Y-121414470D01*
X154943874Y-121414465D01*
X154851144Y-121215605D01*
X154851141Y-121215600D01*
X154809327Y-121155883D01*
X154809325Y-121155883D01*
X154287902Y-121677305D01*
X154284116Y-121659085D01*
X154214558Y-121524844D01*
X154111362Y-121414348D01*
X153982181Y-121335791D01*
X153926576Y-121320211D01*
X154450115Y-120796673D01*
X154450115Y-120796671D01*
X154390398Y-120754857D01*
X154390399Y-120754857D01*
X154191534Y-120662125D01*
X154191529Y-120662123D01*
X153979590Y-120605334D01*
X153761000Y-120586210D01*
X153542409Y-120605334D01*
X153330470Y-120662123D01*
X153330465Y-120662125D01*
X153131605Y-120754855D01*
X153071882Y-120796673D01*
X153593374Y-121318165D01*
X153472542Y-121370651D01*
X153355261Y-121466066D01*
X153268072Y-121589585D01*
X153236161Y-121679371D01*
X152712673Y-121155883D01*
X152670855Y-121215605D01*
X152578125Y-121414465D01*
X152578123Y-121414470D01*
X152521334Y-121626409D01*
X152502210Y-121845000D01*
X150520292Y-121845000D01*
X150501161Y-121626326D01*
X150444347Y-121414297D01*
X150351579Y-121215354D01*
X150225674Y-121035543D01*
X150070457Y-120880326D01*
X149890646Y-120754421D01*
X149814548Y-120718936D01*
X149691706Y-120661654D01*
X149691700Y-120661652D01*
X149602091Y-120637641D01*
X149479674Y-120604839D01*
X149261000Y-120585708D01*
X149042326Y-120604839D01*
X148830299Y-120661652D01*
X148830293Y-120661654D01*
X148631353Y-120754421D01*
X148451546Y-120880323D01*
X148451540Y-120880328D01*
X148296328Y-121035540D01*
X148296323Y-121035546D01*
X148170421Y-121215353D01*
X148077654Y-121414293D01*
X148077652Y-121414299D01*
X148058496Y-121485789D01*
X148020839Y-121626326D01*
X148001708Y-121845000D01*
X138656190Y-121845000D01*
X138663036Y-121793000D01*
X138643377Y-121643678D01*
X138585741Y-121504532D01*
X138571359Y-121485789D01*
X138520038Y-121418906D01*
X138494437Y-121352686D01*
X138494000Y-121342202D01*
X138494000Y-111207024D01*
X147180632Y-111207024D01*
X147200402Y-111344529D01*
X147258111Y-111470893D01*
X147345834Y-111572132D01*
X147349084Y-111575882D01*
X147349089Y-111575885D01*
X147465949Y-111650986D01*
X147599241Y-111690124D01*
X147599244Y-111690124D01*
X147738156Y-111690124D01*
X147738159Y-111690124D01*
X147871451Y-111650986D01*
X147988317Y-111575881D01*
X147988324Y-111575872D01*
X147992642Y-111572132D01*
X148057220Y-111542635D01*
X148076635Y-111542096D01*
X148082896Y-111541548D01*
X148082897Y-111541547D01*
X148082901Y-111541548D01*
X148122644Y-111530897D01*
X148127965Y-111529718D01*
X148168485Y-111522575D01*
X148168491Y-111522571D01*
X148173629Y-111520702D01*
X148190590Y-111513676D01*
X148195546Y-111511365D01*
X148195545Y-111511365D01*
X148195550Y-111511364D01*
X148229252Y-111487764D01*
X148233863Y-111484827D01*
X148269483Y-111464263D01*
X148295935Y-111432737D01*
X148299617Y-111428719D01*
X148588336Y-111140000D01*
X158962619Y-111140000D01*
X158981304Y-111341646D01*
X159036720Y-111536414D01*
X159036723Y-111536420D01*
X159126988Y-111717697D01*
X159126989Y-111717698D01*
X159249024Y-111879300D01*
X159398680Y-112015729D01*
X159398681Y-112015730D01*
X159570843Y-112122328D01*
X159570846Y-112122329D01*
X159570855Y-112122335D01*
X159653129Y-112154208D01*
X159759680Y-112195487D01*
X159759683Y-112195487D01*
X159759687Y-112195489D01*
X159958746Y-112232700D01*
X159958749Y-112232700D01*
X160161251Y-112232700D01*
X160161254Y-112232700D01*
X160360313Y-112195489D01*
X160360317Y-112195487D01*
X160360319Y-112195487D01*
X160408880Y-112176673D01*
X160549145Y-112122335D01*
X160721320Y-112015729D01*
X160870974Y-111879301D01*
X160993012Y-111717697D01*
X161083277Y-111536420D01*
X161084847Y-111530904D01*
X161120223Y-111406568D01*
X161138696Y-111341643D01*
X161157381Y-111140000D01*
X161462619Y-111140000D01*
X161481304Y-111341646D01*
X161536720Y-111536414D01*
X161536723Y-111536420D01*
X161626988Y-111717697D01*
X161626989Y-111717698D01*
X161749024Y-111879300D01*
X161898680Y-112015729D01*
X161898681Y-112015730D01*
X162070843Y-112122328D01*
X162070846Y-112122329D01*
X162070855Y-112122335D01*
X162153129Y-112154208D01*
X162259680Y-112195487D01*
X162259683Y-112195487D01*
X162259687Y-112195489D01*
X162458746Y-112232700D01*
X162458749Y-112232700D01*
X162661251Y-112232700D01*
X162661254Y-112232700D01*
X162860313Y-112195489D01*
X162860317Y-112195487D01*
X162860319Y-112195487D01*
X162908880Y-112176673D01*
X163049145Y-112122335D01*
X163221320Y-112015729D01*
X163370974Y-111879301D01*
X163493012Y-111717697D01*
X163583277Y-111536420D01*
X163584847Y-111530904D01*
X163620223Y-111406568D01*
X163638696Y-111341643D01*
X163657381Y-111140000D01*
X163963121Y-111140000D01*
X163981797Y-111341552D01*
X164037189Y-111536233D01*
X164037194Y-111536246D01*
X164126065Y-111714722D01*
X164126066Y-111714723D01*
X164533097Y-111307692D01*
X164536884Y-111325915D01*
X164606442Y-111460156D01*
X164709638Y-111570652D01*
X164838819Y-111649209D01*
X164894421Y-111664788D01*
X164488471Y-112070737D01*
X164571073Y-112121882D01*
X164571077Y-112121884D01*
X164759823Y-112195005D01*
X164958796Y-112232200D01*
X165161204Y-112232200D01*
X165360176Y-112195005D01*
X165548918Y-112121886D01*
X165631526Y-112070736D01*
X165227624Y-111666834D01*
X165348458Y-111614349D01*
X165465739Y-111518934D01*
X165552928Y-111395415D01*
X165584838Y-111305628D01*
X165993932Y-111714722D01*
X166082807Y-111536242D01*
X166082810Y-111536233D01*
X166138202Y-111341552D01*
X166156878Y-111140000D01*
X166138202Y-110938447D01*
X166082810Y-110743766D01*
X166082807Y-110743757D01*
X165993932Y-110565275D01*
X165586902Y-110972304D01*
X165583116Y-110954085D01*
X165513558Y-110819844D01*
X165410362Y-110709348D01*
X165281181Y-110630791D01*
X165225577Y-110615211D01*
X165631527Y-110209262D01*
X165548926Y-110158117D01*
X165548922Y-110158115D01*
X165360176Y-110084994D01*
X165161204Y-110047800D01*
X164958796Y-110047800D01*
X164759823Y-110084994D01*
X164571077Y-110158115D01*
X164571073Y-110158117D01*
X164488472Y-110209262D01*
X164892375Y-110613165D01*
X164771542Y-110665651D01*
X164654261Y-110761066D01*
X164567072Y-110884585D01*
X164535161Y-110974371D01*
X164126066Y-110565276D01*
X164037189Y-110743766D01*
X163981797Y-110938447D01*
X163963121Y-111140000D01*
X163657381Y-111140000D01*
X163638696Y-110938357D01*
X163631968Y-110914711D01*
X163583279Y-110743585D01*
X163582639Y-110742299D01*
X163493012Y-110562303D01*
X163419606Y-110465098D01*
X163370975Y-110400699D01*
X163221319Y-110264270D01*
X163221318Y-110264269D01*
X163049156Y-110157671D01*
X163049149Y-110157667D01*
X163049145Y-110157665D01*
X163027540Y-110149295D01*
X162860319Y-110084512D01*
X162824844Y-110077880D01*
X162661254Y-110047300D01*
X162458746Y-110047300D01*
X162330332Y-110071304D01*
X162259680Y-110084512D01*
X162070859Y-110157663D01*
X162070843Y-110157671D01*
X161898681Y-110264269D01*
X161898680Y-110264270D01*
X161749024Y-110400699D01*
X161626989Y-110562301D01*
X161536720Y-110743585D01*
X161481304Y-110938353D01*
X161462619Y-111140000D01*
X161157381Y-111140000D01*
X161138696Y-110938357D01*
X161131968Y-110914711D01*
X161083279Y-110743585D01*
X161082639Y-110742299D01*
X160993012Y-110562303D01*
X160919606Y-110465098D01*
X160870975Y-110400699D01*
X160721319Y-110264270D01*
X160721318Y-110264269D01*
X160549156Y-110157671D01*
X160549149Y-110157667D01*
X160549145Y-110157665D01*
X160527540Y-110149295D01*
X160360319Y-110084512D01*
X160324844Y-110077880D01*
X160161254Y-110047300D01*
X159958746Y-110047300D01*
X159830332Y-110071304D01*
X159759680Y-110084512D01*
X159570859Y-110157663D01*
X159570843Y-110157671D01*
X159398681Y-110264269D01*
X159398680Y-110264270D01*
X159249024Y-110400699D01*
X159126989Y-110562301D01*
X159036720Y-110743585D01*
X158981304Y-110938353D01*
X158962619Y-111140000D01*
X148588336Y-111140000D01*
X148811695Y-110916641D01*
X148815713Y-110912959D01*
X148847239Y-110886507D01*
X148867803Y-110850887D01*
X148870740Y-110846276D01*
X148894340Y-110812574D01*
X148894341Y-110812569D01*
X148896652Y-110807614D01*
X148903678Y-110790653D01*
X148905547Y-110785515D01*
X148905551Y-110785509D01*
X148912694Y-110744989D01*
X148913873Y-110739668D01*
X148924524Y-110699925D01*
X148921526Y-110665651D01*
X148920940Y-110658950D01*
X148920700Y-110653458D01*
X148920700Y-109982000D01*
X149829132Y-109982000D01*
X149848902Y-110119505D01*
X149866332Y-110157671D01*
X149906611Y-110245869D01*
X149997584Y-110350858D01*
X150056016Y-110388409D01*
X150114449Y-110425962D01*
X150247741Y-110465100D01*
X150247744Y-110465100D01*
X150386656Y-110465100D01*
X150386659Y-110465100D01*
X150519951Y-110425962D01*
X150636817Y-110350857D01*
X150636819Y-110350854D01*
X150643626Y-110344957D01*
X150645790Y-110347455D01*
X150691904Y-110317810D01*
X150727422Y-110312700D01*
X151735778Y-110312700D01*
X151803899Y-110332702D01*
X151818915Y-110345716D01*
X151819574Y-110344957D01*
X151826384Y-110350858D01*
X151884816Y-110388409D01*
X151943249Y-110425962D01*
X152076541Y-110465100D01*
X152076544Y-110465100D01*
X152215456Y-110465100D01*
X152215459Y-110465100D01*
X152348751Y-110425962D01*
X152465617Y-110350857D01*
X152556589Y-110245869D01*
X152614298Y-110119505D01*
X152634068Y-109982000D01*
X152614298Y-109844495D01*
X152556589Y-109718131D01*
X152465617Y-109613143D01*
X152465616Y-109613142D01*
X152465615Y-109613141D01*
X152348751Y-109538038D01*
X152215464Y-109498901D01*
X152215461Y-109498900D01*
X152215459Y-109498900D01*
X152076541Y-109498900D01*
X152076539Y-109498900D01*
X152076535Y-109498901D01*
X151943248Y-109538038D01*
X151826384Y-109613141D01*
X151819574Y-109619043D01*
X151817409Y-109616544D01*
X151771296Y-109646190D01*
X151735778Y-109651300D01*
X150893785Y-109651300D01*
X150825664Y-109631298D01*
X150779171Y-109577642D01*
X150769067Y-109507368D01*
X150779172Y-109472957D01*
X150779642Y-109471925D01*
X150785498Y-109459105D01*
X150805268Y-109321600D01*
X150785498Y-109184095D01*
X150727789Y-109057731D01*
X150678674Y-109001048D01*
X150649182Y-108936466D01*
X150647900Y-108918537D01*
X150647900Y-108316969D01*
X150667902Y-108248848D01*
X150684796Y-108227883D01*
X151141177Y-107771502D01*
X151203487Y-107737479D01*
X151230270Y-107734600D01*
X151262956Y-107734600D01*
X151262959Y-107734600D01*
X151396251Y-107695462D01*
X151513117Y-107620357D01*
X151604089Y-107515369D01*
X151661798Y-107389005D01*
X151681568Y-107251500D01*
X151661798Y-107113995D01*
X151604089Y-106987631D01*
X151513117Y-106882643D01*
X151513116Y-106882642D01*
X151513115Y-106882641D01*
X151396251Y-106807538D01*
X151262964Y-106768401D01*
X151262961Y-106768400D01*
X151262959Y-106768400D01*
X151124041Y-106768400D01*
X151124039Y-106768400D01*
X151124035Y-106768401D01*
X150990748Y-106807538D01*
X150873884Y-106882641D01*
X150782911Y-106987630D01*
X150725202Y-107113995D01*
X150725200Y-107114001D01*
X150707975Y-107233802D01*
X150678482Y-107298383D01*
X150672353Y-107304965D01*
X150095523Y-107881796D01*
X150091470Y-107885510D01*
X150059961Y-107911950D01*
X150039398Y-107947565D01*
X150036445Y-107952199D01*
X150012862Y-107985879D01*
X150010576Y-107990782D01*
X150003487Y-108007896D01*
X150001647Y-108012952D01*
X149994506Y-108053451D01*
X149993317Y-108058817D01*
X149982676Y-108098528D01*
X149982676Y-108098532D01*
X149986260Y-108139507D01*
X149986500Y-108144999D01*
X149986500Y-108918537D01*
X149966498Y-108986658D01*
X149955726Y-109001048D01*
X149906610Y-109057732D01*
X149848902Y-109184095D01*
X149829132Y-109321600D01*
X149848902Y-109459105D01*
X149906611Y-109585469D01*
X149910355Y-109593667D01*
X149908626Y-109594456D01*
X149925462Y-109651810D01*
X149908626Y-109709143D01*
X149910355Y-109709933D01*
X149906611Y-109718130D01*
X149906611Y-109718131D01*
X149848902Y-109844495D01*
X149829132Y-109982000D01*
X148920700Y-109982000D01*
X148920700Y-105773063D01*
X156197500Y-105773063D01*
X156197501Y-105773072D01*
X156212265Y-105847300D01*
X156268516Y-105931484D01*
X156352697Y-105987733D01*
X156352699Y-105987734D01*
X156426933Y-106002500D01*
X159693066Y-106002499D01*
X159693069Y-106002498D01*
X159693072Y-106002498D01*
X159729663Y-105995219D01*
X159767301Y-105987734D01*
X159851484Y-105931484D01*
X159907734Y-105847301D01*
X159922500Y-105773067D01*
X159922500Y-105773063D01*
X165197500Y-105773063D01*
X165197501Y-105773072D01*
X165212265Y-105847300D01*
X165268516Y-105931484D01*
X165352697Y-105987733D01*
X165352699Y-105987734D01*
X165426933Y-106002500D01*
X168693066Y-106002499D01*
X168693069Y-106002498D01*
X168693072Y-106002498D01*
X168729663Y-105995219D01*
X168767301Y-105987734D01*
X168851484Y-105931484D01*
X168907734Y-105847301D01*
X168922500Y-105773067D01*
X168922499Y-102506934D01*
X168907734Y-102432699D01*
X168851484Y-102348516D01*
X168851483Y-102348515D01*
X168767302Y-102292266D01*
X168693067Y-102277500D01*
X165426936Y-102277500D01*
X165426927Y-102277501D01*
X165352699Y-102292265D01*
X165268515Y-102348516D01*
X165212266Y-102432697D01*
X165197500Y-102506930D01*
X165197500Y-105773063D01*
X159922500Y-105773063D01*
X159922499Y-102506934D01*
X159907734Y-102432699D01*
X159851484Y-102348516D01*
X159851483Y-102348515D01*
X159767302Y-102292266D01*
X159693067Y-102277500D01*
X156426936Y-102277500D01*
X156426927Y-102277501D01*
X156352699Y-102292265D01*
X156268515Y-102348516D01*
X156212266Y-102432697D01*
X156197500Y-102506930D01*
X156197500Y-105773063D01*
X148920700Y-105773063D01*
X148920700Y-101154169D01*
X148940702Y-101086048D01*
X148957605Y-101065074D01*
X153109675Y-96913005D01*
X153171987Y-96878979D01*
X153198770Y-96876100D01*
X153231456Y-96876100D01*
X153231459Y-96876100D01*
X153364751Y-96836962D01*
X153481617Y-96761857D01*
X153572589Y-96656869D01*
X153630298Y-96530505D01*
X153650068Y-96393000D01*
X153630298Y-96255495D01*
X153572589Y-96129131D01*
X153481617Y-96024143D01*
X153481616Y-96024142D01*
X153481615Y-96024141D01*
X153364751Y-95949038D01*
X153231464Y-95909901D01*
X153231461Y-95909900D01*
X153231459Y-95909900D01*
X153092541Y-95909900D01*
X153092539Y-95909900D01*
X153092535Y-95909901D01*
X152959248Y-95949038D01*
X152842384Y-96024141D01*
X152751411Y-96129130D01*
X152693702Y-96255495D01*
X152693700Y-96255501D01*
X152676475Y-96375302D01*
X152646982Y-96439883D01*
X152640853Y-96446465D01*
X148627795Y-100459523D01*
X148565483Y-100493549D01*
X148494668Y-100488484D01*
X148437832Y-100445937D01*
X148413021Y-100379417D01*
X148412700Y-100370428D01*
X148412700Y-96328170D01*
X148432702Y-96260049D01*
X148449605Y-96239075D01*
X152982676Y-91706005D01*
X153044988Y-91671979D01*
X153071771Y-91669100D01*
X153104456Y-91669100D01*
X153104459Y-91669100D01*
X153237751Y-91629962D01*
X153354617Y-91554857D01*
X153445589Y-91449869D01*
X153503298Y-91323505D01*
X153523068Y-91186000D01*
X153503298Y-91048495D01*
X153445589Y-90922131D01*
X153354617Y-90817143D01*
X153354616Y-90817142D01*
X153354615Y-90817141D01*
X153237751Y-90742038D01*
X153104464Y-90702901D01*
X153104461Y-90702900D01*
X153104459Y-90702900D01*
X152965541Y-90702900D01*
X152965539Y-90702900D01*
X152965535Y-90702901D01*
X152832248Y-90742038D01*
X152715384Y-90817141D01*
X152624411Y-90922130D01*
X152566702Y-91048495D01*
X152566700Y-91048501D01*
X152549476Y-91168300D01*
X152519983Y-91232881D01*
X152513854Y-91239463D01*
X147860323Y-95892996D01*
X147856270Y-95896710D01*
X147824761Y-95923150D01*
X147804198Y-95958765D01*
X147801245Y-95963399D01*
X147777662Y-95997079D01*
X147775376Y-96001982D01*
X147768287Y-96019096D01*
X147766447Y-96024152D01*
X147759306Y-96064651D01*
X147758117Y-96070017D01*
X147747476Y-96109728D01*
X147747476Y-96109732D01*
X147751060Y-96150707D01*
X147751300Y-96156199D01*
X147751300Y-110167711D01*
X147731298Y-110235832D01*
X147720527Y-110250220D01*
X147700687Y-110273116D01*
X147689410Y-110286132D01*
X147631702Y-110412495D01*
X147611932Y-110550002D01*
X147611932Y-110550003D01*
X147619873Y-110605234D01*
X147609770Y-110675508D01*
X147563277Y-110729164D01*
X147530656Y-110744062D01*
X147465947Y-110763062D01*
X147349084Y-110838165D01*
X147258111Y-110943154D01*
X147258111Y-110943155D01*
X147200402Y-111069519D01*
X147180632Y-111207024D01*
X138494000Y-111207024D01*
X138494000Y-101247527D01*
X138494396Y-101240468D01*
X138498711Y-101202171D01*
X138498710Y-101202169D01*
X138487791Y-101144457D01*
X138481388Y-101101979D01*
X138479033Y-101086353D01*
X138479032Y-101086350D01*
X138476553Y-101078313D01*
X138473772Y-101070365D01*
X138446322Y-101018427D01*
X138434012Y-100992866D01*
X138420829Y-100965491D01*
X138420827Y-100965489D01*
X138420827Y-100965488D01*
X138416103Y-100958559D01*
X138411092Y-100951768D01*
X138411090Y-100951765D01*
X138411086Y-100951761D01*
X138411084Y-100951758D01*
X138369541Y-100910216D01*
X138329582Y-100867151D01*
X138322205Y-100861268D01*
X138322752Y-100860581D01*
X138310505Y-100851180D01*
X137829753Y-100370428D01*
X137240828Y-99781503D01*
X137236125Y-99776241D01*
X137212095Y-99746108D01*
X137163571Y-99713024D01*
X137116284Y-99678124D01*
X137108879Y-99674210D01*
X137101258Y-99670540D01*
X137078311Y-99663462D01*
X137045130Y-99653227D01*
X136989665Y-99633819D01*
X136989664Y-99633818D01*
X136989662Y-99633818D01*
X136981403Y-99632255D01*
X136973073Y-99631000D01*
X136914313Y-99631000D01*
X136855612Y-99628803D01*
X136846229Y-99629861D01*
X136846130Y-99628985D01*
X136830829Y-99631000D01*
X133992915Y-99631000D01*
X133924794Y-99610998D01*
X133903820Y-99594095D01*
X132425236Y-98115511D01*
X132391210Y-98053199D01*
X132389409Y-98042861D01*
X132383277Y-97996279D01*
X132383277Y-97996278D01*
X132325641Y-97857132D01*
X132325636Y-97857125D01*
X132233955Y-97737644D01*
X132114474Y-97645963D01*
X132114466Y-97645958D01*
X131975320Y-97588322D01*
X131826000Y-97568664D01*
X131676679Y-97588322D01*
X131537533Y-97645958D01*
X131537525Y-97645963D01*
X131418044Y-97737644D01*
X131326363Y-97857125D01*
X131326358Y-97857133D01*
X131268722Y-97996279D01*
X131249064Y-98145599D01*
X131249064Y-98145600D01*
X131268722Y-98294920D01*
X131326358Y-98434066D01*
X131326363Y-98434074D01*
X131418044Y-98553555D01*
X131484356Y-98604438D01*
X131526223Y-98661776D01*
X131530445Y-98732647D01*
X131495681Y-98794550D01*
X131484356Y-98804362D01*
X131418044Y-98855244D01*
X131326363Y-98974725D01*
X131326358Y-98974733D01*
X131268722Y-99113879D01*
X131249064Y-99263199D01*
X131249064Y-99263200D01*
X101981000Y-99263200D01*
X101981000Y-96901000D01*
X134043064Y-96901000D01*
X134062722Y-97050320D01*
X134120358Y-97189466D01*
X134120363Y-97189474D01*
X134212044Y-97308955D01*
X134331525Y-97400636D01*
X134331532Y-97400641D01*
X134470678Y-97458277D01*
X134620000Y-97477936D01*
X134769240Y-97458287D01*
X134839385Y-97469226D01*
X134892484Y-97516353D01*
X134911675Y-97584707D01*
X134890865Y-97652585D01*
X134880913Y-97665716D01*
X134869814Y-97678526D01*
X134869811Y-97678530D01*
X134812102Y-97804895D01*
X134792332Y-97942400D01*
X134812102Y-98079904D01*
X134869811Y-98206269D01*
X134960784Y-98311258D01*
X135019216Y-98348809D01*
X135077649Y-98386362D01*
X135210941Y-98425500D01*
X135210944Y-98425500D01*
X135349856Y-98425500D01*
X135349859Y-98425500D01*
X135483151Y-98386362D01*
X135600017Y-98311257D01*
X135600019Y-98311254D01*
X135606826Y-98305357D01*
X135608990Y-98307855D01*
X135655104Y-98278210D01*
X135690622Y-98273100D01*
X138768578Y-98273100D01*
X138836699Y-98293102D01*
X138851715Y-98306116D01*
X138852374Y-98305357D01*
X138859184Y-98311258D01*
X138917616Y-98348809D01*
X138976049Y-98386362D01*
X139109341Y-98425500D01*
X139109344Y-98425500D01*
X139248256Y-98425500D01*
X139248259Y-98425500D01*
X139381551Y-98386362D01*
X139498417Y-98311257D01*
X139589389Y-98206269D01*
X139647098Y-98079905D01*
X139666868Y-97942400D01*
X139647098Y-97804895D01*
X139589389Y-97678531D01*
X139498417Y-97573543D01*
X139498416Y-97573542D01*
X139498415Y-97573541D01*
X139381551Y-97498438D01*
X139248264Y-97459301D01*
X139248261Y-97459300D01*
X139248259Y-97459300D01*
X139181294Y-97459300D01*
X139113173Y-97439298D01*
X139066680Y-97385642D01*
X139056576Y-97315368D01*
X139081332Y-97256596D01*
X139132836Y-97189474D01*
X139132841Y-97189468D01*
X139190477Y-97050322D01*
X139210136Y-96901000D01*
X139190477Y-96751678D01*
X139132841Y-96612532D01*
X139132836Y-96612525D01*
X139041155Y-96493044D01*
X138921674Y-96401363D01*
X138921666Y-96401358D01*
X138782520Y-96343722D01*
X138633200Y-96324064D01*
X138483879Y-96343722D01*
X138344733Y-96401358D01*
X138344729Y-96401361D01*
X138333155Y-96410241D01*
X138307455Y-96429962D01*
X138241237Y-96455563D01*
X138230752Y-96456000D01*
X135022448Y-96456000D01*
X134954327Y-96435998D01*
X134945753Y-96429969D01*
X134908468Y-96401359D01*
X134888298Y-96393004D01*
X134769320Y-96343722D01*
X134620000Y-96324064D01*
X134470679Y-96343722D01*
X134331533Y-96401358D01*
X134331525Y-96401363D01*
X134212044Y-96493044D01*
X134120363Y-96612525D01*
X134120358Y-96612533D01*
X134062722Y-96751679D01*
X134043064Y-96900999D01*
X134043064Y-96901000D01*
X101981000Y-96901000D01*
X101981000Y-92100063D01*
X105282500Y-92100063D01*
X105282501Y-92100073D01*
X105297265Y-92174300D01*
X105353516Y-92258484D01*
X105437697Y-92314733D01*
X105437699Y-92314734D01*
X105511933Y-92329500D01*
X107086066Y-92329499D01*
X107086069Y-92329498D01*
X107086073Y-92329498D01*
X107135326Y-92319701D01*
X107160301Y-92314734D01*
X107244484Y-92258484D01*
X107300734Y-92174301D01*
X107315500Y-92100067D01*
X107315500Y-91313003D01*
X107817582Y-91313003D01*
X107837206Y-91512261D01*
X107837206Y-91512263D01*
X107895332Y-91703877D01*
X107895334Y-91703883D01*
X107900582Y-91713701D01*
X107989722Y-91880469D01*
X108116748Y-92035252D01*
X108271531Y-92162278D01*
X108271533Y-92162279D01*
X108412833Y-92237806D01*
X108448120Y-92256667D01*
X108639731Y-92314792D01*
X108639735Y-92314792D01*
X108639737Y-92314793D01*
X108838997Y-92334418D01*
X108839000Y-92334418D01*
X108839003Y-92334418D01*
X109038261Y-92314793D01*
X109038263Y-92314793D01*
X109038264Y-92314792D01*
X109038269Y-92314792D01*
X109229880Y-92256667D01*
X109406469Y-92162278D01*
X109561252Y-92035252D01*
X109688278Y-91880469D01*
X109782667Y-91703880D01*
X109840792Y-91512269D01*
X109846938Y-91449869D01*
X109860418Y-91313003D01*
X109860418Y-91312996D01*
X109840793Y-91113738D01*
X109840793Y-91113736D01*
X109840792Y-91113733D01*
X109840792Y-91113731D01*
X109782667Y-90922120D01*
X109726555Y-90817143D01*
X109688279Y-90745533D01*
X109688278Y-90745531D01*
X109561252Y-90590748D01*
X109406469Y-90463722D01*
X109406467Y-90463721D01*
X109406466Y-90463720D01*
X109229883Y-90369334D01*
X109229877Y-90369332D01*
X109124908Y-90337490D01*
X109038269Y-90311208D01*
X109038268Y-90311207D01*
X109038262Y-90311206D01*
X108839003Y-90291582D01*
X108838997Y-90291582D01*
X108639738Y-90311206D01*
X108639736Y-90311206D01*
X108448122Y-90369332D01*
X108448116Y-90369334D01*
X108271533Y-90463720D01*
X108116748Y-90590748D01*
X107989720Y-90745533D01*
X107895334Y-90922116D01*
X107895332Y-90922122D01*
X107837206Y-91113736D01*
X107837206Y-91113738D01*
X107817582Y-91312996D01*
X107817582Y-91313003D01*
X107315500Y-91313003D01*
X107315499Y-90525934D01*
X107315498Y-90525930D01*
X107315498Y-90525926D01*
X107300734Y-90451699D01*
X107293502Y-90440876D01*
X107244484Y-90367516D01*
X107244483Y-90367515D01*
X107160302Y-90311266D01*
X107086067Y-90296500D01*
X105511936Y-90296500D01*
X105511926Y-90296501D01*
X105437699Y-90311265D01*
X105353515Y-90367516D01*
X105297266Y-90451697D01*
X105282500Y-90525930D01*
X105282500Y-92100063D01*
X101981000Y-92100063D01*
X101981000Y-88773003D01*
X105278084Y-88773003D01*
X105297699Y-88972163D01*
X105355795Y-89163681D01*
X105355797Y-89163687D01*
X105423129Y-89289659D01*
X105828657Y-88884131D01*
X105855497Y-88975541D01*
X105930524Y-89092286D01*
X106035404Y-89183164D01*
X106161638Y-89240813D01*
X106186781Y-89244428D01*
X105782339Y-89648869D01*
X105908313Y-89716202D01*
X105908318Y-89716204D01*
X106099836Y-89774300D01*
X106099835Y-89774300D01*
X106298997Y-89793916D01*
X106299003Y-89793916D01*
X106498163Y-89774300D01*
X106689688Y-89716202D01*
X106815659Y-89648870D01*
X106411218Y-89244428D01*
X106436362Y-89240813D01*
X106562596Y-89183164D01*
X106667476Y-89092286D01*
X106742503Y-88975541D01*
X106769342Y-88884132D01*
X107174870Y-89289659D01*
X107242202Y-89163688D01*
X107300300Y-88972163D01*
X107319916Y-88773003D01*
X107818084Y-88773003D01*
X107837699Y-88972163D01*
X107895795Y-89163681D01*
X107895797Y-89163687D01*
X107963129Y-89289659D01*
X108368657Y-88884131D01*
X108395497Y-88975541D01*
X108470524Y-89092286D01*
X108575404Y-89183164D01*
X108701638Y-89240813D01*
X108726781Y-89244428D01*
X108322339Y-89648869D01*
X108448313Y-89716202D01*
X108448318Y-89716204D01*
X108639836Y-89774300D01*
X108639835Y-89774300D01*
X108838997Y-89793916D01*
X108839003Y-89793916D01*
X109038163Y-89774300D01*
X109229688Y-89716202D01*
X109355659Y-89648870D01*
X108951218Y-89244428D01*
X108976362Y-89240813D01*
X109102596Y-89183164D01*
X109207476Y-89092286D01*
X109282503Y-88975541D01*
X109309342Y-88884131D01*
X109714870Y-89289659D01*
X109782202Y-89163688D01*
X109840300Y-88972163D01*
X109859916Y-88773003D01*
X109859916Y-88773000D01*
X158300064Y-88773000D01*
X158319722Y-88922320D01*
X158377358Y-89061466D01*
X158377363Y-89061474D01*
X158469044Y-89180955D01*
X158588525Y-89272636D01*
X158588532Y-89272641D01*
X158727678Y-89330277D01*
X158774262Y-89336409D01*
X158839188Y-89365130D01*
X158846911Y-89372236D01*
X159812174Y-90337499D01*
X159816875Y-90342760D01*
X159840905Y-90372892D01*
X159889427Y-90405974D01*
X159936717Y-90440876D01*
X159944105Y-90444781D01*
X159951738Y-90448457D01*
X159951741Y-90448459D01*
X160007869Y-90465772D01*
X160063335Y-90485181D01*
X160063341Y-90485181D01*
X160071620Y-90486748D01*
X160079926Y-90488000D01*
X160138687Y-90488000D01*
X160197386Y-90490196D01*
X160197386Y-90490195D01*
X160197388Y-90490196D01*
X160206767Y-90489139D01*
X160206865Y-90490015D01*
X160222169Y-90488000D01*
X164339913Y-90488000D01*
X164408034Y-90508002D01*
X164454527Y-90561658D01*
X164464631Y-90631932D01*
X164440464Y-90689931D01*
X164410912Y-90729063D01*
X164319671Y-90912301D01*
X164263654Y-91109180D01*
X164244768Y-91312995D01*
X164244768Y-91313004D01*
X164263654Y-91516819D01*
X164317482Y-91706005D01*
X164319672Y-91713701D01*
X164410912Y-91896935D01*
X164410913Y-91896936D01*
X164534266Y-92060284D01*
X164685536Y-92198185D01*
X164859566Y-92305940D01*
X164859568Y-92305940D01*
X164859573Y-92305944D01*
X165050444Y-92379888D01*
X165251653Y-92417500D01*
X165251655Y-92417500D01*
X165456345Y-92417500D01*
X165456347Y-92417500D01*
X165657556Y-92379888D01*
X165848427Y-92305944D01*
X165962168Y-92235518D01*
X166030617Y-92216663D01*
X166098392Y-92237806D01*
X166143977Y-92292235D01*
X166154500Y-92342645D01*
X166154500Y-92823354D01*
X166134498Y-92891475D01*
X166080842Y-92937968D01*
X166010568Y-92948072D01*
X165962170Y-92930482D01*
X165866734Y-92871391D01*
X165848427Y-92860056D01*
X165832005Y-92853694D01*
X165657559Y-92786113D01*
X165657560Y-92786113D01*
X165657557Y-92786112D01*
X165657556Y-92786112D01*
X165456347Y-92748500D01*
X165251653Y-92748500D01*
X165050444Y-92786112D01*
X165050439Y-92786113D01*
X164859577Y-92860054D01*
X164859566Y-92860059D01*
X164685536Y-92967814D01*
X164534266Y-93105715D01*
X164410913Y-93269063D01*
X164319671Y-93452301D01*
X164263654Y-93649180D01*
X164244768Y-93852995D01*
X164244768Y-93853004D01*
X164263654Y-94056819D01*
X164263655Y-94056821D01*
X164319672Y-94253701D01*
X164410912Y-94436935D01*
X164410913Y-94436936D01*
X164534266Y-94600284D01*
X164685536Y-94738185D01*
X164859566Y-94845940D01*
X164859568Y-94845940D01*
X164859573Y-94845944D01*
X165050444Y-94919888D01*
X165251653Y-94957500D01*
X165251655Y-94957500D01*
X165456345Y-94957500D01*
X165456347Y-94957500D01*
X165657556Y-94919888D01*
X165848427Y-94845944D01*
X165962168Y-94775518D01*
X166030617Y-94756663D01*
X166098392Y-94777806D01*
X166143977Y-94832235D01*
X166154500Y-94882645D01*
X166154500Y-95037984D01*
X166134498Y-95106105D01*
X166117599Y-95127074D01*
X165961861Y-95282813D01*
X165903736Y-95340938D01*
X165841424Y-95374963D01*
X165770608Y-95369898D01*
X165769125Y-95369334D01*
X165657557Y-95326112D01*
X165590486Y-95313574D01*
X165456347Y-95288500D01*
X165251653Y-95288500D01*
X165097280Y-95317357D01*
X165050439Y-95326113D01*
X164859577Y-95400054D01*
X164859566Y-95400059D01*
X164685536Y-95507814D01*
X164534266Y-95645715D01*
X164410913Y-95809063D01*
X164319671Y-95992301D01*
X164263654Y-96189180D01*
X164244768Y-96392995D01*
X164244768Y-96393004D01*
X164263654Y-96596819D01*
X164310612Y-96761858D01*
X164319672Y-96793701D01*
X164410912Y-96976935D01*
X164410913Y-96976936D01*
X164534266Y-97140284D01*
X164685536Y-97278185D01*
X164859566Y-97385940D01*
X164859568Y-97385940D01*
X164859573Y-97385944D01*
X165050444Y-97459888D01*
X165251653Y-97497500D01*
X165251655Y-97497500D01*
X165456345Y-97497500D01*
X165456347Y-97497500D01*
X165657556Y-97459888D01*
X165848427Y-97385944D01*
X166022462Y-97278186D01*
X166173732Y-97140285D01*
X166297088Y-96976935D01*
X166388328Y-96793701D01*
X166444345Y-96596821D01*
X166453961Y-96493045D01*
X166463232Y-96393004D01*
X166463232Y-96392995D01*
X166450490Y-96255495D01*
X166444345Y-96189179D01*
X166435769Y-96159038D01*
X166436364Y-96088045D01*
X166467861Y-96035462D01*
X166660391Y-95842932D01*
X166722701Y-95808908D01*
X166793516Y-95813973D01*
X166850352Y-95856520D01*
X166875163Y-95923040D01*
X166862279Y-95988183D01*
X166860143Y-95992471D01*
X166860138Y-95992485D01*
X166818450Y-96138999D01*
X166818451Y-96139000D01*
X167462884Y-96139000D01*
X167434507Y-96183156D01*
X167394000Y-96321111D01*
X167394000Y-96464889D01*
X167434507Y-96602844D01*
X167462884Y-96647000D01*
X166818451Y-96647000D01*
X166860138Y-96793514D01*
X166860140Y-96793519D01*
X166951340Y-96976672D01*
X167074637Y-97139946D01*
X167225838Y-97277784D01*
X167399796Y-97385493D01*
X167399803Y-97385496D01*
X167590582Y-97459405D01*
X167639999Y-97468642D01*
X167640000Y-97468642D01*
X167640000Y-96826674D01*
X167751685Y-96877680D01*
X167858237Y-96893000D01*
X167929763Y-96893000D01*
X168036315Y-96877680D01*
X168148000Y-96826674D01*
X168148000Y-97468642D01*
X168197417Y-97459405D01*
X168197418Y-97459405D01*
X168388196Y-97385496D01*
X168388203Y-97385493D01*
X168562161Y-97277784D01*
X168713362Y-97139946D01*
X168836659Y-96976672D01*
X168927859Y-96793519D01*
X168927861Y-96793514D01*
X168969549Y-96647000D01*
X168325116Y-96647000D01*
X168353493Y-96602844D01*
X168394000Y-96464889D01*
X168394000Y-96321111D01*
X168353493Y-96183156D01*
X168325116Y-96139000D01*
X168969549Y-96139000D01*
X168969549Y-96138999D01*
X168927861Y-95992485D01*
X168927859Y-95992480D01*
X168836659Y-95809327D01*
X168713362Y-95646053D01*
X168562161Y-95508215D01*
X168388203Y-95400506D01*
X168388196Y-95400503D01*
X168197424Y-95326596D01*
X168148000Y-95317357D01*
X168148000Y-95959325D01*
X168036315Y-95908320D01*
X167929763Y-95893000D01*
X167858237Y-95893000D01*
X167751685Y-95908320D01*
X167640000Y-95959325D01*
X167640000Y-95317357D01*
X167590575Y-95326596D01*
X167399803Y-95400503D01*
X167399791Y-95400509D01*
X167226659Y-95507706D01*
X167158212Y-95526560D01*
X167090437Y-95505416D01*
X167044853Y-95450986D01*
X167035932Y-95380552D01*
X167041403Y-95358958D01*
X167041681Y-95358165D01*
X167041681Y-95358160D01*
X167041682Y-95358158D01*
X167043245Y-95349896D01*
X167044500Y-95341571D01*
X167044500Y-95282813D01*
X167046696Y-95224112D01*
X167045639Y-95214729D01*
X167046514Y-95214630D01*
X167044500Y-95199329D01*
X167044500Y-94852305D01*
X167064502Y-94784184D01*
X167118158Y-94737691D01*
X167188432Y-94727587D01*
X167236829Y-94745177D01*
X167399573Y-94845944D01*
X167590444Y-94919888D01*
X167791653Y-94957500D01*
X167791655Y-94957500D01*
X167996345Y-94957500D01*
X167996347Y-94957500D01*
X168197556Y-94919888D01*
X168388427Y-94845944D01*
X168562462Y-94738186D01*
X168713732Y-94600285D01*
X168837088Y-94436935D01*
X168928328Y-94253701D01*
X168984345Y-94056821D01*
X169003232Y-93853000D01*
X168984345Y-93649179D01*
X168928328Y-93452299D01*
X168837088Y-93269065D01*
X168743500Y-93145134D01*
X168713733Y-93105715D01*
X168562463Y-92967814D01*
X168388433Y-92860059D01*
X168388428Y-92860057D01*
X168388427Y-92860056D01*
X168372005Y-92853694D01*
X168197559Y-92786113D01*
X168197560Y-92786113D01*
X168197557Y-92786112D01*
X168197556Y-92786112D01*
X167996347Y-92748500D01*
X167791653Y-92748500D01*
X167590444Y-92786112D01*
X167590439Y-92786113D01*
X167399577Y-92860054D01*
X167399561Y-92860062D01*
X167236830Y-92960821D01*
X167168383Y-92979676D01*
X167100608Y-92958533D01*
X167055023Y-92904103D01*
X167044500Y-92853694D01*
X167044500Y-92312305D01*
X167064502Y-92244184D01*
X167118158Y-92197691D01*
X167188432Y-92187587D01*
X167236829Y-92205177D01*
X167399573Y-92305944D01*
X167590444Y-92379888D01*
X167791653Y-92417500D01*
X167791655Y-92417500D01*
X167996345Y-92417500D01*
X167996347Y-92417500D01*
X168197556Y-92379888D01*
X168388427Y-92305944D01*
X168562462Y-92198186D01*
X168713732Y-92060285D01*
X168837088Y-91896935D01*
X168928328Y-91713701D01*
X168984345Y-91516821D01*
X169003232Y-91313000D01*
X168984345Y-91109179D01*
X168928328Y-90912299D01*
X168837088Y-90729065D01*
X168763737Y-90631932D01*
X168713733Y-90565715D01*
X168562463Y-90427814D01*
X168388433Y-90320059D01*
X168388428Y-90320057D01*
X168388427Y-90320056D01*
X168388422Y-90320054D01*
X168197559Y-90246113D01*
X168197560Y-90246113D01*
X168197557Y-90246112D01*
X168197556Y-90246112D01*
X167996347Y-90208500D01*
X167791653Y-90208500D01*
X167590444Y-90246112D01*
X167590439Y-90246113D01*
X167399577Y-90320054D01*
X167399566Y-90320059D01*
X167225536Y-90427814D01*
X167200531Y-90450610D01*
X167136713Y-90481720D01*
X167066207Y-90473390D01*
X167011397Y-90428263D01*
X167002128Y-90412171D01*
X166995829Y-90399091D01*
X166995824Y-90399085D01*
X166991091Y-90392142D01*
X166986093Y-90385369D01*
X166986091Y-90385366D01*
X166986087Y-90385362D01*
X166986085Y-90385359D01*
X166944541Y-90343816D01*
X166938671Y-90337490D01*
X166904587Y-90300756D01*
X166904586Y-90300755D01*
X166904582Y-90300751D01*
X166897205Y-90294868D01*
X166897752Y-90294181D01*
X166885505Y-90284780D01*
X166732819Y-90132094D01*
X166698793Y-90069782D01*
X166703858Y-89998967D01*
X166732816Y-89953906D01*
X166894002Y-89792721D01*
X166899253Y-89788028D01*
X166929392Y-89763995D01*
X166962476Y-89715468D01*
X166997375Y-89668184D01*
X166997378Y-89668173D01*
X166999092Y-89664933D01*
X167001914Y-89662032D01*
X167002983Y-89660585D01*
X167003180Y-89660731D01*
X167048606Y-89614052D01*
X167117768Y-89598017D01*
X167184620Y-89621920D01*
X167195378Y-89630692D01*
X167225536Y-89658185D01*
X167399566Y-89765940D01*
X167399568Y-89765940D01*
X167399573Y-89765944D01*
X167590444Y-89839888D01*
X167791653Y-89877500D01*
X167791655Y-89877500D01*
X167996345Y-89877500D01*
X167996347Y-89877500D01*
X168197556Y-89839888D01*
X168388427Y-89765944D01*
X168562462Y-89658186D01*
X168713732Y-89520285D01*
X168837088Y-89356935D01*
X168928328Y-89173701D01*
X168984345Y-88976821D01*
X169003232Y-88773000D01*
X168997641Y-88712667D01*
X168987492Y-88603149D01*
X168984345Y-88569179D01*
X168928328Y-88372299D01*
X168837088Y-88189065D01*
X168743500Y-88065134D01*
X168713733Y-88025715D01*
X168562463Y-87887814D01*
X168388433Y-87780059D01*
X168388428Y-87780057D01*
X168388427Y-87780056D01*
X168316223Y-87752084D01*
X168197559Y-87706113D01*
X168197560Y-87706113D01*
X168197557Y-87706112D01*
X168197556Y-87706112D01*
X167996347Y-87668500D01*
X167791653Y-87668500D01*
X167590444Y-87706112D01*
X167590439Y-87706113D01*
X167399577Y-87780054D01*
X167399561Y-87780062D01*
X167236830Y-87880821D01*
X167168383Y-87899676D01*
X167100608Y-87878533D01*
X167055023Y-87824103D01*
X167044500Y-87773694D01*
X167044500Y-87232305D01*
X167064502Y-87164184D01*
X167118158Y-87117691D01*
X167188432Y-87107587D01*
X167236829Y-87125177D01*
X167399573Y-87225944D01*
X167590444Y-87299888D01*
X167791653Y-87337500D01*
X167791655Y-87337500D01*
X167996345Y-87337500D01*
X167996347Y-87337500D01*
X168197556Y-87299888D01*
X168388427Y-87225944D01*
X168562462Y-87118186D01*
X168713732Y-86980285D01*
X168837088Y-86816935D01*
X168928328Y-86633701D01*
X168984345Y-86436821D01*
X169003232Y-86233000D01*
X168996802Y-86163613D01*
X168987492Y-86063149D01*
X168984345Y-86029179D01*
X168928328Y-85832299D01*
X168837088Y-85649065D01*
X168743500Y-85525134D01*
X168713733Y-85485715D01*
X168562463Y-85347814D01*
X168388433Y-85240059D01*
X168388428Y-85240057D01*
X168388427Y-85240056D01*
X168316223Y-85212084D01*
X168197559Y-85166113D01*
X168197560Y-85166113D01*
X168197557Y-85166112D01*
X168197556Y-85166112D01*
X167996347Y-85128500D01*
X167791653Y-85128500D01*
X167590444Y-85166112D01*
X167590439Y-85166113D01*
X167399577Y-85240054D01*
X167399561Y-85240062D01*
X167236830Y-85340821D01*
X167168383Y-85359676D01*
X167100608Y-85338533D01*
X167055023Y-85284103D01*
X167044500Y-85233694D01*
X167044500Y-84923499D01*
X167064502Y-84855378D01*
X167118158Y-84808885D01*
X167170500Y-84797499D01*
X168769064Y-84797499D01*
X168769066Y-84797499D01*
X168769069Y-84797498D01*
X168769072Y-84797498D01*
X168805663Y-84790219D01*
X168843301Y-84782734D01*
X168927484Y-84726484D01*
X168983734Y-84642301D01*
X168998500Y-84568067D01*
X168998499Y-82817934D01*
X168998498Y-82817931D01*
X168998498Y-82817926D01*
X168983734Y-82743699D01*
X168954574Y-82700059D01*
X168927484Y-82659516D01*
X168877494Y-82626113D01*
X168843302Y-82603266D01*
X168769069Y-82588500D01*
X168769067Y-82588500D01*
X167170500Y-82588500D01*
X167102379Y-82568498D01*
X167055886Y-82514842D01*
X167044500Y-82462500D01*
X167044500Y-82096665D01*
X167044500Y-81657944D01*
X167064501Y-81589827D01*
X167070522Y-81581264D01*
X167099141Y-81543968D01*
X167156777Y-81404822D01*
X167176436Y-81255500D01*
X167156777Y-81106178D01*
X167099141Y-80967032D01*
X167099136Y-80967025D01*
X167007455Y-80847544D01*
X166887974Y-80755863D01*
X166887966Y-80755858D01*
X166748820Y-80698222D01*
X166599500Y-80678564D01*
X166450179Y-80698222D01*
X166311033Y-80755858D01*
X166311025Y-80755863D01*
X166191544Y-80847544D01*
X166099863Y-80967025D01*
X166099858Y-80967033D01*
X166042222Y-81106179D01*
X166022564Y-81255499D01*
X166022564Y-81255500D01*
X166042222Y-81404820D01*
X166099823Y-81543880D01*
X166099859Y-81543968D01*
X166128462Y-81581244D01*
X166154063Y-81647463D01*
X166154500Y-81657948D01*
X166154500Y-82663354D01*
X166134498Y-82731475D01*
X166080842Y-82777968D01*
X166010568Y-82788072D01*
X165962170Y-82770482D01*
X165848430Y-82700058D01*
X165848431Y-82700058D01*
X165848427Y-82700056D01*
X165776223Y-82672084D01*
X165657559Y-82626113D01*
X165657560Y-82626113D01*
X165657557Y-82626112D01*
X165657556Y-82626112D01*
X165456347Y-82588500D01*
X165251653Y-82588500D01*
X165050444Y-82626112D01*
X165050439Y-82626113D01*
X164859577Y-82700054D01*
X164859566Y-82700059D01*
X164685536Y-82807814D01*
X164534266Y-82945715D01*
X164410913Y-83109063D01*
X164319671Y-83292301D01*
X164263654Y-83489180D01*
X164244768Y-83692995D01*
X164244768Y-83693004D01*
X164263654Y-83896819D01*
X164307867Y-84052210D01*
X164319672Y-84093701D01*
X164410912Y-84276935D01*
X164410913Y-84276936D01*
X164534266Y-84440284D01*
X164685536Y-84578185D01*
X164859566Y-84685940D01*
X164859568Y-84685940D01*
X164859573Y-84685944D01*
X165050444Y-84759888D01*
X165251653Y-84797500D01*
X165251655Y-84797500D01*
X165456345Y-84797500D01*
X165456347Y-84797500D01*
X165657556Y-84759888D01*
X165848427Y-84685944D01*
X165962168Y-84615518D01*
X166030617Y-84596663D01*
X166098392Y-84617806D01*
X166143977Y-84672235D01*
X166154500Y-84722645D01*
X166154500Y-85203354D01*
X166134498Y-85271475D01*
X166080842Y-85317968D01*
X166010568Y-85328072D01*
X165962170Y-85310482D01*
X165866734Y-85251391D01*
X165848427Y-85240056D01*
X165776223Y-85212084D01*
X165657559Y-85166113D01*
X165657560Y-85166113D01*
X165657557Y-85166112D01*
X165657556Y-85166112D01*
X165456347Y-85128500D01*
X165251653Y-85128500D01*
X165050444Y-85166112D01*
X165050439Y-85166113D01*
X164859577Y-85240054D01*
X164859566Y-85240059D01*
X164685536Y-85347814D01*
X164534266Y-85485715D01*
X164410913Y-85649063D01*
X164319671Y-85832301D01*
X164263654Y-86029180D01*
X164244768Y-86232995D01*
X164244768Y-86233004D01*
X164263654Y-86436819D01*
X164307867Y-86592210D01*
X164319672Y-86633701D01*
X164410912Y-86816935D01*
X164410913Y-86816936D01*
X164534266Y-86980284D01*
X164685536Y-87118185D01*
X164859566Y-87225940D01*
X164859568Y-87225940D01*
X164859573Y-87225944D01*
X165050444Y-87299888D01*
X165251653Y-87337500D01*
X165251655Y-87337500D01*
X165456345Y-87337500D01*
X165456347Y-87337500D01*
X165657556Y-87299888D01*
X165848427Y-87225944D01*
X165962168Y-87155518D01*
X166030617Y-87136663D01*
X166098392Y-87157806D01*
X166143977Y-87212235D01*
X166154500Y-87262645D01*
X166154500Y-87743354D01*
X166134498Y-87811475D01*
X166080842Y-87857968D01*
X166010568Y-87868072D01*
X165962170Y-87850482D01*
X165866734Y-87791391D01*
X165848427Y-87780056D01*
X165776223Y-87752084D01*
X165657559Y-87706113D01*
X165657560Y-87706113D01*
X165657557Y-87706112D01*
X165657556Y-87706112D01*
X165456347Y-87668500D01*
X165251653Y-87668500D01*
X165050444Y-87706112D01*
X165050439Y-87706113D01*
X164859577Y-87780054D01*
X164859566Y-87780059D01*
X164685536Y-87887814D01*
X164534266Y-88025715D01*
X164410913Y-88189063D01*
X164319671Y-88372301D01*
X164263654Y-88569180D01*
X164244768Y-88772995D01*
X164244768Y-88773004D01*
X164263654Y-88976819D01*
X164307867Y-89132210D01*
X164319672Y-89173701D01*
X164324384Y-89183164D01*
X164410912Y-89356936D01*
X164440464Y-89396069D01*
X164465553Y-89462485D01*
X164450753Y-89531921D01*
X164400761Y-89582334D01*
X164339913Y-89598000D01*
X160383515Y-89598000D01*
X160315394Y-89577998D01*
X160294420Y-89561095D01*
X159476236Y-88742911D01*
X159442210Y-88680599D01*
X159440409Y-88670261D01*
X159434277Y-88623679D01*
X159434277Y-88623678D01*
X159376641Y-88484532D01*
X159376636Y-88484525D01*
X159284955Y-88365044D01*
X159165474Y-88273363D01*
X159165466Y-88273358D01*
X159026320Y-88215722D01*
X158877000Y-88196064D01*
X158727679Y-88215722D01*
X158588533Y-88273358D01*
X158588525Y-88273363D01*
X158469044Y-88365044D01*
X158377363Y-88484525D01*
X158377358Y-88484533D01*
X158319722Y-88623679D01*
X158300064Y-88772999D01*
X158300064Y-88773000D01*
X109859916Y-88773000D01*
X109859916Y-88772996D01*
X109840300Y-88573836D01*
X109782204Y-88382318D01*
X109782202Y-88382313D01*
X109714869Y-88256339D01*
X109309342Y-88661866D01*
X109282503Y-88570459D01*
X109207476Y-88453714D01*
X109102596Y-88362836D01*
X108976362Y-88305187D01*
X108951217Y-88301571D01*
X109355659Y-87897129D01*
X109229687Y-87829797D01*
X109229681Y-87829795D01*
X109038163Y-87771699D01*
X109038164Y-87771699D01*
X108839003Y-87752084D01*
X108838997Y-87752084D01*
X108639836Y-87771699D01*
X108448318Y-87829795D01*
X108448308Y-87829799D01*
X108322338Y-87897128D01*
X108322338Y-87897129D01*
X108726780Y-88301571D01*
X108701638Y-88305187D01*
X108575404Y-88362836D01*
X108470524Y-88453714D01*
X108395497Y-88570459D01*
X108368657Y-88661866D01*
X107963129Y-88256338D01*
X107963128Y-88256338D01*
X107895799Y-88382308D01*
X107895795Y-88382318D01*
X107837699Y-88573836D01*
X107818084Y-88772996D01*
X107818084Y-88773003D01*
X107319916Y-88773003D01*
X107319916Y-88772996D01*
X107300300Y-88573836D01*
X107242204Y-88382318D01*
X107242202Y-88382313D01*
X107174869Y-88256338D01*
X106769341Y-88661865D01*
X106742503Y-88570459D01*
X106667476Y-88453714D01*
X106562596Y-88362836D01*
X106436362Y-88305187D01*
X106411217Y-88301571D01*
X106815659Y-87897129D01*
X106689687Y-87829797D01*
X106689681Y-87829795D01*
X106498163Y-87771699D01*
X106498164Y-87771699D01*
X106299003Y-87752084D01*
X106298997Y-87752084D01*
X106099836Y-87771699D01*
X105908318Y-87829795D01*
X105908308Y-87829799D01*
X105782338Y-87897128D01*
X105782338Y-87897129D01*
X106186780Y-88301571D01*
X106161638Y-88305187D01*
X106035404Y-88362836D01*
X105930524Y-88453714D01*
X105855497Y-88570459D01*
X105828657Y-88661866D01*
X105423129Y-88256338D01*
X105423128Y-88256338D01*
X105355799Y-88382308D01*
X105355795Y-88382318D01*
X105297699Y-88573836D01*
X105278084Y-88772996D01*
X105278084Y-88773003D01*
X101981000Y-88773003D01*
X101981000Y-86233003D01*
X105278084Y-86233003D01*
X105297699Y-86432163D01*
X105355795Y-86623681D01*
X105355797Y-86623687D01*
X105423129Y-86749660D01*
X105828657Y-86344132D01*
X105855497Y-86435541D01*
X105930524Y-86552286D01*
X106035404Y-86643164D01*
X106161638Y-86700813D01*
X106186781Y-86704428D01*
X105782339Y-87108869D01*
X105908313Y-87176202D01*
X105908318Y-87176204D01*
X106099836Y-87234300D01*
X106099835Y-87234300D01*
X106298997Y-87253916D01*
X106299003Y-87253916D01*
X106498163Y-87234300D01*
X106689688Y-87176202D01*
X106815659Y-87108870D01*
X106411218Y-86704428D01*
X106436362Y-86700813D01*
X106562596Y-86643164D01*
X106667476Y-86552286D01*
X106742503Y-86435541D01*
X106769342Y-86344131D01*
X107174870Y-86749659D01*
X107242202Y-86623688D01*
X107300300Y-86432163D01*
X107319916Y-86233003D01*
X107818084Y-86233003D01*
X107837699Y-86432163D01*
X107895795Y-86623681D01*
X107895797Y-86623687D01*
X107963129Y-86749659D01*
X108368656Y-86344131D01*
X108395497Y-86435541D01*
X108470524Y-86552286D01*
X108575404Y-86643164D01*
X108701638Y-86700813D01*
X108726781Y-86704428D01*
X108322339Y-87108869D01*
X108448313Y-87176202D01*
X108448318Y-87176204D01*
X108639836Y-87234300D01*
X108639835Y-87234300D01*
X108838997Y-87253916D01*
X108839003Y-87253916D01*
X109038163Y-87234300D01*
X109229688Y-87176202D01*
X109355659Y-87108870D01*
X108951218Y-86704428D01*
X108976362Y-86700813D01*
X109102596Y-86643164D01*
X109207476Y-86552286D01*
X109282503Y-86435541D01*
X109309342Y-86344132D01*
X109714870Y-86749659D01*
X109782202Y-86623688D01*
X109840300Y-86432163D01*
X109859916Y-86233003D01*
X109859916Y-86232996D01*
X109840300Y-86033836D01*
X109782204Y-85842318D01*
X109782202Y-85842313D01*
X109714869Y-85716338D01*
X109309341Y-86121865D01*
X109282503Y-86030459D01*
X109207476Y-85913714D01*
X109102596Y-85822836D01*
X108976362Y-85765187D01*
X108951217Y-85761571D01*
X109355659Y-85357129D01*
X109229687Y-85289797D01*
X109229681Y-85289795D01*
X109038163Y-85231699D01*
X109038164Y-85231699D01*
X108839003Y-85212084D01*
X108838997Y-85212084D01*
X108639836Y-85231699D01*
X108448318Y-85289795D01*
X108448308Y-85289799D01*
X108322338Y-85357128D01*
X108322338Y-85357129D01*
X108726780Y-85761571D01*
X108701638Y-85765187D01*
X108575404Y-85822836D01*
X108470524Y-85913714D01*
X108395497Y-86030459D01*
X108368657Y-86121867D01*
X107963129Y-85716338D01*
X107963128Y-85716338D01*
X107895799Y-85842308D01*
X107895795Y-85842318D01*
X107837699Y-86033836D01*
X107818084Y-86232996D01*
X107818084Y-86233003D01*
X107319916Y-86233003D01*
X107319916Y-86232996D01*
X107300300Y-86033836D01*
X107242204Y-85842318D01*
X107242202Y-85842313D01*
X107174869Y-85716339D01*
X106769342Y-86121866D01*
X106742503Y-86030459D01*
X106667476Y-85913714D01*
X106562596Y-85822836D01*
X106436362Y-85765187D01*
X106411218Y-85761571D01*
X106815660Y-85357129D01*
X106689687Y-85289797D01*
X106689681Y-85289795D01*
X106498163Y-85231699D01*
X106498164Y-85231699D01*
X106299003Y-85212084D01*
X106298997Y-85212084D01*
X106099836Y-85231699D01*
X105908318Y-85289795D01*
X105908308Y-85289799D01*
X105782338Y-85357128D01*
X106186782Y-85761571D01*
X106161638Y-85765187D01*
X106035404Y-85822836D01*
X105930524Y-85913714D01*
X105855497Y-86030459D01*
X105828657Y-86121867D01*
X105423128Y-85716338D01*
X105355799Y-85842308D01*
X105355795Y-85842318D01*
X105297699Y-86033836D01*
X105278084Y-86232996D01*
X105278084Y-86233003D01*
X101981000Y-86233003D01*
X101981000Y-83693003D01*
X105278084Y-83693003D01*
X105297699Y-83892163D01*
X105355795Y-84083681D01*
X105355797Y-84083687D01*
X105423129Y-84209659D01*
X105828657Y-83804131D01*
X105855497Y-83895541D01*
X105930524Y-84012286D01*
X106035404Y-84103164D01*
X106161638Y-84160813D01*
X106186781Y-84164428D01*
X105782339Y-84568869D01*
X105908313Y-84636202D01*
X105908318Y-84636204D01*
X106099836Y-84694300D01*
X106099835Y-84694300D01*
X106298997Y-84713916D01*
X106299003Y-84713916D01*
X106498163Y-84694300D01*
X106689688Y-84636202D01*
X106815659Y-84568870D01*
X106411218Y-84164428D01*
X106436362Y-84160813D01*
X106562596Y-84103164D01*
X106667476Y-84012286D01*
X106742503Y-83895541D01*
X106769342Y-83804133D01*
X107174870Y-84209659D01*
X107242202Y-84083688D01*
X107300300Y-83892163D01*
X107319916Y-83693003D01*
X107818084Y-83693003D01*
X107837699Y-83892163D01*
X107895795Y-84083681D01*
X107895797Y-84083687D01*
X107963129Y-84209659D01*
X108368656Y-83804131D01*
X108395497Y-83895541D01*
X108470524Y-84012286D01*
X108575404Y-84103164D01*
X108701638Y-84160813D01*
X108726781Y-84164428D01*
X108322339Y-84568869D01*
X108448313Y-84636202D01*
X108448318Y-84636204D01*
X108639836Y-84694300D01*
X108639835Y-84694300D01*
X108838997Y-84713916D01*
X108839003Y-84713916D01*
X109038163Y-84694300D01*
X109229688Y-84636202D01*
X109355659Y-84568870D01*
X108951218Y-84164428D01*
X108976362Y-84160813D01*
X109102596Y-84103164D01*
X109207476Y-84012286D01*
X109282503Y-83895541D01*
X109309342Y-83804131D01*
X109714870Y-84209659D01*
X109782202Y-84083688D01*
X109840300Y-83892163D01*
X109859916Y-83693003D01*
X109859916Y-83692996D01*
X109840300Y-83493836D01*
X109782204Y-83302318D01*
X109782202Y-83302313D01*
X109714869Y-83176339D01*
X109309342Y-83581866D01*
X109282503Y-83490459D01*
X109207476Y-83373714D01*
X109102596Y-83282836D01*
X108976362Y-83225187D01*
X108951217Y-83221571D01*
X109355659Y-82817129D01*
X109229687Y-82749797D01*
X109229681Y-82749795D01*
X109038163Y-82691699D01*
X109038164Y-82691699D01*
X108839003Y-82672084D01*
X108838997Y-82672084D01*
X108639836Y-82691699D01*
X108448318Y-82749795D01*
X108448308Y-82749799D01*
X108322338Y-82817128D01*
X108322338Y-82817129D01*
X108726780Y-83221571D01*
X108701638Y-83225187D01*
X108575404Y-83282836D01*
X108470524Y-83373714D01*
X108395497Y-83490459D01*
X108368657Y-83581866D01*
X107963129Y-83176338D01*
X107963128Y-83176338D01*
X107895799Y-83302308D01*
X107895795Y-83302318D01*
X107837699Y-83493836D01*
X107818084Y-83692996D01*
X107818084Y-83693003D01*
X107319916Y-83693003D01*
X107319916Y-83692996D01*
X107300300Y-83493836D01*
X107242204Y-83302318D01*
X107242202Y-83302313D01*
X107174869Y-83176338D01*
X106769341Y-83581865D01*
X106742503Y-83490459D01*
X106667476Y-83373714D01*
X106562596Y-83282836D01*
X106436362Y-83225187D01*
X106411217Y-83221571D01*
X106815659Y-82817129D01*
X106689687Y-82749797D01*
X106689681Y-82749795D01*
X106498163Y-82691699D01*
X106498164Y-82691699D01*
X106299003Y-82672084D01*
X106298997Y-82672084D01*
X106099836Y-82691699D01*
X105908318Y-82749795D01*
X105908308Y-82749799D01*
X105782338Y-82817128D01*
X105782338Y-82817129D01*
X106186780Y-83221571D01*
X106161638Y-83225187D01*
X106035404Y-83282836D01*
X105930524Y-83373714D01*
X105855497Y-83490459D01*
X105828657Y-83581866D01*
X105423129Y-83176338D01*
X105423128Y-83176338D01*
X105355799Y-83302308D01*
X105355795Y-83302318D01*
X105297699Y-83493836D01*
X105278084Y-83692996D01*
X105278084Y-83693003D01*
X101981000Y-83693003D01*
X101981000Y-81153003D01*
X105277582Y-81153003D01*
X105297206Y-81352261D01*
X105297206Y-81352263D01*
X105355332Y-81543877D01*
X105355334Y-81543883D01*
X105449720Y-81720466D01*
X105449722Y-81720469D01*
X105576748Y-81875252D01*
X105731531Y-82002278D01*
X105908120Y-82096667D01*
X106099731Y-82154792D01*
X106099735Y-82154792D01*
X106099737Y-82154793D01*
X106298997Y-82174418D01*
X106299000Y-82174418D01*
X106299003Y-82174418D01*
X106498261Y-82154793D01*
X106498263Y-82154793D01*
X106498264Y-82154792D01*
X106498269Y-82154792D01*
X106689880Y-82096667D01*
X106866469Y-82002278D01*
X107021252Y-81875252D01*
X107148278Y-81720469D01*
X107242667Y-81543880D01*
X107300792Y-81352269D01*
X107320418Y-81153003D01*
X107817582Y-81153003D01*
X107837206Y-81352261D01*
X107837206Y-81352263D01*
X107895332Y-81543877D01*
X107895334Y-81543883D01*
X107989720Y-81720466D01*
X107989722Y-81720469D01*
X108116748Y-81875252D01*
X108271531Y-82002278D01*
X108448120Y-82096667D01*
X108639731Y-82154792D01*
X108639735Y-82154792D01*
X108639737Y-82154793D01*
X108838997Y-82174418D01*
X108839000Y-82174418D01*
X108839003Y-82174418D01*
X109038261Y-82154793D01*
X109038263Y-82154793D01*
X109038264Y-82154792D01*
X109038269Y-82154792D01*
X109229880Y-82096667D01*
X109406469Y-82002278D01*
X109561252Y-81875252D01*
X109688278Y-81720469D01*
X109782667Y-81543880D01*
X109840792Y-81352269D01*
X109860418Y-81153000D01*
X109842101Y-80967025D01*
X109840793Y-80953738D01*
X109840793Y-80953736D01*
X109840792Y-80953733D01*
X109840792Y-80953731D01*
X109782667Y-80762120D01*
X109779320Y-80755859D01*
X109688279Y-80585533D01*
X109688278Y-80585531D01*
X109561252Y-80430748D01*
X109406469Y-80303722D01*
X109406467Y-80303721D01*
X109406466Y-80303720D01*
X109229883Y-80209334D01*
X109229877Y-80209332D01*
X109038262Y-80151206D01*
X108839003Y-80131582D01*
X108838997Y-80131582D01*
X108639738Y-80151206D01*
X108639736Y-80151206D01*
X108448122Y-80209332D01*
X108448116Y-80209334D01*
X108271533Y-80303720D01*
X108116748Y-80430748D01*
X107989720Y-80585533D01*
X107895334Y-80762116D01*
X107895332Y-80762122D01*
X107837206Y-80953736D01*
X107837206Y-80953738D01*
X107817582Y-81152996D01*
X107817582Y-81153003D01*
X107320418Y-81153003D01*
X107320418Y-81153000D01*
X107302101Y-80967025D01*
X107300793Y-80953738D01*
X107300793Y-80953736D01*
X107300792Y-80953733D01*
X107300792Y-80953731D01*
X107242667Y-80762120D01*
X107239320Y-80755859D01*
X107148279Y-80585533D01*
X107148278Y-80585531D01*
X107021252Y-80430748D01*
X106866469Y-80303722D01*
X106866467Y-80303721D01*
X106866466Y-80303720D01*
X106689883Y-80209334D01*
X106689877Y-80209332D01*
X106498262Y-80151206D01*
X106299003Y-80131582D01*
X106298997Y-80131582D01*
X106099738Y-80151206D01*
X106099736Y-80151206D01*
X105908122Y-80209332D01*
X105908116Y-80209334D01*
X105731533Y-80303720D01*
X105576748Y-80430748D01*
X105449720Y-80585533D01*
X105355334Y-80762116D01*
X105355332Y-80762122D01*
X105297206Y-80953736D01*
X105297206Y-80953738D01*
X105277582Y-81152996D01*
X105277582Y-81153003D01*
X101981000Y-81153003D01*
X101981000Y-78613003D01*
X105277582Y-78613003D01*
X105297206Y-78812261D01*
X105297206Y-78812263D01*
X105355332Y-79003877D01*
X105355334Y-79003883D01*
X105449720Y-79180466D01*
X105449722Y-79180469D01*
X105576748Y-79335252D01*
X105731531Y-79462278D01*
X105908120Y-79556667D01*
X106099731Y-79614792D01*
X106099735Y-79614792D01*
X106099737Y-79614793D01*
X106298997Y-79634418D01*
X106299000Y-79634418D01*
X106299003Y-79634418D01*
X106498261Y-79614793D01*
X106498263Y-79614793D01*
X106498264Y-79614792D01*
X106498269Y-79614792D01*
X106689880Y-79556667D01*
X106866469Y-79462278D01*
X107021252Y-79335252D01*
X107148278Y-79180469D01*
X107242667Y-79003880D01*
X107300792Y-78812269D01*
X107307614Y-78743005D01*
X107320418Y-78613003D01*
X107817582Y-78613003D01*
X107837206Y-78812261D01*
X107837206Y-78812263D01*
X107895332Y-79003877D01*
X107895334Y-79003883D01*
X107989720Y-79180466D01*
X107989722Y-79180469D01*
X108116748Y-79335252D01*
X108271531Y-79462278D01*
X108448120Y-79556667D01*
X108639731Y-79614792D01*
X108639735Y-79614792D01*
X108639737Y-79614793D01*
X108838997Y-79634418D01*
X108839000Y-79634418D01*
X108839003Y-79634418D01*
X109038261Y-79614793D01*
X109038263Y-79614793D01*
X109038264Y-79614792D01*
X109038269Y-79614792D01*
X109229880Y-79556667D01*
X109406469Y-79462278D01*
X109561252Y-79335252D01*
X109688278Y-79180469D01*
X109782667Y-79003880D01*
X109840792Y-78812269D01*
X109847614Y-78743007D01*
X147322500Y-78743007D01*
X147334053Y-78850457D01*
X147334055Y-78850470D01*
X147345258Y-78901964D01*
X147345262Y-78901978D01*
X147379385Y-79004501D01*
X147457176Y-79125545D01*
X147457177Y-79125547D01*
X147502926Y-79178343D01*
X147502928Y-79178344D01*
X147502930Y-79178347D01*
X147611664Y-79272567D01*
X147742541Y-79332338D01*
X147809580Y-79352023D01*
X147809584Y-79352024D01*
X147952000Y-79372500D01*
X158879995Y-79372500D01*
X158880000Y-79372500D01*
X158987456Y-79360947D01*
X159038967Y-79349741D01*
X159141504Y-79315613D01*
X159262543Y-79237825D01*
X159262545Y-79237822D01*
X159262547Y-79237822D01*
X159288944Y-79214947D01*
X159315347Y-79192070D01*
X159409567Y-79083336D01*
X159469338Y-78952459D01*
X159489023Y-78885420D01*
X159489024Y-78885418D01*
X159489023Y-78885417D01*
X159489024Y-78885416D01*
X159509500Y-78743000D01*
X159509500Y-69212000D01*
X159497947Y-69104544D01*
X159486741Y-69053033D01*
X159486138Y-69051222D01*
X159452614Y-68950498D01*
X159374823Y-68829454D01*
X159374822Y-68829452D01*
X159329073Y-68776656D01*
X159220337Y-68682434D01*
X159220336Y-68682433D01*
X159089460Y-68622662D01*
X159022420Y-68602976D01*
X159022417Y-68602976D01*
X158880005Y-68582500D01*
X158880000Y-68582500D01*
X147952000Y-68582500D01*
X147951992Y-68582500D01*
X147844542Y-68594053D01*
X147844529Y-68594055D01*
X147793035Y-68605258D01*
X147793021Y-68605262D01*
X147690498Y-68639385D01*
X147569454Y-68717176D01*
X147569452Y-68717177D01*
X147516656Y-68762926D01*
X147422434Y-68871662D01*
X147422433Y-68871663D01*
X147362662Y-69002539D01*
X147342976Y-69069579D01*
X147342976Y-69069582D01*
X147322500Y-69211994D01*
X147322500Y-78743007D01*
X109847614Y-78743007D01*
X109847614Y-78743005D01*
X109860418Y-78613003D01*
X109860418Y-78612996D01*
X109840793Y-78413738D01*
X109840793Y-78413736D01*
X109840792Y-78413733D01*
X109840792Y-78413731D01*
X109782667Y-78222120D01*
X109688278Y-78045531D01*
X109561252Y-77890748D01*
X109406469Y-77763722D01*
X109406467Y-77763721D01*
X109406466Y-77763720D01*
X109229883Y-77669334D01*
X109229877Y-77669332D01*
X109038262Y-77611206D01*
X108839003Y-77591582D01*
X108838997Y-77591582D01*
X108639738Y-77611206D01*
X108639736Y-77611206D01*
X108448122Y-77669332D01*
X108448116Y-77669334D01*
X108271533Y-77763720D01*
X108116748Y-77890748D01*
X107989720Y-78045533D01*
X107895334Y-78222116D01*
X107895332Y-78222122D01*
X107837206Y-78413736D01*
X107837206Y-78413738D01*
X107817582Y-78612996D01*
X107817582Y-78613003D01*
X107320418Y-78613003D01*
X107320418Y-78612996D01*
X107300793Y-78413738D01*
X107300793Y-78413736D01*
X107300792Y-78413733D01*
X107300792Y-78413731D01*
X107242667Y-78222120D01*
X107148278Y-78045531D01*
X107021252Y-77890748D01*
X106866469Y-77763722D01*
X106866467Y-77763721D01*
X106866466Y-77763720D01*
X106689883Y-77669334D01*
X106689877Y-77669332D01*
X106498262Y-77611206D01*
X106299003Y-77591582D01*
X106298997Y-77591582D01*
X106099738Y-77611206D01*
X106099736Y-77611206D01*
X105908122Y-77669332D01*
X105908116Y-77669334D01*
X105731533Y-77763720D01*
X105576748Y-77890748D01*
X105449720Y-78045533D01*
X105355334Y-78222116D01*
X105355332Y-78222122D01*
X105297206Y-78413736D01*
X105297206Y-78413738D01*
X105277582Y-78612996D01*
X105277582Y-78613003D01*
X101981000Y-78613003D01*
X101981000Y-76073003D01*
X105277582Y-76073003D01*
X105297206Y-76272261D01*
X105297206Y-76272263D01*
X105355332Y-76463877D01*
X105355334Y-76463883D01*
X105449720Y-76640466D01*
X105449722Y-76640469D01*
X105576748Y-76795252D01*
X105731531Y-76922278D01*
X105908120Y-77016667D01*
X106099731Y-77074792D01*
X106099735Y-77074792D01*
X106099737Y-77074793D01*
X106298997Y-77094418D01*
X106299000Y-77094418D01*
X106299003Y-77094418D01*
X106498261Y-77074793D01*
X106498263Y-77074793D01*
X106498264Y-77074792D01*
X106498269Y-77074792D01*
X106689880Y-77016667D01*
X106866469Y-76922278D01*
X107021252Y-76795252D01*
X107148278Y-76640469D01*
X107242667Y-76463880D01*
X107300792Y-76272269D01*
X107320418Y-76073003D01*
X107817582Y-76073003D01*
X107837206Y-76272261D01*
X107837206Y-76272263D01*
X107895332Y-76463877D01*
X107895334Y-76463883D01*
X107989720Y-76640466D01*
X107989722Y-76640469D01*
X108116748Y-76795252D01*
X108271531Y-76922278D01*
X108448120Y-77016667D01*
X108639731Y-77074792D01*
X108639735Y-77074792D01*
X108639737Y-77074793D01*
X108838997Y-77094418D01*
X108839000Y-77094418D01*
X108839003Y-77094418D01*
X109038261Y-77074793D01*
X109038263Y-77074793D01*
X109038264Y-77074792D01*
X109038269Y-77074792D01*
X109229880Y-77016667D01*
X109406469Y-76922278D01*
X109561252Y-76795252D01*
X109688278Y-76640469D01*
X109782667Y-76463880D01*
X109840792Y-76272269D01*
X109860418Y-76073000D01*
X109840793Y-75873738D01*
X109840793Y-75873736D01*
X109840792Y-75873733D01*
X109840792Y-75873731D01*
X109782667Y-75682120D01*
X109688278Y-75505531D01*
X109561252Y-75350748D01*
X109406469Y-75223722D01*
X109406467Y-75223721D01*
X109406466Y-75223720D01*
X109229883Y-75129334D01*
X109229877Y-75129332D01*
X109038262Y-75071206D01*
X108839003Y-75051582D01*
X108838997Y-75051582D01*
X108639738Y-75071206D01*
X108639736Y-75071206D01*
X108448122Y-75129332D01*
X108448116Y-75129334D01*
X108271533Y-75223720D01*
X108116748Y-75350748D01*
X107989720Y-75505533D01*
X107895334Y-75682116D01*
X107895332Y-75682122D01*
X107837206Y-75873736D01*
X107837206Y-75873738D01*
X107817582Y-76072996D01*
X107817582Y-76073003D01*
X107320418Y-76073003D01*
X107320418Y-76073000D01*
X107300793Y-75873738D01*
X107300793Y-75873736D01*
X107300792Y-75873733D01*
X107300792Y-75873731D01*
X107242667Y-75682120D01*
X107148278Y-75505531D01*
X107021252Y-75350748D01*
X106866469Y-75223722D01*
X106866467Y-75223721D01*
X106866466Y-75223720D01*
X106689883Y-75129334D01*
X106689877Y-75129332D01*
X106498262Y-75071206D01*
X106299003Y-75051582D01*
X106298997Y-75051582D01*
X106099738Y-75071206D01*
X106099736Y-75071206D01*
X105908122Y-75129332D01*
X105908116Y-75129334D01*
X105731533Y-75223720D01*
X105576748Y-75350748D01*
X105449720Y-75505533D01*
X105355334Y-75682116D01*
X105355332Y-75682122D01*
X105297206Y-75873736D01*
X105297206Y-75873738D01*
X105277582Y-76072996D01*
X105277582Y-76073003D01*
X101981000Y-76073003D01*
X101981000Y-73533003D01*
X105277582Y-73533003D01*
X105297206Y-73732261D01*
X105297206Y-73732263D01*
X105355332Y-73923877D01*
X105355334Y-73923883D01*
X105449720Y-74100466D01*
X105449722Y-74100469D01*
X105576748Y-74255252D01*
X105731531Y-74382278D01*
X105908120Y-74476667D01*
X106099731Y-74534792D01*
X106099735Y-74534792D01*
X106099737Y-74534793D01*
X106298997Y-74554418D01*
X106299000Y-74554418D01*
X106299003Y-74554418D01*
X106498261Y-74534793D01*
X106498263Y-74534793D01*
X106498264Y-74534792D01*
X106498269Y-74534792D01*
X106689880Y-74476667D01*
X106866469Y-74382278D01*
X107021252Y-74255252D01*
X107148278Y-74100469D01*
X107242667Y-73923880D01*
X107300792Y-73732269D01*
X107320418Y-73533003D01*
X107817582Y-73533003D01*
X107837206Y-73732261D01*
X107837206Y-73732263D01*
X107895332Y-73923877D01*
X107895334Y-73923883D01*
X107989720Y-74100466D01*
X107989722Y-74100469D01*
X108116748Y-74255252D01*
X108271531Y-74382278D01*
X108448120Y-74476667D01*
X108639731Y-74534792D01*
X108639735Y-74534792D01*
X108639737Y-74534793D01*
X108838997Y-74554418D01*
X108839000Y-74554418D01*
X108839003Y-74554418D01*
X109038261Y-74534793D01*
X109038263Y-74534793D01*
X109038264Y-74534792D01*
X109038269Y-74534792D01*
X109229880Y-74476667D01*
X109406469Y-74382278D01*
X109561252Y-74255252D01*
X109688278Y-74100469D01*
X109782667Y-73923880D01*
X109840792Y-73732269D01*
X109860418Y-73533000D01*
X109840793Y-73333738D01*
X109840793Y-73333736D01*
X109840792Y-73333733D01*
X109840792Y-73333731D01*
X109782667Y-73142120D01*
X109688278Y-72965531D01*
X109561252Y-72810748D01*
X109406469Y-72683722D01*
X109406467Y-72683721D01*
X109406466Y-72683720D01*
X109392141Y-72676063D01*
X122820500Y-72676063D01*
X122820501Y-72676073D01*
X122835265Y-72750300D01*
X122891516Y-72834484D01*
X122975697Y-72890733D01*
X122975699Y-72890734D01*
X123049933Y-72905500D01*
X124600066Y-72905499D01*
X124600069Y-72905498D01*
X124600073Y-72905498D01*
X124649326Y-72895701D01*
X124674301Y-72890734D01*
X124758484Y-72834484D01*
X124814734Y-72750301D01*
X124829500Y-72676067D01*
X124829500Y-71951937D01*
X125361000Y-71951937D01*
X125376479Y-72104141D01*
X125437607Y-72298973D01*
X125536702Y-72477508D01*
X125669709Y-72632443D01*
X125831185Y-72757435D01*
X126014502Y-72847357D01*
X126110999Y-72872341D01*
X126111000Y-72872341D01*
X126111000Y-71934674D01*
X126222685Y-71985680D01*
X126329237Y-72001000D01*
X126400763Y-72001000D01*
X126507315Y-71985680D01*
X126619000Y-71934674D01*
X126619000Y-72877573D01*
X126809434Y-72807045D01*
X126982721Y-72699034D01*
X126982722Y-72699033D01*
X127130722Y-72558349D01*
X127130724Y-72558347D01*
X127247370Y-72390757D01*
X127327894Y-72203114D01*
X127369000Y-72003094D01*
X127369000Y-71951939D01*
X127900499Y-71951939D01*
X127900501Y-71951958D01*
X127905707Y-72003148D01*
X127915988Y-72104247D01*
X127977147Y-72299173D01*
X128076292Y-72477798D01*
X128209364Y-72632809D01*
X128370916Y-72757859D01*
X128554333Y-72847830D01*
X128752106Y-72899037D01*
X128752110Y-72899037D01*
X128752113Y-72899038D01*
X128956138Y-72909384D01*
X128956138Y-72909383D01*
X128956139Y-72909384D01*
X129158079Y-72878448D01*
X129349657Y-72807495D01*
X129523031Y-72699430D01*
X129671103Y-72558678D01*
X129787810Y-72391000D01*
X129868375Y-72203261D01*
X129909500Y-72003148D01*
X129909500Y-71050060D01*
X129894012Y-70897753D01*
X129832853Y-70702827D01*
X129733708Y-70524202D01*
X129600636Y-70369191D01*
X129439084Y-70244141D01*
X129255667Y-70154170D01*
X129057894Y-70102963D01*
X129057892Y-70102962D01*
X129057889Y-70102962D01*
X129057886Y-70102961D01*
X128853861Y-70092615D01*
X128651924Y-70123551D01*
X128651921Y-70123551D01*
X128651921Y-70123552D01*
X128569248Y-70154171D01*
X128460340Y-70194506D01*
X128286967Y-70302571D01*
X128138897Y-70443321D01*
X128022190Y-70610998D01*
X127941626Y-70798735D01*
X127900500Y-70998850D01*
X127900500Y-70998856D01*
X127900499Y-71951939D01*
X127369000Y-71951939D01*
X127369000Y-71755000D01*
X126796116Y-71755000D01*
X126824493Y-71710844D01*
X126865000Y-71572889D01*
X126865000Y-71429111D01*
X126824493Y-71291156D01*
X126796116Y-71247000D01*
X127369000Y-71247000D01*
X127369000Y-71050081D01*
X127368999Y-71050062D01*
X127353520Y-70897858D01*
X127292392Y-70703026D01*
X127193297Y-70524491D01*
X127060290Y-70369556D01*
X126898814Y-70244564D01*
X126715495Y-70154642D01*
X126715494Y-70154641D01*
X126619000Y-70129657D01*
X126618999Y-71067325D01*
X126507315Y-71016320D01*
X126400763Y-71001000D01*
X126329237Y-71001000D01*
X126222685Y-71016320D01*
X126110999Y-71067325D01*
X126110999Y-70124425D01*
X125920561Y-70194956D01*
X125747278Y-70302965D01*
X125747277Y-70302966D01*
X125599277Y-70443650D01*
X125599275Y-70443652D01*
X125482629Y-70611242D01*
X125402105Y-70798885D01*
X125361000Y-70998905D01*
X125361000Y-71247000D01*
X125933884Y-71247000D01*
X125905507Y-71291156D01*
X125865000Y-71429111D01*
X125865000Y-71572889D01*
X125905507Y-71710844D01*
X125933884Y-71755000D01*
X125361000Y-71755000D01*
X125361000Y-71951937D01*
X124829500Y-71951937D01*
X124829499Y-70325934D01*
X124829498Y-70325930D01*
X124829498Y-70325926D01*
X124814734Y-70251699D01*
X124776518Y-70194506D01*
X124758484Y-70167516D01*
X124758483Y-70167515D01*
X124674302Y-70111266D01*
X124600067Y-70096500D01*
X123049936Y-70096500D01*
X123049926Y-70096501D01*
X122975699Y-70111265D01*
X122891515Y-70167516D01*
X122835266Y-70251697D01*
X122820500Y-70325930D01*
X122820500Y-72676063D01*
X109392141Y-72676063D01*
X109229883Y-72589334D01*
X109229877Y-72589332D01*
X109038262Y-72531206D01*
X108839003Y-72511582D01*
X108838997Y-72511582D01*
X108639738Y-72531206D01*
X108639736Y-72531206D01*
X108448122Y-72589332D01*
X108448116Y-72589334D01*
X108271533Y-72683720D01*
X108116748Y-72810748D01*
X107989720Y-72965533D01*
X107895334Y-73142116D01*
X107895332Y-73142122D01*
X107837206Y-73333736D01*
X107837206Y-73333738D01*
X107817582Y-73532996D01*
X107817582Y-73533003D01*
X107320418Y-73533003D01*
X107320418Y-73533000D01*
X107300793Y-73333738D01*
X107300793Y-73333736D01*
X107300792Y-73333733D01*
X107300792Y-73333731D01*
X107242667Y-73142120D01*
X107148278Y-72965531D01*
X107021252Y-72810748D01*
X106866469Y-72683722D01*
X106866467Y-72683721D01*
X106866466Y-72683720D01*
X106689883Y-72589334D01*
X106689877Y-72589332D01*
X106498262Y-72531206D01*
X106299003Y-72511582D01*
X106298997Y-72511582D01*
X106099738Y-72531206D01*
X106099736Y-72531206D01*
X105908122Y-72589332D01*
X105908116Y-72589334D01*
X105731533Y-72683720D01*
X105576748Y-72810748D01*
X105449720Y-72965533D01*
X105355334Y-73142116D01*
X105355332Y-73142122D01*
X105297206Y-73333736D01*
X105297206Y-73333738D01*
X105277582Y-73532996D01*
X105277582Y-73533003D01*
X101981000Y-73533003D01*
X101981000Y-68198000D01*
X102001002Y-68129879D01*
X102054658Y-68083386D01*
X102107000Y-68072000D01*
X169673000Y-68072000D01*
X169741121Y-68092002D01*
G37*
%TD.AperFunction*%
%TD*%
M02*
