%TF.GenerationSoftware,KiCad,Pcbnew,7.0.6-1.fc38*%
%TF.CreationDate,2023-08-24T19:35:41-07:00*%
%TF.ProjectId,s3gta_back,73336774-615f-4626-9163-6b2e6b696361,rev?*%
%TF.SameCoordinates,Original*%
%TF.FileFunction,Paste,Bot*%
%TF.FilePolarity,Positive*%
%FSLAX46Y46*%
G04 Gerber Fmt 4.6, Leading zero omitted, Abs format (unit mm)*
G04 Created by KiCad (PCBNEW 7.0.6-1.fc38) date 2023-08-24 19:35:41*
%MOMM*%
%LPD*%
G01*
G04 APERTURE LIST*
G04 Aperture macros list*
%AMRoundRect*
0 Rectangle with rounded corners*
0 $1 Rounding radius*
0 $2 $3 $4 $5 $6 $7 $8 $9 X,Y pos of 4 corners*
0 Add a 4 corners polygon primitive as box body*
4,1,4,$2,$3,$4,$5,$6,$7,$8,$9,$2,$3,0*
0 Add four circle primitives for the rounded corners*
1,1,$1+$1,$2,$3*
1,1,$1+$1,$4,$5*
1,1,$1+$1,$6,$7*
1,1,$1+$1,$8,$9*
0 Add four rect primitives between the rounded corners*
20,1,$1+$1,$2,$3,$4,$5,0*
20,1,$1+$1,$4,$5,$6,$7,0*
20,1,$1+$1,$6,$7,$8,$9,0*
20,1,$1+$1,$8,$9,$2,$3,0*%
G04 Aperture macros list end*
%ADD10RoundRect,0.250000X1.000000X0.650000X-1.000000X0.650000X-1.000000X-0.650000X1.000000X-0.650000X0*%
%ADD11RoundRect,0.200000X0.275000X-0.200000X0.275000X0.200000X-0.275000X0.200000X-0.275000X-0.200000X0*%
%ADD12RoundRect,0.200000X0.200000X0.275000X-0.200000X0.275000X-0.200000X-0.275000X0.200000X-0.275000X0*%
%ADD13RoundRect,0.200000X-0.200000X-0.275000X0.200000X-0.275000X0.200000X0.275000X-0.200000X0.275000X0*%
%ADD14RoundRect,0.250000X1.050000X0.550000X-1.050000X0.550000X-1.050000X-0.550000X1.050000X-0.550000X0*%
%ADD15RoundRect,0.200000X-0.275000X0.200000X-0.275000X-0.200000X0.275000X-0.200000X0.275000X0.200000X0*%
%ADD16RoundRect,0.225000X0.250000X-0.225000X0.250000X0.225000X-0.250000X0.225000X-0.250000X-0.225000X0*%
%ADD17RoundRect,0.225000X-0.250000X0.225000X-0.250000X-0.225000X0.250000X-0.225000X0.250000X0.225000X0*%
%ADD18RoundRect,0.225000X0.225000X0.250000X-0.225000X0.250000X-0.225000X-0.250000X0.225000X-0.250000X0*%
%ADD19R,2.000000X1.500000*%
%ADD20R,2.000000X3.800000*%
%ADD21RoundRect,0.218750X0.218750X0.381250X-0.218750X0.381250X-0.218750X-0.381250X0.218750X-0.381250X0*%
%ADD22RoundRect,0.225000X-0.225000X-0.250000X0.225000X-0.250000X0.225000X0.250000X-0.225000X0.250000X0*%
%ADD23RoundRect,0.218750X0.256250X-0.218750X0.256250X0.218750X-0.256250X0.218750X-0.256250X-0.218750X0*%
%ADD24RoundRect,0.250000X0.250000X0.475000X-0.250000X0.475000X-0.250000X-0.475000X0.250000X-0.475000X0*%
%ADD25RoundRect,0.150000X-0.587500X-0.150000X0.587500X-0.150000X0.587500X0.150000X-0.587500X0.150000X0*%
%ADD26RoundRect,0.250000X-1.000000X-0.650000X1.000000X-0.650000X1.000000X0.650000X-1.000000X0.650000X0*%
%ADD27RoundRect,0.150000X0.825000X0.150000X-0.825000X0.150000X-0.825000X-0.150000X0.825000X-0.150000X0*%
G04 APERTURE END LIST*
D10*
%TO.C,D2*%
X118459000Y-81153000D03*
X114459000Y-81153000D03*
%TD*%
D11*
%TO.C,R23*%
X131419600Y-126339600D03*
X131419600Y-124689600D03*
%TD*%
D12*
%TO.C,R19*%
X130009400Y-126288800D03*
X128359400Y-126288800D03*
%TD*%
D13*
%TO.C,R7*%
X145021800Y-102565200D03*
X146671800Y-102565200D03*
%TD*%
D14*
%TO.C,C15*%
X149450000Y-93400000D03*
X145850000Y-93400000D03*
%TD*%
D15*
%TO.C,R22*%
X131521200Y-118504200D03*
X131521200Y-120154200D03*
%TD*%
D12*
%TO.C,R32*%
X122706400Y-127888000D03*
X121056400Y-127888000D03*
%TD*%
D13*
%TO.C,R9*%
X145021800Y-110236000D03*
X146671800Y-110236000D03*
%TD*%
%TO.C,R26*%
X145009600Y-120091200D03*
X146659600Y-120091200D03*
%TD*%
D16*
%TO.C,C23*%
X142036800Y-120104200D03*
X142036800Y-118554200D03*
%TD*%
D17*
%TO.C,C13*%
X143002000Y-93472000D03*
X143002000Y-95022000D03*
%TD*%
%TO.C,C4*%
X142087600Y-102552200D03*
X142087600Y-104102200D03*
%TD*%
D18*
%TO.C,C9*%
X161798000Y-82042000D03*
X160248000Y-82042000D03*
%TD*%
D12*
%TO.C,R15*%
X134581400Y-111810800D03*
X132931400Y-111810800D03*
%TD*%
%TO.C,R2*%
X130161800Y-104089200D03*
X128511800Y-104089200D03*
%TD*%
D14*
%TO.C,C20*%
X156700000Y-95123000D03*
X153100000Y-95123000D03*
%TD*%
D18*
%TO.C,C8*%
X161798000Y-86995000D03*
X160248000Y-86995000D03*
%TD*%
D19*
%TO.C,U6*%
X146329000Y-76087000D03*
X146329000Y-73787000D03*
D20*
X152629000Y-73787000D03*
D19*
X146329000Y-71487000D03*
%TD*%
D15*
%TO.C,R10*%
X131572000Y-102502200D03*
X131572000Y-104152200D03*
%TD*%
D21*
%TO.C,FB1*%
X123791000Y-91313000D03*
X121666000Y-91313000D03*
%TD*%
D13*
%TO.C,R6*%
X145021800Y-104038400D03*
X146671800Y-104038400D03*
%TD*%
D17*
%TO.C,C24*%
X142036800Y-124751800D03*
X142036800Y-126301800D03*
%TD*%
D16*
%TO.C,C5*%
X142087600Y-110299800D03*
X142087600Y-108749800D03*
%TD*%
D12*
%TO.C,R4*%
X130212600Y-108762800D03*
X128562600Y-108762800D03*
%TD*%
%TO.C,R14*%
X134581400Y-101041200D03*
X132931400Y-101041200D03*
%TD*%
D13*
%TO.C,R1*%
X117373400Y-93980000D03*
X119023400Y-93980000D03*
%TD*%
D18*
%TO.C,C17*%
X123825000Y-89535000D03*
X122275000Y-89535000D03*
%TD*%
D12*
%TO.C,R30*%
X146659600Y-118567200D03*
X145009600Y-118567200D03*
%TD*%
D22*
%TO.C,C22*%
X131368800Y-122529600D03*
X132918800Y-122529600D03*
%TD*%
D23*
%TO.C,L1*%
X142748000Y-77724000D03*
X142748000Y-76149000D03*
%TD*%
D12*
%TO.C,R24*%
X141224000Y-93472000D03*
X139574000Y-93472000D03*
%TD*%
D11*
%TO.C,R11*%
X131622800Y-110349800D03*
X131622800Y-108699800D03*
%TD*%
D24*
%TO.C,C25*%
X143886000Y-71247000D03*
X141986000Y-71247000D03*
%TD*%
D15*
%TO.C,R12*%
X143611600Y-102502200D03*
X143611600Y-104152200D03*
%TD*%
D17*
%TO.C,C11*%
X132994400Y-118554200D03*
X132994400Y-120104200D03*
%TD*%
D14*
%TO.C,C19*%
X156700000Y-89916000D03*
X153100000Y-89916000D03*
%TD*%
D25*
%TO.C,Q1*%
X121109500Y-125791000D03*
X121109500Y-123891000D03*
X122984500Y-124841000D03*
%TD*%
D26*
%TO.C,D1*%
X114459000Y-91313000D03*
X118459000Y-91313000D03*
%TD*%
D12*
%TO.C,R33*%
X161861000Y-88646000D03*
X160211000Y-88646000D03*
%TD*%
D17*
%TO.C,C1*%
X115747800Y-95897400D03*
X115747800Y-97447400D03*
%TD*%
D27*
%TO.C,U2*%
X140041400Y-102616000D03*
X140041400Y-103886000D03*
X140041400Y-105156000D03*
X140041400Y-106426000D03*
X140041400Y-107696000D03*
X140041400Y-108966000D03*
X140041400Y-110236000D03*
X135091400Y-110236000D03*
X135091400Y-108966000D03*
X135091400Y-107696000D03*
X135091400Y-106426000D03*
X135091400Y-105156000D03*
X135091400Y-103886000D03*
X135091400Y-102616000D03*
%TD*%
D11*
%TO.C,R29*%
X143510000Y-126351800D03*
X143510000Y-124701800D03*
%TD*%
D18*
%TO.C,C18*%
X123749400Y-82956400D03*
X122199400Y-82956400D03*
%TD*%
D15*
%TO.C,R28*%
X143560800Y-118504200D03*
X143560800Y-120154200D03*
%TD*%
D12*
%TO.C,R18*%
X130060200Y-118567200D03*
X128410200Y-118567200D03*
%TD*%
D14*
%TO.C,C16*%
X149450000Y-88250000D03*
X145850000Y-88250000D03*
%TD*%
D18*
%TO.C,C10*%
X161798000Y-83693000D03*
X160248000Y-83693000D03*
%TD*%
D12*
%TO.C,R31*%
X146570200Y-126288800D03*
X144920200Y-126288800D03*
%TD*%
D24*
%TO.C,C27*%
X143891000Y-73914000D03*
X141991000Y-73914000D03*
%TD*%
D22*
%TO.C,C6*%
X142240000Y-106426000D03*
X143790000Y-106426000D03*
%TD*%
D13*
%TO.C,R16*%
X140500600Y-101041200D03*
X142150600Y-101041200D03*
%TD*%
D27*
%TO.C,U3*%
X140016000Y-118618000D03*
X140016000Y-119888000D03*
X140016000Y-121158000D03*
X140016000Y-122428000D03*
X140016000Y-123698000D03*
X140016000Y-124968000D03*
X140016000Y-126238000D03*
X135066000Y-126238000D03*
X135066000Y-124968000D03*
X135066000Y-123698000D03*
X135066000Y-122428000D03*
X135066000Y-121158000D03*
X135066000Y-119888000D03*
X135066000Y-118618000D03*
%TD*%
D12*
%TO.C,R3*%
X130161800Y-102565200D03*
X128511800Y-102565200D03*
%TD*%
D16*
%TO.C,C14*%
X143002000Y-88138000D03*
X143002000Y-86588000D03*
%TD*%
D12*
%TO.C,R25*%
X141224000Y-88138000D03*
X139574000Y-88138000D03*
%TD*%
D16*
%TO.C,C3*%
X133096000Y-110299800D03*
X133096000Y-108749800D03*
%TD*%
D12*
%TO.C,R5*%
X130212600Y-110286800D03*
X128562600Y-110286800D03*
%TD*%
D21*
%TO.C,FB2*%
X123791000Y-81153000D03*
X121666000Y-81153000D03*
%TD*%
D13*
%TO.C,R27*%
X144920200Y-124764800D03*
X146570200Y-124764800D03*
%TD*%
D22*
%TO.C,C21*%
X142227000Y-122428000D03*
X143777000Y-122428000D03*
%TD*%
D11*
%TO.C,R13*%
X143611600Y-110349800D03*
X143611600Y-108699800D03*
%TD*%
D17*
%TO.C,C2*%
X133045200Y-102552200D03*
X133045200Y-104102200D03*
%TD*%
D13*
%TO.C,R17*%
X140551400Y-111810800D03*
X142201400Y-111810800D03*
%TD*%
%TO.C,R21*%
X128359400Y-124764800D03*
X130009400Y-124764800D03*
%TD*%
%TO.C,R20*%
X128410200Y-120091200D03*
X130060200Y-120091200D03*
%TD*%
D25*
%TO.C,U1*%
X117678200Y-97561400D03*
X117678200Y-95661400D03*
X119553200Y-96611400D03*
%TD*%
D13*
%TO.C,R8*%
X145021800Y-108762800D03*
X146671800Y-108762800D03*
%TD*%
D18*
%TO.C,C7*%
X161798000Y-85344000D03*
X160248000Y-85344000D03*
%TD*%
D16*
%TO.C,C12*%
X132943600Y-126301800D03*
X132943600Y-124751800D03*
%TD*%
M02*
