%TF.GenerationSoftware,KiCad,Pcbnew,7.0.6-1.fc38*%
%TF.CreationDate,2023-08-24T19:35:41-07:00*%
%TF.ProjectId,s3gta_back,73336774-615f-4626-9163-6b2e6b696361,rev?*%
%TF.SameCoordinates,Original*%
%TF.FileFunction,Soldermask,Top*%
%TF.FilePolarity,Negative*%
%FSLAX46Y46*%
G04 Gerber Fmt 4.6, Leading zero omitted, Abs format (unit mm)*
G04 Created by KiCad (PCBNEW 7.0.6-1.fc38) date 2023-08-24 19:35:41*
%MOMM*%
%LPD*%
G01*
G04 APERTURE LIST*
%ADD10R,1.830000X1.930000*%
%ADD11C,2.130000*%
%ADD12C,1.676400*%
%ADD13R,3.216000X3.216000*%
%ADD14R,1.930000X1.830000*%
%ADD15C,2.000000*%
%ADD16R,1.700000X1.700000*%
%ADD17O,1.700000X1.700000*%
%ADD18R,1.500000X2.300000*%
%ADD19O,1.500000X2.300000*%
%ADD20R,1.524000X1.524000*%
%ADD21C,1.524000*%
G04 APERTURE END LIST*
D10*
%TO.C,J4*%
X149101000Y-147193000D03*
D11*
X137701000Y-147193000D03*
X146001000Y-147193000D03*
%TD*%
D12*
%TO.C,RV4*%
X160060000Y-128920000D03*
X162560000Y-128920000D03*
X165060000Y-128920000D03*
D13*
X158060000Y-121920000D03*
X167060000Y-121920000D03*
%TD*%
D10*
%TO.C,J9*%
X168532000Y-136906000D03*
D11*
X157132000Y-136906000D03*
X165432000Y-136906000D03*
%TD*%
D14*
%TO.C,J11*%
X121920000Y-118615000D03*
D11*
X121920000Y-130015000D03*
X121920000Y-121715000D03*
%TD*%
D12*
%TO.C,RV2*%
X106720000Y-128920000D03*
X109220000Y-128920000D03*
X111720000Y-128920000D03*
D13*
X104720000Y-121920000D03*
X113720000Y-121920000D03*
%TD*%
D10*
%TO.C,J2*%
X122679000Y-147193000D03*
D11*
X134079000Y-147193000D03*
X125779000Y-147193000D03*
%TD*%
D10*
%TO.C,J1*%
X122679000Y-136906000D03*
D11*
X134079000Y-136906000D03*
X125779000Y-136906000D03*
%TD*%
D10*
%TO.C,J7*%
X103248000Y-147193000D03*
D11*
X114648000Y-147193000D03*
X106348000Y-147193000D03*
%TD*%
D10*
%TO.C,J10*%
X168532000Y-147193000D03*
D11*
X157132000Y-147193000D03*
X165432000Y-147193000D03*
%TD*%
D12*
%TO.C,RV3*%
X160060000Y-111140000D03*
X162560000Y-111140000D03*
X165060000Y-111140000D03*
D13*
X158060000Y-104140000D03*
X167060000Y-104140000D03*
%TD*%
D15*
%TO.C,SW1*%
X149261000Y-128345000D03*
X149261000Y-121845000D03*
X153761000Y-128345000D03*
X153761000Y-121845000D03*
%TD*%
D16*
%TO.C,J5*%
X167894000Y-83693000D03*
D17*
X165354000Y-83693000D03*
X167894000Y-86233000D03*
X165354000Y-86233000D03*
X167894000Y-88773000D03*
X165354000Y-88773000D03*
X167894000Y-91313000D03*
X165354000Y-91313000D03*
X167894000Y-93853000D03*
X165354000Y-93853000D03*
X167894000Y-96393000D03*
X165354000Y-96393000D03*
%TD*%
D12*
%TO.C,RV1*%
X106720000Y-111140000D03*
X109220000Y-111140000D03*
X111720000Y-111140000D03*
D13*
X104720000Y-104140000D03*
X113720000Y-104140000D03*
%TD*%
D10*
%TO.C,J3*%
X149101000Y-136906000D03*
D11*
X137701000Y-136906000D03*
X146001000Y-136906000D03*
%TD*%
D10*
%TO.C,J6*%
X103248000Y-136906000D03*
D11*
X114648000Y-136906000D03*
X106348000Y-136906000D03*
%TD*%
D18*
%TO.C,U4*%
X123825000Y-71501000D03*
D19*
X126365000Y-71501000D03*
X128905000Y-71501000D03*
%TD*%
D20*
%TO.C,J8*%
X106299000Y-91313000D03*
D21*
X108839000Y-91313000D03*
X106299000Y-88773000D03*
X108839000Y-88773000D03*
X106299000Y-86233000D03*
X108839000Y-86233000D03*
X106299000Y-83693000D03*
X108839000Y-83693000D03*
X106299000Y-81153000D03*
X108839000Y-81153000D03*
X106299000Y-78613000D03*
X108839000Y-78613000D03*
X106299000Y-76073000D03*
X108839000Y-76073000D03*
X106299000Y-73533000D03*
X108839000Y-73533000D03*
%TD*%
M02*
