M48
; DRILL file {KiCad 7.0.6-1.fc38} date Thu 24 Aug 2023 07:35:45 PM MST
; FORMAT={-:-/ absolute / inch / decimal}
; #@! TF.CreationDate,2023-08-24T19:35:45-07:00
; #@! TF.GenerationSoftware,Kicad,Pcbnew,7.0.6-1.fc38
; #@! TF.FileFunction,Plated,1,2,PTH
FMAT,2
INCH
; #@! TA.AperFunction,Plated,PTH,ViaDrill
T1C0.0100
; #@! TA.AperFunction,Plated,PTH,ViaDrill
T2C0.0170
; #@! TA.AperFunction,Plated,PTH,ComponentDrill
T3C0.0380
; #@! TA.AperFunction,Plated,PTH,ComponentDrill
T4C0.0394
; #@! TA.AperFunction,Plated,PTH,ComponentDrill
T5C0.0433
; #@! TA.AperFunction,Plated,PTH,ComponentDrill
T6C0.0480
; #@! TA.AperFunction,Plated,PTH,ComponentDrill
T7C0.0559
; #@! TA.AperFunction,Plated,PTH,ComponentDrill
T8C0.0563
; #@! TA.AperFunction,Plated,PTH,ComponentDrill
T9C0.0866
%
G90
G05
T1
X4.668Y-4.342
X4.717Y-4.342
X5.326Y-3.856
X5.341Y-3.8365
X5.434Y-3.8365
X5.4795Y-3.856
X5.8137Y-4.3782
X5.8307Y-4.3524
X5.875Y-2.795
X5.875Y-3.015
X5.918Y-4.304
X5.918Y-4.33
X5.9525Y-4.2225
X5.99Y-4.33
X6.005Y-2.795
X6.005Y-3.015
X6.025Y-3.59
X6.03Y-3.795
X6.105Y-2.795
X6.105Y-3.015
X6.195Y-2.795
X6.2Y-3.015
T2
X4.66Y-4.73
X4.686Y-3.842
X4.74Y-4.73
X4.77Y-3.265
X4.77Y-3.525
X5.13Y-4.82
X5.19Y-3.864
X5.19Y-3.908
X5.255Y-4.19
X5.3Y-3.815
X5.395Y-4.795
X5.4365Y-4.795
X5.458Y-3.815
X5.59Y-2.855
X5.63Y-3.37
X5.63Y-3.78
X5.685Y-2.995
X5.695Y-4.19
X5.7Y-4.82
X5.815Y-5.145
X6.255Y-3.495
X6.265Y-3.23
X6.265Y-3.295
X6.265Y-3.36
X6.265Y-3.425
X6.559Y-3.199
T3
X4.185Y-2.895
X4.185Y-2.995
X4.185Y-3.095
X4.185Y-3.195
X4.185Y-3.295
X4.185Y-3.395
X4.185Y-3.495
X4.185Y-3.595
X4.285Y-2.895
X4.285Y-2.995
X4.285Y-3.095
X4.285Y-3.195
X4.285Y-3.295
X4.285Y-3.395
X4.285Y-3.495
X4.285Y-3.595
T4
X4.875Y-2.815
X4.975Y-2.815
X5.075Y-2.815
X6.51Y-3.295
X6.51Y-3.395
X6.51Y-3.495
X6.51Y-3.595
X6.51Y-3.695
X6.51Y-3.795
X6.61Y-3.295
X6.61Y-3.395
X6.61Y-3.495
X6.61Y-3.595
X6.61Y-3.695
X6.61Y-3.795
T5
X4.2016Y-4.3756
X4.2016Y-5.0756
X4.3Y-4.3756
X4.3Y-5.0756
X4.3984Y-4.3756
X4.3984Y-5.0756
X5.8764Y-4.797
X5.8764Y-5.053
X6.0536Y-4.797
X6.0536Y-5.053
X6.3016Y-4.3756
X6.3016Y-5.0756
X6.4Y-4.3756
X6.4Y-5.0756
X6.4984Y-4.3756
X6.4984Y-5.0756
T6
X4.0649Y-5.39
X4.0649Y-5.795
X4.8Y-4.6699
X4.8299Y-5.39
X4.8299Y-5.795
X5.8701Y-5.39
X5.8701Y-5.795
X6.6351Y-5.39
X6.6351Y-5.795
T7
X4.1869Y-5.39
X4.1869Y-5.795
X4.8Y-4.7919
X4.9519Y-5.39
X4.9519Y-5.795
X5.7481Y-5.39
X5.7481Y-5.795
X6.5131Y-5.39
X6.5131Y-5.795
T8
X4.5137Y-5.39
X4.5137Y-5.795
X4.8Y-5.1187
X5.2787Y-5.39
X5.2787Y-5.795
X5.4213Y-5.39
X5.4213Y-5.795
X6.1863Y-5.39
X6.1863Y-5.795
T9
X4.1228Y-4.1
X4.1228Y-4.8
X4.4772Y-4.1
X4.4772Y-4.8
X6.2228Y-4.1
X6.2228Y-4.8
X6.5772Y-4.1
X6.5772Y-4.8
T0
M30
