%TF.GenerationSoftware,KiCad,Pcbnew,7.0.6-1.fc38*%
%TF.CreationDate,2023-08-24T19:35:41-07:00*%
%TF.ProjectId,s3gta_back,73336774-615f-4626-9163-6b2e6b696361,rev?*%
%TF.SameCoordinates,Original*%
%TF.FileFunction,Legend,Top*%
%TF.FilePolarity,Positive*%
%FSLAX46Y46*%
G04 Gerber Fmt 4.6, Leading zero omitted, Abs format (unit mm)*
G04 Created by KiCad (PCBNEW 7.0.6-1.fc38) date 2023-08-24 19:35:41*
%MOMM*%
%LPD*%
G01*
G04 APERTURE LIST*
%ADD10C,0.080000*%
%ADD11C,0.120000*%
%ADD12C,0.203200*%
%ADD13C,0.101600*%
G04 APERTURE END LIST*
D10*
X147748149Y-143329666D02*
X148105292Y-143329666D01*
X148105292Y-143329666D02*
X148176720Y-143353475D01*
X148176720Y-143353475D02*
X148224340Y-143401094D01*
X148224340Y-143401094D02*
X148248149Y-143472523D01*
X148248149Y-143472523D02*
X148248149Y-143520142D01*
X147914816Y-142877285D02*
X148248149Y-142877285D01*
X147724340Y-142996333D02*
X148081482Y-143115380D01*
X148081482Y-143115380D02*
X148081482Y-142805857D01*
X162437381Y-115512149D02*
X162270715Y-115274054D01*
X162151667Y-115512149D02*
X162151667Y-115012149D01*
X162151667Y-115012149D02*
X162342143Y-115012149D01*
X162342143Y-115012149D02*
X162389762Y-115035959D01*
X162389762Y-115035959D02*
X162413572Y-115059768D01*
X162413572Y-115059768D02*
X162437381Y-115107387D01*
X162437381Y-115107387D02*
X162437381Y-115178816D01*
X162437381Y-115178816D02*
X162413572Y-115226435D01*
X162413572Y-115226435D02*
X162389762Y-115250244D01*
X162389762Y-115250244D02*
X162342143Y-115274054D01*
X162342143Y-115274054D02*
X162151667Y-115274054D01*
X162580239Y-115012149D02*
X162746905Y-115512149D01*
X162746905Y-115512149D02*
X162913572Y-115012149D01*
X163294524Y-115178816D02*
X163294524Y-115512149D01*
X163175476Y-114988340D02*
X163056429Y-115345482D01*
X163056429Y-115345482D02*
X163365952Y-115345482D01*
X167179149Y-133042666D02*
X167536292Y-133042666D01*
X167536292Y-133042666D02*
X167607720Y-133066475D01*
X167607720Y-133066475D02*
X167655340Y-133114094D01*
X167655340Y-133114094D02*
X167679149Y-133185523D01*
X167679149Y-133185523D02*
X167679149Y-133233142D01*
X167679149Y-132780761D02*
X167679149Y-132685523D01*
X167679149Y-132685523D02*
X167655340Y-132637904D01*
X167655340Y-132637904D02*
X167631530Y-132614095D01*
X167631530Y-132614095D02*
X167560101Y-132566476D01*
X167560101Y-132566476D02*
X167464863Y-132542666D01*
X167464863Y-132542666D02*
X167274387Y-132542666D01*
X167274387Y-132542666D02*
X167226768Y-132566476D01*
X167226768Y-132566476D02*
X167202959Y-132590285D01*
X167202959Y-132590285D02*
X167179149Y-132637904D01*
X167179149Y-132637904D02*
X167179149Y-132733142D01*
X167179149Y-132733142D02*
X167202959Y-132780761D01*
X167202959Y-132780761D02*
X167226768Y-132804571D01*
X167226768Y-132804571D02*
X167274387Y-132828380D01*
X167274387Y-132828380D02*
X167393435Y-132828380D01*
X167393435Y-132828380D02*
X167441054Y-132804571D01*
X167441054Y-132804571D02*
X167464863Y-132780761D01*
X167464863Y-132780761D02*
X167488673Y-132733142D01*
X167488673Y-132733142D02*
X167488673Y-132637904D01*
X167488673Y-132637904D02*
X167464863Y-132590285D01*
X167464863Y-132590285D02*
X167441054Y-132566476D01*
X167441054Y-132566476D02*
X167393435Y-132542666D01*
X117485238Y-119422149D02*
X117485238Y-119779292D01*
X117485238Y-119779292D02*
X117461429Y-119850720D01*
X117461429Y-119850720D02*
X117413810Y-119898340D01*
X117413810Y-119898340D02*
X117342381Y-119922149D01*
X117342381Y-119922149D02*
X117294762Y-119922149D01*
X117985238Y-119922149D02*
X117699524Y-119922149D01*
X117842381Y-119922149D02*
X117842381Y-119422149D01*
X117842381Y-119422149D02*
X117794762Y-119493578D01*
X117794762Y-119493578D02*
X117747143Y-119541197D01*
X117747143Y-119541197D02*
X117699524Y-119565006D01*
X118461428Y-119922149D02*
X118175714Y-119922149D01*
X118318571Y-119922149D02*
X118318571Y-119422149D01*
X118318571Y-119422149D02*
X118270952Y-119493578D01*
X118270952Y-119493578D02*
X118223333Y-119541197D01*
X118223333Y-119541197D02*
X118175714Y-119565006D01*
X109097381Y-115512149D02*
X108930715Y-115274054D01*
X108811667Y-115512149D02*
X108811667Y-115012149D01*
X108811667Y-115012149D02*
X109002143Y-115012149D01*
X109002143Y-115012149D02*
X109049762Y-115035959D01*
X109049762Y-115035959D02*
X109073572Y-115059768D01*
X109073572Y-115059768D02*
X109097381Y-115107387D01*
X109097381Y-115107387D02*
X109097381Y-115178816D01*
X109097381Y-115178816D02*
X109073572Y-115226435D01*
X109073572Y-115226435D02*
X109049762Y-115250244D01*
X109049762Y-115250244D02*
X109002143Y-115274054D01*
X109002143Y-115274054D02*
X108811667Y-115274054D01*
X109240239Y-115012149D02*
X109406905Y-115512149D01*
X109406905Y-115512149D02*
X109573572Y-115012149D01*
X109716429Y-115059768D02*
X109740238Y-115035959D01*
X109740238Y-115035959D02*
X109787857Y-115012149D01*
X109787857Y-115012149D02*
X109906905Y-115012149D01*
X109906905Y-115012149D02*
X109954524Y-115035959D01*
X109954524Y-115035959D02*
X109978333Y-115059768D01*
X109978333Y-115059768D02*
X110002143Y-115107387D01*
X110002143Y-115107387D02*
X110002143Y-115155006D01*
X110002143Y-115155006D02*
X109978333Y-115226435D01*
X109978333Y-115226435D02*
X109692619Y-115512149D01*
X109692619Y-115512149D02*
X110002143Y-115512149D01*
X123486149Y-151389666D02*
X123843292Y-151389666D01*
X123843292Y-151389666D02*
X123914720Y-151413475D01*
X123914720Y-151413475D02*
X123962340Y-151461094D01*
X123962340Y-151461094D02*
X123986149Y-151532523D01*
X123986149Y-151532523D02*
X123986149Y-151580142D01*
X123533768Y-151175380D02*
X123509959Y-151151571D01*
X123509959Y-151151571D02*
X123486149Y-151103952D01*
X123486149Y-151103952D02*
X123486149Y-150984904D01*
X123486149Y-150984904D02*
X123509959Y-150937285D01*
X123509959Y-150937285D02*
X123533768Y-150913476D01*
X123533768Y-150913476D02*
X123581387Y-150889666D01*
X123581387Y-150889666D02*
X123629006Y-150889666D01*
X123629006Y-150889666D02*
X123700435Y-150913476D01*
X123700435Y-150913476D02*
X123986149Y-151199190D01*
X123986149Y-151199190D02*
X123986149Y-150889666D01*
X123486149Y-141102666D02*
X123843292Y-141102666D01*
X123843292Y-141102666D02*
X123914720Y-141126475D01*
X123914720Y-141126475D02*
X123962340Y-141174094D01*
X123962340Y-141174094D02*
X123986149Y-141245523D01*
X123986149Y-141245523D02*
X123986149Y-141293142D01*
X123986149Y-140602666D02*
X123986149Y-140888380D01*
X123986149Y-140745523D02*
X123486149Y-140745523D01*
X123486149Y-140745523D02*
X123557578Y-140793142D01*
X123557578Y-140793142D02*
X123605197Y-140840761D01*
X123605197Y-140840761D02*
X123629006Y-140888380D01*
X104055149Y-151389666D02*
X104412292Y-151389666D01*
X104412292Y-151389666D02*
X104483720Y-151413475D01*
X104483720Y-151413475D02*
X104531340Y-151461094D01*
X104531340Y-151461094D02*
X104555149Y-151532523D01*
X104555149Y-151532523D02*
X104555149Y-151580142D01*
X104055149Y-151199190D02*
X104055149Y-150865857D01*
X104055149Y-150865857D02*
X104555149Y-151080142D01*
X167179149Y-143567761D02*
X167536292Y-143567761D01*
X167536292Y-143567761D02*
X167607720Y-143591570D01*
X167607720Y-143591570D02*
X167655340Y-143639189D01*
X167655340Y-143639189D02*
X167679149Y-143710618D01*
X167679149Y-143710618D02*
X167679149Y-143758237D01*
X167679149Y-143067761D02*
X167679149Y-143353475D01*
X167679149Y-143210618D02*
X167179149Y-143210618D01*
X167179149Y-143210618D02*
X167250578Y-143258237D01*
X167250578Y-143258237D02*
X167298197Y-143305856D01*
X167298197Y-143305856D02*
X167322006Y-143353475D01*
X167179149Y-142758238D02*
X167179149Y-142710619D01*
X167179149Y-142710619D02*
X167202959Y-142663000D01*
X167202959Y-142663000D02*
X167226768Y-142639190D01*
X167226768Y-142639190D02*
X167274387Y-142615381D01*
X167274387Y-142615381D02*
X167369625Y-142591571D01*
X167369625Y-142591571D02*
X167488673Y-142591571D01*
X167488673Y-142591571D02*
X167583911Y-142615381D01*
X167583911Y-142615381D02*
X167631530Y-142639190D01*
X167631530Y-142639190D02*
X167655340Y-142663000D01*
X167655340Y-142663000D02*
X167679149Y-142710619D01*
X167679149Y-142710619D02*
X167679149Y-142758238D01*
X167679149Y-142758238D02*
X167655340Y-142805857D01*
X167655340Y-142805857D02*
X167631530Y-142829666D01*
X167631530Y-142829666D02*
X167583911Y-142853476D01*
X167583911Y-142853476D02*
X167488673Y-142877285D01*
X167488673Y-142877285D02*
X167369625Y-142877285D01*
X167369625Y-142877285D02*
X167274387Y-142853476D01*
X167274387Y-142853476D02*
X167226768Y-142829666D01*
X167226768Y-142829666D02*
X167202959Y-142805857D01*
X167202959Y-142805857D02*
X167179149Y-142758238D01*
X162437381Y-97732149D02*
X162270715Y-97494054D01*
X162151667Y-97732149D02*
X162151667Y-97232149D01*
X162151667Y-97232149D02*
X162342143Y-97232149D01*
X162342143Y-97232149D02*
X162389762Y-97255959D01*
X162389762Y-97255959D02*
X162413572Y-97279768D01*
X162413572Y-97279768D02*
X162437381Y-97327387D01*
X162437381Y-97327387D02*
X162437381Y-97398816D01*
X162437381Y-97398816D02*
X162413572Y-97446435D01*
X162413572Y-97446435D02*
X162389762Y-97470244D01*
X162389762Y-97470244D02*
X162342143Y-97494054D01*
X162342143Y-97494054D02*
X162151667Y-97494054D01*
X162580239Y-97232149D02*
X162746905Y-97732149D01*
X162746905Y-97732149D02*
X162913572Y-97232149D01*
X163032619Y-97232149D02*
X163342143Y-97232149D01*
X163342143Y-97232149D02*
X163175476Y-97422625D01*
X163175476Y-97422625D02*
X163246905Y-97422625D01*
X163246905Y-97422625D02*
X163294524Y-97446435D01*
X163294524Y-97446435D02*
X163318333Y-97470244D01*
X163318333Y-97470244D02*
X163342143Y-97517863D01*
X163342143Y-97517863D02*
X163342143Y-97636911D01*
X163342143Y-97636911D02*
X163318333Y-97684530D01*
X163318333Y-97684530D02*
X163294524Y-97708340D01*
X163294524Y-97708340D02*
X163246905Y-97732149D01*
X163246905Y-97732149D02*
X163104048Y-97732149D01*
X163104048Y-97732149D02*
X163056429Y-97708340D01*
X163056429Y-97708340D02*
X163032619Y-97684530D01*
X147464340Y-125761665D02*
X147488149Y-125690237D01*
X147488149Y-125690237D02*
X147488149Y-125571189D01*
X147488149Y-125571189D02*
X147464340Y-125523570D01*
X147464340Y-125523570D02*
X147440530Y-125499761D01*
X147440530Y-125499761D02*
X147392911Y-125475951D01*
X147392911Y-125475951D02*
X147345292Y-125475951D01*
X147345292Y-125475951D02*
X147297673Y-125499761D01*
X147297673Y-125499761D02*
X147273863Y-125523570D01*
X147273863Y-125523570D02*
X147250054Y-125571189D01*
X147250054Y-125571189D02*
X147226244Y-125666427D01*
X147226244Y-125666427D02*
X147202435Y-125714046D01*
X147202435Y-125714046D02*
X147178625Y-125737856D01*
X147178625Y-125737856D02*
X147131006Y-125761665D01*
X147131006Y-125761665D02*
X147083387Y-125761665D01*
X147083387Y-125761665D02*
X147035768Y-125737856D01*
X147035768Y-125737856D02*
X147011959Y-125714046D01*
X147011959Y-125714046D02*
X146988149Y-125666427D01*
X146988149Y-125666427D02*
X146988149Y-125547380D01*
X146988149Y-125547380D02*
X147011959Y-125475951D01*
X146988149Y-125309285D02*
X147488149Y-125190237D01*
X147488149Y-125190237D02*
X147131006Y-125094999D01*
X147131006Y-125094999D02*
X147488149Y-124999761D01*
X147488149Y-124999761D02*
X146988149Y-124880714D01*
X147488149Y-124428332D02*
X147488149Y-124714046D01*
X147488149Y-124571189D02*
X146988149Y-124571189D01*
X146988149Y-124571189D02*
X147059578Y-124618808D01*
X147059578Y-124618808D02*
X147107197Y-124666427D01*
X147107197Y-124666427D02*
X147131006Y-124714046D01*
X167981333Y-80753149D02*
X167981333Y-81110292D01*
X167981333Y-81110292D02*
X167957524Y-81181720D01*
X167957524Y-81181720D02*
X167909905Y-81229340D01*
X167909905Y-81229340D02*
X167838476Y-81253149D01*
X167838476Y-81253149D02*
X167790857Y-81253149D01*
X168457523Y-80753149D02*
X168219428Y-80753149D01*
X168219428Y-80753149D02*
X168195619Y-80991244D01*
X168195619Y-80991244D02*
X168219428Y-80967435D01*
X168219428Y-80967435D02*
X168267047Y-80943625D01*
X168267047Y-80943625D02*
X168386095Y-80943625D01*
X168386095Y-80943625D02*
X168433714Y-80967435D01*
X168433714Y-80967435D02*
X168457523Y-80991244D01*
X168457523Y-80991244D02*
X168481333Y-81038863D01*
X168481333Y-81038863D02*
X168481333Y-81157911D01*
X168481333Y-81157911D02*
X168457523Y-81205530D01*
X168457523Y-81205530D02*
X168433714Y-81229340D01*
X168433714Y-81229340D02*
X168386095Y-81253149D01*
X168386095Y-81253149D02*
X168267047Y-81253149D01*
X168267047Y-81253149D02*
X168219428Y-81229340D01*
X168219428Y-81229340D02*
X168195619Y-81205530D01*
X109097381Y-97732149D02*
X108930715Y-97494054D01*
X108811667Y-97732149D02*
X108811667Y-97232149D01*
X108811667Y-97232149D02*
X109002143Y-97232149D01*
X109002143Y-97232149D02*
X109049762Y-97255959D01*
X109049762Y-97255959D02*
X109073572Y-97279768D01*
X109073572Y-97279768D02*
X109097381Y-97327387D01*
X109097381Y-97327387D02*
X109097381Y-97398816D01*
X109097381Y-97398816D02*
X109073572Y-97446435D01*
X109073572Y-97446435D02*
X109049762Y-97470244D01*
X109049762Y-97470244D02*
X109002143Y-97494054D01*
X109002143Y-97494054D02*
X108811667Y-97494054D01*
X109240239Y-97232149D02*
X109406905Y-97732149D01*
X109406905Y-97732149D02*
X109573572Y-97232149D01*
X110002143Y-97732149D02*
X109716429Y-97732149D01*
X109859286Y-97732149D02*
X109859286Y-97232149D01*
X109859286Y-97232149D02*
X109811667Y-97303578D01*
X109811667Y-97303578D02*
X109764048Y-97351197D01*
X109764048Y-97351197D02*
X109716429Y-97375006D01*
X147748149Y-133042666D02*
X148105292Y-133042666D01*
X148105292Y-133042666D02*
X148176720Y-133066475D01*
X148176720Y-133066475D02*
X148224340Y-133114094D01*
X148224340Y-133114094D02*
X148248149Y-133185523D01*
X148248149Y-133185523D02*
X148248149Y-133233142D01*
X147748149Y-132852190D02*
X147748149Y-132542666D01*
X147748149Y-132542666D02*
X147938625Y-132709333D01*
X147938625Y-132709333D02*
X147938625Y-132637904D01*
X147938625Y-132637904D02*
X147962435Y-132590285D01*
X147962435Y-132590285D02*
X147986244Y-132566476D01*
X147986244Y-132566476D02*
X148033863Y-132542666D01*
X148033863Y-132542666D02*
X148152911Y-132542666D01*
X148152911Y-132542666D02*
X148200530Y-132566476D01*
X148200530Y-132566476D02*
X148224340Y-132590285D01*
X148224340Y-132590285D02*
X148248149Y-132637904D01*
X148248149Y-132637904D02*
X148248149Y-132780761D01*
X148248149Y-132780761D02*
X148224340Y-132828380D01*
X148224340Y-132828380D02*
X148200530Y-132852190D01*
X104055149Y-141102666D02*
X104412292Y-141102666D01*
X104412292Y-141102666D02*
X104483720Y-141126475D01*
X104483720Y-141126475D02*
X104531340Y-141174094D01*
X104531340Y-141174094D02*
X104555149Y-141245523D01*
X104555149Y-141245523D02*
X104555149Y-141293142D01*
X104055149Y-140650285D02*
X104055149Y-140745523D01*
X104055149Y-140745523D02*
X104078959Y-140793142D01*
X104078959Y-140793142D02*
X104102768Y-140816952D01*
X104102768Y-140816952D02*
X104174197Y-140864571D01*
X104174197Y-140864571D02*
X104269435Y-140888380D01*
X104269435Y-140888380D02*
X104459911Y-140888380D01*
X104459911Y-140888380D02*
X104507530Y-140864571D01*
X104507530Y-140864571D02*
X104531340Y-140840761D01*
X104531340Y-140840761D02*
X104555149Y-140793142D01*
X104555149Y-140793142D02*
X104555149Y-140697904D01*
X104555149Y-140697904D02*
X104531340Y-140650285D01*
X104531340Y-140650285D02*
X104507530Y-140626476D01*
X104507530Y-140626476D02*
X104459911Y-140602666D01*
X104459911Y-140602666D02*
X104340863Y-140602666D01*
X104340863Y-140602666D02*
X104293244Y-140626476D01*
X104293244Y-140626476D02*
X104269435Y-140650285D01*
X104269435Y-140650285D02*
X104245625Y-140697904D01*
X104245625Y-140697904D02*
X104245625Y-140793142D01*
X104245625Y-140793142D02*
X104269435Y-140840761D01*
X104269435Y-140840761D02*
X104293244Y-140864571D01*
X104293244Y-140864571D02*
X104340863Y-140888380D01*
D11*
%TO.C,J4*%
X147121000Y-142693000D02*
X136621000Y-142693000D01*
X150101000Y-146133000D02*
X149301000Y-146133000D01*
X150101000Y-146133000D02*
X150101000Y-146993000D01*
X136621000Y-146693000D02*
X136621000Y-142693000D01*
X147121000Y-146843000D02*
X147121000Y-142693000D01*
X147121000Y-151693000D02*
X147121000Y-147543000D01*
X147121000Y-151693000D02*
X136621000Y-151693000D01*
X136621000Y-151693000D02*
X136621000Y-147693000D01*
X144421000Y-147193000D02*
G75*
G03*
X144421000Y-147193000I-1800000J0D01*
G01*
D12*
%TO.C,RV4*%
X157910000Y-119270000D02*
X157910000Y-117070000D01*
X157910000Y-127270000D02*
X157910000Y-124070000D01*
X157910000Y-127270000D02*
X158460000Y-127270000D01*
X158460000Y-116520000D02*
X158460000Y-117070000D01*
X158460000Y-116520000D02*
X166660000Y-116520000D01*
X158460000Y-117070000D02*
X157910000Y-117070000D01*
X158460000Y-127270000D02*
X158460000Y-127820000D01*
X166660000Y-117070000D02*
X166660000Y-116520000D01*
X166660000Y-127270000D02*
X167210000Y-127270000D01*
X166660000Y-127820000D02*
X158460000Y-127820000D01*
X166660000Y-127820000D02*
X166660000Y-127270000D01*
X167210000Y-117070000D02*
X166660000Y-117070000D01*
X167210000Y-117070000D02*
X167210000Y-119270000D01*
X167210000Y-124070000D02*
X167210000Y-127270000D01*
D13*
X160710000Y-117620000D02*
G75*
G03*
X160710000Y-117620000I-650000J0D01*
G01*
X160710000Y-126520000D02*
G75*
G03*
X160710000Y-126520000I-650000J0D01*
G01*
D12*
X164910100Y-121920000D02*
G75*
G03*
X164910100Y-121920000I-2350100J0D01*
G01*
D13*
X165710000Y-117620000D02*
G75*
G03*
X165710000Y-117620000I-650000J0D01*
G01*
X165710000Y-126520000D02*
G75*
G03*
X165710000Y-126520000I-650000J0D01*
G01*
D11*
%TO.C,J9*%
X166552000Y-132406000D02*
X156052000Y-132406000D01*
X169532000Y-135846000D02*
X168732000Y-135846000D01*
X169532000Y-135846000D02*
X169532000Y-136706000D01*
X156052000Y-136406000D02*
X156052000Y-132406000D01*
X166552000Y-136556000D02*
X166552000Y-132406000D01*
X166552000Y-141406000D02*
X166552000Y-137256000D01*
X166552000Y-141406000D02*
X156052000Y-141406000D01*
X156052000Y-141406000D02*
X156052000Y-137406000D01*
X163852000Y-136906000D02*
G75*
G03*
X163852000Y-136906000I-1800000J0D01*
G01*
%TO.C,J11*%
X117420000Y-120595000D02*
X117420000Y-131095000D01*
X120860000Y-117615000D02*
X120860000Y-118415000D01*
X120860000Y-117615000D02*
X121720000Y-117615000D01*
X121420000Y-131095000D02*
X117420000Y-131095000D01*
X121570000Y-120595000D02*
X117420000Y-120595000D01*
X126420000Y-120595000D02*
X122270000Y-120595000D01*
X126420000Y-120595000D02*
X126420000Y-131095000D01*
X126420000Y-131095000D02*
X122420000Y-131095000D01*
X123720000Y-125095000D02*
G75*
G03*
X123720000Y-125095000I-1800000J0D01*
G01*
D12*
%TO.C,RV2*%
X104570000Y-119270000D02*
X104570000Y-117070000D01*
X104570000Y-127270000D02*
X104570000Y-124070000D01*
X104570000Y-127270000D02*
X105120000Y-127270000D01*
X105120000Y-116520000D02*
X105120000Y-117070000D01*
X105120000Y-116520000D02*
X113320000Y-116520000D01*
X105120000Y-117070000D02*
X104570000Y-117070000D01*
X105120000Y-127270000D02*
X105120000Y-127820000D01*
X113320000Y-117070000D02*
X113320000Y-116520000D01*
X113320000Y-127270000D02*
X113870000Y-127270000D01*
X113320000Y-127820000D02*
X105120000Y-127820000D01*
X113320000Y-127820000D02*
X113320000Y-127270000D01*
X113870000Y-117070000D02*
X113320000Y-117070000D01*
X113870000Y-117070000D02*
X113870000Y-119270000D01*
X113870000Y-124070000D02*
X113870000Y-127270000D01*
D13*
X107370000Y-117620000D02*
G75*
G03*
X107370000Y-117620000I-650000J0D01*
G01*
X107370000Y-126520000D02*
G75*
G03*
X107370000Y-126520000I-650000J0D01*
G01*
D12*
X111570100Y-121920000D02*
G75*
G03*
X111570100Y-121920000I-2350100J0D01*
G01*
D13*
X112370000Y-117620000D02*
G75*
G03*
X112370000Y-117620000I-650000J0D01*
G01*
X112370000Y-126520000D02*
G75*
G03*
X112370000Y-126520000I-650000J0D01*
G01*
D11*
%TO.C,J2*%
X124659000Y-151693000D02*
X135159000Y-151693000D01*
X121679000Y-148253000D02*
X122479000Y-148253000D01*
X121679000Y-148253000D02*
X121679000Y-147393000D01*
X135159000Y-147693000D02*
X135159000Y-151693000D01*
X124659000Y-147543000D02*
X124659000Y-151693000D01*
X124659000Y-142693000D02*
X124659000Y-146843000D01*
X124659000Y-142693000D02*
X135159000Y-142693000D01*
X135159000Y-142693000D02*
X135159000Y-146693000D01*
X130959000Y-147193000D02*
G75*
G03*
X130959000Y-147193000I-1800000J0D01*
G01*
%TO.C,J1*%
X124659000Y-141406000D02*
X135159000Y-141406000D01*
X121679000Y-137966000D02*
X122479000Y-137966000D01*
X121679000Y-137966000D02*
X121679000Y-137106000D01*
X135159000Y-137406000D02*
X135159000Y-141406000D01*
X124659000Y-137256000D02*
X124659000Y-141406000D01*
X124659000Y-132406000D02*
X124659000Y-136556000D01*
X124659000Y-132406000D02*
X135159000Y-132406000D01*
X135159000Y-132406000D02*
X135159000Y-136406000D01*
X130959000Y-136906000D02*
G75*
G03*
X130959000Y-136906000I-1800000J0D01*
G01*
%TO.C,J7*%
X105228000Y-151693000D02*
X115728000Y-151693000D01*
X102248000Y-148253000D02*
X103048000Y-148253000D01*
X102248000Y-148253000D02*
X102248000Y-147393000D01*
X115728000Y-147693000D02*
X115728000Y-151693000D01*
X105228000Y-147543000D02*
X105228000Y-151693000D01*
X105228000Y-142693000D02*
X105228000Y-146843000D01*
X105228000Y-142693000D02*
X115728000Y-142693000D01*
X115728000Y-142693000D02*
X115728000Y-146693000D01*
X111528000Y-147193000D02*
G75*
G03*
X111528000Y-147193000I-1800000J0D01*
G01*
%TO.C,J10*%
X166552000Y-142693000D02*
X156052000Y-142693000D01*
X169532000Y-146133000D02*
X168732000Y-146133000D01*
X169532000Y-146133000D02*
X169532000Y-146993000D01*
X156052000Y-146693000D02*
X156052000Y-142693000D01*
X166552000Y-146843000D02*
X166552000Y-142693000D01*
X166552000Y-151693000D02*
X166552000Y-147543000D01*
X166552000Y-151693000D02*
X156052000Y-151693000D01*
X156052000Y-151693000D02*
X156052000Y-147693000D01*
X163852000Y-147193000D02*
G75*
G03*
X163852000Y-147193000I-1800000J0D01*
G01*
D12*
%TO.C,RV3*%
X157910000Y-101490000D02*
X157910000Y-99290000D01*
X157910000Y-109490000D02*
X157910000Y-106290000D01*
X157910000Y-109490000D02*
X158460000Y-109490000D01*
X158460000Y-98740000D02*
X158460000Y-99290000D01*
X158460000Y-98740000D02*
X166660000Y-98740000D01*
X158460000Y-99290000D02*
X157910000Y-99290000D01*
X158460000Y-109490000D02*
X158460000Y-110040000D01*
X166660000Y-99290000D02*
X166660000Y-98740000D01*
X166660000Y-109490000D02*
X167210000Y-109490000D01*
X166660000Y-110040000D02*
X158460000Y-110040000D01*
X166660000Y-110040000D02*
X166660000Y-109490000D01*
X167210000Y-99290000D02*
X166660000Y-99290000D01*
X167210000Y-99290000D02*
X167210000Y-101490000D01*
X167210000Y-106290000D02*
X167210000Y-109490000D01*
D13*
X160710000Y-99840000D02*
G75*
G03*
X160710000Y-99840000I-650000J0D01*
G01*
X160710000Y-108740000D02*
G75*
G03*
X160710000Y-108740000I-650000J0D01*
G01*
D12*
X164910100Y-104140000D02*
G75*
G03*
X164910100Y-104140000I-2350100J0D01*
G01*
D13*
X165710000Y-99840000D02*
G75*
G03*
X165710000Y-99840000I-650000J0D01*
G01*
X165710000Y-108740000D02*
G75*
G03*
X165710000Y-108740000I-650000J0D01*
G01*
D11*
%TO.C,SW1*%
X150761000Y-128595000D02*
X152261000Y-128595000D01*
X154761000Y-127345000D02*
X154761000Y-122845000D01*
X148261000Y-122845000D02*
X148261000Y-127345000D01*
X152261000Y-121595000D02*
X150761000Y-121595000D01*
%TO.C,J5*%
X164024000Y-82363000D02*
X164024000Y-97723000D01*
X164024000Y-82363000D02*
X166624000Y-82363000D01*
X164024000Y-97723000D02*
X169224000Y-97723000D01*
X166624000Y-82363000D02*
X166624000Y-84963000D01*
X166624000Y-84963000D02*
X169224000Y-84963000D01*
X167894000Y-82363000D02*
X169224000Y-82363000D01*
X169224000Y-82363000D02*
X169224000Y-83693000D01*
X169224000Y-84963000D02*
X169224000Y-97723000D01*
D12*
%TO.C,RV1*%
X104570000Y-101490000D02*
X104570000Y-99290000D01*
X104570000Y-109490000D02*
X104570000Y-106290000D01*
X104570000Y-109490000D02*
X105120000Y-109490000D01*
X105120000Y-98740000D02*
X105120000Y-99290000D01*
X105120000Y-98740000D02*
X113320000Y-98740000D01*
X105120000Y-99290000D02*
X104570000Y-99290000D01*
X105120000Y-109490000D02*
X105120000Y-110040000D01*
X113320000Y-99290000D02*
X113320000Y-98740000D01*
X113320000Y-109490000D02*
X113870000Y-109490000D01*
X113320000Y-110040000D02*
X105120000Y-110040000D01*
X113320000Y-110040000D02*
X113320000Y-109490000D01*
X113870000Y-99290000D02*
X113320000Y-99290000D01*
X113870000Y-99290000D02*
X113870000Y-101490000D01*
X113870000Y-106290000D02*
X113870000Y-109490000D01*
D13*
X107370000Y-99840000D02*
G75*
G03*
X107370000Y-99840000I-650000J0D01*
G01*
X107370000Y-108740000D02*
G75*
G03*
X107370000Y-108740000I-650000J0D01*
G01*
D12*
X111570100Y-104140000D02*
G75*
G03*
X111570100Y-104140000I-2350100J0D01*
G01*
D13*
X112370000Y-99840000D02*
G75*
G03*
X112370000Y-99840000I-650000J0D01*
G01*
X112370000Y-108740000D02*
G75*
G03*
X112370000Y-108740000I-650000J0D01*
G01*
D11*
%TO.C,J3*%
X147121000Y-132406000D02*
X136621000Y-132406000D01*
X150101000Y-135846000D02*
X149301000Y-135846000D01*
X150101000Y-135846000D02*
X150101000Y-136706000D01*
X136621000Y-136406000D02*
X136621000Y-132406000D01*
X147121000Y-136556000D02*
X147121000Y-132406000D01*
X147121000Y-141406000D02*
X147121000Y-137256000D01*
X147121000Y-141406000D02*
X136621000Y-141406000D01*
X136621000Y-141406000D02*
X136621000Y-137406000D01*
X144421000Y-136906000D02*
G75*
G03*
X144421000Y-136906000I-1800000J0D01*
G01*
%TO.C,J6*%
X105228000Y-141406000D02*
X115728000Y-141406000D01*
X102248000Y-137966000D02*
X103048000Y-137966000D01*
X102248000Y-137966000D02*
X102248000Y-137106000D01*
X115728000Y-137406000D02*
X115728000Y-141406000D01*
X105228000Y-137256000D02*
X105228000Y-141406000D01*
X105228000Y-132406000D02*
X105228000Y-136556000D01*
X105228000Y-132406000D02*
X115728000Y-132406000D01*
X115728000Y-132406000D02*
X115728000Y-136406000D01*
X111528000Y-136906000D02*
G75*
G03*
X111528000Y-136906000I-1800000J0D01*
G01*
%TD*%
M02*
