%TF.GenerationSoftware,KiCad,Pcbnew,7.0.6-1.fc38*%
%TF.CreationDate,2023-08-24T18:59:34-07:00*%
%TF.ProjectId,s3gta_panel,73336774-615f-4706-916e-656c2e6b6963,rev?*%
%TF.SameCoordinates,Original*%
%TF.FileFunction,Copper,L1,Top*%
%TF.FilePolarity,Positive*%
%FSLAX46Y46*%
G04 Gerber Fmt 4.6, Leading zero omitted, Abs format (unit mm)*
G04 Created by KiCad (PCBNEW 7.0.6-1.fc38) date 2023-08-24 18:59:34*
%MOMM*%
%LPD*%
G01*
G04 APERTURE LIST*
G04 Aperture macros list*
%AMFreePoly0*
4,1,185,-19.192281,24.149401,-19.188389,24.147027,-19.183843,24.147317,-15.083843,22.747317,-15.079975,22.743913,-15.074869,22.743225,-10.774869,20.243225,-10.772454,20.240059,-10.768634,20.238938,-7.168633,17.338938,-7.166049,17.334208,-7.161302,17.331662,-3.561302,12.931662,-3.559982,12.927288,-3.556393,12.924463,-1.256393,8.824462,-1.255944,8.820697,-1.253333,8.817949,0.246667,4.917949,0.246545,4.913196,
0.249144,4.909214,1.149144,0.109215,1.147644,0.102087,1.149761,0.095121,1.141753,0.013452,1.143000,0.000000,1.123538,-0.210026,1.117901,-0.229836,0.649761,-5.004879,0.647764,-5.008618,0.648328,-5.012821,-0.651672,-9.912822,-0.654487,-9.916509,-0.654691,-9.921144,-2.754691,-14.421144,-2.757181,-14.423424,-2.757759,-14.426753,-4.657759,-17.426753,-4.660227,-17.428491,-4.661079,-17.431387,
-7.161079,-20.531388,-7.164673,-20.533349,-7.166424,-20.537049,-10.366424,-23.437049,-10.370241,-23.438414,-10.372519,-23.441771,-14.172519,-25.941771,-14.175881,-25.942414,-14.178155,-25.944976,-17.678155,-27.644975,-17.682802,-27.645251,-17.686463,-27.648133,-20.886463,-28.548133,-20.900708,-28.546436,-20.914991,-28.547699,-20.919116,-28.544243,-20.924462,-28.543607,-20.933334,-28.532336,-20.944329,-28.523128,-20.944802,-28.517767,
-20.948133,-28.513537,-20.946436,-28.499291,-20.947699,-28.485009,-20.944243,-28.480883,-20.943607,-28.475538,-20.932336,-28.466665,-20.923128,-28.455671,-18.625383,-27.256847,-14.530718,-24.560361,-11.336485,-21.665586,-8.042031,-17.572476,-5.746166,-13.180386,-4.049282,-8.089734,-3.550317,-2.501328,-3.743364,-1.150000,-4.053698,-1.150000,-4.250147,-3.703835,-4.252348,-3.708173,-4.251719,-3.712998,-5.651719,-8.912999,
-5.655310,-8.917667,-5.655882,-8.923529,-8.055882,-13.423529,-8.058537,-13.425712,-8.059313,-13.429062,-10.059313,-16.229062,-10.062987,-16.231354,-10.064645,-16.235356,-12.164645,-18.335355,-12.167844,-18.336680,-12.169578,-18.339680,-15.169578,-20.639680,-15.174190,-20.640913,-15.177290,-20.644545,-20.277291,-23.244545,-20.283803,-23.245059,-20.289153,-23.248809,-22.089153,-23.648809,-22.099774,-23.646941,-22.110375,-23.648911,
-22.117877,-23.643759,-22.126844,-23.642183,-22.133034,-23.633351,-22.141922,-23.627249,-22.143584,-23.618300,-22.148809,-23.610847,-22.146941,-23.600225,-22.148911,-23.589625,-22.143759,-23.582122,-22.142183,-23.573156,-22.133351,-23.566965,-22.127249,-23.558078,-18.130727,-20.960338,-14.537071,-17.666153,-11.343896,-13.475112,-9.548373,-8.986304,-8.650331,-3.797616,-8.949795,0.095415,-9.349270,3.790556,-10.346964,7.382256,
-11.942890,10.673854,-13.737870,13.067160,-15.932227,15.261517,-20.223172,18.255201,-22.715175,19.152322,-24.513382,19.651824,-24.525029,19.660931,-24.538169,19.667703,-24.539663,19.672374,-24.543528,19.675397,-24.545323,19.690072,-24.549827,19.704152,-24.547580,19.708512,-24.548176,19.713382,-24.539068,19.725029,-24.532297,19.738169,-24.527625,19.739663,-24.524603,19.743528,-24.509927,19.745323,-24.495848,19.749827,
-20.895848,19.449827,-20.890354,19.446995,-20.884189,19.447434,-17.884188,18.447434,-17.880941,18.444617,-17.876662,18.444219,-14.276663,16.544219,-14.273927,16.540921,-14.269781,16.539835,-11.369781,14.339835,-11.367232,14.335476,-11.362685,14.333281,-8.062685,10.633281,-8.060938,10.628274,-8.056729,10.625052,-5.856729,6.825052,-5.856075,6.820133,-5.852775,6.816426,-4.264453,2.250000,-3.954536,2.250000,
-4.149535,4.492492,-4.648192,6.786312,-5.845801,10.179538,-8.141827,14.372281,-10.037404,16.766694,-12.532716,19.262006,-14.827786,20.958361,-17.822978,22.755477,-21.016967,24.152847,-22.413736,24.551924,-22.426487,24.562047,-22.440389,24.570527,-22.441156,24.573692,-22.443707,24.575718,-22.445565,24.591890,-22.449401,24.607719,-22.447704,24.610500,-22.448076,24.613736,-22.437952,24.626487,-22.429473,24.640389,
-22.426307,24.641156,-22.424282,24.643707,-22.408109,24.645565,-22.392281,24.649401,-19.192281,24.149401,-19.192281,24.149401,$1*%
G04 Aperture macros list end*
%TA.AperFunction,ComponentPad*%
%ADD10C,7.620000*%
%TD*%
%TA.AperFunction,SMDPad,CuDef*%
%ADD11FreePoly0,180.000000*%
%TD*%
%TA.AperFunction,SMDPad,CuDef*%
%ADD12FreePoly0,0.000000*%
%TD*%
%TA.AperFunction,SMDPad,CuDef*%
%ADD13FreePoly0,270.000000*%
%TD*%
%TA.AperFunction,SMDPad,CuDef*%
%ADD14FreePoly0,90.000000*%
%TD*%
%TA.AperFunction,ComponentPad*%
%ADD15C,6.477000*%
%TD*%
%TA.AperFunction,ComponentPad*%
%ADD16C,0.500000*%
%TD*%
%TA.AperFunction,ComponentPad*%
%ADD17O,1.700000X1.200000*%
%TD*%
%TA.AperFunction,ComponentPad*%
%ADD18O,1.500000X1.100000*%
%TD*%
%TA.AperFunction,ViaPad*%
%ADD19C,0.457200*%
%TD*%
%TA.AperFunction,ViaPad*%
%ADD20C,0.635000*%
%TD*%
%TA.AperFunction,Conductor*%
%ADD21C,0.152400*%
%TD*%
%TA.AperFunction,Conductor*%
%ADD22C,0.381000*%
%TD*%
%TA.AperFunction,Conductor*%
%ADD23C,0.203200*%
%TD*%
G04 APERTURE END LIST*
D10*
%TO.P,H7,1*%
%TO.N,N/C*%
X129159000Y-147193000D03*
%TD*%
D11*
%TO.P,TP3,1,1*%
%TO.N,Net-(U1-GPIO4)*%
X106990000Y-66067000D03*
%TD*%
D12*
%TO.P,TP1,1,1*%
%TO.N,Net-(U1-GPIO2)*%
X164790000Y-66267000D03*
%TD*%
D10*
%TO.P,H8,1*%
%TO.N,N/C*%
X129159000Y-136906000D03*
%TD*%
D13*
%TO.P,TP4,1,1*%
%TO.N,Net-(U1-GPIO1)*%
X135790000Y-95067000D03*
%TD*%
D10*
%TO.P,H5,1*%
%TO.N,N/C*%
X109728000Y-136906000D03*
%TD*%
D14*
%TO.P,TP2,1,1*%
%TO.N,Net-(U1-GPIO3)*%
X135990000Y-37267000D03*
%TD*%
D10*
%TO.P,H6,1*%
%TO.N,N/C*%
X109728000Y-147193000D03*
%TD*%
%TO.P,H15,1*%
%TO.N,N/C*%
X162052000Y-147193000D03*
%TD*%
%TO.P,H16,1*%
%TO.N,N/C*%
X162052000Y-136906000D03*
%TD*%
%TO.P,H17,1*%
%TO.N,N/C*%
X121920000Y-125095000D03*
%TD*%
D15*
%TO.P,H18,1*%
%TO.N,N/C*%
X151511000Y-124995000D03*
%TD*%
D10*
%TO.P,H14,1*%
%TO.N,N/C*%
X142621000Y-147193000D03*
%TD*%
%TO.P,H9,1*%
%TO.N,N/C*%
X142621000Y-136906000D03*
%TD*%
D16*
%TO.P,U1,57,GND*%
%TO.N,GND*%
X137386000Y-112560800D03*
X137386000Y-111060800D03*
X136636000Y-113310800D03*
X136636000Y-111810800D03*
X136636000Y-110310800D03*
X135886000Y-112560800D03*
X135886000Y-111060800D03*
X135136000Y-113310800D03*
X135136000Y-111810800D03*
X135136000Y-110310800D03*
X134386000Y-112560800D03*
X134386000Y-111060800D03*
%TD*%
D17*
%TO.P,J2,6,Shield*%
%TO.N,GND*%
X103115600Y-115252000D03*
D18*
X106115600Y-114942000D03*
X106115600Y-110102000D03*
D17*
X103115600Y-109792000D03*
%TD*%
D19*
%TO.N,/NRST*%
X131318000Y-108051600D03*
X138630898Y-110083600D03*
D20*
%TO.N,GND*%
X139446000Y-99669600D03*
X144780000Y-107696000D03*
D19*
X132486400Y-123901200D03*
D20*
X132943600Y-127914400D03*
X134962600Y-118465600D03*
X147828000Y-104495600D03*
X143459200Y-110185200D03*
X140817600Y-126542800D03*
X136550400Y-99669600D03*
X129895600Y-112826800D03*
X147370800Y-120142000D03*
X169149000Y-97536000D03*
X132029200Y-99669600D03*
D19*
X143052800Y-122326400D03*
D20*
X134315200Y-103428800D03*
X111201200Y-98298000D03*
X143205200Y-101955600D03*
X145034000Y-126644400D03*
X147015200Y-99415600D03*
X136525000Y-129667000D03*
X167513000Y-111633000D03*
D19*
%TO.N,+3.3V*%
X134467600Y-107137200D03*
D20*
X155067000Y-103505000D03*
X148183600Y-117602000D03*
X145796000Y-102442789D03*
X136398000Y-105867200D03*
X146608800Y-117602000D03*
D19*
%TO.N,/UART0_RX*%
X136855200Y-107137200D03*
X131955895Y-107061000D03*
%TO.N,/UART0_TX*%
X132537200Y-107746800D03*
X136442460Y-106724460D03*
%TO.N,/GPIO0*%
X138494115Y-110681267D03*
X130683000Y-105410000D03*
%TO.N,/I2C_SCL*%
X137247468Y-131546600D03*
X138684000Y-131572000D03*
%TO.N,Net-(U1-GPIO1)*%
X135890000Y-95808800D03*
%TO.N,Net-(U1-GPIO2)*%
X164790000Y-66267000D03*
%TO.N,Net-(U1-GPIO3)*%
X135991600Y-36322000D03*
%TO.N,Net-(U1-GPIO4)*%
X106990000Y-66067000D03*
%TD*%
D21*
%TO.N,/NRST*%
X138630898Y-110083600D02*
X138021298Y-109474000D01*
X132740400Y-109474000D02*
X131318000Y-108051600D01*
X138021298Y-109474000D02*
X132740400Y-109474000D01*
D22*
%TO.N,+3.3V*%
X148183600Y-117602000D02*
X146608800Y-117602000D01*
D23*
X134467600Y-107137200D02*
X134518400Y-107188000D01*
X134670800Y-108458000D02*
X135382000Y-108458000D01*
X134518400Y-107188000D02*
X134518400Y-108305600D01*
X135382000Y-108458000D02*
X135839200Y-108000800D01*
X134518400Y-108305600D02*
X134670800Y-108458000D01*
X135890000Y-106375200D02*
X136398000Y-105867200D01*
X135839200Y-108000800D02*
X135890000Y-108000800D01*
X135890000Y-108000800D02*
X135890000Y-106375200D01*
D22*
X145796000Y-102442789D02*
X154004789Y-102442789D01*
X154004789Y-102442789D02*
X155067000Y-103505000D01*
D21*
%TO.N,/UART0_RX*%
X131955895Y-108079895D02*
X133070600Y-109194600D01*
X135802531Y-109194600D02*
X136855200Y-108141931D01*
X136855200Y-108141931D02*
X136855200Y-107137200D01*
X131955895Y-107061000D02*
X131955895Y-108079895D01*
X133070600Y-109194600D02*
X135802531Y-109194600D01*
%TO.N,/UART0_TX*%
X135686799Y-108915200D02*
X133705600Y-108915200D01*
X133705600Y-108915200D02*
X132537200Y-107746800D01*
X136423400Y-106743520D02*
X136423400Y-108178599D01*
X136442460Y-106724460D02*
X136423400Y-106743520D01*
X136423400Y-108178599D02*
X135686799Y-108915200D01*
%TO.N,/GPIO0*%
X130683000Y-105410000D02*
X130683000Y-108027258D01*
X137566248Y-109753400D02*
X138494115Y-110681267D01*
X130683000Y-108027258D02*
X132409142Y-109753400D01*
X132409142Y-109753400D02*
X137566248Y-109753400D01*
%TO.N,/I2C_SCL*%
X138658600Y-131546600D02*
X137247468Y-131546600D01*
X138684000Y-131572000D02*
X138658600Y-131546600D01*
%TD*%
%TA.AperFunction,Conductor*%
%TO.N,GND*%
G36*
X171137621Y-96540002D02*
G01*
X171184114Y-96593658D01*
X171195500Y-96646000D01*
X171195500Y-96778499D01*
X171069243Y-162053244D01*
X171049109Y-162121326D01*
X170995364Y-162167715D01*
X170943243Y-162179000D01*
X100837000Y-162179000D01*
X100768879Y-162158998D01*
X100722386Y-162105342D01*
X100711000Y-162053000D01*
X100711000Y-159632396D01*
X105918687Y-159632396D01*
X105949114Y-159908928D01*
X106019480Y-160178078D01*
X106092016Y-160348767D01*
X106128284Y-160434114D01*
X106273208Y-160671581D01*
X106451163Y-160885417D01*
X106658357Y-161071063D01*
X106890373Y-161224563D01*
X107142267Y-161342646D01*
X107408669Y-161422795D01*
X107683895Y-161463299D01*
X107683898Y-161463300D01*
X107683901Y-161463300D01*
X107892465Y-161463300D01*
X107925315Y-161460895D01*
X108100455Y-161448077D01*
X108371997Y-161387588D01*
X108631838Y-161288208D01*
X108874440Y-161152053D01*
X109094632Y-160982026D01*
X109287722Y-160781751D01*
X109449593Y-160555496D01*
X109576797Y-160308083D01*
X109666621Y-160044786D01*
X109717152Y-159771216D01*
X109722226Y-159632396D01*
X162052687Y-159632396D01*
X162083114Y-159908928D01*
X162153480Y-160178078D01*
X162226016Y-160348767D01*
X162262284Y-160434114D01*
X162407208Y-160671581D01*
X162585163Y-160885417D01*
X162792357Y-161071063D01*
X163024373Y-161224563D01*
X163276267Y-161342646D01*
X163542669Y-161422795D01*
X163817895Y-161463299D01*
X163817898Y-161463300D01*
X163817901Y-161463300D01*
X164026465Y-161463300D01*
X164059315Y-161460895D01*
X164234455Y-161448077D01*
X164505997Y-161387588D01*
X164765838Y-161288208D01*
X165008440Y-161152053D01*
X165228632Y-160982026D01*
X165421722Y-160781751D01*
X165583593Y-160555496D01*
X165710797Y-160308083D01*
X165800621Y-160044786D01*
X165851152Y-159771216D01*
X165861313Y-159493204D01*
X165830886Y-159216676D01*
X165760520Y-158947524D01*
X165651716Y-158691486D01*
X165506792Y-158454019D01*
X165328837Y-158240183D01*
X165121643Y-158054537D01*
X164889627Y-157901037D01*
X164753860Y-157837392D01*
X164637734Y-157782954D01*
X164558263Y-157759044D01*
X164371331Y-157702805D01*
X164371326Y-157702804D01*
X164371322Y-157702803D01*
X164096103Y-157662300D01*
X164096099Y-157662300D01*
X163887537Y-157662300D01*
X163887535Y-157662300D01*
X163679541Y-157677523D01*
X163408009Y-157738010D01*
X163407997Y-157738014D01*
X163148161Y-157837392D01*
X162905559Y-157973547D01*
X162685366Y-158143575D01*
X162685365Y-158143576D01*
X162492280Y-158343846D01*
X162330404Y-158570107D01*
X162203204Y-158817514D01*
X162113377Y-159080820D01*
X162062847Y-159354387D01*
X162052687Y-159632396D01*
X109722226Y-159632396D01*
X109727313Y-159493204D01*
X109696886Y-159216676D01*
X109626520Y-158947524D01*
X109517716Y-158691486D01*
X109372792Y-158454019D01*
X109194837Y-158240183D01*
X108987643Y-158054537D01*
X108755627Y-157901037D01*
X108619860Y-157837392D01*
X108503734Y-157782954D01*
X108424263Y-157759044D01*
X108237331Y-157702805D01*
X108237326Y-157702804D01*
X108237322Y-157702803D01*
X107962103Y-157662300D01*
X107962099Y-157662300D01*
X107753537Y-157662300D01*
X107753535Y-157662300D01*
X107545541Y-157677523D01*
X107274009Y-157738010D01*
X107273997Y-157738014D01*
X107014161Y-157837392D01*
X106771559Y-157973547D01*
X106551366Y-158143575D01*
X106551365Y-158143576D01*
X106358280Y-158343846D01*
X106196404Y-158570107D01*
X106069204Y-158817514D01*
X105979377Y-159080820D01*
X105928847Y-159354387D01*
X105918687Y-159632396D01*
X100711000Y-159632396D01*
X100711000Y-147193000D01*
X105658598Y-147193000D01*
X105678193Y-147591871D01*
X105736790Y-147986901D01*
X105833825Y-148374285D01*
X105833828Y-148374296D01*
X105833830Y-148374303D01*
X105968361Y-148750289D01*
X105968363Y-148750293D01*
X106139108Y-149111303D01*
X106139110Y-149111306D01*
X106344418Y-149453843D01*
X106582299Y-149774587D01*
X106582307Y-149774597D01*
X106582310Y-149774601D01*
X106685495Y-149888448D01*
X106850497Y-150070502D01*
X107015499Y-150220050D01*
X107146399Y-150338690D01*
X107146402Y-150338692D01*
X107146412Y-150338700D01*
X107467156Y-150576581D01*
X107467160Y-150576583D01*
X107467161Y-150576584D01*
X107809697Y-150781892D01*
X108170707Y-150952637D01*
X108170710Y-150952638D01*
X108546696Y-151087169D01*
X108546703Y-151087171D01*
X108546705Y-151087171D01*
X108546715Y-151087175D01*
X108934099Y-151184210D01*
X109329129Y-151242807D01*
X109669673Y-151259536D01*
X109727996Y-151262402D01*
X109728000Y-151262402D01*
X109728004Y-151262402D01*
X109784269Y-151259637D01*
X110126871Y-151242807D01*
X110521901Y-151184210D01*
X110909285Y-151087175D01*
X110909296Y-151087170D01*
X110909303Y-151087169D01*
X111099298Y-151019186D01*
X111285293Y-150952637D01*
X111646303Y-150781892D01*
X111988839Y-150576584D01*
X112309601Y-150338690D01*
X112605502Y-150070502D01*
X112873690Y-149774601D01*
X113111584Y-149453839D01*
X113316892Y-149111303D01*
X113487637Y-148750293D01*
X113622175Y-148374285D01*
X113719210Y-147986901D01*
X113777807Y-147591871D01*
X113797402Y-147193000D01*
X125089598Y-147193000D01*
X125109193Y-147591871D01*
X125167790Y-147986901D01*
X125264825Y-148374285D01*
X125264828Y-148374296D01*
X125264830Y-148374303D01*
X125399361Y-148750289D01*
X125399363Y-148750293D01*
X125570108Y-149111303D01*
X125570110Y-149111306D01*
X125775418Y-149453843D01*
X126013299Y-149774587D01*
X126013307Y-149774597D01*
X126013310Y-149774601D01*
X126116495Y-149888448D01*
X126281497Y-150070502D01*
X126446499Y-150220050D01*
X126577399Y-150338690D01*
X126577402Y-150338692D01*
X126577412Y-150338700D01*
X126898156Y-150576581D01*
X126898160Y-150576583D01*
X126898161Y-150576584D01*
X127240697Y-150781892D01*
X127601707Y-150952637D01*
X127601710Y-150952638D01*
X127977696Y-151087169D01*
X127977703Y-151087171D01*
X127977705Y-151087171D01*
X127977715Y-151087175D01*
X128365099Y-151184210D01*
X128760129Y-151242807D01*
X129100673Y-151259536D01*
X129158996Y-151262402D01*
X129159000Y-151262402D01*
X129159004Y-151262402D01*
X129215269Y-151259637D01*
X129557871Y-151242807D01*
X129952901Y-151184210D01*
X130340285Y-151087175D01*
X130340296Y-151087170D01*
X130340303Y-151087169D01*
X130530298Y-151019186D01*
X130716293Y-150952637D01*
X131077303Y-150781892D01*
X131419839Y-150576584D01*
X131740601Y-150338690D01*
X132036502Y-150070502D01*
X132304690Y-149774601D01*
X132542584Y-149453839D01*
X132747892Y-149111303D01*
X132918637Y-148750293D01*
X133053175Y-148374285D01*
X133150210Y-147986901D01*
X133208807Y-147591871D01*
X133228402Y-147193000D01*
X138551598Y-147193000D01*
X138571193Y-147591871D01*
X138629790Y-147986901D01*
X138726825Y-148374285D01*
X138726828Y-148374296D01*
X138726830Y-148374303D01*
X138861361Y-148750289D01*
X138861363Y-148750293D01*
X139032108Y-149111303D01*
X139032110Y-149111306D01*
X139237418Y-149453843D01*
X139475299Y-149774587D01*
X139475307Y-149774597D01*
X139475310Y-149774601D01*
X139578495Y-149888448D01*
X139743497Y-150070502D01*
X139908499Y-150220050D01*
X140039399Y-150338690D01*
X140039402Y-150338692D01*
X140039412Y-150338700D01*
X140360156Y-150576581D01*
X140360160Y-150576583D01*
X140360161Y-150576584D01*
X140702697Y-150781892D01*
X141063707Y-150952637D01*
X141063710Y-150952638D01*
X141439696Y-151087169D01*
X141439703Y-151087171D01*
X141439705Y-151087171D01*
X141439715Y-151087175D01*
X141827099Y-151184210D01*
X142222129Y-151242807D01*
X142562673Y-151259536D01*
X142620996Y-151262402D01*
X142621000Y-151262402D01*
X142621004Y-151262402D01*
X142677269Y-151259637D01*
X143019871Y-151242807D01*
X143414901Y-151184210D01*
X143802285Y-151087175D01*
X143802296Y-151087170D01*
X143802303Y-151087169D01*
X143992298Y-151019186D01*
X144178293Y-150952637D01*
X144539303Y-150781892D01*
X144881839Y-150576584D01*
X145202601Y-150338690D01*
X145498502Y-150070502D01*
X145766690Y-149774601D01*
X146004584Y-149453839D01*
X146209892Y-149111303D01*
X146380637Y-148750293D01*
X146515175Y-148374285D01*
X146612210Y-147986901D01*
X146670807Y-147591871D01*
X146690402Y-147193000D01*
X157982598Y-147193000D01*
X158002193Y-147591871D01*
X158060790Y-147986901D01*
X158157825Y-148374285D01*
X158157828Y-148374296D01*
X158157830Y-148374303D01*
X158292361Y-148750289D01*
X158292363Y-148750293D01*
X158463108Y-149111303D01*
X158463110Y-149111306D01*
X158668418Y-149453843D01*
X158906299Y-149774587D01*
X158906307Y-149774597D01*
X158906310Y-149774601D01*
X159009495Y-149888448D01*
X159174497Y-150070502D01*
X159339499Y-150220050D01*
X159470399Y-150338690D01*
X159470402Y-150338692D01*
X159470412Y-150338700D01*
X159791156Y-150576581D01*
X159791160Y-150576583D01*
X159791161Y-150576584D01*
X160133697Y-150781892D01*
X160494707Y-150952637D01*
X160494710Y-150952638D01*
X160870696Y-151087169D01*
X160870703Y-151087171D01*
X160870705Y-151087171D01*
X160870715Y-151087175D01*
X161258099Y-151184210D01*
X161653129Y-151242807D01*
X161993673Y-151259536D01*
X162051996Y-151262402D01*
X162052000Y-151262402D01*
X162052004Y-151262402D01*
X162108269Y-151259637D01*
X162450871Y-151242807D01*
X162845901Y-151184210D01*
X163233285Y-151087175D01*
X163233296Y-151087170D01*
X163233303Y-151087169D01*
X163423298Y-151019186D01*
X163609293Y-150952637D01*
X163970303Y-150781892D01*
X164312839Y-150576584D01*
X164633601Y-150338690D01*
X164929502Y-150070502D01*
X165197690Y-149774601D01*
X165435584Y-149453839D01*
X165640892Y-149111303D01*
X165811637Y-148750293D01*
X165946175Y-148374285D01*
X166043210Y-147986901D01*
X166101807Y-147591871D01*
X166121402Y-147193000D01*
X166101807Y-146794129D01*
X166043210Y-146399099D01*
X165946175Y-146011715D01*
X165946171Y-146011703D01*
X165946169Y-146011696D01*
X165811638Y-145635710D01*
X165811637Y-145635707D01*
X165640892Y-145274697D01*
X165435584Y-144932161D01*
X165435583Y-144932160D01*
X165435581Y-144932156D01*
X165197700Y-144611412D01*
X165197692Y-144611402D01*
X165197690Y-144611399D01*
X165079050Y-144480499D01*
X164929502Y-144315497D01*
X164747448Y-144150495D01*
X164633601Y-144047310D01*
X164633597Y-144047307D01*
X164633587Y-144047299D01*
X164312843Y-143809418D01*
X163970306Y-143604110D01*
X163970307Y-143604110D01*
X163970303Y-143604108D01*
X163609293Y-143433363D01*
X163609289Y-143433361D01*
X163233303Y-143298830D01*
X163233296Y-143298828D01*
X163233287Y-143298825D01*
X163233285Y-143298825D01*
X162845901Y-143201790D01*
X162816857Y-143197481D01*
X162450881Y-143143194D01*
X162450874Y-143143193D01*
X162450871Y-143143193D01*
X162251435Y-143133395D01*
X162052004Y-143123598D01*
X162051996Y-143123598D01*
X161824073Y-143134795D01*
X161653129Y-143143193D01*
X161653126Y-143143193D01*
X161653118Y-143143194D01*
X161258105Y-143201789D01*
X161258103Y-143201789D01*
X161258099Y-143201790D01*
X160875160Y-143297711D01*
X160870703Y-143298828D01*
X160870696Y-143298830D01*
X160494710Y-143433361D01*
X160133693Y-143604110D01*
X159791156Y-143809418D01*
X159470412Y-144047299D01*
X159470402Y-144047307D01*
X159174497Y-144315497D01*
X158906307Y-144611402D01*
X158906299Y-144611412D01*
X158668418Y-144932156D01*
X158463110Y-145274693D01*
X158292361Y-145635710D01*
X158157830Y-146011696D01*
X158157828Y-146011703D01*
X158157824Y-146011715D01*
X158157825Y-146011715D01*
X158060790Y-146399099D01*
X158060789Y-146399103D01*
X158060789Y-146399105D01*
X158002194Y-146794118D01*
X158002193Y-146794126D01*
X158002193Y-146794129D01*
X157982598Y-147193000D01*
X146690402Y-147193000D01*
X146670807Y-146794129D01*
X146612210Y-146399099D01*
X146515175Y-146011715D01*
X146515171Y-146011703D01*
X146515169Y-146011696D01*
X146380638Y-145635710D01*
X146380637Y-145635707D01*
X146209892Y-145274697D01*
X146004584Y-144932161D01*
X146004583Y-144932160D01*
X146004581Y-144932156D01*
X145766700Y-144611412D01*
X145766692Y-144611402D01*
X145766690Y-144611399D01*
X145648050Y-144480499D01*
X145498502Y-144315497D01*
X145316448Y-144150495D01*
X145202601Y-144047310D01*
X145202597Y-144047307D01*
X145202587Y-144047299D01*
X144881843Y-143809418D01*
X144539306Y-143604110D01*
X144539307Y-143604110D01*
X144539303Y-143604108D01*
X144178293Y-143433363D01*
X144178289Y-143433361D01*
X143802303Y-143298830D01*
X143802296Y-143298828D01*
X143802287Y-143298825D01*
X143802285Y-143298825D01*
X143414901Y-143201790D01*
X143385857Y-143197481D01*
X143019881Y-143143194D01*
X143019874Y-143143193D01*
X143019871Y-143143193D01*
X142820435Y-143133395D01*
X142621004Y-143123598D01*
X142620996Y-143123598D01*
X142393073Y-143134795D01*
X142222129Y-143143193D01*
X142222126Y-143143193D01*
X142222118Y-143143194D01*
X141827105Y-143201789D01*
X141827103Y-143201789D01*
X141827099Y-143201790D01*
X141444160Y-143297711D01*
X141439703Y-143298828D01*
X141439696Y-143298830D01*
X141063710Y-143433361D01*
X140702693Y-143604110D01*
X140360156Y-143809418D01*
X140039412Y-144047299D01*
X140039402Y-144047307D01*
X139743497Y-144315497D01*
X139475307Y-144611402D01*
X139475299Y-144611412D01*
X139237418Y-144932156D01*
X139032110Y-145274693D01*
X138861361Y-145635710D01*
X138726830Y-146011696D01*
X138726828Y-146011703D01*
X138726824Y-146011715D01*
X138726825Y-146011715D01*
X138629790Y-146399099D01*
X138629789Y-146399103D01*
X138629789Y-146399105D01*
X138571194Y-146794118D01*
X138571193Y-146794126D01*
X138571193Y-146794129D01*
X138551598Y-147193000D01*
X133228402Y-147193000D01*
X133208807Y-146794129D01*
X133150210Y-146399099D01*
X133053175Y-146011715D01*
X133053171Y-146011703D01*
X133053169Y-146011696D01*
X132918638Y-145635710D01*
X132918637Y-145635707D01*
X132747892Y-145274697D01*
X132542584Y-144932161D01*
X132542583Y-144932160D01*
X132542581Y-144932156D01*
X132304700Y-144611412D01*
X132304692Y-144611402D01*
X132304690Y-144611399D01*
X132186050Y-144480499D01*
X132036502Y-144315497D01*
X131854448Y-144150495D01*
X131740601Y-144047310D01*
X131740597Y-144047307D01*
X131740587Y-144047299D01*
X131419843Y-143809418D01*
X131077306Y-143604110D01*
X131077307Y-143604110D01*
X131077303Y-143604108D01*
X130716293Y-143433363D01*
X130716289Y-143433361D01*
X130340303Y-143298830D01*
X130340296Y-143298828D01*
X130340287Y-143298825D01*
X130340285Y-143298825D01*
X129952901Y-143201790D01*
X129923857Y-143197481D01*
X129557881Y-143143194D01*
X129557874Y-143143193D01*
X129557871Y-143143193D01*
X129358435Y-143133395D01*
X129159004Y-143123598D01*
X129158996Y-143123598D01*
X128931073Y-143134795D01*
X128760129Y-143143193D01*
X128760126Y-143143193D01*
X128760118Y-143143194D01*
X128365105Y-143201789D01*
X128365103Y-143201789D01*
X128365099Y-143201790D01*
X127982160Y-143297711D01*
X127977703Y-143298828D01*
X127977696Y-143298830D01*
X127601710Y-143433361D01*
X127240693Y-143604110D01*
X126898156Y-143809418D01*
X126577412Y-144047299D01*
X126577402Y-144047307D01*
X126281497Y-144315497D01*
X126013307Y-144611402D01*
X126013299Y-144611412D01*
X125775418Y-144932156D01*
X125570110Y-145274693D01*
X125399361Y-145635710D01*
X125264830Y-146011696D01*
X125264828Y-146011703D01*
X125264824Y-146011715D01*
X125264825Y-146011715D01*
X125167790Y-146399099D01*
X125167789Y-146399103D01*
X125167789Y-146399105D01*
X125109194Y-146794118D01*
X125109193Y-146794126D01*
X125109193Y-146794129D01*
X125089598Y-147193000D01*
X113797402Y-147193000D01*
X113777807Y-146794129D01*
X113719210Y-146399099D01*
X113622175Y-146011715D01*
X113622171Y-146011703D01*
X113622169Y-146011696D01*
X113487638Y-145635710D01*
X113487637Y-145635707D01*
X113316892Y-145274697D01*
X113111584Y-144932161D01*
X113111583Y-144932160D01*
X113111581Y-144932156D01*
X112873700Y-144611412D01*
X112873692Y-144611402D01*
X112873690Y-144611399D01*
X112755050Y-144480499D01*
X112605502Y-144315497D01*
X112423448Y-144150495D01*
X112309601Y-144047310D01*
X112309597Y-144047307D01*
X112309587Y-144047299D01*
X111988843Y-143809418D01*
X111646306Y-143604110D01*
X111646307Y-143604110D01*
X111646303Y-143604108D01*
X111285293Y-143433363D01*
X111285289Y-143433361D01*
X110909303Y-143298830D01*
X110909296Y-143298828D01*
X110909287Y-143298825D01*
X110909285Y-143298825D01*
X110521901Y-143201790D01*
X110492857Y-143197481D01*
X110126881Y-143143194D01*
X110126874Y-143143193D01*
X110126871Y-143143193D01*
X109927435Y-143133395D01*
X109728004Y-143123598D01*
X109727996Y-143123598D01*
X109500073Y-143134795D01*
X109329129Y-143143193D01*
X109329126Y-143143193D01*
X109329118Y-143143194D01*
X108934105Y-143201789D01*
X108934103Y-143201789D01*
X108934099Y-143201790D01*
X108551160Y-143297711D01*
X108546703Y-143298828D01*
X108546696Y-143298830D01*
X108170710Y-143433361D01*
X107809693Y-143604110D01*
X107467156Y-143809418D01*
X107146412Y-144047299D01*
X107146402Y-144047307D01*
X106850497Y-144315497D01*
X106582307Y-144611402D01*
X106582299Y-144611412D01*
X106344418Y-144932156D01*
X106139110Y-145274693D01*
X105968361Y-145635710D01*
X105833830Y-146011696D01*
X105833828Y-146011703D01*
X105833824Y-146011715D01*
X105833825Y-146011715D01*
X105736790Y-146399099D01*
X105736789Y-146399103D01*
X105736789Y-146399105D01*
X105678194Y-146794118D01*
X105678193Y-146794126D01*
X105678193Y-146794129D01*
X105658598Y-147193000D01*
X100711000Y-147193000D01*
X100711000Y-136906000D01*
X105658598Y-136906000D01*
X105678193Y-137304871D01*
X105736790Y-137699901D01*
X105833825Y-138087285D01*
X105833828Y-138087296D01*
X105833830Y-138087303D01*
X105968361Y-138463289D01*
X105968363Y-138463293D01*
X106139108Y-138824303D01*
X106139110Y-138824306D01*
X106344418Y-139166843D01*
X106582299Y-139487587D01*
X106582307Y-139487597D01*
X106582310Y-139487601D01*
X106685495Y-139601448D01*
X106850497Y-139783502D01*
X107015499Y-139933050D01*
X107146399Y-140051690D01*
X107146402Y-140051692D01*
X107146412Y-140051700D01*
X107467156Y-140289581D01*
X107467160Y-140289583D01*
X107467161Y-140289584D01*
X107809697Y-140494892D01*
X108170707Y-140665637D01*
X108170710Y-140665638D01*
X108546696Y-140800169D01*
X108546703Y-140800171D01*
X108546705Y-140800171D01*
X108546715Y-140800175D01*
X108934099Y-140897210D01*
X109329129Y-140955807D01*
X109669673Y-140972536D01*
X109727996Y-140975402D01*
X109728000Y-140975402D01*
X109728004Y-140975402D01*
X109784269Y-140972637D01*
X110126871Y-140955807D01*
X110521901Y-140897210D01*
X110909285Y-140800175D01*
X110909296Y-140800170D01*
X110909303Y-140800169D01*
X111099298Y-140732186D01*
X111285293Y-140665637D01*
X111646303Y-140494892D01*
X111988839Y-140289584D01*
X112309601Y-140051690D01*
X112605502Y-139783502D01*
X112873690Y-139487601D01*
X113111584Y-139166839D01*
X113316892Y-138824303D01*
X113487637Y-138463293D01*
X113622175Y-138087285D01*
X113719210Y-137699901D01*
X113777807Y-137304871D01*
X113797402Y-136906000D01*
X125089598Y-136906000D01*
X125109193Y-137304871D01*
X125167790Y-137699901D01*
X125264825Y-138087285D01*
X125264828Y-138087296D01*
X125264830Y-138087303D01*
X125399361Y-138463289D01*
X125399363Y-138463293D01*
X125570108Y-138824303D01*
X125570110Y-138824306D01*
X125775418Y-139166843D01*
X126013299Y-139487587D01*
X126013307Y-139487597D01*
X126013310Y-139487601D01*
X126116495Y-139601448D01*
X126281497Y-139783502D01*
X126446499Y-139933050D01*
X126577399Y-140051690D01*
X126577402Y-140051692D01*
X126577412Y-140051700D01*
X126898156Y-140289581D01*
X126898160Y-140289583D01*
X126898161Y-140289584D01*
X127240697Y-140494892D01*
X127601707Y-140665637D01*
X127601710Y-140665638D01*
X127977696Y-140800169D01*
X127977703Y-140800171D01*
X127977705Y-140800171D01*
X127977715Y-140800175D01*
X128365099Y-140897210D01*
X128760129Y-140955807D01*
X129100673Y-140972536D01*
X129158996Y-140975402D01*
X129159000Y-140975402D01*
X129159004Y-140975402D01*
X129215269Y-140972637D01*
X129557871Y-140955807D01*
X129952901Y-140897210D01*
X130340285Y-140800175D01*
X130340296Y-140800170D01*
X130340303Y-140800169D01*
X130530298Y-140732186D01*
X130716293Y-140665637D01*
X131077303Y-140494892D01*
X131419839Y-140289584D01*
X131740601Y-140051690D01*
X132036502Y-139783502D01*
X132304690Y-139487601D01*
X132542584Y-139166839D01*
X132747892Y-138824303D01*
X132918637Y-138463293D01*
X133053175Y-138087285D01*
X133150210Y-137699901D01*
X133208807Y-137304871D01*
X133228402Y-136906000D01*
X138551598Y-136906000D01*
X138571193Y-137304871D01*
X138629790Y-137699901D01*
X138726825Y-138087285D01*
X138726828Y-138087296D01*
X138726830Y-138087303D01*
X138861361Y-138463289D01*
X138861363Y-138463293D01*
X139032108Y-138824303D01*
X139032110Y-138824306D01*
X139237418Y-139166843D01*
X139475299Y-139487587D01*
X139475307Y-139487597D01*
X139475310Y-139487601D01*
X139578495Y-139601448D01*
X139743497Y-139783502D01*
X139908499Y-139933050D01*
X140039399Y-140051690D01*
X140039402Y-140051692D01*
X140039412Y-140051700D01*
X140360156Y-140289581D01*
X140360160Y-140289583D01*
X140360161Y-140289584D01*
X140702697Y-140494892D01*
X141063707Y-140665637D01*
X141063710Y-140665638D01*
X141439696Y-140800169D01*
X141439703Y-140800171D01*
X141439705Y-140800171D01*
X141439715Y-140800175D01*
X141827099Y-140897210D01*
X142222129Y-140955807D01*
X142562673Y-140972536D01*
X142620996Y-140975402D01*
X142621000Y-140975402D01*
X142621004Y-140975402D01*
X142677269Y-140972637D01*
X143019871Y-140955807D01*
X143414901Y-140897210D01*
X143802285Y-140800175D01*
X143802296Y-140800170D01*
X143802303Y-140800169D01*
X143992298Y-140732186D01*
X144178293Y-140665637D01*
X144539303Y-140494892D01*
X144881839Y-140289584D01*
X145202601Y-140051690D01*
X145498502Y-139783502D01*
X145766690Y-139487601D01*
X146004584Y-139166839D01*
X146209892Y-138824303D01*
X146380637Y-138463293D01*
X146515175Y-138087285D01*
X146612210Y-137699901D01*
X146670807Y-137304871D01*
X146690402Y-136906000D01*
X157982598Y-136906000D01*
X158002193Y-137304871D01*
X158060790Y-137699901D01*
X158157825Y-138087285D01*
X158157828Y-138087296D01*
X158157830Y-138087303D01*
X158292361Y-138463289D01*
X158292363Y-138463293D01*
X158463108Y-138824303D01*
X158463110Y-138824306D01*
X158668418Y-139166843D01*
X158906299Y-139487587D01*
X158906307Y-139487597D01*
X158906310Y-139487601D01*
X159009495Y-139601448D01*
X159174497Y-139783502D01*
X159339499Y-139933050D01*
X159470399Y-140051690D01*
X159470402Y-140051692D01*
X159470412Y-140051700D01*
X159791156Y-140289581D01*
X159791160Y-140289583D01*
X159791161Y-140289584D01*
X160133697Y-140494892D01*
X160494707Y-140665637D01*
X160494710Y-140665638D01*
X160870696Y-140800169D01*
X160870703Y-140800171D01*
X160870705Y-140800171D01*
X160870715Y-140800175D01*
X161258099Y-140897210D01*
X161653129Y-140955807D01*
X161993673Y-140972536D01*
X162051996Y-140975402D01*
X162052000Y-140975402D01*
X162052004Y-140975402D01*
X162108269Y-140972637D01*
X162450871Y-140955807D01*
X162845901Y-140897210D01*
X163233285Y-140800175D01*
X163233296Y-140800170D01*
X163233303Y-140800169D01*
X163423298Y-140732186D01*
X163609293Y-140665637D01*
X163970303Y-140494892D01*
X164312839Y-140289584D01*
X164633601Y-140051690D01*
X164929502Y-139783502D01*
X165197690Y-139487601D01*
X165435584Y-139166839D01*
X165640892Y-138824303D01*
X165811637Y-138463293D01*
X165946175Y-138087285D01*
X166043210Y-137699901D01*
X166101807Y-137304871D01*
X166121402Y-136906000D01*
X166101807Y-136507129D01*
X166043210Y-136112099D01*
X165946175Y-135724715D01*
X165946171Y-135724703D01*
X165946169Y-135724696D01*
X165811638Y-135348710D01*
X165811637Y-135348707D01*
X165640892Y-134987697D01*
X165435584Y-134645161D01*
X165435583Y-134645160D01*
X165435581Y-134645156D01*
X165197700Y-134324412D01*
X165197692Y-134324402D01*
X165197690Y-134324399D01*
X165079050Y-134193499D01*
X164929502Y-134028497D01*
X164747448Y-133863495D01*
X164633601Y-133760310D01*
X164633597Y-133760307D01*
X164633587Y-133760299D01*
X164312843Y-133522418D01*
X163970306Y-133317110D01*
X163970307Y-133317110D01*
X163970303Y-133317108D01*
X163609293Y-133146363D01*
X163609289Y-133146361D01*
X163233303Y-133011830D01*
X163233296Y-133011828D01*
X163233287Y-133011825D01*
X163233285Y-133011825D01*
X162845901Y-132914790D01*
X162816857Y-132910481D01*
X162450881Y-132856194D01*
X162450874Y-132856193D01*
X162450871Y-132856193D01*
X162251435Y-132846395D01*
X162052004Y-132836598D01*
X162051996Y-132836598D01*
X161824073Y-132847795D01*
X161653129Y-132856193D01*
X161653126Y-132856193D01*
X161653118Y-132856194D01*
X161258105Y-132914789D01*
X161258103Y-132914789D01*
X161258099Y-132914790D01*
X160875160Y-133010711D01*
X160870703Y-133011828D01*
X160870696Y-133011830D01*
X160494710Y-133146361D01*
X160133693Y-133317110D01*
X159791156Y-133522418D01*
X159470412Y-133760299D01*
X159470402Y-133760307D01*
X159174497Y-134028497D01*
X158906307Y-134324402D01*
X158906299Y-134324412D01*
X158668418Y-134645156D01*
X158463110Y-134987693D01*
X158292361Y-135348710D01*
X158157830Y-135724696D01*
X158157828Y-135724703D01*
X158157824Y-135724715D01*
X158157825Y-135724715D01*
X158060790Y-136112099D01*
X158060789Y-136112103D01*
X158060789Y-136112105D01*
X158002194Y-136507118D01*
X158002193Y-136507126D01*
X158002193Y-136507129D01*
X157982598Y-136906000D01*
X146690402Y-136906000D01*
X146670807Y-136507129D01*
X146612210Y-136112099D01*
X146515175Y-135724715D01*
X146515171Y-135724703D01*
X146515169Y-135724696D01*
X146380638Y-135348710D01*
X146380637Y-135348707D01*
X146209892Y-134987697D01*
X146004584Y-134645161D01*
X146004583Y-134645160D01*
X146004581Y-134645156D01*
X145766700Y-134324412D01*
X145766692Y-134324402D01*
X145766690Y-134324399D01*
X145648050Y-134193499D01*
X145498502Y-134028497D01*
X145316448Y-133863495D01*
X145202601Y-133760310D01*
X145202597Y-133760307D01*
X145202587Y-133760299D01*
X144881843Y-133522418D01*
X144539306Y-133317110D01*
X144539307Y-133317110D01*
X144539303Y-133317108D01*
X144178293Y-133146363D01*
X144178289Y-133146361D01*
X143802303Y-133011830D01*
X143802296Y-133011828D01*
X143802287Y-133011825D01*
X143802285Y-133011825D01*
X143414901Y-132914790D01*
X143385857Y-132910481D01*
X143019881Y-132856194D01*
X143019874Y-132856193D01*
X143019871Y-132856193D01*
X142820435Y-132846395D01*
X142621004Y-132836598D01*
X142620996Y-132836598D01*
X142393073Y-132847795D01*
X142222129Y-132856193D01*
X142222126Y-132856193D01*
X142222118Y-132856194D01*
X141827105Y-132914789D01*
X141827103Y-132914789D01*
X141827099Y-132914790D01*
X141444160Y-133010711D01*
X141439703Y-133011828D01*
X141439696Y-133011830D01*
X141063710Y-133146361D01*
X140702693Y-133317110D01*
X140360156Y-133522418D01*
X140039412Y-133760299D01*
X140039402Y-133760307D01*
X139743497Y-134028497D01*
X139475307Y-134324402D01*
X139475299Y-134324412D01*
X139237418Y-134645156D01*
X139032110Y-134987693D01*
X138861361Y-135348710D01*
X138726830Y-135724696D01*
X138726828Y-135724703D01*
X138726824Y-135724715D01*
X138726825Y-135724715D01*
X138629790Y-136112099D01*
X138629789Y-136112103D01*
X138629789Y-136112105D01*
X138571194Y-136507118D01*
X138571193Y-136507126D01*
X138571193Y-136507129D01*
X138551598Y-136906000D01*
X133228402Y-136906000D01*
X133208807Y-136507129D01*
X133150210Y-136112099D01*
X133053175Y-135724715D01*
X133053171Y-135724703D01*
X133053169Y-135724696D01*
X132918638Y-135348710D01*
X132918637Y-135348707D01*
X132747892Y-134987697D01*
X132542584Y-134645161D01*
X132542583Y-134645160D01*
X132542581Y-134645156D01*
X132304700Y-134324412D01*
X132304692Y-134324402D01*
X132304690Y-134324399D01*
X132186050Y-134193499D01*
X132036502Y-134028497D01*
X131854448Y-133863495D01*
X131740601Y-133760310D01*
X131740597Y-133760307D01*
X131740587Y-133760299D01*
X131419843Y-133522418D01*
X131077306Y-133317110D01*
X131077307Y-133317110D01*
X131077303Y-133317108D01*
X130716293Y-133146363D01*
X130716289Y-133146361D01*
X130340303Y-133011830D01*
X130340296Y-133011828D01*
X130340287Y-133011825D01*
X130340285Y-133011825D01*
X129952901Y-132914790D01*
X129923857Y-132910481D01*
X129557881Y-132856194D01*
X129557874Y-132856193D01*
X129557871Y-132856193D01*
X129358435Y-132846395D01*
X129159004Y-132836598D01*
X129158996Y-132836598D01*
X128931073Y-132847795D01*
X128760129Y-132856193D01*
X128760126Y-132856193D01*
X128760118Y-132856194D01*
X128365105Y-132914789D01*
X128365103Y-132914789D01*
X128365099Y-132914790D01*
X127982160Y-133010711D01*
X127977703Y-133011828D01*
X127977696Y-133011830D01*
X127601710Y-133146361D01*
X127240693Y-133317110D01*
X126898156Y-133522418D01*
X126577412Y-133760299D01*
X126577402Y-133760307D01*
X126281497Y-134028497D01*
X126013307Y-134324402D01*
X126013299Y-134324412D01*
X125775418Y-134645156D01*
X125570110Y-134987693D01*
X125399361Y-135348710D01*
X125264830Y-135724696D01*
X125264828Y-135724703D01*
X125264824Y-135724715D01*
X125264825Y-135724715D01*
X125167790Y-136112099D01*
X125167789Y-136112103D01*
X125167789Y-136112105D01*
X125109194Y-136507118D01*
X125109193Y-136507126D01*
X125109193Y-136507129D01*
X125089598Y-136906000D01*
X113797402Y-136906000D01*
X113777807Y-136507129D01*
X113719210Y-136112099D01*
X113622175Y-135724715D01*
X113622171Y-135724703D01*
X113622169Y-135724696D01*
X113487638Y-135348710D01*
X113487637Y-135348707D01*
X113316892Y-134987697D01*
X113111584Y-134645161D01*
X113111583Y-134645160D01*
X113111581Y-134645156D01*
X112873700Y-134324412D01*
X112873692Y-134324402D01*
X112873690Y-134324399D01*
X112755050Y-134193499D01*
X112605502Y-134028497D01*
X112423448Y-133863495D01*
X112309601Y-133760310D01*
X112309597Y-133760307D01*
X112309587Y-133760299D01*
X111988843Y-133522418D01*
X111646306Y-133317110D01*
X111646307Y-133317110D01*
X111646303Y-133317108D01*
X111285293Y-133146363D01*
X111285289Y-133146361D01*
X110909303Y-133011830D01*
X110909296Y-133011828D01*
X110909287Y-133011825D01*
X110909285Y-133011825D01*
X110521901Y-132914790D01*
X110492857Y-132910481D01*
X110126881Y-132856194D01*
X110126874Y-132856193D01*
X110126871Y-132856193D01*
X109927435Y-132846395D01*
X109728004Y-132836598D01*
X109727996Y-132836598D01*
X109500073Y-132847795D01*
X109329129Y-132856193D01*
X109329126Y-132856193D01*
X109329118Y-132856194D01*
X108934105Y-132914789D01*
X108934103Y-132914789D01*
X108934099Y-132914790D01*
X108551160Y-133010711D01*
X108546703Y-133011828D01*
X108546696Y-133011830D01*
X108170710Y-133146361D01*
X107809693Y-133317110D01*
X107467156Y-133522418D01*
X107146412Y-133760299D01*
X107146402Y-133760307D01*
X106850497Y-134028497D01*
X106582307Y-134324402D01*
X106582299Y-134324412D01*
X106344418Y-134645156D01*
X106139110Y-134987693D01*
X105968361Y-135348710D01*
X105833830Y-135724696D01*
X105833828Y-135724703D01*
X105833824Y-135724715D01*
X105833825Y-135724715D01*
X105736790Y-136112099D01*
X105736789Y-136112103D01*
X105736789Y-136112105D01*
X105678194Y-136507118D01*
X105678193Y-136507126D01*
X105678193Y-136507129D01*
X105658598Y-136906000D01*
X100711000Y-136906000D01*
X100711000Y-131546600D01*
X136759400Y-131546600D01*
X136779170Y-131684105D01*
X136790770Y-131709505D01*
X136836879Y-131810469D01*
X136927852Y-131915458D01*
X136967374Y-131940857D01*
X137044717Y-131990562D01*
X137178009Y-132029700D01*
X137178012Y-132029700D01*
X137316924Y-132029700D01*
X137316927Y-132029700D01*
X137450219Y-131990562D01*
X137567085Y-131915457D01*
X137567087Y-131915454D01*
X137573894Y-131909557D01*
X137576058Y-131912055D01*
X137622172Y-131882410D01*
X137657690Y-131877300D01*
X138251768Y-131877300D01*
X138319889Y-131897302D01*
X138346992Y-131920787D01*
X138364383Y-131940857D01*
X138364384Y-131940858D01*
X138422816Y-131978409D01*
X138481249Y-132015962D01*
X138614541Y-132055100D01*
X138614544Y-132055100D01*
X138753456Y-132055100D01*
X138753459Y-132055100D01*
X138886751Y-132015962D01*
X139003617Y-131940857D01*
X139094589Y-131835869D01*
X139152298Y-131709505D01*
X139172068Y-131572000D01*
X139152298Y-131434495D01*
X139094589Y-131308131D01*
X139003617Y-131203143D01*
X139003616Y-131203142D01*
X139003615Y-131203141D01*
X138886751Y-131128038D01*
X138753464Y-131088901D01*
X138753461Y-131088900D01*
X138753459Y-131088900D01*
X138614541Y-131088900D01*
X138614539Y-131088900D01*
X138614535Y-131088901D01*
X138481248Y-131128038D01*
X138375656Y-131195898D01*
X138307536Y-131215900D01*
X137657690Y-131215900D01*
X137589569Y-131195898D01*
X137574552Y-131182883D01*
X137573894Y-131183643D01*
X137567083Y-131177741D01*
X137450219Y-131102638D01*
X137316932Y-131063501D01*
X137316929Y-131063500D01*
X137316927Y-131063500D01*
X137178009Y-131063500D01*
X137178007Y-131063500D01*
X137178003Y-131063501D01*
X137044716Y-131102638D01*
X136927852Y-131177741D01*
X136836879Y-131282730D01*
X136825279Y-131308131D01*
X136779170Y-131409095D01*
X136759400Y-131546600D01*
X100711000Y-131546600D01*
X100711000Y-122105689D01*
X105795300Y-122105689D01*
X105835449Y-122474857D01*
X105835453Y-122474881D01*
X105915283Y-122837545D01*
X105915287Y-122837559D01*
X106033860Y-123189473D01*
X106033865Y-123189485D01*
X106189789Y-123526508D01*
X106189792Y-123526514D01*
X106381250Y-123844720D01*
X106605990Y-124140360D01*
X106605994Y-124140364D01*
X106606002Y-124140374D01*
X106861376Y-124409968D01*
X106861377Y-124409969D01*
X107144416Y-124650384D01*
X107451789Y-124858789D01*
X107779894Y-125032739D01*
X108124882Y-125170195D01*
X108124885Y-125170196D01*
X108259304Y-125207517D01*
X108482709Y-125269545D01*
X108849181Y-125329625D01*
X109039798Y-125339959D01*
X109127218Y-125344700D01*
X109127226Y-125344700D01*
X109312782Y-125344700D01*
X109396895Y-125340139D01*
X109590819Y-125329625D01*
X109957291Y-125269545D01*
X110315118Y-125170195D01*
X110503843Y-125095000D01*
X117850598Y-125095000D01*
X117870193Y-125493871D01*
X117928790Y-125888901D01*
X117975627Y-126075884D01*
X118025828Y-126276296D01*
X118025830Y-126276303D01*
X118160361Y-126652289D01*
X118160363Y-126652293D01*
X118331108Y-127013303D01*
X118331110Y-127013306D01*
X118536418Y-127355843D01*
X118774299Y-127676587D01*
X118774307Y-127676597D01*
X118774310Y-127676601D01*
X118877495Y-127790448D01*
X119042497Y-127972502D01*
X119207499Y-128122050D01*
X119338399Y-128240690D01*
X119338402Y-128240692D01*
X119338412Y-128240700D01*
X119659156Y-128478581D01*
X119659160Y-128478583D01*
X119659161Y-128478584D01*
X120001697Y-128683892D01*
X120362707Y-128854637D01*
X120362710Y-128854638D01*
X120738696Y-128989169D01*
X120738703Y-128989171D01*
X120738705Y-128989171D01*
X120738715Y-128989175D01*
X121126099Y-129086210D01*
X121521129Y-129144807D01*
X121861673Y-129161536D01*
X121919996Y-129164402D01*
X121920000Y-129164402D01*
X121920004Y-129164402D01*
X121976269Y-129161637D01*
X122318871Y-129144807D01*
X122713901Y-129086210D01*
X123101285Y-128989175D01*
X123101296Y-128989170D01*
X123101303Y-128989169D01*
X123291298Y-128921186D01*
X123477293Y-128854637D01*
X123838303Y-128683892D01*
X124180839Y-128478584D01*
X124501601Y-128240690D01*
X124797502Y-127972502D01*
X125065690Y-127676601D01*
X125303584Y-127355839D01*
X125508892Y-127013303D01*
X125679637Y-126652293D01*
X125814175Y-126276285D01*
X125911210Y-125888901D01*
X125969807Y-125493871D01*
X125989402Y-125095000D01*
X125984490Y-124995006D01*
X148013206Y-124995006D01*
X148032365Y-125360610D01*
X148089640Y-125722230D01*
X148184401Y-126075884D01*
X148315601Y-126417671D01*
X148315605Y-126417679D01*
X148481822Y-126743897D01*
X148681227Y-127050955D01*
X148681229Y-127050958D01*
X148911628Y-127335476D01*
X148911642Y-127335492D01*
X149170507Y-127594357D01*
X149170515Y-127594364D01*
X149170519Y-127594368D01*
X149170523Y-127594371D01*
X149455041Y-127824770D01*
X149455044Y-127824772D01*
X149455048Y-127824775D01*
X149762103Y-128024178D01*
X150088319Y-128190394D01*
X150088323Y-128190395D01*
X150088328Y-128190398D01*
X150430115Y-128321598D01*
X150430120Y-128321599D01*
X150430122Y-128321600D01*
X150783768Y-128416359D01*
X151145381Y-128473633D01*
X151145383Y-128473633D01*
X151145389Y-128473634D01*
X151510994Y-128492794D01*
X151511000Y-128492794D01*
X151511006Y-128492794D01*
X151876610Y-128473634D01*
X151876614Y-128473633D01*
X151876619Y-128473633D01*
X152238232Y-128416359D01*
X152591878Y-128321600D01*
X152591881Y-128321598D01*
X152591884Y-128321598D01*
X152933671Y-128190398D01*
X152933672Y-128190397D01*
X152933681Y-128190394D01*
X153259897Y-128024178D01*
X153566952Y-127824775D01*
X153851481Y-127594368D01*
X154110368Y-127335481D01*
X154340775Y-127050952D01*
X154540178Y-126743897D01*
X154706394Y-126417681D01*
X154837600Y-126075878D01*
X154932359Y-125722232D01*
X154989633Y-125360619D01*
X154989633Y-125360614D01*
X154989634Y-125360610D01*
X155008794Y-124995006D01*
X155008794Y-124994993D01*
X154989634Y-124629389D01*
X154932359Y-124267769D01*
X154898219Y-124140358D01*
X154837600Y-123914122D01*
X154837599Y-123914120D01*
X154837598Y-123914115D01*
X154706398Y-123572328D01*
X154706394Y-123572320D01*
X154706394Y-123572319D01*
X154540178Y-123246103D01*
X154340775Y-122939048D01*
X154340772Y-122939044D01*
X154340770Y-122939041D01*
X154110371Y-122654523D01*
X154110368Y-122654519D01*
X154110364Y-122654515D01*
X154110357Y-122654507D01*
X153851492Y-122395642D01*
X153851476Y-122395628D01*
X153566958Y-122165229D01*
X153566955Y-122165227D01*
X153475274Y-122105689D01*
X159135300Y-122105689D01*
X159175449Y-122474857D01*
X159175453Y-122474881D01*
X159255283Y-122837545D01*
X159255287Y-122837559D01*
X159373860Y-123189473D01*
X159373865Y-123189485D01*
X159529789Y-123526508D01*
X159529792Y-123526514D01*
X159721250Y-123844720D01*
X159945990Y-124140360D01*
X159945994Y-124140364D01*
X159946002Y-124140374D01*
X160201376Y-124409968D01*
X160201377Y-124409969D01*
X160484416Y-124650384D01*
X160791789Y-124858789D01*
X161119894Y-125032739D01*
X161464882Y-125170195D01*
X161464885Y-125170196D01*
X161599304Y-125207517D01*
X161822709Y-125269545D01*
X162189181Y-125329625D01*
X162379798Y-125339959D01*
X162467218Y-125344700D01*
X162467226Y-125344700D01*
X162652782Y-125344700D01*
X162736895Y-125340139D01*
X162930819Y-125329625D01*
X163297291Y-125269545D01*
X163655118Y-125170195D01*
X164000106Y-125032739D01*
X164328211Y-124858789D01*
X164635584Y-124650384D01*
X164918623Y-124409969D01*
X165174010Y-124140360D01*
X165398750Y-123844720D01*
X165590208Y-123526514D01*
X165746139Y-123189474D01*
X165864716Y-122837550D01*
X165944549Y-122474869D01*
X165984700Y-122105682D01*
X165984700Y-121734318D01*
X165944549Y-121365131D01*
X165864716Y-121002450D01*
X165746139Y-120650526D01*
X165746134Y-120650514D01*
X165590210Y-120313491D01*
X165590208Y-120313486D01*
X165398750Y-119995280D01*
X165174010Y-119699640D01*
X165174004Y-119699633D01*
X165173997Y-119699625D01*
X164918623Y-119430031D01*
X164635585Y-119189617D01*
X164328208Y-118981209D01*
X164193847Y-118909976D01*
X164000106Y-118807261D01*
X164000098Y-118807258D01*
X164000094Y-118807256D01*
X163655117Y-118669804D01*
X163655114Y-118669803D01*
X163297289Y-118570454D01*
X162930819Y-118510375D01*
X162652782Y-118495300D01*
X162652774Y-118495300D01*
X162467226Y-118495300D01*
X162467218Y-118495300D01*
X162189180Y-118510375D01*
X161822712Y-118570454D01*
X161822709Y-118570454D01*
X161464885Y-118669803D01*
X161464882Y-118669804D01*
X161119905Y-118807256D01*
X161119896Y-118807260D01*
X160791791Y-118981209D01*
X160484414Y-119189617D01*
X160201376Y-119430031D01*
X159946002Y-119699625D01*
X159945989Y-119699641D01*
X159721253Y-119995275D01*
X159721249Y-119995281D01*
X159529793Y-120313484D01*
X159529789Y-120313491D01*
X159373865Y-120650514D01*
X159373860Y-120650526D01*
X159255287Y-121002440D01*
X159255283Y-121002454D01*
X159175453Y-121365118D01*
X159175449Y-121365142D01*
X159135300Y-121734310D01*
X159135300Y-122105689D01*
X153475274Y-122105689D01*
X153259897Y-121965822D01*
X153259896Y-121965822D01*
X152933681Y-121799606D01*
X152933680Y-121799605D01*
X152933679Y-121799605D01*
X152933671Y-121799601D01*
X152591884Y-121668401D01*
X152238230Y-121573640D01*
X151876610Y-121516365D01*
X151511006Y-121497206D01*
X151510994Y-121497206D01*
X151145389Y-121516365D01*
X150783769Y-121573640D01*
X150430115Y-121668401D01*
X150088328Y-121799601D01*
X150088320Y-121799605D01*
X149762102Y-121965822D01*
X149455044Y-122165227D01*
X149455041Y-122165229D01*
X149170523Y-122395628D01*
X149170507Y-122395642D01*
X148911642Y-122654507D01*
X148911628Y-122654523D01*
X148681229Y-122939041D01*
X148681227Y-122939044D01*
X148481822Y-123246102D01*
X148315605Y-123572320D01*
X148315601Y-123572328D01*
X148184401Y-123914115D01*
X148089640Y-124267769D01*
X148032365Y-124629389D01*
X148013206Y-124994993D01*
X148013206Y-124995006D01*
X125984490Y-124995006D01*
X125969807Y-124696129D01*
X125911210Y-124301099D01*
X125814175Y-123913715D01*
X125814171Y-123913703D01*
X125814169Y-123913696D01*
X125679638Y-123537710D01*
X125679637Y-123537707D01*
X125508892Y-123176697D01*
X125303584Y-122834161D01*
X125303583Y-122834160D01*
X125303581Y-122834156D01*
X125065700Y-122513412D01*
X125065692Y-122513402D01*
X125065690Y-122513399D01*
X124947050Y-122382499D01*
X124797502Y-122217497D01*
X124519819Y-121965822D01*
X124501601Y-121949310D01*
X124501597Y-121949307D01*
X124501587Y-121949299D01*
X124180843Y-121711418D01*
X123855419Y-121516367D01*
X123838303Y-121506108D01*
X123477293Y-121335363D01*
X123477289Y-121335361D01*
X123101303Y-121200830D01*
X123101296Y-121200828D01*
X123101287Y-121200825D01*
X123101285Y-121200825D01*
X122713901Y-121103790D01*
X122684857Y-121099481D01*
X122318881Y-121045194D01*
X122318874Y-121045193D01*
X122318871Y-121045193D01*
X122119435Y-121035395D01*
X121920004Y-121025598D01*
X121919996Y-121025598D01*
X121692073Y-121036795D01*
X121521129Y-121045193D01*
X121521126Y-121045193D01*
X121521118Y-121045194D01*
X121126105Y-121103789D01*
X121126103Y-121103789D01*
X121126099Y-121103790D01*
X120743160Y-121199711D01*
X120738703Y-121200828D01*
X120738696Y-121200830D01*
X120362710Y-121335361D01*
X120001693Y-121506110D01*
X119659156Y-121711418D01*
X119338412Y-121949299D01*
X119338402Y-121949307D01*
X119042497Y-122217497D01*
X118774307Y-122513402D01*
X118774299Y-122513412D01*
X118536418Y-122834156D01*
X118331110Y-123176693D01*
X118160361Y-123537710D01*
X118025830Y-123913696D01*
X118025828Y-123913703D01*
X118025824Y-123913715D01*
X118025825Y-123913715D01*
X117928790Y-124301099D01*
X117928789Y-124301103D01*
X117928789Y-124301105D01*
X117870194Y-124696118D01*
X117870193Y-124696132D01*
X117853657Y-125032739D01*
X117850598Y-125095000D01*
X110503843Y-125095000D01*
X110660106Y-125032739D01*
X110988211Y-124858789D01*
X111295584Y-124650384D01*
X111578623Y-124409969D01*
X111834010Y-124140360D01*
X112058750Y-123844720D01*
X112250208Y-123526514D01*
X112406139Y-123189474D01*
X112524716Y-122837550D01*
X112604549Y-122474869D01*
X112644700Y-122105682D01*
X112644700Y-121734318D01*
X112604549Y-121365131D01*
X112524716Y-121002450D01*
X112406139Y-120650526D01*
X112406134Y-120650514D01*
X112250210Y-120313491D01*
X112250208Y-120313486D01*
X112058750Y-119995280D01*
X111834010Y-119699640D01*
X111834004Y-119699633D01*
X111833997Y-119699625D01*
X111578623Y-119430031D01*
X111295585Y-119189617D01*
X110988208Y-118981209D01*
X110853847Y-118909976D01*
X110660106Y-118807261D01*
X110660098Y-118807258D01*
X110660094Y-118807256D01*
X110315117Y-118669804D01*
X110315114Y-118669803D01*
X109957289Y-118570454D01*
X109590819Y-118510375D01*
X109312782Y-118495300D01*
X109312774Y-118495300D01*
X109127226Y-118495300D01*
X109127218Y-118495300D01*
X108849180Y-118510375D01*
X108482712Y-118570454D01*
X108482709Y-118570454D01*
X108124885Y-118669803D01*
X108124882Y-118669804D01*
X107779905Y-118807256D01*
X107779896Y-118807260D01*
X107451791Y-118981209D01*
X107144414Y-119189617D01*
X106861376Y-119430031D01*
X106606002Y-119699625D01*
X106605989Y-119699641D01*
X106381253Y-119995275D01*
X106381249Y-119995281D01*
X106189793Y-120313484D01*
X106189789Y-120313491D01*
X106033865Y-120650514D01*
X106033860Y-120650526D01*
X105915287Y-121002440D01*
X105915283Y-121002454D01*
X105835453Y-121365118D01*
X105835449Y-121365142D01*
X105795300Y-121734310D01*
X105795300Y-122105689D01*
X100711000Y-122105689D01*
X100711000Y-117602000D01*
X146031864Y-117602000D01*
X146051522Y-117751320D01*
X146109158Y-117890466D01*
X146109163Y-117890474D01*
X146200844Y-118009955D01*
X146320325Y-118101636D01*
X146320332Y-118101641D01*
X146459478Y-118159277D01*
X146534138Y-118169106D01*
X146608799Y-118178936D01*
X146608799Y-118178935D01*
X146608800Y-118178936D01*
X146758122Y-118159277D01*
X146897268Y-118101641D01*
X146934544Y-118073037D01*
X147000763Y-118047437D01*
X147011248Y-118047000D01*
X147781152Y-118047000D01*
X147849273Y-118067002D01*
X147857846Y-118073030D01*
X147895132Y-118101641D01*
X148034278Y-118159277D01*
X148108938Y-118169106D01*
X148183599Y-118178936D01*
X148183599Y-118178935D01*
X148183600Y-118178936D01*
X148332922Y-118159277D01*
X148472068Y-118101641D01*
X148591555Y-118009955D01*
X148683241Y-117890468D01*
X148740877Y-117751322D01*
X148760536Y-117602000D01*
X148740877Y-117452678D01*
X148683241Y-117313532D01*
X148683236Y-117313525D01*
X148591555Y-117194044D01*
X148472074Y-117102363D01*
X148472066Y-117102358D01*
X148332920Y-117044722D01*
X148183600Y-117025064D01*
X148034279Y-117044722D01*
X147895133Y-117102358D01*
X147895129Y-117102361D01*
X147883555Y-117111241D01*
X147857855Y-117130962D01*
X147791637Y-117156563D01*
X147781152Y-117157000D01*
X147011248Y-117157000D01*
X146943127Y-117136998D01*
X146934553Y-117130969D01*
X146897268Y-117102359D01*
X146758122Y-117044723D01*
X146758120Y-117044722D01*
X146608800Y-117025064D01*
X146459479Y-117044722D01*
X146320333Y-117102358D01*
X146320325Y-117102363D01*
X146200844Y-117194044D01*
X146109163Y-117313525D01*
X146109158Y-117313533D01*
X146051522Y-117452679D01*
X146031864Y-117601999D01*
X146031864Y-117602000D01*
X100711000Y-117602000D01*
X100711000Y-104325689D01*
X105795300Y-104325689D01*
X105835449Y-104694857D01*
X105835453Y-104694881D01*
X105915283Y-105057545D01*
X105915287Y-105057559D01*
X106033860Y-105409473D01*
X106033865Y-105409485D01*
X106176544Y-105717879D01*
X106189792Y-105746514D01*
X106381250Y-106064720D01*
X106605990Y-106360360D01*
X106605994Y-106360364D01*
X106606002Y-106360374D01*
X106820630Y-106586953D01*
X106861377Y-106629969D01*
X107144416Y-106870384D01*
X107451789Y-107078789D01*
X107779894Y-107252739D01*
X108094127Y-107377941D01*
X108124882Y-107390195D01*
X108124885Y-107390196D01*
X108179379Y-107405326D01*
X108482709Y-107489545D01*
X108849181Y-107549625D01*
X109039798Y-107559959D01*
X109127218Y-107564700D01*
X109127226Y-107564700D01*
X109312782Y-107564700D01*
X109396895Y-107560139D01*
X109590819Y-107549625D01*
X109957291Y-107489545D01*
X110315118Y-107390195D01*
X110660106Y-107252739D01*
X110988211Y-107078789D01*
X111295584Y-106870384D01*
X111578623Y-106629969D01*
X111778750Y-106418696D01*
X111833997Y-106360374D01*
X111833998Y-106360372D01*
X111834010Y-106360360D01*
X112058750Y-106064720D01*
X112250208Y-105746514D01*
X112405896Y-105410000D01*
X130194932Y-105410000D01*
X130214702Y-105547505D01*
X130272411Y-105673868D01*
X130272411Y-105673869D01*
X130321524Y-105730548D01*
X130351017Y-105795129D01*
X130352300Y-105813061D01*
X130352300Y-108010058D01*
X130352060Y-108015550D01*
X130348476Y-108056524D01*
X130348476Y-108056525D01*
X130359117Y-108096242D01*
X130360307Y-108101610D01*
X130367448Y-108142107D01*
X130369299Y-108147191D01*
X130376377Y-108164279D01*
X130378658Y-108169172D01*
X130402249Y-108202864D01*
X130405200Y-108207495D01*
X130425761Y-108243107D01*
X130448188Y-108261926D01*
X130457270Y-108269546D01*
X130461312Y-108273250D01*
X132163147Y-109975085D01*
X132166851Y-109979128D01*
X132193292Y-110010638D01*
X132193293Y-110010639D01*
X132228910Y-110031202D01*
X132233532Y-110034147D01*
X132267225Y-110057740D01*
X132267230Y-110057741D01*
X132272159Y-110060040D01*
X132289182Y-110067091D01*
X132294288Y-110068950D01*
X132294289Y-110068950D01*
X132294291Y-110068951D01*
X132334804Y-110076093D01*
X132340160Y-110077281D01*
X132379875Y-110087923D01*
X132407035Y-110085546D01*
X132420838Y-110084340D01*
X132426330Y-110084100D01*
X137377078Y-110084100D01*
X137445199Y-110104102D01*
X137466173Y-110121005D01*
X137972968Y-110627800D01*
X138006994Y-110690112D01*
X138008590Y-110698963D01*
X138025815Y-110818765D01*
X138025817Y-110818771D01*
X138083526Y-110945136D01*
X138174499Y-111050125D01*
X138232930Y-111087676D01*
X138291364Y-111125229D01*
X138424656Y-111164367D01*
X138424659Y-111164367D01*
X138563571Y-111164367D01*
X138563574Y-111164367D01*
X138696866Y-111125229D01*
X138813732Y-111050124D01*
X138904704Y-110945136D01*
X138962413Y-110818772D01*
X138982183Y-110681267D01*
X138962413Y-110543762D01*
X138962411Y-110543757D01*
X138959874Y-110535114D01*
X138962582Y-110534318D01*
X138954533Y-110478375D01*
X138984019Y-110413791D01*
X139041487Y-110347469D01*
X139099196Y-110221105D01*
X139118966Y-110083600D01*
X139099196Y-109946095D01*
X139041487Y-109819731D01*
X138950515Y-109714743D01*
X138950514Y-109714742D01*
X138950513Y-109714741D01*
X138833649Y-109639638D01*
X138700362Y-109600501D01*
X138700359Y-109600500D01*
X138700357Y-109600500D01*
X138700354Y-109600500D01*
X138667670Y-109600500D01*
X138599549Y-109580498D01*
X138578575Y-109563596D01*
X138267297Y-109252318D01*
X138263581Y-109248264D01*
X138237147Y-109216761D01*
X138201529Y-109196196D01*
X138196909Y-109193253D01*
X138163214Y-109169660D01*
X138163213Y-109169659D01*
X138163211Y-109169658D01*
X138158319Y-109167377D01*
X138141231Y-109160299D01*
X138136147Y-109158448D01*
X138095650Y-109151307D01*
X138090282Y-109150117D01*
X138050566Y-109139476D01*
X138050565Y-109139476D01*
X138045632Y-109139907D01*
X138009591Y-109143060D01*
X138004099Y-109143300D01*
X136625701Y-109143300D01*
X136557580Y-109123298D01*
X136511087Y-109069642D01*
X136500983Y-108999368D01*
X136530477Y-108934788D01*
X136536591Y-108928219D01*
X137076907Y-108387903D01*
X137080912Y-108384233D01*
X137112439Y-108357780D01*
X137133003Y-108322161D01*
X137135944Y-108317545D01*
X137159540Y-108283847D01*
X137159540Y-108283844D01*
X137161852Y-108278889D01*
X137168878Y-108261926D01*
X137170747Y-108256788D01*
X137170751Y-108256782D01*
X137177894Y-108216262D01*
X137179073Y-108210941D01*
X137189724Y-108171198D01*
X137187179Y-108142107D01*
X137186140Y-108130223D01*
X137185900Y-108124731D01*
X137185900Y-107540261D01*
X137205902Y-107472140D01*
X137216676Y-107457748D01*
X137235040Y-107436555D01*
X137265789Y-107401069D01*
X137323498Y-107274705D01*
X137343268Y-107137200D01*
X137323498Y-106999695D01*
X137265789Y-106873331D01*
X137174817Y-106768343D01*
X137174816Y-106768342D01*
X137174815Y-106768341D01*
X137057952Y-106693238D01*
X136997034Y-106675351D01*
X136937309Y-106636967D01*
X136911637Y-106589951D01*
X136910757Y-106586953D01*
X136906623Y-106577900D01*
X136853049Y-106460591D01*
X136819915Y-106422352D01*
X136790422Y-106357771D01*
X136800526Y-106287497D01*
X136815178Y-106263136D01*
X136861037Y-106203371D01*
X136897641Y-106155668D01*
X136955277Y-106016522D01*
X136974936Y-105867200D01*
X136955277Y-105717878D01*
X136897641Y-105578732D01*
X136873679Y-105547504D01*
X136805955Y-105459244D01*
X136686474Y-105367563D01*
X136686466Y-105367558D01*
X136547320Y-105309922D01*
X136398000Y-105290264D01*
X136248679Y-105309922D01*
X136109533Y-105367558D01*
X136109525Y-105367563D01*
X135990044Y-105459244D01*
X135898363Y-105578725D01*
X135898358Y-105578733D01*
X135840722Y-105717879D01*
X135821064Y-105867199D01*
X135821064Y-105867206D01*
X135821485Y-105870406D01*
X135821064Y-105873104D01*
X135821064Y-105875458D01*
X135820697Y-105875458D01*
X135810541Y-105940554D01*
X135785658Y-105975938D01*
X135673553Y-106088044D01*
X135653377Y-106104429D01*
X135645487Y-106109584D01*
X135645484Y-106109586D01*
X135624967Y-106135946D01*
X135619802Y-106141795D01*
X135617337Y-106144260D01*
X135604463Y-106162289D01*
X135572489Y-106203371D01*
X135568921Y-106209962D01*
X135565659Y-106216637D01*
X135550800Y-106266547D01*
X135533899Y-106315779D01*
X135532672Y-106323133D01*
X135531747Y-106330546D01*
X135533900Y-106382567D01*
X135533900Y-107750307D01*
X135513898Y-107818428D01*
X135496996Y-107839402D01*
X135271404Y-108064995D01*
X135209091Y-108099020D01*
X135182308Y-108101900D01*
X135000500Y-108101900D01*
X134932379Y-108081898D01*
X134885886Y-108028242D01*
X134874500Y-107975900D01*
X134874500Y-107436555D01*
X134885887Y-107384212D01*
X134888751Y-107377941D01*
X134935898Y-107274705D01*
X134955668Y-107137200D01*
X134935898Y-106999695D01*
X134878189Y-106873331D01*
X134787217Y-106768343D01*
X134787216Y-106768342D01*
X134787215Y-106768341D01*
X134670351Y-106693238D01*
X134537064Y-106654101D01*
X134537061Y-106654100D01*
X134537059Y-106654100D01*
X134398141Y-106654100D01*
X134398139Y-106654100D01*
X134398135Y-106654101D01*
X134264848Y-106693238D01*
X134147984Y-106768341D01*
X134057011Y-106873330D01*
X133999301Y-106999695D01*
X133999302Y-106999695D01*
X133979532Y-107137200D01*
X133999302Y-107274705D01*
X134057011Y-107401069D01*
X134131525Y-107487063D01*
X134161017Y-107551642D01*
X134162300Y-107569574D01*
X134162300Y-108255599D01*
X134159618Y-108281456D01*
X134157683Y-108290680D01*
X134159843Y-108308005D01*
X134161816Y-108323833D01*
X134162300Y-108331623D01*
X134162300Y-108335108D01*
X134165033Y-108351491D01*
X134165945Y-108356954D01*
X134172384Y-108408612D01*
X134174514Y-108415767D01*
X134174517Y-108415776D01*
X134174520Y-108415787D01*
X134175134Y-108417574D01*
X134175148Y-108417897D01*
X134175365Y-108418624D01*
X134175364Y-108418624D01*
X134176177Y-108421355D01*
X134177872Y-108428580D01*
X134178527Y-108432363D01*
X134175824Y-108432831D01*
X134178343Y-108488498D01*
X134142698Y-108549898D01*
X134079516Y-108582280D01*
X134055966Y-108584500D01*
X133894770Y-108584500D01*
X133826649Y-108564498D01*
X133805675Y-108547595D01*
X133058345Y-107800265D01*
X133024319Y-107737953D01*
X133022728Y-107729136D01*
X133005498Y-107609295D01*
X132947789Y-107482931D01*
X132856817Y-107377943D01*
X132856816Y-107377942D01*
X132856815Y-107377941D01*
X132739951Y-107302838D01*
X132606664Y-107263701D01*
X132606661Y-107263700D01*
X132606659Y-107263700D01*
X132560231Y-107263700D01*
X132492110Y-107243698D01*
X132445617Y-107190042D01*
X132435513Y-107119769D01*
X132443963Y-107061000D01*
X132424193Y-106923495D01*
X132366484Y-106797131D01*
X132275512Y-106692143D01*
X132275511Y-106692142D01*
X132275510Y-106692141D01*
X132158646Y-106617038D01*
X132025359Y-106577901D01*
X132025356Y-106577900D01*
X132025354Y-106577900D01*
X131886436Y-106577900D01*
X131886434Y-106577900D01*
X131886430Y-106577901D01*
X131753143Y-106617038D01*
X131636279Y-106692141D01*
X131545306Y-106797130D01*
X131545306Y-106797131D01*
X131487597Y-106923495D01*
X131467827Y-107061000D01*
X131487597Y-107198505D01*
X131535245Y-107302838D01*
X131545306Y-107324869D01*
X131594419Y-107381548D01*
X131623912Y-107446129D01*
X131625195Y-107464061D01*
X131625195Y-107469989D01*
X131605193Y-107538110D01*
X131551537Y-107584603D01*
X131481263Y-107594707D01*
X131463697Y-107590885D01*
X131387464Y-107568501D01*
X131387461Y-107568500D01*
X131387459Y-107568500D01*
X131248541Y-107568500D01*
X131248539Y-107568500D01*
X131248535Y-107568501D01*
X131175198Y-107590035D01*
X131104202Y-107590035D01*
X131044475Y-107551651D01*
X131014982Y-107487070D01*
X131013700Y-107469139D01*
X131013700Y-105813061D01*
X131033702Y-105744940D01*
X131044476Y-105730548D01*
X131055454Y-105717879D01*
X131093589Y-105673869D01*
X131151298Y-105547505D01*
X131171068Y-105410000D01*
X131151298Y-105272495D01*
X131093589Y-105146131D01*
X131002617Y-105041143D01*
X131002616Y-105041142D01*
X131002615Y-105041141D01*
X130885751Y-104966038D01*
X130752464Y-104926901D01*
X130752461Y-104926900D01*
X130752459Y-104926900D01*
X130613541Y-104926900D01*
X130613539Y-104926900D01*
X130613535Y-104926901D01*
X130480248Y-104966038D01*
X130363384Y-105041141D01*
X130272411Y-105146130D01*
X130214702Y-105272495D01*
X130195008Y-105409474D01*
X130194932Y-105410000D01*
X112405896Y-105410000D01*
X112406139Y-105409474D01*
X112524716Y-105057550D01*
X112604549Y-104694869D01*
X112644699Y-104325689D01*
X159135300Y-104325689D01*
X159175449Y-104694857D01*
X159175453Y-104694881D01*
X159255283Y-105057545D01*
X159255287Y-105057559D01*
X159373860Y-105409473D01*
X159373865Y-105409485D01*
X159516544Y-105717879D01*
X159529792Y-105746514D01*
X159721250Y-106064720D01*
X159945990Y-106360360D01*
X159945994Y-106360364D01*
X159946002Y-106360374D01*
X160160630Y-106586953D01*
X160201377Y-106629969D01*
X160484416Y-106870384D01*
X160791789Y-107078789D01*
X161119894Y-107252739D01*
X161434127Y-107377941D01*
X161464882Y-107390195D01*
X161464885Y-107390196D01*
X161519379Y-107405326D01*
X161822709Y-107489545D01*
X162189181Y-107549625D01*
X162379798Y-107559959D01*
X162467218Y-107564700D01*
X162467226Y-107564700D01*
X162652782Y-107564700D01*
X162736895Y-107560139D01*
X162930819Y-107549625D01*
X163297291Y-107489545D01*
X163655118Y-107390195D01*
X164000106Y-107252739D01*
X164328211Y-107078789D01*
X164635584Y-106870384D01*
X164918623Y-106629969D01*
X165118750Y-106418696D01*
X165173997Y-106360374D01*
X165173998Y-106360372D01*
X165174010Y-106360360D01*
X165398750Y-106064720D01*
X165590208Y-105746514D01*
X165746139Y-105409474D01*
X165864716Y-105057550D01*
X165944549Y-104694869D01*
X165984700Y-104325682D01*
X165984700Y-103954318D01*
X165944549Y-103585131D01*
X165864716Y-103222450D01*
X165746139Y-102870526D01*
X165746134Y-102870514D01*
X165590210Y-102533491D01*
X165590208Y-102533486D01*
X165398750Y-102215280D01*
X165174010Y-101919640D01*
X165174004Y-101919633D01*
X165173997Y-101919625D01*
X164918623Y-101650031D01*
X164635585Y-101409617D01*
X164328208Y-101201209D01*
X164193848Y-101129976D01*
X164000106Y-101027261D01*
X164000098Y-101027258D01*
X164000094Y-101027256D01*
X163655117Y-100889804D01*
X163655114Y-100889803D01*
X163297289Y-100790454D01*
X162930819Y-100730375D01*
X162652782Y-100715300D01*
X162652774Y-100715300D01*
X162467226Y-100715300D01*
X162467218Y-100715300D01*
X162189180Y-100730375D01*
X161822712Y-100790454D01*
X161822709Y-100790454D01*
X161464885Y-100889803D01*
X161464882Y-100889804D01*
X161119905Y-101027256D01*
X161119896Y-101027260D01*
X160791791Y-101201209D01*
X160484414Y-101409617D01*
X160201376Y-101650031D01*
X159946002Y-101919625D01*
X159945989Y-101919641D01*
X159721253Y-102215275D01*
X159721249Y-102215281D01*
X159529793Y-102533484D01*
X159529789Y-102533491D01*
X159373865Y-102870514D01*
X159373860Y-102870526D01*
X159255287Y-103222440D01*
X159255283Y-103222454D01*
X159175453Y-103585118D01*
X159175449Y-103585142D01*
X159135300Y-103954310D01*
X159135300Y-104325689D01*
X112644699Y-104325689D01*
X112644700Y-104325682D01*
X112644700Y-103954318D01*
X112604549Y-103585131D01*
X112524716Y-103222450D01*
X112406139Y-102870526D01*
X112406134Y-102870514D01*
X112250210Y-102533491D01*
X112250208Y-102533486D01*
X112195637Y-102442789D01*
X145219064Y-102442789D01*
X145238722Y-102592109D01*
X145296358Y-102731255D01*
X145296363Y-102731263D01*
X145388044Y-102850744D01*
X145484418Y-102924694D01*
X145507532Y-102942430D01*
X145646678Y-103000066D01*
X145796000Y-103019725D01*
X145945322Y-103000066D01*
X146084468Y-102942430D01*
X146121744Y-102913826D01*
X146187963Y-102888226D01*
X146198448Y-102887789D01*
X153768274Y-102887789D01*
X153836395Y-102907791D01*
X153857369Y-102924694D01*
X154467762Y-103535087D01*
X154501788Y-103597399D01*
X154503589Y-103607734D01*
X154509723Y-103654322D01*
X154557469Y-103769592D01*
X154567358Y-103793466D01*
X154567363Y-103793474D01*
X154659044Y-103912955D01*
X154778525Y-104004636D01*
X154778532Y-104004641D01*
X154917678Y-104062277D01*
X154992339Y-104072106D01*
X155066999Y-104081936D01*
X155066999Y-104081935D01*
X155067000Y-104081936D01*
X155216322Y-104062277D01*
X155355468Y-104004641D01*
X155474955Y-103912955D01*
X155566641Y-103793468D01*
X155624277Y-103654322D01*
X155643936Y-103505000D01*
X155624277Y-103355678D01*
X155566641Y-103216532D01*
X155566636Y-103216525D01*
X155474955Y-103097044D01*
X155355474Y-103005363D01*
X155355466Y-103005358D01*
X155331592Y-102995469D01*
X155216322Y-102947723D01*
X155199016Y-102945444D01*
X155169734Y-102941589D01*
X155104807Y-102912865D01*
X155097087Y-102905762D01*
X154724809Y-102533484D01*
X154339617Y-102148292D01*
X154334914Y-102143030D01*
X154310884Y-102112897D01*
X154262360Y-102079813D01*
X154215073Y-102044913D01*
X154207668Y-102040999D01*
X154200047Y-102037329D01*
X154177100Y-102030251D01*
X154143919Y-102020016D01*
X154088454Y-102000608D01*
X154088453Y-102000607D01*
X154088451Y-102000607D01*
X154080192Y-101999044D01*
X154071862Y-101997789D01*
X154013102Y-101997789D01*
X153954401Y-101995592D01*
X153945018Y-101996650D01*
X153944919Y-101995774D01*
X153929618Y-101997789D01*
X146198448Y-101997789D01*
X146130327Y-101977787D01*
X146121753Y-101971758D01*
X146084468Y-101943148D01*
X146027679Y-101919625D01*
X145945320Y-101885511D01*
X145796000Y-101865853D01*
X145646679Y-101885511D01*
X145507533Y-101943147D01*
X145507525Y-101943152D01*
X145388044Y-102034833D01*
X145296363Y-102154314D01*
X145296358Y-102154322D01*
X145238722Y-102293468D01*
X145219064Y-102442788D01*
X145219064Y-102442789D01*
X112195637Y-102442789D01*
X112058750Y-102215280D01*
X111834010Y-101919640D01*
X111834004Y-101919633D01*
X111833997Y-101919625D01*
X111578623Y-101650031D01*
X111295585Y-101409617D01*
X110988208Y-101201209D01*
X110853847Y-101129976D01*
X110660106Y-101027261D01*
X110660098Y-101027258D01*
X110660094Y-101027256D01*
X110315117Y-100889804D01*
X110315114Y-100889803D01*
X109957289Y-100790454D01*
X109590819Y-100730375D01*
X109312782Y-100715300D01*
X109312774Y-100715300D01*
X109127226Y-100715300D01*
X109127218Y-100715300D01*
X108849180Y-100730375D01*
X108482712Y-100790454D01*
X108482709Y-100790454D01*
X108124885Y-100889803D01*
X108124882Y-100889804D01*
X107779905Y-101027256D01*
X107779896Y-101027260D01*
X107451791Y-101201209D01*
X107144414Y-101409617D01*
X106861376Y-101650031D01*
X106606002Y-101919625D01*
X106605989Y-101919641D01*
X106381253Y-102215275D01*
X106381249Y-102215281D01*
X106189793Y-102533484D01*
X106189789Y-102533491D01*
X106033865Y-102870514D01*
X106033860Y-102870526D01*
X105915287Y-103222440D01*
X105915283Y-103222454D01*
X105835453Y-103585118D01*
X105835449Y-103585142D01*
X105795300Y-103954310D01*
X105795300Y-104325689D01*
X100711000Y-104325689D01*
X100711000Y-96646000D01*
X100731002Y-96577879D01*
X100784658Y-96531386D01*
X100837000Y-96520000D01*
X171069500Y-96520000D01*
X171137621Y-96540002D01*
G37*
%TD.AperFunction*%
%TD*%
M02*
