%TF.GenerationSoftware,KiCad,Pcbnew,7.0.6-1.fc38*%
%TF.CreationDate,2023-08-24T18:59:34-07:00*%
%TF.ProjectId,s3gta_panel,73336774-615f-4706-916e-656c2e6b6963,rev?*%
%TF.SameCoordinates,Original*%
%TF.FileFunction,Soldermask,Bot*%
%TF.FilePolarity,Negative*%
%FSLAX46Y46*%
G04 Gerber Fmt 4.6, Leading zero omitted, Abs format (unit mm)*
G04 Created by KiCad (PCBNEW 7.0.6-1.fc38) date 2023-08-24 18:59:34*
%MOMM*%
%LPD*%
G01*
G04 APERTURE LIST*
G04 Aperture macros list*
%AMRoundRect*
0 Rectangle with rounded corners*
0 $1 Rounding radius*
0 $2 $3 $4 $5 $6 $7 $8 $9 X,Y pos of 4 corners*
0 Add a 4 corners polygon primitive as box body*
4,1,4,$2,$3,$4,$5,$6,$7,$8,$9,$2,$3,0*
0 Add four circle primitives for the rounded corners*
1,1,$1+$1,$2,$3*
1,1,$1+$1,$4,$5*
1,1,$1+$1,$6,$7*
1,1,$1+$1,$8,$9*
0 Add four rect primitives between the rounded corners*
20,1,$1+$1,$2,$3,$4,$5,0*
20,1,$1+$1,$4,$5,$6,$7,0*
20,1,$1+$1,$6,$7,$8,$9,0*
20,1,$1+$1,$8,$9,$2,$3,0*%
G04 Aperture macros list end*
%ADD10C,0.010000*%
%ADD11C,3.200000*%
%ADD12C,7.620000*%
%ADD13C,6.248400*%
%ADD14C,6.477000*%
%ADD15R,0.450000X1.750000*%
%ADD16RoundRect,0.225000X-0.225000X-0.250000X0.225000X-0.250000X0.225000X0.250000X-0.225000X0.250000X0*%
%ADD17R,2.500000X1.000000*%
%ADD18R,0.350000X2.500000*%
%ADD19RoundRect,0.250000X-0.250000X-0.475000X0.250000X-0.475000X0.250000X0.475000X-0.250000X0.475000X0*%
%ADD20RoundRect,0.200000X0.200000X0.275000X-0.200000X0.275000X-0.200000X-0.275000X0.200000X-0.275000X0*%
%ADD21RoundRect,0.225000X0.250000X-0.225000X0.250000X0.225000X-0.250000X0.225000X-0.250000X-0.225000X0*%
%ADD22C,0.500000*%
%ADD23R,3.150000X1.000000*%
%ADD24RoundRect,0.225000X0.225000X0.250000X-0.225000X0.250000X-0.225000X-0.250000X0.225000X-0.250000X0*%
%ADD25R,1.800000X1.200000*%
%ADD26R,1.550000X0.600000*%
%ADD27RoundRect,0.225000X-0.250000X0.225000X-0.250000X-0.225000X0.250000X-0.225000X0.250000X0.225000X0*%
%ADD28RoundRect,0.250000X0.250000X0.475000X-0.250000X0.475000X-0.250000X-0.475000X0.250000X-0.475000X0*%
%ADD29RoundRect,0.250000X0.475000X-0.250000X0.475000X0.250000X-0.475000X0.250000X-0.475000X-0.250000X0*%
%ADD30RoundRect,0.200000X-0.200000X-0.275000X0.200000X-0.275000X0.200000X0.275000X-0.200000X0.275000X0*%
%ADD31R,4.100000X4.100000*%
%ADD32R,0.900000X1.000000*%
%ADD33R,1.650000X0.400000*%
%ADD34O,1.700000X1.200000*%
%ADD35O,1.500000X1.100000*%
%ADD36R,2.500000X1.430000*%
%ADD37R,1.400000X1.200000*%
%ADD38RoundRect,0.200000X-0.275000X0.200000X-0.275000X-0.200000X0.275000X-0.200000X0.275000X0.200000X0*%
G04 APERTURE END LIST*
%TO.C,U1*%
D10*
X139686000Y-114570800D02*
X138936000Y-114570800D01*
X138936000Y-114250800D01*
X139686000Y-114250800D01*
X139686000Y-114570800D01*
G36*
X139686000Y-114570800D02*
G01*
X138936000Y-114570800D01*
X138936000Y-114250800D01*
X139686000Y-114250800D01*
X139686000Y-114570800D01*
G37*
X139686000Y-114170800D02*
X138936000Y-114170800D01*
X138936000Y-113850800D01*
X139686000Y-113850800D01*
X139686000Y-114170800D01*
G36*
X139686000Y-114170800D02*
G01*
X138936000Y-114170800D01*
X138936000Y-113850800D01*
X139686000Y-113850800D01*
X139686000Y-114170800D01*
G37*
X139686000Y-113770800D02*
X138936000Y-113770800D01*
X138936000Y-113450800D01*
X139686000Y-113450800D01*
X139686000Y-113770800D01*
G36*
X139686000Y-113770800D02*
G01*
X138936000Y-113770800D01*
X138936000Y-113450800D01*
X139686000Y-113450800D01*
X139686000Y-113770800D01*
G37*
X139686000Y-113370800D02*
X138936000Y-113370800D01*
X138936000Y-113050800D01*
X139686000Y-113050800D01*
X139686000Y-113370800D01*
G36*
X139686000Y-113370800D02*
G01*
X138936000Y-113370800D01*
X138936000Y-113050800D01*
X139686000Y-113050800D01*
X139686000Y-113370800D01*
G37*
X139686000Y-112970800D02*
X138936000Y-112970800D01*
X138936000Y-112650800D01*
X139686000Y-112650800D01*
X139686000Y-112970800D01*
G36*
X139686000Y-112970800D02*
G01*
X138936000Y-112970800D01*
X138936000Y-112650800D01*
X139686000Y-112650800D01*
X139686000Y-112970800D01*
G37*
X139686000Y-112570800D02*
X138936000Y-112570800D01*
X138936000Y-112250800D01*
X139686000Y-112250800D01*
X139686000Y-112570800D01*
G36*
X139686000Y-112570800D02*
G01*
X138936000Y-112570800D01*
X138936000Y-112250800D01*
X139686000Y-112250800D01*
X139686000Y-112570800D01*
G37*
X139686000Y-112170800D02*
X138936000Y-112170800D01*
X138936000Y-111850800D01*
X139686000Y-111850800D01*
X139686000Y-112170800D01*
G36*
X139686000Y-112170800D02*
G01*
X138936000Y-112170800D01*
X138936000Y-111850800D01*
X139686000Y-111850800D01*
X139686000Y-112170800D01*
G37*
X139686000Y-111770800D02*
X138936000Y-111770800D01*
X138936000Y-111450800D01*
X139686000Y-111450800D01*
X139686000Y-111770800D01*
G36*
X139686000Y-111770800D02*
G01*
X138936000Y-111770800D01*
X138936000Y-111450800D01*
X139686000Y-111450800D01*
X139686000Y-111770800D01*
G37*
X139686000Y-111370800D02*
X138936000Y-111370800D01*
X138936000Y-111050800D01*
X139686000Y-111050800D01*
X139686000Y-111370800D01*
G36*
X139686000Y-111370800D02*
G01*
X138936000Y-111370800D01*
X138936000Y-111050800D01*
X139686000Y-111050800D01*
X139686000Y-111370800D01*
G37*
X139686000Y-110970800D02*
X138936000Y-110970800D01*
X138936000Y-110650800D01*
X139686000Y-110650800D01*
X139686000Y-110970800D01*
G36*
X139686000Y-110970800D02*
G01*
X138936000Y-110970800D01*
X138936000Y-110650800D01*
X139686000Y-110650800D01*
X139686000Y-110970800D01*
G37*
X139686000Y-110570800D02*
X138936000Y-110570800D01*
X138936000Y-110250800D01*
X139686000Y-110250800D01*
X139686000Y-110570800D01*
G36*
X139686000Y-110570800D02*
G01*
X138936000Y-110570800D01*
X138936000Y-110250800D01*
X139686000Y-110250800D01*
X139686000Y-110570800D01*
G37*
X139686000Y-110170800D02*
X138936000Y-110170800D01*
X138936000Y-109850800D01*
X139686000Y-109850800D01*
X139686000Y-110170800D01*
G36*
X139686000Y-110170800D02*
G01*
X138936000Y-110170800D01*
X138936000Y-109850800D01*
X139686000Y-109850800D01*
X139686000Y-110170800D01*
G37*
X139686000Y-109770800D02*
X138936000Y-109770800D01*
X138936000Y-109450800D01*
X139686000Y-109450800D01*
X139686000Y-109770800D01*
G36*
X139686000Y-109770800D02*
G01*
X138936000Y-109770800D01*
X138936000Y-109450800D01*
X139686000Y-109450800D01*
X139686000Y-109770800D01*
G37*
X139686000Y-109370800D02*
X138936000Y-109370800D01*
X138936000Y-109050800D01*
X139686000Y-109050800D01*
X139686000Y-109370800D01*
G36*
X139686000Y-109370800D02*
G01*
X138936000Y-109370800D01*
X138936000Y-109050800D01*
X139686000Y-109050800D01*
X139686000Y-109370800D01*
G37*
X138646000Y-115610800D02*
X138326000Y-115610800D01*
X138326000Y-114860800D01*
X138646000Y-114860800D01*
X138646000Y-115610800D01*
G36*
X138646000Y-115610800D02*
G01*
X138326000Y-115610800D01*
X138326000Y-114860800D01*
X138646000Y-114860800D01*
X138646000Y-115610800D01*
G37*
X138646000Y-108760800D02*
X138326000Y-108760800D01*
X138326000Y-108010800D01*
X138646000Y-108010800D01*
X138646000Y-108760800D01*
G36*
X138646000Y-108760800D02*
G01*
X138326000Y-108760800D01*
X138326000Y-108010800D01*
X138646000Y-108010800D01*
X138646000Y-108760800D01*
G37*
X138246000Y-115610800D02*
X137926000Y-115610800D01*
X137926000Y-114860800D01*
X138246000Y-114860800D01*
X138246000Y-115610800D01*
G36*
X138246000Y-115610800D02*
G01*
X137926000Y-115610800D01*
X137926000Y-114860800D01*
X138246000Y-114860800D01*
X138246000Y-115610800D01*
G37*
X138246000Y-108760800D02*
X137926000Y-108760800D01*
X137926000Y-108010800D01*
X138246000Y-108010800D01*
X138246000Y-108760800D01*
G36*
X138246000Y-108760800D02*
G01*
X137926000Y-108760800D01*
X137926000Y-108010800D01*
X138246000Y-108010800D01*
X138246000Y-108760800D01*
G37*
X137846000Y-115610800D02*
X137526000Y-115610800D01*
X137526000Y-114860800D01*
X137846000Y-114860800D01*
X137846000Y-115610800D01*
G36*
X137846000Y-115610800D02*
G01*
X137526000Y-115610800D01*
X137526000Y-114860800D01*
X137846000Y-114860800D01*
X137846000Y-115610800D01*
G37*
X137846000Y-108760800D02*
X137526000Y-108760800D01*
X137526000Y-108010800D01*
X137846000Y-108010800D01*
X137846000Y-108760800D01*
G36*
X137846000Y-108760800D02*
G01*
X137526000Y-108760800D01*
X137526000Y-108010800D01*
X137846000Y-108010800D01*
X137846000Y-108760800D01*
G37*
X137446000Y-115610800D02*
X137126000Y-115610800D01*
X137126000Y-114860800D01*
X137446000Y-114860800D01*
X137446000Y-115610800D01*
G36*
X137446000Y-115610800D02*
G01*
X137126000Y-115610800D01*
X137126000Y-114860800D01*
X137446000Y-114860800D01*
X137446000Y-115610800D01*
G37*
X137446000Y-108760800D02*
X137126000Y-108760800D01*
X137126000Y-108010800D01*
X137446000Y-108010800D01*
X137446000Y-108760800D01*
G36*
X137446000Y-108760800D02*
G01*
X137126000Y-108760800D01*
X137126000Y-108010800D01*
X137446000Y-108010800D01*
X137446000Y-108760800D01*
G37*
X137046000Y-115610800D02*
X136726000Y-115610800D01*
X136726000Y-114860800D01*
X137046000Y-114860800D01*
X137046000Y-115610800D01*
G36*
X137046000Y-115610800D02*
G01*
X136726000Y-115610800D01*
X136726000Y-114860800D01*
X137046000Y-114860800D01*
X137046000Y-115610800D01*
G37*
X137046000Y-108760800D02*
X136726000Y-108760800D01*
X136726000Y-108010800D01*
X137046000Y-108010800D01*
X137046000Y-108760800D01*
G36*
X137046000Y-108760800D02*
G01*
X136726000Y-108760800D01*
X136726000Y-108010800D01*
X137046000Y-108010800D01*
X137046000Y-108760800D01*
G37*
X136646000Y-115610800D02*
X136326000Y-115610800D01*
X136326000Y-114860800D01*
X136646000Y-114860800D01*
X136646000Y-115610800D01*
G36*
X136646000Y-115610800D02*
G01*
X136326000Y-115610800D01*
X136326000Y-114860800D01*
X136646000Y-114860800D01*
X136646000Y-115610800D01*
G37*
X136646000Y-108760800D02*
X136326000Y-108760800D01*
X136326000Y-108010800D01*
X136646000Y-108010800D01*
X136646000Y-108760800D01*
G36*
X136646000Y-108760800D02*
G01*
X136326000Y-108760800D01*
X136326000Y-108010800D01*
X136646000Y-108010800D01*
X136646000Y-108760800D01*
G37*
X136246000Y-115610800D02*
X135926000Y-115610800D01*
X135926000Y-114860800D01*
X136246000Y-114860800D01*
X136246000Y-115610800D01*
G36*
X136246000Y-115610800D02*
G01*
X135926000Y-115610800D01*
X135926000Y-114860800D01*
X136246000Y-114860800D01*
X136246000Y-115610800D01*
G37*
X136246000Y-108760800D02*
X135926000Y-108760800D01*
X135926000Y-108010800D01*
X136246000Y-108010800D01*
X136246000Y-108760800D01*
G36*
X136246000Y-108760800D02*
G01*
X135926000Y-108760800D01*
X135926000Y-108010800D01*
X136246000Y-108010800D01*
X136246000Y-108760800D01*
G37*
X135846000Y-115610800D02*
X135526000Y-115610800D01*
X135526000Y-114860800D01*
X135846000Y-114860800D01*
X135846000Y-115610800D01*
G36*
X135846000Y-115610800D02*
G01*
X135526000Y-115610800D01*
X135526000Y-114860800D01*
X135846000Y-114860800D01*
X135846000Y-115610800D01*
G37*
X135846000Y-108760800D02*
X135526000Y-108760800D01*
X135526000Y-108010800D01*
X135846000Y-108010800D01*
X135846000Y-108760800D01*
G36*
X135846000Y-108760800D02*
G01*
X135526000Y-108760800D01*
X135526000Y-108010800D01*
X135846000Y-108010800D01*
X135846000Y-108760800D01*
G37*
X135446000Y-115610800D02*
X135126000Y-115610800D01*
X135126000Y-114860800D01*
X135446000Y-114860800D01*
X135446000Y-115610800D01*
G36*
X135446000Y-115610800D02*
G01*
X135126000Y-115610800D01*
X135126000Y-114860800D01*
X135446000Y-114860800D01*
X135446000Y-115610800D01*
G37*
X135446000Y-108760800D02*
X135126000Y-108760800D01*
X135126000Y-108010800D01*
X135446000Y-108010800D01*
X135446000Y-108760800D01*
G36*
X135446000Y-108760800D02*
G01*
X135126000Y-108760800D01*
X135126000Y-108010800D01*
X135446000Y-108010800D01*
X135446000Y-108760800D01*
G37*
X135046000Y-115610800D02*
X134726000Y-115610800D01*
X134726000Y-114860800D01*
X135046000Y-114860800D01*
X135046000Y-115610800D01*
G36*
X135046000Y-115610800D02*
G01*
X134726000Y-115610800D01*
X134726000Y-114860800D01*
X135046000Y-114860800D01*
X135046000Y-115610800D01*
G37*
X135046000Y-108760800D02*
X134726000Y-108760800D01*
X134726000Y-108010800D01*
X135046000Y-108010800D01*
X135046000Y-108760800D01*
G36*
X135046000Y-108760800D02*
G01*
X134726000Y-108760800D01*
X134726000Y-108010800D01*
X135046000Y-108010800D01*
X135046000Y-108760800D01*
G37*
X134646000Y-115610800D02*
X134326000Y-115610800D01*
X134326000Y-114860800D01*
X134646000Y-114860800D01*
X134646000Y-115610800D01*
G36*
X134646000Y-115610800D02*
G01*
X134326000Y-115610800D01*
X134326000Y-114860800D01*
X134646000Y-114860800D01*
X134646000Y-115610800D01*
G37*
X134646000Y-108760800D02*
X134326000Y-108760800D01*
X134326000Y-108010800D01*
X134646000Y-108010800D01*
X134646000Y-108760800D01*
G36*
X134646000Y-108760800D02*
G01*
X134326000Y-108760800D01*
X134326000Y-108010800D01*
X134646000Y-108010800D01*
X134646000Y-108760800D01*
G37*
X134246000Y-115610800D02*
X133926000Y-115610800D01*
X133926000Y-114860800D01*
X134246000Y-114860800D01*
X134246000Y-115610800D01*
G36*
X134246000Y-115610800D02*
G01*
X133926000Y-115610800D01*
X133926000Y-114860800D01*
X134246000Y-114860800D01*
X134246000Y-115610800D01*
G37*
X134246000Y-108760800D02*
X133926000Y-108760800D01*
X133926000Y-108010800D01*
X134246000Y-108010800D01*
X134246000Y-108760800D01*
G36*
X134246000Y-108760800D02*
G01*
X133926000Y-108760800D01*
X133926000Y-108010800D01*
X134246000Y-108010800D01*
X134246000Y-108760800D01*
G37*
X133846000Y-115610800D02*
X133526000Y-115610800D01*
X133526000Y-114860800D01*
X133846000Y-114860800D01*
X133846000Y-115610800D01*
G36*
X133846000Y-115610800D02*
G01*
X133526000Y-115610800D01*
X133526000Y-114860800D01*
X133846000Y-114860800D01*
X133846000Y-115610800D01*
G37*
X133846000Y-108760800D02*
X133526000Y-108760800D01*
X133526000Y-108010800D01*
X133846000Y-108010800D01*
X133846000Y-108760800D01*
G36*
X133846000Y-108760800D02*
G01*
X133526000Y-108760800D01*
X133526000Y-108010800D01*
X133846000Y-108010800D01*
X133846000Y-108760800D01*
G37*
X133446000Y-115610800D02*
X133126000Y-115610800D01*
X133126000Y-114860800D01*
X133446000Y-114860800D01*
X133446000Y-115610800D01*
G36*
X133446000Y-115610800D02*
G01*
X133126000Y-115610800D01*
X133126000Y-114860800D01*
X133446000Y-114860800D01*
X133446000Y-115610800D01*
G37*
X133446000Y-108760800D02*
X133126000Y-108760800D01*
X133126000Y-108010800D01*
X133446000Y-108010800D01*
X133446000Y-108760800D01*
G36*
X133446000Y-108760800D02*
G01*
X133126000Y-108760800D01*
X133126000Y-108010800D01*
X133446000Y-108010800D01*
X133446000Y-108760800D01*
G37*
X132836000Y-114570800D02*
X132086000Y-114570800D01*
X132086000Y-114250800D01*
X132836000Y-114250800D01*
X132836000Y-114570800D01*
G36*
X132836000Y-114570800D02*
G01*
X132086000Y-114570800D01*
X132086000Y-114250800D01*
X132836000Y-114250800D01*
X132836000Y-114570800D01*
G37*
X132836000Y-114170800D02*
X132086000Y-114170800D01*
X132086000Y-113850800D01*
X132836000Y-113850800D01*
X132836000Y-114170800D01*
G36*
X132836000Y-114170800D02*
G01*
X132086000Y-114170800D01*
X132086000Y-113850800D01*
X132836000Y-113850800D01*
X132836000Y-114170800D01*
G37*
X132836000Y-113770800D02*
X132086000Y-113770800D01*
X132086000Y-113450800D01*
X132836000Y-113450800D01*
X132836000Y-113770800D01*
G36*
X132836000Y-113770800D02*
G01*
X132086000Y-113770800D01*
X132086000Y-113450800D01*
X132836000Y-113450800D01*
X132836000Y-113770800D01*
G37*
X132836000Y-113370800D02*
X132086000Y-113370800D01*
X132086000Y-113050800D01*
X132836000Y-113050800D01*
X132836000Y-113370800D01*
G36*
X132836000Y-113370800D02*
G01*
X132086000Y-113370800D01*
X132086000Y-113050800D01*
X132836000Y-113050800D01*
X132836000Y-113370800D01*
G37*
X132836000Y-112970800D02*
X132086000Y-112970800D01*
X132086000Y-112650800D01*
X132836000Y-112650800D01*
X132836000Y-112970800D01*
G36*
X132836000Y-112970800D02*
G01*
X132086000Y-112970800D01*
X132086000Y-112650800D01*
X132836000Y-112650800D01*
X132836000Y-112970800D01*
G37*
X132836000Y-112570800D02*
X132086000Y-112570800D01*
X132086000Y-112250800D01*
X132836000Y-112250800D01*
X132836000Y-112570800D01*
G36*
X132836000Y-112570800D02*
G01*
X132086000Y-112570800D01*
X132086000Y-112250800D01*
X132836000Y-112250800D01*
X132836000Y-112570800D01*
G37*
X132836000Y-112170800D02*
X132086000Y-112170800D01*
X132086000Y-111850800D01*
X132836000Y-111850800D01*
X132836000Y-112170800D01*
G36*
X132836000Y-112170800D02*
G01*
X132086000Y-112170800D01*
X132086000Y-111850800D01*
X132836000Y-111850800D01*
X132836000Y-112170800D01*
G37*
X132836000Y-111770800D02*
X132086000Y-111770800D01*
X132086000Y-111450800D01*
X132836000Y-111450800D01*
X132836000Y-111770800D01*
G36*
X132836000Y-111770800D02*
G01*
X132086000Y-111770800D01*
X132086000Y-111450800D01*
X132836000Y-111450800D01*
X132836000Y-111770800D01*
G37*
X132836000Y-111370800D02*
X132086000Y-111370800D01*
X132086000Y-111050800D01*
X132836000Y-111050800D01*
X132836000Y-111370800D01*
G36*
X132836000Y-111370800D02*
G01*
X132086000Y-111370800D01*
X132086000Y-111050800D01*
X132836000Y-111050800D01*
X132836000Y-111370800D01*
G37*
X132836000Y-110970800D02*
X132086000Y-110970800D01*
X132086000Y-110650800D01*
X132836000Y-110650800D01*
X132836000Y-110970800D01*
G36*
X132836000Y-110970800D02*
G01*
X132086000Y-110970800D01*
X132086000Y-110650800D01*
X132836000Y-110650800D01*
X132836000Y-110970800D01*
G37*
X132836000Y-110570800D02*
X132086000Y-110570800D01*
X132086000Y-110250800D01*
X132836000Y-110250800D01*
X132836000Y-110570800D01*
G36*
X132836000Y-110570800D02*
G01*
X132086000Y-110570800D01*
X132086000Y-110250800D01*
X132836000Y-110250800D01*
X132836000Y-110570800D01*
G37*
X132836000Y-110170800D02*
X132086000Y-110170800D01*
X132086000Y-109850800D01*
X132836000Y-109850800D01*
X132836000Y-110170800D01*
G36*
X132836000Y-110170800D02*
G01*
X132086000Y-110170800D01*
X132086000Y-109850800D01*
X132836000Y-109850800D01*
X132836000Y-110170800D01*
G37*
X132836000Y-109770800D02*
X132086000Y-109770800D01*
X132086000Y-109450800D01*
X132836000Y-109450800D01*
X132836000Y-109770800D01*
G36*
X132836000Y-109770800D02*
G01*
X132086000Y-109770800D01*
X132086000Y-109450800D01*
X132836000Y-109450800D01*
X132836000Y-109770800D01*
G37*
X132836000Y-109370800D02*
X132086000Y-109370800D01*
X132086000Y-109050800D01*
X132836000Y-109050800D01*
X132836000Y-109370800D01*
G36*
X132836000Y-109370800D02*
G01*
X132086000Y-109370800D01*
X132086000Y-109050800D01*
X132836000Y-109050800D01*
X132836000Y-109370800D01*
G37*
%TD*%
D11*
%TO.C,H2*%
X163957000Y-37033200D03*
%TD*%
D12*
%TO.C,H7*%
X129159000Y-147193000D03*
%TD*%
%TO.C,H8*%
X129159000Y-136906000D03*
%TD*%
%TO.C,H5*%
X109728000Y-136906000D03*
%TD*%
D11*
%TO.C,H4*%
X163957000Y-159562800D03*
%TD*%
D12*
%TO.C,H6*%
X109728000Y-147193000D03*
%TD*%
D13*
%TO.C,H13*%
X162560000Y-104140000D03*
%TD*%
D12*
%TO.C,H15*%
X162052000Y-147193000D03*
%TD*%
%TO.C,H16*%
X162052000Y-136906000D03*
%TD*%
D11*
%TO.C,H3*%
X107823000Y-159562800D03*
%TD*%
D12*
%TO.C,H17*%
X121920000Y-125095000D03*
%TD*%
D14*
%TO.C,H18*%
X151511000Y-124995000D03*
%TD*%
D13*
%TO.C,H10*%
X109220000Y-104140000D03*
%TD*%
D11*
%TO.C,H1*%
X107823000Y-37033200D03*
%TD*%
D12*
%TO.C,H14*%
X142621000Y-147193000D03*
%TD*%
D13*
%TO.C,H11*%
X109220000Y-121920000D03*
%TD*%
%TO.C,H12*%
X162560000Y-121920000D03*
%TD*%
D12*
%TO.C,H9*%
X142621000Y-136906000D03*
%TD*%
D15*
%TO.C,U2*%
X136541800Y-121012400D03*
X137191800Y-121012400D03*
X137841800Y-121012400D03*
X138491800Y-121012400D03*
X139141800Y-121012400D03*
X139791800Y-121012400D03*
X140441800Y-121012400D03*
X141091800Y-121012400D03*
X141741800Y-121012400D03*
X142391800Y-121012400D03*
X143041800Y-121012400D03*
X143691800Y-121012400D03*
X144341800Y-121012400D03*
X144991800Y-121012400D03*
X144991800Y-128212400D03*
X144341800Y-128212400D03*
X143691800Y-128212400D03*
X143041800Y-128212400D03*
X142391800Y-128212400D03*
X141741800Y-128212400D03*
X141091800Y-128212400D03*
X140441800Y-128212400D03*
X139791800Y-128212400D03*
X139141800Y-128212400D03*
X138491800Y-128212400D03*
X137841800Y-128212400D03*
X137191800Y-128212400D03*
X136541800Y-128212400D03*
%TD*%
D16*
%TO.C,C12*%
X141973000Y-102768400D03*
X143523000Y-102768400D03*
%TD*%
D17*
%TO.C,J3*%
X113068600Y-88138000D03*
X113068600Y-90678000D03*
X113068600Y-93218000D03*
X113068600Y-95758000D03*
X113068600Y-98298000D03*
%TD*%
D18*
%TO.C,DISP1*%
X139740000Y-97917000D03*
X139040000Y-97917000D03*
X138340000Y-97917000D03*
X137640000Y-97917000D03*
X136940000Y-97917000D03*
X136240000Y-97917000D03*
X135540000Y-97917000D03*
X134840000Y-97917000D03*
X134140000Y-97917000D03*
X133440000Y-97917000D03*
X132740000Y-97917000D03*
X132040000Y-97917000D03*
%TD*%
D19*
%TO.C,C21*%
X132603200Y-125222000D03*
X134503200Y-125222000D03*
%TD*%
D20*
%TO.C,R5*%
X142709400Y-99618800D03*
X141059400Y-99618800D03*
%TD*%
D21*
%TO.C,C14*%
X134315200Y-105931000D03*
X134315200Y-104381000D03*
%TD*%
D22*
%TO.C,TP8*%
X127254000Y-111379000D03*
%TD*%
D23*
%TO.C,J4*%
X169149000Y-83693000D03*
X164099000Y-83693000D03*
X169149000Y-86233000D03*
X164099000Y-86233000D03*
X169149000Y-88773000D03*
X164099000Y-88773000D03*
X169149000Y-91313000D03*
X164099000Y-91313000D03*
X169149000Y-93853000D03*
X164099000Y-93853000D03*
X169149000Y-96393000D03*
X164099000Y-96393000D03*
%TD*%
D24*
%TO.C,C19*%
X134518400Y-120904000D03*
X132968400Y-120904000D03*
%TD*%
D25*
%TO.C,J1*%
X169991000Y-110381000D03*
X169991000Y-115981000D03*
D26*
X166116000Y-111681000D03*
X166116000Y-112681000D03*
X166116000Y-113681000D03*
X166116000Y-114681000D03*
%TD*%
D22*
%TO.C,TP11*%
X127254000Y-107950000D03*
%TD*%
D27*
%TO.C,C23*%
X147116800Y-125209000D03*
X147116800Y-126759000D03*
%TD*%
D24*
%TO.C,C13*%
X137846400Y-101193600D03*
X136296400Y-101193600D03*
%TD*%
D28*
%TO.C,C17*%
X134467600Y-122631200D03*
X132567600Y-122631200D03*
%TD*%
D27*
%TO.C,C10*%
X142392400Y-106146000D03*
X142392400Y-107696000D03*
%TD*%
D29*
%TO.C,C22*%
X147370800Y-123124000D03*
X147370800Y-121224000D03*
%TD*%
D22*
%TO.C,TP12*%
X127254000Y-106807000D03*
%TD*%
%TO.C,TP6*%
X127254000Y-113665000D03*
%TD*%
%TO.C,TP10*%
X127254000Y-109093000D03*
%TD*%
%TO.C,TP9*%
X127254000Y-110236000D03*
%TD*%
D16*
%TO.C,C20*%
X141248800Y-119075200D03*
X142798800Y-119075200D03*
%TD*%
%TO.C,C3*%
X145478200Y-103733600D03*
X147028200Y-103733600D03*
%TD*%
D30*
%TO.C,R7*%
X132931400Y-130454400D03*
X134581400Y-130454400D03*
%TD*%
D16*
%TO.C,L2*%
X146087800Y-106781600D03*
X147637800Y-106781600D03*
%TD*%
D24*
%TO.C,C25*%
X134518400Y-128981200D03*
X132968400Y-128981200D03*
%TD*%
D31*
%TO.C,U1*%
X135886000Y-111810800D03*
%TD*%
D16*
%TO.C,C24*%
X132968400Y-126949200D03*
X134518400Y-126949200D03*
%TD*%
D29*
%TO.C,C2*%
X145796000Y-101330800D03*
X145796000Y-99430800D03*
%TD*%
D30*
%TO.C,R4*%
X141910800Y-104648000D03*
X143560800Y-104648000D03*
%TD*%
D27*
%TO.C,C9*%
X140919200Y-106159000D03*
X140919200Y-107709000D03*
%TD*%
D32*
%TO.C,SW1*%
X124460000Y-96723000D03*
X120360000Y-96723000D03*
X124460000Y-98323000D03*
X120360000Y-98323000D03*
%TD*%
D22*
%TO.C,TP5*%
X145643600Y-109220000D03*
%TD*%
D33*
%TO.C,J2*%
X105995600Y-113822000D03*
X105995600Y-113172000D03*
X105995600Y-112522000D03*
X105995600Y-111872000D03*
X105995600Y-111222000D03*
D34*
X103115600Y-115252000D03*
D35*
X106115600Y-114942000D03*
D36*
X102875600Y-113482000D03*
X102875600Y-111562000D03*
D35*
X106115600Y-110102000D03*
D34*
X103115600Y-109792000D03*
%TD*%
D21*
%TO.C,C15*%
X130678400Y-114376800D03*
X130678400Y-112826800D03*
%TD*%
D27*
%TO.C,C8*%
X143865600Y-106146000D03*
X143865600Y-107696000D03*
%TD*%
D22*
%TO.C,TP7*%
X127254000Y-112522000D03*
%TD*%
D20*
%TO.C,R2*%
X133413000Y-119430800D03*
X131763000Y-119430800D03*
%TD*%
D16*
%TO.C,C26*%
X141109400Y-101142800D03*
X142659400Y-101142800D03*
%TD*%
%TO.C,C5*%
X145478200Y-105257600D03*
X147028200Y-105257600D03*
%TD*%
%TO.C,C7*%
X140957000Y-110185200D03*
X142507000Y-110185200D03*
%TD*%
D27*
%TO.C,L1*%
X145542000Y-117602000D03*
X145542000Y-119152000D03*
%TD*%
D37*
%TO.C,Y1*%
X140172800Y-104546400D03*
X137972800Y-104546400D03*
X137972800Y-102846400D03*
X140172800Y-102846400D03*
%TD*%
D27*
%TO.C,C1*%
X126169200Y-96748000D03*
X126169200Y-98298000D03*
%TD*%
D21*
%TO.C,C16*%
X129133600Y-114363800D03*
X129133600Y-112813800D03*
%TD*%
D24*
%TO.C,C11*%
X136512600Y-117551200D03*
X134962600Y-117551200D03*
%TD*%
D19*
%TO.C,C18*%
X140883600Y-117348000D03*
X142783600Y-117348000D03*
%TD*%
D38*
%TO.C,R1*%
X129946400Y-106236000D03*
X129946400Y-107886000D03*
%TD*%
D20*
%TO.C,R3*%
X133413000Y-117957600D03*
X131763000Y-117957600D03*
%TD*%
M02*
