%TF.GenerationSoftware,KiCad,Pcbnew,7.0.6-1.fc38*%
%TF.CreationDate,2023-08-24T18:59:34-07:00*%
%TF.ProjectId,s3gta_panel,73336774-615f-4706-916e-656c2e6b6963,rev?*%
%TF.SameCoordinates,Original*%
%TF.FileFunction,Legend,Bot*%
%TF.FilePolarity,Positive*%
%FSLAX46Y46*%
G04 Gerber Fmt 4.6, Leading zero omitted, Abs format (unit mm)*
G04 Created by KiCad (PCBNEW 7.0.6-1.fc38) date 2023-08-24 18:59:34*
%MOMM*%
%LPD*%
G01*
G04 APERTURE LIST*
%ADD10C,0.150000*%
%ADD11C,0.300000*%
%ADD12C,0.080000*%
%ADD13C,0.100000*%
%ADD14C,0.120000*%
%ADD15C,0.010000*%
%ADD16C,0.127000*%
%ADD17C,0.200000*%
%ADD18R,6.000000X0.760000*%
G04 APERTURE END LIST*
D10*
X159512000Y-95504000D02*
X147955000Y-95504000D01*
X153733500Y-81915000D02*
X153733500Y-98298000D01*
X159385000Y-87630000D02*
X147955000Y-87630000D01*
X159512000Y-90106500D02*
X147955000Y-90106500D01*
X159512000Y-84836000D02*
X147955000Y-84836000D01*
X147955000Y-81915000D02*
X159512000Y-81915000D01*
X159512000Y-98298000D01*
X147955000Y-98298000D01*
X147955000Y-81915000D01*
X159512000Y-92837000D02*
X147955000Y-92837000D01*
X151618792Y-83848580D02*
X151666411Y-83896200D01*
X151666411Y-83896200D02*
X151809268Y-83943819D01*
X151809268Y-83943819D02*
X151904506Y-83943819D01*
X151904506Y-83943819D02*
X152047363Y-83896200D01*
X152047363Y-83896200D02*
X152142601Y-83800961D01*
X152142601Y-83800961D02*
X152190220Y-83705723D01*
X152190220Y-83705723D02*
X152237839Y-83515247D01*
X152237839Y-83515247D02*
X152237839Y-83372390D01*
X152237839Y-83372390D02*
X152190220Y-83181914D01*
X152190220Y-83181914D02*
X152142601Y-83086676D01*
X152142601Y-83086676D02*
X152047363Y-82991438D01*
X152047363Y-82991438D02*
X151904506Y-82943819D01*
X151904506Y-82943819D02*
X151809268Y-82943819D01*
X151809268Y-82943819D02*
X151666411Y-82991438D01*
X151666411Y-82991438D02*
X151618792Y-83039057D01*
X151333077Y-82943819D02*
X150999744Y-83943819D01*
X150999744Y-83943819D02*
X150666411Y-82943819D01*
X150380696Y-83039057D02*
X150333077Y-82991438D01*
X150333077Y-82991438D02*
X150237839Y-82943819D01*
X150237839Y-82943819D02*
X149999744Y-82943819D01*
X149999744Y-82943819D02*
X149904506Y-82991438D01*
X149904506Y-82991438D02*
X149856887Y-83039057D01*
X149856887Y-83039057D02*
X149809268Y-83134295D01*
X149809268Y-83134295D02*
X149809268Y-83229533D01*
X149809268Y-83229533D02*
X149856887Y-83372390D01*
X149856887Y-83372390D02*
X150428315Y-83943819D01*
X150428315Y-83943819D02*
X149809268Y-83943819D01*
X157968744Y-90944819D02*
X157778268Y-90944819D01*
X157778268Y-90944819D02*
X157683030Y-90992438D01*
X157683030Y-90992438D02*
X157587792Y-91087676D01*
X157587792Y-91087676D02*
X157540173Y-91278152D01*
X157540173Y-91278152D02*
X157540173Y-91611485D01*
X157540173Y-91611485D02*
X157587792Y-91801961D01*
X157587792Y-91801961D02*
X157683030Y-91897200D01*
X157683030Y-91897200D02*
X157778268Y-91944819D01*
X157778268Y-91944819D02*
X157968744Y-91944819D01*
X157968744Y-91944819D02*
X158063982Y-91897200D01*
X158063982Y-91897200D02*
X158159220Y-91801961D01*
X158159220Y-91801961D02*
X158206839Y-91611485D01*
X158206839Y-91611485D02*
X158206839Y-91278152D01*
X158206839Y-91278152D02*
X158159220Y-91087676D01*
X158159220Y-91087676D02*
X158063982Y-90992438D01*
X158063982Y-90992438D02*
X157968744Y-90944819D01*
X157111601Y-90944819D02*
X157111601Y-91754342D01*
X157111601Y-91754342D02*
X157063982Y-91849580D01*
X157063982Y-91849580D02*
X157016363Y-91897200D01*
X157016363Y-91897200D02*
X156921125Y-91944819D01*
X156921125Y-91944819D02*
X156730649Y-91944819D01*
X156730649Y-91944819D02*
X156635411Y-91897200D01*
X156635411Y-91897200D02*
X156587792Y-91849580D01*
X156587792Y-91849580D02*
X156540173Y-91754342D01*
X156540173Y-91754342D02*
X156540173Y-90944819D01*
X156206839Y-90944819D02*
X155635411Y-90944819D01*
X155921125Y-91944819D02*
X155921125Y-90944819D01*
X155540173Y-92040057D02*
X154778268Y-92040057D01*
X154063982Y-91944819D02*
X154540172Y-91944819D01*
X154540172Y-91944819D02*
X154540172Y-90944819D01*
X152666458Y-96278819D02*
X152047411Y-96278819D01*
X152047411Y-96278819D02*
X152380744Y-96659771D01*
X152380744Y-96659771D02*
X152237887Y-96659771D01*
X152237887Y-96659771D02*
X152142649Y-96707390D01*
X152142649Y-96707390D02*
X152095030Y-96755009D01*
X152095030Y-96755009D02*
X152047411Y-96850247D01*
X152047411Y-96850247D02*
X152047411Y-97088342D01*
X152047411Y-97088342D02*
X152095030Y-97183580D01*
X152095030Y-97183580D02*
X152142649Y-97231200D01*
X152142649Y-97231200D02*
X152237887Y-97278819D01*
X152237887Y-97278819D02*
X152523601Y-97278819D01*
X152523601Y-97278819D02*
X152618839Y-97231200D01*
X152618839Y-97231200D02*
X152666458Y-97183580D01*
X151714077Y-96612152D02*
X151475982Y-97278819D01*
X151475982Y-97278819D02*
X151237887Y-96612152D01*
X150952172Y-96278819D02*
X150333125Y-96278819D01*
X150333125Y-96278819D02*
X150666458Y-96659771D01*
X150666458Y-96659771D02*
X150523601Y-96659771D01*
X150523601Y-96659771D02*
X150428363Y-96707390D01*
X150428363Y-96707390D02*
X150380744Y-96755009D01*
X150380744Y-96755009D02*
X150333125Y-96850247D01*
X150333125Y-96850247D02*
X150333125Y-97088342D01*
X150333125Y-97088342D02*
X150380744Y-97183580D01*
X150380744Y-97183580D02*
X150428363Y-97231200D01*
X150428363Y-97231200D02*
X150523601Y-97278819D01*
X150523601Y-97278819D02*
X150809315Y-97278819D01*
X150809315Y-97278819D02*
X150904553Y-97231200D01*
X150904553Y-97231200D02*
X150952172Y-97183580D01*
X158032220Y-94484819D02*
X158032220Y-93484819D01*
X157556030Y-94484819D02*
X157556030Y-93484819D01*
X157556030Y-93484819D02*
X156984602Y-94484819D01*
X156984602Y-94484819D02*
X156984602Y-93484819D01*
X156746507Y-94580057D02*
X155984602Y-94580057D01*
X155270316Y-94484819D02*
X155746506Y-94484819D01*
X155746506Y-94484819D02*
X155746506Y-93484819D01*
X151745792Y-86769580D02*
X151793411Y-86817200D01*
X151793411Y-86817200D02*
X151936268Y-86864819D01*
X151936268Y-86864819D02*
X152031506Y-86864819D01*
X152031506Y-86864819D02*
X152174363Y-86817200D01*
X152174363Y-86817200D02*
X152269601Y-86721961D01*
X152269601Y-86721961D02*
X152317220Y-86626723D01*
X152317220Y-86626723D02*
X152364839Y-86436247D01*
X152364839Y-86436247D02*
X152364839Y-86293390D01*
X152364839Y-86293390D02*
X152317220Y-86102914D01*
X152317220Y-86102914D02*
X152269601Y-86007676D01*
X152269601Y-86007676D02*
X152174363Y-85912438D01*
X152174363Y-85912438D02*
X152031506Y-85864819D01*
X152031506Y-85864819D02*
X151936268Y-85864819D01*
X151936268Y-85864819D02*
X151793411Y-85912438D01*
X151793411Y-85912438D02*
X151745792Y-85960057D01*
X151460077Y-85864819D02*
X151126744Y-86864819D01*
X151126744Y-86864819D02*
X150793411Y-85864819D01*
X150031506Y-86198152D02*
X150031506Y-86864819D01*
X150269601Y-85817200D02*
X150507696Y-86531485D01*
X150507696Y-86531485D02*
X149888649Y-86531485D01*
X117605011Y-97875838D02*
X117700249Y-97828219D01*
X117700249Y-97828219D02*
X117843106Y-97828219D01*
X117843106Y-97828219D02*
X117985963Y-97875838D01*
X117985963Y-97875838D02*
X118081201Y-97971076D01*
X118081201Y-97971076D02*
X118128820Y-98066314D01*
X118128820Y-98066314D02*
X118176439Y-98256790D01*
X118176439Y-98256790D02*
X118176439Y-98399647D01*
X118176439Y-98399647D02*
X118128820Y-98590123D01*
X118128820Y-98590123D02*
X118081201Y-98685361D01*
X118081201Y-98685361D02*
X117985963Y-98780600D01*
X117985963Y-98780600D02*
X117843106Y-98828219D01*
X117843106Y-98828219D02*
X117747868Y-98828219D01*
X117747868Y-98828219D02*
X117605011Y-98780600D01*
X117605011Y-98780600D02*
X117557392Y-98732980D01*
X117557392Y-98732980D02*
X117557392Y-98399647D01*
X117557392Y-98399647D02*
X117747868Y-98399647D01*
X117128820Y-98828219D02*
X117128820Y-97828219D01*
X117128820Y-97828219D02*
X116557392Y-98828219D01*
X116557392Y-98828219D02*
X116557392Y-97828219D01*
X116081201Y-98828219D02*
X116081201Y-97828219D01*
X116081201Y-97828219D02*
X115843106Y-97828219D01*
X115843106Y-97828219D02*
X115700249Y-97875838D01*
X115700249Y-97875838D02*
X115605011Y-97971076D01*
X115605011Y-97971076D02*
X115557392Y-98066314D01*
X115557392Y-98066314D02*
X115509773Y-98256790D01*
X115509773Y-98256790D02*
X115509773Y-98399647D01*
X115509773Y-98399647D02*
X115557392Y-98590123D01*
X115557392Y-98590123D02*
X115605011Y-98685361D01*
X115605011Y-98685361D02*
X115700249Y-98780600D01*
X115700249Y-98780600D02*
X115843106Y-98828219D01*
X115843106Y-98828219D02*
X116081201Y-98828219D01*
X124072420Y-100453819D02*
X124072420Y-99453819D01*
X124072420Y-99453819D02*
X123500992Y-100453819D01*
X123500992Y-100453819D02*
X123500992Y-99453819D01*
X122453373Y-100453819D02*
X122786706Y-99977628D01*
X123024801Y-100453819D02*
X123024801Y-99453819D01*
X123024801Y-99453819D02*
X122643849Y-99453819D01*
X122643849Y-99453819D02*
X122548611Y-99501438D01*
X122548611Y-99501438D02*
X122500992Y-99549057D01*
X122500992Y-99549057D02*
X122453373Y-99644295D01*
X122453373Y-99644295D02*
X122453373Y-99787152D01*
X122453373Y-99787152D02*
X122500992Y-99882390D01*
X122500992Y-99882390D02*
X122548611Y-99930009D01*
X122548611Y-99930009D02*
X122643849Y-99977628D01*
X122643849Y-99977628D02*
X123024801Y-99977628D01*
X122072420Y-100406200D02*
X121929563Y-100453819D01*
X121929563Y-100453819D02*
X121691468Y-100453819D01*
X121691468Y-100453819D02*
X121596230Y-100406200D01*
X121596230Y-100406200D02*
X121548611Y-100358580D01*
X121548611Y-100358580D02*
X121500992Y-100263342D01*
X121500992Y-100263342D02*
X121500992Y-100168104D01*
X121500992Y-100168104D02*
X121548611Y-100072866D01*
X121548611Y-100072866D02*
X121596230Y-100025247D01*
X121596230Y-100025247D02*
X121691468Y-99977628D01*
X121691468Y-99977628D02*
X121881944Y-99930009D01*
X121881944Y-99930009D02*
X121977182Y-99882390D01*
X121977182Y-99882390D02*
X122024801Y-99834771D01*
X122024801Y-99834771D02*
X122072420Y-99739533D01*
X122072420Y-99739533D02*
X122072420Y-99644295D01*
X122072420Y-99644295D02*
X122024801Y-99549057D01*
X122024801Y-99549057D02*
X121977182Y-99501438D01*
X121977182Y-99501438D02*
X121881944Y-99453819D01*
X121881944Y-99453819D02*
X121643849Y-99453819D01*
X121643849Y-99453819D02*
X121500992Y-99501438D01*
X121215277Y-99453819D02*
X120643849Y-99453819D01*
X120929563Y-100453819D02*
X120929563Y-99453819D01*
X156825792Y-86642580D02*
X156873411Y-86690200D01*
X156873411Y-86690200D02*
X157016268Y-86737819D01*
X157016268Y-86737819D02*
X157111506Y-86737819D01*
X157111506Y-86737819D02*
X157254363Y-86690200D01*
X157254363Y-86690200D02*
X157349601Y-86594961D01*
X157349601Y-86594961D02*
X157397220Y-86499723D01*
X157397220Y-86499723D02*
X157444839Y-86309247D01*
X157444839Y-86309247D02*
X157444839Y-86166390D01*
X157444839Y-86166390D02*
X157397220Y-85975914D01*
X157397220Y-85975914D02*
X157349601Y-85880676D01*
X157349601Y-85880676D02*
X157254363Y-85785438D01*
X157254363Y-85785438D02*
X157111506Y-85737819D01*
X157111506Y-85737819D02*
X157016268Y-85737819D01*
X157016268Y-85737819D02*
X156873411Y-85785438D01*
X156873411Y-85785438D02*
X156825792Y-85833057D01*
X156540077Y-85737819D02*
X156206744Y-86737819D01*
X156206744Y-86737819D02*
X155873411Y-85737819D01*
X155635315Y-85737819D02*
X155016268Y-85737819D01*
X155016268Y-85737819D02*
X155349601Y-86118771D01*
X155349601Y-86118771D02*
X155206744Y-86118771D01*
X155206744Y-86118771D02*
X155111506Y-86166390D01*
X155111506Y-86166390D02*
X155063887Y-86214009D01*
X155063887Y-86214009D02*
X155016268Y-86309247D01*
X155016268Y-86309247D02*
X155016268Y-86547342D01*
X155016268Y-86547342D02*
X155063887Y-86642580D01*
X155063887Y-86642580D02*
X155111506Y-86690200D01*
X155111506Y-86690200D02*
X155206744Y-86737819D01*
X155206744Y-86737819D02*
X155492458Y-86737819D01*
X155492458Y-86737819D02*
X155587696Y-86690200D01*
X155587696Y-86690200D02*
X155635315Y-86642580D01*
X163858411Y-110169438D02*
X163953649Y-110121819D01*
X163953649Y-110121819D02*
X164096506Y-110121819D01*
X164096506Y-110121819D02*
X164239363Y-110169438D01*
X164239363Y-110169438D02*
X164334601Y-110264676D01*
X164334601Y-110264676D02*
X164382220Y-110359914D01*
X164382220Y-110359914D02*
X164429839Y-110550390D01*
X164429839Y-110550390D02*
X164429839Y-110693247D01*
X164429839Y-110693247D02*
X164382220Y-110883723D01*
X164382220Y-110883723D02*
X164334601Y-110978961D01*
X164334601Y-110978961D02*
X164239363Y-111074200D01*
X164239363Y-111074200D02*
X164096506Y-111121819D01*
X164096506Y-111121819D02*
X164001268Y-111121819D01*
X164001268Y-111121819D02*
X163858411Y-111074200D01*
X163858411Y-111074200D02*
X163810792Y-111026580D01*
X163810792Y-111026580D02*
X163810792Y-110693247D01*
X163810792Y-110693247D02*
X164001268Y-110693247D01*
X163382220Y-111121819D02*
X163382220Y-110121819D01*
X163382220Y-110121819D02*
X162810792Y-111121819D01*
X162810792Y-111121819D02*
X162810792Y-110121819D01*
X162334601Y-111121819D02*
X162334601Y-110121819D01*
X162334601Y-110121819D02*
X162096506Y-110121819D01*
X162096506Y-110121819D02*
X161953649Y-110169438D01*
X161953649Y-110169438D02*
X161858411Y-110264676D01*
X161858411Y-110264676D02*
X161810792Y-110359914D01*
X161810792Y-110359914D02*
X161763173Y-110550390D01*
X161763173Y-110550390D02*
X161763173Y-110693247D01*
X161763173Y-110693247D02*
X161810792Y-110883723D01*
X161810792Y-110883723D02*
X161858411Y-110978961D01*
X161858411Y-110978961D02*
X161953649Y-111074200D01*
X161953649Y-111074200D02*
X162096506Y-111121819D01*
X162096506Y-111121819D02*
X162334601Y-111121819D01*
X157889411Y-88452438D02*
X157984649Y-88404819D01*
X157984649Y-88404819D02*
X158127506Y-88404819D01*
X158127506Y-88404819D02*
X158270363Y-88452438D01*
X158270363Y-88452438D02*
X158365601Y-88547676D01*
X158365601Y-88547676D02*
X158413220Y-88642914D01*
X158413220Y-88642914D02*
X158460839Y-88833390D01*
X158460839Y-88833390D02*
X158460839Y-88976247D01*
X158460839Y-88976247D02*
X158413220Y-89166723D01*
X158413220Y-89166723D02*
X158365601Y-89261961D01*
X158365601Y-89261961D02*
X158270363Y-89357200D01*
X158270363Y-89357200D02*
X158127506Y-89404819D01*
X158127506Y-89404819D02*
X158032268Y-89404819D01*
X158032268Y-89404819D02*
X157889411Y-89357200D01*
X157889411Y-89357200D02*
X157841792Y-89309580D01*
X157841792Y-89309580D02*
X157841792Y-88976247D01*
X157841792Y-88976247D02*
X158032268Y-88976247D01*
X157413220Y-89404819D02*
X157413220Y-88404819D01*
X157413220Y-88404819D02*
X157032268Y-88404819D01*
X157032268Y-88404819D02*
X156937030Y-88452438D01*
X156937030Y-88452438D02*
X156889411Y-88500057D01*
X156889411Y-88500057D02*
X156841792Y-88595295D01*
X156841792Y-88595295D02*
X156841792Y-88738152D01*
X156841792Y-88738152D02*
X156889411Y-88833390D01*
X156889411Y-88833390D02*
X156937030Y-88881009D01*
X156937030Y-88881009D02*
X157032268Y-88928628D01*
X157032268Y-88928628D02*
X157413220Y-88928628D01*
X156413220Y-89404819D02*
X156413220Y-88404819D01*
X155746554Y-88404819D02*
X155556078Y-88404819D01*
X155556078Y-88404819D02*
X155460840Y-88452438D01*
X155460840Y-88452438D02*
X155365602Y-88547676D01*
X155365602Y-88547676D02*
X155317983Y-88738152D01*
X155317983Y-88738152D02*
X155317983Y-89071485D01*
X155317983Y-89071485D02*
X155365602Y-89261961D01*
X155365602Y-89261961D02*
X155460840Y-89357200D01*
X155460840Y-89357200D02*
X155556078Y-89404819D01*
X155556078Y-89404819D02*
X155746554Y-89404819D01*
X155746554Y-89404819D02*
X155841792Y-89357200D01*
X155841792Y-89357200D02*
X155937030Y-89261961D01*
X155937030Y-89261961D02*
X155984649Y-89071485D01*
X155984649Y-89071485D02*
X155984649Y-88738152D01*
X155984649Y-88738152D02*
X155937030Y-88547676D01*
X155937030Y-88547676D02*
X155841792Y-88452438D01*
X155841792Y-88452438D02*
X155746554Y-88404819D01*
X154698935Y-88404819D02*
X154603697Y-88404819D01*
X154603697Y-88404819D02*
X154508459Y-88452438D01*
X154508459Y-88452438D02*
X154460840Y-88500057D01*
X154460840Y-88500057D02*
X154413221Y-88595295D01*
X154413221Y-88595295D02*
X154365602Y-88785771D01*
X154365602Y-88785771D02*
X154365602Y-89023866D01*
X154365602Y-89023866D02*
X154413221Y-89214342D01*
X154413221Y-89214342D02*
X154460840Y-89309580D01*
X154460840Y-89309580D02*
X154508459Y-89357200D01*
X154508459Y-89357200D02*
X154603697Y-89404819D01*
X154603697Y-89404819D02*
X154698935Y-89404819D01*
X154698935Y-89404819D02*
X154794173Y-89357200D01*
X154794173Y-89357200D02*
X154841792Y-89309580D01*
X154841792Y-89309580D02*
X154889411Y-89214342D01*
X154889411Y-89214342D02*
X154937030Y-89023866D01*
X154937030Y-89023866D02*
X154937030Y-88785771D01*
X154937030Y-88785771D02*
X154889411Y-88595295D01*
X154889411Y-88595295D02*
X154841792Y-88500057D01*
X154841792Y-88500057D02*
X154794173Y-88452438D01*
X154794173Y-88452438D02*
X154698935Y-88404819D01*
X164302839Y-114249200D02*
X164159982Y-114296819D01*
X164159982Y-114296819D02*
X163921887Y-114296819D01*
X163921887Y-114296819D02*
X163826649Y-114249200D01*
X163826649Y-114249200D02*
X163779030Y-114201580D01*
X163779030Y-114201580D02*
X163731411Y-114106342D01*
X163731411Y-114106342D02*
X163731411Y-114011104D01*
X163731411Y-114011104D02*
X163779030Y-113915866D01*
X163779030Y-113915866D02*
X163826649Y-113868247D01*
X163826649Y-113868247D02*
X163921887Y-113820628D01*
X163921887Y-113820628D02*
X164112363Y-113773009D01*
X164112363Y-113773009D02*
X164207601Y-113725390D01*
X164207601Y-113725390D02*
X164255220Y-113677771D01*
X164255220Y-113677771D02*
X164302839Y-113582533D01*
X164302839Y-113582533D02*
X164302839Y-113487295D01*
X164302839Y-113487295D02*
X164255220Y-113392057D01*
X164255220Y-113392057D02*
X164207601Y-113344438D01*
X164207601Y-113344438D02*
X164112363Y-113296819D01*
X164112363Y-113296819D02*
X163874268Y-113296819D01*
X163874268Y-113296819D02*
X163731411Y-113344438D01*
X163302839Y-114296819D02*
X163302839Y-113296819D01*
X163302839Y-113296819D02*
X163064744Y-113296819D01*
X163064744Y-113296819D02*
X162921887Y-113344438D01*
X162921887Y-113344438D02*
X162826649Y-113439676D01*
X162826649Y-113439676D02*
X162779030Y-113534914D01*
X162779030Y-113534914D02*
X162731411Y-113725390D01*
X162731411Y-113725390D02*
X162731411Y-113868247D01*
X162731411Y-113868247D02*
X162779030Y-114058723D01*
X162779030Y-114058723D02*
X162826649Y-114153961D01*
X162826649Y-114153961D02*
X162921887Y-114249200D01*
X162921887Y-114249200D02*
X163064744Y-114296819D01*
X163064744Y-114296819D02*
X163302839Y-114296819D01*
X162350458Y-114011104D02*
X161874268Y-114011104D01*
X162445696Y-114296819D02*
X162112363Y-113296819D01*
X162112363Y-113296819D02*
X161779030Y-114296819D01*
X157508411Y-96199438D02*
X157603649Y-96151819D01*
X157603649Y-96151819D02*
X157746506Y-96151819D01*
X157746506Y-96151819D02*
X157889363Y-96199438D01*
X157889363Y-96199438D02*
X157984601Y-96294676D01*
X157984601Y-96294676D02*
X158032220Y-96389914D01*
X158032220Y-96389914D02*
X158079839Y-96580390D01*
X158079839Y-96580390D02*
X158079839Y-96723247D01*
X158079839Y-96723247D02*
X158032220Y-96913723D01*
X158032220Y-96913723D02*
X157984601Y-97008961D01*
X157984601Y-97008961D02*
X157889363Y-97104200D01*
X157889363Y-97104200D02*
X157746506Y-97151819D01*
X157746506Y-97151819D02*
X157651268Y-97151819D01*
X157651268Y-97151819D02*
X157508411Y-97104200D01*
X157508411Y-97104200D02*
X157460792Y-97056580D01*
X157460792Y-97056580D02*
X157460792Y-96723247D01*
X157460792Y-96723247D02*
X157651268Y-96723247D01*
X157032220Y-97151819D02*
X157032220Y-96151819D01*
X157032220Y-96151819D02*
X156460792Y-97151819D01*
X156460792Y-97151819D02*
X156460792Y-96151819D01*
X155984601Y-97151819D02*
X155984601Y-96151819D01*
X155984601Y-96151819D02*
X155746506Y-96151819D01*
X155746506Y-96151819D02*
X155603649Y-96199438D01*
X155603649Y-96199438D02*
X155508411Y-96294676D01*
X155508411Y-96294676D02*
X155460792Y-96389914D01*
X155460792Y-96389914D02*
X155413173Y-96580390D01*
X155413173Y-96580390D02*
X155413173Y-96723247D01*
X155413173Y-96723247D02*
X155460792Y-96913723D01*
X155460792Y-96913723D02*
X155508411Y-97008961D01*
X155508411Y-97008961D02*
X155603649Y-97104200D01*
X155603649Y-97104200D02*
X155746506Y-97151819D01*
X155746506Y-97151819D02*
X155984601Y-97151819D01*
X164302839Y-115900200D02*
X164159982Y-115947819D01*
X164159982Y-115947819D02*
X163921887Y-115947819D01*
X163921887Y-115947819D02*
X163826649Y-115900200D01*
X163826649Y-115900200D02*
X163779030Y-115852580D01*
X163779030Y-115852580D02*
X163731411Y-115757342D01*
X163731411Y-115757342D02*
X163731411Y-115662104D01*
X163731411Y-115662104D02*
X163779030Y-115566866D01*
X163779030Y-115566866D02*
X163826649Y-115519247D01*
X163826649Y-115519247D02*
X163921887Y-115471628D01*
X163921887Y-115471628D02*
X164112363Y-115424009D01*
X164112363Y-115424009D02*
X164207601Y-115376390D01*
X164207601Y-115376390D02*
X164255220Y-115328771D01*
X164255220Y-115328771D02*
X164302839Y-115233533D01*
X164302839Y-115233533D02*
X164302839Y-115138295D01*
X164302839Y-115138295D02*
X164255220Y-115043057D01*
X164255220Y-115043057D02*
X164207601Y-114995438D01*
X164207601Y-114995438D02*
X164112363Y-114947819D01*
X164112363Y-114947819D02*
X163874268Y-114947819D01*
X163874268Y-114947819D02*
X163731411Y-114995438D01*
X162731411Y-115852580D02*
X162779030Y-115900200D01*
X162779030Y-115900200D02*
X162921887Y-115947819D01*
X162921887Y-115947819D02*
X163017125Y-115947819D01*
X163017125Y-115947819D02*
X163159982Y-115900200D01*
X163159982Y-115900200D02*
X163255220Y-115804961D01*
X163255220Y-115804961D02*
X163302839Y-115709723D01*
X163302839Y-115709723D02*
X163350458Y-115519247D01*
X163350458Y-115519247D02*
X163350458Y-115376390D01*
X163350458Y-115376390D02*
X163302839Y-115185914D01*
X163302839Y-115185914D02*
X163255220Y-115090676D01*
X163255220Y-115090676D02*
X163159982Y-114995438D01*
X163159982Y-114995438D02*
X163017125Y-114947819D01*
X163017125Y-114947819D02*
X162921887Y-114947819D01*
X162921887Y-114947819D02*
X162779030Y-114995438D01*
X162779030Y-114995438D02*
X162731411Y-115043057D01*
X161826649Y-115947819D02*
X162302839Y-115947819D01*
X162302839Y-115947819D02*
X162302839Y-114947819D01*
X152444220Y-94611819D02*
X152444220Y-93611819D01*
X151968030Y-94611819D02*
X151968030Y-93611819D01*
X151968030Y-93611819D02*
X151396602Y-94611819D01*
X151396602Y-94611819D02*
X151396602Y-93611819D01*
X151158507Y-94707057D02*
X150396602Y-94707057D01*
X149587078Y-94611819D02*
X149920411Y-94135628D01*
X150158506Y-94611819D02*
X150158506Y-93611819D01*
X150158506Y-93611819D02*
X149777554Y-93611819D01*
X149777554Y-93611819D02*
X149682316Y-93659438D01*
X149682316Y-93659438D02*
X149634697Y-93707057D01*
X149634697Y-93707057D02*
X149587078Y-93802295D01*
X149587078Y-93802295D02*
X149587078Y-93945152D01*
X149587078Y-93945152D02*
X149634697Y-94040390D01*
X149634697Y-94040390D02*
X149682316Y-94088009D01*
X149682316Y-94088009D02*
X149777554Y-94135628D01*
X149777554Y-94135628D02*
X150158506Y-94135628D01*
X164350458Y-111772819D02*
X163731411Y-111772819D01*
X163731411Y-111772819D02*
X164064744Y-112153771D01*
X164064744Y-112153771D02*
X163921887Y-112153771D01*
X163921887Y-112153771D02*
X163826649Y-112201390D01*
X163826649Y-112201390D02*
X163779030Y-112249009D01*
X163779030Y-112249009D02*
X163731411Y-112344247D01*
X163731411Y-112344247D02*
X163731411Y-112582342D01*
X163731411Y-112582342D02*
X163779030Y-112677580D01*
X163779030Y-112677580D02*
X163826649Y-112725200D01*
X163826649Y-112725200D02*
X163921887Y-112772819D01*
X163921887Y-112772819D02*
X164207601Y-112772819D01*
X164207601Y-112772819D02*
X164302839Y-112725200D01*
X164302839Y-112725200D02*
X164350458Y-112677580D01*
X163398077Y-112106152D02*
X163159982Y-112772819D01*
X163159982Y-112772819D02*
X162921887Y-112106152D01*
X162636172Y-111772819D02*
X162017125Y-111772819D01*
X162017125Y-111772819D02*
X162350458Y-112153771D01*
X162350458Y-112153771D02*
X162207601Y-112153771D01*
X162207601Y-112153771D02*
X162112363Y-112201390D01*
X162112363Y-112201390D02*
X162064744Y-112249009D01*
X162064744Y-112249009D02*
X162017125Y-112344247D01*
X162017125Y-112344247D02*
X162017125Y-112582342D01*
X162017125Y-112582342D02*
X162064744Y-112677580D01*
X162064744Y-112677580D02*
X162112363Y-112725200D01*
X162112363Y-112725200D02*
X162207601Y-112772819D01*
X162207601Y-112772819D02*
X162493315Y-112772819D01*
X162493315Y-112772819D02*
X162588553Y-112725200D01*
X162588553Y-112725200D02*
X162636172Y-112677580D01*
X152380744Y-90944819D02*
X152190268Y-90944819D01*
X152190268Y-90944819D02*
X152095030Y-90992438D01*
X152095030Y-90992438D02*
X151999792Y-91087676D01*
X151999792Y-91087676D02*
X151952173Y-91278152D01*
X151952173Y-91278152D02*
X151952173Y-91611485D01*
X151952173Y-91611485D02*
X151999792Y-91801961D01*
X151999792Y-91801961D02*
X152095030Y-91897200D01*
X152095030Y-91897200D02*
X152190268Y-91944819D01*
X152190268Y-91944819D02*
X152380744Y-91944819D01*
X152380744Y-91944819D02*
X152475982Y-91897200D01*
X152475982Y-91897200D02*
X152571220Y-91801961D01*
X152571220Y-91801961D02*
X152618839Y-91611485D01*
X152618839Y-91611485D02*
X152618839Y-91278152D01*
X152618839Y-91278152D02*
X152571220Y-91087676D01*
X152571220Y-91087676D02*
X152475982Y-90992438D01*
X152475982Y-90992438D02*
X152380744Y-90944819D01*
X151523601Y-90944819D02*
X151523601Y-91754342D01*
X151523601Y-91754342D02*
X151475982Y-91849580D01*
X151475982Y-91849580D02*
X151428363Y-91897200D01*
X151428363Y-91897200D02*
X151333125Y-91944819D01*
X151333125Y-91944819D02*
X151142649Y-91944819D01*
X151142649Y-91944819D02*
X151047411Y-91897200D01*
X151047411Y-91897200D02*
X150999792Y-91849580D01*
X150999792Y-91849580D02*
X150952173Y-91754342D01*
X150952173Y-91754342D02*
X150952173Y-90944819D01*
X150618839Y-90944819D02*
X150047411Y-90944819D01*
X150333125Y-91944819D02*
X150333125Y-90944819D01*
X149952173Y-92040057D02*
X149190268Y-92040057D01*
X148380744Y-91944819D02*
X148714077Y-91468628D01*
X148952172Y-91944819D02*
X148952172Y-90944819D01*
X148952172Y-90944819D02*
X148571220Y-90944819D01*
X148571220Y-90944819D02*
X148475982Y-90992438D01*
X148475982Y-90992438D02*
X148428363Y-91040057D01*
X148428363Y-91040057D02*
X148380744Y-91135295D01*
X148380744Y-91135295D02*
X148380744Y-91278152D01*
X148380744Y-91278152D02*
X148428363Y-91373390D01*
X148428363Y-91373390D02*
X148475982Y-91421009D01*
X148475982Y-91421009D02*
X148571220Y-91468628D01*
X148571220Y-91468628D02*
X148952172Y-91468628D01*
X118659087Y-93173609D02*
X118516230Y-93221228D01*
X118516230Y-93221228D02*
X118468611Y-93268847D01*
X118468611Y-93268847D02*
X118420992Y-93364085D01*
X118420992Y-93364085D02*
X118420992Y-93506942D01*
X118420992Y-93506942D02*
X118468611Y-93602180D01*
X118468611Y-93602180D02*
X118516230Y-93649800D01*
X118516230Y-93649800D02*
X118611468Y-93697419D01*
X118611468Y-93697419D02*
X118992420Y-93697419D01*
X118992420Y-93697419D02*
X118992420Y-92697419D01*
X118992420Y-92697419D02*
X118659087Y-92697419D01*
X118659087Y-92697419D02*
X118563849Y-92745038D01*
X118563849Y-92745038D02*
X118516230Y-92792657D01*
X118516230Y-92792657D02*
X118468611Y-92887895D01*
X118468611Y-92887895D02*
X118468611Y-92983133D01*
X118468611Y-92983133D02*
X118516230Y-93078371D01*
X118516230Y-93078371D02*
X118563849Y-93125990D01*
X118563849Y-93125990D02*
X118659087Y-93173609D01*
X118659087Y-93173609D02*
X118992420Y-93173609D01*
X117801944Y-92697419D02*
X117611468Y-92697419D01*
X117611468Y-92697419D02*
X117516230Y-92745038D01*
X117516230Y-92745038D02*
X117420992Y-92840276D01*
X117420992Y-92840276D02*
X117373373Y-93030752D01*
X117373373Y-93030752D02*
X117373373Y-93364085D01*
X117373373Y-93364085D02*
X117420992Y-93554561D01*
X117420992Y-93554561D02*
X117516230Y-93649800D01*
X117516230Y-93649800D02*
X117611468Y-93697419D01*
X117611468Y-93697419D02*
X117801944Y-93697419D01*
X117801944Y-93697419D02*
X117897182Y-93649800D01*
X117897182Y-93649800D02*
X117992420Y-93554561D01*
X117992420Y-93554561D02*
X118040039Y-93364085D01*
X118040039Y-93364085D02*
X118040039Y-93030752D01*
X118040039Y-93030752D02*
X117992420Y-92840276D01*
X117992420Y-92840276D02*
X117897182Y-92745038D01*
X117897182Y-92745038D02*
X117801944Y-92697419D01*
X116754325Y-92697419D02*
X116563849Y-92697419D01*
X116563849Y-92697419D02*
X116468611Y-92745038D01*
X116468611Y-92745038D02*
X116373373Y-92840276D01*
X116373373Y-92840276D02*
X116325754Y-93030752D01*
X116325754Y-93030752D02*
X116325754Y-93364085D01*
X116325754Y-93364085D02*
X116373373Y-93554561D01*
X116373373Y-93554561D02*
X116468611Y-93649800D01*
X116468611Y-93649800D02*
X116563849Y-93697419D01*
X116563849Y-93697419D02*
X116754325Y-93697419D01*
X116754325Y-93697419D02*
X116849563Y-93649800D01*
X116849563Y-93649800D02*
X116944801Y-93554561D01*
X116944801Y-93554561D02*
X116992420Y-93364085D01*
X116992420Y-93364085D02*
X116992420Y-93030752D01*
X116992420Y-93030752D02*
X116944801Y-92840276D01*
X116944801Y-92840276D02*
X116849563Y-92745038D01*
X116849563Y-92745038D02*
X116754325Y-92697419D01*
X116040039Y-92697419D02*
X115468611Y-92697419D01*
X115754325Y-93697419D02*
X115754325Y-92697419D01*
X118992420Y-96288219D02*
X118992420Y-95288219D01*
X118992420Y-95288219D02*
X118420992Y-96288219D01*
X118420992Y-96288219D02*
X118420992Y-95288219D01*
X117373373Y-96288219D02*
X117706706Y-95812028D01*
X117944801Y-96288219D02*
X117944801Y-95288219D01*
X117944801Y-95288219D02*
X117563849Y-95288219D01*
X117563849Y-95288219D02*
X117468611Y-95335838D01*
X117468611Y-95335838D02*
X117420992Y-95383457D01*
X117420992Y-95383457D02*
X117373373Y-95478695D01*
X117373373Y-95478695D02*
X117373373Y-95621552D01*
X117373373Y-95621552D02*
X117420992Y-95716790D01*
X117420992Y-95716790D02*
X117468611Y-95764409D01*
X117468611Y-95764409D02*
X117563849Y-95812028D01*
X117563849Y-95812028D02*
X117944801Y-95812028D01*
X116992420Y-96240600D02*
X116849563Y-96288219D01*
X116849563Y-96288219D02*
X116611468Y-96288219D01*
X116611468Y-96288219D02*
X116516230Y-96240600D01*
X116516230Y-96240600D02*
X116468611Y-96192980D01*
X116468611Y-96192980D02*
X116420992Y-96097742D01*
X116420992Y-96097742D02*
X116420992Y-96002504D01*
X116420992Y-96002504D02*
X116468611Y-95907266D01*
X116468611Y-95907266D02*
X116516230Y-95859647D01*
X116516230Y-95859647D02*
X116611468Y-95812028D01*
X116611468Y-95812028D02*
X116801944Y-95764409D01*
X116801944Y-95764409D02*
X116897182Y-95716790D01*
X116897182Y-95716790D02*
X116944801Y-95669171D01*
X116944801Y-95669171D02*
X116992420Y-95573933D01*
X116992420Y-95573933D02*
X116992420Y-95478695D01*
X116992420Y-95478695D02*
X116944801Y-95383457D01*
X116944801Y-95383457D02*
X116897182Y-95335838D01*
X116897182Y-95335838D02*
X116801944Y-95288219D01*
X116801944Y-95288219D02*
X116563849Y-95288219D01*
X116563849Y-95288219D02*
X116420992Y-95335838D01*
X116135277Y-95288219D02*
X115563849Y-95288219D01*
X115849563Y-96288219D02*
X115849563Y-95288219D01*
X152618839Y-89357200D02*
X152475982Y-89404819D01*
X152475982Y-89404819D02*
X152237887Y-89404819D01*
X152237887Y-89404819D02*
X152142649Y-89357200D01*
X152142649Y-89357200D02*
X152095030Y-89309580D01*
X152095030Y-89309580D02*
X152047411Y-89214342D01*
X152047411Y-89214342D02*
X152047411Y-89119104D01*
X152047411Y-89119104D02*
X152095030Y-89023866D01*
X152095030Y-89023866D02*
X152142649Y-88976247D01*
X152142649Y-88976247D02*
X152237887Y-88928628D01*
X152237887Y-88928628D02*
X152428363Y-88881009D01*
X152428363Y-88881009D02*
X152523601Y-88833390D01*
X152523601Y-88833390D02*
X152571220Y-88785771D01*
X152571220Y-88785771D02*
X152618839Y-88690533D01*
X152618839Y-88690533D02*
X152618839Y-88595295D01*
X152618839Y-88595295D02*
X152571220Y-88500057D01*
X152571220Y-88500057D02*
X152523601Y-88452438D01*
X152523601Y-88452438D02*
X152428363Y-88404819D01*
X152428363Y-88404819D02*
X152190268Y-88404819D01*
X152190268Y-88404819D02*
X152047411Y-88452438D01*
X151428363Y-88928628D02*
X151428363Y-89404819D01*
X151761696Y-88404819D02*
X151428363Y-88928628D01*
X151428363Y-88928628D02*
X151095030Y-88404819D01*
X150761696Y-89404819D02*
X150761696Y-88404819D01*
X150761696Y-88404819D02*
X150190268Y-89404819D01*
X150190268Y-89404819D02*
X150190268Y-88404819D01*
X149142649Y-89309580D02*
X149190268Y-89357200D01*
X149190268Y-89357200D02*
X149333125Y-89404819D01*
X149333125Y-89404819D02*
X149428363Y-89404819D01*
X149428363Y-89404819D02*
X149571220Y-89357200D01*
X149571220Y-89357200D02*
X149666458Y-89261961D01*
X149666458Y-89261961D02*
X149714077Y-89166723D01*
X149714077Y-89166723D02*
X149761696Y-88976247D01*
X149761696Y-88976247D02*
X149761696Y-88833390D01*
X149761696Y-88833390D02*
X149714077Y-88642914D01*
X149714077Y-88642914D02*
X149666458Y-88547676D01*
X149666458Y-88547676D02*
X149571220Y-88452438D01*
X149571220Y-88452438D02*
X149428363Y-88404819D01*
X149428363Y-88404819D02*
X149333125Y-88404819D01*
X149333125Y-88404819D02*
X149190268Y-88452438D01*
X149190268Y-88452438D02*
X149142649Y-88500057D01*
X116541392Y-88566619D02*
X116874725Y-88090428D01*
X117112820Y-88566619D02*
X117112820Y-87566619D01*
X117112820Y-87566619D02*
X116731868Y-87566619D01*
X116731868Y-87566619D02*
X116636630Y-87614238D01*
X116636630Y-87614238D02*
X116589011Y-87661857D01*
X116589011Y-87661857D02*
X116541392Y-87757095D01*
X116541392Y-87757095D02*
X116541392Y-87899952D01*
X116541392Y-87899952D02*
X116589011Y-87995190D01*
X116589011Y-87995190D02*
X116636630Y-88042809D01*
X116636630Y-88042809D02*
X116731868Y-88090428D01*
X116731868Y-88090428D02*
X117112820Y-88090428D01*
X116208058Y-87566619D02*
X115541392Y-88566619D01*
X115541392Y-87566619D02*
X116208058Y-88566619D01*
D11*
X123849917Y-109832400D02*
X123635632Y-109903828D01*
X123635632Y-109903828D02*
X123278489Y-109903828D01*
X123278489Y-109903828D02*
X123135632Y-109832400D01*
X123135632Y-109832400D02*
X123064203Y-109760971D01*
X123064203Y-109760971D02*
X122992774Y-109618114D01*
X122992774Y-109618114D02*
X122992774Y-109475257D01*
X122992774Y-109475257D02*
X123064203Y-109332400D01*
X123064203Y-109332400D02*
X123135632Y-109260971D01*
X123135632Y-109260971D02*
X123278489Y-109189542D01*
X123278489Y-109189542D02*
X123564203Y-109118114D01*
X123564203Y-109118114D02*
X123707060Y-109046685D01*
X123707060Y-109046685D02*
X123778489Y-108975257D01*
X123778489Y-108975257D02*
X123849917Y-108832400D01*
X123849917Y-108832400D02*
X123849917Y-108689542D01*
X123849917Y-108689542D02*
X123778489Y-108546685D01*
X123778489Y-108546685D02*
X123707060Y-108475257D01*
X123707060Y-108475257D02*
X123564203Y-108403828D01*
X123564203Y-108403828D02*
X123207060Y-108403828D01*
X123207060Y-108403828D02*
X122992774Y-108475257D01*
X122492775Y-108403828D02*
X121564203Y-108403828D01*
X121564203Y-108403828D02*
X122064203Y-108975257D01*
X122064203Y-108975257D02*
X121849918Y-108975257D01*
X121849918Y-108975257D02*
X121707061Y-109046685D01*
X121707061Y-109046685D02*
X121635632Y-109118114D01*
X121635632Y-109118114D02*
X121564203Y-109260971D01*
X121564203Y-109260971D02*
X121564203Y-109618114D01*
X121564203Y-109618114D02*
X121635632Y-109760971D01*
X121635632Y-109760971D02*
X121707061Y-109832400D01*
X121707061Y-109832400D02*
X121849918Y-109903828D01*
X121849918Y-109903828D02*
X122278489Y-109903828D01*
X122278489Y-109903828D02*
X122421346Y-109832400D01*
X122421346Y-109832400D02*
X122492775Y-109760971D01*
X120135632Y-108475257D02*
X120278490Y-108403828D01*
X120278490Y-108403828D02*
X120492775Y-108403828D01*
X120492775Y-108403828D02*
X120707061Y-108475257D01*
X120707061Y-108475257D02*
X120849918Y-108618114D01*
X120849918Y-108618114D02*
X120921347Y-108760971D01*
X120921347Y-108760971D02*
X120992775Y-109046685D01*
X120992775Y-109046685D02*
X120992775Y-109260971D01*
X120992775Y-109260971D02*
X120921347Y-109546685D01*
X120921347Y-109546685D02*
X120849918Y-109689542D01*
X120849918Y-109689542D02*
X120707061Y-109832400D01*
X120707061Y-109832400D02*
X120492775Y-109903828D01*
X120492775Y-109903828D02*
X120349918Y-109903828D01*
X120349918Y-109903828D02*
X120135632Y-109832400D01*
X120135632Y-109832400D02*
X120064204Y-109760971D01*
X120064204Y-109760971D02*
X120064204Y-109260971D01*
X120064204Y-109260971D02*
X120349918Y-109260971D01*
X119635632Y-108403828D02*
X118778490Y-108403828D01*
X119207061Y-109903828D02*
X119207061Y-108403828D01*
X118349918Y-109475257D02*
X117635633Y-109475257D01*
X118492775Y-109903828D02*
X117992775Y-108403828D01*
X117992775Y-108403828D02*
X117492775Y-109903828D01*
X115849919Y-109903828D02*
X115849919Y-108403828D01*
X115849919Y-108403828D02*
X115278490Y-108403828D01*
X115278490Y-108403828D02*
X115135633Y-108475257D01*
X115135633Y-108475257D02*
X115064204Y-108546685D01*
X115064204Y-108546685D02*
X114992776Y-108689542D01*
X114992776Y-108689542D02*
X114992776Y-108903828D01*
X114992776Y-108903828D02*
X115064204Y-109046685D01*
X115064204Y-109046685D02*
X115135633Y-109118114D01*
X115135633Y-109118114D02*
X115278490Y-109189542D01*
X115278490Y-109189542D02*
X115849919Y-109189542D01*
X113707062Y-109903828D02*
X113707062Y-109118114D01*
X113707062Y-109118114D02*
X113778490Y-108975257D01*
X113778490Y-108975257D02*
X113921347Y-108903828D01*
X113921347Y-108903828D02*
X114207062Y-108903828D01*
X114207062Y-108903828D02*
X114349919Y-108975257D01*
X113707062Y-109832400D02*
X113849919Y-109903828D01*
X113849919Y-109903828D02*
X114207062Y-109903828D01*
X114207062Y-109903828D02*
X114349919Y-109832400D01*
X114349919Y-109832400D02*
X114421347Y-109689542D01*
X114421347Y-109689542D02*
X114421347Y-109546685D01*
X114421347Y-109546685D02*
X114349919Y-109403828D01*
X114349919Y-109403828D02*
X114207062Y-109332400D01*
X114207062Y-109332400D02*
X113849919Y-109332400D01*
X113849919Y-109332400D02*
X113707062Y-109260971D01*
X112992776Y-108903828D02*
X112992776Y-109903828D01*
X112992776Y-109046685D02*
X112921347Y-108975257D01*
X112921347Y-108975257D02*
X112778490Y-108903828D01*
X112778490Y-108903828D02*
X112564204Y-108903828D01*
X112564204Y-108903828D02*
X112421347Y-108975257D01*
X112421347Y-108975257D02*
X112349919Y-109118114D01*
X112349919Y-109118114D02*
X112349919Y-109903828D01*
X111064204Y-109832400D02*
X111207061Y-109903828D01*
X111207061Y-109903828D02*
X111492776Y-109903828D01*
X111492776Y-109903828D02*
X111635633Y-109832400D01*
X111635633Y-109832400D02*
X111707061Y-109689542D01*
X111707061Y-109689542D02*
X111707061Y-109118114D01*
X111707061Y-109118114D02*
X111635633Y-108975257D01*
X111635633Y-108975257D02*
X111492776Y-108903828D01*
X111492776Y-108903828D02*
X111207061Y-108903828D01*
X111207061Y-108903828D02*
X111064204Y-108975257D01*
X111064204Y-108975257D02*
X110992776Y-109118114D01*
X110992776Y-109118114D02*
X110992776Y-109260971D01*
X110992776Y-109260971D02*
X111707061Y-109403828D01*
X110135633Y-109903828D02*
X110278490Y-109832400D01*
X110278490Y-109832400D02*
X110349919Y-109689542D01*
X110349919Y-109689542D02*
X110349919Y-108403828D01*
X123349917Y-112890257D02*
X123421346Y-112818828D01*
X123421346Y-112818828D02*
X123564203Y-112604542D01*
X123564203Y-112604542D02*
X123635632Y-112461685D01*
X123635632Y-112461685D02*
X123707060Y-112247400D01*
X123707060Y-112247400D02*
X123778489Y-111890257D01*
X123778489Y-111890257D02*
X123778489Y-111604542D01*
X123778489Y-111604542D02*
X123707060Y-111247400D01*
X123707060Y-111247400D02*
X123635632Y-111033114D01*
X123635632Y-111033114D02*
X123564203Y-110890257D01*
X123564203Y-110890257D02*
X123421346Y-110675971D01*
X123421346Y-110675971D02*
X123349917Y-110604542D01*
X122135632Y-112247400D02*
X122278489Y-112318828D01*
X122278489Y-112318828D02*
X122564203Y-112318828D01*
X122564203Y-112318828D02*
X122707060Y-112247400D01*
X122707060Y-112247400D02*
X122778489Y-112175971D01*
X122778489Y-112175971D02*
X122849917Y-112033114D01*
X122849917Y-112033114D02*
X122849917Y-111604542D01*
X122849917Y-111604542D02*
X122778489Y-111461685D01*
X122778489Y-111461685D02*
X122707060Y-111390257D01*
X122707060Y-111390257D02*
X122564203Y-111318828D01*
X122564203Y-111318828D02*
X122278489Y-111318828D01*
X122278489Y-111318828D02*
X122135632Y-111390257D01*
X121635632Y-112890257D02*
X121564203Y-112818828D01*
X121564203Y-112818828D02*
X121421346Y-112604542D01*
X121421346Y-112604542D02*
X121349918Y-112461685D01*
X121349918Y-112461685D02*
X121278489Y-112247400D01*
X121278489Y-112247400D02*
X121207060Y-111890257D01*
X121207060Y-111890257D02*
X121207060Y-111604542D01*
X121207060Y-111604542D02*
X121278489Y-111247400D01*
X121278489Y-111247400D02*
X121349918Y-111033114D01*
X121349918Y-111033114D02*
X121421346Y-110890257D01*
X121421346Y-110890257D02*
X121564203Y-110675971D01*
X121564203Y-110675971D02*
X121635632Y-110604542D01*
X119421346Y-110961685D02*
X119349918Y-110890257D01*
X119349918Y-110890257D02*
X119207061Y-110818828D01*
X119207061Y-110818828D02*
X118849918Y-110818828D01*
X118849918Y-110818828D02*
X118707061Y-110890257D01*
X118707061Y-110890257D02*
X118635632Y-110961685D01*
X118635632Y-110961685D02*
X118564203Y-111104542D01*
X118564203Y-111104542D02*
X118564203Y-111247400D01*
X118564203Y-111247400D02*
X118635632Y-111461685D01*
X118635632Y-111461685D02*
X119492775Y-112318828D01*
X119492775Y-112318828D02*
X118564203Y-112318828D01*
X117635632Y-110818828D02*
X117492775Y-110818828D01*
X117492775Y-110818828D02*
X117349918Y-110890257D01*
X117349918Y-110890257D02*
X117278490Y-110961685D01*
X117278490Y-110961685D02*
X117207061Y-111104542D01*
X117207061Y-111104542D02*
X117135632Y-111390257D01*
X117135632Y-111390257D02*
X117135632Y-111747400D01*
X117135632Y-111747400D02*
X117207061Y-112033114D01*
X117207061Y-112033114D02*
X117278490Y-112175971D01*
X117278490Y-112175971D02*
X117349918Y-112247400D01*
X117349918Y-112247400D02*
X117492775Y-112318828D01*
X117492775Y-112318828D02*
X117635632Y-112318828D01*
X117635632Y-112318828D02*
X117778490Y-112247400D01*
X117778490Y-112247400D02*
X117849918Y-112175971D01*
X117849918Y-112175971D02*
X117921347Y-112033114D01*
X117921347Y-112033114D02*
X117992775Y-111747400D01*
X117992775Y-111747400D02*
X117992775Y-111390257D01*
X117992775Y-111390257D02*
X117921347Y-111104542D01*
X117921347Y-111104542D02*
X117849918Y-110961685D01*
X117849918Y-110961685D02*
X117778490Y-110890257D01*
X117778490Y-110890257D02*
X117635632Y-110818828D01*
X116564204Y-110961685D02*
X116492776Y-110890257D01*
X116492776Y-110890257D02*
X116349919Y-110818828D01*
X116349919Y-110818828D02*
X115992776Y-110818828D01*
X115992776Y-110818828D02*
X115849919Y-110890257D01*
X115849919Y-110890257D02*
X115778490Y-110961685D01*
X115778490Y-110961685D02*
X115707061Y-111104542D01*
X115707061Y-111104542D02*
X115707061Y-111247400D01*
X115707061Y-111247400D02*
X115778490Y-111461685D01*
X115778490Y-111461685D02*
X116635633Y-112318828D01*
X116635633Y-112318828D02*
X115707061Y-112318828D01*
X115207062Y-110818828D02*
X114278490Y-110818828D01*
X114278490Y-110818828D02*
X114778490Y-111390257D01*
X114778490Y-111390257D02*
X114564205Y-111390257D01*
X114564205Y-111390257D02*
X114421348Y-111461685D01*
X114421348Y-111461685D02*
X114349919Y-111533114D01*
X114349919Y-111533114D02*
X114278490Y-111675971D01*
X114278490Y-111675971D02*
X114278490Y-112033114D01*
X114278490Y-112033114D02*
X114349919Y-112175971D01*
X114349919Y-112175971D02*
X114421348Y-112247400D01*
X114421348Y-112247400D02*
X114564205Y-112318828D01*
X114564205Y-112318828D02*
X114992776Y-112318828D01*
X114992776Y-112318828D02*
X115135633Y-112247400D01*
X115135633Y-112247400D02*
X115207062Y-112175971D01*
X123778489Y-113948114D02*
X123278489Y-113948114D01*
X123064203Y-114733828D02*
X123778489Y-114733828D01*
X123778489Y-114733828D02*
X123778489Y-113233828D01*
X123778489Y-113233828D02*
X123064203Y-113233828D01*
X122421346Y-114590971D02*
X122349917Y-114662400D01*
X122349917Y-114662400D02*
X122421346Y-114733828D01*
X122421346Y-114733828D02*
X122492774Y-114662400D01*
X122492774Y-114662400D02*
X122421346Y-114590971D01*
X122421346Y-114590971D02*
X122421346Y-114733828D01*
X121207060Y-113948114D02*
X120992774Y-114019542D01*
X120992774Y-114019542D02*
X120921345Y-114090971D01*
X120921345Y-114090971D02*
X120849917Y-114233828D01*
X120849917Y-114233828D02*
X120849917Y-114448114D01*
X120849917Y-114448114D02*
X120921345Y-114590971D01*
X120921345Y-114590971D02*
X120992774Y-114662400D01*
X120992774Y-114662400D02*
X121135631Y-114733828D01*
X121135631Y-114733828D02*
X121707060Y-114733828D01*
X121707060Y-114733828D02*
X121707060Y-113233828D01*
X121707060Y-113233828D02*
X121207060Y-113233828D01*
X121207060Y-113233828D02*
X121064203Y-113305257D01*
X121064203Y-113305257D02*
X120992774Y-113376685D01*
X120992774Y-113376685D02*
X120921345Y-113519542D01*
X120921345Y-113519542D02*
X120921345Y-113662400D01*
X120921345Y-113662400D02*
X120992774Y-113805257D01*
X120992774Y-113805257D02*
X121064203Y-113876685D01*
X121064203Y-113876685D02*
X121207060Y-113948114D01*
X121207060Y-113948114D02*
X121707060Y-113948114D01*
X120207060Y-114733828D02*
X120207060Y-113733828D01*
X120207060Y-114019542D02*
X120135631Y-113876685D01*
X120135631Y-113876685D02*
X120064203Y-113805257D01*
X120064203Y-113805257D02*
X119921345Y-113733828D01*
X119921345Y-113733828D02*
X119778488Y-113733828D01*
X119064203Y-114733828D02*
X119207060Y-114662400D01*
X119207060Y-114662400D02*
X119278489Y-114590971D01*
X119278489Y-114590971D02*
X119349917Y-114448114D01*
X119349917Y-114448114D02*
X119349917Y-114019542D01*
X119349917Y-114019542D02*
X119278489Y-113876685D01*
X119278489Y-113876685D02*
X119207060Y-113805257D01*
X119207060Y-113805257D02*
X119064203Y-113733828D01*
X119064203Y-113733828D02*
X118849917Y-113733828D01*
X118849917Y-113733828D02*
X118707060Y-113805257D01*
X118707060Y-113805257D02*
X118635632Y-113876685D01*
X118635632Y-113876685D02*
X118564203Y-114019542D01*
X118564203Y-114019542D02*
X118564203Y-114448114D01*
X118564203Y-114448114D02*
X118635632Y-114590971D01*
X118635632Y-114590971D02*
X118707060Y-114662400D01*
X118707060Y-114662400D02*
X118849917Y-114733828D01*
X118849917Y-114733828D02*
X119064203Y-114733828D01*
X117921346Y-114733828D02*
X117921346Y-113733828D01*
X117921346Y-113876685D02*
X117849917Y-113805257D01*
X117849917Y-113805257D02*
X117707060Y-113733828D01*
X117707060Y-113733828D02*
X117492774Y-113733828D01*
X117492774Y-113733828D02*
X117349917Y-113805257D01*
X117349917Y-113805257D02*
X117278489Y-113948114D01*
X117278489Y-113948114D02*
X117278489Y-114733828D01*
X117278489Y-113948114D02*
X117207060Y-113805257D01*
X117207060Y-113805257D02*
X117064203Y-113733828D01*
X117064203Y-113733828D02*
X116849917Y-113733828D01*
X116849917Y-113733828D02*
X116707060Y-113805257D01*
X116707060Y-113805257D02*
X116635631Y-113948114D01*
X116635631Y-113948114D02*
X116635631Y-114733828D01*
X115921346Y-114733828D02*
X115921346Y-113233828D01*
X115921346Y-113805257D02*
X115778489Y-113733828D01*
X115778489Y-113733828D02*
X115492774Y-113733828D01*
X115492774Y-113733828D02*
X115349917Y-113805257D01*
X115349917Y-113805257D02*
X115278489Y-113876685D01*
X115278489Y-113876685D02*
X115207060Y-114019542D01*
X115207060Y-114019542D02*
X115207060Y-114448114D01*
X115207060Y-114448114D02*
X115278489Y-114590971D01*
X115278489Y-114590971D02*
X115349917Y-114662400D01*
X115349917Y-114662400D02*
X115492774Y-114733828D01*
X115492774Y-114733828D02*
X115778489Y-114733828D01*
X115778489Y-114733828D02*
X115921346Y-114662400D01*
X113921346Y-114733828D02*
X113921346Y-113948114D01*
X113921346Y-113948114D02*
X113992774Y-113805257D01*
X113992774Y-113805257D02*
X114135631Y-113733828D01*
X114135631Y-113733828D02*
X114421346Y-113733828D01*
X114421346Y-113733828D02*
X114564203Y-113805257D01*
X113921346Y-114662400D02*
X114064203Y-114733828D01*
X114064203Y-114733828D02*
X114421346Y-114733828D01*
X114421346Y-114733828D02*
X114564203Y-114662400D01*
X114564203Y-114662400D02*
X114635631Y-114519542D01*
X114635631Y-114519542D02*
X114635631Y-114376685D01*
X114635631Y-114376685D02*
X114564203Y-114233828D01*
X114564203Y-114233828D02*
X114421346Y-114162400D01*
X114421346Y-114162400D02*
X114064203Y-114162400D01*
X114064203Y-114162400D02*
X113921346Y-114090971D01*
X112564203Y-113733828D02*
X112564203Y-114733828D01*
X113207060Y-113733828D02*
X113207060Y-114519542D01*
X113207060Y-114519542D02*
X113135631Y-114662400D01*
X113135631Y-114662400D02*
X112992774Y-114733828D01*
X112992774Y-114733828D02*
X112778488Y-114733828D01*
X112778488Y-114733828D02*
X112635631Y-114662400D01*
X112635631Y-114662400D02*
X112564203Y-114590971D01*
X111207060Y-113733828D02*
X111207060Y-114948114D01*
X111207060Y-114948114D02*
X111278488Y-115090971D01*
X111278488Y-115090971D02*
X111349917Y-115162400D01*
X111349917Y-115162400D02*
X111492774Y-115233828D01*
X111492774Y-115233828D02*
X111707060Y-115233828D01*
X111707060Y-115233828D02*
X111849917Y-115162400D01*
X111207060Y-114662400D02*
X111349917Y-114733828D01*
X111349917Y-114733828D02*
X111635631Y-114733828D01*
X111635631Y-114733828D02*
X111778488Y-114662400D01*
X111778488Y-114662400D02*
X111849917Y-114590971D01*
X111849917Y-114590971D02*
X111921345Y-114448114D01*
X111921345Y-114448114D02*
X111921345Y-114019542D01*
X111921345Y-114019542D02*
X111849917Y-113876685D01*
X111849917Y-113876685D02*
X111778488Y-113805257D01*
X111778488Y-113805257D02*
X111635631Y-113733828D01*
X111635631Y-113733828D02*
X111349917Y-113733828D01*
X111349917Y-113733828D02*
X111207060Y-113805257D01*
X110492774Y-114733828D02*
X110492774Y-113233828D01*
X109849917Y-114733828D02*
X109849917Y-113948114D01*
X109849917Y-113948114D02*
X109921345Y-113805257D01*
X109921345Y-113805257D02*
X110064202Y-113733828D01*
X110064202Y-113733828D02*
X110278488Y-113733828D01*
X110278488Y-113733828D02*
X110421345Y-113805257D01*
X110421345Y-113805257D02*
X110492774Y-113876685D01*
X123992774Y-115648828D02*
X123492774Y-117148828D01*
X123492774Y-117148828D02*
X122992774Y-115648828D01*
X122207060Y-115648828D02*
X122064203Y-115648828D01*
X122064203Y-115648828D02*
X121921346Y-115720257D01*
X121921346Y-115720257D02*
X121849918Y-115791685D01*
X121849918Y-115791685D02*
X121778489Y-115934542D01*
X121778489Y-115934542D02*
X121707060Y-116220257D01*
X121707060Y-116220257D02*
X121707060Y-116577400D01*
X121707060Y-116577400D02*
X121778489Y-116863114D01*
X121778489Y-116863114D02*
X121849918Y-117005971D01*
X121849918Y-117005971D02*
X121921346Y-117077400D01*
X121921346Y-117077400D02*
X122064203Y-117148828D01*
X122064203Y-117148828D02*
X122207060Y-117148828D01*
X122207060Y-117148828D02*
X122349918Y-117077400D01*
X122349918Y-117077400D02*
X122421346Y-117005971D01*
X122421346Y-117005971D02*
X122492775Y-116863114D01*
X122492775Y-116863114D02*
X122564203Y-116577400D01*
X122564203Y-116577400D02*
X122564203Y-116220257D01*
X122564203Y-116220257D02*
X122492775Y-115934542D01*
X122492775Y-115934542D02*
X122421346Y-115791685D01*
X122421346Y-115791685D02*
X122349918Y-115720257D01*
X122349918Y-115720257D02*
X122207060Y-115648828D01*
X121064204Y-117005971D02*
X120992775Y-117077400D01*
X120992775Y-117077400D02*
X121064204Y-117148828D01*
X121064204Y-117148828D02*
X121135632Y-117077400D01*
X121135632Y-117077400D02*
X121064204Y-117005971D01*
X121064204Y-117005971D02*
X121064204Y-117148828D01*
X119564203Y-117148828D02*
X120421346Y-117148828D01*
X119992775Y-117148828D02*
X119992775Y-115648828D01*
X119992775Y-115648828D02*
X120135632Y-115863114D01*
X120135632Y-115863114D02*
X120278489Y-116005971D01*
X120278489Y-116005971D02*
X120421346Y-116077400D01*
D10*
X156825792Y-83848580D02*
X156873411Y-83896200D01*
X156873411Y-83896200D02*
X157016268Y-83943819D01*
X157016268Y-83943819D02*
X157111506Y-83943819D01*
X157111506Y-83943819D02*
X157254363Y-83896200D01*
X157254363Y-83896200D02*
X157349601Y-83800961D01*
X157349601Y-83800961D02*
X157397220Y-83705723D01*
X157397220Y-83705723D02*
X157444839Y-83515247D01*
X157444839Y-83515247D02*
X157444839Y-83372390D01*
X157444839Y-83372390D02*
X157397220Y-83181914D01*
X157397220Y-83181914D02*
X157349601Y-83086676D01*
X157349601Y-83086676D02*
X157254363Y-82991438D01*
X157254363Y-82991438D02*
X157111506Y-82943819D01*
X157111506Y-82943819D02*
X157016268Y-82943819D01*
X157016268Y-82943819D02*
X156873411Y-82991438D01*
X156873411Y-82991438D02*
X156825792Y-83039057D01*
X156540077Y-82943819D02*
X156206744Y-83943819D01*
X156206744Y-83943819D02*
X155873411Y-82943819D01*
X155016268Y-83943819D02*
X155587696Y-83943819D01*
X155301982Y-83943819D02*
X155301982Y-82943819D01*
X155301982Y-82943819D02*
X155397220Y-83086676D01*
X155397220Y-83086676D02*
X155492458Y-83181914D01*
X155492458Y-83181914D02*
X155587696Y-83229533D01*
X117103277Y-90157419D02*
X116531849Y-90157419D01*
X116817563Y-91157419D02*
X116817563Y-90157419D01*
X116293753Y-90157419D02*
X115627087Y-91157419D01*
X115627087Y-90157419D02*
X116293753Y-91157419D01*
D12*
X134243949Y-124231447D02*
X134648711Y-124231447D01*
X134648711Y-124231447D02*
X134696330Y-124255257D01*
X134696330Y-124255257D02*
X134720140Y-124279066D01*
X134720140Y-124279066D02*
X134743949Y-124326685D01*
X134743949Y-124326685D02*
X134743949Y-124421923D01*
X134743949Y-124421923D02*
X134720140Y-124469542D01*
X134720140Y-124469542D02*
X134696330Y-124493352D01*
X134696330Y-124493352D02*
X134648711Y-124517161D01*
X134648711Y-124517161D02*
X134243949Y-124517161D01*
X134291568Y-124731448D02*
X134267759Y-124755257D01*
X134267759Y-124755257D02*
X134243949Y-124802876D01*
X134243949Y-124802876D02*
X134243949Y-124921924D01*
X134243949Y-124921924D02*
X134267759Y-124969543D01*
X134267759Y-124969543D02*
X134291568Y-124993352D01*
X134291568Y-124993352D02*
X134339187Y-125017162D01*
X134339187Y-125017162D02*
X134386806Y-125017162D01*
X134386806Y-125017162D02*
X134458235Y-124993352D01*
X134458235Y-124993352D02*
X134743949Y-124707638D01*
X134743949Y-124707638D02*
X134743949Y-125017162D01*
X144705530Y-102446971D02*
X144729340Y-102423162D01*
X144729340Y-102423162D02*
X144753149Y-102351733D01*
X144753149Y-102351733D02*
X144753149Y-102304114D01*
X144753149Y-102304114D02*
X144729340Y-102232686D01*
X144729340Y-102232686D02*
X144681720Y-102185067D01*
X144681720Y-102185067D02*
X144634101Y-102161257D01*
X144634101Y-102161257D02*
X144538863Y-102137448D01*
X144538863Y-102137448D02*
X144467435Y-102137448D01*
X144467435Y-102137448D02*
X144372197Y-102161257D01*
X144372197Y-102161257D02*
X144324578Y-102185067D01*
X144324578Y-102185067D02*
X144276959Y-102232686D01*
X144276959Y-102232686D02*
X144253149Y-102304114D01*
X144253149Y-102304114D02*
X144253149Y-102351733D01*
X144253149Y-102351733D02*
X144276959Y-102423162D01*
X144276959Y-102423162D02*
X144300768Y-102446971D01*
X144753149Y-102923162D02*
X144753149Y-102637448D01*
X144753149Y-102780305D02*
X144253149Y-102780305D01*
X144253149Y-102780305D02*
X144324578Y-102732686D01*
X144324578Y-102732686D02*
X144372197Y-102685067D01*
X144372197Y-102685067D02*
X144396006Y-102637448D01*
X144300768Y-103113638D02*
X144276959Y-103137447D01*
X144276959Y-103137447D02*
X144253149Y-103185066D01*
X144253149Y-103185066D02*
X144253149Y-103304114D01*
X144253149Y-103304114D02*
X144276959Y-103351733D01*
X144276959Y-103351733D02*
X144300768Y-103375542D01*
X144300768Y-103375542D02*
X144348387Y-103399352D01*
X144348387Y-103399352D02*
X144396006Y-103399352D01*
X144396006Y-103399352D02*
X144467435Y-103375542D01*
X144467435Y-103375542D02*
X144753149Y-103089828D01*
X144753149Y-103089828D02*
X144753149Y-103399352D01*
X108190266Y-85395149D02*
X108190266Y-85752292D01*
X108190266Y-85752292D02*
X108214075Y-85823720D01*
X108214075Y-85823720D02*
X108261694Y-85871340D01*
X108261694Y-85871340D02*
X108333123Y-85895149D01*
X108333123Y-85895149D02*
X108380742Y-85895149D01*
X107999790Y-85395149D02*
X107690266Y-85395149D01*
X107690266Y-85395149D02*
X107856933Y-85585625D01*
X107856933Y-85585625D02*
X107785504Y-85585625D01*
X107785504Y-85585625D02*
X107737885Y-85609435D01*
X107737885Y-85609435D02*
X107714076Y-85633244D01*
X107714076Y-85633244D02*
X107690266Y-85680863D01*
X107690266Y-85680863D02*
X107690266Y-85799911D01*
X107690266Y-85799911D02*
X107714076Y-85847530D01*
X107714076Y-85847530D02*
X107737885Y-85871340D01*
X107737885Y-85871340D02*
X107785504Y-85895149D01*
X107785504Y-85895149D02*
X107928361Y-85895149D01*
X107928361Y-85895149D02*
X107975980Y-85871340D01*
X107975980Y-85871340D02*
X107999790Y-85847530D01*
X143774989Y-97559949D02*
X143774989Y-97059949D01*
X143774989Y-97059949D02*
X143655941Y-97059949D01*
X143655941Y-97059949D02*
X143584513Y-97083759D01*
X143584513Y-97083759D02*
X143536894Y-97131378D01*
X143536894Y-97131378D02*
X143513084Y-97178997D01*
X143513084Y-97178997D02*
X143489275Y-97274235D01*
X143489275Y-97274235D02*
X143489275Y-97345663D01*
X143489275Y-97345663D02*
X143513084Y-97440901D01*
X143513084Y-97440901D02*
X143536894Y-97488520D01*
X143536894Y-97488520D02*
X143584513Y-97536140D01*
X143584513Y-97536140D02*
X143655941Y-97559949D01*
X143655941Y-97559949D02*
X143774989Y-97559949D01*
X143274989Y-97559949D02*
X143274989Y-97059949D01*
X143060703Y-97536140D02*
X142989275Y-97559949D01*
X142989275Y-97559949D02*
X142870227Y-97559949D01*
X142870227Y-97559949D02*
X142822608Y-97536140D01*
X142822608Y-97536140D02*
X142798799Y-97512330D01*
X142798799Y-97512330D02*
X142774989Y-97464711D01*
X142774989Y-97464711D02*
X142774989Y-97417092D01*
X142774989Y-97417092D02*
X142798799Y-97369473D01*
X142798799Y-97369473D02*
X142822608Y-97345663D01*
X142822608Y-97345663D02*
X142870227Y-97321854D01*
X142870227Y-97321854D02*
X142965465Y-97298044D01*
X142965465Y-97298044D02*
X143013084Y-97274235D01*
X143013084Y-97274235D02*
X143036894Y-97250425D01*
X143036894Y-97250425D02*
X143060703Y-97202806D01*
X143060703Y-97202806D02*
X143060703Y-97155187D01*
X143060703Y-97155187D02*
X143036894Y-97107568D01*
X143036894Y-97107568D02*
X143013084Y-97083759D01*
X143013084Y-97083759D02*
X142965465Y-97059949D01*
X142965465Y-97059949D02*
X142846418Y-97059949D01*
X142846418Y-97059949D02*
X142774989Y-97083759D01*
X142560704Y-97559949D02*
X142560704Y-97059949D01*
X142560704Y-97059949D02*
X142370228Y-97059949D01*
X142370228Y-97059949D02*
X142322609Y-97083759D01*
X142322609Y-97083759D02*
X142298799Y-97107568D01*
X142298799Y-97107568D02*
X142274990Y-97155187D01*
X142274990Y-97155187D02*
X142274990Y-97226616D01*
X142274990Y-97226616D02*
X142298799Y-97274235D01*
X142298799Y-97274235D02*
X142322609Y-97298044D01*
X142322609Y-97298044D02*
X142370228Y-97321854D01*
X142370228Y-97321854D02*
X142560704Y-97321854D01*
X141798799Y-97559949D02*
X142084513Y-97559949D01*
X141941656Y-97559949D02*
X141941656Y-97059949D01*
X141941656Y-97059949D02*
X141989275Y-97131378D01*
X141989275Y-97131378D02*
X142036894Y-97178997D01*
X142036894Y-97178997D02*
X142084513Y-97202806D01*
D13*
X131252306Y-96519419D02*
X131823734Y-96519419D01*
X131538020Y-96519419D02*
X131538020Y-95519419D01*
X131538020Y-95519419D02*
X131633258Y-95662276D01*
X131633258Y-95662276D02*
X131728496Y-95757514D01*
X131728496Y-95757514D02*
X131823734Y-95805133D01*
X130871353Y-95614657D02*
X130823734Y-95567038D01*
X130823734Y-95567038D02*
X130728496Y-95519419D01*
X130728496Y-95519419D02*
X130490401Y-95519419D01*
X130490401Y-95519419D02*
X130395163Y-95567038D01*
X130395163Y-95567038D02*
X130347544Y-95614657D01*
X130347544Y-95614657D02*
X130299925Y-95709895D01*
X130299925Y-95709895D02*
X130299925Y-95805133D01*
X130299925Y-95805133D02*
X130347544Y-95947990D01*
X130347544Y-95947990D02*
X130918972Y-96519419D01*
X130918972Y-96519419D02*
X130299925Y-96519419D01*
X140142306Y-96519419D02*
X140713734Y-96519419D01*
X140428020Y-96519419D02*
X140428020Y-95519419D01*
X140428020Y-95519419D02*
X140523258Y-95662276D01*
X140523258Y-95662276D02*
X140618496Y-95757514D01*
X140618496Y-95757514D02*
X140713734Y-95805133D01*
D12*
X131436228Y-125452330D02*
X131460037Y-125476140D01*
X131460037Y-125476140D02*
X131531466Y-125499949D01*
X131531466Y-125499949D02*
X131579085Y-125499949D01*
X131579085Y-125499949D02*
X131650513Y-125476140D01*
X131650513Y-125476140D02*
X131698132Y-125428520D01*
X131698132Y-125428520D02*
X131721942Y-125380901D01*
X131721942Y-125380901D02*
X131745751Y-125285663D01*
X131745751Y-125285663D02*
X131745751Y-125214235D01*
X131745751Y-125214235D02*
X131721942Y-125118997D01*
X131721942Y-125118997D02*
X131698132Y-125071378D01*
X131698132Y-125071378D02*
X131650513Y-125023759D01*
X131650513Y-125023759D02*
X131579085Y-124999949D01*
X131579085Y-124999949D02*
X131531466Y-124999949D01*
X131531466Y-124999949D02*
X131460037Y-125023759D01*
X131460037Y-125023759D02*
X131436228Y-125047568D01*
X131245751Y-125047568D02*
X131221942Y-125023759D01*
X131221942Y-125023759D02*
X131174323Y-124999949D01*
X131174323Y-124999949D02*
X131055275Y-124999949D01*
X131055275Y-124999949D02*
X131007656Y-125023759D01*
X131007656Y-125023759D02*
X130983847Y-125047568D01*
X130983847Y-125047568D02*
X130960037Y-125095187D01*
X130960037Y-125095187D02*
X130960037Y-125142806D01*
X130960037Y-125142806D02*
X130983847Y-125214235D01*
X130983847Y-125214235D02*
X131269561Y-125499949D01*
X131269561Y-125499949D02*
X130960037Y-125499949D01*
X130483847Y-125499949D02*
X130769561Y-125499949D01*
X130626704Y-125499949D02*
X130626704Y-124999949D01*
X130626704Y-124999949D02*
X130674323Y-125071378D01*
X130674323Y-125071378D02*
X130721942Y-125118997D01*
X130721942Y-125118997D02*
X130769561Y-125142806D01*
X143999733Y-99896749D02*
X144166399Y-99658654D01*
X144285447Y-99896749D02*
X144285447Y-99396749D01*
X144285447Y-99396749D02*
X144094971Y-99396749D01*
X144094971Y-99396749D02*
X144047352Y-99420559D01*
X144047352Y-99420559D02*
X144023542Y-99444368D01*
X144023542Y-99444368D02*
X143999733Y-99491987D01*
X143999733Y-99491987D02*
X143999733Y-99563416D01*
X143999733Y-99563416D02*
X144023542Y-99611035D01*
X144023542Y-99611035D02*
X144047352Y-99634844D01*
X144047352Y-99634844D02*
X144094971Y-99658654D01*
X144094971Y-99658654D02*
X144285447Y-99658654D01*
X143547352Y-99396749D02*
X143785447Y-99396749D01*
X143785447Y-99396749D02*
X143809256Y-99634844D01*
X143809256Y-99634844D02*
X143785447Y-99611035D01*
X143785447Y-99611035D02*
X143737828Y-99587225D01*
X143737828Y-99587225D02*
X143618780Y-99587225D01*
X143618780Y-99587225D02*
X143571161Y-99611035D01*
X143571161Y-99611035D02*
X143547352Y-99634844D01*
X143547352Y-99634844D02*
X143523542Y-99682463D01*
X143523542Y-99682463D02*
X143523542Y-99801511D01*
X143523542Y-99801511D02*
X143547352Y-99849130D01*
X143547352Y-99849130D02*
X143571161Y-99872940D01*
X143571161Y-99872940D02*
X143618780Y-99896749D01*
X143618780Y-99896749D02*
X143737828Y-99896749D01*
X143737828Y-99896749D02*
X143785447Y-99872940D01*
X143785447Y-99872940D02*
X143809256Y-99849130D01*
X133377130Y-104783771D02*
X133400940Y-104759962D01*
X133400940Y-104759962D02*
X133424749Y-104688533D01*
X133424749Y-104688533D02*
X133424749Y-104640914D01*
X133424749Y-104640914D02*
X133400940Y-104569486D01*
X133400940Y-104569486D02*
X133353320Y-104521867D01*
X133353320Y-104521867D02*
X133305701Y-104498057D01*
X133305701Y-104498057D02*
X133210463Y-104474248D01*
X133210463Y-104474248D02*
X133139035Y-104474248D01*
X133139035Y-104474248D02*
X133043797Y-104498057D01*
X133043797Y-104498057D02*
X132996178Y-104521867D01*
X132996178Y-104521867D02*
X132948559Y-104569486D01*
X132948559Y-104569486D02*
X132924749Y-104640914D01*
X132924749Y-104640914D02*
X132924749Y-104688533D01*
X132924749Y-104688533D02*
X132948559Y-104759962D01*
X132948559Y-104759962D02*
X132972368Y-104783771D01*
X133424749Y-105259962D02*
X133424749Y-104974248D01*
X133424749Y-105117105D02*
X132924749Y-105117105D01*
X132924749Y-105117105D02*
X132996178Y-105069486D01*
X132996178Y-105069486D02*
X133043797Y-105021867D01*
X133043797Y-105021867D02*
X133067606Y-104974248D01*
X133091416Y-105688533D02*
X133424749Y-105688533D01*
X132900940Y-105569485D02*
X133258082Y-105450438D01*
X133258082Y-105450438D02*
X133258082Y-105759961D01*
X126614951Y-111233149D02*
X126329237Y-111233149D01*
X126472094Y-111733149D02*
X126472094Y-111233149D01*
X126162571Y-111733149D02*
X126162571Y-111233149D01*
X126162571Y-111233149D02*
X125972095Y-111233149D01*
X125972095Y-111233149D02*
X125924476Y-111256959D01*
X125924476Y-111256959D02*
X125900666Y-111280768D01*
X125900666Y-111280768D02*
X125876857Y-111328387D01*
X125876857Y-111328387D02*
X125876857Y-111399816D01*
X125876857Y-111399816D02*
X125900666Y-111447435D01*
X125900666Y-111447435D02*
X125924476Y-111471244D01*
X125924476Y-111471244D02*
X125972095Y-111495054D01*
X125972095Y-111495054D02*
X126162571Y-111495054D01*
X125591142Y-111447435D02*
X125638761Y-111423625D01*
X125638761Y-111423625D02*
X125662571Y-111399816D01*
X125662571Y-111399816D02*
X125686380Y-111352197D01*
X125686380Y-111352197D02*
X125686380Y-111328387D01*
X125686380Y-111328387D02*
X125662571Y-111280768D01*
X125662571Y-111280768D02*
X125638761Y-111256959D01*
X125638761Y-111256959D02*
X125591142Y-111233149D01*
X125591142Y-111233149D02*
X125495904Y-111233149D01*
X125495904Y-111233149D02*
X125448285Y-111256959D01*
X125448285Y-111256959D02*
X125424476Y-111280768D01*
X125424476Y-111280768D02*
X125400666Y-111328387D01*
X125400666Y-111328387D02*
X125400666Y-111352197D01*
X125400666Y-111352197D02*
X125424476Y-111399816D01*
X125424476Y-111399816D02*
X125448285Y-111423625D01*
X125448285Y-111423625D02*
X125495904Y-111447435D01*
X125495904Y-111447435D02*
X125591142Y-111447435D01*
X125591142Y-111447435D02*
X125638761Y-111471244D01*
X125638761Y-111471244D02*
X125662571Y-111495054D01*
X125662571Y-111495054D02*
X125686380Y-111542673D01*
X125686380Y-111542673D02*
X125686380Y-111637911D01*
X125686380Y-111637911D02*
X125662571Y-111685530D01*
X125662571Y-111685530D02*
X125638761Y-111709340D01*
X125638761Y-111709340D02*
X125591142Y-111733149D01*
X125591142Y-111733149D02*
X125495904Y-111733149D01*
X125495904Y-111733149D02*
X125448285Y-111709340D01*
X125448285Y-111709340D02*
X125424476Y-111685530D01*
X125424476Y-111685530D02*
X125400666Y-111637911D01*
X125400666Y-111637911D02*
X125400666Y-111542673D01*
X125400666Y-111542673D02*
X125424476Y-111495054D01*
X125424476Y-111495054D02*
X125448285Y-111471244D01*
X125448285Y-111471244D02*
X125495904Y-111447435D01*
X166790666Y-81090149D02*
X166790666Y-81447292D01*
X166790666Y-81447292D02*
X166814475Y-81518720D01*
X166814475Y-81518720D02*
X166862094Y-81566340D01*
X166862094Y-81566340D02*
X166933523Y-81590149D01*
X166933523Y-81590149D02*
X166981142Y-81590149D01*
X166338285Y-81256816D02*
X166338285Y-81590149D01*
X166457333Y-81066340D02*
X166576380Y-81423482D01*
X166576380Y-81423482D02*
X166266857Y-81423482D01*
X131639428Y-121117130D02*
X131663237Y-121140940D01*
X131663237Y-121140940D02*
X131734666Y-121164749D01*
X131734666Y-121164749D02*
X131782285Y-121164749D01*
X131782285Y-121164749D02*
X131853713Y-121140940D01*
X131853713Y-121140940D02*
X131901332Y-121093320D01*
X131901332Y-121093320D02*
X131925142Y-121045701D01*
X131925142Y-121045701D02*
X131948951Y-120950463D01*
X131948951Y-120950463D02*
X131948951Y-120879035D01*
X131948951Y-120879035D02*
X131925142Y-120783797D01*
X131925142Y-120783797D02*
X131901332Y-120736178D01*
X131901332Y-120736178D02*
X131853713Y-120688559D01*
X131853713Y-120688559D02*
X131782285Y-120664749D01*
X131782285Y-120664749D02*
X131734666Y-120664749D01*
X131734666Y-120664749D02*
X131663237Y-120688559D01*
X131663237Y-120688559D02*
X131639428Y-120712368D01*
X131163237Y-121164749D02*
X131448951Y-121164749D01*
X131306094Y-121164749D02*
X131306094Y-120664749D01*
X131306094Y-120664749D02*
X131353713Y-120736178D01*
X131353713Y-120736178D02*
X131401332Y-120783797D01*
X131401332Y-120783797D02*
X131448951Y-120807606D01*
X130925142Y-121164749D02*
X130829904Y-121164749D01*
X130829904Y-121164749D02*
X130782285Y-121140940D01*
X130782285Y-121140940D02*
X130758476Y-121117130D01*
X130758476Y-121117130D02*
X130710857Y-121045701D01*
X130710857Y-121045701D02*
X130687047Y-120950463D01*
X130687047Y-120950463D02*
X130687047Y-120759987D01*
X130687047Y-120759987D02*
X130710857Y-120712368D01*
X130710857Y-120712368D02*
X130734666Y-120688559D01*
X130734666Y-120688559D02*
X130782285Y-120664749D01*
X130782285Y-120664749D02*
X130877523Y-120664749D01*
X130877523Y-120664749D02*
X130925142Y-120688559D01*
X130925142Y-120688559D02*
X130948952Y-120712368D01*
X130948952Y-120712368D02*
X130972761Y-120759987D01*
X130972761Y-120759987D02*
X130972761Y-120879035D01*
X130972761Y-120879035D02*
X130948952Y-120926654D01*
X130948952Y-120926654D02*
X130925142Y-120950463D01*
X130925142Y-120950463D02*
X130877523Y-120974273D01*
X130877523Y-120974273D02*
X130782285Y-120974273D01*
X130782285Y-120974273D02*
X130734666Y-120950463D01*
X130734666Y-120950463D02*
X130710857Y-120926654D01*
X130710857Y-120926654D02*
X130687047Y-120879035D01*
D10*
X168862333Y-107912819D02*
X168862333Y-108627104D01*
X168862333Y-108627104D02*
X168909952Y-108769961D01*
X168909952Y-108769961D02*
X169005190Y-108865200D01*
X169005190Y-108865200D02*
X169148047Y-108912819D01*
X169148047Y-108912819D02*
X169243285Y-108912819D01*
X167862333Y-108912819D02*
X168433761Y-108912819D01*
X168148047Y-108912819D02*
X168148047Y-107912819D01*
X168148047Y-107912819D02*
X168243285Y-108055676D01*
X168243285Y-108055676D02*
X168338523Y-108150914D01*
X168338523Y-108150914D02*
X168433761Y-108198533D01*
D12*
X126599046Y-107677149D02*
X126313332Y-107677149D01*
X126456189Y-108177149D02*
X126456189Y-107677149D01*
X126146666Y-108177149D02*
X126146666Y-107677149D01*
X126146666Y-107677149D02*
X125956190Y-107677149D01*
X125956190Y-107677149D02*
X125908571Y-107700959D01*
X125908571Y-107700959D02*
X125884761Y-107724768D01*
X125884761Y-107724768D02*
X125860952Y-107772387D01*
X125860952Y-107772387D02*
X125860952Y-107843816D01*
X125860952Y-107843816D02*
X125884761Y-107891435D01*
X125884761Y-107891435D02*
X125908571Y-107915244D01*
X125908571Y-107915244D02*
X125956190Y-107939054D01*
X125956190Y-107939054D02*
X126146666Y-107939054D01*
X125384761Y-108177149D02*
X125670475Y-108177149D01*
X125527618Y-108177149D02*
X125527618Y-107677149D01*
X125527618Y-107677149D02*
X125575237Y-107748578D01*
X125575237Y-107748578D02*
X125622856Y-107796197D01*
X125622856Y-107796197D02*
X125670475Y-107820006D01*
X124908571Y-108177149D02*
X125194285Y-108177149D01*
X125051428Y-108177149D02*
X125051428Y-107677149D01*
X125051428Y-107677149D02*
X125099047Y-107748578D01*
X125099047Y-107748578D02*
X125146666Y-107796197D01*
X125146666Y-107796197D02*
X125194285Y-107820006D01*
X147143930Y-127910771D02*
X147167740Y-127886962D01*
X147167740Y-127886962D02*
X147191549Y-127815533D01*
X147191549Y-127815533D02*
X147191549Y-127767914D01*
X147191549Y-127767914D02*
X147167740Y-127696486D01*
X147167740Y-127696486D02*
X147120120Y-127648867D01*
X147120120Y-127648867D02*
X147072501Y-127625057D01*
X147072501Y-127625057D02*
X146977263Y-127601248D01*
X146977263Y-127601248D02*
X146905835Y-127601248D01*
X146905835Y-127601248D02*
X146810597Y-127625057D01*
X146810597Y-127625057D02*
X146762978Y-127648867D01*
X146762978Y-127648867D02*
X146715359Y-127696486D01*
X146715359Y-127696486D02*
X146691549Y-127767914D01*
X146691549Y-127767914D02*
X146691549Y-127815533D01*
X146691549Y-127815533D02*
X146715359Y-127886962D01*
X146715359Y-127886962D02*
X146739168Y-127910771D01*
X146739168Y-128101248D02*
X146715359Y-128125057D01*
X146715359Y-128125057D02*
X146691549Y-128172676D01*
X146691549Y-128172676D02*
X146691549Y-128291724D01*
X146691549Y-128291724D02*
X146715359Y-128339343D01*
X146715359Y-128339343D02*
X146739168Y-128363152D01*
X146739168Y-128363152D02*
X146786787Y-128386962D01*
X146786787Y-128386962D02*
X146834406Y-128386962D01*
X146834406Y-128386962D02*
X146905835Y-128363152D01*
X146905835Y-128363152D02*
X147191549Y-128077438D01*
X147191549Y-128077438D02*
X147191549Y-128386962D01*
X146691549Y-128553628D02*
X146691549Y-128863152D01*
X146691549Y-128863152D02*
X146882025Y-128696485D01*
X146882025Y-128696485D02*
X146882025Y-128767914D01*
X146882025Y-128767914D02*
X146905835Y-128815533D01*
X146905835Y-128815533D02*
X146929644Y-128839342D01*
X146929644Y-128839342D02*
X146977263Y-128863152D01*
X146977263Y-128863152D02*
X147096311Y-128863152D01*
X147096311Y-128863152D02*
X147143930Y-128839342D01*
X147143930Y-128839342D02*
X147167740Y-128815533D01*
X147167740Y-128815533D02*
X147191549Y-128767914D01*
X147191549Y-128767914D02*
X147191549Y-128625057D01*
X147191549Y-128625057D02*
X147167740Y-128577438D01*
X147167740Y-128577438D02*
X147143930Y-128553628D01*
X135144628Y-101423930D02*
X135168437Y-101447740D01*
X135168437Y-101447740D02*
X135239866Y-101471549D01*
X135239866Y-101471549D02*
X135287485Y-101471549D01*
X135287485Y-101471549D02*
X135358913Y-101447740D01*
X135358913Y-101447740D02*
X135406532Y-101400120D01*
X135406532Y-101400120D02*
X135430342Y-101352501D01*
X135430342Y-101352501D02*
X135454151Y-101257263D01*
X135454151Y-101257263D02*
X135454151Y-101185835D01*
X135454151Y-101185835D02*
X135430342Y-101090597D01*
X135430342Y-101090597D02*
X135406532Y-101042978D01*
X135406532Y-101042978D02*
X135358913Y-100995359D01*
X135358913Y-100995359D02*
X135287485Y-100971549D01*
X135287485Y-100971549D02*
X135239866Y-100971549D01*
X135239866Y-100971549D02*
X135168437Y-100995359D01*
X135168437Y-100995359D02*
X135144628Y-101019168D01*
X134668437Y-101471549D02*
X134954151Y-101471549D01*
X134811294Y-101471549D02*
X134811294Y-100971549D01*
X134811294Y-100971549D02*
X134858913Y-101042978D01*
X134858913Y-101042978D02*
X134906532Y-101090597D01*
X134906532Y-101090597D02*
X134954151Y-101114406D01*
X134501771Y-100971549D02*
X134192247Y-100971549D01*
X134192247Y-100971549D02*
X134358914Y-101162025D01*
X134358914Y-101162025D02*
X134287485Y-101162025D01*
X134287485Y-101162025D02*
X134239866Y-101185835D01*
X134239866Y-101185835D02*
X134216057Y-101209644D01*
X134216057Y-101209644D02*
X134192247Y-101257263D01*
X134192247Y-101257263D02*
X134192247Y-101376311D01*
X134192247Y-101376311D02*
X134216057Y-101423930D01*
X134216057Y-101423930D02*
X134239866Y-101447740D01*
X134239866Y-101447740D02*
X134287485Y-101471549D01*
X134287485Y-101471549D02*
X134430342Y-101471549D01*
X134430342Y-101471549D02*
X134477961Y-101447740D01*
X134477961Y-101447740D02*
X134501771Y-101423930D01*
X131400628Y-122861530D02*
X131424437Y-122885340D01*
X131424437Y-122885340D02*
X131495866Y-122909149D01*
X131495866Y-122909149D02*
X131543485Y-122909149D01*
X131543485Y-122909149D02*
X131614913Y-122885340D01*
X131614913Y-122885340D02*
X131662532Y-122837720D01*
X131662532Y-122837720D02*
X131686342Y-122790101D01*
X131686342Y-122790101D02*
X131710151Y-122694863D01*
X131710151Y-122694863D02*
X131710151Y-122623435D01*
X131710151Y-122623435D02*
X131686342Y-122528197D01*
X131686342Y-122528197D02*
X131662532Y-122480578D01*
X131662532Y-122480578D02*
X131614913Y-122432959D01*
X131614913Y-122432959D02*
X131543485Y-122409149D01*
X131543485Y-122409149D02*
X131495866Y-122409149D01*
X131495866Y-122409149D02*
X131424437Y-122432959D01*
X131424437Y-122432959D02*
X131400628Y-122456768D01*
X130924437Y-122909149D02*
X131210151Y-122909149D01*
X131067294Y-122909149D02*
X131067294Y-122409149D01*
X131067294Y-122409149D02*
X131114913Y-122480578D01*
X131114913Y-122480578D02*
X131162532Y-122528197D01*
X131162532Y-122528197D02*
X131210151Y-122552006D01*
X130757771Y-122409149D02*
X130424438Y-122409149D01*
X130424438Y-122409149D02*
X130638723Y-122909149D01*
X142866228Y-109043930D02*
X142890037Y-109067740D01*
X142890037Y-109067740D02*
X142961466Y-109091549D01*
X142961466Y-109091549D02*
X143009085Y-109091549D01*
X143009085Y-109091549D02*
X143080513Y-109067740D01*
X143080513Y-109067740D02*
X143128132Y-109020120D01*
X143128132Y-109020120D02*
X143151942Y-108972501D01*
X143151942Y-108972501D02*
X143175751Y-108877263D01*
X143175751Y-108877263D02*
X143175751Y-108805835D01*
X143175751Y-108805835D02*
X143151942Y-108710597D01*
X143151942Y-108710597D02*
X143128132Y-108662978D01*
X143128132Y-108662978D02*
X143080513Y-108615359D01*
X143080513Y-108615359D02*
X143009085Y-108591549D01*
X143009085Y-108591549D02*
X142961466Y-108591549D01*
X142961466Y-108591549D02*
X142890037Y-108615359D01*
X142890037Y-108615359D02*
X142866228Y-108639168D01*
X142390037Y-109091549D02*
X142675751Y-109091549D01*
X142532894Y-109091549D02*
X142532894Y-108591549D01*
X142532894Y-108591549D02*
X142580513Y-108662978D01*
X142580513Y-108662978D02*
X142628132Y-108710597D01*
X142628132Y-108710597D02*
X142675751Y-108734406D01*
X142080514Y-108591549D02*
X142032895Y-108591549D01*
X142032895Y-108591549D02*
X141985276Y-108615359D01*
X141985276Y-108615359D02*
X141961466Y-108639168D01*
X141961466Y-108639168D02*
X141937657Y-108686787D01*
X141937657Y-108686787D02*
X141913847Y-108782025D01*
X141913847Y-108782025D02*
X141913847Y-108901073D01*
X141913847Y-108901073D02*
X141937657Y-108996311D01*
X141937657Y-108996311D02*
X141961466Y-109043930D01*
X141961466Y-109043930D02*
X141985276Y-109067740D01*
X141985276Y-109067740D02*
X142032895Y-109091549D01*
X142032895Y-109091549D02*
X142080514Y-109091549D01*
X142080514Y-109091549D02*
X142128133Y-109067740D01*
X142128133Y-109067740D02*
X142151942Y-109043930D01*
X142151942Y-109043930D02*
X142175752Y-108996311D01*
X142175752Y-108996311D02*
X142199561Y-108901073D01*
X142199561Y-108901073D02*
X142199561Y-108782025D01*
X142199561Y-108782025D02*
X142175752Y-108686787D01*
X142175752Y-108686787D02*
X142151942Y-108639168D01*
X142151942Y-108639168D02*
X142128133Y-108615359D01*
X142128133Y-108615359D02*
X142080514Y-108591549D01*
X149023530Y-120836571D02*
X149047340Y-120812762D01*
X149047340Y-120812762D02*
X149071149Y-120741333D01*
X149071149Y-120741333D02*
X149071149Y-120693714D01*
X149071149Y-120693714D02*
X149047340Y-120622286D01*
X149047340Y-120622286D02*
X148999720Y-120574667D01*
X148999720Y-120574667D02*
X148952101Y-120550857D01*
X148952101Y-120550857D02*
X148856863Y-120527048D01*
X148856863Y-120527048D02*
X148785435Y-120527048D01*
X148785435Y-120527048D02*
X148690197Y-120550857D01*
X148690197Y-120550857D02*
X148642578Y-120574667D01*
X148642578Y-120574667D02*
X148594959Y-120622286D01*
X148594959Y-120622286D02*
X148571149Y-120693714D01*
X148571149Y-120693714D02*
X148571149Y-120741333D01*
X148571149Y-120741333D02*
X148594959Y-120812762D01*
X148594959Y-120812762D02*
X148618768Y-120836571D01*
X148618768Y-121027048D02*
X148594959Y-121050857D01*
X148594959Y-121050857D02*
X148571149Y-121098476D01*
X148571149Y-121098476D02*
X148571149Y-121217524D01*
X148571149Y-121217524D02*
X148594959Y-121265143D01*
X148594959Y-121265143D02*
X148618768Y-121288952D01*
X148618768Y-121288952D02*
X148666387Y-121312762D01*
X148666387Y-121312762D02*
X148714006Y-121312762D01*
X148714006Y-121312762D02*
X148785435Y-121288952D01*
X148785435Y-121288952D02*
X149071149Y-121003238D01*
X149071149Y-121003238D02*
X149071149Y-121312762D01*
X148618768Y-121503238D02*
X148594959Y-121527047D01*
X148594959Y-121527047D02*
X148571149Y-121574666D01*
X148571149Y-121574666D02*
X148571149Y-121693714D01*
X148571149Y-121693714D02*
X148594959Y-121741333D01*
X148594959Y-121741333D02*
X148618768Y-121765142D01*
X148618768Y-121765142D02*
X148666387Y-121788952D01*
X148666387Y-121788952D02*
X148714006Y-121788952D01*
X148714006Y-121788952D02*
X148785435Y-121765142D01*
X148785435Y-121765142D02*
X149071149Y-121479428D01*
X149071149Y-121479428D02*
X149071149Y-121788952D01*
X126599046Y-106534149D02*
X126313332Y-106534149D01*
X126456189Y-107034149D02*
X126456189Y-106534149D01*
X126146666Y-107034149D02*
X126146666Y-106534149D01*
X126146666Y-106534149D02*
X125956190Y-106534149D01*
X125956190Y-106534149D02*
X125908571Y-106557959D01*
X125908571Y-106557959D02*
X125884761Y-106581768D01*
X125884761Y-106581768D02*
X125860952Y-106629387D01*
X125860952Y-106629387D02*
X125860952Y-106700816D01*
X125860952Y-106700816D02*
X125884761Y-106748435D01*
X125884761Y-106748435D02*
X125908571Y-106772244D01*
X125908571Y-106772244D02*
X125956190Y-106796054D01*
X125956190Y-106796054D02*
X126146666Y-106796054D01*
X125384761Y-107034149D02*
X125670475Y-107034149D01*
X125527618Y-107034149D02*
X125527618Y-106534149D01*
X125527618Y-106534149D02*
X125575237Y-106605578D01*
X125575237Y-106605578D02*
X125622856Y-106653197D01*
X125622856Y-106653197D02*
X125670475Y-106677006D01*
X125194285Y-106581768D02*
X125170476Y-106557959D01*
X125170476Y-106557959D02*
X125122857Y-106534149D01*
X125122857Y-106534149D02*
X125003809Y-106534149D01*
X125003809Y-106534149D02*
X124956190Y-106557959D01*
X124956190Y-106557959D02*
X124932381Y-106581768D01*
X124932381Y-106581768D02*
X124908571Y-106629387D01*
X124908571Y-106629387D02*
X124908571Y-106677006D01*
X124908571Y-106677006D02*
X124932381Y-106748435D01*
X124932381Y-106748435D02*
X125218095Y-107034149D01*
X125218095Y-107034149D02*
X124908571Y-107034149D01*
X126614951Y-113392149D02*
X126329237Y-113392149D01*
X126472094Y-113892149D02*
X126472094Y-113392149D01*
X126162571Y-113892149D02*
X126162571Y-113392149D01*
X126162571Y-113392149D02*
X125972095Y-113392149D01*
X125972095Y-113392149D02*
X125924476Y-113415959D01*
X125924476Y-113415959D02*
X125900666Y-113439768D01*
X125900666Y-113439768D02*
X125876857Y-113487387D01*
X125876857Y-113487387D02*
X125876857Y-113558816D01*
X125876857Y-113558816D02*
X125900666Y-113606435D01*
X125900666Y-113606435D02*
X125924476Y-113630244D01*
X125924476Y-113630244D02*
X125972095Y-113654054D01*
X125972095Y-113654054D02*
X126162571Y-113654054D01*
X125448285Y-113392149D02*
X125543523Y-113392149D01*
X125543523Y-113392149D02*
X125591142Y-113415959D01*
X125591142Y-113415959D02*
X125614952Y-113439768D01*
X125614952Y-113439768D02*
X125662571Y-113511197D01*
X125662571Y-113511197D02*
X125686380Y-113606435D01*
X125686380Y-113606435D02*
X125686380Y-113796911D01*
X125686380Y-113796911D02*
X125662571Y-113844530D01*
X125662571Y-113844530D02*
X125638761Y-113868340D01*
X125638761Y-113868340D02*
X125591142Y-113892149D01*
X125591142Y-113892149D02*
X125495904Y-113892149D01*
X125495904Y-113892149D02*
X125448285Y-113868340D01*
X125448285Y-113868340D02*
X125424476Y-113844530D01*
X125424476Y-113844530D02*
X125400666Y-113796911D01*
X125400666Y-113796911D02*
X125400666Y-113677863D01*
X125400666Y-113677863D02*
X125424476Y-113630244D01*
X125424476Y-113630244D02*
X125448285Y-113606435D01*
X125448285Y-113606435D02*
X125495904Y-113582625D01*
X125495904Y-113582625D02*
X125591142Y-113582625D01*
X125591142Y-113582625D02*
X125638761Y-113606435D01*
X125638761Y-113606435D02*
X125662571Y-113630244D01*
X125662571Y-113630244D02*
X125686380Y-113677863D01*
X126599046Y-108820149D02*
X126313332Y-108820149D01*
X126456189Y-109320149D02*
X126456189Y-108820149D01*
X126146666Y-109320149D02*
X126146666Y-108820149D01*
X126146666Y-108820149D02*
X125956190Y-108820149D01*
X125956190Y-108820149D02*
X125908571Y-108843959D01*
X125908571Y-108843959D02*
X125884761Y-108867768D01*
X125884761Y-108867768D02*
X125860952Y-108915387D01*
X125860952Y-108915387D02*
X125860952Y-108986816D01*
X125860952Y-108986816D02*
X125884761Y-109034435D01*
X125884761Y-109034435D02*
X125908571Y-109058244D01*
X125908571Y-109058244D02*
X125956190Y-109082054D01*
X125956190Y-109082054D02*
X126146666Y-109082054D01*
X125384761Y-109320149D02*
X125670475Y-109320149D01*
X125527618Y-109320149D02*
X125527618Y-108820149D01*
X125527618Y-108820149D02*
X125575237Y-108891578D01*
X125575237Y-108891578D02*
X125622856Y-108939197D01*
X125622856Y-108939197D02*
X125670475Y-108963006D01*
X125075238Y-108820149D02*
X125027619Y-108820149D01*
X125027619Y-108820149D02*
X124980000Y-108843959D01*
X124980000Y-108843959D02*
X124956190Y-108867768D01*
X124956190Y-108867768D02*
X124932381Y-108915387D01*
X124932381Y-108915387D02*
X124908571Y-109010625D01*
X124908571Y-109010625D02*
X124908571Y-109129673D01*
X124908571Y-109129673D02*
X124932381Y-109224911D01*
X124932381Y-109224911D02*
X124956190Y-109272530D01*
X124956190Y-109272530D02*
X124980000Y-109296340D01*
X124980000Y-109296340D02*
X125027619Y-109320149D01*
X125027619Y-109320149D02*
X125075238Y-109320149D01*
X125075238Y-109320149D02*
X125122857Y-109296340D01*
X125122857Y-109296340D02*
X125146666Y-109272530D01*
X125146666Y-109272530D02*
X125170476Y-109224911D01*
X125170476Y-109224911D02*
X125194285Y-109129673D01*
X125194285Y-109129673D02*
X125194285Y-109010625D01*
X125194285Y-109010625D02*
X125170476Y-108915387D01*
X125170476Y-108915387D02*
X125146666Y-108867768D01*
X125146666Y-108867768D02*
X125122857Y-108843959D01*
X125122857Y-108843959D02*
X125075238Y-108820149D01*
X126596951Y-110072149D02*
X126311237Y-110072149D01*
X126454094Y-110572149D02*
X126454094Y-110072149D01*
X126144571Y-110572149D02*
X126144571Y-110072149D01*
X126144571Y-110072149D02*
X125954095Y-110072149D01*
X125954095Y-110072149D02*
X125906476Y-110095959D01*
X125906476Y-110095959D02*
X125882666Y-110119768D01*
X125882666Y-110119768D02*
X125858857Y-110167387D01*
X125858857Y-110167387D02*
X125858857Y-110238816D01*
X125858857Y-110238816D02*
X125882666Y-110286435D01*
X125882666Y-110286435D02*
X125906476Y-110310244D01*
X125906476Y-110310244D02*
X125954095Y-110334054D01*
X125954095Y-110334054D02*
X126144571Y-110334054D01*
X125620761Y-110572149D02*
X125525523Y-110572149D01*
X125525523Y-110572149D02*
X125477904Y-110548340D01*
X125477904Y-110548340D02*
X125454095Y-110524530D01*
X125454095Y-110524530D02*
X125406476Y-110453101D01*
X125406476Y-110453101D02*
X125382666Y-110357863D01*
X125382666Y-110357863D02*
X125382666Y-110167387D01*
X125382666Y-110167387D02*
X125406476Y-110119768D01*
X125406476Y-110119768D02*
X125430285Y-110095959D01*
X125430285Y-110095959D02*
X125477904Y-110072149D01*
X125477904Y-110072149D02*
X125573142Y-110072149D01*
X125573142Y-110072149D02*
X125620761Y-110095959D01*
X125620761Y-110095959D02*
X125644571Y-110119768D01*
X125644571Y-110119768D02*
X125668380Y-110167387D01*
X125668380Y-110167387D02*
X125668380Y-110286435D01*
X125668380Y-110286435D02*
X125644571Y-110334054D01*
X125644571Y-110334054D02*
X125620761Y-110357863D01*
X125620761Y-110357863D02*
X125573142Y-110381673D01*
X125573142Y-110381673D02*
X125477904Y-110381673D01*
X125477904Y-110381673D02*
X125430285Y-110357863D01*
X125430285Y-110357863D02*
X125406476Y-110334054D01*
X125406476Y-110334054D02*
X125382666Y-110286435D01*
X140148428Y-119178530D02*
X140172237Y-119202340D01*
X140172237Y-119202340D02*
X140243666Y-119226149D01*
X140243666Y-119226149D02*
X140291285Y-119226149D01*
X140291285Y-119226149D02*
X140362713Y-119202340D01*
X140362713Y-119202340D02*
X140410332Y-119154720D01*
X140410332Y-119154720D02*
X140434142Y-119107101D01*
X140434142Y-119107101D02*
X140457951Y-119011863D01*
X140457951Y-119011863D02*
X140457951Y-118940435D01*
X140457951Y-118940435D02*
X140434142Y-118845197D01*
X140434142Y-118845197D02*
X140410332Y-118797578D01*
X140410332Y-118797578D02*
X140362713Y-118749959D01*
X140362713Y-118749959D02*
X140291285Y-118726149D01*
X140291285Y-118726149D02*
X140243666Y-118726149D01*
X140243666Y-118726149D02*
X140172237Y-118749959D01*
X140172237Y-118749959D02*
X140148428Y-118773768D01*
X139957951Y-118773768D02*
X139934142Y-118749959D01*
X139934142Y-118749959D02*
X139886523Y-118726149D01*
X139886523Y-118726149D02*
X139767475Y-118726149D01*
X139767475Y-118726149D02*
X139719856Y-118749959D01*
X139719856Y-118749959D02*
X139696047Y-118773768D01*
X139696047Y-118773768D02*
X139672237Y-118821387D01*
X139672237Y-118821387D02*
X139672237Y-118869006D01*
X139672237Y-118869006D02*
X139696047Y-118940435D01*
X139696047Y-118940435D02*
X139981761Y-119226149D01*
X139981761Y-119226149D02*
X139672237Y-119226149D01*
X139362714Y-118726149D02*
X139315095Y-118726149D01*
X139315095Y-118726149D02*
X139267476Y-118749959D01*
X139267476Y-118749959D02*
X139243666Y-118773768D01*
X139243666Y-118773768D02*
X139219857Y-118821387D01*
X139219857Y-118821387D02*
X139196047Y-118916625D01*
X139196047Y-118916625D02*
X139196047Y-119035673D01*
X139196047Y-119035673D02*
X139219857Y-119130911D01*
X139219857Y-119130911D02*
X139243666Y-119178530D01*
X139243666Y-119178530D02*
X139267476Y-119202340D01*
X139267476Y-119202340D02*
X139315095Y-119226149D01*
X139315095Y-119226149D02*
X139362714Y-119226149D01*
X139362714Y-119226149D02*
X139410333Y-119202340D01*
X139410333Y-119202340D02*
X139434142Y-119178530D01*
X139434142Y-119178530D02*
X139457952Y-119130911D01*
X139457952Y-119130911D02*
X139481761Y-119035673D01*
X139481761Y-119035673D02*
X139481761Y-118916625D01*
X139481761Y-118916625D02*
X139457952Y-118821387D01*
X139457952Y-118821387D02*
X139434142Y-118773768D01*
X139434142Y-118773768D02*
X139410333Y-118749959D01*
X139410333Y-118749959D02*
X139362714Y-118726149D01*
X148889533Y-103963930D02*
X148913342Y-103987740D01*
X148913342Y-103987740D02*
X148984771Y-104011549D01*
X148984771Y-104011549D02*
X149032390Y-104011549D01*
X149032390Y-104011549D02*
X149103818Y-103987740D01*
X149103818Y-103987740D02*
X149151437Y-103940120D01*
X149151437Y-103940120D02*
X149175247Y-103892501D01*
X149175247Y-103892501D02*
X149199056Y-103797263D01*
X149199056Y-103797263D02*
X149199056Y-103725835D01*
X149199056Y-103725835D02*
X149175247Y-103630597D01*
X149175247Y-103630597D02*
X149151437Y-103582978D01*
X149151437Y-103582978D02*
X149103818Y-103535359D01*
X149103818Y-103535359D02*
X149032390Y-103511549D01*
X149032390Y-103511549D02*
X148984771Y-103511549D01*
X148984771Y-103511549D02*
X148913342Y-103535359D01*
X148913342Y-103535359D02*
X148889533Y-103559168D01*
X148722866Y-103511549D02*
X148413342Y-103511549D01*
X148413342Y-103511549D02*
X148580009Y-103702025D01*
X148580009Y-103702025D02*
X148508580Y-103702025D01*
X148508580Y-103702025D02*
X148460961Y-103725835D01*
X148460961Y-103725835D02*
X148437152Y-103749644D01*
X148437152Y-103749644D02*
X148413342Y-103797263D01*
X148413342Y-103797263D02*
X148413342Y-103916311D01*
X148413342Y-103916311D02*
X148437152Y-103963930D01*
X148437152Y-103963930D02*
X148460961Y-103987740D01*
X148460961Y-103987740D02*
X148508580Y-104011549D01*
X148508580Y-104011549D02*
X148651437Y-104011549D01*
X148651437Y-104011549D02*
X148699056Y-103987740D01*
X148699056Y-103987740D02*
X148722866Y-103963930D01*
X131782333Y-130681549D02*
X131948999Y-130443454D01*
X132068047Y-130681549D02*
X132068047Y-130181549D01*
X132068047Y-130181549D02*
X131877571Y-130181549D01*
X131877571Y-130181549D02*
X131829952Y-130205359D01*
X131829952Y-130205359D02*
X131806142Y-130229168D01*
X131806142Y-130229168D02*
X131782333Y-130276787D01*
X131782333Y-130276787D02*
X131782333Y-130348216D01*
X131782333Y-130348216D02*
X131806142Y-130395835D01*
X131806142Y-130395835D02*
X131829952Y-130419644D01*
X131829952Y-130419644D02*
X131877571Y-130443454D01*
X131877571Y-130443454D02*
X132068047Y-130443454D01*
X131615666Y-130181549D02*
X131282333Y-130181549D01*
X131282333Y-130181549D02*
X131496618Y-130681549D01*
X148876533Y-107059549D02*
X149114628Y-107059549D01*
X149114628Y-107059549D02*
X149114628Y-106559549D01*
X148733675Y-106607168D02*
X148709866Y-106583359D01*
X148709866Y-106583359D02*
X148662247Y-106559549D01*
X148662247Y-106559549D02*
X148543199Y-106559549D01*
X148543199Y-106559549D02*
X148495580Y-106583359D01*
X148495580Y-106583359D02*
X148471771Y-106607168D01*
X148471771Y-106607168D02*
X148447961Y-106654787D01*
X148447961Y-106654787D02*
X148447961Y-106702406D01*
X148447961Y-106702406D02*
X148471771Y-106773835D01*
X148471771Y-106773835D02*
X148757485Y-107059549D01*
X148757485Y-107059549D02*
X148447961Y-107059549D01*
X131766428Y-129211530D02*
X131790237Y-129235340D01*
X131790237Y-129235340D02*
X131861666Y-129259149D01*
X131861666Y-129259149D02*
X131909285Y-129259149D01*
X131909285Y-129259149D02*
X131980713Y-129235340D01*
X131980713Y-129235340D02*
X132028332Y-129187720D01*
X132028332Y-129187720D02*
X132052142Y-129140101D01*
X132052142Y-129140101D02*
X132075951Y-129044863D01*
X132075951Y-129044863D02*
X132075951Y-128973435D01*
X132075951Y-128973435D02*
X132052142Y-128878197D01*
X132052142Y-128878197D02*
X132028332Y-128830578D01*
X132028332Y-128830578D02*
X131980713Y-128782959D01*
X131980713Y-128782959D02*
X131909285Y-128759149D01*
X131909285Y-128759149D02*
X131861666Y-128759149D01*
X131861666Y-128759149D02*
X131790237Y-128782959D01*
X131790237Y-128782959D02*
X131766428Y-128806768D01*
X131575951Y-128806768D02*
X131552142Y-128782959D01*
X131552142Y-128782959D02*
X131504523Y-128759149D01*
X131504523Y-128759149D02*
X131385475Y-128759149D01*
X131385475Y-128759149D02*
X131337856Y-128782959D01*
X131337856Y-128782959D02*
X131314047Y-128806768D01*
X131314047Y-128806768D02*
X131290237Y-128854387D01*
X131290237Y-128854387D02*
X131290237Y-128902006D01*
X131290237Y-128902006D02*
X131314047Y-128973435D01*
X131314047Y-128973435D02*
X131599761Y-129259149D01*
X131599761Y-129259149D02*
X131290237Y-129259149D01*
X130837857Y-128759149D02*
X131075952Y-128759149D01*
X131075952Y-128759149D02*
X131099761Y-128997244D01*
X131099761Y-128997244D02*
X131075952Y-128973435D01*
X131075952Y-128973435D02*
X131028333Y-128949625D01*
X131028333Y-128949625D02*
X130909285Y-128949625D01*
X130909285Y-128949625D02*
X130861666Y-128973435D01*
X130861666Y-128973435D02*
X130837857Y-128997244D01*
X130837857Y-128997244D02*
X130814047Y-129044863D01*
X130814047Y-129044863D02*
X130814047Y-129163911D01*
X130814047Y-129163911D02*
X130837857Y-129211530D01*
X130837857Y-129211530D02*
X130861666Y-129235340D01*
X130861666Y-129235340D02*
X130909285Y-129259149D01*
X130909285Y-129259149D02*
X131028333Y-129259149D01*
X131028333Y-129259149D02*
X131075952Y-129235340D01*
X131075952Y-129235340D02*
X131099761Y-129211530D01*
X137191952Y-105902949D02*
X137191952Y-106307711D01*
X137191952Y-106307711D02*
X137168142Y-106355330D01*
X137168142Y-106355330D02*
X137144333Y-106379140D01*
X137144333Y-106379140D02*
X137096714Y-106402949D01*
X137096714Y-106402949D02*
X137001476Y-106402949D01*
X137001476Y-106402949D02*
X136953857Y-106379140D01*
X136953857Y-106379140D02*
X136930047Y-106355330D01*
X136930047Y-106355330D02*
X136906238Y-106307711D01*
X136906238Y-106307711D02*
X136906238Y-105902949D01*
X136406237Y-106402949D02*
X136691951Y-106402949D01*
X136549094Y-106402949D02*
X136549094Y-105902949D01*
X136549094Y-105902949D02*
X136596713Y-105974378D01*
X136596713Y-105974378D02*
X136644332Y-106021997D01*
X136644332Y-106021997D02*
X136691951Y-106045806D01*
X131765828Y-127179530D02*
X131789637Y-127203340D01*
X131789637Y-127203340D02*
X131861066Y-127227149D01*
X131861066Y-127227149D02*
X131908685Y-127227149D01*
X131908685Y-127227149D02*
X131980113Y-127203340D01*
X131980113Y-127203340D02*
X132027732Y-127155720D01*
X132027732Y-127155720D02*
X132051542Y-127108101D01*
X132051542Y-127108101D02*
X132075351Y-127012863D01*
X132075351Y-127012863D02*
X132075351Y-126941435D01*
X132075351Y-126941435D02*
X132051542Y-126846197D01*
X132051542Y-126846197D02*
X132027732Y-126798578D01*
X132027732Y-126798578D02*
X131980113Y-126750959D01*
X131980113Y-126750959D02*
X131908685Y-126727149D01*
X131908685Y-126727149D02*
X131861066Y-126727149D01*
X131861066Y-126727149D02*
X131789637Y-126750959D01*
X131789637Y-126750959D02*
X131765828Y-126774768D01*
X131575351Y-126774768D02*
X131551542Y-126750959D01*
X131551542Y-126750959D02*
X131503923Y-126727149D01*
X131503923Y-126727149D02*
X131384875Y-126727149D01*
X131384875Y-126727149D02*
X131337256Y-126750959D01*
X131337256Y-126750959D02*
X131313447Y-126774768D01*
X131313447Y-126774768D02*
X131289637Y-126822387D01*
X131289637Y-126822387D02*
X131289637Y-126870006D01*
X131289637Y-126870006D02*
X131313447Y-126941435D01*
X131313447Y-126941435D02*
X131599161Y-127227149D01*
X131599161Y-127227149D02*
X131289637Y-127227149D01*
X130861066Y-126893816D02*
X130861066Y-127227149D01*
X130980114Y-126703340D02*
X131099161Y-127060482D01*
X131099161Y-127060482D02*
X130789638Y-127060482D01*
X145975530Y-97757466D02*
X145999340Y-97733657D01*
X145999340Y-97733657D02*
X146023149Y-97662228D01*
X146023149Y-97662228D02*
X146023149Y-97614609D01*
X146023149Y-97614609D02*
X145999340Y-97543181D01*
X145999340Y-97543181D02*
X145951720Y-97495562D01*
X145951720Y-97495562D02*
X145904101Y-97471752D01*
X145904101Y-97471752D02*
X145808863Y-97447943D01*
X145808863Y-97447943D02*
X145737435Y-97447943D01*
X145737435Y-97447943D02*
X145642197Y-97471752D01*
X145642197Y-97471752D02*
X145594578Y-97495562D01*
X145594578Y-97495562D02*
X145546959Y-97543181D01*
X145546959Y-97543181D02*
X145523149Y-97614609D01*
X145523149Y-97614609D02*
X145523149Y-97662228D01*
X145523149Y-97662228D02*
X145546959Y-97733657D01*
X145546959Y-97733657D02*
X145570768Y-97757466D01*
X145570768Y-97947943D02*
X145546959Y-97971752D01*
X145546959Y-97971752D02*
X145523149Y-98019371D01*
X145523149Y-98019371D02*
X145523149Y-98138419D01*
X145523149Y-98138419D02*
X145546959Y-98186038D01*
X145546959Y-98186038D02*
X145570768Y-98209847D01*
X145570768Y-98209847D02*
X145618387Y-98233657D01*
X145618387Y-98233657D02*
X145666006Y-98233657D01*
X145666006Y-98233657D02*
X145737435Y-98209847D01*
X145737435Y-98209847D02*
X146023149Y-97924133D01*
X146023149Y-97924133D02*
X146023149Y-98233657D01*
X144753149Y-104564666D02*
X144515054Y-104398000D01*
X144753149Y-104278952D02*
X144253149Y-104278952D01*
X144253149Y-104278952D02*
X144253149Y-104469428D01*
X144253149Y-104469428D02*
X144276959Y-104517047D01*
X144276959Y-104517047D02*
X144300768Y-104540857D01*
X144300768Y-104540857D02*
X144348387Y-104564666D01*
X144348387Y-104564666D02*
X144419816Y-104564666D01*
X144419816Y-104564666D02*
X144467435Y-104540857D01*
X144467435Y-104540857D02*
X144491244Y-104517047D01*
X144491244Y-104517047D02*
X144515054Y-104469428D01*
X144515054Y-104469428D02*
X144515054Y-104278952D01*
X144419816Y-104993238D02*
X144753149Y-104993238D01*
X144229340Y-104874190D02*
X144586482Y-104755143D01*
X144586482Y-104755143D02*
X144586482Y-105064666D01*
X140031930Y-105987066D02*
X140055740Y-105963257D01*
X140055740Y-105963257D02*
X140079549Y-105891828D01*
X140079549Y-105891828D02*
X140079549Y-105844209D01*
X140079549Y-105844209D02*
X140055740Y-105772781D01*
X140055740Y-105772781D02*
X140008120Y-105725162D01*
X140008120Y-105725162D02*
X139960501Y-105701352D01*
X139960501Y-105701352D02*
X139865263Y-105677543D01*
X139865263Y-105677543D02*
X139793835Y-105677543D01*
X139793835Y-105677543D02*
X139698597Y-105701352D01*
X139698597Y-105701352D02*
X139650978Y-105725162D01*
X139650978Y-105725162D02*
X139603359Y-105772781D01*
X139603359Y-105772781D02*
X139579549Y-105844209D01*
X139579549Y-105844209D02*
X139579549Y-105891828D01*
X139579549Y-105891828D02*
X139603359Y-105963257D01*
X139603359Y-105963257D02*
X139627168Y-105987066D01*
X140079549Y-106225162D02*
X140079549Y-106320400D01*
X140079549Y-106320400D02*
X140055740Y-106368019D01*
X140055740Y-106368019D02*
X140031930Y-106391828D01*
X140031930Y-106391828D02*
X139960501Y-106439447D01*
X139960501Y-106439447D02*
X139865263Y-106463257D01*
X139865263Y-106463257D02*
X139674787Y-106463257D01*
X139674787Y-106463257D02*
X139627168Y-106439447D01*
X139627168Y-106439447D02*
X139603359Y-106415638D01*
X139603359Y-106415638D02*
X139579549Y-106368019D01*
X139579549Y-106368019D02*
X139579549Y-106272781D01*
X139579549Y-106272781D02*
X139603359Y-106225162D01*
X139603359Y-106225162D02*
X139627168Y-106201352D01*
X139627168Y-106201352D02*
X139674787Y-106177543D01*
X139674787Y-106177543D02*
X139793835Y-106177543D01*
X139793835Y-106177543D02*
X139841454Y-106201352D01*
X139841454Y-106201352D02*
X139865263Y-106225162D01*
X139865263Y-106225162D02*
X139889073Y-106272781D01*
X139889073Y-106272781D02*
X139889073Y-106368019D01*
X139889073Y-106368019D02*
X139865263Y-106415638D01*
X139865263Y-106415638D02*
X139841454Y-106439447D01*
X139841454Y-106439447D02*
X139793835Y-106463257D01*
X123076665Y-95276340D02*
X123005237Y-95300149D01*
X123005237Y-95300149D02*
X122886189Y-95300149D01*
X122886189Y-95300149D02*
X122838570Y-95276340D01*
X122838570Y-95276340D02*
X122814761Y-95252530D01*
X122814761Y-95252530D02*
X122790951Y-95204911D01*
X122790951Y-95204911D02*
X122790951Y-95157292D01*
X122790951Y-95157292D02*
X122814761Y-95109673D01*
X122814761Y-95109673D02*
X122838570Y-95085863D01*
X122838570Y-95085863D02*
X122886189Y-95062054D01*
X122886189Y-95062054D02*
X122981427Y-95038244D01*
X122981427Y-95038244D02*
X123029046Y-95014435D01*
X123029046Y-95014435D02*
X123052856Y-94990625D01*
X123052856Y-94990625D02*
X123076665Y-94943006D01*
X123076665Y-94943006D02*
X123076665Y-94895387D01*
X123076665Y-94895387D02*
X123052856Y-94847768D01*
X123052856Y-94847768D02*
X123029046Y-94823959D01*
X123029046Y-94823959D02*
X122981427Y-94800149D01*
X122981427Y-94800149D02*
X122862380Y-94800149D01*
X122862380Y-94800149D02*
X122790951Y-94823959D01*
X122624285Y-94800149D02*
X122505237Y-95300149D01*
X122505237Y-95300149D02*
X122409999Y-94943006D01*
X122409999Y-94943006D02*
X122314761Y-95300149D01*
X122314761Y-95300149D02*
X122195714Y-94800149D01*
X121743332Y-95300149D02*
X122029046Y-95300149D01*
X121886189Y-95300149D02*
X121886189Y-94800149D01*
X121886189Y-94800149D02*
X121933808Y-94871578D01*
X121933808Y-94871578D02*
X121981427Y-94919197D01*
X121981427Y-94919197D02*
X122029046Y-94943006D01*
X145106151Y-108896349D02*
X144820437Y-108896349D01*
X144963294Y-109396349D02*
X144963294Y-108896349D01*
X144653771Y-109396349D02*
X144653771Y-108896349D01*
X144653771Y-108896349D02*
X144463295Y-108896349D01*
X144463295Y-108896349D02*
X144415676Y-108920159D01*
X144415676Y-108920159D02*
X144391866Y-108943968D01*
X144391866Y-108943968D02*
X144368057Y-108991587D01*
X144368057Y-108991587D02*
X144368057Y-109063016D01*
X144368057Y-109063016D02*
X144391866Y-109110635D01*
X144391866Y-109110635D02*
X144415676Y-109134444D01*
X144415676Y-109134444D02*
X144463295Y-109158254D01*
X144463295Y-109158254D02*
X144653771Y-109158254D01*
X143915676Y-108896349D02*
X144153771Y-108896349D01*
X144153771Y-108896349D02*
X144177580Y-109134444D01*
X144177580Y-109134444D02*
X144153771Y-109110635D01*
X144153771Y-109110635D02*
X144106152Y-109086825D01*
X144106152Y-109086825D02*
X143987104Y-109086825D01*
X143987104Y-109086825D02*
X143939485Y-109110635D01*
X143939485Y-109110635D02*
X143915676Y-109134444D01*
X143915676Y-109134444D02*
X143891866Y-109182063D01*
X143891866Y-109182063D02*
X143891866Y-109301111D01*
X143891866Y-109301111D02*
X143915676Y-109348730D01*
X143915676Y-109348730D02*
X143939485Y-109372540D01*
X143939485Y-109372540D02*
X143987104Y-109396349D01*
X143987104Y-109396349D02*
X144106152Y-109396349D01*
X144106152Y-109396349D02*
X144153771Y-109372540D01*
X144153771Y-109372540D02*
X144177580Y-109348730D01*
X108842749Y-113855333D02*
X109199892Y-113855333D01*
X109199892Y-113855333D02*
X109271320Y-113831524D01*
X109271320Y-113831524D02*
X109318940Y-113783905D01*
X109318940Y-113783905D02*
X109342749Y-113712476D01*
X109342749Y-113712476D02*
X109342749Y-113664857D01*
X108890368Y-114069619D02*
X108866559Y-114093428D01*
X108866559Y-114093428D02*
X108842749Y-114141047D01*
X108842749Y-114141047D02*
X108842749Y-114260095D01*
X108842749Y-114260095D02*
X108866559Y-114307714D01*
X108866559Y-114307714D02*
X108890368Y-114331523D01*
X108890368Y-114331523D02*
X108937987Y-114355333D01*
X108937987Y-114355333D02*
X108985606Y-114355333D01*
X108985606Y-114355333D02*
X109057035Y-114331523D01*
X109057035Y-114331523D02*
X109342749Y-114045809D01*
X109342749Y-114045809D02*
X109342749Y-114355333D01*
X130837130Y-115604171D02*
X130860940Y-115580362D01*
X130860940Y-115580362D02*
X130884749Y-115508933D01*
X130884749Y-115508933D02*
X130884749Y-115461314D01*
X130884749Y-115461314D02*
X130860940Y-115389886D01*
X130860940Y-115389886D02*
X130813320Y-115342267D01*
X130813320Y-115342267D02*
X130765701Y-115318457D01*
X130765701Y-115318457D02*
X130670463Y-115294648D01*
X130670463Y-115294648D02*
X130599035Y-115294648D01*
X130599035Y-115294648D02*
X130503797Y-115318457D01*
X130503797Y-115318457D02*
X130456178Y-115342267D01*
X130456178Y-115342267D02*
X130408559Y-115389886D01*
X130408559Y-115389886D02*
X130384749Y-115461314D01*
X130384749Y-115461314D02*
X130384749Y-115508933D01*
X130384749Y-115508933D02*
X130408559Y-115580362D01*
X130408559Y-115580362D02*
X130432368Y-115604171D01*
X130884749Y-116080362D02*
X130884749Y-115794648D01*
X130884749Y-115937505D02*
X130384749Y-115937505D01*
X130384749Y-115937505D02*
X130456178Y-115889886D01*
X130456178Y-115889886D02*
X130503797Y-115842267D01*
X130503797Y-115842267D02*
X130527606Y-115794648D01*
X130384749Y-116532742D02*
X130384749Y-116294647D01*
X130384749Y-116294647D02*
X130622844Y-116270838D01*
X130622844Y-116270838D02*
X130599035Y-116294647D01*
X130599035Y-116294647D02*
X130575225Y-116342266D01*
X130575225Y-116342266D02*
X130575225Y-116461314D01*
X130575225Y-116461314D02*
X130599035Y-116508933D01*
X130599035Y-116508933D02*
X130622844Y-116532742D01*
X130622844Y-116532742D02*
X130670463Y-116556552D01*
X130670463Y-116556552D02*
X130789511Y-116556552D01*
X130789511Y-116556552D02*
X130837130Y-116532742D01*
X130837130Y-116532742D02*
X130860940Y-116508933D01*
X130860940Y-116508933D02*
X130884749Y-116461314D01*
X130884749Y-116461314D02*
X130884749Y-116342266D01*
X130884749Y-116342266D02*
X130860940Y-116294647D01*
X130860940Y-116294647D02*
X130837130Y-116270838D01*
X145111930Y-106850666D02*
X145135740Y-106826857D01*
X145135740Y-106826857D02*
X145159549Y-106755428D01*
X145159549Y-106755428D02*
X145159549Y-106707809D01*
X145159549Y-106707809D02*
X145135740Y-106636381D01*
X145135740Y-106636381D02*
X145088120Y-106588762D01*
X145088120Y-106588762D02*
X145040501Y-106564952D01*
X145040501Y-106564952D02*
X144945263Y-106541143D01*
X144945263Y-106541143D02*
X144873835Y-106541143D01*
X144873835Y-106541143D02*
X144778597Y-106564952D01*
X144778597Y-106564952D02*
X144730978Y-106588762D01*
X144730978Y-106588762D02*
X144683359Y-106636381D01*
X144683359Y-106636381D02*
X144659549Y-106707809D01*
X144659549Y-106707809D02*
X144659549Y-106755428D01*
X144659549Y-106755428D02*
X144683359Y-106826857D01*
X144683359Y-106826857D02*
X144707168Y-106850666D01*
X144873835Y-107136381D02*
X144850025Y-107088762D01*
X144850025Y-107088762D02*
X144826216Y-107064952D01*
X144826216Y-107064952D02*
X144778597Y-107041143D01*
X144778597Y-107041143D02*
X144754787Y-107041143D01*
X144754787Y-107041143D02*
X144707168Y-107064952D01*
X144707168Y-107064952D02*
X144683359Y-107088762D01*
X144683359Y-107088762D02*
X144659549Y-107136381D01*
X144659549Y-107136381D02*
X144659549Y-107231619D01*
X144659549Y-107231619D02*
X144683359Y-107279238D01*
X144683359Y-107279238D02*
X144707168Y-107303047D01*
X144707168Y-107303047D02*
X144754787Y-107326857D01*
X144754787Y-107326857D02*
X144778597Y-107326857D01*
X144778597Y-107326857D02*
X144826216Y-107303047D01*
X144826216Y-107303047D02*
X144850025Y-107279238D01*
X144850025Y-107279238D02*
X144873835Y-107231619D01*
X144873835Y-107231619D02*
X144873835Y-107136381D01*
X144873835Y-107136381D02*
X144897644Y-107088762D01*
X144897644Y-107088762D02*
X144921454Y-107064952D01*
X144921454Y-107064952D02*
X144969073Y-107041143D01*
X144969073Y-107041143D02*
X145064311Y-107041143D01*
X145064311Y-107041143D02*
X145111930Y-107064952D01*
X145111930Y-107064952D02*
X145135740Y-107088762D01*
X145135740Y-107088762D02*
X145159549Y-107136381D01*
X145159549Y-107136381D02*
X145159549Y-107231619D01*
X145159549Y-107231619D02*
X145135740Y-107279238D01*
X145135740Y-107279238D02*
X145111930Y-107303047D01*
X145111930Y-107303047D02*
X145064311Y-107326857D01*
X145064311Y-107326857D02*
X144969073Y-107326857D01*
X144969073Y-107326857D02*
X144921454Y-107303047D01*
X144921454Y-107303047D02*
X144897644Y-107279238D01*
X144897644Y-107279238D02*
X144873835Y-107231619D01*
X126614951Y-112249149D02*
X126329237Y-112249149D01*
X126472094Y-112749149D02*
X126472094Y-112249149D01*
X126162571Y-112749149D02*
X126162571Y-112249149D01*
X126162571Y-112249149D02*
X125972095Y-112249149D01*
X125972095Y-112249149D02*
X125924476Y-112272959D01*
X125924476Y-112272959D02*
X125900666Y-112296768D01*
X125900666Y-112296768D02*
X125876857Y-112344387D01*
X125876857Y-112344387D02*
X125876857Y-112415816D01*
X125876857Y-112415816D02*
X125900666Y-112463435D01*
X125900666Y-112463435D02*
X125924476Y-112487244D01*
X125924476Y-112487244D02*
X125972095Y-112511054D01*
X125972095Y-112511054D02*
X126162571Y-112511054D01*
X125710190Y-112249149D02*
X125376857Y-112249149D01*
X125376857Y-112249149D02*
X125591142Y-112749149D01*
X130677933Y-119607149D02*
X130844599Y-119369054D01*
X130963647Y-119607149D02*
X130963647Y-119107149D01*
X130963647Y-119107149D02*
X130773171Y-119107149D01*
X130773171Y-119107149D02*
X130725552Y-119130959D01*
X130725552Y-119130959D02*
X130701742Y-119154768D01*
X130701742Y-119154768D02*
X130677933Y-119202387D01*
X130677933Y-119202387D02*
X130677933Y-119273816D01*
X130677933Y-119273816D02*
X130701742Y-119321435D01*
X130701742Y-119321435D02*
X130725552Y-119345244D01*
X130725552Y-119345244D02*
X130773171Y-119369054D01*
X130773171Y-119369054D02*
X130963647Y-119369054D01*
X130487456Y-119154768D02*
X130463647Y-119130959D01*
X130463647Y-119130959D02*
X130416028Y-119107149D01*
X130416028Y-119107149D02*
X130296980Y-119107149D01*
X130296980Y-119107149D02*
X130249361Y-119130959D01*
X130249361Y-119130959D02*
X130225552Y-119154768D01*
X130225552Y-119154768D02*
X130201742Y-119202387D01*
X130201742Y-119202387D02*
X130201742Y-119250006D01*
X130201742Y-119250006D02*
X130225552Y-119321435D01*
X130225552Y-119321435D02*
X130511266Y-119607149D01*
X130511266Y-119607149D02*
X130201742Y-119607149D01*
X144441028Y-101423930D02*
X144464837Y-101447740D01*
X144464837Y-101447740D02*
X144536266Y-101471549D01*
X144536266Y-101471549D02*
X144583885Y-101471549D01*
X144583885Y-101471549D02*
X144655313Y-101447740D01*
X144655313Y-101447740D02*
X144702932Y-101400120D01*
X144702932Y-101400120D02*
X144726742Y-101352501D01*
X144726742Y-101352501D02*
X144750551Y-101257263D01*
X144750551Y-101257263D02*
X144750551Y-101185835D01*
X144750551Y-101185835D02*
X144726742Y-101090597D01*
X144726742Y-101090597D02*
X144702932Y-101042978D01*
X144702932Y-101042978D02*
X144655313Y-100995359D01*
X144655313Y-100995359D02*
X144583885Y-100971549D01*
X144583885Y-100971549D02*
X144536266Y-100971549D01*
X144536266Y-100971549D02*
X144464837Y-100995359D01*
X144464837Y-100995359D02*
X144441028Y-101019168D01*
X144250551Y-101019168D02*
X144226742Y-100995359D01*
X144226742Y-100995359D02*
X144179123Y-100971549D01*
X144179123Y-100971549D02*
X144060075Y-100971549D01*
X144060075Y-100971549D02*
X144012456Y-100995359D01*
X144012456Y-100995359D02*
X143988647Y-101019168D01*
X143988647Y-101019168D02*
X143964837Y-101066787D01*
X143964837Y-101066787D02*
X143964837Y-101114406D01*
X143964837Y-101114406D02*
X143988647Y-101185835D01*
X143988647Y-101185835D02*
X144274361Y-101471549D01*
X144274361Y-101471549D02*
X143964837Y-101471549D01*
X143536266Y-100971549D02*
X143631504Y-100971549D01*
X143631504Y-100971549D02*
X143679123Y-100995359D01*
X143679123Y-100995359D02*
X143702933Y-101019168D01*
X143702933Y-101019168D02*
X143750552Y-101090597D01*
X143750552Y-101090597D02*
X143774361Y-101185835D01*
X143774361Y-101185835D02*
X143774361Y-101376311D01*
X143774361Y-101376311D02*
X143750552Y-101423930D01*
X143750552Y-101423930D02*
X143726742Y-101447740D01*
X143726742Y-101447740D02*
X143679123Y-101471549D01*
X143679123Y-101471549D02*
X143583885Y-101471549D01*
X143583885Y-101471549D02*
X143536266Y-101447740D01*
X143536266Y-101447740D02*
X143512457Y-101423930D01*
X143512457Y-101423930D02*
X143488647Y-101376311D01*
X143488647Y-101376311D02*
X143488647Y-101257263D01*
X143488647Y-101257263D02*
X143512457Y-101209644D01*
X143512457Y-101209644D02*
X143536266Y-101185835D01*
X143536266Y-101185835D02*
X143583885Y-101162025D01*
X143583885Y-101162025D02*
X143679123Y-101162025D01*
X143679123Y-101162025D02*
X143726742Y-101185835D01*
X143726742Y-101185835D02*
X143750552Y-101209644D01*
X143750552Y-101209644D02*
X143774361Y-101257263D01*
X148787933Y-105437130D02*
X148811742Y-105460940D01*
X148811742Y-105460940D02*
X148883171Y-105484749D01*
X148883171Y-105484749D02*
X148930790Y-105484749D01*
X148930790Y-105484749D02*
X149002218Y-105460940D01*
X149002218Y-105460940D02*
X149049837Y-105413320D01*
X149049837Y-105413320D02*
X149073647Y-105365701D01*
X149073647Y-105365701D02*
X149097456Y-105270463D01*
X149097456Y-105270463D02*
X149097456Y-105199035D01*
X149097456Y-105199035D02*
X149073647Y-105103797D01*
X149073647Y-105103797D02*
X149049837Y-105056178D01*
X149049837Y-105056178D02*
X149002218Y-105008559D01*
X149002218Y-105008559D02*
X148930790Y-104984749D01*
X148930790Y-104984749D02*
X148883171Y-104984749D01*
X148883171Y-104984749D02*
X148811742Y-105008559D01*
X148811742Y-105008559D02*
X148787933Y-105032368D01*
X148335552Y-104984749D02*
X148573647Y-104984749D01*
X148573647Y-104984749D02*
X148597456Y-105222844D01*
X148597456Y-105222844D02*
X148573647Y-105199035D01*
X148573647Y-105199035D02*
X148526028Y-105175225D01*
X148526028Y-105175225D02*
X148406980Y-105175225D01*
X148406980Y-105175225D02*
X148359361Y-105199035D01*
X148359361Y-105199035D02*
X148335552Y-105222844D01*
X148335552Y-105222844D02*
X148311742Y-105270463D01*
X148311742Y-105270463D02*
X148311742Y-105389511D01*
X148311742Y-105389511D02*
X148335552Y-105437130D01*
X148335552Y-105437130D02*
X148359361Y-105460940D01*
X148359361Y-105460940D02*
X148406980Y-105484749D01*
X148406980Y-105484749D02*
X148526028Y-105484749D01*
X148526028Y-105484749D02*
X148573647Y-105460940D01*
X148573647Y-105460940D02*
X148597456Y-105437130D01*
X141853133Y-111329930D02*
X141876942Y-111353740D01*
X141876942Y-111353740D02*
X141948371Y-111377549D01*
X141948371Y-111377549D02*
X141995990Y-111377549D01*
X141995990Y-111377549D02*
X142067418Y-111353740D01*
X142067418Y-111353740D02*
X142115037Y-111306120D01*
X142115037Y-111306120D02*
X142138847Y-111258501D01*
X142138847Y-111258501D02*
X142162656Y-111163263D01*
X142162656Y-111163263D02*
X142162656Y-111091835D01*
X142162656Y-111091835D02*
X142138847Y-110996597D01*
X142138847Y-110996597D02*
X142115037Y-110948978D01*
X142115037Y-110948978D02*
X142067418Y-110901359D01*
X142067418Y-110901359D02*
X141995990Y-110877549D01*
X141995990Y-110877549D02*
X141948371Y-110877549D01*
X141948371Y-110877549D02*
X141876942Y-110901359D01*
X141876942Y-110901359D02*
X141853133Y-110925168D01*
X141686466Y-110877549D02*
X141353133Y-110877549D01*
X141353133Y-110877549D02*
X141567418Y-111377549D01*
X144339149Y-118293666D02*
X144339149Y-118055571D01*
X144339149Y-118055571D02*
X143839149Y-118055571D01*
X144339149Y-118722238D02*
X144339149Y-118436524D01*
X144339149Y-118579381D02*
X143839149Y-118579381D01*
X143839149Y-118579381D02*
X143910578Y-118531762D01*
X143910578Y-118531762D02*
X143958197Y-118484143D01*
X143958197Y-118484143D02*
X143982006Y-118436524D01*
X139310894Y-101235454D02*
X139310894Y-101473549D01*
X139477560Y-100973549D02*
X139310894Y-101235454D01*
X139310894Y-101235454D02*
X139144227Y-100973549D01*
X138715656Y-101473549D02*
X139001370Y-101473549D01*
X138858513Y-101473549D02*
X138858513Y-100973549D01*
X138858513Y-100973549D02*
X138906132Y-101044978D01*
X138906132Y-101044978D02*
X138953751Y-101092597D01*
X138953751Y-101092597D02*
X139001370Y-101116406D01*
X127466330Y-98455666D02*
X127490140Y-98431857D01*
X127490140Y-98431857D02*
X127513949Y-98360428D01*
X127513949Y-98360428D02*
X127513949Y-98312809D01*
X127513949Y-98312809D02*
X127490140Y-98241381D01*
X127490140Y-98241381D02*
X127442520Y-98193762D01*
X127442520Y-98193762D02*
X127394901Y-98169952D01*
X127394901Y-98169952D02*
X127299663Y-98146143D01*
X127299663Y-98146143D02*
X127228235Y-98146143D01*
X127228235Y-98146143D02*
X127132997Y-98169952D01*
X127132997Y-98169952D02*
X127085378Y-98193762D01*
X127085378Y-98193762D02*
X127037759Y-98241381D01*
X127037759Y-98241381D02*
X127013949Y-98312809D01*
X127013949Y-98312809D02*
X127013949Y-98360428D01*
X127013949Y-98360428D02*
X127037759Y-98431857D01*
X127037759Y-98431857D02*
X127061568Y-98455666D01*
X127513949Y-98931857D02*
X127513949Y-98646143D01*
X127513949Y-98789000D02*
X127013949Y-98789000D01*
X127013949Y-98789000D02*
X127085378Y-98741381D01*
X127085378Y-98741381D02*
X127132997Y-98693762D01*
X127132997Y-98693762D02*
X127156806Y-98646143D01*
X129313130Y-115604171D02*
X129336940Y-115580362D01*
X129336940Y-115580362D02*
X129360749Y-115508933D01*
X129360749Y-115508933D02*
X129360749Y-115461314D01*
X129360749Y-115461314D02*
X129336940Y-115389886D01*
X129336940Y-115389886D02*
X129289320Y-115342267D01*
X129289320Y-115342267D02*
X129241701Y-115318457D01*
X129241701Y-115318457D02*
X129146463Y-115294648D01*
X129146463Y-115294648D02*
X129075035Y-115294648D01*
X129075035Y-115294648D02*
X128979797Y-115318457D01*
X128979797Y-115318457D02*
X128932178Y-115342267D01*
X128932178Y-115342267D02*
X128884559Y-115389886D01*
X128884559Y-115389886D02*
X128860749Y-115461314D01*
X128860749Y-115461314D02*
X128860749Y-115508933D01*
X128860749Y-115508933D02*
X128884559Y-115580362D01*
X128884559Y-115580362D02*
X128908368Y-115604171D01*
X129360749Y-116080362D02*
X129360749Y-115794648D01*
X129360749Y-115937505D02*
X128860749Y-115937505D01*
X128860749Y-115937505D02*
X128932178Y-115889886D01*
X128932178Y-115889886D02*
X128979797Y-115842267D01*
X128979797Y-115842267D02*
X129003606Y-115794648D01*
X128860749Y-116508933D02*
X128860749Y-116413695D01*
X128860749Y-116413695D02*
X128884559Y-116366076D01*
X128884559Y-116366076D02*
X128908368Y-116342266D01*
X128908368Y-116342266D02*
X128979797Y-116294647D01*
X128979797Y-116294647D02*
X129075035Y-116270838D01*
X129075035Y-116270838D02*
X129265511Y-116270838D01*
X129265511Y-116270838D02*
X129313130Y-116294647D01*
X129313130Y-116294647D02*
X129336940Y-116318457D01*
X129336940Y-116318457D02*
X129360749Y-116366076D01*
X129360749Y-116366076D02*
X129360749Y-116461314D01*
X129360749Y-116461314D02*
X129336940Y-116508933D01*
X129336940Y-116508933D02*
X129313130Y-116532742D01*
X129313130Y-116532742D02*
X129265511Y-116556552D01*
X129265511Y-116556552D02*
X129146463Y-116556552D01*
X129146463Y-116556552D02*
X129098844Y-116532742D01*
X129098844Y-116532742D02*
X129075035Y-116508933D01*
X129075035Y-116508933D02*
X129051225Y-116461314D01*
X129051225Y-116461314D02*
X129051225Y-116366076D01*
X129051225Y-116366076D02*
X129075035Y-116318457D01*
X129075035Y-116318457D02*
X129098844Y-116294647D01*
X129098844Y-116294647D02*
X129146463Y-116270838D01*
X138294228Y-117730730D02*
X138318037Y-117754540D01*
X138318037Y-117754540D02*
X138389466Y-117778349D01*
X138389466Y-117778349D02*
X138437085Y-117778349D01*
X138437085Y-117778349D02*
X138508513Y-117754540D01*
X138508513Y-117754540D02*
X138556132Y-117706920D01*
X138556132Y-117706920D02*
X138579942Y-117659301D01*
X138579942Y-117659301D02*
X138603751Y-117564063D01*
X138603751Y-117564063D02*
X138603751Y-117492635D01*
X138603751Y-117492635D02*
X138579942Y-117397397D01*
X138579942Y-117397397D02*
X138556132Y-117349778D01*
X138556132Y-117349778D02*
X138508513Y-117302159D01*
X138508513Y-117302159D02*
X138437085Y-117278349D01*
X138437085Y-117278349D02*
X138389466Y-117278349D01*
X138389466Y-117278349D02*
X138318037Y-117302159D01*
X138318037Y-117302159D02*
X138294228Y-117325968D01*
X137818037Y-117778349D02*
X138103751Y-117778349D01*
X137960894Y-117778349D02*
X137960894Y-117278349D01*
X137960894Y-117278349D02*
X138008513Y-117349778D01*
X138008513Y-117349778D02*
X138056132Y-117397397D01*
X138056132Y-117397397D02*
X138103751Y-117421206D01*
X137341847Y-117778349D02*
X137627561Y-117778349D01*
X137484704Y-117778349D02*
X137484704Y-117278349D01*
X137484704Y-117278349D02*
X137532323Y-117349778D01*
X137532323Y-117349778D02*
X137579942Y-117397397D01*
X137579942Y-117397397D02*
X137627561Y-117421206D01*
X142180428Y-116257530D02*
X142204237Y-116281340D01*
X142204237Y-116281340D02*
X142275666Y-116305149D01*
X142275666Y-116305149D02*
X142323285Y-116305149D01*
X142323285Y-116305149D02*
X142394713Y-116281340D01*
X142394713Y-116281340D02*
X142442332Y-116233720D01*
X142442332Y-116233720D02*
X142466142Y-116186101D01*
X142466142Y-116186101D02*
X142489951Y-116090863D01*
X142489951Y-116090863D02*
X142489951Y-116019435D01*
X142489951Y-116019435D02*
X142466142Y-115924197D01*
X142466142Y-115924197D02*
X142442332Y-115876578D01*
X142442332Y-115876578D02*
X142394713Y-115828959D01*
X142394713Y-115828959D02*
X142323285Y-115805149D01*
X142323285Y-115805149D02*
X142275666Y-115805149D01*
X142275666Y-115805149D02*
X142204237Y-115828959D01*
X142204237Y-115828959D02*
X142180428Y-115852768D01*
X141704237Y-116305149D02*
X141989951Y-116305149D01*
X141847094Y-116305149D02*
X141847094Y-115805149D01*
X141847094Y-115805149D02*
X141894713Y-115876578D01*
X141894713Y-115876578D02*
X141942332Y-115924197D01*
X141942332Y-115924197D02*
X141989951Y-115948006D01*
X141418523Y-116019435D02*
X141466142Y-115995625D01*
X141466142Y-115995625D02*
X141489952Y-115971816D01*
X141489952Y-115971816D02*
X141513761Y-115924197D01*
X141513761Y-115924197D02*
X141513761Y-115900387D01*
X141513761Y-115900387D02*
X141489952Y-115852768D01*
X141489952Y-115852768D02*
X141466142Y-115828959D01*
X141466142Y-115828959D02*
X141418523Y-115805149D01*
X141418523Y-115805149D02*
X141323285Y-115805149D01*
X141323285Y-115805149D02*
X141275666Y-115828959D01*
X141275666Y-115828959D02*
X141251857Y-115852768D01*
X141251857Y-115852768D02*
X141228047Y-115900387D01*
X141228047Y-115900387D02*
X141228047Y-115924197D01*
X141228047Y-115924197D02*
X141251857Y-115971816D01*
X141251857Y-115971816D02*
X141275666Y-115995625D01*
X141275666Y-115995625D02*
X141323285Y-116019435D01*
X141323285Y-116019435D02*
X141418523Y-116019435D01*
X141418523Y-116019435D02*
X141466142Y-116043244D01*
X141466142Y-116043244D02*
X141489952Y-116067054D01*
X141489952Y-116067054D02*
X141513761Y-116114673D01*
X141513761Y-116114673D02*
X141513761Y-116209911D01*
X141513761Y-116209911D02*
X141489952Y-116257530D01*
X141489952Y-116257530D02*
X141466142Y-116281340D01*
X141466142Y-116281340D02*
X141418523Y-116305149D01*
X141418523Y-116305149D02*
X141323285Y-116305149D01*
X141323285Y-116305149D02*
X141275666Y-116281340D01*
X141275666Y-116281340D02*
X141251857Y-116257530D01*
X141251857Y-116257530D02*
X141228047Y-116209911D01*
X141228047Y-116209911D02*
X141228047Y-116114673D01*
X141228047Y-116114673D02*
X141251857Y-116067054D01*
X141251857Y-116067054D02*
X141275666Y-116043244D01*
X141275666Y-116043244D02*
X141323285Y-116019435D01*
X130122749Y-104894866D02*
X129884654Y-104728200D01*
X130122749Y-104609152D02*
X129622749Y-104609152D01*
X129622749Y-104609152D02*
X129622749Y-104799628D01*
X129622749Y-104799628D02*
X129646559Y-104847247D01*
X129646559Y-104847247D02*
X129670368Y-104871057D01*
X129670368Y-104871057D02*
X129717987Y-104894866D01*
X129717987Y-104894866D02*
X129789416Y-104894866D01*
X129789416Y-104894866D02*
X129837035Y-104871057D01*
X129837035Y-104871057D02*
X129860844Y-104847247D01*
X129860844Y-104847247D02*
X129884654Y-104799628D01*
X129884654Y-104799628D02*
X129884654Y-104609152D01*
X130122749Y-105371057D02*
X130122749Y-105085343D01*
X130122749Y-105228200D02*
X129622749Y-105228200D01*
X129622749Y-105228200D02*
X129694178Y-105180581D01*
X129694178Y-105180581D02*
X129741797Y-105132962D01*
X129741797Y-105132962D02*
X129765606Y-105085343D01*
X130677933Y-118184749D02*
X130844599Y-117946654D01*
X130963647Y-118184749D02*
X130963647Y-117684749D01*
X130963647Y-117684749D02*
X130773171Y-117684749D01*
X130773171Y-117684749D02*
X130725552Y-117708559D01*
X130725552Y-117708559D02*
X130701742Y-117732368D01*
X130701742Y-117732368D02*
X130677933Y-117779987D01*
X130677933Y-117779987D02*
X130677933Y-117851416D01*
X130677933Y-117851416D02*
X130701742Y-117899035D01*
X130701742Y-117899035D02*
X130725552Y-117922844D01*
X130725552Y-117922844D02*
X130773171Y-117946654D01*
X130773171Y-117946654D02*
X130963647Y-117946654D01*
X130511266Y-117684749D02*
X130201742Y-117684749D01*
X130201742Y-117684749D02*
X130368409Y-117875225D01*
X130368409Y-117875225D02*
X130296980Y-117875225D01*
X130296980Y-117875225D02*
X130249361Y-117899035D01*
X130249361Y-117899035D02*
X130225552Y-117922844D01*
X130225552Y-117922844D02*
X130201742Y-117970463D01*
X130201742Y-117970463D02*
X130201742Y-118089511D01*
X130201742Y-118089511D02*
X130225552Y-118137130D01*
X130225552Y-118137130D02*
X130249361Y-118160940D01*
X130249361Y-118160940D02*
X130296980Y-118184749D01*
X130296980Y-118184749D02*
X130439837Y-118184749D01*
X130439837Y-118184749D02*
X130487456Y-118160940D01*
X130487456Y-118160940D02*
X130511266Y-118137130D01*
D10*
%TO.C,U2*%
X146091800Y-121737400D02*
X145441800Y-121737400D01*
X146091800Y-121737400D02*
X146091800Y-127487400D01*
X136016800Y-121737400D02*
X136016800Y-120137400D01*
X135441800Y-121737400D02*
X136016800Y-121737400D01*
X135441800Y-121737400D02*
X135441800Y-127487400D01*
X146091800Y-127487400D02*
X145441800Y-127487400D01*
X135441800Y-127487400D02*
X136091800Y-127487400D01*
D14*
%TO.C,C12*%
X142607420Y-102258400D02*
X142888580Y-102258400D01*
X142607420Y-103278400D02*
X142888580Y-103278400D01*
%TO.C,J3*%
X114638600Y-88138000D02*
X114638600Y-87318000D01*
X114638600Y-87318000D02*
X113068600Y-87318000D01*
X111498600Y-98738000D02*
X109388600Y-98738000D01*
X111498600Y-97858000D02*
X109388600Y-97858000D01*
X111498600Y-96198000D02*
X109388600Y-96198000D01*
X111498600Y-95318000D02*
X109388600Y-95318000D01*
X111498600Y-93658000D02*
X109388600Y-93658000D01*
X111498600Y-92778000D02*
X109388600Y-92778000D01*
X111498600Y-91118000D02*
X109388600Y-91118000D01*
X111498600Y-90238000D02*
X109388600Y-90238000D01*
X111498600Y-88578000D02*
X109388600Y-88578000D01*
X111498600Y-87698000D02*
X109388600Y-87698000D01*
X109388600Y-99688000D02*
X109388600Y-86748000D01*
X109388600Y-86748000D02*
X106648600Y-86748000D01*
X106648600Y-99688000D02*
X109388600Y-99688000D01*
X106648600Y-97858000D02*
X100648600Y-97858000D01*
X106648600Y-95318000D02*
X100648600Y-95318000D01*
X106648600Y-92778000D02*
X100648600Y-92778000D01*
X106648600Y-90238000D02*
X100648600Y-90238000D01*
X106648600Y-87698000D02*
X100648600Y-87698000D01*
X106648600Y-86748000D02*
X106648600Y-99688000D01*
X100648600Y-98738000D02*
X106648600Y-98738000D01*
X100648600Y-97858000D02*
X100648600Y-98738000D01*
X100648600Y-96198000D02*
X106648600Y-96198000D01*
X100648600Y-95318000D02*
X100648600Y-96198000D01*
X100648600Y-93658000D02*
X106648600Y-93658000D01*
X100648600Y-92778000D02*
X100648600Y-93658000D01*
X100648600Y-91118000D02*
X106648600Y-91118000D01*
X100648600Y-90238000D02*
X100648600Y-91118000D01*
X100648600Y-88578000D02*
X106648600Y-88578000D01*
X100648600Y-87698000D02*
X100648600Y-88578000D01*
D13*
%TO.C,DISP1*%
X143510000Y-86487000D02*
X148590000Y-78867000D01*
X142875000Y-95377000D02*
X142875000Y-86487000D01*
X141605000Y-96012000D02*
X142875000Y-95377000D01*
X141590000Y-98707000D02*
X141605000Y-86487000D01*
X130190000Y-98707000D02*
X141590000Y-98707000D01*
X130190000Y-98707000D02*
X130175000Y-86487000D01*
X128270000Y-86487000D02*
X143510000Y-86487000D01*
X128270000Y-86487000D02*
X123190000Y-78867000D01*
X152090000Y-66167000D02*
G75*
G03*
X152090000Y-66167000I-16200000J0D01*
G01*
X153690000Y-66167000D02*
G75*
G03*
X153690000Y-66167000I-17800000J0D01*
G01*
D14*
%TO.C,C21*%
X133291948Y-124487000D02*
X133814452Y-124487000D01*
X133291948Y-125957000D02*
X133814452Y-125957000D01*
%TO.C,R5*%
X142121658Y-100141300D02*
X141647142Y-100141300D01*
X142121658Y-99096300D02*
X141647142Y-99096300D01*
%TO.C,C14*%
X133805200Y-105296580D02*
X133805200Y-105015420D01*
X134825200Y-105296580D02*
X134825200Y-105015420D01*
%TO.C,J4*%
X170664000Y-82933000D02*
X169224000Y-82933000D01*
X169224000Y-97723000D02*
X164024000Y-97723000D01*
X169224000Y-97153000D02*
X169224000Y-97723000D01*
X169224000Y-94613000D02*
X169224000Y-95633000D01*
X169224000Y-92073000D02*
X169224000Y-93093000D01*
X169224000Y-89533000D02*
X169224000Y-90553000D01*
X169224000Y-86993000D02*
X169224000Y-88013000D01*
X169224000Y-84453000D02*
X169224000Y-85473000D01*
X169224000Y-82363000D02*
X169224000Y-82933000D01*
X169224000Y-82363000D02*
X164024000Y-82363000D01*
X164024000Y-97153000D02*
X164024000Y-97723000D01*
X164024000Y-94613000D02*
X164024000Y-95633000D01*
X164024000Y-92073000D02*
X164024000Y-93093000D01*
X164024000Y-89533000D02*
X164024000Y-90553000D01*
X164024000Y-86993000D02*
X164024000Y-88013000D01*
X164024000Y-84453000D02*
X164024000Y-85473000D01*
X164024000Y-82363000D02*
X164024000Y-82933000D01*
%TO.C,C19*%
X133883980Y-121414000D02*
X133602820Y-121414000D01*
X133883980Y-120394000D02*
X133602820Y-120394000D01*
%TO.C,J1*%
X168791000Y-110181000D02*
X166441000Y-110181000D01*
X167641000Y-110181000D02*
X167641000Y-110181000D01*
X167641000Y-110181000D02*
X167641000Y-110681000D01*
X166941000Y-110181000D02*
X166941000Y-110181000D01*
X166941000Y-110181000D02*
X166941000Y-110681000D01*
X166441000Y-110181000D02*
X166441000Y-111081000D01*
X167641000Y-110681000D02*
X167641000Y-110181000D01*
X167641000Y-110681000D02*
X167641000Y-110681000D01*
X167641000Y-110681000D02*
X167641000Y-110681000D01*
X167641000Y-110681000D02*
X166441000Y-110681000D01*
X166941000Y-110681000D02*
X166941000Y-110181000D01*
X166941000Y-110681000D02*
X166941000Y-110681000D01*
X166441000Y-110681000D02*
X167641000Y-110681000D01*
X166441000Y-110681000D02*
X166441000Y-110681000D01*
X170691000Y-111281000D02*
X170691000Y-115081000D01*
X167641000Y-115681000D02*
X167641000Y-115681000D01*
X167641000Y-115681000D02*
X167641000Y-115681000D01*
X167641000Y-115681000D02*
X166441000Y-115681000D01*
X167641000Y-115681000D02*
X167641000Y-116181000D01*
X166941000Y-115681000D02*
X166941000Y-115681000D01*
X166941000Y-115681000D02*
X166941000Y-116181000D01*
X166441000Y-115681000D02*
X167641000Y-115681000D01*
X166441000Y-115681000D02*
X166441000Y-115681000D01*
X168791000Y-116181000D02*
X166441000Y-116181000D01*
X167641000Y-116181000D02*
X167641000Y-115681000D01*
X167641000Y-116181000D02*
X167641000Y-116181000D01*
X166941000Y-116181000D02*
X166941000Y-115681000D01*
X166941000Y-116181000D02*
X166941000Y-116181000D01*
X166441000Y-116181000D02*
X166441000Y-115281000D01*
X166116000Y-110681000D02*
G75*
G03*
X166116000Y-110681000I-250000J0D01*
G01*
%TO.C,C23*%
X147626800Y-125843420D02*
X147626800Y-126124580D01*
X146606800Y-125843420D02*
X146606800Y-126124580D01*
%TO.C,C13*%
X137211980Y-101703600D02*
X136930820Y-101703600D01*
X137211980Y-100683600D02*
X136930820Y-100683600D01*
%TO.C,Ref\u002A\u002A*%
D15*
X120573291Y-102204204D02*
X120826142Y-102229854D01*
X121068161Y-102279739D01*
X121164051Y-102307187D01*
X121428800Y-102408726D01*
X121686147Y-102543693D01*
X121930335Y-102707467D01*
X122155605Y-102895422D01*
X122356200Y-103102938D01*
X122526361Y-103325389D01*
X122660331Y-103558152D01*
X122674328Y-103587508D01*
X122782951Y-103846582D01*
X122857731Y-104094189D01*
X122900936Y-104339543D01*
X122914833Y-104591853D01*
X122914796Y-104605031D01*
X122892254Y-104920020D01*
X122829526Y-105230686D01*
X122728665Y-105531921D01*
X122591720Y-105818616D01*
X122420743Y-106085663D01*
X122217785Y-106327955D01*
X122209464Y-106336603D01*
X121996095Y-106526906D01*
X121756774Y-106683796D01*
X121491474Y-106807286D01*
X121200169Y-106897388D01*
X120882833Y-106954114D01*
X120773736Y-106963318D01*
X120637468Y-106967871D01*
X120490238Y-106967453D01*
X120342681Y-106962437D01*
X120205435Y-106953191D01*
X120089135Y-106940088D01*
X120004416Y-106923498D01*
X119919973Y-106897395D01*
X119687378Y-106800506D01*
X119454723Y-106668921D01*
X119229562Y-106507265D01*
X119019450Y-106320167D01*
X118889152Y-106179710D01*
X118760203Y-106003444D01*
X118664307Y-105817387D01*
X118596856Y-105612229D01*
X118553241Y-105378665D01*
X118548516Y-105339814D01*
X118539510Y-105074631D01*
X118572006Y-104817462D01*
X118645890Y-104568617D01*
X118761047Y-104328400D01*
X118917363Y-104097121D01*
X119114722Y-103875086D01*
X119227155Y-103774935D01*
X119426083Y-103642997D01*
X119648998Y-103543520D01*
X119892349Y-103477967D01*
X120152583Y-103447801D01*
X120163906Y-103447324D01*
X120415240Y-103454063D01*
X120644112Y-103495761D01*
X120853305Y-103573439D01*
X121045602Y-103688118D01*
X121223783Y-103840819D01*
X121331785Y-103961252D01*
X121452690Y-104143974D01*
X121533121Y-104338558D01*
X121573416Y-104545901D01*
X121573915Y-104766906D01*
X121537614Y-104974324D01*
X121460965Y-105176085D01*
X121344726Y-105362861D01*
X121188904Y-105534640D01*
X121032620Y-105659646D01*
X120852782Y-105756154D01*
X120658942Y-105813471D01*
X120448072Y-105832816D01*
X120371402Y-105830358D01*
X120184648Y-105801771D01*
X120008390Y-105743980D01*
X119848681Y-105660551D01*
X119711580Y-105555048D01*
X119603141Y-105431036D01*
X119529422Y-105292080D01*
X119512354Y-105241907D01*
X119481231Y-105121408D01*
X119459425Y-104995503D01*
X119449190Y-104879048D01*
X119452780Y-104786898D01*
X119454910Y-104773795D01*
X119499795Y-104626620D01*
X119579206Y-104481254D01*
X119686570Y-104346096D01*
X119815316Y-104229545D01*
X119958872Y-104140001D01*
X120036855Y-104104475D01*
X120103254Y-104083639D01*
X120175899Y-104073579D01*
X120272787Y-104070299D01*
X120347050Y-104070718D01*
X120427453Y-104077215D01*
X120494591Y-104093314D01*
X120565333Y-104121997D01*
X120603816Y-104140474D01*
X120716001Y-104208376D01*
X120800328Y-104288248D01*
X120868067Y-104390069D01*
X120875218Y-104403541D01*
X120932606Y-104553230D01*
X120955076Y-104706341D01*
X120944457Y-104856486D01*
X120902577Y-104997275D01*
X120831266Y-105122320D01*
X120732353Y-105225231D01*
X120607666Y-105299620D01*
X120521188Y-105325058D01*
X120386527Y-105333020D01*
X120244090Y-105311181D01*
X120104636Y-105261489D01*
X119978928Y-105185889D01*
X119966992Y-105176392D01*
X119887498Y-105085124D01*
X119839466Y-104974991D01*
X119823070Y-104854608D01*
X119838484Y-104732593D01*
X119885881Y-104617560D01*
X119965436Y-104518125D01*
X119982588Y-104502969D01*
X120095889Y-104431848D01*
X120221595Y-104394467D01*
X120350023Y-104392554D01*
X120471489Y-104427836D01*
X120516853Y-104455305D01*
X120584281Y-104529873D01*
X120622387Y-104625332D01*
X120628513Y-104733069D01*
X120600005Y-104844472D01*
X120574190Y-104896383D01*
X120522154Y-104956376D01*
X120450567Y-104988021D01*
X120349708Y-104997250D01*
X120289383Y-104996066D01*
X120237784Y-104988031D01*
X120200386Y-104967312D01*
X120161430Y-104928125D01*
X120125195Y-104879785D01*
X120102511Y-104827012D01*
X120105368Y-104789363D01*
X120135167Y-104775000D01*
X120143560Y-104776400D01*
X120182976Y-104799451D01*
X120226462Y-104841834D01*
X120244146Y-104861718D01*
X120293429Y-104897942D01*
X120351179Y-104906708D01*
X120414629Y-104896448D01*
X120469052Y-104860159D01*
X120515685Y-104789845D01*
X120534929Y-104736670D01*
X120534094Y-104653464D01*
X120498211Y-104579106D01*
X120431678Y-104521130D01*
X120338894Y-104487068D01*
X120302580Y-104482618D01*
X120196512Y-104495122D01*
X120098274Y-104540712D01*
X120014630Y-104612482D01*
X119952343Y-104703529D01*
X119918175Y-104806947D01*
X119918891Y-104915833D01*
X119931575Y-104958313D01*
X119984956Y-105043915D01*
X120067454Y-105120968D01*
X120170150Y-105183456D01*
X120284122Y-105225361D01*
X120400450Y-105240667D01*
X120411884Y-105240516D01*
X120537353Y-105217886D01*
X120647196Y-105160825D01*
X120737736Y-105075107D01*
X120805292Y-104966509D01*
X120846187Y-104840804D01*
X120856742Y-104703769D01*
X120833277Y-104561178D01*
X120824224Y-104532755D01*
X120757299Y-104401819D01*
X120656207Y-104295811D01*
X120521154Y-104214959D01*
X120472586Y-104194067D01*
X120402125Y-104170982D01*
X120334204Y-104162975D01*
X120246922Y-104166145D01*
X120231844Y-104167380D01*
X120107717Y-104188696D01*
X120001398Y-104225803D01*
X119958244Y-104249691D01*
X119858314Y-104323461D01*
X119759094Y-104417436D01*
X119673052Y-104519101D01*
X119612656Y-104615944D01*
X119572934Y-104726032D01*
X119551368Y-104882870D01*
X119562495Y-105046095D01*
X119604588Y-105206481D01*
X119675921Y-105354804D01*
X119774766Y-105481837D01*
X119801450Y-105506533D01*
X119904013Y-105578581D01*
X120031145Y-105643887D01*
X120169576Y-105696264D01*
X120306036Y-105729527D01*
X120327912Y-105732835D01*
X120511535Y-105737700D01*
X120692951Y-105704398D01*
X120867149Y-105636529D01*
X121029119Y-105537692D01*
X121173850Y-105411486D01*
X121296330Y-105261510D01*
X121391548Y-105091364D01*
X121454493Y-104904647D01*
X121468791Y-104808667D01*
X121473000Y-104674252D01*
X121464703Y-104531717D01*
X121444961Y-104397531D01*
X121414832Y-104288167D01*
X121345875Y-104150350D01*
X121244227Y-104008085D01*
X121120757Y-103876494D01*
X120984968Y-103767098D01*
X120891515Y-103708799D01*
X120679643Y-103611814D01*
X120455973Y-103554511D01*
X120222688Y-103536954D01*
X119981974Y-103559206D01*
X119736016Y-103621331D01*
X119486999Y-103723392D01*
X119396315Y-103775633D01*
X119258954Y-103880608D01*
X119121982Y-104012590D01*
X118992755Y-104163524D01*
X118878630Y-104325355D01*
X118786964Y-104490025D01*
X118738642Y-104600616D01*
X118677572Y-104795523D01*
X118647320Y-104997132D01*
X118645259Y-105218966D01*
X118648196Y-105272987D01*
X118664652Y-105443412D01*
X118692976Y-105590130D01*
X118736472Y-105727142D01*
X118798440Y-105868450D01*
X118821662Y-105912412D01*
X118916786Y-106053657D01*
X119042516Y-106199722D01*
X119191680Y-106344045D01*
X119357109Y-106480064D01*
X119531634Y-106601218D01*
X119708083Y-106700944D01*
X119769116Y-106730176D01*
X119937595Y-106797718D01*
X120104017Y-106841877D01*
X120282368Y-106865735D01*
X120486633Y-106872369D01*
X120637135Y-106868701D01*
X120966294Y-106837019D01*
X121268470Y-106772847D01*
X121543918Y-106676063D01*
X121792893Y-106546545D01*
X122015649Y-106384170D01*
X122212443Y-106188816D01*
X122383529Y-105960359D01*
X122395447Y-105941819D01*
X122533106Y-105709758D01*
X122639680Y-105489584D01*
X122719084Y-105270634D01*
X122775236Y-105042245D01*
X122812053Y-104793755D01*
X122822121Y-104635051D01*
X122807682Y-104359591D01*
X122754969Y-104083382D01*
X122665898Y-103811789D01*
X122542382Y-103550175D01*
X122386337Y-103303906D01*
X122199679Y-103078346D01*
X122190763Y-103068956D01*
X121993583Y-102886282D01*
X121768768Y-102718971D01*
X121526566Y-102573226D01*
X121277227Y-102455247D01*
X121031000Y-102371237D01*
X120862094Y-102334757D01*
X120599467Y-102306243D01*
X120305495Y-102303507D01*
X119981477Y-102326545D01*
X119628708Y-102375353D01*
X119577615Y-102381339D01*
X119554461Y-102373052D01*
X119549333Y-102345868D01*
X119551502Y-102323201D01*
X119562641Y-102305272D01*
X119589352Y-102291085D01*
X119638237Y-102278324D01*
X119715894Y-102264676D01*
X119828923Y-102247825D01*
X120007794Y-102224910D01*
X120302783Y-102202615D01*
X120573291Y-102204204D01*
G36*
X120573291Y-102204204D02*
G01*
X120826142Y-102229854D01*
X121068161Y-102279739D01*
X121164051Y-102307187D01*
X121428800Y-102408726D01*
X121686147Y-102543693D01*
X121930335Y-102707467D01*
X122155605Y-102895422D01*
X122356200Y-103102938D01*
X122526361Y-103325389D01*
X122660331Y-103558152D01*
X122674328Y-103587508D01*
X122782951Y-103846582D01*
X122857731Y-104094189D01*
X122900936Y-104339543D01*
X122914833Y-104591853D01*
X122914796Y-104605031D01*
X122892254Y-104920020D01*
X122829526Y-105230686D01*
X122728665Y-105531921D01*
X122591720Y-105818616D01*
X122420743Y-106085663D01*
X122217785Y-106327955D01*
X122209464Y-106336603D01*
X121996095Y-106526906D01*
X121756774Y-106683796D01*
X121491474Y-106807286D01*
X121200169Y-106897388D01*
X120882833Y-106954114D01*
X120773736Y-106963318D01*
X120637468Y-106967871D01*
X120490238Y-106967453D01*
X120342681Y-106962437D01*
X120205435Y-106953191D01*
X120089135Y-106940088D01*
X120004416Y-106923498D01*
X119919973Y-106897395D01*
X119687378Y-106800506D01*
X119454723Y-106668921D01*
X119229562Y-106507265D01*
X119019450Y-106320167D01*
X118889152Y-106179710D01*
X118760203Y-106003444D01*
X118664307Y-105817387D01*
X118596856Y-105612229D01*
X118553241Y-105378665D01*
X118548516Y-105339814D01*
X118539510Y-105074631D01*
X118572006Y-104817462D01*
X118645890Y-104568617D01*
X118761047Y-104328400D01*
X118917363Y-104097121D01*
X119114722Y-103875086D01*
X119227155Y-103774935D01*
X119426083Y-103642997D01*
X119648998Y-103543520D01*
X119892349Y-103477967D01*
X120152583Y-103447801D01*
X120163906Y-103447324D01*
X120415240Y-103454063D01*
X120644112Y-103495761D01*
X120853305Y-103573439D01*
X121045602Y-103688118D01*
X121223783Y-103840819D01*
X121331785Y-103961252D01*
X121452690Y-104143974D01*
X121533121Y-104338558D01*
X121573416Y-104545901D01*
X121573915Y-104766906D01*
X121537614Y-104974324D01*
X121460965Y-105176085D01*
X121344726Y-105362861D01*
X121188904Y-105534640D01*
X121032620Y-105659646D01*
X120852782Y-105756154D01*
X120658942Y-105813471D01*
X120448072Y-105832816D01*
X120371402Y-105830358D01*
X120184648Y-105801771D01*
X120008390Y-105743980D01*
X119848681Y-105660551D01*
X119711580Y-105555048D01*
X119603141Y-105431036D01*
X119529422Y-105292080D01*
X119512354Y-105241907D01*
X119481231Y-105121408D01*
X119459425Y-104995503D01*
X119449190Y-104879048D01*
X119452780Y-104786898D01*
X119454910Y-104773795D01*
X119499795Y-104626620D01*
X119579206Y-104481254D01*
X119686570Y-104346096D01*
X119815316Y-104229545D01*
X119958872Y-104140001D01*
X120036855Y-104104475D01*
X120103254Y-104083639D01*
X120175899Y-104073579D01*
X120272787Y-104070299D01*
X120347050Y-104070718D01*
X120427453Y-104077215D01*
X120494591Y-104093314D01*
X120565333Y-104121997D01*
X120603816Y-104140474D01*
X120716001Y-104208376D01*
X120800328Y-104288248D01*
X120868067Y-104390069D01*
X120875218Y-104403541D01*
X120932606Y-104553230D01*
X120955076Y-104706341D01*
X120944457Y-104856486D01*
X120902577Y-104997275D01*
X120831266Y-105122320D01*
X120732353Y-105225231D01*
X120607666Y-105299620D01*
X120521188Y-105325058D01*
X120386527Y-105333020D01*
X120244090Y-105311181D01*
X120104636Y-105261489D01*
X119978928Y-105185889D01*
X119966992Y-105176392D01*
X119887498Y-105085124D01*
X119839466Y-104974991D01*
X119823070Y-104854608D01*
X119838484Y-104732593D01*
X119885881Y-104617560D01*
X119965436Y-104518125D01*
X119982588Y-104502969D01*
X120095889Y-104431848D01*
X120221595Y-104394467D01*
X120350023Y-104392554D01*
X120471489Y-104427836D01*
X120516853Y-104455305D01*
X120584281Y-104529873D01*
X120622387Y-104625332D01*
X120628513Y-104733069D01*
X120600005Y-104844472D01*
X120574190Y-104896383D01*
X120522154Y-104956376D01*
X120450567Y-104988021D01*
X120349708Y-104997250D01*
X120289383Y-104996066D01*
X120237784Y-104988031D01*
X120200386Y-104967312D01*
X120161430Y-104928125D01*
X120125195Y-104879785D01*
X120102511Y-104827012D01*
X120105368Y-104789363D01*
X120135167Y-104775000D01*
X120143560Y-104776400D01*
X120182976Y-104799451D01*
X120226462Y-104841834D01*
X120244146Y-104861718D01*
X120293429Y-104897942D01*
X120351179Y-104906708D01*
X120414629Y-104896448D01*
X120469052Y-104860159D01*
X120515685Y-104789845D01*
X120534929Y-104736670D01*
X120534094Y-104653464D01*
X120498211Y-104579106D01*
X120431678Y-104521130D01*
X120338894Y-104487068D01*
X120302580Y-104482618D01*
X120196512Y-104495122D01*
X120098274Y-104540712D01*
X120014630Y-104612482D01*
X119952343Y-104703529D01*
X119918175Y-104806947D01*
X119918891Y-104915833D01*
X119931575Y-104958313D01*
X119984956Y-105043915D01*
X120067454Y-105120968D01*
X120170150Y-105183456D01*
X120284122Y-105225361D01*
X120400450Y-105240667D01*
X120411884Y-105240516D01*
X120537353Y-105217886D01*
X120647196Y-105160825D01*
X120737736Y-105075107D01*
X120805292Y-104966509D01*
X120846187Y-104840804D01*
X120856742Y-104703769D01*
X120833277Y-104561178D01*
X120824224Y-104532755D01*
X120757299Y-104401819D01*
X120656207Y-104295811D01*
X120521154Y-104214959D01*
X120472586Y-104194067D01*
X120402125Y-104170982D01*
X120334204Y-104162975D01*
X120246922Y-104166145D01*
X120231844Y-104167380D01*
X120107717Y-104188696D01*
X120001398Y-104225803D01*
X119958244Y-104249691D01*
X119858314Y-104323461D01*
X119759094Y-104417436D01*
X119673052Y-104519101D01*
X119612656Y-104615944D01*
X119572934Y-104726032D01*
X119551368Y-104882870D01*
X119562495Y-105046095D01*
X119604588Y-105206481D01*
X119675921Y-105354804D01*
X119774766Y-105481837D01*
X119801450Y-105506533D01*
X119904013Y-105578581D01*
X120031145Y-105643887D01*
X120169576Y-105696264D01*
X120306036Y-105729527D01*
X120327912Y-105732835D01*
X120511535Y-105737700D01*
X120692951Y-105704398D01*
X120867149Y-105636529D01*
X121029119Y-105537692D01*
X121173850Y-105411486D01*
X121296330Y-105261510D01*
X121391548Y-105091364D01*
X121454493Y-104904647D01*
X121468791Y-104808667D01*
X121473000Y-104674252D01*
X121464703Y-104531717D01*
X121444961Y-104397531D01*
X121414832Y-104288167D01*
X121345875Y-104150350D01*
X121244227Y-104008085D01*
X121120757Y-103876494D01*
X120984968Y-103767098D01*
X120891515Y-103708799D01*
X120679643Y-103611814D01*
X120455973Y-103554511D01*
X120222688Y-103536954D01*
X119981974Y-103559206D01*
X119736016Y-103621331D01*
X119486999Y-103723392D01*
X119396315Y-103775633D01*
X119258954Y-103880608D01*
X119121982Y-104012590D01*
X118992755Y-104163524D01*
X118878630Y-104325355D01*
X118786964Y-104490025D01*
X118738642Y-104600616D01*
X118677572Y-104795523D01*
X118647320Y-104997132D01*
X118645259Y-105218966D01*
X118648196Y-105272987D01*
X118664652Y-105443412D01*
X118692976Y-105590130D01*
X118736472Y-105727142D01*
X118798440Y-105868450D01*
X118821662Y-105912412D01*
X118916786Y-106053657D01*
X119042516Y-106199722D01*
X119191680Y-106344045D01*
X119357109Y-106480064D01*
X119531634Y-106601218D01*
X119708083Y-106700944D01*
X119769116Y-106730176D01*
X119937595Y-106797718D01*
X120104017Y-106841877D01*
X120282368Y-106865735D01*
X120486633Y-106872369D01*
X120637135Y-106868701D01*
X120966294Y-106837019D01*
X121268470Y-106772847D01*
X121543918Y-106676063D01*
X121792893Y-106546545D01*
X122015649Y-106384170D01*
X122212443Y-106188816D01*
X122383529Y-105960359D01*
X122395447Y-105941819D01*
X122533106Y-105709758D01*
X122639680Y-105489584D01*
X122719084Y-105270634D01*
X122775236Y-105042245D01*
X122812053Y-104793755D01*
X122822121Y-104635051D01*
X122807682Y-104359591D01*
X122754969Y-104083382D01*
X122665898Y-103811789D01*
X122542382Y-103550175D01*
X122386337Y-103303906D01*
X122199679Y-103078346D01*
X122190763Y-103068956D01*
X121993583Y-102886282D01*
X121768768Y-102718971D01*
X121526566Y-102573226D01*
X121277227Y-102455247D01*
X121031000Y-102371237D01*
X120862094Y-102334757D01*
X120599467Y-102306243D01*
X120305495Y-102303507D01*
X119981477Y-102326545D01*
X119628708Y-102375353D01*
X119577615Y-102381339D01*
X119554461Y-102373052D01*
X119549333Y-102345868D01*
X119551502Y-102323201D01*
X119562641Y-102305272D01*
X119589352Y-102291085D01*
X119638237Y-102278324D01*
X119715894Y-102264676D01*
X119828923Y-102247825D01*
X120007794Y-102224910D01*
X120302783Y-102202615D01*
X120573291Y-102204204D01*
G37*
D14*
%TO.C,C17*%
X133778852Y-123366200D02*
X133256348Y-123366200D01*
X133778852Y-121896200D02*
X133256348Y-121896200D01*
%TO.C,C10*%
X142902400Y-106780420D02*
X142902400Y-107061580D01*
X141882400Y-106780420D02*
X141882400Y-107061580D01*
%TO.C,C22*%
X146635800Y-122435252D02*
X146635800Y-121912748D01*
X148105800Y-122435252D02*
X148105800Y-121912748D01*
%TO.C,C20*%
X141883220Y-118565200D02*
X142164380Y-118565200D01*
X141883220Y-119585200D02*
X142164380Y-119585200D01*
%TO.C,C3*%
X146112620Y-103223600D02*
X146393780Y-103223600D01*
X146112620Y-104243600D02*
X146393780Y-104243600D01*
%TO.C,R7*%
X133519142Y-129931900D02*
X133993658Y-129931900D01*
X133519142Y-130976900D02*
X133993658Y-130976900D01*
%TO.C,L2*%
X146722220Y-106271600D02*
X147003380Y-106271600D01*
X146722220Y-107291600D02*
X147003380Y-107291600D01*
%TO.C,C25*%
X133883980Y-129491200D02*
X133602820Y-129491200D01*
X133883980Y-128471200D02*
X133602820Y-128471200D01*
D16*
%TO.C,U1*%
X139386000Y-115310800D02*
X139386000Y-114840800D01*
X139386000Y-115310800D02*
X138916000Y-115310800D01*
X139386000Y-108310800D02*
X139386000Y-108780800D01*
X139386000Y-108310800D02*
X138916000Y-108310800D01*
X132386000Y-115310800D02*
X132856000Y-115310800D01*
X132386000Y-115310800D02*
X132386000Y-114840800D01*
X132386000Y-108310800D02*
X132856000Y-108310800D01*
X132386000Y-108310800D02*
X132386000Y-108780800D01*
D17*
X140441000Y-109210800D02*
G75*
G03*
X140441000Y-109210800I-100000J0D01*
G01*
D14*
%TO.C,C24*%
X133602820Y-126439200D02*
X133883980Y-126439200D01*
X133602820Y-127459200D02*
X133883980Y-127459200D01*
%TO.C,C2*%
X145061000Y-100642052D02*
X145061000Y-100119548D01*
X146531000Y-100642052D02*
X146531000Y-100119548D01*
%TO.C,R4*%
X142498542Y-104125500D02*
X142973058Y-104125500D01*
X142498542Y-105170500D02*
X142973058Y-105170500D01*
%TO.C,C9*%
X141429200Y-106793420D02*
X141429200Y-107074580D01*
X140409200Y-106793420D02*
X140409200Y-107074580D01*
%TO.C,SW1*%
X124610000Y-99073000D02*
X120210000Y-99073000D01*
X124610000Y-97573000D02*
X124610000Y-97473000D01*
X120210000Y-97573000D02*
X120210000Y-97473000D01*
X120210000Y-95973000D02*
X124610000Y-95973000D01*
%TO.C,J2*%
X100295600Y-116522000D02*
X106527600Y-116522000D01*
X100295600Y-116522000D02*
X100295600Y-108522000D01*
X106527600Y-116522000D02*
X106527600Y-115697000D01*
X106527600Y-109283000D02*
X106527600Y-108522000D01*
X100915600Y-108522000D02*
X100915600Y-116522000D01*
X106527600Y-108522000D02*
X100295600Y-108522000D01*
%TO.C,C15*%
X130168400Y-113742380D02*
X130168400Y-113461220D01*
X131188400Y-113742380D02*
X131188400Y-113461220D01*
%TO.C,C8*%
X144375600Y-106780420D02*
X144375600Y-107061580D01*
X143355600Y-106780420D02*
X143355600Y-107061580D01*
%TO.C,R2*%
X132825258Y-119953300D02*
X132350742Y-119953300D01*
X132825258Y-118908300D02*
X132350742Y-118908300D01*
%TO.C,C26*%
X141743820Y-100632800D02*
X142024980Y-100632800D01*
X141743820Y-101652800D02*
X142024980Y-101652800D01*
%TO.C,C5*%
X146112620Y-104747600D02*
X146393780Y-104747600D01*
X146112620Y-105767600D02*
X146393780Y-105767600D01*
%TO.C,C7*%
X141591420Y-109675200D02*
X141872580Y-109675200D01*
X141591420Y-110695200D02*
X141872580Y-110695200D01*
%TO.C,L1*%
X146052000Y-118236420D02*
X146052000Y-118517580D01*
X145032000Y-118236420D02*
X145032000Y-118517580D01*
%TO.C,Y1*%
X141072800Y-105346400D02*
X137072800Y-105346400D01*
X141072800Y-102046400D02*
X141072800Y-105346400D01*
%TO.C,C1*%
X126679200Y-97382420D02*
X126679200Y-97663580D01*
X125659200Y-97382420D02*
X125659200Y-97663580D01*
%TO.C,C16*%
X128623600Y-113729380D02*
X128623600Y-113448220D01*
X129643600Y-113729380D02*
X129643600Y-113448220D01*
%TO.C,C11*%
X135878180Y-118061200D02*
X135597020Y-118061200D01*
X135878180Y-117041200D02*
X135597020Y-117041200D01*
%TO.C,C18*%
X141572348Y-116613000D02*
X142094852Y-116613000D01*
X141572348Y-118083000D02*
X142094852Y-118083000D01*
%TO.C,R1*%
X130468900Y-106823742D02*
X130468900Y-107298258D01*
X129423900Y-106823742D02*
X129423900Y-107298258D01*
%TO.C,R3*%
X132825258Y-118480100D02*
X132350742Y-118480100D01*
X132825258Y-117435100D02*
X132350742Y-117435100D01*
%TD*%
D18*
%TO.C,J3*%
X103648600Y-88138000D03*
%TD*%
M02*
