M48
; DRILL file {KiCad 7.0.6-1.fc38} date Thu 24 Aug 2023 06:59:45 PM MST
; FORMAT={-:-/ absolute / inch / decimal}
; #@! TF.CreationDate,2023-08-24T18:59:45-07:00
; #@! TF.GenerationSoftware,Kicad,Pcbnew,7.0.6-1.fc38
; #@! TF.FileFunction,Plated,1,2,PTH
FMAT,2
INCH
; #@! TA.AperFunction,Plated,PTH,ViaDrill
T1C0.0100
; #@! TA.AperFunction,Plated,PTH,ComponentDrill
T2C0.0157
; #@! TA.AperFunction,Plated,PTH,ViaDrill
T3C0.0170
; #@! TA.AperFunction,Plated,PTH,ComponentDrill
T4C0.0256
; #@! TA.AperFunction,Plated,PTH,ComponentDrill
T5C0.0276
; #@! TA.AperFunction,Plated,PTH,ComponentDrill
T6C0.2030
; #@! TA.AperFunction,Plated,PTH,ComponentDrill
T7C0.2454
%
G90
G05
T1
X4.2122Y-2.6011
X5.145Y-4.15
X5.17Y-4.254
X5.1951Y-4.215
X5.216Y-4.878
X5.218Y-4.242
X5.294Y-4.218
X5.35Y-3.772
X5.354Y-1.43
X5.3718Y-4.2018
X5.388Y-4.218
X5.4034Y-5.179
X5.4525Y-4.3575
X5.4579Y-4.334
X5.46Y-5.18
X5.632Y-4.816
X6.4878Y-2.6089
T2
X5.2908Y-4.3725
X5.2908Y-4.4315
X5.3203Y-4.3429
X5.3203Y-4.402
X5.3203Y-4.4611
X5.3498Y-4.3725
X5.3498Y-4.4315
X5.3794Y-4.3429
X5.3794Y-4.402
X5.3794Y-4.4611
X5.4089Y-4.3725
X5.4089Y-4.4315
T3
X4.378Y-3.87
X5.114Y-4.442
X5.198Y-3.924
X5.234Y-5.036
X5.288Y-4.072
X5.3135Y-4.664
X5.37Y-4.168
X5.375Y-5.105
X5.376Y-3.924
X5.49Y-3.924
X5.544Y-4.982
X5.638Y-4.014
X5.648Y-4.338
X5.7Y-4.24
X5.71Y-4.986
X5.74Y-4.0332
X5.772Y-4.63
X5.788Y-3.914
X5.802Y-4.73
X5.82Y-4.114
X5.834Y-4.63
X6.105Y-4.075
X6.595Y-4.395
X6.6594Y-3.84
T6
X5.965Y-4.9211
T7
X4.32Y-5.39
X4.32Y-5.795
X4.8Y-4.925
X5.085Y-5.39
X5.085Y-5.795
X5.615Y-5.39
X5.615Y-5.795
X6.38Y-5.39
X6.38Y-5.795
T4
G00X4.1699Y-4.3347
M15
G01X4.1857Y-4.3347
M16
G05
G00X4.1699Y-4.5253
M15
G01X4.1857Y-4.5253
M16
G05
T5
G00X4.0498Y-4.3225
M15
G01X4.0695Y-4.3225
M16
G05
G00X4.0498Y-4.5375
M15
G01X4.0695Y-4.5375
M16
G05
T0
M30
