%TF.GenerationSoftware,KiCad,Pcbnew,7.0.6-1.fc38*%
%TF.CreationDate,2023-08-24T18:59:34-07:00*%
%TF.ProjectId,s3gta_panel,73336774-615f-4706-916e-656c2e6b6963,rev?*%
%TF.SameCoordinates,Original*%
%TF.FileFunction,Legend,Top*%
%TF.FilePolarity,Positive*%
%FSLAX46Y46*%
G04 Gerber Fmt 4.6, Leading zero omitted, Abs format (unit mm)*
G04 Created by KiCad (PCBNEW 7.0.6-1.fc38) date 2023-08-24 18:59:34*
%MOMM*%
%LPD*%
G01*
G04 APERTURE LIST*
%ADD10C,0.381000*%
%ADD11C,0.300000*%
%ADD12C,0.080000*%
%ADD13C,0.100000*%
%ADD14C,0.010000*%
G04 APERTURE END LIST*
D10*
X111782313Y-108266001D02*
G75*
G03*
X106469169Y-108285141I-2671543J4146461D01*
G01*
X165122313Y-126173001D02*
G75*
G03*
X159809169Y-126192141I-2671543J4146461D01*
G01*
X111782313Y-126046001D02*
G75*
G03*
X106469169Y-126065141I-2671543J4146461D01*
G01*
X165122313Y-108393001D02*
G75*
G03*
X159809169Y-108412141I-2671543J4146461D01*
G01*
X111782313Y-126046001D02*
G75*
G03*
X106469169Y-126065141I-2671543J4146461D01*
G01*
D11*
X121154143Y-147474471D02*
X121082715Y-147545900D01*
X121082715Y-147545900D02*
X120868429Y-147617328D01*
X120868429Y-147617328D02*
X120725572Y-147617328D01*
X120725572Y-147617328D02*
X120511286Y-147545900D01*
X120511286Y-147545900D02*
X120368429Y-147403042D01*
X120368429Y-147403042D02*
X120297000Y-147260185D01*
X120297000Y-147260185D02*
X120225572Y-146974471D01*
X120225572Y-146974471D02*
X120225572Y-146760185D01*
X120225572Y-146760185D02*
X120297000Y-146474471D01*
X120297000Y-146474471D02*
X120368429Y-146331614D01*
X120368429Y-146331614D02*
X120511286Y-146188757D01*
X120511286Y-146188757D02*
X120725572Y-146117328D01*
X120725572Y-146117328D02*
X120868429Y-146117328D01*
X120868429Y-146117328D02*
X121082715Y-146188757D01*
X121082715Y-146188757D02*
X121154143Y-146260185D01*
X121582715Y-146117328D02*
X122082715Y-147617328D01*
X122082715Y-147617328D02*
X122582715Y-146117328D01*
X123011286Y-146260185D02*
X123082714Y-146188757D01*
X123082714Y-146188757D02*
X123225572Y-146117328D01*
X123225572Y-146117328D02*
X123582714Y-146117328D01*
X123582714Y-146117328D02*
X123725572Y-146188757D01*
X123725572Y-146188757D02*
X123797000Y-146260185D01*
X123797000Y-146260185D02*
X123868429Y-146403042D01*
X123868429Y-146403042D02*
X123868429Y-146545900D01*
X123868429Y-146545900D02*
X123797000Y-146760185D01*
X123797000Y-146760185D02*
X122939857Y-147617328D01*
X122939857Y-147617328D02*
X123868429Y-147617328D01*
X131747142Y-38914400D02*
X132032856Y-39009638D01*
X132032856Y-39009638D02*
X132509047Y-39009638D01*
X132509047Y-39009638D02*
X132699523Y-38914400D01*
X132699523Y-38914400D02*
X132794761Y-38819161D01*
X132794761Y-38819161D02*
X132889999Y-38628685D01*
X132889999Y-38628685D02*
X132889999Y-38438209D01*
X132889999Y-38438209D02*
X132794761Y-38247733D01*
X132794761Y-38247733D02*
X132699523Y-38152495D01*
X132699523Y-38152495D02*
X132509047Y-38057257D01*
X132509047Y-38057257D02*
X132128094Y-37962019D01*
X132128094Y-37962019D02*
X131937618Y-37866780D01*
X131937618Y-37866780D02*
X131842380Y-37771542D01*
X131842380Y-37771542D02*
X131747142Y-37581066D01*
X131747142Y-37581066D02*
X131747142Y-37390590D01*
X131747142Y-37390590D02*
X131842380Y-37200114D01*
X131842380Y-37200114D02*
X131937618Y-37104876D01*
X131937618Y-37104876D02*
X132128094Y-37009638D01*
X132128094Y-37009638D02*
X132604285Y-37009638D01*
X132604285Y-37009638D02*
X132889999Y-37104876D01*
X133556666Y-37009638D02*
X134794761Y-37009638D01*
X134794761Y-37009638D02*
X134128094Y-37771542D01*
X134128094Y-37771542D02*
X134413809Y-37771542D01*
X134413809Y-37771542D02*
X134604285Y-37866780D01*
X134604285Y-37866780D02*
X134699523Y-37962019D01*
X134699523Y-37962019D02*
X134794761Y-38152495D01*
X134794761Y-38152495D02*
X134794761Y-38628685D01*
X134794761Y-38628685D02*
X134699523Y-38819161D01*
X134699523Y-38819161D02*
X134604285Y-38914400D01*
X134604285Y-38914400D02*
X134413809Y-39009638D01*
X134413809Y-39009638D02*
X133842380Y-39009638D01*
X133842380Y-39009638D02*
X133651904Y-38914400D01*
X133651904Y-38914400D02*
X133556666Y-38819161D01*
X136699523Y-37104876D02*
X136509047Y-37009638D01*
X136509047Y-37009638D02*
X136223333Y-37009638D01*
X136223333Y-37009638D02*
X135937618Y-37104876D01*
X135937618Y-37104876D02*
X135747142Y-37295352D01*
X135747142Y-37295352D02*
X135651904Y-37485828D01*
X135651904Y-37485828D02*
X135556666Y-37866780D01*
X135556666Y-37866780D02*
X135556666Y-38152495D01*
X135556666Y-38152495D02*
X135651904Y-38533447D01*
X135651904Y-38533447D02*
X135747142Y-38723923D01*
X135747142Y-38723923D02*
X135937618Y-38914400D01*
X135937618Y-38914400D02*
X136223333Y-39009638D01*
X136223333Y-39009638D02*
X136413809Y-39009638D01*
X136413809Y-39009638D02*
X136699523Y-38914400D01*
X136699523Y-38914400D02*
X136794761Y-38819161D01*
X136794761Y-38819161D02*
X136794761Y-38152495D01*
X136794761Y-38152495D02*
X136413809Y-38152495D01*
X137366190Y-37009638D02*
X138509047Y-37009638D01*
X137937618Y-39009638D02*
X137937618Y-37009638D01*
X139080476Y-38438209D02*
X140032857Y-38438209D01*
X138890000Y-39009638D02*
X139556666Y-37009638D01*
X139556666Y-37009638D02*
X140223333Y-39009638D01*
X119185857Y-118462900D02*
X119400143Y-118534328D01*
X119400143Y-118534328D02*
X119757285Y-118534328D01*
X119757285Y-118534328D02*
X119900143Y-118462900D01*
X119900143Y-118462900D02*
X119971571Y-118391471D01*
X119971571Y-118391471D02*
X120043000Y-118248614D01*
X120043000Y-118248614D02*
X120043000Y-118105757D01*
X120043000Y-118105757D02*
X119971571Y-117962900D01*
X119971571Y-117962900D02*
X119900143Y-117891471D01*
X119900143Y-117891471D02*
X119757285Y-117820042D01*
X119757285Y-117820042D02*
X119471571Y-117748614D01*
X119471571Y-117748614D02*
X119328714Y-117677185D01*
X119328714Y-117677185D02*
X119257285Y-117605757D01*
X119257285Y-117605757D02*
X119185857Y-117462900D01*
X119185857Y-117462900D02*
X119185857Y-117320042D01*
X119185857Y-117320042D02*
X119257285Y-117177185D01*
X119257285Y-117177185D02*
X119328714Y-117105757D01*
X119328714Y-117105757D02*
X119471571Y-117034328D01*
X119471571Y-117034328D02*
X119828714Y-117034328D01*
X119828714Y-117034328D02*
X120043000Y-117105757D01*
X120971571Y-117820042D02*
X120971571Y-118534328D01*
X120471571Y-117034328D02*
X120971571Y-117820042D01*
X120971571Y-117820042D02*
X121471571Y-117034328D01*
X121971570Y-118534328D02*
X121971570Y-117034328D01*
X121971570Y-117034328D02*
X122828713Y-118534328D01*
X122828713Y-118534328D02*
X122828713Y-117034328D01*
X124400142Y-118391471D02*
X124328714Y-118462900D01*
X124328714Y-118462900D02*
X124114428Y-118534328D01*
X124114428Y-118534328D02*
X123971571Y-118534328D01*
X123971571Y-118534328D02*
X123757285Y-118462900D01*
X123757285Y-118462900D02*
X123614428Y-118320042D01*
X123614428Y-118320042D02*
X123542999Y-118177185D01*
X123542999Y-118177185D02*
X123471571Y-117891471D01*
X123471571Y-117891471D02*
X123471571Y-117677185D01*
X123471571Y-117677185D02*
X123542999Y-117391471D01*
X123542999Y-117391471D02*
X123614428Y-117248614D01*
X123614428Y-117248614D02*
X123757285Y-117105757D01*
X123757285Y-117105757D02*
X123971571Y-117034328D01*
X123971571Y-117034328D02*
X124114428Y-117034328D01*
X124114428Y-117034328D02*
X124328714Y-117105757D01*
X124328714Y-117105757D02*
X124400142Y-117177185D01*
X121154143Y-137441471D02*
X121082715Y-137512900D01*
X121082715Y-137512900D02*
X120868429Y-137584328D01*
X120868429Y-137584328D02*
X120725572Y-137584328D01*
X120725572Y-137584328D02*
X120511286Y-137512900D01*
X120511286Y-137512900D02*
X120368429Y-137370042D01*
X120368429Y-137370042D02*
X120297000Y-137227185D01*
X120297000Y-137227185D02*
X120225572Y-136941471D01*
X120225572Y-136941471D02*
X120225572Y-136727185D01*
X120225572Y-136727185D02*
X120297000Y-136441471D01*
X120297000Y-136441471D02*
X120368429Y-136298614D01*
X120368429Y-136298614D02*
X120511286Y-136155757D01*
X120511286Y-136155757D02*
X120725572Y-136084328D01*
X120725572Y-136084328D02*
X120868429Y-136084328D01*
X120868429Y-136084328D02*
X121082715Y-136155757D01*
X121082715Y-136155757D02*
X121154143Y-136227185D01*
X121582715Y-136084328D02*
X122082715Y-137584328D01*
X122082715Y-137584328D02*
X122582715Y-136084328D01*
X123868429Y-137584328D02*
X123011286Y-137584328D01*
X123439857Y-137584328D02*
X123439857Y-136084328D01*
X123439857Y-136084328D02*
X123297000Y-136298614D01*
X123297000Y-136298614D02*
X123154143Y-136441471D01*
X123154143Y-136441471D02*
X123011286Y-136512900D01*
X149689572Y-118431328D02*
X150546715Y-118431328D01*
X150118143Y-119931328D02*
X150118143Y-118431328D01*
X150975286Y-119502757D02*
X151689572Y-119502757D01*
X150832429Y-119931328D02*
X151332429Y-118431328D01*
X151332429Y-118431328D02*
X151832429Y-119931328D01*
X152332428Y-119931328D02*
X152332428Y-118431328D01*
X152332428Y-118431328D02*
X152903857Y-118431328D01*
X152903857Y-118431328D02*
X153046714Y-118502757D01*
X153046714Y-118502757D02*
X153118143Y-118574185D01*
X153118143Y-118574185D02*
X153189571Y-118717042D01*
X153189571Y-118717042D02*
X153189571Y-118931328D01*
X153189571Y-118931328D02*
X153118143Y-119074185D01*
X153118143Y-119074185D02*
X153046714Y-119145614D01*
X153046714Y-119145614D02*
X152903857Y-119217042D01*
X152903857Y-119217042D02*
X152332428Y-119217042D01*
X148713143Y-147601471D02*
X148641715Y-147672900D01*
X148641715Y-147672900D02*
X148427429Y-147744328D01*
X148427429Y-147744328D02*
X148284572Y-147744328D01*
X148284572Y-147744328D02*
X148070286Y-147672900D01*
X148070286Y-147672900D02*
X147927429Y-147530042D01*
X147927429Y-147530042D02*
X147856000Y-147387185D01*
X147856000Y-147387185D02*
X147784572Y-147101471D01*
X147784572Y-147101471D02*
X147784572Y-146887185D01*
X147784572Y-146887185D02*
X147856000Y-146601471D01*
X147856000Y-146601471D02*
X147927429Y-146458614D01*
X147927429Y-146458614D02*
X148070286Y-146315757D01*
X148070286Y-146315757D02*
X148284572Y-146244328D01*
X148284572Y-146244328D02*
X148427429Y-146244328D01*
X148427429Y-146244328D02*
X148641715Y-146315757D01*
X148641715Y-146315757D02*
X148713143Y-146387185D01*
X149141715Y-146244328D02*
X149641715Y-147744328D01*
X149641715Y-147744328D02*
X150141715Y-146244328D01*
X151284572Y-146744328D02*
X151284572Y-147744328D01*
X150927429Y-146172900D02*
X150570286Y-147244328D01*
X150570286Y-147244328D02*
X151498857Y-147244328D01*
X107005714Y-111549328D02*
X107005714Y-110049328D01*
X107005714Y-110049328D02*
X107577143Y-110049328D01*
X107577143Y-110049328D02*
X107720000Y-110120757D01*
X107720000Y-110120757D02*
X107791429Y-110192185D01*
X107791429Y-110192185D02*
X107862857Y-110335042D01*
X107862857Y-110335042D02*
X107862857Y-110549328D01*
X107862857Y-110549328D02*
X107791429Y-110692185D01*
X107791429Y-110692185D02*
X107720000Y-110763614D01*
X107720000Y-110763614D02*
X107577143Y-110835042D01*
X107577143Y-110835042D02*
X107005714Y-110835042D01*
X108720000Y-111549328D02*
X108577143Y-111477900D01*
X108577143Y-111477900D02*
X108505714Y-111406471D01*
X108505714Y-111406471D02*
X108434286Y-111263614D01*
X108434286Y-111263614D02*
X108434286Y-110835042D01*
X108434286Y-110835042D02*
X108505714Y-110692185D01*
X108505714Y-110692185D02*
X108577143Y-110620757D01*
X108577143Y-110620757D02*
X108720000Y-110549328D01*
X108720000Y-110549328D02*
X108934286Y-110549328D01*
X108934286Y-110549328D02*
X109077143Y-110620757D01*
X109077143Y-110620757D02*
X109148572Y-110692185D01*
X109148572Y-110692185D02*
X109220000Y-110835042D01*
X109220000Y-110835042D02*
X109220000Y-111263614D01*
X109220000Y-111263614D02*
X109148572Y-111406471D01*
X109148572Y-111406471D02*
X109077143Y-111477900D01*
X109077143Y-111477900D02*
X108934286Y-111549328D01*
X108934286Y-111549328D02*
X108720000Y-111549328D01*
X109648572Y-110549328D02*
X110220000Y-110549328D01*
X109862857Y-110049328D02*
X109862857Y-111335042D01*
X109862857Y-111335042D02*
X109934286Y-111477900D01*
X109934286Y-111477900D02*
X110077143Y-111549328D01*
X110077143Y-111549328D02*
X110220000Y-111549328D01*
X111505715Y-111549328D02*
X110648572Y-111549328D01*
X111077143Y-111549328D02*
X111077143Y-110049328D01*
X111077143Y-110049328D02*
X110934286Y-110263614D01*
X110934286Y-110263614D02*
X110791429Y-110406471D01*
X110791429Y-110406471D02*
X110648572Y-110477900D01*
X102516856Y-137330328D02*
X102516856Y-135830328D01*
X103945428Y-137330328D02*
X103231142Y-137330328D01*
X103231142Y-137330328D02*
X103231142Y-135830328D01*
X107005714Y-129583328D02*
X107005714Y-128083328D01*
X107005714Y-128083328D02*
X107577143Y-128083328D01*
X107577143Y-128083328D02*
X107720000Y-128154757D01*
X107720000Y-128154757D02*
X107791429Y-128226185D01*
X107791429Y-128226185D02*
X107862857Y-128369042D01*
X107862857Y-128369042D02*
X107862857Y-128583328D01*
X107862857Y-128583328D02*
X107791429Y-128726185D01*
X107791429Y-128726185D02*
X107720000Y-128797614D01*
X107720000Y-128797614D02*
X107577143Y-128869042D01*
X107577143Y-128869042D02*
X107005714Y-128869042D01*
X108720000Y-129583328D02*
X108577143Y-129511900D01*
X108577143Y-129511900D02*
X108505714Y-129440471D01*
X108505714Y-129440471D02*
X108434286Y-129297614D01*
X108434286Y-129297614D02*
X108434286Y-128869042D01*
X108434286Y-128869042D02*
X108505714Y-128726185D01*
X108505714Y-128726185D02*
X108577143Y-128654757D01*
X108577143Y-128654757D02*
X108720000Y-128583328D01*
X108720000Y-128583328D02*
X108934286Y-128583328D01*
X108934286Y-128583328D02*
X109077143Y-128654757D01*
X109077143Y-128654757D02*
X109148572Y-128726185D01*
X109148572Y-128726185D02*
X109220000Y-128869042D01*
X109220000Y-128869042D02*
X109220000Y-129297614D01*
X109220000Y-129297614D02*
X109148572Y-129440471D01*
X109148572Y-129440471D02*
X109077143Y-129511900D01*
X109077143Y-129511900D02*
X108934286Y-129583328D01*
X108934286Y-129583328D02*
X108720000Y-129583328D01*
X109648572Y-128583328D02*
X110220000Y-128583328D01*
X109862857Y-128083328D02*
X109862857Y-129369042D01*
X109862857Y-129369042D02*
X109934286Y-129511900D01*
X109934286Y-129511900D02*
X110077143Y-129583328D01*
X110077143Y-129583328D02*
X110220000Y-129583328D01*
X110648572Y-128226185D02*
X110720000Y-128154757D01*
X110720000Y-128154757D02*
X110862858Y-128083328D01*
X110862858Y-128083328D02*
X111220000Y-128083328D01*
X111220000Y-128083328D02*
X111362858Y-128154757D01*
X111362858Y-128154757D02*
X111434286Y-128226185D01*
X111434286Y-128226185D02*
X111505715Y-128369042D01*
X111505715Y-128369042D02*
X111505715Y-128511900D01*
X111505715Y-128511900D02*
X111434286Y-128726185D01*
X111434286Y-128726185D02*
X110577143Y-129583328D01*
X110577143Y-129583328D02*
X111505715Y-129583328D01*
X160472714Y-129456328D02*
X160472714Y-127956328D01*
X160472714Y-127956328D02*
X161044143Y-127956328D01*
X161044143Y-127956328D02*
X161187000Y-128027757D01*
X161187000Y-128027757D02*
X161258429Y-128099185D01*
X161258429Y-128099185D02*
X161329857Y-128242042D01*
X161329857Y-128242042D02*
X161329857Y-128456328D01*
X161329857Y-128456328D02*
X161258429Y-128599185D01*
X161258429Y-128599185D02*
X161187000Y-128670614D01*
X161187000Y-128670614D02*
X161044143Y-128742042D01*
X161044143Y-128742042D02*
X160472714Y-128742042D01*
X162187000Y-129456328D02*
X162044143Y-129384900D01*
X162044143Y-129384900D02*
X161972714Y-129313471D01*
X161972714Y-129313471D02*
X161901286Y-129170614D01*
X161901286Y-129170614D02*
X161901286Y-128742042D01*
X161901286Y-128742042D02*
X161972714Y-128599185D01*
X161972714Y-128599185D02*
X162044143Y-128527757D01*
X162044143Y-128527757D02*
X162187000Y-128456328D01*
X162187000Y-128456328D02*
X162401286Y-128456328D01*
X162401286Y-128456328D02*
X162544143Y-128527757D01*
X162544143Y-128527757D02*
X162615572Y-128599185D01*
X162615572Y-128599185D02*
X162687000Y-128742042D01*
X162687000Y-128742042D02*
X162687000Y-129170614D01*
X162687000Y-129170614D02*
X162615572Y-129313471D01*
X162615572Y-129313471D02*
X162544143Y-129384900D01*
X162544143Y-129384900D02*
X162401286Y-129456328D01*
X162401286Y-129456328D02*
X162187000Y-129456328D01*
X163115572Y-128456328D02*
X163687000Y-128456328D01*
X163329857Y-127956328D02*
X163329857Y-129242042D01*
X163329857Y-129242042D02*
X163401286Y-129384900D01*
X163401286Y-129384900D02*
X163544143Y-129456328D01*
X163544143Y-129456328D02*
X163687000Y-129456328D01*
X164829858Y-128456328D02*
X164829858Y-129456328D01*
X164472715Y-127884900D02*
X164115572Y-128956328D01*
X164115572Y-128956328D02*
X165044143Y-128956328D01*
X102500999Y-147490328D02*
X102500999Y-145990328D01*
X104072428Y-147490328D02*
X103572428Y-146776042D01*
X103215285Y-147490328D02*
X103215285Y-145990328D01*
X103215285Y-145990328D02*
X103786714Y-145990328D01*
X103786714Y-145990328D02*
X103929571Y-146061757D01*
X103929571Y-146061757D02*
X104001000Y-146133185D01*
X104001000Y-146133185D02*
X104072428Y-146276042D01*
X104072428Y-146276042D02*
X104072428Y-146490328D01*
X104072428Y-146490328D02*
X104001000Y-146633185D01*
X104001000Y-146633185D02*
X103929571Y-146704614D01*
X103929571Y-146704614D02*
X103786714Y-146776042D01*
X103786714Y-146776042D02*
X103215285Y-146776042D01*
X167779000Y-135957328D02*
X168064714Y-135957328D01*
X168064714Y-135957328D02*
X168207571Y-136028757D01*
X168207571Y-136028757D02*
X168350428Y-136171614D01*
X168350428Y-136171614D02*
X168421857Y-136457328D01*
X168421857Y-136457328D02*
X168421857Y-136957328D01*
X168421857Y-136957328D02*
X168350428Y-137243042D01*
X168350428Y-137243042D02*
X168207571Y-137385900D01*
X168207571Y-137385900D02*
X168064714Y-137457328D01*
X168064714Y-137457328D02*
X167779000Y-137457328D01*
X167779000Y-137457328D02*
X167636143Y-137385900D01*
X167636143Y-137385900D02*
X167493285Y-137243042D01*
X167493285Y-137243042D02*
X167421857Y-136957328D01*
X167421857Y-136957328D02*
X167421857Y-136457328D01*
X167421857Y-136457328D02*
X167493285Y-136171614D01*
X167493285Y-136171614D02*
X167636143Y-136028757D01*
X167636143Y-136028757D02*
X167779000Y-135957328D01*
X169779000Y-137457328D02*
X169064714Y-137457328D01*
X169064714Y-137457328D02*
X169064714Y-135957328D01*
X160472714Y-111676328D02*
X160472714Y-110176328D01*
X160472714Y-110176328D02*
X161044143Y-110176328D01*
X161044143Y-110176328D02*
X161187000Y-110247757D01*
X161187000Y-110247757D02*
X161258429Y-110319185D01*
X161258429Y-110319185D02*
X161329857Y-110462042D01*
X161329857Y-110462042D02*
X161329857Y-110676328D01*
X161329857Y-110676328D02*
X161258429Y-110819185D01*
X161258429Y-110819185D02*
X161187000Y-110890614D01*
X161187000Y-110890614D02*
X161044143Y-110962042D01*
X161044143Y-110962042D02*
X160472714Y-110962042D01*
X162187000Y-111676328D02*
X162044143Y-111604900D01*
X162044143Y-111604900D02*
X161972714Y-111533471D01*
X161972714Y-111533471D02*
X161901286Y-111390614D01*
X161901286Y-111390614D02*
X161901286Y-110962042D01*
X161901286Y-110962042D02*
X161972714Y-110819185D01*
X161972714Y-110819185D02*
X162044143Y-110747757D01*
X162044143Y-110747757D02*
X162187000Y-110676328D01*
X162187000Y-110676328D02*
X162401286Y-110676328D01*
X162401286Y-110676328D02*
X162544143Y-110747757D01*
X162544143Y-110747757D02*
X162615572Y-110819185D01*
X162615572Y-110819185D02*
X162687000Y-110962042D01*
X162687000Y-110962042D02*
X162687000Y-111390614D01*
X162687000Y-111390614D02*
X162615572Y-111533471D01*
X162615572Y-111533471D02*
X162544143Y-111604900D01*
X162544143Y-111604900D02*
X162401286Y-111676328D01*
X162401286Y-111676328D02*
X162187000Y-111676328D01*
X163115572Y-110676328D02*
X163687000Y-110676328D01*
X163329857Y-110176328D02*
X163329857Y-111462042D01*
X163329857Y-111462042D02*
X163401286Y-111604900D01*
X163401286Y-111604900D02*
X163544143Y-111676328D01*
X163544143Y-111676328D02*
X163687000Y-111676328D01*
X164044143Y-110176328D02*
X164972715Y-110176328D01*
X164972715Y-110176328D02*
X164472715Y-110747757D01*
X164472715Y-110747757D02*
X164687000Y-110747757D01*
X164687000Y-110747757D02*
X164829858Y-110819185D01*
X164829858Y-110819185D02*
X164901286Y-110890614D01*
X164901286Y-110890614D02*
X164972715Y-111033471D01*
X164972715Y-111033471D02*
X164972715Y-111390614D01*
X164972715Y-111390614D02*
X164901286Y-111533471D01*
X164901286Y-111533471D02*
X164829858Y-111604900D01*
X164829858Y-111604900D02*
X164687000Y-111676328D01*
X164687000Y-111676328D02*
X164258429Y-111676328D01*
X164258429Y-111676328D02*
X164115572Y-111604900D01*
X164115572Y-111604900D02*
X164044143Y-111533471D01*
X148840143Y-137187471D02*
X148768715Y-137258900D01*
X148768715Y-137258900D02*
X148554429Y-137330328D01*
X148554429Y-137330328D02*
X148411572Y-137330328D01*
X148411572Y-137330328D02*
X148197286Y-137258900D01*
X148197286Y-137258900D02*
X148054429Y-137116042D01*
X148054429Y-137116042D02*
X147983000Y-136973185D01*
X147983000Y-136973185D02*
X147911572Y-136687471D01*
X147911572Y-136687471D02*
X147911572Y-136473185D01*
X147911572Y-136473185D02*
X147983000Y-136187471D01*
X147983000Y-136187471D02*
X148054429Y-136044614D01*
X148054429Y-136044614D02*
X148197286Y-135901757D01*
X148197286Y-135901757D02*
X148411572Y-135830328D01*
X148411572Y-135830328D02*
X148554429Y-135830328D01*
X148554429Y-135830328D02*
X148768715Y-135901757D01*
X148768715Y-135901757D02*
X148840143Y-135973185D01*
X149268715Y-135830328D02*
X149768715Y-137330328D01*
X149768715Y-137330328D02*
X150268715Y-135830328D01*
X150625857Y-135830328D02*
X151554429Y-135830328D01*
X151554429Y-135830328D02*
X151054429Y-136401757D01*
X151054429Y-136401757D02*
X151268714Y-136401757D01*
X151268714Y-136401757D02*
X151411572Y-136473185D01*
X151411572Y-136473185D02*
X151483000Y-136544614D01*
X151483000Y-136544614D02*
X151554429Y-136687471D01*
X151554429Y-136687471D02*
X151554429Y-137044614D01*
X151554429Y-137044614D02*
X151483000Y-137187471D01*
X151483000Y-137187471D02*
X151411572Y-137258900D01*
X151411572Y-137258900D02*
X151268714Y-137330328D01*
X151268714Y-137330328D02*
X150840143Y-137330328D01*
X150840143Y-137330328D02*
X150697286Y-137258900D01*
X150697286Y-137258900D02*
X150625857Y-137187471D01*
X167763143Y-146498328D02*
X168048857Y-146498328D01*
X168048857Y-146498328D02*
X168191714Y-146569757D01*
X168191714Y-146569757D02*
X168334571Y-146712614D01*
X168334571Y-146712614D02*
X168406000Y-146998328D01*
X168406000Y-146998328D02*
X168406000Y-147498328D01*
X168406000Y-147498328D02*
X168334571Y-147784042D01*
X168334571Y-147784042D02*
X168191714Y-147926900D01*
X168191714Y-147926900D02*
X168048857Y-147998328D01*
X168048857Y-147998328D02*
X167763143Y-147998328D01*
X167763143Y-147998328D02*
X167620286Y-147926900D01*
X167620286Y-147926900D02*
X167477428Y-147784042D01*
X167477428Y-147784042D02*
X167406000Y-147498328D01*
X167406000Y-147498328D02*
X167406000Y-146998328D01*
X167406000Y-146998328D02*
X167477428Y-146712614D01*
X167477428Y-146712614D02*
X167620286Y-146569757D01*
X167620286Y-146569757D02*
X167763143Y-146498328D01*
X169906000Y-147998328D02*
X169406000Y-147284042D01*
X169048857Y-147998328D02*
X169048857Y-146498328D01*
X169048857Y-146498328D02*
X169620286Y-146498328D01*
X169620286Y-146498328D02*
X169763143Y-146569757D01*
X169763143Y-146569757D02*
X169834572Y-146641185D01*
X169834572Y-146641185D02*
X169906000Y-146784042D01*
X169906000Y-146784042D02*
X169906000Y-146998328D01*
X169906000Y-146998328D02*
X169834572Y-147141185D01*
X169834572Y-147141185D02*
X169763143Y-147212614D01*
X169763143Y-147212614D02*
X169620286Y-147284042D01*
X169620286Y-147284042D02*
X169048857Y-147284042D01*
D12*
X163576047Y-37760349D02*
X163576047Y-37260349D01*
X163576047Y-37498444D02*
X163861761Y-37498444D01*
X163861761Y-37760349D02*
X163861761Y-37260349D01*
X164076048Y-37307968D02*
X164099857Y-37284159D01*
X164099857Y-37284159D02*
X164147476Y-37260349D01*
X164147476Y-37260349D02*
X164266524Y-37260349D01*
X164266524Y-37260349D02*
X164314143Y-37284159D01*
X164314143Y-37284159D02*
X164337952Y-37307968D01*
X164337952Y-37307968D02*
X164361762Y-37355587D01*
X164361762Y-37355587D02*
X164361762Y-37403206D01*
X164361762Y-37403206D02*
X164337952Y-37474635D01*
X164337952Y-37474635D02*
X164052238Y-37760349D01*
X164052238Y-37760349D02*
X164361762Y-37760349D01*
X128778047Y-147920149D02*
X128778047Y-147420149D01*
X128778047Y-147658244D02*
X129063761Y-147658244D01*
X129063761Y-147920149D02*
X129063761Y-147420149D01*
X129254238Y-147420149D02*
X129587571Y-147420149D01*
X129587571Y-147420149D02*
X129373286Y-147920149D01*
X128778047Y-137633149D02*
X128778047Y-137133149D01*
X128778047Y-137371244D02*
X129063761Y-137371244D01*
X129063761Y-137633149D02*
X129063761Y-137133149D01*
X129373286Y-137347435D02*
X129325667Y-137323625D01*
X129325667Y-137323625D02*
X129301857Y-137299816D01*
X129301857Y-137299816D02*
X129278048Y-137252197D01*
X129278048Y-137252197D02*
X129278048Y-137228387D01*
X129278048Y-137228387D02*
X129301857Y-137180768D01*
X129301857Y-137180768D02*
X129325667Y-137156959D01*
X129325667Y-137156959D02*
X129373286Y-137133149D01*
X129373286Y-137133149D02*
X129468524Y-137133149D01*
X129468524Y-137133149D02*
X129516143Y-137156959D01*
X129516143Y-137156959D02*
X129539952Y-137180768D01*
X129539952Y-137180768D02*
X129563762Y-137228387D01*
X129563762Y-137228387D02*
X129563762Y-137252197D01*
X129563762Y-137252197D02*
X129539952Y-137299816D01*
X129539952Y-137299816D02*
X129516143Y-137323625D01*
X129516143Y-137323625D02*
X129468524Y-137347435D01*
X129468524Y-137347435D02*
X129373286Y-137347435D01*
X129373286Y-137347435D02*
X129325667Y-137371244D01*
X129325667Y-137371244D02*
X129301857Y-137395054D01*
X129301857Y-137395054D02*
X129278048Y-137442673D01*
X129278048Y-137442673D02*
X129278048Y-137537911D01*
X129278048Y-137537911D02*
X129301857Y-137585530D01*
X129301857Y-137585530D02*
X129325667Y-137609340D01*
X129325667Y-137609340D02*
X129373286Y-137633149D01*
X129373286Y-137633149D02*
X129468524Y-137633149D01*
X129468524Y-137633149D02*
X129516143Y-137609340D01*
X129516143Y-137609340D02*
X129539952Y-137585530D01*
X129539952Y-137585530D02*
X129563762Y-137537911D01*
X129563762Y-137537911D02*
X129563762Y-137442673D01*
X129563762Y-137442673D02*
X129539952Y-137395054D01*
X129539952Y-137395054D02*
X129516143Y-137371244D01*
X129516143Y-137371244D02*
X129468524Y-137347435D01*
X109347047Y-137633149D02*
X109347047Y-137133149D01*
X109347047Y-137371244D02*
X109632761Y-137371244D01*
X109632761Y-137633149D02*
X109632761Y-137133149D01*
X110108952Y-137133149D02*
X109870857Y-137133149D01*
X109870857Y-137133149D02*
X109847048Y-137371244D01*
X109847048Y-137371244D02*
X109870857Y-137347435D01*
X109870857Y-137347435D02*
X109918476Y-137323625D01*
X109918476Y-137323625D02*
X110037524Y-137323625D01*
X110037524Y-137323625D02*
X110085143Y-137347435D01*
X110085143Y-137347435D02*
X110108952Y-137371244D01*
X110108952Y-137371244D02*
X110132762Y-137418863D01*
X110132762Y-137418863D02*
X110132762Y-137537911D01*
X110132762Y-137537911D02*
X110108952Y-137585530D01*
X110108952Y-137585530D02*
X110085143Y-137609340D01*
X110085143Y-137609340D02*
X110037524Y-137633149D01*
X110037524Y-137633149D02*
X109918476Y-137633149D01*
X109918476Y-137633149D02*
X109870857Y-137609340D01*
X109870857Y-137609340D02*
X109847048Y-137585530D01*
X163576047Y-160289949D02*
X163576047Y-159789949D01*
X163576047Y-160028044D02*
X163861761Y-160028044D01*
X163861761Y-160289949D02*
X163861761Y-159789949D01*
X164314143Y-159956616D02*
X164314143Y-160289949D01*
X164195095Y-159766140D02*
X164076048Y-160123282D01*
X164076048Y-160123282D02*
X164385571Y-160123282D01*
X109347047Y-147920149D02*
X109347047Y-147420149D01*
X109347047Y-147658244D02*
X109632761Y-147658244D01*
X109632761Y-147920149D02*
X109632761Y-147420149D01*
X110085143Y-147420149D02*
X109989905Y-147420149D01*
X109989905Y-147420149D02*
X109942286Y-147443959D01*
X109942286Y-147443959D02*
X109918476Y-147467768D01*
X109918476Y-147467768D02*
X109870857Y-147539197D01*
X109870857Y-147539197D02*
X109847048Y-147634435D01*
X109847048Y-147634435D02*
X109847048Y-147824911D01*
X109847048Y-147824911D02*
X109870857Y-147872530D01*
X109870857Y-147872530D02*
X109894667Y-147896340D01*
X109894667Y-147896340D02*
X109942286Y-147920149D01*
X109942286Y-147920149D02*
X110037524Y-147920149D01*
X110037524Y-147920149D02*
X110085143Y-147896340D01*
X110085143Y-147896340D02*
X110108952Y-147872530D01*
X110108952Y-147872530D02*
X110132762Y-147824911D01*
X110132762Y-147824911D02*
X110132762Y-147705863D01*
X110132762Y-147705863D02*
X110108952Y-147658244D01*
X110108952Y-147658244D02*
X110085143Y-147634435D01*
X110085143Y-147634435D02*
X110037524Y-147610625D01*
X110037524Y-147610625D02*
X109942286Y-147610625D01*
X109942286Y-147610625D02*
X109894667Y-147634435D01*
X109894667Y-147634435D02*
X109870857Y-147658244D01*
X109870857Y-147658244D02*
X109847048Y-147705863D01*
X161940952Y-104867149D02*
X161940952Y-104367149D01*
X161940952Y-104605244D02*
X162226666Y-104605244D01*
X162226666Y-104867149D02*
X162226666Y-104367149D01*
X162726667Y-104867149D02*
X162440953Y-104867149D01*
X162583810Y-104867149D02*
X162583810Y-104367149D01*
X162583810Y-104367149D02*
X162536191Y-104438578D01*
X162536191Y-104438578D02*
X162488572Y-104486197D01*
X162488572Y-104486197D02*
X162440953Y-104510006D01*
X162893333Y-104367149D02*
X163202857Y-104367149D01*
X163202857Y-104367149D02*
X163036190Y-104557625D01*
X163036190Y-104557625D02*
X163107619Y-104557625D01*
X163107619Y-104557625D02*
X163155238Y-104581435D01*
X163155238Y-104581435D02*
X163179047Y-104605244D01*
X163179047Y-104605244D02*
X163202857Y-104652863D01*
X163202857Y-104652863D02*
X163202857Y-104771911D01*
X163202857Y-104771911D02*
X163179047Y-104819530D01*
X163179047Y-104819530D02*
X163155238Y-104843340D01*
X163155238Y-104843340D02*
X163107619Y-104867149D01*
X163107619Y-104867149D02*
X162964762Y-104867149D01*
X162964762Y-104867149D02*
X162917143Y-104843340D01*
X162917143Y-104843340D02*
X162893333Y-104819530D01*
X161432952Y-147920149D02*
X161432952Y-147420149D01*
X161432952Y-147658244D02*
X161718666Y-147658244D01*
X161718666Y-147920149D02*
X161718666Y-147420149D01*
X162218667Y-147920149D02*
X161932953Y-147920149D01*
X162075810Y-147920149D02*
X162075810Y-147420149D01*
X162075810Y-147420149D02*
X162028191Y-147491578D01*
X162028191Y-147491578D02*
X161980572Y-147539197D01*
X161980572Y-147539197D02*
X161932953Y-147563006D01*
X162671047Y-147420149D02*
X162432952Y-147420149D01*
X162432952Y-147420149D02*
X162409143Y-147658244D01*
X162409143Y-147658244D02*
X162432952Y-147634435D01*
X162432952Y-147634435D02*
X162480571Y-147610625D01*
X162480571Y-147610625D02*
X162599619Y-147610625D01*
X162599619Y-147610625D02*
X162647238Y-147634435D01*
X162647238Y-147634435D02*
X162671047Y-147658244D01*
X162671047Y-147658244D02*
X162694857Y-147705863D01*
X162694857Y-147705863D02*
X162694857Y-147824911D01*
X162694857Y-147824911D02*
X162671047Y-147872530D01*
X162671047Y-147872530D02*
X162647238Y-147896340D01*
X162647238Y-147896340D02*
X162599619Y-147920149D01*
X162599619Y-147920149D02*
X162480571Y-147920149D01*
X162480571Y-147920149D02*
X162432952Y-147896340D01*
X162432952Y-147896340D02*
X162409143Y-147872530D01*
X161432952Y-137633149D02*
X161432952Y-137133149D01*
X161432952Y-137371244D02*
X161718666Y-137371244D01*
X161718666Y-137633149D02*
X161718666Y-137133149D01*
X162218667Y-137633149D02*
X161932953Y-137633149D01*
X162075810Y-137633149D02*
X162075810Y-137133149D01*
X162075810Y-137133149D02*
X162028191Y-137204578D01*
X162028191Y-137204578D02*
X161980572Y-137252197D01*
X161980572Y-137252197D02*
X161932953Y-137276006D01*
X162647238Y-137133149D02*
X162552000Y-137133149D01*
X162552000Y-137133149D02*
X162504381Y-137156959D01*
X162504381Y-137156959D02*
X162480571Y-137180768D01*
X162480571Y-137180768D02*
X162432952Y-137252197D01*
X162432952Y-137252197D02*
X162409143Y-137347435D01*
X162409143Y-137347435D02*
X162409143Y-137537911D01*
X162409143Y-137537911D02*
X162432952Y-137585530D01*
X162432952Y-137585530D02*
X162456762Y-137609340D01*
X162456762Y-137609340D02*
X162504381Y-137633149D01*
X162504381Y-137633149D02*
X162599619Y-137633149D01*
X162599619Y-137633149D02*
X162647238Y-137609340D01*
X162647238Y-137609340D02*
X162671047Y-137585530D01*
X162671047Y-137585530D02*
X162694857Y-137537911D01*
X162694857Y-137537911D02*
X162694857Y-137418863D01*
X162694857Y-137418863D02*
X162671047Y-137371244D01*
X162671047Y-137371244D02*
X162647238Y-137347435D01*
X162647238Y-137347435D02*
X162599619Y-137323625D01*
X162599619Y-137323625D02*
X162504381Y-137323625D01*
X162504381Y-137323625D02*
X162456762Y-137347435D01*
X162456762Y-137347435D02*
X162432952Y-137371244D01*
X162432952Y-137371244D02*
X162409143Y-137418863D01*
X107442047Y-160289949D02*
X107442047Y-159789949D01*
X107442047Y-160028044D02*
X107727761Y-160028044D01*
X107727761Y-160289949D02*
X107727761Y-159789949D01*
X107918238Y-159789949D02*
X108227762Y-159789949D01*
X108227762Y-159789949D02*
X108061095Y-159980425D01*
X108061095Y-159980425D02*
X108132524Y-159980425D01*
X108132524Y-159980425D02*
X108180143Y-160004235D01*
X108180143Y-160004235D02*
X108203952Y-160028044D01*
X108203952Y-160028044D02*
X108227762Y-160075663D01*
X108227762Y-160075663D02*
X108227762Y-160194711D01*
X108227762Y-160194711D02*
X108203952Y-160242330D01*
X108203952Y-160242330D02*
X108180143Y-160266140D01*
X108180143Y-160266140D02*
X108132524Y-160289949D01*
X108132524Y-160289949D02*
X107989667Y-160289949D01*
X107989667Y-160289949D02*
X107942048Y-160266140D01*
X107942048Y-160266140D02*
X107918238Y-160242330D01*
X121300952Y-125822149D02*
X121300952Y-125322149D01*
X121300952Y-125560244D02*
X121586666Y-125560244D01*
X121586666Y-125822149D02*
X121586666Y-125322149D01*
X122086667Y-125822149D02*
X121800953Y-125822149D01*
X121943810Y-125822149D02*
X121943810Y-125322149D01*
X121943810Y-125322149D02*
X121896191Y-125393578D01*
X121896191Y-125393578D02*
X121848572Y-125441197D01*
X121848572Y-125441197D02*
X121800953Y-125465006D01*
X122253333Y-125322149D02*
X122586666Y-125322149D01*
X122586666Y-125322149D02*
X122372381Y-125822149D01*
X108600952Y-104867149D02*
X108600952Y-104367149D01*
X108600952Y-104605244D02*
X108886666Y-104605244D01*
X108886666Y-104867149D02*
X108886666Y-104367149D01*
X109386667Y-104867149D02*
X109100953Y-104867149D01*
X109243810Y-104867149D02*
X109243810Y-104367149D01*
X109243810Y-104367149D02*
X109196191Y-104438578D01*
X109196191Y-104438578D02*
X109148572Y-104486197D01*
X109148572Y-104486197D02*
X109100953Y-104510006D01*
X109696190Y-104367149D02*
X109743809Y-104367149D01*
X109743809Y-104367149D02*
X109791428Y-104390959D01*
X109791428Y-104390959D02*
X109815238Y-104414768D01*
X109815238Y-104414768D02*
X109839047Y-104462387D01*
X109839047Y-104462387D02*
X109862857Y-104557625D01*
X109862857Y-104557625D02*
X109862857Y-104676673D01*
X109862857Y-104676673D02*
X109839047Y-104771911D01*
X109839047Y-104771911D02*
X109815238Y-104819530D01*
X109815238Y-104819530D02*
X109791428Y-104843340D01*
X109791428Y-104843340D02*
X109743809Y-104867149D01*
X109743809Y-104867149D02*
X109696190Y-104867149D01*
X109696190Y-104867149D02*
X109648571Y-104843340D01*
X109648571Y-104843340D02*
X109624762Y-104819530D01*
X109624762Y-104819530D02*
X109600952Y-104771911D01*
X109600952Y-104771911D02*
X109577143Y-104676673D01*
X109577143Y-104676673D02*
X109577143Y-104557625D01*
X109577143Y-104557625D02*
X109600952Y-104462387D01*
X109600952Y-104462387D02*
X109624762Y-104414768D01*
X109624762Y-104414768D02*
X109648571Y-104390959D01*
X109648571Y-104390959D02*
X109696190Y-104367149D01*
X107442047Y-37760349D02*
X107442047Y-37260349D01*
X107442047Y-37498444D02*
X107727761Y-37498444D01*
X107727761Y-37760349D02*
X107727761Y-37260349D01*
X108227762Y-37760349D02*
X107942048Y-37760349D01*
X108084905Y-37760349D02*
X108084905Y-37260349D01*
X108084905Y-37260349D02*
X108037286Y-37331778D01*
X108037286Y-37331778D02*
X107989667Y-37379397D01*
X107989667Y-37379397D02*
X107942048Y-37403206D01*
X142001952Y-147920149D02*
X142001952Y-147420149D01*
X142001952Y-147658244D02*
X142287666Y-147658244D01*
X142287666Y-147920149D02*
X142287666Y-147420149D01*
X142787667Y-147920149D02*
X142501953Y-147920149D01*
X142644810Y-147920149D02*
X142644810Y-147420149D01*
X142644810Y-147420149D02*
X142597191Y-147491578D01*
X142597191Y-147491578D02*
X142549572Y-147539197D01*
X142549572Y-147539197D02*
X142501953Y-147563006D01*
X143216238Y-147586816D02*
X143216238Y-147920149D01*
X143097190Y-147396340D02*
X142978143Y-147753482D01*
X142978143Y-147753482D02*
X143287666Y-147753482D01*
X108600952Y-122647149D02*
X108600952Y-122147149D01*
X108600952Y-122385244D02*
X108886666Y-122385244D01*
X108886666Y-122647149D02*
X108886666Y-122147149D01*
X109386667Y-122647149D02*
X109100953Y-122647149D01*
X109243810Y-122647149D02*
X109243810Y-122147149D01*
X109243810Y-122147149D02*
X109196191Y-122218578D01*
X109196191Y-122218578D02*
X109148572Y-122266197D01*
X109148572Y-122266197D02*
X109100953Y-122290006D01*
X109862857Y-122647149D02*
X109577143Y-122647149D01*
X109720000Y-122647149D02*
X109720000Y-122147149D01*
X109720000Y-122147149D02*
X109672381Y-122218578D01*
X109672381Y-122218578D02*
X109624762Y-122266197D01*
X109624762Y-122266197D02*
X109577143Y-122290006D01*
X161940952Y-122647149D02*
X161940952Y-122147149D01*
X161940952Y-122385244D02*
X162226666Y-122385244D01*
X162226666Y-122647149D02*
X162226666Y-122147149D01*
X162726667Y-122647149D02*
X162440953Y-122647149D01*
X162583810Y-122647149D02*
X162583810Y-122147149D01*
X162583810Y-122147149D02*
X162536191Y-122218578D01*
X162536191Y-122218578D02*
X162488572Y-122266197D01*
X162488572Y-122266197D02*
X162440953Y-122290006D01*
X162917143Y-122194768D02*
X162940952Y-122170959D01*
X162940952Y-122170959D02*
X162988571Y-122147149D01*
X162988571Y-122147149D02*
X163107619Y-122147149D01*
X163107619Y-122147149D02*
X163155238Y-122170959D01*
X163155238Y-122170959D02*
X163179047Y-122194768D01*
X163179047Y-122194768D02*
X163202857Y-122242387D01*
X163202857Y-122242387D02*
X163202857Y-122290006D01*
X163202857Y-122290006D02*
X163179047Y-122361435D01*
X163179047Y-122361435D02*
X162893333Y-122647149D01*
X162893333Y-122647149D02*
X163202857Y-122647149D01*
X142240047Y-137633149D02*
X142240047Y-137133149D01*
X142240047Y-137371244D02*
X142525761Y-137371244D01*
X142525761Y-137633149D02*
X142525761Y-137133149D01*
X142787667Y-137633149D02*
X142882905Y-137633149D01*
X142882905Y-137633149D02*
X142930524Y-137609340D01*
X142930524Y-137609340D02*
X142954333Y-137585530D01*
X142954333Y-137585530D02*
X143001952Y-137514101D01*
X143001952Y-137514101D02*
X143025762Y-137418863D01*
X143025762Y-137418863D02*
X143025762Y-137228387D01*
X143025762Y-137228387D02*
X143001952Y-137180768D01*
X143001952Y-137180768D02*
X142978143Y-137156959D01*
X142978143Y-137156959D02*
X142930524Y-137133149D01*
X142930524Y-137133149D02*
X142835286Y-137133149D01*
X142835286Y-137133149D02*
X142787667Y-137156959D01*
X142787667Y-137156959D02*
X142763857Y-137180768D01*
X142763857Y-137180768D02*
X142740048Y-137228387D01*
X142740048Y-137228387D02*
X142740048Y-137347435D01*
X142740048Y-137347435D02*
X142763857Y-137395054D01*
X142763857Y-137395054D02*
X142787667Y-137418863D01*
X142787667Y-137418863D02*
X142835286Y-137442673D01*
X142835286Y-137442673D02*
X142930524Y-137442673D01*
X142930524Y-137442673D02*
X142978143Y-137418863D01*
X142978143Y-137418863D02*
X143001952Y-137395054D01*
X143001952Y-137395054D02*
X143025762Y-137347435D01*
D13*
%TO.C,TP3*%
X110890000Y-66167000D02*
G75*
G03*
X135890000Y-91167000I24999998J-2D01*
G01*
X105890001Y-66167000D02*
G75*
G03*
X135890000Y-91166999I27499999J2500000D01*
G01*
X115890000Y-66167000D02*
G75*
G03*
X135890000Y-86167000I19999999J-1D01*
G01*
X110890002Y-66167000D02*
G75*
G03*
X135890000Y-86166999I22499997J2499998D01*
G01*
X135890000Y-41167002D02*
G75*
G03*
X115890001Y-66167000I2499998J-22499997D01*
G01*
X135890000Y-41167000D02*
G75*
G03*
X110890000Y-66167000I-2J-24999998D01*
G01*
X135890000Y-36167001D02*
G75*
G03*
X110890001Y-66167000I2500000J-27499999D01*
G01*
X135890000Y-36167000D02*
G75*
G03*
X105890000Y-66167000I1J-30000001D01*
G01*
%TO.C,TP1*%
X160890000Y-66167000D02*
G75*
G03*
X135890000Y-41167000I-24999998J2D01*
G01*
X165889999Y-66167000D02*
G75*
G03*
X135890000Y-41167001I-27499999J-2500000D01*
G01*
X155890000Y-66167000D02*
G75*
G03*
X135890000Y-46167000I-19999999J1D01*
G01*
X160889998Y-66167000D02*
G75*
G03*
X135890000Y-46167001I-22499997J-2499998D01*
G01*
X135890000Y-91166998D02*
G75*
G03*
X155889999Y-66167000I-2499998J22499997D01*
G01*
X135890000Y-91167000D02*
G75*
G03*
X160890000Y-66167000I2J24999998D01*
G01*
X135890000Y-96166999D02*
G75*
G03*
X160889999Y-66167000I-2500000J27499999D01*
G01*
X135890000Y-96167000D02*
G75*
G03*
X165890000Y-66167000I-1J30000001D01*
G01*
%TO.C,TP4*%
X135890000Y-91167000D02*
G75*
G03*
X160890000Y-66167000I2J24999998D01*
G01*
X135890000Y-96166999D02*
G75*
G03*
X160889999Y-66167000I-2500000J27499999D01*
G01*
X135890000Y-86167000D02*
G75*
G03*
X155890000Y-66167000I1J19999999D01*
G01*
X135890000Y-91166998D02*
G75*
G03*
X155889999Y-66167000I-2499998J22499997D01*
G01*
X110890002Y-66167000D02*
G75*
G03*
X135890000Y-86166999I22499997J2499998D01*
G01*
X110890000Y-66167000D02*
G75*
G03*
X135890000Y-91167000I24999998J-2D01*
G01*
X105890001Y-66167000D02*
G75*
G03*
X135890000Y-91166999I27499999J2500000D01*
G01*
X105890000Y-66167000D02*
G75*
G03*
X135890000Y-96167000I30000001J1D01*
G01*
%TO.C,TP2*%
X135890000Y-41167000D02*
G75*
G03*
X110890000Y-66167000I-2J-24999998D01*
G01*
X135890000Y-36167001D02*
G75*
G03*
X110890001Y-66167000I2500000J-27499999D01*
G01*
X135890000Y-46167000D02*
G75*
G03*
X115890000Y-66167000I-1J-19999999D01*
G01*
X135890000Y-41167002D02*
G75*
G03*
X115890001Y-66167000I2499998J-22499997D01*
G01*
X160889998Y-66167000D02*
G75*
G03*
X135890000Y-46167001I-22499997J-2499998D01*
G01*
X160890000Y-66167000D02*
G75*
G03*
X135890000Y-41167000I-24999998J2D01*
G01*
X165889999Y-66167000D02*
G75*
G03*
X135890000Y-41167001I-27499999J-2500000D01*
G01*
X165890000Y-66167000D02*
G75*
G03*
X135890000Y-36167000I-30000001J-1D01*
G01*
%TO.C,Ref\u002A\u002A*%
D14*
X136641381Y-97799583D02*
X137231710Y-97838794D01*
X137848709Y-97905988D01*
X138494775Y-98000835D01*
X138768667Y-98047648D01*
X138888075Y-98068963D01*
X138991940Y-98087726D01*
X139073543Y-98102705D01*
X139126166Y-98112668D01*
X139143185Y-98116319D01*
X139141397Y-98137888D01*
X139131062Y-98194117D01*
X139113454Y-98278490D01*
X139097039Y-98352770D01*
X139087086Y-98396957D01*
X138816752Y-98346880D01*
X138166862Y-98237454D01*
X137547121Y-98155750D01*
X136955695Y-98101754D01*
X136390752Y-98075452D01*
X135850458Y-98076829D01*
X135332980Y-98105872D01*
X134836486Y-98162565D01*
X134359143Y-98246896D01*
X134083554Y-98310157D01*
X133553203Y-98463942D01*
X133028124Y-98658102D01*
X132511273Y-98890741D01*
X132005606Y-99159963D01*
X131514077Y-99463873D01*
X131039640Y-99800576D01*
X130585252Y-100168175D01*
X130153867Y-100564776D01*
X129748440Y-100988482D01*
X129548768Y-101219000D01*
X129335182Y-101487665D01*
X129137893Y-101764764D01*
X128954092Y-102055485D01*
X128780971Y-102365014D01*
X128615720Y-102698537D01*
X128455532Y-103061241D01*
X128297597Y-103458312D01*
X128214399Y-103682935D01*
X128094791Y-104032382D01*
X127998353Y-104359093D01*
X127922718Y-104674100D01*
X127865522Y-104988432D01*
X127824401Y-105313119D01*
X127799511Y-105618088D01*
X127787926Y-106032508D01*
X127803348Y-106466036D01*
X127844337Y-106911833D01*
X127909454Y-107363058D01*
X127997257Y-107812872D01*
X128106306Y-108254435D01*
X128235162Y-108680908D01*
X128382382Y-109085451D01*
X128546528Y-109461224D01*
X128652978Y-109670845D01*
X128875396Y-110073865D01*
X129088853Y-110439489D01*
X129295876Y-110771068D01*
X129498991Y-111071950D01*
X129700723Y-111345486D01*
X129903600Y-111595026D01*
X130110146Y-111823918D01*
X130322887Y-112035513D01*
X130544351Y-112233160D01*
X130652801Y-112322697D01*
X130765667Y-112408945D01*
X130907390Y-112509959D01*
X131069600Y-112620357D01*
X131243924Y-112734755D01*
X131421989Y-112847768D01*
X131595426Y-112954013D01*
X131755861Y-113048105D01*
X131894922Y-113124662D01*
X131920516Y-113137951D01*
X132269703Y-113304489D01*
X132628699Y-113450444D01*
X133001461Y-113576712D01*
X133391945Y-113684195D01*
X133804106Y-113773789D01*
X134241900Y-113846395D01*
X134709285Y-113902911D01*
X135210214Y-113944235D01*
X135552678Y-113963238D01*
X135903963Y-113974587D01*
X136222175Y-113973962D01*
X136515109Y-113960435D01*
X136790558Y-113933073D01*
X137056319Y-113890947D01*
X137320185Y-113833127D01*
X137589950Y-113758681D01*
X137784417Y-113696864D01*
X138267260Y-113514791D01*
X138739241Y-113293587D01*
X139201063Y-113032791D01*
X139653428Y-112731947D01*
X140097037Y-112390593D01*
X140532593Y-112008272D01*
X140865660Y-111682887D01*
X141129221Y-111400098D01*
X141356781Y-111125178D01*
X141552228Y-110851818D01*
X141719448Y-110573708D01*
X141862330Y-110284540D01*
X141984761Y-109978005D01*
X142063779Y-109738584D01*
X142150380Y-109415841D01*
X142220834Y-109073661D01*
X142274406Y-108720566D01*
X142310361Y-108365078D01*
X142327965Y-108015717D01*
X142326482Y-107681004D01*
X142305179Y-107369461D01*
X142282796Y-107198584D01*
X142188675Y-106736466D01*
X142053964Y-106283205D01*
X141878472Y-105838431D01*
X141662005Y-105401775D01*
X141404372Y-104972867D01*
X141105380Y-104551338D01*
X140764836Y-104136819D01*
X140584113Y-103937614D01*
X140405325Y-103751687D01*
X140242030Y-103593920D01*
X140085967Y-103457432D01*
X139928874Y-103335343D01*
X139762490Y-103220772D01*
X139607013Y-103123812D01*
X139372595Y-102995967D01*
X139104789Y-102872130D01*
X138812527Y-102755277D01*
X138504742Y-102648380D01*
X138190367Y-102554416D01*
X137878335Y-102476357D01*
X137577577Y-102417178D01*
X137410868Y-102392556D01*
X137232113Y-102375779D01*
X137025887Y-102366327D01*
X136803643Y-102363962D01*
X136576836Y-102368449D01*
X136356918Y-102379551D01*
X136155343Y-102397030D01*
X135983565Y-102420651D01*
X135974667Y-102422221D01*
X135531481Y-102519693D01*
X135116029Y-102648794D01*
X134727208Y-102810159D01*
X134363918Y-103004422D01*
X134025058Y-103232218D01*
X133709525Y-103494182D01*
X133416219Y-103790947D01*
X133241807Y-103996747D01*
X133061031Y-104235517D01*
X132911611Y-104462345D01*
X132788290Y-104686540D01*
X132685810Y-104917412D01*
X132620892Y-105096260D01*
X132565062Y-105273543D01*
X132522467Y-105434423D01*
X132491210Y-105590452D01*
X132469395Y-105753182D01*
X132455126Y-105934164D01*
X132446507Y-106144949D01*
X132446059Y-106161417D01*
X132443339Y-106400580D01*
X132449708Y-106610262D01*
X132466444Y-106802588D01*
X132494826Y-106989685D01*
X132536132Y-107183677D01*
X132566595Y-107304433D01*
X132596803Y-107416159D01*
X132623826Y-107507076D01*
X132651860Y-107587927D01*
X132685098Y-107669452D01*
X132727735Y-107762393D01*
X132783965Y-107877493D01*
X132813418Y-107936576D01*
X133013583Y-108291785D01*
X133244648Y-108619827D01*
X133504893Y-108918992D01*
X133792594Y-109187571D01*
X134106029Y-109423854D01*
X134443475Y-109626130D01*
X134589098Y-109699183D01*
X134947916Y-109847934D01*
X135308387Y-109954413D01*
X135670569Y-110018618D01*
X136034519Y-110040549D01*
X136400294Y-110020203D01*
X136767953Y-109957579D01*
X137137552Y-109852677D01*
X137509148Y-109705494D01*
X137672189Y-109627894D01*
X137923232Y-109492544D01*
X138135178Y-109356744D01*
X138311227Y-109218288D01*
X138420877Y-109112184D01*
X138621243Y-108868097D01*
X138792455Y-108595953D01*
X138933213Y-108299576D01*
X139042215Y-107982787D01*
X139118161Y-107649412D01*
X139159749Y-107303273D01*
X139165679Y-106948193D01*
X139164844Y-106925999D01*
X139153252Y-106750525D01*
X139131760Y-106598542D01*
X139096843Y-106456592D01*
X139044975Y-106311220D01*
X138972628Y-106148969D01*
X138947845Y-106097917D01*
X138823175Y-105872581D01*
X138676049Y-105660705D01*
X138499797Y-105453431D01*
X138341780Y-105293065D01*
X138073731Y-105059434D01*
X137794400Y-104864121D01*
X137510480Y-104709155D01*
X137414186Y-104664626D01*
X137333558Y-104632156D01*
X137255534Y-104607956D01*
X137167048Y-104588239D01*
X137055039Y-104569219D01*
X136997849Y-104560528D01*
X136709467Y-104528690D01*
X136447183Y-104524726D01*
X136204021Y-104550081D01*
X135973006Y-104606202D01*
X135747165Y-104694535D01*
X135519522Y-104816525D01*
X135401457Y-104891518D01*
X135189802Y-105055075D01*
X135009365Y-105243930D01*
X134858660Y-105460235D01*
X134736200Y-105706141D01*
X134640498Y-105983801D01*
X134636111Y-105999568D01*
X134618353Y-106071441D01*
X134605879Y-106143229D01*
X134597842Y-106224660D01*
X134593392Y-106325462D01*
X134591682Y-106455364D01*
X134591574Y-106510667D01*
X134594600Y-106694719D01*
X134605373Y-106848299D01*
X134626435Y-106982948D01*
X134660331Y-107110204D01*
X134709604Y-107241609D01*
X134776795Y-107388703D01*
X134791855Y-107419494D01*
X134847387Y-107527023D01*
X134898927Y-107611903D01*
X134956623Y-107688221D01*
X135030629Y-107770061D01*
X135083176Y-107823753D01*
X135260600Y-107984358D01*
X135439020Y-108107669D01*
X135626990Y-108198046D01*
X135833063Y-108259849D01*
X135995834Y-108288880D01*
X136229892Y-108302008D01*
X136471294Y-108280650D01*
X136713429Y-108227591D01*
X136949687Y-108145614D01*
X137173457Y-108037506D01*
X137378127Y-107906051D01*
X137557087Y-107754034D01*
X137703726Y-107584240D01*
X137718604Y-107563140D01*
X137819888Y-107379248D01*
X137883378Y-107178101D01*
X137907801Y-106963854D01*
X137908038Y-106944584D01*
X137891941Y-106730519D01*
X137840534Y-106531281D01*
X137751954Y-106342670D01*
X137624340Y-106160485D01*
X137499268Y-106022904D01*
X137313873Y-105861745D01*
X137120615Y-105742107D01*
X136918947Y-105663813D01*
X136708324Y-105626687D01*
X136488196Y-105630553D01*
X136349956Y-105652767D01*
X136161968Y-105710824D01*
X136003517Y-105796803D01*
X135875980Y-105907015D01*
X135780734Y-106037774D01*
X135719155Y-106185391D01*
X135692621Y-106346178D01*
X135702508Y-106516448D01*
X135750194Y-106692514D01*
X135837055Y-106870687D01*
X135873752Y-106928140D01*
X135947676Y-107022313D01*
X136026712Y-107087937D01*
X136119988Y-107129232D01*
X136236630Y-107150415D01*
X136366250Y-107155770D01*
X136468095Y-107153807D01*
X136540818Y-107146236D01*
X136597490Y-107130875D01*
X136644131Y-107109358D01*
X136735566Y-107045070D01*
X136822398Y-106957105D01*
X136893096Y-106859027D01*
X136935492Y-106766590D01*
X136955299Y-106707891D01*
X136975949Y-106679916D01*
X137008247Y-106672243D01*
X137032747Y-106672793D01*
X137104712Y-106679468D01*
X137174343Y-106689892D01*
X137222669Y-106702182D01*
X137239330Y-106723097D01*
X137234639Y-106766750D01*
X137233745Y-106771183D01*
X137217609Y-106826042D01*
X137189348Y-106901309D01*
X137159849Y-106969999D01*
X137068213Y-107121058D01*
X136946011Y-107247208D01*
X136798792Y-107345627D01*
X136632105Y-107413492D01*
X136451498Y-107447983D01*
X136262521Y-107446276D01*
X136231086Y-107442343D01*
X136047571Y-107403097D01*
X135892663Y-107342299D01*
X135770390Y-107261769D01*
X135720478Y-107212039D01*
X135599610Y-107043492D01*
X135505853Y-106855639D01*
X135441707Y-106657078D01*
X135409667Y-106456403D01*
X135412231Y-106262211D01*
X135423337Y-106189127D01*
X135471275Y-106018146D01*
X135546645Y-105868073D01*
X135655714Y-105727361D01*
X135697893Y-105683290D01*
X135843763Y-105558058D01*
X136002836Y-105463802D01*
X136180645Y-105398519D01*
X136382725Y-105360207D01*
X136614611Y-105346862D01*
X136627711Y-105346813D01*
X136742951Y-105348103D01*
X136831070Y-105353782D01*
X136907224Y-105366041D01*
X136986568Y-105387071D01*
X137052082Y-105408171D01*
X137289714Y-105508452D01*
X137506379Y-105641128D01*
X137698997Y-105802302D01*
X137864488Y-105988075D01*
X137999775Y-106194548D01*
X138101777Y-106417822D01*
X138167415Y-106653999D01*
X138191759Y-106851154D01*
X138188758Y-107069272D01*
X138153064Y-107276602D01*
X138082243Y-107485021D01*
X138044653Y-107569000D01*
X137946914Y-107733394D01*
X137813350Y-107895958D01*
X137650324Y-108051354D01*
X137464198Y-108194243D01*
X137261335Y-108319287D01*
X137048098Y-108421148D01*
X137011838Y-108435557D01*
X136741508Y-108519972D01*
X136462744Y-108569657D01*
X136182940Y-108584290D01*
X135909486Y-108563549D01*
X135649776Y-108507113D01*
X135614834Y-108496313D01*
X135366777Y-108395246D01*
X135140481Y-108260238D01*
X134937480Y-108094538D01*
X134759312Y-107901395D01*
X134607512Y-107684059D01*
X134483616Y-107445779D01*
X134389160Y-107189803D01*
X134325680Y-106919381D01*
X134294713Y-106637762D01*
X134297794Y-106348196D01*
X134336459Y-106053931D01*
X134376986Y-105877927D01*
X134475007Y-105586724D01*
X134606063Y-105321599D01*
X134770532Y-105082110D01*
X134968794Y-104867815D01*
X135201226Y-104678271D01*
X135468206Y-104513038D01*
X135603781Y-104444571D01*
X135826813Y-104353265D01*
X136055758Y-104288994D01*
X136296258Y-104251226D01*
X136553953Y-104239429D01*
X136834484Y-104253072D01*
X137143492Y-104291621D01*
X137174087Y-104296487D01*
X137401092Y-104351837D01*
X137636113Y-104443698D01*
X137874387Y-104568224D01*
X138111155Y-104721568D01*
X138341656Y-104899881D01*
X138561130Y-105099316D01*
X138764817Y-105316026D01*
X138947955Y-105546163D01*
X139105784Y-105785880D01*
X139177763Y-105915920D01*
X139284829Y-106143756D01*
X139365327Y-106364923D01*
X139420409Y-106587129D01*
X139451230Y-106818081D01*
X139458942Y-107065488D01*
X139444700Y-107337056D01*
X139422011Y-107547834D01*
X139358093Y-107908069D01*
X139260438Y-108249338D01*
X139130372Y-108569201D01*
X138969217Y-108865218D01*
X138778296Y-109134950D01*
X138558932Y-109375957D01*
X138319344Y-109580644D01*
X138220036Y-109648356D01*
X138090812Y-109726304D01*
X137941243Y-109809462D01*
X137780899Y-109892802D01*
X137619350Y-109971297D01*
X137466165Y-110039921D01*
X137372095Y-110078213D01*
X137040175Y-110188501D01*
X136702695Y-110264039D01*
X136352343Y-110306008D01*
X135981806Y-110315587D01*
X135911167Y-110313924D01*
X135690138Y-110303211D01*
X135497591Y-110284226D01*
X135320090Y-110254621D01*
X135144199Y-110212045D01*
X134956483Y-110154149D01*
X134912977Y-110139369D01*
X134521581Y-109982908D01*
X134154022Y-109791701D01*
X133811339Y-109566672D01*
X133494569Y-109308743D01*
X133204750Y-109018839D01*
X132942922Y-108697884D01*
X132710120Y-108346799D01*
X132535201Y-108024084D01*
X132421722Y-107773251D01*
X132331444Y-107526366D01*
X132260943Y-107271483D01*
X132206793Y-106996656D01*
X132174174Y-106764667D01*
X132146678Y-106374567D01*
X132156822Y-105981795D01*
X132203652Y-105592475D01*
X132286215Y-105212730D01*
X132403555Y-104848683D01*
X132512710Y-104591954D01*
X132640736Y-104352210D01*
X132800296Y-104103113D01*
X132984590Y-103853273D01*
X133186818Y-103611302D01*
X133400182Y-103385810D01*
X133617881Y-103185408D01*
X133634407Y-103171450D01*
X133971546Y-102915859D01*
X134333862Y-102692389D01*
X134718079Y-102501819D01*
X135120919Y-102344925D01*
X135539106Y-102222484D01*
X135969364Y-102135274D01*
X136408416Y-102084070D01*
X136852987Y-102069651D01*
X137299798Y-102092793D01*
X137745575Y-102154273D01*
X137844025Y-102173191D01*
X138198579Y-102255823D01*
X138552974Y-102359331D01*
X138900509Y-102480912D01*
X139234485Y-102617762D01*
X139548204Y-102767079D01*
X139834964Y-102926058D01*
X140088068Y-103091898D01*
X140151114Y-103138511D01*
X140338422Y-103292130D01*
X140539838Y-103477849D01*
X140749983Y-103690183D01*
X140963481Y-103923651D01*
X141174955Y-104172767D01*
X141221100Y-104229660D01*
X141540713Y-104655594D01*
X141818412Y-105086876D01*
X142054367Y-105524250D01*
X142248746Y-105968459D01*
X142401720Y-106420247D01*
X142513456Y-106880359D01*
X142584124Y-107349537D01*
X142613893Y-107828527D01*
X142602932Y-108318071D01*
X142551409Y-108818914D01*
X142459495Y-109331799D01*
X142419865Y-109505750D01*
X142321770Y-109866712D01*
X142204811Y-110204909D01*
X142066129Y-110524974D01*
X141902869Y-110831537D01*
X141712172Y-111129228D01*
X141491182Y-111422679D01*
X141237041Y-111716521D01*
X140946892Y-112015384D01*
X140763098Y-112190878D01*
X140328951Y-112572450D01*
X139885164Y-112917512D01*
X139433356Y-113225127D01*
X138975149Y-113494359D01*
X138512165Y-113724272D01*
X138046023Y-113913928D01*
X137578347Y-114062392D01*
X137477500Y-114088904D01*
X137299022Y-114132473D01*
X137139327Y-114167234D01*
X136989586Y-114194209D01*
X136840971Y-114214416D01*
X136684651Y-114228876D01*
X136511800Y-114238606D01*
X136313588Y-114244627D01*
X136101667Y-114247762D01*
X135929179Y-114248718D01*
X135755448Y-114248319D01*
X135589378Y-114246685D01*
X135439872Y-114243936D01*
X135315835Y-114240192D01*
X135233834Y-114236102D01*
X134638494Y-114183955D01*
X134077772Y-114109015D01*
X133550398Y-114010946D01*
X133055104Y-113889411D01*
X132590620Y-113744074D01*
X132155680Y-113574600D01*
X131749012Y-113380652D01*
X131515828Y-113251087D01*
X131372549Y-113164069D01*
X131212296Y-113061930D01*
X131042952Y-112950099D01*
X130872401Y-112834002D01*
X130708526Y-112719068D01*
X130559211Y-112610723D01*
X130432338Y-112514396D01*
X130354917Y-112451841D01*
X130069918Y-112193986D01*
X129794199Y-111907108D01*
X129525468Y-111588371D01*
X129261433Y-111234939D01*
X128999802Y-110843975D01*
X128821063Y-110553500D01*
X128750267Y-110432985D01*
X128672641Y-110297849D01*
X128591368Y-110153928D01*
X128509632Y-110007053D01*
X128430615Y-109863058D01*
X128357499Y-109727776D01*
X128293467Y-109607042D01*
X128241702Y-109506687D01*
X128205386Y-109432547D01*
X128189685Y-109396271D01*
X128104311Y-109163135D01*
X128032350Y-108961736D01*
X127971390Y-108784544D01*
X127919023Y-108624030D01*
X127872837Y-108472666D01*
X127830425Y-108322923D01*
X127789375Y-108167270D01*
X127764026Y-108066417D01*
X127692805Y-107764514D01*
X127635810Y-107487973D01*
X127591751Y-107226044D01*
X127559339Y-106967982D01*
X127537283Y-106703037D01*
X127524294Y-106420463D01*
X127519080Y-106109511D01*
X127518839Y-106023834D01*
X127519883Y-105784141D01*
X127523722Y-105578370D01*
X127531104Y-105398159D01*
X127542780Y-105235146D01*
X127559499Y-105080968D01*
X127582011Y-104927263D01*
X127611065Y-104765670D01*
X127647412Y-104587826D01*
X127647718Y-104586393D01*
X127724680Y-104271062D01*
X127824994Y-103931915D01*
X127945081Y-103577799D01*
X128081364Y-103217564D01*
X128230266Y-102860058D01*
X128388208Y-102514127D01*
X128551614Y-102188622D01*
X128716906Y-101892389D01*
X128777065Y-101793198D01*
X129044930Y-101396349D01*
X129351153Y-101004212D01*
X129691770Y-100620578D01*
X130062815Y-100249240D01*
X130460323Y-99893990D01*
X130880328Y-99558621D01*
X131318867Y-99246925D01*
X131677834Y-99018695D01*
X132133244Y-98760035D01*
X132591363Y-98532638D01*
X133054587Y-98336177D01*
X133525313Y-98170323D01*
X134005936Y-98034749D01*
X134498853Y-97929126D01*
X135006460Y-97853126D01*
X135531153Y-97806421D01*
X136075328Y-97788683D01*
X136641381Y-97799583D01*
G36*
X136641381Y-97799583D02*
G01*
X137231710Y-97838794D01*
X137848709Y-97905988D01*
X138494775Y-98000835D01*
X138768667Y-98047648D01*
X138888075Y-98068963D01*
X138991940Y-98087726D01*
X139073543Y-98102705D01*
X139126166Y-98112668D01*
X139143185Y-98116319D01*
X139141397Y-98137888D01*
X139131062Y-98194117D01*
X139113454Y-98278490D01*
X139097039Y-98352770D01*
X139087086Y-98396957D01*
X138816752Y-98346880D01*
X138166862Y-98237454D01*
X137547121Y-98155750D01*
X136955695Y-98101754D01*
X136390752Y-98075452D01*
X135850458Y-98076829D01*
X135332980Y-98105872D01*
X134836486Y-98162565D01*
X134359143Y-98246896D01*
X134083554Y-98310157D01*
X133553203Y-98463942D01*
X133028124Y-98658102D01*
X132511273Y-98890741D01*
X132005606Y-99159963D01*
X131514077Y-99463873D01*
X131039640Y-99800576D01*
X130585252Y-100168175D01*
X130153867Y-100564776D01*
X129748440Y-100988482D01*
X129548768Y-101219000D01*
X129335182Y-101487665D01*
X129137893Y-101764764D01*
X128954092Y-102055485D01*
X128780971Y-102365014D01*
X128615720Y-102698537D01*
X128455532Y-103061241D01*
X128297597Y-103458312D01*
X128214399Y-103682935D01*
X128094791Y-104032382D01*
X127998353Y-104359093D01*
X127922718Y-104674100D01*
X127865522Y-104988432D01*
X127824401Y-105313119D01*
X127799511Y-105618088D01*
X127787926Y-106032508D01*
X127803348Y-106466036D01*
X127844337Y-106911833D01*
X127909454Y-107363058D01*
X127997257Y-107812872D01*
X128106306Y-108254435D01*
X128235162Y-108680908D01*
X128382382Y-109085451D01*
X128546528Y-109461224D01*
X128652978Y-109670845D01*
X128875396Y-110073865D01*
X129088853Y-110439489D01*
X129295876Y-110771068D01*
X129498991Y-111071950D01*
X129700723Y-111345486D01*
X129903600Y-111595026D01*
X130110146Y-111823918D01*
X130322887Y-112035513D01*
X130544351Y-112233160D01*
X130652801Y-112322697D01*
X130765667Y-112408945D01*
X130907390Y-112509959D01*
X131069600Y-112620357D01*
X131243924Y-112734755D01*
X131421989Y-112847768D01*
X131595426Y-112954013D01*
X131755861Y-113048105D01*
X131894922Y-113124662D01*
X131920516Y-113137951D01*
X132269703Y-113304489D01*
X132628699Y-113450444D01*
X133001461Y-113576712D01*
X133391945Y-113684195D01*
X133804106Y-113773789D01*
X134241900Y-113846395D01*
X134709285Y-113902911D01*
X135210214Y-113944235D01*
X135552678Y-113963238D01*
X135903963Y-113974587D01*
X136222175Y-113973962D01*
X136515109Y-113960435D01*
X136790558Y-113933073D01*
X137056319Y-113890947D01*
X137320185Y-113833127D01*
X137589950Y-113758681D01*
X137784417Y-113696864D01*
X138267260Y-113514791D01*
X138739241Y-113293587D01*
X139201063Y-113032791D01*
X139653428Y-112731947D01*
X140097037Y-112390593D01*
X140532593Y-112008272D01*
X140865660Y-111682887D01*
X141129221Y-111400098D01*
X141356781Y-111125178D01*
X141552228Y-110851818D01*
X141719448Y-110573708D01*
X141862330Y-110284540D01*
X141984761Y-109978005D01*
X142063779Y-109738584D01*
X142150380Y-109415841D01*
X142220834Y-109073661D01*
X142274406Y-108720566D01*
X142310361Y-108365078D01*
X142327965Y-108015717D01*
X142326482Y-107681004D01*
X142305179Y-107369461D01*
X142282796Y-107198584D01*
X142188675Y-106736466D01*
X142053964Y-106283205D01*
X141878472Y-105838431D01*
X141662005Y-105401775D01*
X141404372Y-104972867D01*
X141105380Y-104551338D01*
X140764836Y-104136819D01*
X140584113Y-103937614D01*
X140405325Y-103751687D01*
X140242030Y-103593920D01*
X140085967Y-103457432D01*
X139928874Y-103335343D01*
X139762490Y-103220772D01*
X139607013Y-103123812D01*
X139372595Y-102995967D01*
X139104789Y-102872130D01*
X138812527Y-102755277D01*
X138504742Y-102648380D01*
X138190367Y-102554416D01*
X137878335Y-102476357D01*
X137577577Y-102417178D01*
X137410868Y-102392556D01*
X137232113Y-102375779D01*
X137025887Y-102366327D01*
X136803643Y-102363962D01*
X136576836Y-102368449D01*
X136356918Y-102379551D01*
X136155343Y-102397030D01*
X135983565Y-102420651D01*
X135974667Y-102422221D01*
X135531481Y-102519693D01*
X135116029Y-102648794D01*
X134727208Y-102810159D01*
X134363918Y-103004422D01*
X134025058Y-103232218D01*
X133709525Y-103494182D01*
X133416219Y-103790947D01*
X133241807Y-103996747D01*
X133061031Y-104235517D01*
X132911611Y-104462345D01*
X132788290Y-104686540D01*
X132685810Y-104917412D01*
X132620892Y-105096260D01*
X132565062Y-105273543D01*
X132522467Y-105434423D01*
X132491210Y-105590452D01*
X132469395Y-105753182D01*
X132455126Y-105934164D01*
X132446507Y-106144949D01*
X132446059Y-106161417D01*
X132443339Y-106400580D01*
X132449708Y-106610262D01*
X132466444Y-106802588D01*
X132494826Y-106989685D01*
X132536132Y-107183677D01*
X132566595Y-107304433D01*
X132596803Y-107416159D01*
X132623826Y-107507076D01*
X132651860Y-107587927D01*
X132685098Y-107669452D01*
X132727735Y-107762393D01*
X132783965Y-107877493D01*
X132813418Y-107936576D01*
X133013583Y-108291785D01*
X133244648Y-108619827D01*
X133504893Y-108918992D01*
X133792594Y-109187571D01*
X134106029Y-109423854D01*
X134443475Y-109626130D01*
X134589098Y-109699183D01*
X134947916Y-109847934D01*
X135308387Y-109954413D01*
X135670569Y-110018618D01*
X136034519Y-110040549D01*
X136400294Y-110020203D01*
X136767953Y-109957579D01*
X137137552Y-109852677D01*
X137509148Y-109705494D01*
X137672189Y-109627894D01*
X137923232Y-109492544D01*
X138135178Y-109356744D01*
X138311227Y-109218288D01*
X138420877Y-109112184D01*
X138621243Y-108868097D01*
X138792455Y-108595953D01*
X138933213Y-108299576D01*
X139042215Y-107982787D01*
X139118161Y-107649412D01*
X139159749Y-107303273D01*
X139165679Y-106948193D01*
X139164844Y-106925999D01*
X139153252Y-106750525D01*
X139131760Y-106598542D01*
X139096843Y-106456592D01*
X139044975Y-106311220D01*
X138972628Y-106148969D01*
X138947845Y-106097917D01*
X138823175Y-105872581D01*
X138676049Y-105660705D01*
X138499797Y-105453431D01*
X138341780Y-105293065D01*
X138073731Y-105059434D01*
X137794400Y-104864121D01*
X137510480Y-104709155D01*
X137414186Y-104664626D01*
X137333558Y-104632156D01*
X137255534Y-104607956D01*
X137167048Y-104588239D01*
X137055039Y-104569219D01*
X136997849Y-104560528D01*
X136709467Y-104528690D01*
X136447183Y-104524726D01*
X136204021Y-104550081D01*
X135973006Y-104606202D01*
X135747165Y-104694535D01*
X135519522Y-104816525D01*
X135401457Y-104891518D01*
X135189802Y-105055075D01*
X135009365Y-105243930D01*
X134858660Y-105460235D01*
X134736200Y-105706141D01*
X134640498Y-105983801D01*
X134636111Y-105999568D01*
X134618353Y-106071441D01*
X134605879Y-106143229D01*
X134597842Y-106224660D01*
X134593392Y-106325462D01*
X134591682Y-106455364D01*
X134591574Y-106510667D01*
X134594600Y-106694719D01*
X134605373Y-106848299D01*
X134626435Y-106982948D01*
X134660331Y-107110204D01*
X134709604Y-107241609D01*
X134776795Y-107388703D01*
X134791855Y-107419494D01*
X134847387Y-107527023D01*
X134898927Y-107611903D01*
X134956623Y-107688221D01*
X135030629Y-107770061D01*
X135083176Y-107823753D01*
X135260600Y-107984358D01*
X135439020Y-108107669D01*
X135626990Y-108198046D01*
X135833063Y-108259849D01*
X135995834Y-108288880D01*
X136229892Y-108302008D01*
X136471294Y-108280650D01*
X136713429Y-108227591D01*
X136949687Y-108145614D01*
X137173457Y-108037506D01*
X137378127Y-107906051D01*
X137557087Y-107754034D01*
X137703726Y-107584240D01*
X137718604Y-107563140D01*
X137819888Y-107379248D01*
X137883378Y-107178101D01*
X137907801Y-106963854D01*
X137908038Y-106944584D01*
X137891941Y-106730519D01*
X137840534Y-106531281D01*
X137751954Y-106342670D01*
X137624340Y-106160485D01*
X137499268Y-106022904D01*
X137313873Y-105861745D01*
X137120615Y-105742107D01*
X136918947Y-105663813D01*
X136708324Y-105626687D01*
X136488196Y-105630553D01*
X136349956Y-105652767D01*
X136161968Y-105710824D01*
X136003517Y-105796803D01*
X135875980Y-105907015D01*
X135780734Y-106037774D01*
X135719155Y-106185391D01*
X135692621Y-106346178D01*
X135702508Y-106516448D01*
X135750194Y-106692514D01*
X135837055Y-106870687D01*
X135873752Y-106928140D01*
X135947676Y-107022313D01*
X136026712Y-107087937D01*
X136119988Y-107129232D01*
X136236630Y-107150415D01*
X136366250Y-107155770D01*
X136468095Y-107153807D01*
X136540818Y-107146236D01*
X136597490Y-107130875D01*
X136644131Y-107109358D01*
X136735566Y-107045070D01*
X136822398Y-106957105D01*
X136893096Y-106859027D01*
X136935492Y-106766590D01*
X136955299Y-106707891D01*
X136975949Y-106679916D01*
X137008247Y-106672243D01*
X137032747Y-106672793D01*
X137104712Y-106679468D01*
X137174343Y-106689892D01*
X137222669Y-106702182D01*
X137239330Y-106723097D01*
X137234639Y-106766750D01*
X137233745Y-106771183D01*
X137217609Y-106826042D01*
X137189348Y-106901309D01*
X137159849Y-106969999D01*
X137068213Y-107121058D01*
X136946011Y-107247208D01*
X136798792Y-107345627D01*
X136632105Y-107413492D01*
X136451498Y-107447983D01*
X136262521Y-107446276D01*
X136231086Y-107442343D01*
X136047571Y-107403097D01*
X135892663Y-107342299D01*
X135770390Y-107261769D01*
X135720478Y-107212039D01*
X135599610Y-107043492D01*
X135505853Y-106855639D01*
X135441707Y-106657078D01*
X135409667Y-106456403D01*
X135412231Y-106262211D01*
X135423337Y-106189127D01*
X135471275Y-106018146D01*
X135546645Y-105868073D01*
X135655714Y-105727361D01*
X135697893Y-105683290D01*
X135843763Y-105558058D01*
X136002836Y-105463802D01*
X136180645Y-105398519D01*
X136382725Y-105360207D01*
X136614611Y-105346862D01*
X136627711Y-105346813D01*
X136742951Y-105348103D01*
X136831070Y-105353782D01*
X136907224Y-105366041D01*
X136986568Y-105387071D01*
X137052082Y-105408171D01*
X137289714Y-105508452D01*
X137506379Y-105641128D01*
X137698997Y-105802302D01*
X137864488Y-105988075D01*
X137999775Y-106194548D01*
X138101777Y-106417822D01*
X138167415Y-106653999D01*
X138191759Y-106851154D01*
X138188758Y-107069272D01*
X138153064Y-107276602D01*
X138082243Y-107485021D01*
X138044653Y-107569000D01*
X137946914Y-107733394D01*
X137813350Y-107895958D01*
X137650324Y-108051354D01*
X137464198Y-108194243D01*
X137261335Y-108319287D01*
X137048098Y-108421148D01*
X137011838Y-108435557D01*
X136741508Y-108519972D01*
X136462744Y-108569657D01*
X136182940Y-108584290D01*
X135909486Y-108563549D01*
X135649776Y-108507113D01*
X135614834Y-108496313D01*
X135366777Y-108395246D01*
X135140481Y-108260238D01*
X134937480Y-108094538D01*
X134759312Y-107901395D01*
X134607512Y-107684059D01*
X134483616Y-107445779D01*
X134389160Y-107189803D01*
X134325680Y-106919381D01*
X134294713Y-106637762D01*
X134297794Y-106348196D01*
X134336459Y-106053931D01*
X134376986Y-105877927D01*
X134475007Y-105586724D01*
X134606063Y-105321599D01*
X134770532Y-105082110D01*
X134968794Y-104867815D01*
X135201226Y-104678271D01*
X135468206Y-104513038D01*
X135603781Y-104444571D01*
X135826813Y-104353265D01*
X136055758Y-104288994D01*
X136296258Y-104251226D01*
X136553953Y-104239429D01*
X136834484Y-104253072D01*
X137143492Y-104291621D01*
X137174087Y-104296487D01*
X137401092Y-104351837D01*
X137636113Y-104443698D01*
X137874387Y-104568224D01*
X138111155Y-104721568D01*
X138341656Y-104899881D01*
X138561130Y-105099316D01*
X138764817Y-105316026D01*
X138947955Y-105546163D01*
X139105784Y-105785880D01*
X139177763Y-105915920D01*
X139284829Y-106143756D01*
X139365327Y-106364923D01*
X139420409Y-106587129D01*
X139451230Y-106818081D01*
X139458942Y-107065488D01*
X139444700Y-107337056D01*
X139422011Y-107547834D01*
X139358093Y-107908069D01*
X139260438Y-108249338D01*
X139130372Y-108569201D01*
X138969217Y-108865218D01*
X138778296Y-109134950D01*
X138558932Y-109375957D01*
X138319344Y-109580644D01*
X138220036Y-109648356D01*
X138090812Y-109726304D01*
X137941243Y-109809462D01*
X137780899Y-109892802D01*
X137619350Y-109971297D01*
X137466165Y-110039921D01*
X137372095Y-110078213D01*
X137040175Y-110188501D01*
X136702695Y-110264039D01*
X136352343Y-110306008D01*
X135981806Y-110315587D01*
X135911167Y-110313924D01*
X135690138Y-110303211D01*
X135497591Y-110284226D01*
X135320090Y-110254621D01*
X135144199Y-110212045D01*
X134956483Y-110154149D01*
X134912977Y-110139369D01*
X134521581Y-109982908D01*
X134154022Y-109791701D01*
X133811339Y-109566672D01*
X133494569Y-109308743D01*
X133204750Y-109018839D01*
X132942922Y-108697884D01*
X132710120Y-108346799D01*
X132535201Y-108024084D01*
X132421722Y-107773251D01*
X132331444Y-107526366D01*
X132260943Y-107271483D01*
X132206793Y-106996656D01*
X132174174Y-106764667D01*
X132146678Y-106374567D01*
X132156822Y-105981795D01*
X132203652Y-105592475D01*
X132286215Y-105212730D01*
X132403555Y-104848683D01*
X132512710Y-104591954D01*
X132640736Y-104352210D01*
X132800296Y-104103113D01*
X132984590Y-103853273D01*
X133186818Y-103611302D01*
X133400182Y-103385810D01*
X133617881Y-103185408D01*
X133634407Y-103171450D01*
X133971546Y-102915859D01*
X134333862Y-102692389D01*
X134718079Y-102501819D01*
X135120919Y-102344925D01*
X135539106Y-102222484D01*
X135969364Y-102135274D01*
X136408416Y-102084070D01*
X136852987Y-102069651D01*
X137299798Y-102092793D01*
X137745575Y-102154273D01*
X137844025Y-102173191D01*
X138198579Y-102255823D01*
X138552974Y-102359331D01*
X138900509Y-102480912D01*
X139234485Y-102617762D01*
X139548204Y-102767079D01*
X139834964Y-102926058D01*
X140088068Y-103091898D01*
X140151114Y-103138511D01*
X140338422Y-103292130D01*
X140539838Y-103477849D01*
X140749983Y-103690183D01*
X140963481Y-103923651D01*
X141174955Y-104172767D01*
X141221100Y-104229660D01*
X141540713Y-104655594D01*
X141818412Y-105086876D01*
X142054367Y-105524250D01*
X142248746Y-105968459D01*
X142401720Y-106420247D01*
X142513456Y-106880359D01*
X142584124Y-107349537D01*
X142613893Y-107828527D01*
X142602932Y-108318071D01*
X142551409Y-108818914D01*
X142459495Y-109331799D01*
X142419865Y-109505750D01*
X142321770Y-109866712D01*
X142204811Y-110204909D01*
X142066129Y-110524974D01*
X141902869Y-110831537D01*
X141712172Y-111129228D01*
X141491182Y-111422679D01*
X141237041Y-111716521D01*
X140946892Y-112015384D01*
X140763098Y-112190878D01*
X140328951Y-112572450D01*
X139885164Y-112917512D01*
X139433356Y-113225127D01*
X138975149Y-113494359D01*
X138512165Y-113724272D01*
X138046023Y-113913928D01*
X137578347Y-114062392D01*
X137477500Y-114088904D01*
X137299022Y-114132473D01*
X137139327Y-114167234D01*
X136989586Y-114194209D01*
X136840971Y-114214416D01*
X136684651Y-114228876D01*
X136511800Y-114238606D01*
X136313588Y-114244627D01*
X136101667Y-114247762D01*
X135929179Y-114248718D01*
X135755448Y-114248319D01*
X135589378Y-114246685D01*
X135439872Y-114243936D01*
X135315835Y-114240192D01*
X135233834Y-114236102D01*
X134638494Y-114183955D01*
X134077772Y-114109015D01*
X133550398Y-114010946D01*
X133055104Y-113889411D01*
X132590620Y-113744074D01*
X132155680Y-113574600D01*
X131749012Y-113380652D01*
X131515828Y-113251087D01*
X131372549Y-113164069D01*
X131212296Y-113061930D01*
X131042952Y-112950099D01*
X130872401Y-112834002D01*
X130708526Y-112719068D01*
X130559211Y-112610723D01*
X130432338Y-112514396D01*
X130354917Y-112451841D01*
X130069918Y-112193986D01*
X129794199Y-111907108D01*
X129525468Y-111588371D01*
X129261433Y-111234939D01*
X128999802Y-110843975D01*
X128821063Y-110553500D01*
X128750267Y-110432985D01*
X128672641Y-110297849D01*
X128591368Y-110153928D01*
X128509632Y-110007053D01*
X128430615Y-109863058D01*
X128357499Y-109727776D01*
X128293467Y-109607042D01*
X128241702Y-109506687D01*
X128205386Y-109432547D01*
X128189685Y-109396271D01*
X128104311Y-109163135D01*
X128032350Y-108961736D01*
X127971390Y-108784544D01*
X127919023Y-108624030D01*
X127872837Y-108472666D01*
X127830425Y-108322923D01*
X127789375Y-108167270D01*
X127764026Y-108066417D01*
X127692805Y-107764514D01*
X127635810Y-107487973D01*
X127591751Y-107226044D01*
X127559339Y-106967982D01*
X127537283Y-106703037D01*
X127524294Y-106420463D01*
X127519080Y-106109511D01*
X127518839Y-106023834D01*
X127519883Y-105784141D01*
X127523722Y-105578370D01*
X127531104Y-105398159D01*
X127542780Y-105235146D01*
X127559499Y-105080968D01*
X127582011Y-104927263D01*
X127611065Y-104765670D01*
X127647412Y-104587826D01*
X127647718Y-104586393D01*
X127724680Y-104271062D01*
X127824994Y-103931915D01*
X127945081Y-103577799D01*
X128081364Y-103217564D01*
X128230266Y-102860058D01*
X128388208Y-102514127D01*
X128551614Y-102188622D01*
X128716906Y-101892389D01*
X128777065Y-101793198D01*
X129044930Y-101396349D01*
X129351153Y-101004212D01*
X129691770Y-100620578D01*
X130062815Y-100249240D01*
X130460323Y-99893990D01*
X130880328Y-99558621D01*
X131318867Y-99246925D01*
X131677834Y-99018695D01*
X132133244Y-98760035D01*
X132591363Y-98532638D01*
X133054587Y-98336177D01*
X133525313Y-98170323D01*
X134005936Y-98034749D01*
X134498853Y-97929126D01*
X135006460Y-97853126D01*
X135531153Y-97806421D01*
X136075328Y-97788683D01*
X136641381Y-97799583D01*
G37*
%TD*%
M02*
